<svg width="425" height="265" viewBox="0 0 425 265" fill="none" xmlns="http://www.w3.org/2000/svg">
<rect width="425" height="265" fill="#F5F5F5"/>
<rect x="-15489" y="-6168" width="23840" height="13376" fill="#F8FAF9"/>
<rect width="425" height="265" rx="4" fill="white"/>
<path d="M325 144.5C325 115.989 313.674 88.6462 293.514 68.486C273.354 48.3259 246.011 37 217.5 37C188.989 37 161.646 48.3259 141.486 68.486C121.326 88.6462 110 115.989 110 144.5L134.054 144.5C134.054 122.369 142.846 101.144 158.495 85.4951C174.144 69.846 195.369 61.0545 217.5 61.0545C239.631 61.0545 260.856 69.846 276.505 85.4951C292.154 101.144 300.946 122.369 300.946 144.5H325Z" fill="#D9D9D9"/>
<path d="M313.586 70.9297V69.9453H316.492V70.9297H313.586ZM322.984 74H317.641V73.0859L319.691 70.8535C319.984 70.5371 320.246 70.248 320.477 69.9863C320.707 69.7246 320.902 69.4688 321.062 69.2188C321.227 68.9688 321.352 68.7188 321.438 68.4688C321.523 68.2148 321.566 67.9395 321.566 67.6426C321.566 67.4121 321.533 67.209 321.467 67.0332C321.4 66.8574 321.305 66.709 321.18 66.5879C321.059 66.4629 320.914 66.3691 320.746 66.3066C320.578 66.2441 320.391 66.2129 320.184 66.2129C319.812 66.2129 319.477 66.2891 319.176 66.4414C318.879 66.5898 318.596 66.7812 318.326 67.0156L317.729 66.3184C317.885 66.1777 318.053 66.0469 318.232 65.9258C318.412 65.8008 318.605 65.6934 318.812 65.6035C319.02 65.5137 319.238 65.4434 319.469 65.3926C319.699 65.3379 319.941 65.3105 320.195 65.3105C320.57 65.3105 320.908 65.3633 321.209 65.4688C321.514 65.5742 321.771 65.7266 321.982 65.9258C322.193 66.1211 322.355 66.3613 322.469 66.6465C322.586 66.9277 322.645 67.2461 322.645 67.6016C322.645 67.9336 322.592 68.25 322.486 68.5508C322.385 68.8516 322.242 69.1484 322.059 69.4414C321.879 69.7305 321.662 70.0215 321.408 70.3145C321.158 70.6074 320.887 70.9121 320.594 71.2285L318.947 72.9805V73.0273H322.984V74ZM329.734 69.7051C329.734 70.3965 329.684 71.0156 329.582 71.5625C329.484 72.1094 329.324 72.5723 329.102 72.9512C328.883 73.3301 328.6 73.6191 328.252 73.8184C327.904 74.0176 327.482 74.1172 326.986 74.1172C326.525 74.1172 326.123 74.0176 325.779 73.8184C325.439 73.6191 325.156 73.3301 324.93 72.9512C324.707 72.5723 324.539 72.1094 324.426 71.5625C324.316 71.0156 324.262 70.3965 324.262 69.7051C324.262 69.0137 324.311 68.3945 324.408 67.8477C324.51 67.3008 324.668 66.8398 324.883 66.4648C325.102 66.0859 325.383 65.7969 325.727 65.5977C326.074 65.3984 326.494 65.2988 326.986 65.2988C327.451 65.2988 327.855 65.3984 328.199 65.5977C328.543 65.793 328.828 66.0801 329.055 66.459C329.281 66.834 329.451 67.2949 329.564 67.8418C329.678 68.3887 329.734 69.0098 329.734 69.7051ZM325.346 69.7051C325.346 70.291 325.375 70.8027 325.434 71.2402C325.492 71.6777 325.586 72.043 325.715 72.3359C325.844 72.625 326.012 72.8438 326.219 72.9922C326.43 73.1367 326.686 73.209 326.986 73.209C327.287 73.209 327.543 73.1367 327.754 72.9922C327.965 72.8477 328.137 72.6309 328.27 72.3418C328.406 72.0527 328.504 71.6895 328.562 71.252C328.625 70.8105 328.656 70.2949 328.656 69.7051C328.656 69.1191 328.625 68.6074 328.562 68.1699C328.504 67.7324 328.406 67.3691 328.27 67.0801C328.137 66.791 327.965 66.5742 327.754 66.4297C327.543 66.2852 327.287 66.2129 326.986 66.2129C326.686 66.2129 326.43 66.2852 326.219 66.4297C326.012 66.5742 325.844 66.791 325.715 67.0801C325.586 67.3691 325.492 67.7324 325.434 68.1699C325.375 68.6074 325.346 69.1191 325.346 69.7051ZM336.344 69.7051C336.344 70.3965 336.293 71.0156 336.191 71.5625C336.094 72.1094 335.934 72.5723 335.711 72.9512C335.492 73.3301 335.209 73.6191 334.861 73.8184C334.514 74.0176 334.092 74.1172 333.596 74.1172C333.135 74.1172 332.732 74.0176 332.389 73.8184C332.049 73.6191 331.766 73.3301 331.539 72.9512C331.316 72.5723 331.148 72.1094 331.035 71.5625C330.926 71.0156 330.871 70.3965 330.871 69.7051C330.871 69.0137 330.92 68.3945 331.018 67.8477C331.119 67.3008 331.277 66.8398 331.492 66.4648C331.711 66.0859 331.992 65.7969 332.336 65.5977C332.684 65.3984 333.104 65.2988 333.596 65.2988C334.061 65.2988 334.465 65.3984 334.809 65.5977C335.152 65.793 335.438 66.0801 335.664 66.459C335.891 66.834 336.061 67.2949 336.174 67.8418C336.287 68.3887 336.344 69.0098 336.344 69.7051ZM331.955 69.7051C331.955 70.291 331.984 70.8027 332.043 71.2402C332.102 71.6777 332.195 72.043 332.324 72.3359C332.453 72.625 332.621 72.8438 332.828 72.9922C333.039 73.1367 333.295 73.209 333.596 73.209C333.896 73.209 334.152 73.1367 334.363 72.9922C334.574 72.8477 334.746 72.6309 334.879 72.3418C335.016 72.0527 335.113 71.6895 335.172 71.252C335.234 70.8105 335.266 70.2949 335.266 69.7051C335.266 69.1191 335.234 68.6074 335.172 68.1699C335.113 67.7324 335.016 67.3691 334.879 67.0801C334.746 66.791 334.574 66.5742 334.363 66.4297C334.152 66.2852 333.896 66.2129 333.596 66.2129C333.295 66.2129 333.039 66.2852 332.828 66.4297C332.621 66.5742 332.453 66.791 332.324 67.0801C332.195 67.3691 332.102 67.7324 332.043 68.1699C331.984 68.6074 331.955 69.1191 331.955 69.7051ZM342.953 69.7051C342.953 70.3965 342.902 71.0156 342.801 71.5625C342.703 72.1094 342.543 72.5723 342.32 72.9512C342.102 73.3301 341.818 73.6191 341.471 73.8184C341.123 74.0176 340.701 74.1172 340.205 74.1172C339.744 74.1172 339.342 74.0176 338.998 73.8184C338.658 73.6191 338.375 73.3301 338.148 72.9512C337.926 72.5723 337.758 72.1094 337.645 71.5625C337.535 71.0156 337.48 70.3965 337.48 69.7051C337.48 69.0137 337.529 68.3945 337.627 67.8477C337.729 67.3008 337.887 66.8398 338.102 66.4648C338.32 66.0859 338.602 65.7969 338.945 65.5977C339.293 65.3984 339.713 65.2988 340.205 65.2988C340.67 65.2988 341.074 65.3984 341.418 65.5977C341.762 65.793 342.047 66.0801 342.273 66.459C342.5 66.834 342.67 67.2949 342.783 67.8418C342.896 68.3887 342.953 69.0098 342.953 69.7051ZM338.564 69.7051C338.564 70.291 338.594 70.8027 338.652 71.2402C338.711 71.6777 338.805 72.043 338.934 72.3359C339.062 72.625 339.23 72.8438 339.438 72.9922C339.648 73.1367 339.904 73.209 340.205 73.209C340.506 73.209 340.762 73.1367 340.973 72.9922C341.184 72.8477 341.355 72.6309 341.488 72.3418C341.625 72.0527 341.723 71.6895 341.781 71.252C341.844 70.8105 341.875 70.2949 341.875 69.7051C341.875 69.1191 341.844 68.6074 341.781 68.1699C341.723 67.7324 341.625 67.3691 341.488 67.0801C341.355 66.791 341.184 66.5742 340.973 66.4297C340.762 66.2852 340.506 66.2129 340.205 66.2129C339.904 66.2129 339.648 66.2852 339.438 66.4297C339.23 66.5742 339.062 66.791 338.934 67.0801C338.805 67.3691 338.711 67.7324 338.652 68.1699C338.594 68.6074 338.564 69.1191 338.564 69.7051Z" fill="#595959"/>
<path d="M80.5859 75.9297V74.9453H83.4922V75.9297H80.5859ZM88.2441 79H87.2129V73.6504C87.2129 73.4824 87.2129 73.3027 87.2129 73.1113C87.2168 72.9199 87.2207 72.7305 87.2246 72.543C87.2324 72.3516 87.2383 72.1699 87.2422 71.998C87.25 71.8223 87.2559 71.668 87.2598 71.5352C87.1934 71.6055 87.1348 71.666 87.084 71.7168C87.0332 71.7676 86.9805 71.8164 86.9258 71.8633C86.875 71.9102 86.8203 71.9609 86.7617 72.0156C86.7031 72.0664 86.6328 72.127 86.5508 72.1973L85.6836 72.9062L85.1211 72.1855L87.3652 70.4336H88.2441V79ZM91.3496 75.3379C91.3496 74.9277 91.3691 74.5195 91.4082 74.1133C91.4512 73.707 91.5234 73.3184 91.625 72.9473C91.7305 72.5723 91.873 72.2246 92.0527 71.9043C92.2324 71.584 92.4609 71.3066 92.7383 71.0723C93.0156 70.834 93.3477 70.6484 93.7344 70.5156C94.1211 70.3789 94.5742 70.3105 95.0938 70.3105C95.168 70.3105 95.25 70.3125 95.3398 70.3164C95.4297 70.3203 95.5195 70.3281 95.6094 70.3398C95.7031 70.3477 95.791 70.3594 95.873 70.375C95.959 70.3867 96.0352 70.4023 96.1016 70.4219V71.3301C95.9648 71.2832 95.8105 71.248 95.6387 71.2246C95.4668 71.2012 95.2969 71.1895 95.1289 71.1895C94.7773 71.1895 94.4668 71.2324 94.1973 71.3184C93.9316 71.4004 93.7012 71.5176 93.5059 71.6699C93.3105 71.8223 93.1465 72.0039 93.0137 72.2148C92.8848 72.4258 92.7793 72.6602 92.6973 72.918C92.6152 73.1719 92.5547 73.4434 92.5156 73.7324C92.4766 74.0215 92.4512 74.3223 92.4395 74.6348H92.5098C92.5879 74.4941 92.6816 74.3633 92.791 74.2422C92.9043 74.1172 93.0352 74.0117 93.1836 73.9258C93.332 73.8359 93.498 73.7656 93.6816 73.7148C93.8691 73.6641 94.0781 73.6387 94.3086 73.6387C94.6797 73.6387 95.0156 73.6973 95.3164 73.8145C95.6172 73.9277 95.873 74.0957 96.084 74.3184C96.2949 74.541 96.457 74.8145 96.5703 75.1387C96.6875 75.459 96.7461 75.8262 96.7461 76.2402C96.7461 76.6855 96.6855 77.0859 96.5645 77.4414C96.4434 77.7969 96.2695 78.0996 96.043 78.3496C95.8164 78.5957 95.543 78.7852 95.2227 78.918C94.9023 79.0508 94.543 79.1172 94.1445 79.1172C93.7539 79.1172 93.3867 79.041 93.043 78.8887C92.7031 78.7363 92.4082 78.5039 92.1582 78.1914C91.9082 77.8789 91.7109 77.4863 91.5664 77.0137C91.4219 76.541 91.3496 75.9824 91.3496 75.3379ZM94.1328 78.2207C94.3672 78.2207 94.5801 78.1816 94.7715 78.1035C94.9668 78.0215 95.1348 77.9004 95.2754 77.7402C95.416 77.5762 95.5234 77.3711 95.5977 77.125C95.6758 76.875 95.7148 76.5801 95.7148 76.2402C95.7148 75.9668 95.6816 75.7227 95.6152 75.5078C95.5527 75.2891 95.457 75.1035 95.3281 74.9512C95.1992 74.7988 95.0371 74.6816 94.8418 74.5996C94.6504 74.5176 94.4258 74.4766 94.168 74.4766C93.9062 74.4766 93.666 74.5234 93.4473 74.6172C93.2324 74.707 93.0488 74.8262 92.8965 74.9746C92.7441 75.1191 92.625 75.2852 92.5391 75.4727C92.457 75.6602 92.416 75.8477 92.416 76.0352C92.416 76.2969 92.4512 76.5586 92.5215 76.8203C92.5957 77.0781 92.7031 77.3105 92.8438 77.5176C92.9883 77.7246 93.168 77.8945 93.3828 78.0273C93.5977 78.1562 93.8477 78.2207 94.1328 78.2207ZM103.344 74.7051C103.344 75.3965 103.293 76.0156 103.191 76.5625C103.094 77.1094 102.934 77.5723 102.711 77.9512C102.492 78.3301 102.209 78.6191 101.861 78.8184C101.514 79.0176 101.092 79.1172 100.596 79.1172C100.135 79.1172 99.7324 79.0176 99.3887 78.8184C99.0488 78.6191 98.7656 78.3301 98.5391 77.9512C98.3164 77.5723 98.1484 77.1094 98.0352 76.5625C97.9258 76.0156 97.8711 75.3965 97.8711 74.7051C97.8711 74.0137 97.9199 73.3945 98.0176 72.8477C98.1191 72.3008 98.2773 71.8398 98.4922 71.4648C98.7109 71.0859 98.9922 70.7969 99.3359 70.5977C99.6836 70.3984 100.104 70.2988 100.596 70.2988C101.061 70.2988 101.465 70.3984 101.809 70.5977C102.152 70.793 102.438 71.0801 102.664 71.459C102.891 71.834 103.061 72.2949 103.174 72.8418C103.287 73.3887 103.344 74.0098 103.344 74.7051ZM98.9551 74.7051C98.9551 75.291 98.9844 75.8027 99.043 76.2402C99.1016 76.6777 99.1953 77.043 99.3242 77.3359C99.4531 77.625 99.6211 77.8438 99.8281 77.9922C100.039 78.1367 100.295 78.209 100.596 78.209C100.896 78.209 101.152 78.1367 101.363 77.9922C101.574 77.8477 101.746 77.6309 101.879 77.3418C102.016 77.0527 102.113 76.6895 102.172 76.252C102.234 75.8105 102.266 75.2949 102.266 74.7051C102.266 74.1191 102.234 73.6074 102.172 73.1699C102.113 72.7324 102.016 72.3691 101.879 72.0801C101.746 71.791 101.574 71.5742 101.363 71.4297C101.152 71.2852 100.896 71.2129 100.596 71.2129C100.295 71.2129 100.039 71.2852 99.8281 71.4297C99.6211 71.5742 99.4531 71.791 99.3242 72.0801C99.1953 72.3691 99.1016 72.7324 99.043 73.1699C98.9844 73.6074 98.9551 74.1191 98.9551 74.7051ZM109.953 74.7051C109.953 75.3965 109.902 76.0156 109.801 76.5625C109.703 77.1094 109.543 77.5723 109.32 77.9512C109.102 78.3301 108.818 78.6191 108.471 78.8184C108.123 79.0176 107.701 79.1172 107.205 79.1172C106.744 79.1172 106.342 79.0176 105.998 78.8184C105.658 78.6191 105.375 78.3301 105.148 77.9512C104.926 77.5723 104.758 77.1094 104.645 76.5625C104.535 76.0156 104.48 75.3965 104.48 74.7051C104.48 74.0137 104.529 73.3945 104.627 72.8477C104.729 72.3008 104.887 71.8398 105.102 71.4648C105.32 71.0859 105.602 70.7969 105.945 70.5977C106.293 70.3984 106.713 70.2988 107.205 70.2988C107.67 70.2988 108.074 70.3984 108.418 70.5977C108.762 70.793 109.047 71.0801 109.273 71.459C109.5 71.834 109.67 72.2949 109.783 72.8418C109.896 73.3887 109.953 74.0098 109.953 74.7051ZM105.564 74.7051C105.564 75.291 105.594 75.8027 105.652 76.2402C105.711 76.6777 105.805 77.043 105.934 77.3359C106.062 77.625 106.23 77.8438 106.438 77.9922C106.648 78.1367 106.904 78.209 107.205 78.209C107.506 78.209 107.762 78.1367 107.973 77.9922C108.184 77.8477 108.355 77.6309 108.488 77.3418C108.625 77.0527 108.723 76.6895 108.781 76.252C108.844 75.8105 108.875 75.2949 108.875 74.7051C108.875 74.1191 108.844 73.6074 108.781 73.1699C108.723 72.7324 108.625 72.3691 108.488 72.0801C108.355 71.791 108.184 71.5742 107.973 71.4297C107.762 71.2852 107.506 71.2129 107.205 71.2129C106.904 71.2129 106.648 71.2852 106.438 71.4297C106.23 71.5742 106.062 71.791 105.934 72.0801C105.805 72.3691 105.711 72.7324 105.652 73.1699C105.594 73.6074 105.564 74.1191 105.564 74.7051ZM116.562 74.7051C116.562 75.3965 116.512 76.0156 116.41 76.5625C116.312 77.1094 116.152 77.5723 115.93 77.9512C115.711 78.3301 115.428 78.6191 115.08 78.8184C114.732 79.0176 114.311 79.1172 113.814 79.1172C113.354 79.1172 112.951 79.0176 112.607 78.8184C112.268 78.6191 111.984 78.3301 111.758 77.9512C111.535 77.5723 111.367 77.1094 111.254 76.5625C111.145 76.0156 111.09 75.3965 111.09 74.7051C111.09 74.0137 111.139 73.3945 111.236 72.8477C111.338 72.3008 111.496 71.8398 111.711 71.4648C111.93 71.0859 112.211 70.7969 112.555 70.5977C112.902 70.3984 113.322 70.2988 113.814 70.2988C114.279 70.2988 114.684 70.3984 115.027 70.5977C115.371 70.793 115.656 71.0801 115.883 71.459C116.109 71.834 116.279 72.2949 116.393 72.8418C116.506 73.3887 116.562 74.0098 116.562 74.7051ZM112.174 74.7051C112.174 75.291 112.203 75.8027 112.262 76.2402C112.32 76.6777 112.414 77.043 112.543 77.3359C112.672 77.625 112.84 77.8438 113.047 77.9922C113.258 78.1367 113.514 78.209 113.814 78.209C114.115 78.209 114.371 78.1367 114.582 77.9922C114.793 77.8477 114.965 77.6309 115.098 77.3418C115.234 77.0527 115.332 76.6895 115.391 76.252C115.453 75.8105 115.484 75.2949 115.484 74.7051C115.484 74.1191 115.453 73.6074 115.391 73.1699C115.332 72.7324 115.234 72.3691 115.098 72.0801C114.965 71.791 114.793 71.5742 114.582 71.4297C114.371 71.2852 114.115 71.2129 113.814 71.2129C113.514 71.2129 113.258 71.2852 113.047 71.4297C112.84 71.5742 112.672 71.791 112.543 72.0801C112.414 72.3691 112.32 72.7324 112.262 73.1699C112.203 73.6074 112.174 74.1191 112.174 74.7051Z" fill="#595959"/>
<path d="M59.5859 143.93V142.945H62.4922V143.93H59.5859ZM67.2441 147H66.2129V141.65C66.2129 141.482 66.2129 141.303 66.2129 141.111C66.2168 140.92 66.2207 140.73 66.2246 140.543C66.2324 140.352 66.2383 140.17 66.2422 139.998C66.25 139.822 66.2559 139.668 66.2598 139.535C66.1934 139.605 66.1348 139.666 66.084 139.717C66.0332 139.768 65.9805 139.816 65.9258 139.863C65.875 139.91 65.8203 139.961 65.7617 140.016C65.7031 140.066 65.6328 140.127 65.5508 140.197L64.6836 140.906L64.1211 140.186L66.3652 138.434H67.2441V147ZM72.998 138.299C73.3262 138.299 73.6348 138.342 73.9238 138.428C74.2168 138.514 74.4727 138.643 74.6914 138.814C74.9141 138.986 75.0898 139.201 75.2188 139.459C75.3477 139.717 75.4121 140.018 75.4121 140.361C75.4121 140.623 75.373 140.859 75.2949 141.07C75.2168 141.281 75.1094 141.473 74.9727 141.645C74.8359 141.812 74.6738 141.965 74.4863 142.102C74.2988 142.234 74.0957 142.355 73.877 142.465C74.1035 142.586 74.3242 142.721 74.5391 142.869C74.7578 143.018 74.9512 143.186 75.1191 143.373C75.291 143.557 75.4277 143.764 75.5293 143.994C75.6348 144.225 75.6875 144.482 75.6875 144.768C75.6875 145.127 75.6211 145.453 75.4883 145.746C75.3594 146.035 75.1758 146.281 74.9375 146.484C74.7031 146.688 74.4199 146.844 74.0879 146.953C73.7598 147.062 73.3965 147.117 72.998 147.117C72.5684 147.117 72.1855 147.064 71.8496 146.959C71.5176 146.854 71.2363 146.703 71.0059 146.508C70.7793 146.309 70.6055 146.066 70.4844 145.781C70.3672 145.496 70.3086 145.174 70.3086 144.814C70.3086 144.521 70.3516 144.258 70.4375 144.023C70.5273 143.789 70.6465 143.578 70.7949 143.391C70.9434 143.203 71.1191 143.037 71.3223 142.893C71.5254 142.748 71.7402 142.621 71.9668 142.512C71.7754 142.391 71.5957 142.26 71.4277 142.119C71.2598 141.975 71.1133 141.814 70.9883 141.639C70.8672 141.463 70.7695 141.27 70.6953 141.059C70.625 140.844 70.5898 140.607 70.5898 140.35C70.5898 140.01 70.6543 139.713 70.7832 139.459C70.916 139.201 71.0938 138.986 71.3164 138.814C71.5391 138.643 71.7949 138.514 72.084 138.428C72.377 138.342 72.6816 138.299 72.998 138.299ZM71.3574 144.826C71.3574 145.033 71.3887 145.225 71.4512 145.4C71.5137 145.572 71.6113 145.721 71.7441 145.846C71.877 145.967 72.0449 146.062 72.248 146.133C72.4512 146.199 72.6934 146.232 72.9746 146.232C73.248 146.232 73.4883 146.199 73.6953 146.133C73.9062 146.062 74.082 145.965 74.2227 145.84C74.3633 145.711 74.4688 145.557 74.5391 145.377C74.6094 145.197 74.6445 144.998 74.6445 144.779C74.6445 144.576 74.6055 144.393 74.5273 144.229C74.4531 144.064 74.3438 143.912 74.1992 143.771C74.0586 143.631 73.8887 143.498 73.6895 143.373C73.4902 143.248 73.2676 143.125 73.0215 143.004L72.8457 142.922C72.3535 143.156 71.9824 143.426 71.7324 143.73C71.4824 144.031 71.3574 144.396 71.3574 144.826ZM72.9863 139.189C72.5723 139.189 72.2422 139.293 71.9961 139.5C71.7539 139.707 71.6328 140.008 71.6328 140.402C71.6328 140.625 71.666 140.816 71.7324 140.977C71.8027 141.137 71.8984 141.279 72.0195 141.404C72.1406 141.529 72.2852 141.643 72.4531 141.744C72.625 141.842 72.8105 141.938 73.0098 142.031C73.1973 141.945 73.373 141.852 73.5371 141.75C73.7051 141.648 73.8496 141.533 73.9707 141.404C74.0957 141.275 74.1934 141.129 74.2637 140.965C74.334 140.801 74.3691 140.613 74.3691 140.402C74.3691 140.008 74.2461 139.707 74 139.5C73.7539 139.293 73.416 139.189 72.9863 139.189ZM82.3438 142.705C82.3438 143.396 82.293 144.016 82.1914 144.562C82.0938 145.109 81.9336 145.572 81.7109 145.951C81.4922 146.33 81.209 146.619 80.8613 146.818C80.5137 147.018 80.0918 147.117 79.5957 147.117C79.1348 147.117 78.7324 147.018 78.3887 146.818C78.0488 146.619 77.7656 146.33 77.5391 145.951C77.3164 145.572 77.1484 145.109 77.0352 144.562C76.9258 144.016 76.8711 143.396 76.8711 142.705C76.8711 142.014 76.9199 141.395 77.0176 140.848C77.1191 140.301 77.2773 139.84 77.4922 139.465C77.7109 139.086 77.9922 138.797 78.3359 138.598C78.6836 138.398 79.1035 138.299 79.5957 138.299C80.0605 138.299 80.4648 138.398 80.8086 138.598C81.1523 138.793 81.4375 139.08 81.6641 139.459C81.8906 139.834 82.0605 140.295 82.1738 140.842C82.2871 141.389 82.3438 142.01 82.3438 142.705ZM77.9551 142.705C77.9551 143.291 77.9844 143.803 78.043 144.24C78.1016 144.678 78.1953 145.043 78.3242 145.336C78.4531 145.625 78.6211 145.844 78.8281 145.992C79.0391 146.137 79.2949 146.209 79.5957 146.209C79.8965 146.209 80.1523 146.137 80.3633 145.992C80.5742 145.848 80.7461 145.631 80.8789 145.342C81.0156 145.053 81.1133 144.689 81.1719 144.252C81.2344 143.811 81.2656 143.295 81.2656 142.705C81.2656 142.119 81.2344 141.607 81.1719 141.17C81.1133 140.732 81.0156 140.369 80.8789 140.08C80.7461 139.791 80.5742 139.574 80.3633 139.43C80.1523 139.285 79.8965 139.213 79.5957 139.213C79.2949 139.213 79.0391 139.285 78.8281 139.43C78.6211 139.574 78.4531 139.791 78.3242 140.08C78.1953 140.369 78.1016 140.732 78.043 141.17C77.9844 141.607 77.9551 142.119 77.9551 142.705ZM88.9531 142.705C88.9531 143.396 88.9023 144.016 88.8008 144.562C88.7031 145.109 88.543 145.572 88.3203 145.951C88.1016 146.33 87.8184 146.619 87.4707 146.818C87.123 147.018 86.7012 147.117 86.2051 147.117C85.7441 147.117 85.3418 147.018 84.998 146.818C84.6582 146.619 84.375 146.33 84.1484 145.951C83.9258 145.572 83.7578 145.109 83.6445 144.562C83.5352 144.016 83.4805 143.396 83.4805 142.705C83.4805 142.014 83.5293 141.395 83.627 140.848C83.7285 140.301 83.8867 139.84 84.1016 139.465C84.3203 139.086 84.6016 138.797 84.9453 138.598C85.293 138.398 85.7129 138.299 86.2051 138.299C86.6699 138.299 87.0742 138.398 87.418 138.598C87.7617 138.793 88.0469 139.08 88.2734 139.459C88.5 139.834 88.6699 140.295 88.7832 140.842C88.8965 141.389 88.9531 142.01 88.9531 142.705ZM84.5645 142.705C84.5645 143.291 84.5938 143.803 84.6523 144.24C84.7109 144.678 84.8047 145.043 84.9336 145.336C85.0625 145.625 85.2305 145.844 85.4375 145.992C85.6484 146.137 85.9043 146.209 86.2051 146.209C86.5059 146.209 86.7617 146.137 86.9727 145.992C87.1836 145.848 87.3555 145.631 87.4883 145.342C87.625 145.053 87.7227 144.689 87.7812 144.252C87.8438 143.811 87.875 143.295 87.875 142.705C87.875 142.119 87.8438 141.607 87.7812 141.17C87.7227 140.732 87.625 140.369 87.4883 140.08C87.3555 139.791 87.1836 139.574 86.9727 139.43C86.7617 139.285 86.5059 139.213 86.2051 139.213C85.9043 139.213 85.6484 139.285 85.4375 139.43C85.2305 139.574 85.0625 139.791 84.9336 140.08C84.8047 140.369 84.7109 140.732 84.6523 141.17C84.5938 141.607 84.5645 142.119 84.5645 142.705ZM95.5625 142.705C95.5625 143.396 95.5117 144.016 95.4102 144.562C95.3125 145.109 95.1523 145.572 94.9297 145.951C94.7109 146.33 94.4277 146.619 94.0801 146.818C93.7324 147.018 93.3105 147.117 92.8145 147.117C92.3535 147.117 91.9512 147.018 91.6074 146.818C91.2676 146.619 90.9844 146.33 90.7578 145.951C90.5352 145.572 90.3672 145.109 90.2539 144.562C90.1445 144.016 90.0898 143.396 90.0898 142.705C90.0898 142.014 90.1387 141.395 90.2363 140.848C90.3379 140.301 90.4961 139.84 90.7109 139.465C90.9297 139.086 91.2109 138.797 91.5547 138.598C91.9023 138.398 92.3223 138.299 92.8145 138.299C93.2793 138.299 93.6836 138.398 94.0273 138.598C94.3711 138.793 94.6562 139.08 94.8828 139.459C95.1094 139.834 95.2793 140.295 95.3926 140.842C95.5059 141.389 95.5625 142.01 95.5625 142.705ZM91.1738 142.705C91.1738 143.291 91.2031 143.803 91.2617 144.24C91.3203 144.678 91.4141 145.043 91.543 145.336C91.6719 145.625 91.8398 145.844 92.0469 145.992C92.2578 146.137 92.5137 146.209 92.8145 146.209C93.1152 146.209 93.3711 146.137 93.582 145.992C93.793 145.848 93.9648 145.631 94.0977 145.342C94.2344 145.053 94.332 144.689 94.3906 144.252C94.4531 143.811 94.4844 143.295 94.4844 142.705C94.4844 142.119 94.4531 141.607 94.3906 141.17C94.332 140.732 94.2344 140.369 94.0977 140.08C93.9648 139.791 93.793 139.574 93.582 139.43C93.3711 139.285 93.1152 139.213 92.8145 139.213C92.5137 139.213 92.2578 139.285 92.0469 139.43C91.8398 139.574 91.6719 139.791 91.543 140.08C91.4141 140.369 91.3203 140.732 91.2617 141.17C91.2031 141.607 91.1738 142.119 91.1738 142.705Z" fill="#595959"/>
<path d="M341.047 141.705C341.047 142.396 340.996 143.016 340.895 143.562C340.797 144.109 340.637 144.572 340.414 144.951C340.195 145.33 339.912 145.619 339.564 145.818C339.217 146.018 338.795 146.117 338.299 146.117C337.838 146.117 337.436 146.018 337.092 145.818C336.752 145.619 336.469 145.33 336.242 144.951C336.02 144.572 335.852 144.109 335.738 143.562C335.629 143.016 335.574 142.396 335.574 141.705C335.574 141.014 335.623 140.395 335.721 139.848C335.822 139.301 335.98 138.84 336.195 138.465C336.414 138.086 336.695 137.797 337.039 137.598C337.387 137.398 337.807 137.299 338.299 137.299C338.764 137.299 339.168 137.398 339.512 137.598C339.855 137.793 340.141 138.08 340.367 138.459C340.594 138.834 340.764 139.295 340.877 139.842C340.99 140.389 341.047 141.01 341.047 141.705ZM336.658 141.705C336.658 142.291 336.688 142.803 336.746 143.24C336.805 143.678 336.898 144.043 337.027 144.336C337.156 144.625 337.324 144.844 337.531 144.992C337.742 145.137 337.998 145.209 338.299 145.209C338.6 145.209 338.855 145.137 339.066 144.992C339.277 144.848 339.449 144.631 339.582 144.342C339.719 144.053 339.816 143.689 339.875 143.252C339.938 142.811 339.969 142.295 339.969 141.705C339.969 141.119 339.938 140.607 339.875 140.17C339.816 139.732 339.719 139.369 339.582 139.08C339.449 138.791 339.277 138.574 339.066 138.43C338.855 138.285 338.6 138.213 338.299 138.213C337.998 138.213 337.742 138.285 337.531 138.43C337.324 138.574 337.156 138.791 337.027 139.08C336.898 139.369 336.805 139.732 336.746 140.17C336.688 140.607 336.658 141.119 336.658 141.705Z" fill="#595959"/>
<line x1="106" y1="143.5" x2="111" y2="143.5" stroke="#595959"/>
<line x1="325" y1="143.5" x2="330" y2="143.5" stroke="#595959"/>
<line x1="305.493" y1="75.1285" x2="301.473" y2="78.1026" stroke="#595959"/>
<line y1="-0.5" x2="5" y2="-0.5" transform="matrix(0.874619 0.484809 0.484809 -0.874619 129 76)" stroke="#595959"/>
<path d="M133.025 78.015C118.117 96.9571 110.008 120.36 110 144.465L133.896 144.473C133.902 125.726 140.209 107.525 151.803 92.794L133.025 78.015Z" fill="#E6B056"/>
<path d="M303.784 80.3797C293.904 67.0856 281.086 56.254 266.331 48.7304C251.575 41.2068 235.28 37.1946 218.718 37.0069C202.156 36.8192 185.775 40.4611 170.852 47.6484C155.93 54.8358 142.87 65.374 132.692 78.4409L151.535 93.1186C159.452 82.955 169.61 74.7582 181.217 69.1678C192.824 63.5775 205.565 60.7447 218.447 60.8907C231.33 61.0367 244.004 64.1574 255.481 70.0094C266.958 75.8613 276.928 84.2862 284.612 94.6266L303.784 80.3797Z" fill="#4CA2A8"/>
<path d="M301.975 78.015C316.883 96.9571 324.992 120.36 325 144.465L300.818 144.473C300.812 125.79 294.527 107.652 282.972 92.9709L301.975 78.015Z" fill="#E6B056"/>
<rect x="158" y="174" width="109" height="40" fill="#EBEFEE"/>
<path d="M184.225 193.344V195.232H177.441V193.344H184.225ZM185.959 190.4V188.336H189.815V200H187.511V190.4H185.959ZM199.202 190.032L194.946 200H192.674L196.962 190.288H191.49V188.368H199.202V190.032ZM208.133 190.272H202.949V193.008C203.173 192.731 203.493 192.507 203.909 192.336C204.325 192.155 204.768 192.064 205.237 192.064C206.091 192.064 206.789 192.251 207.333 192.624C207.877 192.997 208.272 193.477 208.517 194.064C208.763 194.64 208.885 195.259 208.885 195.92C208.885 197.147 208.533 198.133 207.829 198.88C207.136 199.627 206.144 200 204.853 200C203.637 200 202.667 199.696 201.941 199.088C201.216 198.48 200.805 197.685 200.709 196.704H202.885C202.981 197.131 203.195 197.472 203.525 197.728C203.867 197.984 204.299 198.112 204.821 198.112C205.451 198.112 205.925 197.915 206.245 197.52C206.565 197.125 206.725 196.603 206.725 195.952C206.725 195.291 206.56 194.789 206.229 194.448C205.909 194.096 205.435 193.92 204.805 193.92C204.357 193.92 203.984 194.032 203.685 194.256C203.387 194.48 203.173 194.779 203.045 195.152H200.901V188.304H208.133V190.272ZM210.244 197.728V195.968L215.476 188.48H218.084V195.776H219.492V197.728H218.084V200H215.844V197.728H210.244ZM215.988 190.88L212.708 195.776H215.988V190.88ZM226.727 188.16V200H224.487V188.16H226.727ZM230.93 192.432C231.218 192.005 231.613 191.659 232.114 191.392C232.626 191.125 233.207 190.992 233.858 190.992C234.615 190.992 235.298 191.179 235.906 191.552C236.525 191.925 237.01 192.459 237.362 193.152C237.725 193.835 237.906 194.629 237.906 195.536C237.906 196.443 237.725 197.248 237.362 197.952C237.01 198.645 236.525 199.184 235.906 199.568C235.298 199.952 234.615 200.144 233.858 200.144C233.197 200.144 232.615 200.016 232.114 199.76C231.623 199.493 231.229 199.152 230.93 198.736V200H228.69V188.16H230.93V192.432ZM235.618 195.536C235.618 195.003 235.506 194.544 235.282 194.16C235.069 193.765 234.781 193.467 234.418 193.264C234.066 193.061 233.682 192.96 233.266 192.96C232.861 192.96 232.477 193.067 232.114 193.28C231.762 193.483 231.474 193.781 231.25 194.176C231.037 194.571 230.93 195.035 230.93 195.568C230.93 196.101 231.037 196.565 231.25 196.96C231.474 197.355 231.762 197.659 232.114 197.872C232.477 198.075 232.861 198.176 233.266 198.176C233.682 198.176 234.066 198.069 234.418 197.856C234.781 197.643 235.069 197.339 235.282 196.944C235.506 196.549 235.618 196.08 235.618 195.536ZM243.348 192.976H241.796V200H239.524V192.976H238.516V191.136H239.524V190.688C239.524 189.6 239.833 188.8 240.452 188.288C241.07 187.776 242.004 187.536 243.252 187.568V189.456C242.708 189.445 242.329 189.536 242.116 189.728C241.902 189.92 241.796 190.267 241.796 190.768V191.136H243.348V192.976Z" fill="#121212"/>
<circle cx="217" cy="134" r="10" fill="#EBEFEE"/>
<path d="M285.769 63.4143L210.818 146.932L204.508 140.515L285.769 63.4143Z" fill="#121212"/>
<circle cx="217" cy="134" r="7" fill="white"/>
<path d="M113.268 237.896H116.088V239H111.9V230.66H113.268V237.896ZM122.514 234.344C122.31 234.728 121.986 235.028 121.554 235.268C121.11 235.508 120.546 235.616 119.862 235.616H118.35V239H116.982V230.66H119.862C120.498 230.66 121.038 230.78 121.482 230.996C121.926 231.212 122.262 231.512 122.478 231.884C122.694 232.268 122.814 232.688 122.814 233.144C122.814 233.576 122.706 233.972 122.514 234.344ZM121.026 234.152C121.278 233.912 121.41 233.576 121.41 233.144C121.41 232.232 120.894 231.776 119.862 231.776H118.35V234.5H119.862C120.378 234.5 120.762 234.392 121.026 234.152ZM128.896 232.568C129.232 232.376 129.628 232.28 130.084 232.28V233.696H129.736C129.196 233.696 128.788 233.84 128.512 234.104C128.236 234.38 128.104 234.848 128.104 235.52V239H126.736V232.388H128.104V233.348C128.296 233.012 128.56 232.76 128.896 232.568ZM137.103 236.204H132.051C132.087 236.732 132.279 237.164 132.639 237.476C132.987 237.8 133.419 237.956 133.935 237.956C134.667 237.956 135.183 237.656 135.495 237.032H136.971C136.767 237.644 136.407 238.148 135.879 238.532C135.351 238.916 134.703 239.108 133.935 239.108C133.299 239.108 132.735 238.976 132.231 238.688C131.727 238.4 131.343 238.004 131.055 237.488C130.767 236.972 130.635 236.372 130.635 235.688C130.635 235.016 130.767 234.416 131.043 233.9C131.319 233.384 131.703 232.988 132.207 232.7C132.711 232.424 133.287 232.28 133.935 232.28C134.559 232.28 135.111 232.424 135.603 232.688C136.083 232.964 136.467 233.348 136.743 233.84C137.007 234.332 137.151 234.896 137.151 235.532C137.151 235.784 137.127 236.012 137.103 236.204ZM135.723 235.1C135.711 234.596 135.531 234.2 135.183 233.888C134.823 233.588 134.391 233.432 133.875 233.432C133.395 233.432 132.999 233.588 132.663 233.888C132.327 234.188 132.123 234.596 132.063 235.1H135.723ZM138.2 233.9C138.476 233.384 138.86 232.988 139.352 232.7C139.832 232.424 140.396 232.28 141.032 232.28C141.824 232.28 142.484 232.472 143.012 232.856C143.54 233.24 143.888 233.78 144.08 234.476H142.604C142.484 234.152 142.292 233.9 142.028 233.708C141.764 233.528 141.428 233.432 141.032 233.432C140.468 233.432 140.024 233.636 139.688 234.032C139.352 234.428 139.196 234.98 139.196 235.688C139.196 236.408 139.352 236.96 139.688 237.356C140.024 237.764 140.468 237.956 141.032 237.956C141.824 237.956 142.34 237.608 142.604 236.912H144.08C143.888 237.584 143.528 238.124 143 238.52C142.472 238.916 141.812 239.108 141.032 239.108C140.396 239.108 139.832 238.976 139.352 238.688C138.86 238.4 138.476 238.004 138.2 237.488C137.924 236.972 137.792 236.372 137.792 235.688C137.792 235.016 137.924 234.416 138.2 233.9ZM146.369 238.688C145.865 238.4 145.469 238.004 145.181 237.488C144.893 236.972 144.749 236.372 144.749 235.688C144.749 235.016 144.893 234.428 145.193 233.9C145.481 233.384 145.889 232.988 146.405 232.7C146.909 232.424 147.485 232.28 148.121 232.28C148.745 232.28 149.321 232.424 149.837 232.7C150.341 232.988 150.749 233.384 151.049 233.9C151.337 234.428 151.493 235.016 151.493 235.688C151.493 236.36 151.337 236.96 151.037 237.476C150.725 238.004 150.317 238.4 149.789 238.688C149.261 238.976 148.685 239.108 148.061 239.108C147.437 239.108 146.873 238.976 146.369 238.688ZM149.045 237.668C149.357 237.5 149.609 237.248 149.801 236.912C149.993 236.576 150.089 236.168 150.089 235.688C150.089 235.208 149.993 234.812 149.813 234.476C149.621 234.14 149.381 233.888 149.081 233.72C148.769 233.552 148.445 233.468 148.097 233.468C147.737 233.468 147.413 233.552 147.113 233.72C146.813 233.888 146.573 234.14 146.405 234.476C146.225 234.812 146.141 235.208 146.141 235.688C146.141 236.408 146.321 236.96 146.681 237.344C147.041 237.728 147.509 237.92 148.061 237.92C148.409 237.92 148.733 237.836 149.045 237.668ZM158.583 232.388V239H157.215V238.22C156.999 238.496 156.711 238.712 156.363 238.868C156.015 239.024 155.643 239.096 155.259 239.096C154.731 239.096 154.263 238.988 153.855 238.772C153.447 238.556 153.123 238.244 152.883 237.812C152.643 237.392 152.535 236.876 152.535 236.276V232.388H153.891V236.072C153.891 236.672 154.035 237.128 154.335 237.44C154.623 237.752 155.031 237.908 155.547 237.908C156.051 237.908 156.459 237.752 156.759 237.44C157.059 237.128 157.215 236.672 157.215 236.072V232.388H158.583ZM162.454 232.592C162.85 232.388 163.306 232.28 163.81 232.28C164.386 232.28 164.902 232.424 165.382 232.712C165.862 233 166.234 233.396 166.51 233.9C166.774 234.416 166.918 235.004 166.918 235.664C166.918 236.336 166.774 236.924 166.51 237.452C166.234 237.98 165.862 238.388 165.382 238.676C164.902 238.964 164.386 239.108 163.81 239.108C163.306 239.108 162.85 239.012 162.466 238.808C162.07 238.604 161.746 238.352 161.506 238.04V242.144H160.138V232.388H161.506V233.36C161.734 233.06 162.046 232.808 162.454 232.592ZM165.238 234.488C165.046 234.152 164.806 233.9 164.494 233.732C164.182 233.564 163.858 233.468 163.51 233.468C163.162 233.468 162.838 233.564 162.526 233.732C162.214 233.912 161.974 234.164 161.782 234.5C161.59 234.836 161.506 235.232 161.506 235.688C161.506 236.144 161.59 236.552 161.782 236.888C161.974 237.224 162.214 237.488 162.526 237.656C162.838 237.836 163.162 237.92 163.51 237.92C163.858 237.92 164.182 237.836 164.494 237.656C164.806 237.476 165.046 237.212 165.238 236.864C165.43 236.528 165.526 236.12 165.526 235.664C165.526 235.208 165.43 234.824 165.238 234.488ZM172.064 238.688C171.56 238.4 171.164 238.004 170.876 237.488C170.588 236.972 170.444 236.372 170.444 235.688C170.444 235.016 170.588 234.428 170.888 233.9C171.176 233.384 171.584 232.988 172.1 232.7C172.604 232.424 173.18 232.28 173.816 232.28C174.44 232.28 175.016 232.424 175.532 232.7C176.036 232.988 176.444 233.384 176.744 233.9C177.032 234.428 177.188 235.016 177.188 235.688C177.188 236.36 177.032 236.96 176.732 237.476C176.42 238.004 176.012 238.4 175.484 238.688C174.956 238.976 174.38 239.108 173.756 239.108C173.132 239.108 172.568 238.976 172.064 238.688ZM174.74 237.668C175.052 237.5 175.304 237.248 175.496 236.912C175.688 236.576 175.784 236.168 175.784 235.688C175.784 235.208 175.688 234.812 175.508 234.476C175.316 234.14 175.076 233.888 174.776 233.72C174.464 233.552 174.14 233.468 173.792 233.468C173.432 233.468 173.108 233.552 172.808 233.72C172.508 233.888 172.268 234.14 172.1 234.476C171.92 234.812 171.836 235.208 171.836 235.688C171.836 236.408 172.016 236.96 172.376 237.344C172.736 237.728 173.204 237.92 173.756 237.92C174.104 237.92 174.428 237.836 174.74 237.668ZM180.451 232.568C180.787 232.376 181.183 232.28 181.639 232.28V233.696H181.291C180.751 233.696 180.343 233.84 180.067 234.104C179.791 234.38 179.659 234.848 179.659 235.52V239H178.291V232.388H179.659V233.348C179.851 233.012 180.115 232.76 180.451 232.568ZM182.718 231.26C182.55 231.092 182.466 230.888 182.466 230.636C182.466 230.396 182.55 230.18 182.718 230.012C182.886 229.844 183.09 229.76 183.342 229.76C183.582 229.76 183.786 229.844 183.954 230.012C184.122 230.18 184.206 230.396 184.206 230.636C184.206 230.888 184.122 231.092 183.954 231.26C183.786 231.428 183.582 231.512 183.342 231.512C183.09 231.512 182.886 231.428 182.718 231.26ZM184.014 232.388V239H182.646V232.388H184.014ZM188.332 233.504H187.108V239H185.728V233.504H184.948V232.388H185.728V231.92C185.728 231.164 185.92 230.612 186.328 230.264C186.736 229.916 187.372 229.736 188.236 229.736V230.876C187.816 230.876 187.528 230.96 187.36 231.116C187.192 231.272 187.108 231.536 187.108 231.92V232.388H188.332V233.504ZM189.367 231.26C189.199 231.092 189.115 230.888 189.115 230.636C189.115 230.396 189.199 230.18 189.367 230.012C189.535 229.844 189.739 229.76 189.991 229.76C190.231 229.76 190.435 229.844 190.603 230.012C190.771 230.18 190.855 230.396 190.855 230.636C190.855 230.888 190.771 231.092 190.603 231.26C190.435 231.428 190.231 231.512 189.991 231.512C189.739 231.512 189.535 231.428 189.367 231.26ZM190.663 232.388V239H189.295V232.388H190.663ZM192.161 233.9C192.437 233.384 192.821 232.988 193.313 232.7C193.793 232.424 194.357 232.28 194.993 232.28C195.785 232.28 196.445 232.472 196.973 232.856C197.501 233.24 197.849 233.78 198.041 234.476H196.565C196.445 234.152 196.253 233.9 195.989 233.708C195.725 233.528 195.389 233.432 194.993 233.432C194.429 233.432 193.985 233.636 193.649 234.032C193.313 234.428 193.157 234.98 193.157 235.688C193.157 236.408 193.313 236.96 193.649 237.356C193.985 237.764 194.429 237.956 194.993 237.956C195.785 237.956 196.301 237.608 196.565 236.912H198.041C197.849 237.584 197.489 238.124 196.961 238.52C196.433 238.916 195.773 239.108 194.993 239.108C194.357 239.108 193.793 238.976 193.313 238.688C192.821 238.4 192.437 238.004 192.161 237.488C191.885 236.972 191.753 236.372 191.753 235.688C191.753 235.016 191.885 234.416 192.161 233.9ZM205.166 236.204H200.114C200.15 236.732 200.342 237.164 200.702 237.476C201.05 237.8 201.482 237.956 201.998 237.956C202.73 237.956 203.246 237.656 203.558 237.032H205.034C204.83 237.644 204.47 238.148 203.942 238.532C203.414 238.916 202.766 239.108 201.998 239.108C201.362 239.108 200.798 238.976 200.294 238.688C199.79 238.4 199.406 238.004 199.118 237.488C198.83 236.972 198.698 236.372 198.698 235.688C198.698 235.016 198.83 234.416 199.106 233.9C199.382 233.384 199.766 232.988 200.27 232.7C200.774 232.424 201.35 232.28 201.998 232.28C202.622 232.28 203.174 232.424 203.666 232.688C204.146 232.964 204.53 233.348 204.806 233.84C205.07 234.332 205.214 234.896 205.214 235.532C205.214 235.784 205.19 236.012 205.166 236.204ZM203.786 235.1C203.774 234.596 203.594 234.2 203.246 233.888C202.886 233.588 202.454 233.432 201.938 233.432C201.458 233.432 201.062 233.588 200.726 233.888C200.39 234.188 200.186 234.596 200.126 235.1H203.786ZM209.249 231.26C209.081 231.092 208.997 230.888 208.997 230.636C208.997 230.396 209.081 230.18 209.249 230.012C209.417 229.844 209.621 229.76 209.873 229.76C210.113 229.76 210.317 229.844 210.485 230.012C210.653 230.18 210.737 230.396 210.737 230.636C210.737 230.888 210.653 231.092 210.485 231.26C210.317 231.428 210.113 231.512 209.873 231.512C209.621 231.512 209.417 231.428 209.249 231.26ZM210.545 232.388V239H209.177V232.388H210.545ZM216.819 232.604C217.227 232.82 217.551 233.144 217.791 233.564C218.019 233.996 218.139 234.5 218.139 235.1V239H216.783V235.304C216.783 234.716 216.627 234.26 216.339 233.948C216.039 233.636 215.631 233.468 215.127 233.468C214.611 233.468 214.203 233.636 213.903 233.948C213.603 234.26 213.459 234.716 213.459 235.304V239H212.091V232.388H213.459V233.144C213.675 232.88 213.963 232.664 214.311 232.508C214.659 232.364 215.031 232.28 215.427 232.28C215.943 232.28 216.411 232.388 216.819 232.604ZM220.63 238.832C220.222 238.64 219.898 238.388 219.658 238.064C219.418 237.74 219.286 237.38 219.274 236.972H220.69C220.714 237.26 220.846 237.488 221.086 237.68C221.326 237.872 221.638 237.956 222.01 237.956C222.394 237.956 222.682 237.884 222.898 237.74C223.114 237.596 223.222 237.404 223.222 237.164C223.222 236.924 223.102 236.732 222.862 236.612C222.622 236.492 222.25 236.36 221.746 236.216C221.242 236.084 220.846 235.952 220.534 235.82C220.222 235.7 219.946 235.496 219.718 235.232C219.49 234.968 219.382 234.62 219.382 234.188C219.382 233.84 219.478 233.516 219.694 233.228C219.898 232.94 220.198 232.7 220.582 232.532C220.966 232.364 221.422 232.28 221.926 232.28C222.67 232.28 223.282 232.472 223.738 232.856C224.194 233.24 224.446 233.756 224.482 234.404H223.114C223.09 234.116 222.97 233.876 222.754 233.696C222.538 233.528 222.238 233.432 221.878 233.432C221.518 233.432 221.242 233.504 221.05 233.636C220.858 233.78 220.762 233.96 220.762 234.176C220.762 234.356 220.822 234.5 220.954 234.62C221.074 234.74 221.23 234.836 221.422 234.908C221.602 234.98 221.878 235.064 222.238 235.16C222.718 235.292 223.102 235.424 223.414 235.556C223.726 235.688 223.99 235.88 224.218 236.132C224.434 236.396 224.554 236.732 224.566 237.152C224.566 237.536 224.458 237.872 224.254 238.16C224.038 238.46 223.75 238.688 223.366 238.856C222.982 239.024 222.538 239.108 222.034 239.108C221.506 239.108 221.038 239.024 220.63 238.832ZM227.391 233.504V237.164C227.391 237.416 227.439 237.596 227.559 237.704C227.679 237.812 227.871 237.86 228.159 237.86H228.999V239H227.919C227.295 239 226.827 238.856 226.503 238.568C226.167 238.28 226.011 237.812 226.011 237.164V233.504H225.231V232.388H226.011V230.744H227.391V232.388H228.999V233.504H227.391ZM229.961 233.9C230.237 233.396 230.609 233 231.089 232.712C231.569 232.424 232.097 232.28 232.673 232.28C233.189 232.28 233.645 232.388 234.029 232.592C234.413 232.796 234.725 233.048 234.965 233.348V232.388H236.345V239H234.965V238.016C234.725 238.328 234.413 238.592 234.017 238.796C233.609 239.012 233.153 239.108 232.649 239.108C232.073 239.108 231.557 238.964 231.089 238.676C230.609 238.388 230.237 237.98 229.961 237.452C229.685 236.924 229.553 236.336 229.553 235.664C229.553 235.004 229.685 234.416 229.961 233.9ZM234.677 234.5C234.485 234.164 234.245 233.912 233.945 233.732C233.633 233.564 233.309 233.468 232.961 233.468C232.601 233.468 232.277 233.564 231.977 233.732C231.665 233.9 231.425 234.152 231.233 234.488C231.041 234.824 230.957 235.208 230.957 235.664C230.957 236.12 231.041 236.528 231.233 236.864C231.425 237.212 231.665 237.476 231.977 237.656C232.289 237.836 232.613 237.92 232.961 237.92C233.309 237.92 233.633 237.836 233.945 237.656C234.245 237.488 234.485 237.224 234.677 236.888C234.869 236.552 234.965 236.144 234.965 235.688C234.965 235.232 234.869 234.836 234.677 234.5ZM239.26 230.12V239H237.892V230.12H239.26ZM242.174 230.12V239H240.806V230.12H242.174ZM249.732 236.204H244.68C244.716 236.732 244.908 237.164 245.268 237.476C245.616 237.8 246.048 237.956 246.564 237.956C247.296 237.956 247.812 237.656 248.124 237.032H249.6C249.396 237.644 249.036 238.148 248.508 238.532C247.98 238.916 247.332 239.108 246.564 239.108C245.928 239.108 245.364 238.976 244.86 238.688C244.356 238.4 243.972 238.004 243.684 237.488C243.396 236.972 243.264 236.372 243.264 235.688C243.264 235.016 243.396 234.416 243.672 233.9C243.948 233.384 244.332 232.988 244.836 232.7C245.34 232.424 245.916 232.28 246.564 232.28C247.188 232.28 247.74 232.424 248.232 232.688C248.712 232.964 249.096 233.348 249.372 233.84C249.636 234.332 249.78 234.896 249.78 235.532C249.78 235.784 249.756 236.012 249.732 236.204ZM248.352 235.1C248.34 234.596 248.16 234.2 247.812 233.888C247.452 233.588 247.02 233.432 246.504 233.432C246.024 233.432 245.628 233.588 245.292 233.888C244.956 234.188 244.752 234.596 244.692 235.1H248.352ZM250.829 233.9C251.105 233.396 251.477 233 251.957 232.712C252.437 232.424 252.965 232.28 253.553 232.28C253.985 232.28 254.405 232.376 254.825 232.568C255.245 232.76 255.581 233 255.833 233.312V230.12H257.213V239H255.833V238.004C255.605 238.328 255.293 238.592 254.897 238.796C254.501 239.012 254.045 239.108 253.541 239.108C252.965 239.108 252.437 238.964 251.957 238.676C251.477 238.388 251.105 237.98 250.829 237.452C250.553 236.924 250.421 236.336 250.421 235.664C250.421 235.004 250.553 234.416 250.829 233.9ZM255.545 234.5C255.353 234.164 255.113 233.912 254.813 233.732C254.501 233.564 254.177 233.468 253.829 233.468C253.469 233.468 253.145 233.564 252.845 233.732C252.533 233.9 252.293 234.152 252.101 234.488C251.909 234.824 251.825 235.208 251.825 235.664C251.825 236.12 251.909 236.528 252.101 236.864C252.293 237.212 252.533 237.476 252.845 237.656C253.157 237.836 253.481 237.92 253.829 237.92C254.177 237.92 254.501 237.836 254.813 237.656C255.113 237.488 255.353 237.224 255.545 236.888C255.737 236.552 255.833 236.144 255.833 235.688C255.833 235.232 255.737 234.836 255.545 234.5ZM261.555 238.832C261.387 238.664 261.303 238.46 261.303 238.208C261.303 237.968 261.387 237.752 261.555 237.584C261.723 237.416 261.927 237.332 262.179 237.332C262.419 237.332 262.623 237.416 262.791 237.584C262.959 237.752 263.043 237.968 263.043 238.208C263.043 238.46 262.959 238.664 262.791 238.832C262.623 239 262.419 239.084 262.179 239.084C261.927 239.084 261.723 239 261.555 238.832ZM261.555 233.792C261.387 233.624 261.303 233.42 261.303 233.168C261.303 232.928 261.387 232.712 261.555 232.544C261.723 232.376 261.927 232.292 262.179 232.292C262.419 232.292 262.623 232.376 262.791 232.544C262.959 232.712 263.043 232.928 263.043 233.168C263.043 233.42 262.959 233.624 262.791 233.792C262.623 233.96 262.419 234.044 262.179 234.044C261.927 234.044 261.723 233.96 261.555 233.792ZM272.717 234.344C272.513 234.728 272.189 235.028 271.757 235.268C271.313 235.508 270.749 235.616 270.065 235.616H268.553V239H267.185V230.66H270.065C270.701 230.66 271.241 230.78 271.685 230.996C272.129 231.212 272.465 231.512 272.681 231.884C272.897 232.268 273.017 232.688 273.017 233.144C273.017 233.576 272.909 233.972 272.717 234.344ZM271.229 234.152C271.481 233.912 271.613 233.576 271.613 233.144C271.613 232.232 271.097 231.776 270.065 231.776H268.553V234.5H270.065C270.581 234.5 270.965 234.392 271.229 234.152ZM274.588 231.272C275.056 230.492 275.86 230.096 277.012 230.096C278.152 230.096 278.956 230.492 279.424 231.272C279.892 232.052 280.132 233.132 280.132 234.512C280.132 235.916 279.892 237.008 279.424 237.8C278.956 238.592 278.152 238.976 277.012 238.976C275.86 238.976 275.056 238.592 274.588 237.8C274.12 237.008 273.892 235.916 273.892 234.512C273.892 233.132 274.12 232.052 274.588 231.272ZM278.656 232.868C278.572 232.424 278.404 232.064 278.152 231.776C277.888 231.488 277.516 231.344 277.012 231.344C276.508 231.344 276.124 231.488 275.872 231.776C275.608 232.064 275.44 232.424 275.356 232.868C275.272 233.324 275.236 233.864 275.236 234.512C275.236 235.184 275.272 235.748 275.356 236.204C275.428 236.66 275.596 237.032 275.86 237.308C276.124 237.596 276.508 237.728 277.012 237.728C277.516 237.728 277.888 237.596 278.152 237.308C278.416 237.032 278.584 236.66 278.668 236.204C278.74 235.748 278.788 235.184 278.788 234.512C278.788 233.864 278.74 233.324 278.656 232.868ZM281.149 231.5V230.252H283.645V239H282.265V231.5H281.149Z" fill="#121212"/>
<path d="M313.383 240.25H298.617L306 227.498L313.383 240.25Z" fill="#FEEAEE" stroke="#E16E75"/>
<path d="M306.573 237H305.07V238.5H306.573V237Z" fill="#C21A2C"/>
<path d="M306.573 232.5H305.07V235.5H306.573V232.5Z" fill="#C21A2C"/>
</svg>
