<svg width="425" height="265" viewBox="0 0 425 265" fill="none" xmlns="http://www.w3.org/2000/svg">
<rect width="425" height="265" fill="#F5F5F5"/>
<rect x="-15489" y="-5349" width="23840" height="13376" fill="#F8FAF9"/>
<rect width="425" height="265" rx="4" fill="white"/>
<path d="M315 144.5C315 115.989 303.674 88.6462 283.514 68.486C263.354 48.3259 236.011 37 207.5 37C178.989 37 151.646 48.3259 131.486 68.486C111.326 88.6462 100 115.989 100 144.5L124.054 144.5C124.054 122.369 132.846 101.144 148.495 85.4951C164.144 69.846 185.369 61.0545 207.5 61.0545C229.631 61.0545 250.856 69.846 266.505 85.4951C282.154 101.144 290.946 122.369 290.946 144.5H315Z" fill="#D9D9D9"/>
<path d="M159.906 29H154.562V28.0859L156.613 25.8535C156.906 25.5371 157.168 25.248 157.398 24.9863C157.629 24.7246 157.824 24.4688 157.984 24.2188C158.148 23.9688 158.273 23.7188 158.359 23.4688C158.445 23.2148 158.488 22.9395 158.488 22.6426C158.488 22.4121 158.455 22.209 158.389 22.0332C158.322 21.8574 158.227 21.709 158.102 21.5879C157.98 21.4629 157.836 21.3691 157.668 21.3066C157.5 21.2441 157.312 21.2129 157.105 21.2129C156.734 21.2129 156.398 21.2891 156.098 21.4414C155.801 21.5898 155.518 21.7812 155.248 22.0156L154.65 21.3184C154.807 21.1777 154.975 21.0469 155.154 20.9258C155.334 20.8008 155.527 20.6934 155.734 20.6035C155.941 20.5137 156.16 20.4434 156.391 20.3926C156.621 20.3379 156.863 20.3105 157.117 20.3105C157.492 20.3105 157.83 20.3633 158.131 20.4688C158.436 20.5742 158.693 20.7266 158.904 20.9258C159.115 21.1211 159.277 21.3613 159.391 21.6465C159.508 21.9277 159.566 22.2461 159.566 22.6016C159.566 22.9336 159.514 23.25 159.408 23.5508C159.307 23.8516 159.164 24.1484 158.98 24.4414C158.801 24.7305 158.584 25.0215 158.33 25.3145C158.08 25.6074 157.809 25.9121 157.516 26.2285L155.869 27.9805V28.0273H159.906V29ZM166.656 24.7051C166.656 25.3965 166.605 26.0156 166.504 26.5625C166.406 27.1094 166.246 27.5723 166.023 27.9512C165.805 28.3301 165.521 28.6191 165.174 28.8184C164.826 29.0176 164.404 29.1172 163.908 29.1172C163.447 29.1172 163.045 29.0176 162.701 28.8184C162.361 28.6191 162.078 28.3301 161.852 27.9512C161.629 27.5723 161.461 27.1094 161.348 26.5625C161.238 26.0156 161.184 25.3965 161.184 24.7051C161.184 24.0137 161.232 23.3945 161.33 22.8477C161.432 22.3008 161.59 21.8398 161.805 21.4648C162.023 21.0859 162.305 20.7969 162.648 20.5977C162.996 20.3984 163.416 20.2988 163.908 20.2988C164.373 20.2988 164.777 20.3984 165.121 20.5977C165.465 20.793 165.75 21.0801 165.977 21.459C166.203 21.834 166.373 22.2949 166.486 22.8418C166.6 23.3887 166.656 24.0098 166.656 24.7051ZM162.268 24.7051C162.268 25.291 162.297 25.8027 162.355 26.2402C162.414 26.6777 162.508 27.043 162.637 27.3359C162.766 27.625 162.934 27.8438 163.141 27.9922C163.352 28.1367 163.607 28.209 163.908 28.209C164.209 28.209 164.465 28.1367 164.676 27.9922C164.887 27.8477 165.059 27.6309 165.191 27.3418C165.328 27.0527 165.426 26.6895 165.484 26.252C165.547 25.8105 165.578 25.2949 165.578 24.7051C165.578 24.1191 165.547 23.6074 165.484 23.1699C165.426 22.7324 165.328 22.3691 165.191 22.0801C165.059 21.791 164.887 21.5742 164.676 21.4297C164.465 21.2852 164.209 21.2129 163.908 21.2129C163.607 21.2129 163.352 21.2852 163.141 21.4297C162.934 21.5742 162.766 21.791 162.637 22.0801C162.508 22.3691 162.414 22.7324 162.355 23.1699C162.297 23.6074 162.268 24.1191 162.268 24.7051ZM173.266 24.7051C173.266 25.3965 173.215 26.0156 173.113 26.5625C173.016 27.1094 172.855 27.5723 172.633 27.9512C172.414 28.3301 172.131 28.6191 171.783 28.8184C171.436 29.0176 171.014 29.1172 170.518 29.1172C170.057 29.1172 169.654 29.0176 169.311 28.8184C168.971 28.6191 168.688 28.3301 168.461 27.9512C168.238 27.5723 168.07 27.1094 167.957 26.5625C167.848 26.0156 167.793 25.3965 167.793 24.7051C167.793 24.0137 167.842 23.3945 167.939 22.8477C168.041 22.3008 168.199 21.8398 168.414 21.4648C168.633 21.0859 168.914 20.7969 169.258 20.5977C169.605 20.3984 170.025 20.2988 170.518 20.2988C170.982 20.2988 171.387 20.3984 171.73 20.5977C172.074 20.793 172.359 21.0801 172.586 21.459C172.812 21.834 172.982 22.2949 173.096 22.8418C173.209 23.3887 173.266 24.0098 173.266 24.7051ZM168.877 24.7051C168.877 25.291 168.906 25.8027 168.965 26.2402C169.023 26.6777 169.117 27.043 169.246 27.3359C169.375 27.625 169.543 27.8438 169.75 27.9922C169.961 28.1367 170.217 28.209 170.518 28.209C170.818 28.209 171.074 28.1367 171.285 27.9922C171.496 27.8477 171.668 27.6309 171.801 27.3418C171.938 27.0527 172.035 26.6895 172.094 26.252C172.156 25.8105 172.188 25.2949 172.188 24.7051C172.188 24.1191 172.156 23.6074 172.094 23.1699C172.035 22.7324 171.938 22.3691 171.801 22.0801C171.668 21.791 171.496 21.5742 171.285 21.4297C171.074 21.2852 170.818 21.2129 170.518 21.2129C170.217 21.2129 169.961 21.2852 169.75 21.4297C169.543 21.5742 169.375 21.791 169.246 22.0801C169.117 22.3691 169.023 22.7324 168.965 23.1699C168.906 23.6074 168.877 24.1191 168.877 24.7051ZM179.875 24.7051C179.875 25.3965 179.824 26.0156 179.723 26.5625C179.625 27.1094 179.465 27.5723 179.242 27.9512C179.023 28.3301 178.74 28.6191 178.393 28.8184C178.045 29.0176 177.623 29.1172 177.127 29.1172C176.666 29.1172 176.264 29.0176 175.92 28.8184C175.58 28.6191 175.297 28.3301 175.07 27.9512C174.848 27.5723 174.68 27.1094 174.566 26.5625C174.457 26.0156 174.402 25.3965 174.402 24.7051C174.402 24.0137 174.451 23.3945 174.549 22.8477C174.65 22.3008 174.809 21.8398 175.023 21.4648C175.242 21.0859 175.523 20.7969 175.867 20.5977C176.215 20.3984 176.635 20.2988 177.127 20.2988C177.592 20.2988 177.996 20.3984 178.34 20.5977C178.684 20.793 178.969 21.0801 179.195 21.459C179.422 21.834 179.592 22.2949 179.705 22.8418C179.818 23.3887 179.875 24.0098 179.875 24.7051ZM175.486 24.7051C175.486 25.291 175.516 25.8027 175.574 26.2402C175.633 26.6777 175.727 27.043 175.855 27.3359C175.984 27.625 176.152 27.8438 176.359 27.9922C176.57 28.1367 176.826 28.209 177.127 28.209C177.428 28.209 177.684 28.1367 177.895 27.9922C178.105 27.8477 178.277 27.6309 178.41 27.3418C178.547 27.0527 178.645 26.6895 178.703 26.252C178.766 25.8105 178.797 25.2949 178.797 24.7051C178.797 24.1191 178.766 23.6074 178.703 23.1699C178.645 22.7324 178.547 22.3691 178.41 22.0801C178.277 21.791 178.105 21.5742 177.895 21.4297C177.684 21.2852 177.428 21.2129 177.127 21.2129C176.826 21.2129 176.57 21.2852 176.359 21.4297C176.152 21.5742 175.984 21.791 175.855 22.0801C175.727 22.3691 175.633 22.7324 175.574 23.1699C175.516 23.6074 175.486 24.1191 175.486 24.7051Z" fill="#595959"/>
<path d="M238.631 23.4375C238.631 23.7227 238.586 23.9824 238.496 24.2168C238.406 24.4512 238.279 24.6543 238.115 24.8262C237.955 24.998 237.762 25.1406 237.535 25.2539C237.309 25.3633 237.057 25.4414 236.779 25.4883V25.5234C237.471 25.6094 237.996 25.8301 238.355 26.1855C238.715 26.5371 238.895 26.9961 238.895 27.5625C238.895 27.9375 238.83 28.2812 238.701 28.5938C238.576 28.9062 238.385 29.1758 238.127 29.4023C237.869 29.6289 237.543 29.8047 237.148 29.9297C236.754 30.0547 236.287 30.1172 235.748 30.1172C235.322 30.1172 234.92 30.084 234.541 30.0176C234.166 29.9512 233.812 29.8301 233.48 29.6543V28.6582C233.82 28.8379 234.188 28.9766 234.582 29.0742C234.98 29.1719 235.361 29.2207 235.725 29.2207C236.084 29.2207 236.395 29.1816 236.656 29.1035C236.918 29.0254 237.133 28.9141 237.301 28.7695C237.473 28.625 237.598 28.4473 237.676 28.2363C237.758 28.0254 237.799 27.7891 237.799 27.5273C237.799 27.2617 237.746 27.0352 237.641 26.8477C237.539 26.6562 237.393 26.5 237.201 26.3789C237.01 26.2539 236.775 26.1621 236.498 26.1035C236.225 26.0449 235.914 26.0156 235.566 26.0156H234.787V25.1309H235.566C235.883 25.1309 236.164 25.0918 236.41 25.0137C236.656 24.9355 236.861 24.8242 237.025 24.6797C237.193 24.5352 237.32 24.3633 237.406 24.1641C237.492 23.9648 237.535 23.7461 237.535 23.5078C237.535 23.3047 237.5 23.123 237.43 22.9629C237.359 22.8027 237.26 22.668 237.131 22.5586C237.002 22.4453 236.848 22.3594 236.668 22.3008C236.488 22.2422 236.289 22.2129 236.07 22.2129C235.652 22.2129 235.283 22.2793 234.963 22.4121C234.646 22.541 234.344 22.7109 234.055 22.9219L233.516 22.1895C233.664 22.0684 233.828 21.9551 234.008 21.8496C234.191 21.7441 234.391 21.6523 234.605 21.5742C234.82 21.4922 235.049 21.4277 235.291 21.3809C235.537 21.334 235.797 21.3105 236.07 21.3105C236.492 21.3105 236.861 21.3633 237.178 21.4688C237.498 21.5742 237.766 21.7227 237.98 21.9141C238.195 22.1016 238.357 22.3262 238.467 22.5879C238.576 22.8457 238.631 23.1289 238.631 23.4375ZM245.656 25.7051C245.656 26.3965 245.605 27.0156 245.504 27.5625C245.406 28.1094 245.246 28.5723 245.023 28.9512C244.805 29.3301 244.521 29.6191 244.174 29.8184C243.826 30.0176 243.404 30.1172 242.908 30.1172C242.447 30.1172 242.045 30.0176 241.701 29.8184C241.361 29.6191 241.078 29.3301 240.852 28.9512C240.629 28.5723 240.461 28.1094 240.348 27.5625C240.238 27.0156 240.184 26.3965 240.184 25.7051C240.184 25.0137 240.232 24.3945 240.33 23.8477C240.432 23.3008 240.59 22.8398 240.805 22.4648C241.023 22.0859 241.305 21.7969 241.648 21.5977C241.996 21.3984 242.416 21.2988 242.908 21.2988C243.373 21.2988 243.777 21.3984 244.121 21.5977C244.465 21.793 244.75 22.0801 244.977 22.459C245.203 22.834 245.373 23.2949 245.486 23.8418C245.6 24.3887 245.656 25.0098 245.656 25.7051ZM241.268 25.7051C241.268 26.291 241.297 26.8027 241.355 27.2402C241.414 27.6777 241.508 28.043 241.637 28.3359C241.766 28.625 241.934 28.8438 242.141 28.9922C242.352 29.1367 242.607 29.209 242.908 29.209C243.209 29.209 243.465 29.1367 243.676 28.9922C243.887 28.8477 244.059 28.6309 244.191 28.3418C244.328 28.0527 244.426 27.6895 244.484 27.252C244.547 26.8105 244.578 26.2949 244.578 25.7051C244.578 25.1191 244.547 24.6074 244.484 24.1699C244.426 23.7324 244.328 23.3691 244.191 23.0801C244.059 22.791 243.887 22.5742 243.676 22.4297C243.465 22.2852 243.209 22.2129 242.908 22.2129C242.607 22.2129 242.352 22.2852 242.141 22.4297C241.934 22.5742 241.766 22.791 241.637 23.0801C241.508 23.3691 241.414 23.7324 241.355 24.1699C241.297 24.6074 241.268 25.1191 241.268 25.7051ZM252.266 25.7051C252.266 26.3965 252.215 27.0156 252.113 27.5625C252.016 28.1094 251.855 28.5723 251.633 28.9512C251.414 29.3301 251.131 29.6191 250.783 29.8184C250.436 30.0176 250.014 30.1172 249.518 30.1172C249.057 30.1172 248.654 30.0176 248.311 29.8184C247.971 29.6191 247.688 29.3301 247.461 28.9512C247.238 28.5723 247.07 28.1094 246.957 27.5625C246.848 27.0156 246.793 26.3965 246.793 25.7051C246.793 25.0137 246.842 24.3945 246.939 23.8477C247.041 23.3008 247.199 22.8398 247.414 22.4648C247.633 22.0859 247.914 21.7969 248.258 21.5977C248.605 21.3984 249.025 21.2988 249.518 21.2988C249.982 21.2988 250.387 21.3984 250.73 21.5977C251.074 21.793 251.359 22.0801 251.586 22.459C251.812 22.834 251.982 23.2949 252.096 23.8418C252.209 24.3887 252.266 25.0098 252.266 25.7051ZM247.877 25.7051C247.877 26.291 247.906 26.8027 247.965 27.2402C248.023 27.6777 248.117 28.043 248.246 28.3359C248.375 28.625 248.543 28.8438 248.75 28.9922C248.961 29.1367 249.217 29.209 249.518 29.209C249.818 29.209 250.074 29.1367 250.285 28.9922C250.496 28.8477 250.668 28.6309 250.801 28.3418C250.938 28.0527 251.035 27.6895 251.094 27.252C251.156 26.8105 251.188 26.2949 251.188 25.7051C251.188 25.1191 251.156 24.6074 251.094 24.1699C251.035 23.7324 250.938 23.3691 250.801 23.0801C250.668 22.791 250.496 22.5742 250.285 22.4297C250.074 22.2852 249.818 22.2129 249.518 22.2129C249.217 22.2129 248.961 22.2852 248.75 22.4297C248.543 22.5742 248.375 22.791 248.246 23.0801C248.117 23.3691 248.023 23.7324 247.965 24.1699C247.906 24.6074 247.877 25.1191 247.877 25.7051ZM258.875 25.7051C258.875 26.3965 258.824 27.0156 258.723 27.5625C258.625 28.1094 258.465 28.5723 258.242 28.9512C258.023 29.3301 257.74 29.6191 257.393 29.8184C257.045 30.0176 256.623 30.1172 256.127 30.1172C255.666 30.1172 255.264 30.0176 254.92 29.8184C254.58 29.6191 254.297 29.3301 254.07 28.9512C253.848 28.5723 253.68 28.1094 253.566 27.5625C253.457 27.0156 253.402 26.3965 253.402 25.7051C253.402 25.0137 253.451 24.3945 253.549 23.8477C253.65 23.3008 253.809 22.8398 254.023 22.4648C254.242 22.0859 254.523 21.7969 254.867 21.5977C255.215 21.3984 255.635 21.2988 256.127 21.2988C256.592 21.2988 256.996 21.3984 257.34 21.5977C257.684 21.793 257.969 22.0801 258.195 22.459C258.422 22.834 258.592 23.2949 258.705 23.8418C258.818 24.3887 258.875 25.0098 258.875 25.7051ZM254.486 25.7051C254.486 26.291 254.516 26.8027 254.574 27.2402C254.633 27.6777 254.727 28.043 254.855 28.3359C254.984 28.625 255.152 28.8438 255.359 28.9922C255.57 29.1367 255.826 29.209 256.127 29.209C256.428 29.209 256.684 29.1367 256.895 28.9922C257.105 28.8477 257.277 28.6309 257.41 28.3418C257.547 28.0527 257.645 27.6895 257.703 27.252C257.766 26.8105 257.797 26.2949 257.797 25.7051C257.797 25.1191 257.766 24.6074 257.703 24.1699C257.645 23.7324 257.547 23.3691 257.41 23.0801C257.277 22.791 257.105 22.5742 256.895 22.4297C256.684 22.2852 256.428 22.2129 256.127 22.2129C255.826 22.2129 255.57 22.2852 255.359 22.4297C255.152 22.5742 254.984 22.791 254.855 23.0801C254.727 23.3691 254.633 23.7324 254.574 24.1699C254.516 24.6074 254.486 25.1191 254.486 25.7051Z" fill="#595959"/>
<path d="M315.369 72.0781H314.121V74H313.09V72.0781H309.135V71.1465L313.02 65.3867H314.121V71.1055H315.369V72.0781ZM313.09 71.1055V69.0195C313.09 68.8008 313.092 68.5723 313.096 68.334C313.104 68.0918 313.111 67.8574 313.119 67.6309C313.127 67.4004 313.135 67.1855 313.143 66.9863C313.154 66.7871 313.162 66.6211 313.166 66.4883H313.113C313.086 66.5664 313.051 66.6543 313.008 66.752C312.969 66.8457 312.924 66.9414 312.873 67.0391C312.826 67.1328 312.777 67.2246 312.727 67.3145C312.676 67.4043 312.629 67.4805 312.586 67.543L310.178 71.1055H313.09ZM321.656 69.7051C321.656 70.3965 321.605 71.0156 321.504 71.5625C321.406 72.1094 321.246 72.5723 321.023 72.9512C320.805 73.3301 320.521 73.6191 320.174 73.8184C319.826 74.0176 319.404 74.1172 318.908 74.1172C318.447 74.1172 318.045 74.0176 317.701 73.8184C317.361 73.6191 317.078 73.3301 316.852 72.9512C316.629 72.5723 316.461 72.1094 316.348 71.5625C316.238 71.0156 316.184 70.3965 316.184 69.7051C316.184 69.0137 316.232 68.3945 316.33 67.8477C316.432 67.3008 316.59 66.8398 316.805 66.4648C317.023 66.0859 317.305 65.7969 317.648 65.5977C317.996 65.3984 318.416 65.2988 318.908 65.2988C319.373 65.2988 319.777 65.3984 320.121 65.5977C320.465 65.793 320.75 66.0801 320.977 66.459C321.203 66.834 321.373 67.2949 321.486 67.8418C321.6 68.3887 321.656 69.0098 321.656 69.7051ZM317.268 69.7051C317.268 70.291 317.297 70.8027 317.355 71.2402C317.414 71.6777 317.508 72.043 317.637 72.3359C317.766 72.625 317.934 72.8438 318.141 72.9922C318.352 73.1367 318.607 73.209 318.908 73.209C319.209 73.209 319.465 73.1367 319.676 72.9922C319.887 72.8477 320.059 72.6309 320.191 72.3418C320.328 72.0527 320.426 71.6895 320.484 71.252C320.547 70.8105 320.578 70.2949 320.578 69.7051C320.578 69.1191 320.547 68.6074 320.484 68.1699C320.426 67.7324 320.328 67.3691 320.191 67.0801C320.059 66.791 319.887 66.5742 319.676 66.4297C319.465 66.2852 319.209 66.2129 318.908 66.2129C318.607 66.2129 318.352 66.2852 318.141 66.4297C317.934 66.5742 317.766 66.791 317.637 67.0801C317.508 67.3691 317.414 67.7324 317.355 68.1699C317.297 68.6074 317.268 69.1191 317.268 69.7051ZM328.266 69.7051C328.266 70.3965 328.215 71.0156 328.113 71.5625C328.016 72.1094 327.855 72.5723 327.633 72.9512C327.414 73.3301 327.131 73.6191 326.783 73.8184C326.436 74.0176 326.014 74.1172 325.518 74.1172C325.057 74.1172 324.654 74.0176 324.311 73.8184C323.971 73.6191 323.688 73.3301 323.461 72.9512C323.238 72.5723 323.07 72.1094 322.957 71.5625C322.848 71.0156 322.793 70.3965 322.793 69.7051C322.793 69.0137 322.842 68.3945 322.939 67.8477C323.041 67.3008 323.199 66.8398 323.414 66.4648C323.633 66.0859 323.914 65.7969 324.258 65.5977C324.605 65.3984 325.025 65.2988 325.518 65.2988C325.982 65.2988 326.387 65.3984 326.73 65.5977C327.074 65.793 327.359 66.0801 327.586 66.459C327.812 66.834 327.982 67.2949 328.096 67.8418C328.209 68.3887 328.266 69.0098 328.266 69.7051ZM323.877 69.7051C323.877 70.291 323.906 70.8027 323.965 71.2402C324.023 71.6777 324.117 72.043 324.246 72.3359C324.375 72.625 324.543 72.8438 324.75 72.9922C324.961 73.1367 325.217 73.209 325.518 73.209C325.818 73.209 326.074 73.1367 326.285 72.9922C326.496 72.8477 326.668 72.6309 326.801 72.3418C326.938 72.0527 327.035 71.6895 327.094 71.252C327.156 70.8105 327.188 70.2949 327.188 69.7051C327.188 69.1191 327.156 68.6074 327.094 68.1699C327.035 67.7324 326.938 67.3691 326.801 67.0801C326.668 66.791 326.496 66.5742 326.285 66.4297C326.074 66.2852 325.818 66.2129 325.518 66.2129C325.217 66.2129 324.961 66.2852 324.75 66.4297C324.543 66.5742 324.375 66.791 324.246 67.0801C324.117 67.3691 324.023 67.7324 323.965 68.1699C323.906 68.6074 323.877 69.1191 323.877 69.7051ZM334.875 69.7051C334.875 70.3965 334.824 71.0156 334.723 71.5625C334.625 72.1094 334.465 72.5723 334.242 72.9512C334.023 73.3301 333.74 73.6191 333.393 73.8184C333.045 74.0176 332.623 74.1172 332.127 74.1172C331.666 74.1172 331.264 74.0176 330.92 73.8184C330.58 73.6191 330.297 73.3301 330.07 72.9512C329.848 72.5723 329.68 72.1094 329.566 71.5625C329.457 71.0156 329.402 70.3965 329.402 69.7051C329.402 69.0137 329.451 68.3945 329.549 67.8477C329.65 67.3008 329.809 66.8398 330.023 66.4648C330.242 66.0859 330.523 65.7969 330.867 65.5977C331.215 65.3984 331.635 65.2988 332.127 65.2988C332.592 65.2988 332.996 65.3984 333.34 65.5977C333.684 65.793 333.969 66.0801 334.195 66.459C334.422 66.834 334.592 67.2949 334.705 67.8418C334.818 68.3887 334.875 69.0098 334.875 69.7051ZM330.486 69.7051C330.486 70.291 330.516 70.8027 330.574 71.2402C330.633 71.6777 330.727 72.043 330.855 72.3359C330.984 72.625 331.152 72.8438 331.359 72.9922C331.57 73.1367 331.826 73.209 332.127 73.209C332.428 73.209 332.684 73.1367 332.895 72.9922C333.105 72.8477 333.277 72.6309 333.41 72.3418C333.547 72.0527 333.645 71.6895 333.703 71.252C333.766 70.8105 333.797 70.2949 333.797 69.7051C333.797 69.1191 333.766 68.6074 333.703 68.1699C333.645 67.7324 333.547 67.3691 333.41 67.0801C333.277 66.791 333.105 66.5742 332.895 66.4297C332.684 66.2852 332.428 66.2129 332.127 66.2129C331.826 66.2129 331.57 66.2852 331.359 66.4297C331.152 66.5742 330.984 66.791 330.855 67.0801C330.727 67.3691 330.633 67.7324 330.574 68.1699C330.516 68.6074 330.486 69.1191 330.486 69.7051Z" fill="#595959"/>
<path d="M81.166 79H80.1348V73.6504C80.1348 73.4824 80.1348 73.3027 80.1348 73.1113C80.1387 72.9199 80.1426 72.7305 80.1465 72.543C80.1543 72.3516 80.1602 72.1699 80.1641 71.998C80.1719 71.8223 80.1777 71.668 80.1816 71.5352C80.1152 71.6055 80.0566 71.666 80.0059 71.7168C79.9551 71.7676 79.9023 71.8164 79.8477 71.8633C79.7969 71.9102 79.7422 71.9609 79.6836 72.0156C79.625 72.0664 79.5547 72.127 79.4727 72.1973L78.6055 72.9062L78.043 72.1855L80.2871 70.4336H81.166V79ZM89.6562 74.7051C89.6562 75.3965 89.6055 76.0156 89.5039 76.5625C89.4062 77.1094 89.2461 77.5723 89.0234 77.9512C88.8047 78.3301 88.5215 78.6191 88.1738 78.8184C87.8262 79.0176 87.4043 79.1172 86.9082 79.1172C86.4473 79.1172 86.0449 79.0176 85.7012 78.8184C85.3613 78.6191 85.0781 78.3301 84.8516 77.9512C84.6289 77.5723 84.4609 77.1094 84.3477 76.5625C84.2383 76.0156 84.1836 75.3965 84.1836 74.7051C84.1836 74.0137 84.2324 73.3945 84.3301 72.8477C84.4316 72.3008 84.5898 71.8398 84.8047 71.4648C85.0234 71.0859 85.3047 70.7969 85.6484 70.5977C85.9961 70.3984 86.416 70.2988 86.9082 70.2988C87.373 70.2988 87.7773 70.3984 88.1211 70.5977C88.4648 70.793 88.75 71.0801 88.9766 71.459C89.2031 71.834 89.373 72.2949 89.4863 72.8418C89.5996 73.3887 89.6562 74.0098 89.6562 74.7051ZM85.2676 74.7051C85.2676 75.291 85.2969 75.8027 85.3555 76.2402C85.4141 76.6777 85.5078 77.043 85.6367 77.3359C85.7656 77.625 85.9336 77.8438 86.1406 77.9922C86.3516 78.1367 86.6074 78.209 86.9082 78.209C87.209 78.209 87.4648 78.1367 87.6758 77.9922C87.8867 77.8477 88.0586 77.6309 88.1914 77.3418C88.3281 77.0527 88.4258 76.6895 88.4844 76.252C88.5469 75.8105 88.5781 75.2949 88.5781 74.7051C88.5781 74.1191 88.5469 73.6074 88.4844 73.1699C88.4258 72.7324 88.3281 72.3691 88.1914 72.0801C88.0586 71.791 87.8867 71.5742 87.6758 71.4297C87.4648 71.2852 87.209 71.2129 86.9082 71.2129C86.6074 71.2129 86.3516 71.2852 86.1406 71.4297C85.9336 71.5742 85.7656 71.791 85.6367 72.0801C85.5078 72.3691 85.4141 72.7324 85.3555 73.1699C85.2969 73.6074 85.2676 74.1191 85.2676 74.7051ZM96.2656 74.7051C96.2656 75.3965 96.2148 76.0156 96.1133 76.5625C96.0156 77.1094 95.8555 77.5723 95.6328 77.9512C95.4141 78.3301 95.1309 78.6191 94.7832 78.8184C94.4355 79.0176 94.0137 79.1172 93.5176 79.1172C93.0566 79.1172 92.6543 79.0176 92.3105 78.8184C91.9707 78.6191 91.6875 78.3301 91.4609 77.9512C91.2383 77.5723 91.0703 77.1094 90.957 76.5625C90.8477 76.0156 90.793 75.3965 90.793 74.7051C90.793 74.0137 90.8418 73.3945 90.9395 72.8477C91.041 72.3008 91.1992 71.8398 91.4141 71.4648C91.6328 71.0859 91.9141 70.7969 92.2578 70.5977C92.6055 70.3984 93.0254 70.2988 93.5176 70.2988C93.9824 70.2988 94.3867 70.3984 94.7305 70.5977C95.0742 70.793 95.3594 71.0801 95.5859 71.459C95.8125 71.834 95.9824 72.2949 96.0957 72.8418C96.209 73.3887 96.2656 74.0098 96.2656 74.7051ZM91.877 74.7051C91.877 75.291 91.9062 75.8027 91.9648 76.2402C92.0234 76.6777 92.1172 77.043 92.2461 77.3359C92.375 77.625 92.543 77.8438 92.75 77.9922C92.9609 78.1367 93.2168 78.209 93.5176 78.209C93.8184 78.209 94.0742 78.1367 94.2852 77.9922C94.4961 77.8477 94.668 77.6309 94.8008 77.3418C94.9375 77.0527 95.0352 76.6895 95.0938 76.252C95.1562 75.8105 95.1875 75.2949 95.1875 74.7051C95.1875 74.1191 95.1562 73.6074 95.0938 73.1699C95.0352 72.7324 94.9375 72.3691 94.8008 72.0801C94.668 71.791 94.4961 71.5742 94.2852 71.4297C94.0742 71.2852 93.8184 71.2129 93.5176 71.2129C93.2168 71.2129 92.9609 71.2852 92.75 71.4297C92.543 71.5742 92.375 71.791 92.2461 72.0801C92.1172 72.3691 92.0234 72.7324 91.9648 73.1699C91.9062 73.6074 91.877 74.1191 91.877 74.7051ZM102.875 74.7051C102.875 75.3965 102.824 76.0156 102.723 76.5625C102.625 77.1094 102.465 77.5723 102.242 77.9512C102.023 78.3301 101.74 78.6191 101.393 78.8184C101.045 79.0176 100.623 79.1172 100.127 79.1172C99.666 79.1172 99.2637 79.0176 98.9199 78.8184C98.5801 78.6191 98.2969 78.3301 98.0703 77.9512C97.8477 77.5723 97.6797 77.1094 97.5664 76.5625C97.457 76.0156 97.4023 75.3965 97.4023 74.7051C97.4023 74.0137 97.4512 73.3945 97.5488 72.8477C97.6504 72.3008 97.8086 71.8398 98.0234 71.4648C98.2422 71.0859 98.5234 70.7969 98.8672 70.5977C99.2148 70.3984 99.6348 70.2988 100.127 70.2988C100.592 70.2988 100.996 70.3984 101.34 70.5977C101.684 70.793 101.969 71.0801 102.195 71.459C102.422 71.834 102.592 72.2949 102.705 72.8418C102.818 73.3887 102.875 74.0098 102.875 74.7051ZM98.4863 74.7051C98.4863 75.291 98.5156 75.8027 98.5742 76.2402C98.6328 76.6777 98.7266 77.043 98.8555 77.3359C98.9844 77.625 99.1523 77.8438 99.3594 77.9922C99.5703 78.1367 99.8262 78.209 100.127 78.209C100.428 78.209 100.684 78.1367 100.895 77.9922C101.105 77.8477 101.277 77.6309 101.41 77.3418C101.547 77.0527 101.645 76.6895 101.703 76.252C101.766 75.8105 101.797 75.2949 101.797 74.7051C101.797 74.1191 101.766 73.6074 101.703 73.1699C101.645 72.7324 101.547 72.3691 101.41 72.0801C101.277 71.791 101.105 71.5742 100.895 71.4297C100.684 71.2852 100.428 71.2129 100.127 71.2129C99.8262 71.2129 99.5703 71.2852 99.3594 71.4297C99.1523 71.5742 98.9844 71.791 98.8555 72.0801C98.7266 72.3691 98.6328 72.7324 98.5742 73.1699C98.5156 73.6074 98.4863 74.1191 98.4863 74.7051Z" fill="#595959"/>
<path d="M80.0469 142.705C80.0469 143.396 79.9961 144.016 79.8945 144.562C79.7969 145.109 79.6367 145.572 79.4141 145.951C79.1953 146.33 78.9121 146.619 78.5645 146.818C78.2168 147.018 77.7949 147.117 77.2988 147.117C76.8379 147.117 76.4355 147.018 76.0918 146.818C75.752 146.619 75.4688 146.33 75.2422 145.951C75.0195 145.572 74.8516 145.109 74.7383 144.562C74.6289 144.016 74.5742 143.396 74.5742 142.705C74.5742 142.014 74.623 141.395 74.7207 140.848C74.8223 140.301 74.9805 139.84 75.1953 139.465C75.4141 139.086 75.6953 138.797 76.0391 138.598C76.3867 138.398 76.8066 138.299 77.2988 138.299C77.7637 138.299 78.168 138.398 78.5117 138.598C78.8555 138.793 79.1406 139.08 79.3672 139.459C79.5938 139.834 79.7637 140.295 79.877 140.842C79.9902 141.389 80.0469 142.01 80.0469 142.705ZM75.6582 142.705C75.6582 143.291 75.6875 143.803 75.7461 144.24C75.8047 144.678 75.8984 145.043 76.0273 145.336C76.1562 145.625 76.3242 145.844 76.5312 145.992C76.7422 146.137 76.998 146.209 77.2988 146.209C77.5996 146.209 77.8555 146.137 78.0664 145.992C78.2773 145.848 78.4492 145.631 78.582 145.342C78.7188 145.053 78.8164 144.689 78.875 144.252C78.9375 143.811 78.9688 143.295 78.9688 142.705C78.9688 142.119 78.9375 141.607 78.875 141.17C78.8164 140.732 78.7188 140.369 78.582 140.08C78.4492 139.791 78.2773 139.574 78.0664 139.43C77.8555 139.285 77.5996 139.213 77.2988 139.213C76.998 139.213 76.7422 139.285 76.5312 139.43C76.3242 139.574 76.1562 139.791 76.0273 140.08C75.8984 140.369 75.8047 140.732 75.7461 141.17C75.6875 141.607 75.6582 142.119 75.6582 142.705Z" fill="#595959"/>
<path d="M336.193 141.744C336.58 141.744 336.939 141.799 337.271 141.908C337.607 142.014 337.898 142.172 338.145 142.383C338.395 142.594 338.59 142.855 338.73 143.168C338.871 143.48 338.941 143.842 338.941 144.252C338.941 144.697 338.875 145.098 338.742 145.453C338.609 145.809 338.412 146.109 338.15 146.355C337.889 146.602 337.564 146.791 337.178 146.924C336.795 147.053 336.354 147.117 335.854 147.117C335.654 147.117 335.457 147.107 335.262 147.088C335.07 147.068 334.885 147.039 334.705 147C334.529 146.965 334.361 146.918 334.201 146.859C334.041 146.801 333.896 146.732 333.768 146.654V145.646C333.896 145.736 334.047 145.816 334.219 145.887C334.395 145.957 334.578 146.016 334.77 146.062C334.961 146.109 335.152 146.146 335.344 146.174C335.539 146.197 335.719 146.209 335.883 146.209C336.191 146.209 336.467 146.174 336.709 146.104C336.951 146.029 337.156 145.916 337.324 145.764C337.492 145.611 337.621 145.42 337.711 145.189C337.801 144.959 337.846 144.686 337.846 144.369C337.846 143.811 337.674 143.385 337.33 143.092C336.986 142.795 336.486 142.646 335.83 142.646C335.725 142.646 335.609 142.652 335.484 142.664C335.363 142.672 335.24 142.684 335.115 142.699C334.994 142.715 334.877 142.732 334.764 142.752C334.654 142.768 334.559 142.783 334.477 142.799L333.949 142.465L334.271 138.434H338.314V139.406H335.197L334.969 141.861C335.094 141.838 335.258 141.812 335.461 141.785C335.668 141.758 335.912 141.744 336.193 141.744ZM345.656 142.705C345.656 143.396 345.605 144.016 345.504 144.562C345.406 145.109 345.246 145.572 345.023 145.951C344.805 146.33 344.521 146.619 344.174 146.818C343.826 147.018 343.404 147.117 342.908 147.117C342.447 147.117 342.045 147.018 341.701 146.818C341.361 146.619 341.078 146.33 340.852 145.951C340.629 145.572 340.461 145.109 340.348 144.562C340.238 144.016 340.184 143.396 340.184 142.705C340.184 142.014 340.232 141.395 340.33 140.848C340.432 140.301 340.59 139.84 340.805 139.465C341.023 139.086 341.305 138.797 341.648 138.598C341.996 138.398 342.416 138.299 342.908 138.299C343.373 138.299 343.777 138.398 344.121 138.598C344.465 138.793 344.75 139.08 344.977 139.459C345.203 139.834 345.373 140.295 345.486 140.842C345.6 141.389 345.656 142.01 345.656 142.705ZM341.268 142.705C341.268 143.291 341.297 143.803 341.355 144.24C341.414 144.678 341.508 145.043 341.637 145.336C341.766 145.625 341.934 145.844 342.141 145.992C342.352 146.137 342.607 146.209 342.908 146.209C343.209 146.209 343.465 146.137 343.676 145.992C343.887 145.848 344.059 145.631 344.191 145.342C344.328 145.053 344.426 144.689 344.484 144.252C344.547 143.811 344.578 143.295 344.578 142.705C344.578 142.119 344.547 141.607 344.484 141.17C344.426 140.732 344.328 140.369 344.191 140.08C344.059 139.791 343.887 139.574 343.676 139.43C343.465 139.285 343.209 139.213 342.908 139.213C342.607 139.213 342.352 139.285 342.141 139.43C341.934 139.574 341.766 139.791 341.637 140.08C341.508 140.369 341.414 140.732 341.355 141.17C341.297 141.607 341.268 142.119 341.268 142.705ZM352.266 142.705C352.266 143.396 352.215 144.016 352.113 144.562C352.016 145.109 351.855 145.572 351.633 145.951C351.414 146.33 351.131 146.619 350.783 146.818C350.436 147.018 350.014 147.117 349.518 147.117C349.057 147.117 348.654 147.018 348.311 146.818C347.971 146.619 347.688 146.33 347.461 145.951C347.238 145.572 347.07 145.109 346.957 144.562C346.848 144.016 346.793 143.396 346.793 142.705C346.793 142.014 346.842 141.395 346.939 140.848C347.041 140.301 347.199 139.84 347.414 139.465C347.633 139.086 347.914 138.797 348.258 138.598C348.605 138.398 349.025 138.299 349.518 138.299C349.982 138.299 350.387 138.398 350.73 138.598C351.074 138.793 351.359 139.08 351.586 139.459C351.812 139.834 351.982 140.295 352.096 140.842C352.209 141.389 352.266 142.01 352.266 142.705ZM347.877 142.705C347.877 143.291 347.906 143.803 347.965 144.24C348.023 144.678 348.117 145.043 348.246 145.336C348.375 145.625 348.543 145.844 348.75 145.992C348.961 146.137 349.217 146.209 349.518 146.209C349.818 146.209 350.074 146.137 350.285 145.992C350.496 145.848 350.668 145.631 350.801 145.342C350.938 145.053 351.035 144.689 351.094 144.252C351.156 143.811 351.188 143.295 351.188 142.705C351.188 142.119 351.156 141.607 351.094 141.17C351.035 140.732 350.938 140.369 350.801 140.08C350.668 139.791 350.496 139.574 350.285 139.43C350.074 139.285 349.818 139.213 349.518 139.213C349.217 139.213 348.961 139.285 348.75 139.43C348.543 139.574 348.375 139.791 348.246 140.08C348.117 140.369 348.023 140.732 347.965 141.17C347.906 141.607 347.877 142.119 347.877 142.705ZM358.875 142.705C358.875 143.396 358.824 144.016 358.723 144.562C358.625 145.109 358.465 145.572 358.242 145.951C358.023 146.33 357.74 146.619 357.393 146.818C357.045 147.018 356.623 147.117 356.127 147.117C355.666 147.117 355.264 147.018 354.92 146.818C354.58 146.619 354.297 146.33 354.07 145.951C353.848 145.572 353.68 145.109 353.566 144.562C353.457 144.016 353.402 143.396 353.402 142.705C353.402 142.014 353.451 141.395 353.549 140.848C353.65 140.301 353.809 139.84 354.023 139.465C354.242 139.086 354.523 138.797 354.867 138.598C355.215 138.398 355.635 138.299 356.127 138.299C356.592 138.299 356.996 138.398 357.34 138.598C357.684 138.793 357.969 139.08 358.195 139.459C358.422 139.834 358.592 140.295 358.705 140.842C358.818 141.389 358.875 142.01 358.875 142.705ZM354.486 142.705C354.486 143.291 354.516 143.803 354.574 144.24C354.633 144.678 354.727 145.043 354.855 145.336C354.984 145.625 355.152 145.844 355.359 145.992C355.57 146.137 355.826 146.209 356.127 146.209C356.428 146.209 356.684 146.137 356.895 145.992C357.105 145.848 357.277 145.631 357.41 145.342C357.547 145.053 357.645 144.689 357.703 144.252C357.766 143.811 357.797 143.295 357.797 142.705C357.797 142.119 357.766 141.607 357.703 141.17C357.645 140.732 357.547 140.369 357.41 140.08C357.277 139.791 357.105 139.574 356.895 139.43C356.684 139.285 356.428 139.213 356.127 139.213C355.826 139.213 355.57 139.285 355.359 139.43C355.152 139.574 354.984 139.791 354.855 140.08C354.727 140.369 354.633 140.732 354.574 141.17C354.516 141.607 354.486 142.119 354.486 142.705Z" fill="#595959"/>
<line x1="172.018" y1="38.9515" x2="172.972" y2="43.8596" stroke="#595959"/>
<line y1="-0.5" x2="5" y2="-0.5" transform="matrix(-0.190809 0.981627 0.981627 0.190809 245.48 40.0469)" stroke="#595959"/>
<line x1="96" y1="143.5" x2="101" y2="143.5" stroke="#595959"/>
<line x1="315" y1="143.5" x2="320" y2="143.5" stroke="#595959"/>
<line x1="295.493" y1="75.1285" x2="291.473" y2="78.1026" stroke="#595959"/>
<line y1="-0.5" x2="5" y2="-0.5" transform="matrix(0.874619 0.484809 0.484809 -0.874619 119 76)" stroke="#595959"/>
<path d="M123.025 78.015C108.117 96.9571 100.008 120.36 100 144.465L123.896 144.473C123.902 125.726 130.209 107.525 141.803 92.794L123.025 78.015Z" fill="#E6B056"/>
<path d="M293.784 80.3797C283.904 67.0856 271.086 56.254 256.331 48.7304C241.575 41.2068 225.28 37.1946 208.718 37.0069C192.156 36.8192 175.775 40.4611 160.852 47.6484C145.93 54.8358 132.87 65.374 122.692 78.4409L141.535 93.1186C149.452 82.955 159.61 74.7582 171.217 69.1678C182.824 63.5775 195.565 60.7447 208.447 60.8907C221.33 61.0367 234.004 64.1574 245.481 70.0094C256.958 75.8613 266.928 84.2862 274.612 94.6266L293.784 80.3797Z" fill="#4CA2A8"/>
<path d="M291.975 78.015C306.883 96.9571 314.992 120.36 315 144.465L290.818 144.473C290.812 125.79 284.527 107.652 272.972 92.9709L291.975 78.015Z" fill="#E6B056"/>
<rect x="156" y="174" width="109" height="40" fill="#EBEFEE"/>
<path d="M181.005 197.472C182.029 196.619 182.845 195.909 183.453 195.344C184.061 194.768 184.568 194.171 184.973 193.552C185.378 192.933 185.581 192.325 185.581 191.728C185.581 191.184 185.453 190.757 185.197 190.448C184.941 190.139 184.546 189.984 184.013 189.984C183.48 189.984 183.069 190.165 182.781 190.528C182.493 190.88 182.344 191.365 182.333 191.984H180.157C180.2 190.704 180.578 189.733 181.293 189.072C182.018 188.411 182.936 188.08 184.045 188.08C185.261 188.08 186.194 188.405 186.845 189.056C187.496 189.696 187.821 190.544 187.821 191.6C187.821 192.432 187.597 193.227 187.149 193.984C186.701 194.741 186.189 195.403 185.613 195.968C185.037 196.523 184.285 197.195 183.357 197.984H188.077V199.84H180.173V198.176L181.005 197.472ZM189.239 194.016C189.239 192.171 189.569 190.725 190.231 189.68C190.903 188.635 192.012 188.112 193.559 188.112C195.105 188.112 196.209 188.635 196.871 189.68C197.543 190.725 197.879 192.171 197.879 194.016C197.879 195.872 197.543 197.328 196.871 198.384C196.209 199.44 195.105 199.968 193.559 199.968C192.012 199.968 190.903 199.44 190.231 198.384C189.569 197.328 189.239 195.872 189.239 194.016ZM195.671 194.016C195.671 193.227 195.617 192.565 195.511 192.032C195.415 191.488 195.212 191.045 194.903 190.704C194.604 190.363 194.156 190.192 193.559 190.192C192.961 190.192 192.508 190.363 192.199 190.704C191.9 191.045 191.697 191.488 191.591 192.032C191.495 192.565 191.447 193.227 191.447 194.016C191.447 194.827 191.495 195.509 191.591 196.064C191.687 196.608 191.889 197.051 192.199 197.392C192.508 197.723 192.961 197.888 193.559 197.888C194.156 197.888 194.609 197.723 194.919 197.392C195.228 197.051 195.431 196.608 195.527 196.064C195.623 195.509 195.671 194.827 195.671 194.016ZM199.332 194.016C199.332 192.171 199.663 190.725 200.324 189.68C200.996 188.635 202.106 188.112 203.652 188.112C205.199 188.112 206.303 188.635 206.964 189.68C207.636 190.725 207.972 192.171 207.972 194.016C207.972 195.872 207.636 197.328 206.964 198.384C206.303 199.44 205.199 199.968 203.652 199.968C202.106 199.968 200.996 199.44 200.324 198.384C199.663 197.328 199.332 195.872 199.332 194.016ZM205.764 194.016C205.764 193.227 205.711 192.565 205.604 192.032C205.508 191.488 205.306 191.045 204.996 190.704C204.698 190.363 204.25 190.192 203.652 190.192C203.055 190.192 202.602 190.363 202.292 190.704C201.994 191.045 201.791 191.488 201.684 192.032C201.588 192.565 201.54 193.227 201.54 194.016C201.54 194.827 201.588 195.509 201.684 196.064C201.78 196.608 201.983 197.051 202.292 197.392C202.602 197.723 203.055 197.888 203.652 197.888C204.25 197.888 204.703 197.723 205.012 197.392C205.322 197.051 205.524 196.608 205.62 196.064C205.716 195.509 205.764 194.827 205.764 194.016ZM209.426 194.016C209.426 192.171 209.757 190.725 210.418 189.68C211.09 188.635 212.199 188.112 213.746 188.112C215.293 188.112 216.397 188.635 217.058 189.68C217.73 190.725 218.066 192.171 218.066 194.016C218.066 195.872 217.73 197.328 217.058 198.384C216.397 199.44 215.293 199.968 213.746 199.968C212.199 199.968 211.09 199.44 210.418 198.384C209.757 197.328 209.426 195.872 209.426 194.016ZM215.858 194.016C215.858 193.227 215.805 192.565 215.698 192.032C215.602 191.488 215.399 191.045 215.09 190.704C214.791 190.363 214.343 190.192 213.746 190.192C213.149 190.192 212.695 190.363 212.386 190.704C212.087 191.045 211.885 191.488 211.778 192.032C211.682 192.565 211.634 193.227 211.634 194.016C211.634 194.827 211.682 195.509 211.778 196.064C211.874 196.608 212.077 197.051 212.386 197.392C212.695 197.723 213.149 197.888 213.746 197.888C214.343 197.888 214.797 197.723 215.106 197.392C215.415 197.051 215.618 196.608 215.714 196.064C215.81 195.509 215.858 194.827 215.858 194.016ZM225.578 188.16V200H223.338V188.16H225.578ZM229.782 192.432C230.07 192.005 230.464 191.659 230.966 191.392C231.478 191.125 232.059 190.992 232.71 190.992C233.467 190.992 234.15 191.179 234.758 191.552C235.376 191.925 235.862 192.459 236.214 193.152C236.576 193.835 236.758 194.629 236.758 195.536C236.758 196.443 236.576 197.248 236.214 197.952C235.862 198.645 235.376 199.184 234.758 199.568C234.15 199.952 233.467 200.144 232.71 200.144C232.048 200.144 231.467 200.016 230.966 199.76C230.475 199.493 230.08 199.152 229.782 198.736V200H227.542V188.16H229.782V192.432ZM234.47 195.536C234.47 195.003 234.358 194.544 234.134 194.16C233.92 193.765 233.632 193.467 233.27 193.264C232.918 193.061 232.534 192.96 232.118 192.96C231.712 192.96 231.328 193.067 230.966 193.28C230.614 193.483 230.326 193.781 230.102 194.176C229.888 194.571 229.782 195.035 229.782 195.568C229.782 196.101 229.888 196.565 230.102 196.96C230.326 197.355 230.614 197.659 230.966 197.872C231.328 198.075 231.712 198.176 232.118 198.176C232.534 198.176 232.918 198.069 233.27 197.856C233.632 197.643 233.92 197.339 234.134 196.944C234.358 196.549 234.47 196.08 234.47 195.536ZM242.199 192.976H240.647V200H238.375V192.976H237.367V191.136H238.375V190.688C238.375 189.6 238.685 188.8 239.303 188.288C239.922 187.776 240.855 187.536 242.103 187.568V189.456C241.559 189.445 241.181 189.536 240.967 189.728C240.754 189.92 240.647 190.267 240.647 190.768V191.136H242.199V192.976Z" fill="#121212"/>
<circle cx="212" cy="134" r="10" fill="#EBEFEE"/>
<path d="M172.848 44.6799L222.175 145.476L213.861 148.92L172.848 44.6799Z" fill="#121212"/>
<circle cx="212" cy="134" r="7" fill="white"/>
<path d="M115.56 231.66V240H114.192V236.352H110.268V240H108.9V231.66H110.268V235.236H114.192V231.66H115.56ZM122.643 235.344C122.439 235.728 122.115 236.028 121.683 236.268C121.239 236.508 120.675 236.616 119.991 236.616H118.479V240H117.111V231.66H119.991C120.627 231.66 121.167 231.78 121.611 231.996C122.055 232.212 122.391 232.512 122.607 232.884C122.823 233.268 122.943 233.688 122.943 234.144C122.943 234.576 122.835 234.972 122.643 235.344ZM121.155 235.152C121.407 234.912 121.539 234.576 121.539 234.144C121.539 233.232 121.023 232.776 119.991 232.776H118.479V235.5H119.991C120.507 235.5 120.891 235.392 121.155 235.152ZM129.025 233.568C129.361 233.376 129.757 233.28 130.213 233.28V234.696H129.865C129.325 234.696 128.917 234.84 128.641 235.104C128.365 235.38 128.233 235.848 128.233 236.52V240H126.865V233.388H128.233V234.348C128.425 234.012 128.689 233.76 129.025 233.568ZM137.232 237.204H132.18C132.216 237.732 132.408 238.164 132.768 238.476C133.116 238.8 133.548 238.956 134.064 238.956C134.796 238.956 135.312 238.656 135.624 238.032H137.1C136.896 238.644 136.536 239.148 136.008 239.532C135.48 239.916 134.832 240.108 134.064 240.108C133.428 240.108 132.864 239.976 132.36 239.688C131.856 239.4 131.472 239.004 131.184 238.488C130.896 237.972 130.764 237.372 130.764 236.688C130.764 236.016 130.896 235.416 131.172 234.9C131.448 234.384 131.832 233.988 132.336 233.7C132.84 233.424 133.416 233.28 134.064 233.28C134.688 233.28 135.24 233.424 135.732 233.688C136.212 233.964 136.596 234.348 136.872 234.84C137.136 235.332 137.28 235.896 137.28 236.532C137.28 236.784 137.256 237.012 137.232 237.204ZM135.852 236.1C135.84 235.596 135.66 235.2 135.312 234.888C134.952 234.588 134.52 234.432 134.004 234.432C133.524 234.432 133.128 234.588 132.792 234.888C132.456 235.188 132.252 235.596 132.192 236.1H135.852ZM138.329 234.9C138.605 234.384 138.989 233.988 139.481 233.7C139.961 233.424 140.525 233.28 141.161 233.28C141.953 233.28 142.613 233.472 143.141 233.856C143.669 234.24 144.017 234.78 144.209 235.476H142.733C142.613 235.152 142.421 234.9 142.157 234.708C141.893 234.528 141.557 234.432 141.161 234.432C140.597 234.432 140.153 234.636 139.817 235.032C139.481 235.428 139.325 235.98 139.325 236.688C139.325 237.408 139.481 237.96 139.817 238.356C140.153 238.764 140.597 238.956 141.161 238.956C141.953 238.956 142.469 238.608 142.733 237.912H144.209C144.017 238.584 143.657 239.124 143.129 239.52C142.601 239.916 141.941 240.108 141.161 240.108C140.525 240.108 139.961 239.976 139.481 239.688C138.989 239.4 138.605 239.004 138.329 238.488C138.053 237.972 137.921 237.372 137.921 236.688C137.921 236.016 138.053 235.416 138.329 234.9ZM146.498 239.688C145.994 239.4 145.598 239.004 145.31 238.488C145.022 237.972 144.878 237.372 144.878 236.688C144.878 236.016 145.022 235.428 145.322 234.9C145.61 234.384 146.018 233.988 146.534 233.7C147.038 233.424 147.614 233.28 148.25 233.28C148.874 233.28 149.45 233.424 149.966 233.7C150.47 233.988 150.878 234.384 151.178 234.9C151.466 235.428 151.622 236.016 151.622 236.688C151.622 237.36 151.466 237.96 151.166 238.476C150.854 239.004 150.446 239.4 149.918 239.688C149.39 239.976 148.814 240.108 148.19 240.108C147.566 240.108 147.002 239.976 146.498 239.688ZM149.174 238.668C149.486 238.5 149.738 238.248 149.93 237.912C150.122 237.576 150.218 237.168 150.218 236.688C150.218 236.208 150.122 235.812 149.942 235.476C149.75 235.14 149.51 234.888 149.21 234.72C148.898 234.552 148.574 234.468 148.226 234.468C147.866 234.468 147.542 234.552 147.242 234.72C146.942 234.888 146.702 235.14 146.534 235.476C146.354 235.812 146.27 236.208 146.27 236.688C146.27 237.408 146.45 237.96 146.81 238.344C147.17 238.728 147.638 238.92 148.19 238.92C148.538 238.92 148.862 238.836 149.174 238.668ZM158.712 233.388V240H157.344V239.22C157.128 239.496 156.84 239.712 156.492 239.868C156.144 240.024 155.772 240.096 155.388 240.096C154.86 240.096 154.392 239.988 153.984 239.772C153.576 239.556 153.252 239.244 153.012 238.812C152.772 238.392 152.664 237.876 152.664 237.276V233.388H154.02V237.072C154.02 237.672 154.164 238.128 154.464 238.44C154.752 238.752 155.16 238.908 155.676 238.908C156.18 238.908 156.588 238.752 156.888 238.44C157.188 238.128 157.344 237.672 157.344 237.072V233.388H158.712ZM162.583 233.592C162.979 233.388 163.435 233.28 163.939 233.28C164.515 233.28 165.031 233.424 165.511 233.712C165.991 234 166.363 234.396 166.639 234.9C166.903 235.416 167.047 236.004 167.047 236.664C167.047 237.336 166.903 237.924 166.639 238.452C166.363 238.98 165.991 239.388 165.511 239.676C165.031 239.964 164.515 240.108 163.939 240.108C163.435 240.108 162.979 240.012 162.595 239.808C162.199 239.604 161.875 239.352 161.635 239.04V243.144H160.267V233.388H161.635V234.36C161.863 234.06 162.175 233.808 162.583 233.592ZM165.367 235.488C165.175 235.152 164.935 234.9 164.623 234.732C164.311 234.564 163.987 234.468 163.639 234.468C163.291 234.468 162.967 234.564 162.655 234.732C162.343 234.912 162.103 235.164 161.911 235.5C161.719 235.836 161.635 236.232 161.635 236.688C161.635 237.144 161.719 237.552 161.911 237.888C162.103 238.224 162.343 238.488 162.655 238.656C162.967 238.836 163.291 238.92 163.639 238.92C163.987 238.92 164.311 238.836 164.623 238.656C164.935 238.476 165.175 238.212 165.367 237.864C165.559 237.528 165.655 237.12 165.655 236.664C165.655 236.208 165.559 235.824 165.367 235.488ZM172.193 239.688C171.689 239.4 171.293 239.004 171.005 238.488C170.717 237.972 170.573 237.372 170.573 236.688C170.573 236.016 170.717 235.428 171.017 234.9C171.305 234.384 171.713 233.988 172.229 233.7C172.733 233.424 173.309 233.28 173.945 233.28C174.569 233.28 175.145 233.424 175.661 233.7C176.165 233.988 176.573 234.384 176.873 234.9C177.161 235.428 177.317 236.016 177.317 236.688C177.317 237.36 177.161 237.96 176.861 238.476C176.549 239.004 176.141 239.4 175.613 239.688C175.085 239.976 174.509 240.108 173.885 240.108C173.261 240.108 172.697 239.976 172.193 239.688ZM174.869 238.668C175.181 238.5 175.433 238.248 175.625 237.912C175.817 237.576 175.913 237.168 175.913 236.688C175.913 236.208 175.817 235.812 175.637 235.476C175.445 235.14 175.205 234.888 174.905 234.72C174.593 234.552 174.269 234.468 173.921 234.468C173.561 234.468 173.237 234.552 172.937 234.72C172.637 234.888 172.397 235.14 172.229 235.476C172.049 235.812 171.965 236.208 171.965 236.688C171.965 237.408 172.145 237.96 172.505 238.344C172.865 238.728 173.333 238.92 173.885 238.92C174.233 238.92 174.557 238.836 174.869 238.668ZM180.58 233.568C180.916 233.376 181.312 233.28 181.768 233.28V234.696H181.42C180.88 234.696 180.472 234.84 180.196 235.104C179.92 235.38 179.788 235.848 179.788 236.52V240H178.42V233.388H179.788V234.348C179.98 234.012 180.244 233.76 180.58 233.568ZM182.847 232.26C182.679 232.092 182.595 231.888 182.595 231.636C182.595 231.396 182.679 231.18 182.847 231.012C183.015 230.844 183.219 230.76 183.471 230.76C183.711 230.76 183.915 230.844 184.083 231.012C184.251 231.18 184.335 231.396 184.335 231.636C184.335 231.888 184.251 232.092 184.083 232.26C183.915 232.428 183.711 232.512 183.471 232.512C183.219 232.512 183.015 232.428 182.847 232.26ZM184.143 233.388V240H182.775V233.388H184.143ZM188.461 234.504H187.237V240H185.857V234.504H185.077V233.388H185.857V232.92C185.857 232.164 186.049 231.612 186.457 231.264C186.865 230.916 187.501 230.736 188.365 230.736V231.876C187.945 231.876 187.657 231.96 187.489 232.116C187.321 232.272 187.237 232.536 187.237 232.92V233.388H188.461V234.504ZM189.495 232.26C189.327 232.092 189.243 231.888 189.243 231.636C189.243 231.396 189.327 231.18 189.495 231.012C189.663 230.844 189.867 230.76 190.119 230.76C190.359 230.76 190.563 230.844 190.731 231.012C190.899 231.18 190.983 231.396 190.983 231.636C190.983 231.888 190.899 232.092 190.731 232.26C190.563 232.428 190.359 232.512 190.119 232.512C189.867 232.512 189.663 232.428 189.495 232.26ZM190.791 233.388V240H189.423V233.388H190.791ZM192.29 234.9C192.566 234.384 192.95 233.988 193.442 233.7C193.922 233.424 194.486 233.28 195.122 233.28C195.914 233.28 196.574 233.472 197.102 233.856C197.63 234.24 197.978 234.78 198.17 235.476H196.694C196.574 235.152 196.382 234.9 196.118 234.708C195.854 234.528 195.518 234.432 195.122 234.432C194.558 234.432 194.114 234.636 193.778 235.032C193.442 235.428 193.286 235.98 193.286 236.688C193.286 237.408 193.442 237.96 193.778 238.356C194.114 238.764 194.558 238.956 195.122 238.956C195.914 238.956 196.43 238.608 196.694 237.912H198.17C197.978 238.584 197.618 239.124 197.09 239.52C196.562 239.916 195.902 240.108 195.122 240.108C194.486 240.108 193.922 239.976 193.442 239.688C192.95 239.4 192.566 239.004 192.29 238.488C192.014 237.972 191.882 237.372 191.882 236.688C191.882 236.016 192.014 235.416 192.29 234.9ZM205.295 237.204H200.243C200.279 237.732 200.471 238.164 200.831 238.476C201.179 238.8 201.611 238.956 202.127 238.956C202.859 238.956 203.375 238.656 203.687 238.032H205.163C204.959 238.644 204.599 239.148 204.071 239.532C203.543 239.916 202.895 240.108 202.127 240.108C201.491 240.108 200.927 239.976 200.423 239.688C199.919 239.4 199.535 239.004 199.247 238.488C198.959 237.972 198.827 237.372 198.827 236.688C198.827 236.016 198.959 235.416 199.235 234.9C199.511 234.384 199.895 233.988 200.399 233.7C200.903 233.424 201.479 233.28 202.127 233.28C202.751 233.28 203.303 233.424 203.795 233.688C204.275 233.964 204.659 234.348 204.935 234.84C205.199 235.332 205.343 235.896 205.343 236.532C205.343 236.784 205.319 237.012 205.295 237.204ZM203.915 236.1C203.903 235.596 203.723 235.2 203.375 234.888C203.015 234.588 202.583 234.432 202.067 234.432C201.587 234.432 201.191 234.588 200.855 234.888C200.519 235.188 200.315 235.596 200.255 236.1H203.915ZM209.378 232.26C209.21 232.092 209.126 231.888 209.126 231.636C209.126 231.396 209.21 231.18 209.378 231.012C209.546 230.844 209.75 230.76 210.002 230.76C210.242 230.76 210.446 230.844 210.614 231.012C210.782 231.18 210.866 231.396 210.866 231.636C210.866 231.888 210.782 232.092 210.614 232.26C210.446 232.428 210.242 232.512 210.002 232.512C209.75 232.512 209.546 232.428 209.378 232.26ZM210.674 233.388V240H209.306V233.388H210.674ZM216.948 233.604C217.356 233.82 217.68 234.144 217.92 234.564C218.148 234.996 218.268 235.5 218.268 236.1V240H216.912V236.304C216.912 235.716 216.756 235.26 216.468 234.948C216.168 234.636 215.76 234.468 215.256 234.468C214.74 234.468 214.332 234.636 214.032 234.948C213.732 235.26 213.588 235.716 213.588 236.304V240H212.22V233.388H213.588V234.144C213.804 233.88 214.092 233.664 214.44 233.508C214.788 233.364 215.16 233.28 215.556 233.28C216.072 233.28 216.54 233.388 216.948 233.604ZM220.759 239.832C220.351 239.64 220.027 239.388 219.787 239.064C219.547 238.74 219.415 238.38 219.403 237.972H220.819C220.843 238.26 220.975 238.488 221.215 238.68C221.455 238.872 221.767 238.956 222.139 238.956C222.523 238.956 222.811 238.884 223.027 238.74C223.243 238.596 223.351 238.404 223.351 238.164C223.351 237.924 223.231 237.732 222.991 237.612C222.751 237.492 222.379 237.36 221.875 237.216C221.371 237.084 220.975 236.952 220.663 236.82C220.351 236.7 220.075 236.496 219.847 236.232C219.619 235.968 219.511 235.62 219.511 235.188C219.511 234.84 219.607 234.516 219.823 234.228C220.027 233.94 220.327 233.7 220.711 233.532C221.095 233.364 221.551 233.28 222.055 233.28C222.799 233.28 223.411 233.472 223.867 233.856C224.323 234.24 224.575 234.756 224.611 235.404H223.243C223.219 235.116 223.099 234.876 222.883 234.696C222.667 234.528 222.367 234.432 222.007 234.432C221.647 234.432 221.371 234.504 221.179 234.636C220.987 234.78 220.891 234.96 220.891 235.176C220.891 235.356 220.951 235.5 221.083 235.62C221.203 235.74 221.359 235.836 221.551 235.908C221.731 235.98 222.007 236.064 222.367 236.16C222.847 236.292 223.231 236.424 223.543 236.556C223.855 236.688 224.119 236.88 224.347 237.132C224.563 237.396 224.683 237.732 224.695 238.152C224.695 238.536 224.587 238.872 224.383 239.16C224.167 239.46 223.879 239.688 223.495 239.856C223.111 240.024 222.667 240.108 222.163 240.108C221.635 240.108 221.167 240.024 220.759 239.832ZM227.519 234.504V238.164C227.519 238.416 227.567 238.596 227.687 238.704C227.807 238.812 227.999 238.86 228.287 238.86H229.127V240H228.047C227.423 240 226.955 239.856 226.631 239.568C226.295 239.28 226.139 238.812 226.139 238.164V234.504H225.359V233.388H226.139V231.744H227.519V233.388H229.127V234.504H227.519ZM230.09 234.9C230.366 234.396 230.738 234 231.218 233.712C231.698 233.424 232.226 233.28 232.802 233.28C233.318 233.28 233.774 233.388 234.158 233.592C234.542 233.796 234.854 234.048 235.094 234.348V233.388H236.474V240H235.094V239.016C234.854 239.328 234.542 239.592 234.146 239.796C233.738 240.012 233.282 240.108 232.778 240.108C232.202 240.108 231.686 239.964 231.218 239.676C230.738 239.388 230.366 238.98 230.09 238.452C229.814 237.924 229.682 237.336 229.682 236.664C229.682 236.004 229.814 235.416 230.09 234.9ZM234.806 235.5C234.614 235.164 234.374 234.912 234.074 234.732C233.762 234.564 233.438 234.468 233.09 234.468C232.73 234.468 232.406 234.564 232.106 234.732C231.794 234.9 231.554 235.152 231.362 235.488C231.17 235.824 231.086 236.208 231.086 236.664C231.086 237.12 231.17 237.528 231.362 237.864C231.554 238.212 231.794 238.476 232.106 238.656C232.418 238.836 232.742 238.92 233.09 238.92C233.438 238.92 233.762 238.836 234.074 238.656C234.374 238.488 234.614 238.224 234.806 237.888C234.998 237.552 235.094 237.144 235.094 236.688C235.094 236.232 234.998 235.836 234.806 235.5ZM239.389 231.12V240H238.021V231.12H239.389ZM242.303 231.12V240H240.935V231.12H242.303ZM249.861 237.204H244.809C244.845 237.732 245.037 238.164 245.397 238.476C245.745 238.8 246.177 238.956 246.693 238.956C247.425 238.956 247.941 238.656 248.253 238.032H249.729C249.525 238.644 249.165 239.148 248.637 239.532C248.109 239.916 247.461 240.108 246.693 240.108C246.057 240.108 245.493 239.976 244.989 239.688C244.485 239.4 244.101 239.004 243.813 238.488C243.525 237.972 243.393 237.372 243.393 236.688C243.393 236.016 243.525 235.416 243.801 234.9C244.077 234.384 244.461 233.988 244.965 233.7C245.469 233.424 246.045 233.28 246.693 233.28C247.317 233.28 247.869 233.424 248.361 233.688C248.841 233.964 249.225 234.348 249.501 234.84C249.765 235.332 249.909 235.896 249.909 236.532C249.909 236.784 249.885 237.012 249.861 237.204ZM248.481 236.1C248.469 235.596 248.289 235.2 247.941 234.888C247.581 234.588 247.149 234.432 246.633 234.432C246.153 234.432 245.757 234.588 245.421 234.888C245.085 235.188 244.881 235.596 244.821 236.1H248.481ZM250.957 234.9C251.233 234.396 251.605 234 252.085 233.712C252.565 233.424 253.093 233.28 253.681 233.28C254.113 233.28 254.533 233.376 254.953 233.568C255.373 233.76 255.709 234 255.961 234.312V231.12H257.341V240H255.961V239.004C255.733 239.328 255.421 239.592 255.025 239.796C254.629 240.012 254.173 240.108 253.669 240.108C253.093 240.108 252.565 239.964 252.085 239.676C251.605 239.388 251.233 238.98 250.957 238.452C250.681 237.924 250.549 237.336 250.549 236.664C250.549 236.004 250.681 235.416 250.957 234.9ZM255.673 235.5C255.481 235.164 255.241 234.912 254.941 234.732C254.629 234.564 254.305 234.468 253.957 234.468C253.597 234.468 253.273 234.564 252.973 234.732C252.661 234.9 252.421 235.152 252.229 235.488C252.037 235.824 251.953 236.208 251.953 236.664C251.953 237.12 252.037 237.528 252.229 237.864C252.421 238.212 252.661 238.476 252.973 238.656C253.285 238.836 253.609 238.92 253.957 238.92C254.305 238.92 254.629 238.836 254.941 238.656C255.241 238.488 255.481 238.224 255.673 237.888C255.865 237.552 255.961 237.144 255.961 236.688C255.961 236.232 255.865 235.836 255.673 235.5ZM261.683 239.832C261.515 239.664 261.431 239.46 261.431 239.208C261.431 238.968 261.515 238.752 261.683 238.584C261.851 238.416 262.055 238.332 262.307 238.332C262.547 238.332 262.751 238.416 262.919 238.584C263.087 238.752 263.171 238.968 263.171 239.208C263.171 239.46 263.087 239.664 262.919 239.832C262.751 240 262.547 240.084 262.307 240.084C262.055 240.084 261.851 240 261.683 239.832ZM261.683 234.792C261.515 234.624 261.431 234.42 261.431 234.168C261.431 233.928 261.515 233.712 261.683 233.544C261.851 233.376 262.055 233.292 262.307 233.292C262.547 233.292 262.751 233.376 262.919 233.544C263.087 233.712 263.171 233.928 263.171 234.168C263.171 234.42 263.087 234.624 262.919 234.792C262.751 234.96 262.547 235.044 262.307 235.044C262.055 235.044 261.851 234.96 261.683 234.792ZM272.846 235.344C272.642 235.728 272.318 236.028 271.886 236.268C271.442 236.508 270.878 236.616 270.194 236.616H268.682V240H267.314V231.66H270.194C270.83 231.66 271.37 231.78 271.814 231.996C272.258 232.212 272.594 232.512 272.81 232.884C273.026 233.268 273.146 233.688 273.146 234.144C273.146 234.576 273.038 234.972 272.846 235.344ZM271.358 235.152C271.61 234.912 271.742 234.576 271.742 234.144C271.742 233.232 271.226 232.776 270.194 232.776H268.682V235.5H270.194C270.71 235.5 271.094 235.392 271.358 235.152ZM274.717 232.272C275.185 231.492 275.989 231.096 277.141 231.096C278.281 231.096 279.085 231.492 279.553 232.272C280.021 233.052 280.261 234.132 280.261 235.512C280.261 236.916 280.021 238.008 279.553 238.8C279.085 239.592 278.281 239.976 277.141 239.976C275.989 239.976 275.185 239.592 274.717 238.8C274.249 238.008 274.021 236.916 274.021 235.512C274.021 234.132 274.249 233.052 274.717 232.272ZM278.785 233.868C278.701 233.424 278.533 233.064 278.281 232.776C278.017 232.488 277.645 232.344 277.141 232.344C276.637 232.344 276.253 232.488 276.001 232.776C275.737 233.064 275.569 233.424 275.485 233.868C275.401 234.324 275.365 234.864 275.365 235.512C275.365 236.184 275.401 236.748 275.485 237.204C275.557 237.66 275.725 238.032 275.989 238.308C276.253 238.596 276.637 238.728 277.141 238.728C277.645 238.728 278.017 238.596 278.281 238.308C278.545 238.032 278.713 237.66 278.797 237.204C278.869 236.748 278.917 236.184 278.917 235.512C278.917 234.864 278.869 234.324 278.785 233.868ZM282.286 231.672C282.814 231.264 283.486 231.048 284.302 231.048C284.854 231.048 285.346 231.156 285.754 231.348C286.162 231.552 286.462 231.828 286.678 232.164C286.882 232.512 286.99 232.896 286.99 233.328C286.99 233.832 286.858 234.252 286.594 234.6C286.33 234.96 286.006 235.188 285.646 235.308V235.356C286.114 235.5 286.486 235.764 286.75 236.148C287.014 236.532 287.146 237.012 287.146 237.6C287.146 238.08 287.038 238.5 286.822 238.86C286.606 239.232 286.282 239.52 285.862 239.736C285.43 239.952 284.926 240.048 284.338 240.048C283.474 240.048 282.754 239.832 282.202 239.388C281.65 238.944 281.35 238.308 281.314 237.468H282.634C282.658 237.9 282.826 238.248 283.126 238.512C283.414 238.776 283.822 238.908 284.326 238.908C284.806 238.908 285.19 238.776 285.454 238.512C285.718 238.248 285.85 237.9 285.85 237.468C285.85 236.916 285.67 236.52 285.31 236.28C284.95 236.04 284.41 235.92 283.678 235.92H283.366V234.792H283.69C284.338 234.792 284.83 234.684 285.166 234.468C285.502 234.264 285.682 233.94 285.682 233.484C285.682 233.1 285.55 232.8 285.31 232.572C285.058 232.344 284.71 232.224 284.254 232.224C283.798 232.224 283.45 232.344 283.21 232.572C282.958 232.8 282.814 233.076 282.766 233.412H281.434C281.482 232.668 281.758 232.092 282.286 231.672Z" fill="#121212"/>
<path d="M316.383 240.25H301.617L309 227.498L316.383 240.25Z" fill="#FEEAEE" stroke="#E16E75"/>
<path d="M309.216 237H308.111V238.5H309.216V237Z" fill="#C21A2C"/>
<path d="M309.216 232.5H308.111V235.5H309.216V232.5Z" fill="#C21A2C"/>
</svg>
