<svg width="425" height="265" viewBox="0 0 425 265" fill="none" xmlns="http://www.w3.org/2000/svg">
<rect width="425" height="265" fill="#F5F5F5"/>
<rect x="-14157" y="-6067" width="23840" height="13376" fill="#F8FAF9"/>
<g clip-path="url(#clip0_0_1)">
<rect width="425" height="265" rx="4" fill="white"/>
<path d="M28.9805 79H27.8965V71.3828H25.2188V70.4336H31.6406V71.3828H28.9805V79ZM36.498 71.2598C35.5762 71.2598 34.8516 71.5684 34.3242 72.1855C33.7969 72.8027 33.5332 73.6465 33.5332 74.7168C33.5332 75.8223 33.7891 76.6758 34.3008 77.2773C34.8125 77.875 35.541 78.1738 36.4863 78.1738C37.0957 78.1738 37.7812 78.0605 38.543 77.834V78.7715C38.1797 78.9043 37.8301 78.9941 37.4941 79.041C37.1582 79.0918 36.7715 79.1172 36.334 79.1172C35.0723 79.1172 34.0996 78.7344 33.416 77.9688C32.7363 77.1992 32.3965 76.1113 32.3965 74.7051C32.3965 73.8223 32.5586 73.0488 32.8828 72.3848C33.2109 71.7207 33.6855 71.209 34.3066 70.8496C34.9316 70.4902 35.666 70.3105 36.5098 70.3105C37.416 70.3105 38.2051 70.4785 38.877 70.8145L38.4434 71.7285C37.7598 71.416 37.1113 71.2598 36.498 71.2598ZM39.832 75.9297V74.9453H42.7383V75.9297H39.832ZM49.8633 79L48.832 76.3457H45.4336L44.4141 79H43.3242L46.6699 70.3984H47.6426L50.9824 79H49.8633ZM48.5098 75.3906L47.5488 72.7949L47.1387 71.5117C47.0215 71.9805 46.8984 72.4082 46.7695 72.7949L45.7969 75.3906H48.5098Z" fill="#595959"/>
<path d="M28.8516 119H27.7676V111.383H25.0898V110.434H31.5117V111.383H28.8516V119ZM36.3691 111.26C35.4473 111.26 34.7227 111.568 34.1953 112.186C33.668 112.803 33.4043 113.646 33.4043 114.717C33.4043 115.822 33.6602 116.676 34.1719 117.277C34.6836 117.875 35.4121 118.174 36.3574 118.174C36.9668 118.174 37.6523 118.061 38.4141 117.834V118.771C38.0508 118.904 37.7012 118.994 37.3652 119.041C37.0293 119.092 36.6426 119.117 36.2051 119.117C34.9434 119.117 33.9707 118.734 33.2871 117.969C32.6074 117.199 32.2676 116.111 32.2676 114.705C32.2676 113.822 32.4297 113.049 32.7539 112.385C33.082 111.721 33.5566 111.209 34.1777 110.85C34.8027 110.49 35.5371 110.311 36.3809 110.311C37.2871 110.311 38.0762 110.479 38.748 110.814L38.3145 111.729C37.6309 111.416 36.9824 111.26 36.3691 111.26ZM39.7031 115.93V114.945H42.6094V115.93H39.7031ZM44.3613 110.434H46.8047C47.9531 110.434 48.7812 110.605 49.2891 110.949C49.8008 111.289 50.0566 111.824 50.0566 112.555C50.0566 113.062 49.918 113.482 49.6406 113.814C49.3633 114.143 48.959 114.355 48.4277 114.453V114.512C49.0879 114.625 49.5723 114.854 49.8809 115.197C50.1934 115.541 50.3496 115.996 50.3496 116.562C50.3496 117.328 50.0879 117.926 49.5645 118.355C49.041 118.785 48.3105 119 47.373 119H44.3613V110.434ZM45.4395 114.078H47.0215C47.6934 114.078 48.1816 113.971 48.4863 113.756C48.791 113.541 48.9434 113.182 48.9434 112.678C48.9434 112.209 48.7754 111.871 48.4395 111.664C48.1074 111.457 47.5801 111.354 46.8574 111.354H45.4395V114.078ZM45.4395 114.98V118.086H47.168C47.8555 118.086 48.3652 117.953 48.6973 117.688C49.0293 117.422 49.1953 117.02 49.1953 116.48C49.1953 115.969 49.0195 115.592 48.668 115.35C48.3164 115.104 47.7891 114.98 47.0859 114.98H45.4395Z" fill="#595959"/>
<path d="M29.0742 159H27.9902V151.383H25.3125V150.434H31.7344V151.383H29.0742V159ZM36.5918 151.26C35.6699 151.26 34.9453 151.568 34.418 152.186C33.8906 152.803 33.627 153.646 33.627 154.717C33.627 155.822 33.8828 156.676 34.3945 157.277C34.9062 157.875 35.6348 158.174 36.5801 158.174C37.1895 158.174 37.875 158.061 38.6367 157.834V158.771C38.2734 158.904 37.9238 158.994 37.5879 159.041C37.252 159.092 36.8652 159.117 36.4277 159.117C35.166 159.117 34.1934 158.734 33.5098 157.969C32.8301 157.199 32.4902 156.111 32.4902 154.705C32.4902 153.822 32.6523 153.049 32.9766 152.385C33.3047 151.721 33.7793 151.209 34.4004 150.85C35.0254 150.49 35.7598 150.311 36.6035 150.311C37.5098 150.311 38.2988 150.479 38.9707 150.814L38.5371 151.729C37.8535 151.416 37.2051 151.26 36.5918 151.26ZM39.9258 155.93V154.945H42.832V155.93H39.9258ZM48.252 151.26C47.3301 151.26 46.6055 151.568 46.0781 152.186C45.5508 152.803 45.2871 153.646 45.2871 154.717C45.2871 155.822 45.543 156.676 46.0547 157.277C46.5664 157.875 47.2949 158.174 48.2402 158.174C48.8496 158.174 49.5352 158.061 50.2969 157.834V158.771C49.9336 158.904 49.584 158.994 49.248 159.041C48.9121 159.092 48.5254 159.117 48.0879 159.117C46.8262 159.117 45.8535 158.734 45.1699 157.969C44.4902 157.199 44.1504 156.111 44.1504 154.705C44.1504 153.822 44.3125 153.049 44.6367 152.385C44.9648 151.721 45.4395 151.209 46.0605 150.85C46.6855 150.49 47.4199 150.311 48.2637 150.311C49.1699 150.311 49.959 150.479 50.6309 150.814L50.1973 151.729C49.5137 151.416 48.8652 151.26 48.252 151.26Z" fill="#595959"/>
<rect x="62" y="185" width="322" height="1" fill="#CED7D4"/>
<rect x="70" y="53" width="1" height="139" fill="#CED7D4"/>
<path d="M49.4609 198.93V197.945H52.3672V198.93H49.4609ZM57.1191 202H56.0879V196.65C56.0879 196.482 56.0879 196.303 56.0879 196.111C56.0918 195.92 56.0957 195.73 56.0996 195.543C56.1074 195.352 56.1133 195.17 56.1172 194.998C56.125 194.822 56.1309 194.668 56.1348 194.535C56.0684 194.605 56.0098 194.666 55.959 194.717C55.9082 194.768 55.8555 194.816 55.8008 194.863C55.75 194.91 55.6953 194.961 55.6367 195.016C55.5781 195.066 55.5078 195.127 55.4258 195.197L54.5586 195.906L53.9961 195.186L56.2402 193.434H57.1191V202ZM62.7559 196.744C63.1426 196.744 63.502 196.799 63.834 196.908C64.1699 197.014 64.4609 197.172 64.707 197.383C64.957 197.594 65.1523 197.855 65.293 198.168C65.4336 198.48 65.5039 198.842 65.5039 199.252C65.5039 199.697 65.4375 200.098 65.3047 200.453C65.1719 200.809 64.9746 201.109 64.7129 201.355C64.4512 201.602 64.127 201.791 63.7402 201.924C63.3574 202.053 62.916 202.117 62.416 202.117C62.2168 202.117 62.0195 202.107 61.8242 202.088C61.6328 202.068 61.4473 202.039 61.2676 202C61.0918 201.965 60.9238 201.918 60.7637 201.859C60.6035 201.801 60.459 201.732 60.3301 201.654V200.646C60.459 200.736 60.6094 200.816 60.7812 200.887C60.957 200.957 61.1406 201.016 61.332 201.062C61.5234 201.109 61.7148 201.146 61.9062 201.174C62.1016 201.197 62.2812 201.209 62.4453 201.209C62.7539 201.209 63.0293 201.174 63.2715 201.104C63.5137 201.029 63.7188 200.916 63.8867 200.764C64.0547 200.611 64.1836 200.42 64.2734 200.189C64.3633 199.959 64.4082 199.686 64.4082 199.369C64.4082 198.811 64.2363 198.385 63.8926 198.092C63.5488 197.795 63.0488 197.646 62.3926 197.646C62.2871 197.646 62.1719 197.652 62.0469 197.664C61.9258 197.672 61.8027 197.684 61.6777 197.699C61.5566 197.715 61.4395 197.732 61.3262 197.752C61.2168 197.768 61.1211 197.783 61.0391 197.799L60.5117 197.465L60.834 193.434H64.877V194.406H61.7598L61.5312 196.861C61.6562 196.838 61.8203 196.812 62.0234 196.785C62.2305 196.758 62.4746 196.744 62.7559 196.744ZM72.2188 197.705C72.2188 198.396 72.168 199.016 72.0664 199.562C71.9688 200.109 71.8086 200.572 71.5859 200.951C71.3672 201.33 71.084 201.619 70.7363 201.818C70.3887 202.018 69.9668 202.117 69.4707 202.117C69.0098 202.117 68.6074 202.018 68.2637 201.818C67.9238 201.619 67.6406 201.33 67.4141 200.951C67.1914 200.572 67.0234 200.109 66.9102 199.562C66.8008 199.016 66.7461 198.396 66.7461 197.705C66.7461 197.014 66.7949 196.395 66.8926 195.848C66.9941 195.301 67.1523 194.84 67.3672 194.465C67.5859 194.086 67.8672 193.797 68.2109 193.598C68.5586 193.398 68.9785 193.299 69.4707 193.299C69.9355 193.299 70.3398 193.398 70.6836 193.598C71.0273 193.793 71.3125 194.08 71.5391 194.459C71.7656 194.834 71.9355 195.295 72.0488 195.842C72.1621 196.389 72.2188 197.01 72.2188 197.705ZM67.8301 197.705C67.8301 198.291 67.8594 198.803 67.918 199.24C67.9766 199.678 68.0703 200.043 68.1992 200.336C68.3281 200.625 68.4961 200.844 68.7031 200.992C68.9141 201.137 69.1699 201.209 69.4707 201.209C69.7715 201.209 70.0273 201.137 70.2383 200.992C70.4492 200.848 70.6211 200.631 70.7539 200.342C70.8906 200.053 70.9883 199.689 71.0469 199.252C71.1094 198.811 71.1406 198.295 71.1406 197.705C71.1406 197.119 71.1094 196.607 71.0469 196.17C70.9883 195.732 70.8906 195.369 70.7539 195.08C70.6211 194.791 70.4492 194.574 70.2383 194.43C70.0273 194.285 69.7715 194.213 69.4707 194.213C69.1699 194.213 68.9141 194.285 68.7031 194.43C68.4961 194.574 68.3281 194.791 68.1992 195.08C68.0703 195.369 67.9766 195.732 67.918 196.17C67.8594 196.607 67.8301 197.119 67.8301 197.705ZM78.8281 197.705C78.8281 198.396 78.7773 199.016 78.6758 199.562C78.5781 200.109 78.418 200.572 78.1953 200.951C77.9766 201.33 77.6934 201.619 77.3457 201.818C76.998 202.018 76.5762 202.117 76.0801 202.117C75.6191 202.117 75.2168 202.018 74.873 201.818C74.5332 201.619 74.25 201.33 74.0234 200.951C73.8008 200.572 73.6328 200.109 73.5195 199.562C73.4102 199.016 73.3555 198.396 73.3555 197.705C73.3555 197.014 73.4043 196.395 73.502 195.848C73.6035 195.301 73.7617 194.84 73.9766 194.465C74.1953 194.086 74.4766 193.797 74.8203 193.598C75.168 193.398 75.5879 193.299 76.0801 193.299C76.5449 193.299 76.9492 193.398 77.293 193.598C77.6367 193.793 77.9219 194.08 78.1484 194.459C78.375 194.834 78.5449 195.295 78.6582 195.842C78.7715 196.389 78.8281 197.01 78.8281 197.705ZM74.4395 197.705C74.4395 198.291 74.4688 198.803 74.5273 199.24C74.5859 199.678 74.6797 200.043 74.8086 200.336C74.9375 200.625 75.1055 200.844 75.3125 200.992C75.5234 201.137 75.7793 201.209 76.0801 201.209C76.3809 201.209 76.6367 201.137 76.8477 200.992C77.0586 200.848 77.2305 200.631 77.3633 200.342C77.5 200.053 77.5977 199.689 77.6562 199.252C77.7188 198.811 77.75 198.295 77.75 197.705C77.75 197.119 77.7188 196.607 77.6562 196.17C77.5977 195.732 77.5 195.369 77.3633 195.08C77.2305 194.791 77.0586 194.574 76.8477 194.43C76.6367 194.285 76.3809 194.213 76.0801 194.213C75.7793 194.213 75.5234 194.285 75.3125 194.43C75.1055 194.574 74.9375 194.791 74.8086 195.08C74.6797 195.369 74.5859 195.732 74.5273 196.17C74.4688 196.607 74.4395 197.119 74.4395 197.705ZM85.4375 197.705C85.4375 198.396 85.3867 199.016 85.2852 199.562C85.1875 200.109 85.0273 200.572 84.8047 200.951C84.5859 201.33 84.3027 201.619 83.9551 201.818C83.6074 202.018 83.1855 202.117 82.6895 202.117C82.2285 202.117 81.8262 202.018 81.4824 201.818C81.1426 201.619 80.8594 201.33 80.6328 200.951C80.4102 200.572 80.2422 200.109 80.1289 199.562C80.0195 199.016 79.9648 198.396 79.9648 197.705C79.9648 197.014 80.0137 196.395 80.1113 195.848C80.2129 195.301 80.3711 194.84 80.5859 194.465C80.8047 194.086 81.0859 193.797 81.4297 193.598C81.7773 193.398 82.1973 193.299 82.6895 193.299C83.1543 193.299 83.5586 193.398 83.9023 193.598C84.2461 193.793 84.5312 194.08 84.7578 194.459C84.9844 194.834 85.1543 195.295 85.2676 195.842C85.3809 196.389 85.4375 197.01 85.4375 197.705ZM81.0488 197.705C81.0488 198.291 81.0781 198.803 81.1367 199.24C81.1953 199.678 81.2891 200.043 81.418 200.336C81.5469 200.625 81.7148 200.844 81.9219 200.992C82.1328 201.137 82.3887 201.209 82.6895 201.209C82.9902 201.209 83.2461 201.137 83.457 200.992C83.668 200.848 83.8398 200.631 83.9727 200.342C84.1094 200.053 84.207 199.689 84.2656 199.252C84.3281 198.811 84.3594 198.295 84.3594 197.705C84.3594 197.119 84.3281 196.607 84.2656 196.17C84.207 195.732 84.1094 195.369 83.9727 195.08C83.8398 194.791 83.668 194.574 83.457 194.43C83.2461 194.285 82.9902 194.213 82.6895 194.213C82.3887 194.213 82.1328 194.285 81.9219 194.43C81.7148 194.574 81.5469 194.791 81.418 195.08C81.2891 195.369 81.1953 195.732 81.1367 196.17C81.0781 196.607 81.0488 197.119 81.0488 197.705Z" fill="#595959"/>
<path d="M115.023 198.93V197.945H117.93V198.93H115.023ZM122.682 202H121.65V196.65C121.65 196.482 121.65 196.303 121.65 196.111C121.654 195.92 121.658 195.73 121.662 195.543C121.67 195.352 121.676 195.17 121.68 194.998C121.688 194.822 121.693 194.668 121.697 194.535C121.631 194.605 121.572 194.666 121.521 194.717C121.471 194.768 121.418 194.816 121.363 194.863C121.312 194.91 121.258 194.961 121.199 195.016C121.141 195.066 121.07 195.127 120.988 195.197L120.121 195.906L119.559 195.186L121.803 193.434H122.682V202ZM129.291 202H128.26V196.65C128.26 196.482 128.26 196.303 128.26 196.111C128.264 195.92 128.268 195.73 128.271 195.543C128.279 195.352 128.285 195.17 128.289 194.998C128.297 194.822 128.303 194.668 128.307 194.535C128.24 194.605 128.182 194.666 128.131 194.717C128.08 194.768 128.027 194.816 127.973 194.863C127.922 194.91 127.867 194.961 127.809 195.016C127.75 195.066 127.68 195.127 127.598 195.197L126.73 195.906L126.168 195.186L128.412 193.434H129.291V202ZM134.928 196.744C135.314 196.744 135.674 196.799 136.006 196.908C136.342 197.014 136.633 197.172 136.879 197.383C137.129 197.594 137.324 197.855 137.465 198.168C137.605 198.48 137.676 198.842 137.676 199.252C137.676 199.697 137.609 200.098 137.477 200.453C137.344 200.809 137.146 201.109 136.885 201.355C136.623 201.602 136.299 201.791 135.912 201.924C135.529 202.053 135.088 202.117 134.588 202.117C134.389 202.117 134.191 202.107 133.996 202.088C133.805 202.068 133.619 202.039 133.439 202C133.264 201.965 133.096 201.918 132.936 201.859C132.775 201.801 132.631 201.732 132.502 201.654V200.646C132.631 200.736 132.781 200.816 132.953 200.887C133.129 200.957 133.312 201.016 133.504 201.062C133.695 201.109 133.887 201.146 134.078 201.174C134.273 201.197 134.453 201.209 134.617 201.209C134.926 201.209 135.201 201.174 135.443 201.104C135.686 201.029 135.891 200.916 136.059 200.764C136.227 200.611 136.355 200.42 136.445 200.189C136.535 199.959 136.58 199.686 136.58 199.369C136.58 198.811 136.408 198.385 136.064 198.092C135.721 197.795 135.221 197.646 134.564 197.646C134.459 197.646 134.344 197.652 134.219 197.664C134.098 197.672 133.975 197.684 133.85 197.699C133.729 197.715 133.611 197.732 133.498 197.752C133.389 197.768 133.293 197.783 133.211 197.799L132.684 197.465L133.006 193.434H137.049V194.406H133.932L133.703 196.861C133.828 196.838 133.992 196.812 134.195 196.785C134.402 196.758 134.646 196.744 134.928 196.744ZM144.391 197.705C144.391 198.396 144.34 199.016 144.238 199.562C144.141 200.109 143.98 200.572 143.758 200.951C143.539 201.33 143.256 201.619 142.908 201.818C142.561 202.018 142.139 202.117 141.643 202.117C141.182 202.117 140.779 202.018 140.436 201.818C140.096 201.619 139.812 201.33 139.586 200.951C139.363 200.572 139.195 200.109 139.082 199.562C138.973 199.016 138.918 198.396 138.918 197.705C138.918 197.014 138.967 196.395 139.064 195.848C139.166 195.301 139.324 194.84 139.539 194.465C139.758 194.086 140.039 193.797 140.383 193.598C140.73 193.398 141.15 193.299 141.643 193.299C142.107 193.299 142.512 193.398 142.855 193.598C143.199 193.793 143.484 194.08 143.711 194.459C143.938 194.834 144.107 195.295 144.221 195.842C144.334 196.389 144.391 197.01 144.391 197.705ZM140.002 197.705C140.002 198.291 140.031 198.803 140.09 199.24C140.148 199.678 140.242 200.043 140.371 200.336C140.5 200.625 140.668 200.844 140.875 200.992C141.086 201.137 141.342 201.209 141.643 201.209C141.943 201.209 142.199 201.137 142.41 200.992C142.621 200.848 142.793 200.631 142.926 200.342C143.062 200.053 143.16 199.689 143.219 199.252C143.281 198.811 143.312 198.295 143.312 197.705C143.312 197.119 143.281 196.607 143.219 196.17C143.16 195.732 143.062 195.369 142.926 195.08C142.793 194.791 142.621 194.574 142.41 194.43C142.199 194.285 141.943 194.213 141.643 194.213C141.342 194.213 141.086 194.285 140.875 194.43C140.668 194.574 140.5 194.791 140.371 195.08C140.242 195.369 140.148 195.732 140.09 196.17C140.031 196.607 140.002 197.119 140.002 197.705ZM151 197.705C151 198.396 150.949 199.016 150.848 199.562C150.75 200.109 150.59 200.572 150.367 200.951C150.148 201.33 149.865 201.619 149.518 201.818C149.17 202.018 148.748 202.117 148.252 202.117C147.791 202.117 147.389 202.018 147.045 201.818C146.705 201.619 146.422 201.33 146.195 200.951C145.973 200.572 145.805 200.109 145.691 199.562C145.582 199.016 145.527 198.396 145.527 197.705C145.527 197.014 145.576 196.395 145.674 195.848C145.775 195.301 145.934 194.84 146.148 194.465C146.367 194.086 146.648 193.797 146.992 193.598C147.34 193.398 147.76 193.299 148.252 193.299C148.717 193.299 149.121 193.398 149.465 193.598C149.809 193.793 150.094 194.08 150.32 194.459C150.547 194.834 150.717 195.295 150.83 195.842C150.943 196.389 151 197.01 151 197.705ZM146.611 197.705C146.611 198.291 146.641 198.803 146.699 199.24C146.758 199.678 146.852 200.043 146.98 200.336C147.109 200.625 147.277 200.844 147.484 200.992C147.695 201.137 147.951 201.209 148.252 201.209C148.553 201.209 148.809 201.137 149.02 200.992C149.23 200.848 149.402 200.631 149.535 200.342C149.672 200.053 149.77 199.689 149.828 199.252C149.891 198.811 149.922 198.295 149.922 197.705C149.922 197.119 149.891 196.607 149.828 196.17C149.77 195.732 149.672 195.369 149.535 195.08C149.402 194.791 149.23 194.574 149.02 194.43C148.809 194.285 148.553 194.213 148.252 194.213C147.951 194.213 147.695 194.285 147.484 194.43C147.277 194.574 147.109 194.791 146.98 195.08C146.852 195.369 146.758 195.732 146.699 196.17C146.641 196.607 146.611 197.119 146.611 197.705Z" fill="#595959"/>
<path d="M303.828 198.93V197.945H306.734V198.93H303.828ZM311.486 202H310.455V196.65C310.455 196.482 310.455 196.303 310.455 196.111C310.459 195.92 310.463 195.73 310.467 195.543C310.475 195.352 310.48 195.17 310.484 194.998C310.492 194.822 310.498 194.668 310.502 194.535C310.436 194.605 310.377 194.666 310.326 194.717C310.275 194.768 310.223 194.816 310.168 194.863C310.117 194.91 310.062 194.961 310.004 195.016C309.945 195.066 309.875 195.127 309.793 195.197L308.926 195.906L308.363 195.186L310.607 193.434H311.486V202ZM317.123 196.744C317.51 196.744 317.869 196.799 318.201 196.908C318.537 197.014 318.828 197.172 319.074 197.383C319.324 197.594 319.52 197.855 319.66 198.168C319.801 198.48 319.871 198.842 319.871 199.252C319.871 199.697 319.805 200.098 319.672 200.453C319.539 200.809 319.342 201.109 319.08 201.355C318.818 201.602 318.494 201.791 318.107 201.924C317.725 202.053 317.283 202.117 316.783 202.117C316.584 202.117 316.387 202.107 316.191 202.088C316 202.068 315.814 202.039 315.635 202C315.459 201.965 315.291 201.918 315.131 201.859C314.971 201.801 314.826 201.732 314.697 201.654V200.646C314.826 200.736 314.977 200.816 315.148 200.887C315.324 200.957 315.508 201.016 315.699 201.062C315.891 201.109 316.082 201.146 316.273 201.174C316.469 201.197 316.648 201.209 316.812 201.209C317.121 201.209 317.396 201.174 317.639 201.104C317.881 201.029 318.086 200.916 318.254 200.764C318.422 200.611 318.551 200.42 318.641 200.189C318.73 199.959 318.775 199.686 318.775 199.369C318.775 198.811 318.604 198.385 318.26 198.092C317.916 197.795 317.416 197.646 316.76 197.646C316.654 197.646 316.539 197.652 316.414 197.664C316.293 197.672 316.17 197.684 316.045 197.699C315.924 197.715 315.807 197.732 315.693 197.752C315.584 197.768 315.488 197.783 315.406 197.799L314.879 197.465L315.201 193.434H319.244V194.406H316.127L315.898 196.861C316.023 196.838 316.188 196.812 316.391 196.785C316.598 196.758 316.842 196.744 317.123 196.744ZM326.586 197.705C326.586 198.396 326.535 199.016 326.434 199.562C326.336 200.109 326.176 200.572 325.953 200.951C325.734 201.33 325.451 201.619 325.104 201.818C324.756 202.018 324.334 202.117 323.838 202.117C323.377 202.117 322.975 202.018 322.631 201.818C322.291 201.619 322.008 201.33 321.781 200.951C321.559 200.572 321.391 200.109 321.277 199.562C321.168 199.016 321.113 198.396 321.113 197.705C321.113 197.014 321.162 196.395 321.26 195.848C321.361 195.301 321.52 194.84 321.734 194.465C321.953 194.086 322.234 193.797 322.578 193.598C322.926 193.398 323.346 193.299 323.838 193.299C324.303 193.299 324.707 193.398 325.051 193.598C325.395 193.793 325.68 194.08 325.906 194.459C326.133 194.834 326.303 195.295 326.416 195.842C326.529 196.389 326.586 197.01 326.586 197.705ZM322.197 197.705C322.197 198.291 322.227 198.803 322.285 199.24C322.344 199.678 322.438 200.043 322.566 200.336C322.695 200.625 322.863 200.844 323.07 200.992C323.281 201.137 323.537 201.209 323.838 201.209C324.139 201.209 324.395 201.137 324.605 200.992C324.816 200.848 324.988 200.631 325.121 200.342C325.258 200.053 325.355 199.689 325.414 199.252C325.477 198.811 325.508 198.295 325.508 197.705C325.508 197.119 325.477 196.607 325.414 196.17C325.355 195.732 325.258 195.369 325.121 195.08C324.988 194.791 324.816 194.574 324.605 194.43C324.395 194.285 324.139 194.213 323.838 194.213C323.537 194.213 323.281 194.285 323.07 194.43C322.863 194.574 322.695 194.791 322.566 195.08C322.438 195.369 322.344 195.732 322.285 196.17C322.227 196.607 322.197 197.119 322.197 197.705ZM333.195 197.705C333.195 198.396 333.145 199.016 333.043 199.562C332.945 200.109 332.785 200.572 332.562 200.951C332.344 201.33 332.061 201.619 331.713 201.818C331.365 202.018 330.943 202.117 330.447 202.117C329.986 202.117 329.584 202.018 329.24 201.818C328.9 201.619 328.617 201.33 328.391 200.951C328.168 200.572 328 200.109 327.887 199.562C327.777 199.016 327.723 198.396 327.723 197.705C327.723 197.014 327.771 196.395 327.869 195.848C327.971 195.301 328.129 194.84 328.344 194.465C328.562 194.086 328.844 193.797 329.188 193.598C329.535 193.398 329.955 193.299 330.447 193.299C330.912 193.299 331.316 193.398 331.66 193.598C332.004 193.793 332.289 194.08 332.516 194.459C332.742 194.834 332.912 195.295 333.025 195.842C333.139 196.389 333.195 197.01 333.195 197.705ZM328.807 197.705C328.807 198.291 328.836 198.803 328.895 199.24C328.953 199.678 329.047 200.043 329.176 200.336C329.305 200.625 329.473 200.844 329.68 200.992C329.891 201.137 330.146 201.209 330.447 201.209C330.748 201.209 331.004 201.137 331.215 200.992C331.426 200.848 331.598 200.631 331.73 200.342C331.867 200.053 331.965 199.689 332.023 199.252C332.086 198.811 332.117 198.295 332.117 197.705C332.117 197.119 332.086 196.607 332.023 196.17C331.965 195.732 331.867 195.369 331.73 195.08C331.598 194.791 331.426 194.574 331.215 194.43C331.004 194.285 330.748 194.213 330.447 194.213C330.146 194.213 329.891 194.285 329.68 194.43C329.473 194.574 329.305 194.791 329.176 195.08C329.047 195.369 328.953 195.732 328.895 196.17C328.836 196.607 328.807 197.119 328.807 197.705Z" fill="#595959"/>
<path d="M366.475 196.744C366.861 196.744 367.221 196.799 367.553 196.908C367.889 197.014 368.18 197.172 368.426 197.383C368.676 197.594 368.871 197.855 369.012 198.168C369.152 198.48 369.223 198.842 369.223 199.252C369.223 199.697 369.156 200.098 369.023 200.453C368.891 200.809 368.693 201.109 368.432 201.355C368.17 201.602 367.846 201.791 367.459 201.924C367.076 202.053 366.635 202.117 366.135 202.117C365.936 202.117 365.738 202.107 365.543 202.088C365.352 202.068 365.166 202.039 364.986 202C364.811 201.965 364.643 201.918 364.482 201.859C364.322 201.801 364.178 201.732 364.049 201.654V200.646C364.178 200.736 364.328 200.816 364.5 200.887C364.676 200.957 364.859 201.016 365.051 201.062C365.242 201.109 365.434 201.146 365.625 201.174C365.82 201.197 366 201.209 366.164 201.209C366.473 201.209 366.748 201.174 366.99 201.104C367.232 201.029 367.438 200.916 367.605 200.764C367.773 200.611 367.902 200.42 367.992 200.189C368.082 199.959 368.127 199.686 368.127 199.369C368.127 198.811 367.955 198.385 367.611 198.092C367.268 197.795 366.768 197.646 366.111 197.646C366.006 197.646 365.891 197.652 365.766 197.664C365.645 197.672 365.521 197.684 365.396 197.699C365.275 197.715 365.158 197.732 365.045 197.752C364.936 197.768 364.84 197.783 364.758 197.799L364.23 197.465L364.553 193.434H368.596V194.406H365.479L365.25 196.861C365.375 196.838 365.539 196.812 365.742 196.785C365.949 196.758 366.193 196.744 366.475 196.744ZM375.938 197.705C375.938 198.396 375.887 199.016 375.785 199.562C375.688 200.109 375.527 200.572 375.305 200.951C375.086 201.33 374.803 201.619 374.455 201.818C374.107 202.018 373.686 202.117 373.189 202.117C372.729 202.117 372.326 202.018 371.982 201.818C371.643 201.619 371.359 201.33 371.133 200.951C370.91 200.572 370.742 200.109 370.629 199.562C370.52 199.016 370.465 198.396 370.465 197.705C370.465 197.014 370.514 196.395 370.611 195.848C370.713 195.301 370.871 194.84 371.086 194.465C371.305 194.086 371.586 193.797 371.93 193.598C372.277 193.398 372.697 193.299 373.189 193.299C373.654 193.299 374.059 193.398 374.402 193.598C374.746 193.793 375.031 194.08 375.258 194.459C375.484 194.834 375.654 195.295 375.768 195.842C375.881 196.389 375.938 197.01 375.938 197.705ZM371.549 197.705C371.549 198.291 371.578 198.803 371.637 199.24C371.695 199.678 371.789 200.043 371.918 200.336C372.047 200.625 372.215 200.844 372.422 200.992C372.633 201.137 372.889 201.209 373.189 201.209C373.49 201.209 373.746 201.137 373.957 200.992C374.168 200.848 374.34 200.631 374.473 200.342C374.609 200.053 374.707 199.689 374.766 199.252C374.828 198.811 374.859 198.295 374.859 197.705C374.859 197.119 374.828 196.607 374.766 196.17C374.707 195.732 374.609 195.369 374.473 195.08C374.34 194.791 374.168 194.574 373.957 194.43C373.746 194.285 373.49 194.213 373.189 194.213C372.889 194.213 372.633 194.285 372.422 194.43C372.215 194.574 372.047 194.791 371.918 195.08C371.789 195.369 371.695 195.732 371.637 196.17C371.578 196.607 371.549 197.119 371.549 197.705ZM382.547 197.705C382.547 198.396 382.496 199.016 382.395 199.562C382.297 200.109 382.137 200.572 381.914 200.951C381.695 201.33 381.412 201.619 381.064 201.818C380.717 202.018 380.295 202.117 379.799 202.117C379.338 202.117 378.936 202.018 378.592 201.818C378.252 201.619 377.969 201.33 377.742 200.951C377.52 200.572 377.352 200.109 377.238 199.562C377.129 199.016 377.074 198.396 377.074 197.705C377.074 197.014 377.123 196.395 377.221 195.848C377.322 195.301 377.48 194.84 377.695 194.465C377.914 194.086 378.195 193.797 378.539 193.598C378.887 193.398 379.307 193.299 379.799 193.299C380.264 193.299 380.668 193.398 381.012 193.598C381.355 193.793 381.641 194.08 381.867 194.459C382.094 194.834 382.264 195.295 382.377 195.842C382.49 196.389 382.547 197.01 382.547 197.705ZM378.158 197.705C378.158 198.291 378.188 198.803 378.246 199.24C378.305 199.678 378.398 200.043 378.527 200.336C378.656 200.625 378.824 200.844 379.031 200.992C379.242 201.137 379.498 201.209 379.799 201.209C380.1 201.209 380.355 201.137 380.566 200.992C380.777 200.848 380.949 200.631 381.082 200.342C381.219 200.053 381.316 199.689 381.375 199.252C381.438 198.811 381.469 198.295 381.469 197.705C381.469 197.119 381.438 196.607 381.375 196.17C381.316 195.732 381.219 195.369 381.082 195.08C380.949 194.791 380.777 194.574 380.566 194.43C380.355 194.285 380.1 194.213 379.799 194.213C379.498 194.213 379.242 194.285 379.031 194.43C378.824 194.574 378.656 194.791 378.527 195.08C378.398 195.369 378.305 195.732 378.246 196.17C378.188 196.607 378.158 197.119 378.158 197.705ZM389.156 197.705C389.156 198.396 389.105 199.016 389.004 199.562C388.906 200.109 388.746 200.572 388.523 200.951C388.305 201.33 388.021 201.619 387.674 201.818C387.326 202.018 386.904 202.117 386.408 202.117C385.947 202.117 385.545 202.018 385.201 201.818C384.861 201.619 384.578 201.33 384.352 200.951C384.129 200.572 383.961 200.109 383.848 199.562C383.738 199.016 383.684 198.396 383.684 197.705C383.684 197.014 383.732 196.395 383.83 195.848C383.932 195.301 384.09 194.84 384.305 194.465C384.523 194.086 384.805 193.797 385.148 193.598C385.496 193.398 385.916 193.299 386.408 193.299C386.873 193.299 387.277 193.398 387.621 193.598C387.965 193.793 388.25 194.08 388.477 194.459C388.703 194.834 388.873 195.295 388.986 195.842C389.1 196.389 389.156 197.01 389.156 197.705ZM384.768 197.705C384.768 198.291 384.797 198.803 384.855 199.24C384.914 199.678 385.008 200.043 385.137 200.336C385.266 200.625 385.434 200.844 385.641 200.992C385.852 201.137 386.107 201.209 386.408 201.209C386.709 201.209 386.965 201.137 387.176 200.992C387.387 200.848 387.559 200.631 387.691 200.342C387.828 200.053 387.926 199.689 387.984 199.252C388.047 198.811 388.078 198.295 388.078 197.705C388.078 197.119 388.047 196.607 387.984 196.17C387.926 195.732 387.828 195.369 387.691 195.08C387.559 194.791 387.387 194.574 387.176 194.43C386.965 194.285 386.709 194.213 386.408 194.213C386.107 194.213 385.852 194.285 385.641 194.43C385.434 194.574 385.266 194.791 385.137 195.08C385.008 195.369 384.914 195.732 384.855 196.17C384.797 196.607 384.768 197.119 384.768 197.705Z" fill="#595959"/>
<rect x="135.262" y="145" width="28.735" height="20" fill="#4CA2A8"/>
<rect x="101.299" y="145" width="28.735" height="20" fill="#4CA2A8"/>
<rect x="196.715" y="145.5" width="27.735" height="19" stroke="#CED7D4"/>
<rect x="166.24" y="145.5" width="27.735" height="19" stroke="#CED7D4"/>
<rect x="257.67" y="145.5" width="27.735" height="19" stroke="#CED7D4"/>
<rect x="227.195" y="145.5" width="27.735" height="19" stroke="#CED7D4"/>
<rect x="352.588" y="145.5" width="27.735" height="19" stroke="#CED7D4"/>
<rect x="322.111" y="145.5" width="27.735" height="19" stroke="#CED7D4"/>
<path d="M70.8223 145H99.5572V165H70.8223V145Z" fill="#4CA2A8"/>
<path d="M165.627 145H189.148V165H165.627V145Z" fill="#4CA2A8"/>
<rect x="288.146" y="145.5" width="27.735" height="19" stroke="#CED7D4"/>
<rect x="135.262" y="105" width="28.735" height="20" fill="#4CA2A8"/>
<rect x="101.299" y="105" width="28.735" height="20" fill="#4CA2A8"/>
<rect x="196.715" y="105.5" width="27.735" height="19" stroke="#CED7D4"/>
<rect x="166.24" y="105.5" width="27.735" height="19" stroke="#CED7D4"/>
<rect x="257.67" y="105.5" width="27.735" height="19" stroke="#CED7D4"/>
<rect x="227.195" y="105.5" width="27.735" height="19" stroke="#CED7D4"/>
<rect x="352.588" y="105.5" width="27.735" height="19" stroke="#CED7D4"/>
<rect x="322.111" y="105.5" width="27.735" height="19" stroke="#CED7D4"/>
<rect x="70.8223" y="105" width="28.735" height="20" fill="#4CA2A8"/>
<rect x="288.146" y="105.5" width="27.735" height="19" stroke="#CED7D4"/>
<rect x="131.777" y="65" width="28.735" height="20" fill="#E6B056"/>
<rect x="101.299" y="65" width="28.735" height="20" fill="#E6B056"/>
<rect x="196.215" y="65" width="28.735" height="20" fill="#E6B056"/>
<rect x="165.74" y="65" width="28.735" height="20" fill="#E6B056"/>
<rect x="257.17" y="65" width="28.735" height="20" fill="#E6B056"/>
<rect x="226.695" y="65" width="28.735" height="20" fill="#E6B056"/>
<rect x="352.588" y="65.5" width="27.735" height="19" stroke="#CED7D4"/>
<rect x="322.111" y="65.5" width="27.735" height="19" stroke="#CED7D4"/>
<rect x="70.8223" y="65" width="28.735" height="20" fill="#E6B056"/>
<rect x="291.133" y="65" width="28.735" height="20" fill="#E6B056"/>
<path d="M408.383 80.25H393.617L401 67.4979L408.383 80.25Z" fill="#FEEAEE" stroke="#E16E75"/>
<path d="M401.216 77H400.111V78.5H401.216V77Z" fill="#C21A2C"/>
<path d="M401.216 72.5H400.111V75.5H401.216V72.5Z" fill="#C21A2C"/>
</g>
<circle cx="111" cy="237" r="4" fill="#4CA2A8"/>
<path d="M131.041 241H129.673L125.557 234.772V241H124.189V232.648H125.557L129.673 238.864V232.648H131.041V241ZM133.764 240.688C133.26 240.4 132.864 240.004 132.576 239.488C132.288 238.972 132.144 238.372 132.144 237.688C132.144 237.016 132.288 236.428 132.588 235.9C132.876 235.384 133.284 234.988 133.8 234.7C134.304 234.424 134.88 234.28 135.516 234.28C136.14 234.28 136.716 234.424 137.232 234.7C137.736 234.988 138.144 235.384 138.444 235.9C138.732 236.428 138.888 237.016 138.888 237.688C138.888 238.36 138.732 238.96 138.432 239.476C138.12 240.004 137.712 240.4 137.184 240.688C136.656 240.976 136.08 241.108 135.456 241.108C134.832 241.108 134.268 240.976 133.764 240.688ZM136.44 239.668C136.752 239.5 137.004 239.248 137.196 238.912C137.388 238.576 137.484 238.168 137.484 237.688C137.484 237.208 137.388 236.812 137.208 236.476C137.016 236.14 136.776 235.888 136.476 235.72C136.164 235.552 135.84 235.468 135.492 235.468C135.132 235.468 134.808 235.552 134.508 235.72C134.208 235.888 133.968 236.14 133.8 236.476C133.62 236.812 133.536 237.208 133.536 237.688C133.536 238.408 133.716 238.96 134.076 239.344C134.436 239.728 134.904 239.92 135.456 239.92C135.804 239.92 136.128 239.836 136.44 239.668ZM142.15 234.568C142.486 234.376 142.882 234.28 143.338 234.28V235.696H142.99C142.45 235.696 142.042 235.84 141.766 236.104C141.49 236.38 141.358 236.848 141.358 237.52V241H139.99V234.388H141.358V235.348C141.55 235.012 141.814 234.76 142.15 234.568ZM153.741 234.604C154.149 234.82 154.473 235.144 154.713 235.564C154.953 235.996 155.073 236.5 155.073 237.1V241H153.717V237.304C153.717 236.716 153.561 236.26 153.273 235.948C152.973 235.636 152.565 235.468 152.061 235.468C151.545 235.468 151.137 235.636 150.837 235.948C150.537 236.26 150.393 236.716 150.393 237.304V241H149.037V237.304C149.037 236.716 148.881 236.26 148.593 235.948C148.293 235.636 147.885 235.468 147.381 235.468C146.865 235.468 146.457 235.636 146.157 235.948C145.857 236.26 145.713 236.716 145.713 237.304V241H144.345V234.388H145.713V235.144C145.929 234.88 146.217 234.664 146.565 234.508C146.901 234.364 147.273 234.28 147.669 234.28C148.197 234.28 148.665 234.4 149.085 234.616C149.493 234.844 149.817 235.168 150.045 235.588C150.237 235.192 150.549 234.88 150.981 234.64C151.401 234.4 151.857 234.28 152.349 234.28C152.865 234.28 153.333 234.388 153.741 234.604ZM156.516 235.9C156.792 235.396 157.164 235 157.644 234.712C158.124 234.424 158.652 234.28 159.228 234.28C159.744 234.28 160.2 234.388 160.584 234.592C160.968 234.796 161.28 235.048 161.52 235.348V234.388H162.9V241H161.52V240.016C161.28 240.328 160.968 240.592 160.572 240.796C160.164 241.012 159.708 241.108 159.204 241.108C158.628 241.108 158.112 240.964 157.644 240.676C157.164 240.388 156.792 239.98 156.516 239.452C156.24 238.924 156.108 238.336 156.108 237.664C156.108 237.004 156.24 236.416 156.516 235.9ZM161.232 236.5C161.04 236.164 160.8 235.912 160.5 235.732C160.188 235.564 159.864 235.468 159.516 235.468C159.156 235.468 158.832 235.564 158.532 235.732C158.22 235.9 157.98 236.152 157.788 236.488C157.596 236.824 157.512 237.208 157.512 237.664C157.512 238.12 157.596 238.528 157.788 238.864C157.98 239.212 158.22 239.476 158.532 239.656C158.844 239.836 159.168 239.92 159.516 239.92C159.864 239.92 160.188 239.836 160.5 239.656C160.8 239.488 161.04 239.224 161.232 238.888C161.424 238.552 161.52 238.144 161.52 237.688C161.52 237.232 161.424 236.836 161.232 236.5ZM165.815 232.12V241H164.447V232.12H165.815Z" fill="#121212"/>
<circle cx="203" cy="237" r="4" fill="#E6B056"/>
<path d="M217.57 232.66V237.976C217.57 238.612 217.726 239.092 218.062 239.404C218.398 239.728 218.854 239.884 219.454 239.884C220.054 239.884 220.51 239.728 220.846 239.404C221.182 239.092 221.35 238.612 221.35 237.976V232.66H222.718V237.952C222.718 238.636 222.562 239.212 222.274 239.68C221.974 240.16 221.578 240.508 221.086 240.736C220.582 240.976 220.042 241.084 219.442 241.084C218.842 241.084 218.29 240.976 217.798 240.736C217.306 240.508 216.922 240.16 216.634 239.68C216.346 239.212 216.202 238.636 216.202 237.952V232.66H217.57ZM228.978 234.604C229.386 234.82 229.71 235.144 229.95 235.564C230.178 235.996 230.298 236.5 230.298 237.1V241H228.942V237.304C228.942 236.716 228.786 236.26 228.498 235.948C228.198 235.636 227.79 235.468 227.286 235.468C226.77 235.468 226.362 235.636 226.062 235.948C225.762 236.26 225.618 236.716 225.618 237.304V241H224.25V234.388H225.618V235.144C225.834 234.88 226.122 234.664 226.47 234.508C226.818 234.364 227.19 234.28 227.586 234.28C228.102 234.28 228.57 234.388 228.978 234.604ZM231.745 235.9C232.021 235.396 232.393 235 232.873 234.712C233.353 234.424 233.881 234.28 234.469 234.28C234.901 234.28 235.321 234.376 235.741 234.568C236.161 234.76 236.497 235 236.749 235.312V232.12H238.129V241H236.749V240.004C236.521 240.328 236.209 240.592 235.813 240.796C235.417 241.012 234.961 241.108 234.457 241.108C233.881 241.108 233.353 240.964 232.873 240.676C232.393 240.388 232.021 239.98 231.745 239.452C231.469 238.924 231.337 238.336 231.337 237.664C231.337 237.004 231.469 236.416 231.745 235.9ZM236.461 236.5C236.269 236.164 236.029 235.912 235.729 235.732C235.417 235.564 235.093 235.468 234.745 235.468C234.385 235.468 234.061 235.564 233.761 235.732C233.449 235.9 233.209 236.152 233.017 236.488C232.825 236.824 232.741 237.208 232.741 237.664C232.741 238.12 232.825 238.528 233.017 238.864C233.209 239.212 233.449 239.476 233.761 239.656C234.073 239.836 234.397 239.92 234.745 239.92C235.093 239.92 235.417 239.836 235.729 239.656C236.029 239.488 236.269 239.224 236.461 238.888C236.653 238.552 236.749 238.144 236.749 237.688C236.749 237.232 236.653 236.836 236.461 236.5ZM245.687 238.204H240.635C240.671 238.732 240.863 239.164 241.223 239.476C241.571 239.8 242.003 239.956 242.519 239.956C243.251 239.956 243.767 239.656 244.079 239.032H245.555C245.351 239.644 244.991 240.148 244.463 240.532C243.935 240.916 243.287 241.108 242.519 241.108C241.883 241.108 241.319 240.976 240.815 240.688C240.311 240.4 239.927 240.004 239.639 239.488C239.351 238.972 239.219 238.372 239.219 237.688C239.219 237.016 239.351 236.416 239.627 235.9C239.903 235.384 240.287 234.988 240.791 234.7C241.295 234.424 241.871 234.28 242.519 234.28C243.143 234.28 243.695 234.424 244.187 234.688C244.667 234.964 245.051 235.348 245.327 235.84C245.591 236.332 245.735 236.896 245.735 237.532C245.735 237.784 245.711 238.012 245.687 238.204ZM244.307 237.1C244.295 236.596 244.115 236.2 243.767 235.888C243.407 235.588 242.975 235.432 242.459 235.432C241.979 235.432 241.583 235.588 241.247 235.888C240.911 236.188 240.707 236.596 240.647 237.1H244.307ZM248.992 234.568C249.328 234.376 249.724 234.28 250.18 234.28V235.696H249.832C249.292 235.696 248.884 235.84 248.608 236.104C248.332 236.38 248.2 236.848 248.2 237.52V241H246.832V234.388H248.2V235.348C248.392 235.012 248.656 234.76 248.992 234.568ZM252.555 232.12V241H251.187V232.12H252.555ZM255.277 240.688C254.773 240.4 254.377 240.004 254.089 239.488C253.801 238.972 253.657 238.372 253.657 237.688C253.657 237.016 253.801 236.428 254.101 235.9C254.389 235.384 254.797 234.988 255.313 234.7C255.817 234.424 256.393 234.28 257.029 234.28C257.653 234.28 258.229 234.424 258.745 234.7C259.249 234.988 259.657 235.384 259.957 235.9C260.245 236.428 260.401 237.016 260.401 237.688C260.401 238.36 260.245 238.96 259.945 239.476C259.633 240.004 259.225 240.4 258.697 240.688C258.169 240.976 257.593 241.108 256.969 241.108C256.345 241.108 255.781 240.976 255.277 240.688ZM257.953 239.668C258.265 239.5 258.517 239.248 258.709 238.912C258.901 238.576 258.997 238.168 258.997 237.688C258.997 237.208 258.901 236.812 258.721 236.476C258.529 236.14 258.289 235.888 257.989 235.72C257.677 235.552 257.353 235.468 257.005 235.468C256.645 235.468 256.321 235.552 256.021 235.72C255.721 235.888 255.481 236.14 255.313 236.476C255.133 236.812 255.049 237.208 255.049 237.688C255.049 238.408 255.229 238.96 255.589 239.344C255.949 239.728 256.417 239.92 256.969 239.92C257.317 239.92 257.641 239.836 257.953 239.668ZM261.456 235.9C261.732 235.396 262.104 235 262.584 234.712C263.064 234.424 263.592 234.28 264.168 234.28C264.684 234.28 265.14 234.388 265.524 234.592C265.908 234.796 266.22 235.048 266.46 235.348V234.388H267.84V241H266.46V240.016C266.22 240.328 265.908 240.592 265.512 240.796C265.104 241.012 264.648 241.108 264.144 241.108C263.568 241.108 263.052 240.964 262.584 240.676C262.104 240.388 261.732 239.98 261.456 239.452C261.18 238.924 261.048 238.336 261.048 237.664C261.048 237.004 261.18 236.416 261.456 235.9ZM266.172 236.5C265.98 236.164 265.74 235.912 265.44 235.732C265.128 235.564 264.804 235.468 264.456 235.468C264.096 235.468 263.772 235.564 263.472 235.732C263.16 235.9 262.92 236.152 262.728 236.488C262.536 236.824 262.452 237.208 262.452 237.664C262.452 238.12 262.536 238.528 262.728 238.864C262.92 239.212 263.16 239.476 263.472 239.656C263.784 239.836 264.108 239.92 264.456 239.92C264.804 239.92 265.128 239.836 265.44 239.656C265.74 239.488 265.98 239.224 266.172 238.888C266.364 238.552 266.46 238.144 266.46 237.688C266.46 237.232 266.364 236.836 266.172 236.5ZM269.338 235.9C269.614 235.396 269.986 235 270.466 234.712C270.946 234.424 271.474 234.28 272.062 234.28C272.494 234.28 272.914 234.376 273.334 234.568C273.754 234.76 274.09 235 274.342 235.312V232.12H275.722V241H274.342V240.004C274.114 240.328 273.802 240.592 273.406 240.796C273.01 241.012 272.554 241.108 272.05 241.108C271.474 241.108 270.946 240.964 270.466 240.676C269.986 240.388 269.614 239.98 269.338 239.452C269.062 238.924 268.93 238.336 268.93 237.664C268.93 237.004 269.062 236.416 269.338 235.9ZM274.054 236.5C273.862 236.164 273.622 235.912 273.322 235.732C273.01 235.564 272.686 235.468 272.338 235.468C271.978 235.468 271.654 235.564 271.354 235.732C271.042 235.9 270.802 236.152 270.61 236.488C270.418 236.824 270.334 237.208 270.334 237.664C270.334 238.12 270.418 238.528 270.61 238.864C270.802 239.212 271.042 239.476 271.354 239.656C271.666 239.836 271.99 239.92 272.338 239.92C272.686 239.92 273.01 239.836 273.322 239.656C273.622 239.488 273.862 239.224 274.054 238.888C274.246 238.552 274.342 238.144 274.342 237.688C274.342 237.232 274.246 236.836 274.054 236.5ZM284.576 229.672L281.312 243.1H279.968L283.22 229.672H284.576ZM290.574 240.544C289.926 240.184 289.41 239.668 289.026 239.02C288.642 238.372 288.462 237.628 288.462 236.812C288.462 235.996 288.642 235.264 289.026 234.616C289.41 233.968 289.926 233.464 290.574 233.104C291.222 232.744 291.942 232.552 292.722 232.552C293.502 232.552 294.222 232.744 294.87 233.104C295.518 233.464 296.034 233.968 296.418 234.616C296.79 235.264 296.982 235.996 296.982 236.812C296.982 237.628 296.79 238.372 296.418 239.02C296.034 239.668 295.518 240.184 294.87 240.544C294.222 240.904 293.502 241.084 292.722 241.084C291.942 241.084 291.222 240.904 290.574 240.544ZM294.198 239.524C294.63 239.272 294.966 238.912 295.206 238.444C295.446 237.976 295.578 237.436 295.578 236.812C295.578 236.2 295.446 235.66 295.206 235.192C294.966 234.736 294.63 234.376 294.198 234.124C293.766 233.884 293.274 233.752 292.722 233.752C292.17 233.752 291.678 233.884 291.246 234.124C290.814 234.376 290.466 234.736 290.226 235.192C289.986 235.66 289.866 236.2 289.866 236.812C289.866 237.436 289.986 237.976 290.226 238.444C290.466 238.912 290.814 239.272 291.246 239.524C291.678 239.776 292.17 239.896 292.722 239.896C293.274 239.896 293.766 239.776 294.198 239.524ZM300.634 239.776L302.506 234.388H303.958L301.438 241H299.806L297.298 234.388H298.762L300.634 239.776ZM310.754 238.204H305.702C305.738 238.732 305.93 239.164 306.29 239.476C306.638 239.8 307.07 239.956 307.586 239.956C308.318 239.956 308.834 239.656 309.146 239.032H310.622C310.418 239.644 310.058 240.148 309.53 240.532C309.002 240.916 308.354 241.108 307.586 241.108C306.95 241.108 306.386 240.976 305.882 240.688C305.378 240.4 304.994 240.004 304.706 239.488C304.418 238.972 304.286 238.372 304.286 237.688C304.286 237.016 304.418 236.416 304.694 235.9C304.97 235.384 305.354 234.988 305.858 234.7C306.362 234.424 306.938 234.28 307.586 234.28C308.21 234.28 308.762 234.424 309.254 234.688C309.734 234.964 310.118 235.348 310.394 235.84C310.658 236.332 310.802 236.896 310.802 237.532C310.802 237.784 310.778 238.012 310.754 238.204ZM309.374 237.1C309.362 236.596 309.182 236.2 308.834 235.888C308.474 235.588 308.042 235.432 307.526 235.432C307.046 235.432 306.65 235.588 306.314 235.888C305.978 236.188 305.774 236.596 305.714 237.1H309.374ZM314.058 234.568C314.394 234.376 314.79 234.28 315.246 234.28V235.696H314.898C314.358 235.696 313.95 235.84 313.674 236.104C313.398 236.38 313.266 236.848 313.266 237.52V241H311.898V234.388H313.266V235.348C313.458 235.012 313.722 234.76 314.058 234.568ZM317.622 232.12V241H316.254V232.12H317.622ZM320.344 240.688C319.84 240.4 319.444 240.004 319.156 239.488C318.868 238.972 318.724 238.372 318.724 237.688C318.724 237.016 318.868 236.428 319.168 235.9C319.456 235.384 319.864 234.988 320.38 234.7C320.884 234.424 321.46 234.28 322.096 234.28C322.72 234.28 323.296 234.424 323.812 234.7C324.316 234.988 324.724 235.384 325.024 235.9C325.312 236.428 325.468 237.016 325.468 237.688C325.468 238.36 325.312 238.96 325.012 239.476C324.7 240.004 324.292 240.4 323.764 240.688C323.236 240.976 322.66 241.108 322.036 241.108C321.412 241.108 320.848 240.976 320.344 240.688ZM323.02 239.668C323.332 239.5 323.584 239.248 323.776 238.912C323.968 238.576 324.064 238.168 324.064 237.688C324.064 237.208 323.968 236.812 323.788 236.476C323.596 236.14 323.356 235.888 323.056 235.72C322.744 235.552 322.42 235.468 322.072 235.468C321.712 235.468 321.388 235.552 321.088 235.72C320.788 235.888 320.548 236.14 320.38 236.476C320.2 236.812 320.116 237.208 320.116 237.688C320.116 238.408 320.296 238.96 320.656 239.344C321.016 239.728 321.484 239.92 322.036 239.92C322.384 239.92 322.708 239.836 323.02 239.668ZM326.522 235.9C326.798 235.396 327.17 235 327.65 234.712C328.13 234.424 328.658 234.28 329.234 234.28C329.75 234.28 330.206 234.388 330.59 234.592C330.974 234.796 331.286 235.048 331.526 235.348V234.388H332.906V241H331.526V240.016C331.286 240.328 330.974 240.592 330.578 240.796C330.17 241.012 329.714 241.108 329.21 241.108C328.634 241.108 328.118 240.964 327.65 240.676C327.17 240.388 326.798 239.98 326.522 239.452C326.246 238.924 326.114 238.336 326.114 237.664C326.114 237.004 326.246 236.416 326.522 235.9ZM331.238 236.5C331.046 236.164 330.806 235.912 330.506 235.732C330.194 235.564 329.87 235.468 329.522 235.468C329.162 235.468 328.838 235.564 328.538 235.732C328.226 235.9 327.986 236.152 327.794 236.488C327.602 236.824 327.518 237.208 327.518 237.664C327.518 238.12 327.602 238.528 327.794 238.864C327.986 239.212 328.226 239.476 328.538 239.656C328.85 239.836 329.174 239.92 329.522 239.92C329.87 239.92 330.194 239.836 330.506 239.656C330.806 239.488 331.046 239.224 331.238 238.888C331.43 238.552 331.526 238.144 331.526 237.688C331.526 237.232 331.43 236.836 331.238 236.5ZM334.405 235.9C334.681 235.396 335.053 235 335.533 234.712C336.013 234.424 336.541 234.28 337.129 234.28C337.561 234.28 337.981 234.376 338.401 234.568C338.821 234.76 339.157 235 339.409 235.312V232.12H340.789V241H339.409V240.004C339.181 240.328 338.869 240.592 338.473 240.796C338.077 241.012 337.621 241.108 337.117 241.108C336.541 241.108 336.013 240.964 335.533 240.676C335.053 240.388 334.681 239.98 334.405 239.452C334.129 238.924 333.997 238.336 333.997 237.664C333.997 237.004 334.129 236.416 334.405 235.9ZM339.121 236.5C338.929 236.164 338.689 235.912 338.389 235.732C338.077 235.564 337.753 235.468 337.405 235.468C337.045 235.468 336.721 235.564 336.421 235.732C336.109 235.9 335.869 236.152 335.677 236.488C335.485 236.824 335.401 237.208 335.401 237.664C335.401 238.12 335.485 238.528 335.677 238.864C335.869 239.212 336.109 239.476 336.421 239.656C336.733 239.836 337.057 239.92 337.405 239.92C337.753 239.92 338.077 239.836 338.389 239.656C338.689 239.488 338.929 239.224 339.121 238.888C339.313 238.552 339.409 238.144 339.409 237.688C339.409 237.232 339.313 236.836 339.121 236.5Z" fill="#121212"/>
<defs>
<clipPath id="clip0_0_1">
<rect width="425" height="265" rx="4" fill="white"/>
</clipPath>
</defs>
</svg>
