<svg width="425" height="265" viewBox="0 0 425 265" fill="none" xmlns="http://www.w3.org/2000/svg">
<rect width="425" height="265" fill="#F5F5F5"/>
<rect x="-12937" y="-6411" width="23840" height="13376" fill="#F8FAF9"/>
<rect width="425" height="265" rx="4" fill="white"/>
<rect x="261" y="20" width="150" height="20" rx="4" fill="#EFFCF6"/>
<path d="M277.643 30.7051C277.643 32.0762 277.295 33.1543 276.6 33.9395C275.908 34.7246 274.939 35.1172 273.693 35.1172C272.432 35.1172 271.455 34.7324 270.764 33.9629C270.076 33.1895 269.732 32.0996 269.732 30.6934C269.732 29.2988 270.074 28.2188 270.758 27.4531C271.445 26.6836 272.428 26.2988 273.705 26.2988C274.947 26.2988 275.914 26.6895 276.605 27.4707C277.297 28.248 277.643 29.3262 277.643 30.7051ZM270.869 30.7051C270.869 31.8379 271.109 32.7012 271.59 33.2949C272.07 33.8887 272.771 34.1855 273.693 34.1855C274.611 34.1855 275.309 33.8926 275.785 33.3066C276.262 32.7207 276.5 31.8535 276.5 30.7051C276.5 29.5605 276.264 28.6992 275.791 28.1211C275.318 27.5391 274.623 27.248 273.705 27.248C272.775 27.248 272.07 27.543 271.59 28.1328C271.109 28.7188 270.869 29.5762 270.869 30.7051ZM282.441 35.1172C281.578 35.1172 280.914 34.8066 280.449 34.1855H280.379L280.402 34.4258C280.434 34.7305 280.449 35.002 280.449 35.2402V37.8828H279.395V28.5664H280.262L280.402 29.4453H280.449C280.699 29.0938 280.988 28.8398 281.316 28.6836C281.645 28.5273 282.023 28.4492 282.453 28.4492C283.289 28.4492 283.938 28.7402 284.398 29.3223C284.863 29.9004 285.096 30.7168 285.096 31.7715C285.096 32.8223 284.863 33.6426 284.398 34.2324C283.934 34.8223 283.281 35.1172 282.441 35.1172ZM282.266 29.334C281.629 29.334 281.168 29.5137 280.883 29.873C280.602 30.2324 280.457 30.7969 280.449 31.5664V31.7715C280.449 32.6426 280.594 33.2734 280.883 33.6641C281.172 34.0508 281.641 34.2441 282.289 34.2441C282.828 34.2441 283.248 34.0254 283.549 33.5879C283.854 33.1504 284.006 32.541 284.006 31.7598C284.006 30.9746 283.854 30.375 283.549 29.9609C283.248 29.543 282.82 29.334 282.266 29.334ZM288.928 34.2559C289.064 34.2559 289.225 34.2422 289.408 34.2148C289.592 34.1875 289.73 34.1562 289.824 34.1211V34.9297C289.727 34.9727 289.574 35.0137 289.367 35.0527C289.164 35.0957 288.957 35.1172 288.746 35.1172C287.488 35.1172 286.859 34.4551 286.859 33.1309V29.3867H285.951V28.8828L286.871 28.4609L287.293 27.0898H287.92V28.5664H289.777V29.3867H287.92V33.1016C287.92 33.4727 288.008 33.7578 288.184 33.957C288.363 34.1562 288.611 34.2559 288.928 34.2559ZM292.168 35H291.113V28.5664H292.168V35ZM291.031 26.8262C291.031 26.5918 291.09 26.4219 291.207 26.3164C291.328 26.2109 291.477 26.1582 291.652 26.1582C291.816 26.1582 291.959 26.2109 292.08 26.3164C292.205 26.4219 292.268 26.5918 292.268 26.8262C292.268 27.0566 292.205 27.2266 292.08 27.3359C291.959 27.4453 291.816 27.5 291.652 27.5C291.477 27.5 291.328 27.4453 291.207 27.3359C291.09 27.2266 291.031 27.0566 291.031 26.8262ZM302.393 35V30.8574C302.393 29.8418 301.957 29.334 301.086 29.334C300.488 29.334 300.049 29.5078 299.768 29.8555C299.486 30.2031 299.346 30.7344 299.346 31.4492V35H298.297V30.8574C298.297 30.3496 298.189 29.9688 297.975 29.7148C297.764 29.4609 297.432 29.334 296.979 29.334C296.385 29.334 295.949 29.5156 295.672 29.8789C295.398 30.2422 295.262 30.8379 295.262 31.666V35H294.207V28.5664H295.057L295.215 29.4453H295.273C295.457 29.1328 295.715 28.8887 296.047 28.7129C296.383 28.5371 296.758 28.4492 297.172 28.4492C298.18 28.4492 298.836 28.8086 299.141 29.5273H299.199C299.406 29.1836 299.688 28.918 300.043 28.7305C300.402 28.543 300.809 28.4492 301.262 28.4492C301.988 28.4492 302.531 28.6367 302.891 29.0117C303.254 29.3867 303.436 29.9863 303.436 30.8105V35H302.393ZM309.406 35L309.201 34.0859H309.154C308.834 34.4883 308.514 34.7617 308.193 34.9062C307.877 35.0469 307.477 35.1172 306.992 35.1172C306.359 35.1172 305.863 34.9512 305.504 34.6191C305.145 34.2871 304.965 33.8184 304.965 33.2129C304.965 31.9082 305.994 31.2246 308.053 31.1621L309.143 31.1211V30.7402C309.143 30.252 309.037 29.8926 308.826 29.6621C308.615 29.4277 308.277 29.3105 307.812 29.3105C307.473 29.3105 307.15 29.3613 306.846 29.4629C306.545 29.5645 306.262 29.6777 305.996 29.8027L305.674 29.0117C305.998 28.8398 306.352 28.7051 306.734 28.6074C307.117 28.5098 307.496 28.4609 307.871 28.4609C308.648 28.4609 309.227 28.6328 309.605 28.9766C309.984 29.3203 310.174 29.8672 310.174 30.6172V35H309.406ZM307.232 34.2676C307.822 34.2676 308.285 34.1094 308.621 33.793C308.961 33.4727 309.131 33.0195 309.131 32.4336V31.8535L308.182 31.8945C307.443 31.9219 306.904 32.0391 306.564 32.2461C306.229 32.4531 306.061 32.7793 306.061 33.2246C306.061 33.5605 306.162 33.8184 306.365 33.998C306.572 34.1777 306.861 34.2676 307.232 34.2676ZM313.227 35H312.172V25.8828H313.227V35ZM323.387 32.709C323.387 33.4551 323.117 34.043 322.578 34.4727C322.039 34.9023 321.289 35.1172 320.328 35.1172C319.312 35.1172 318.527 34.9824 317.973 34.7129V33.6816C318.336 33.8379 318.732 33.9609 319.162 34.0508C319.596 34.1406 320 34.1855 320.375 34.1855C321.016 34.1855 321.498 34.0625 321.822 33.8164C322.146 33.5703 322.309 33.2324 322.309 32.8027C322.309 32.5176 322.25 32.2832 322.133 32.0996C322.016 31.916 321.818 31.7441 321.541 31.584C321.268 31.4238 320.852 31.2422 320.293 31.0391C319.5 30.75 318.934 30.4102 318.594 30.0195C318.254 29.625 318.084 29.1172 318.084 28.4961C318.084 27.8281 318.334 27.2969 318.834 26.9023C319.338 26.5078 320 26.3105 320.82 26.3105C321.676 26.3105 322.463 26.4707 323.182 26.791L322.848 27.7168C322.113 27.4121 321.43 27.2598 320.797 27.2598C320.289 27.2598 319.891 27.3691 319.602 27.5879C319.316 27.8066 319.174 28.1133 319.174 28.5078C319.174 28.7891 319.229 29.0234 319.338 29.2109C319.451 29.3945 319.631 29.5625 319.877 29.7148C320.127 29.8672 320.518 30.041 321.049 30.2363C321.686 30.4707 322.16 30.6992 322.473 30.9219C322.785 31.1406 323.016 31.3945 323.164 31.6836C323.312 31.9688 323.387 32.3105 323.387 32.709ZM330.559 31.7715C330.559 32.8223 330.293 33.6426 329.762 34.2324C329.23 34.8223 328.496 35.1172 327.559 35.1172C326.977 35.1172 326.461 34.9824 326.012 34.7129C325.562 34.4395 325.217 34.0488 324.975 33.541C324.732 33.0332 324.611 32.4434 324.611 31.7715C324.611 30.7246 324.873 29.9102 325.396 29.3281C325.92 28.7422 326.654 28.4492 327.6 28.4492C328.506 28.4492 329.225 28.748 329.756 29.3457C330.291 29.9395 330.559 30.748 330.559 31.7715ZM325.701 31.7715C325.701 32.5801 325.859 33.1953 326.176 33.6172C326.496 34.0352 326.967 34.2441 327.588 34.2441C328.201 34.2441 328.668 34.0352 328.988 33.6172C329.309 33.1953 329.469 32.5801 329.469 31.7715C329.469 30.9629 329.307 30.3555 328.982 29.9492C328.662 29.5391 328.191 29.334 327.57 29.334C326.324 29.334 325.701 30.1465 325.701 31.7715ZM333.289 35H332.234V25.8828H333.289V35ZM336.324 28.5664V32.709C336.324 33.2285 336.439 33.6152 336.67 33.8691C336.904 34.1191 337.266 34.2441 337.754 34.2441C338.414 34.2441 338.895 34.0605 339.195 33.6934C339.496 33.3262 339.646 32.7344 339.646 31.918V28.5664H340.707V35H339.84L339.688 34.1504H339.635C339.443 34.459 339.172 34.6973 338.82 34.8652C338.469 35.0332 338.061 35.1172 337.596 35.1172C336.822 35.1172 336.238 34.9316 335.844 34.5605C335.453 34.1895 335.258 33.5957 335.258 32.7793V28.5664H336.324ZM344.896 34.2559C345.033 34.2559 345.193 34.2422 345.377 34.2148C345.561 34.1875 345.699 34.1562 345.793 34.1211V34.9297C345.695 34.9727 345.543 35.0137 345.336 35.0527C345.133 35.0957 344.926 35.1172 344.715 35.1172C343.457 35.1172 342.828 34.4551 342.828 33.1309V29.3867H341.92V28.8828L342.84 28.4609L343.262 27.0898H343.889V28.5664H345.746V29.3867H343.889V33.1016C343.889 33.4727 343.977 33.7578 344.152 33.957C344.332 34.1562 344.58 34.2559 344.896 34.2559ZM348.137 35H347.082V28.5664H348.137V35ZM347 26.8262C347 26.5918 347.059 26.4219 347.176 26.3164C347.297 26.2109 347.445 26.1582 347.621 26.1582C347.785 26.1582 347.928 26.2109 348.049 26.3164C348.174 26.4219 348.236 26.5918 348.236 26.8262C348.236 27.0566 348.174 27.2266 348.049 27.3359C347.928 27.4453 347.785 27.5 347.621 27.5C347.445 27.5 347.297 27.4453 347.176 27.3359C347.059 27.2266 347 27.0566 347 26.8262ZM355.766 31.7715C355.766 32.8223 355.5 33.6426 354.969 34.2324C354.438 34.8223 353.703 35.1172 352.766 35.1172C352.184 35.1172 351.668 34.9824 351.219 34.7129C350.77 34.4395 350.424 34.0488 350.182 33.541C349.939 33.0332 349.818 32.4434 349.818 31.7715C349.818 30.7246 350.08 29.9102 350.604 29.3281C351.127 28.7422 351.861 28.4492 352.807 28.4492C353.713 28.4492 354.432 28.748 354.963 29.3457C355.498 29.9395 355.766 30.748 355.766 31.7715ZM350.908 31.7715C350.908 32.5801 351.066 33.1953 351.383 33.6172C351.703 34.0352 352.174 34.2441 352.795 34.2441C353.408 34.2441 353.875 34.0352 354.195 33.6172C354.516 33.1953 354.676 32.5801 354.676 31.7715C354.676 30.9629 354.514 30.3555 354.189 29.9492C353.869 29.5391 353.398 29.334 352.777 29.334C351.531 29.334 350.908 30.1465 350.908 31.7715ZM361.824 35V30.8867C361.824 30.3633 361.707 29.9746 361.473 29.7207C361.242 29.4629 360.879 29.334 360.383 29.334C359.723 29.334 359.242 29.5176 358.941 29.8848C358.645 30.248 358.496 30.8418 358.496 31.666V35H357.441V28.5664H358.291L358.449 29.4453H358.508C358.707 29.1289 358.986 28.8848 359.346 28.7129C359.705 28.5371 360.102 28.4492 360.535 28.4492C361.324 28.4492 361.91 28.6406 362.293 29.0234C362.676 29.4062 362.867 30.002 362.867 30.8105V35H361.824ZM369.201 35H368.123V26.4336H372.91V27.3828H369.201V30.418H372.682V31.3613H369.201V35ZM379.801 31.7715C379.801 32.8223 379.535 33.6426 379.004 34.2324C378.473 34.8223 377.738 35.1172 376.801 35.1172C376.219 35.1172 375.703 34.9824 375.254 34.7129C374.805 34.4395 374.459 34.0488 374.217 33.541C373.975 33.0332 373.854 32.4434 373.854 31.7715C373.854 30.7246 374.115 29.9102 374.639 29.3281C375.162 28.7422 375.896 28.4492 376.842 28.4492C377.748 28.4492 378.467 28.748 378.998 29.3457C379.533 29.9395 379.801 30.748 379.801 31.7715ZM374.943 31.7715C374.943 32.5801 375.102 33.1953 375.418 33.6172C375.738 34.0352 376.209 34.2441 376.83 34.2441C377.443 34.2441 377.91 34.0352 378.23 33.6172C378.551 33.1953 378.711 32.5801 378.711 31.7715C378.711 30.9629 378.549 30.3555 378.225 29.9492C377.904 29.5391 377.434 29.334 376.812 29.334C375.566 29.334 374.943 30.1465 374.943 31.7715ZM382.473 28.5664V32.709C382.473 33.2285 382.588 33.6152 382.818 33.8691C383.053 34.1191 383.414 34.2441 383.902 34.2441C384.562 34.2441 385.043 34.0605 385.344 33.6934C385.645 33.3262 385.795 32.7344 385.795 31.918V28.5664H386.855V35H385.988L385.836 34.1504H385.783C385.592 34.459 385.32 34.6973 384.969 34.8652C384.617 35.0332 384.209 35.1172 383.744 35.1172C382.971 35.1172 382.387 34.9316 381.992 34.5605C381.602 34.1895 381.406 33.5957 381.406 32.7793V28.5664H382.473ZM393.277 35V30.8867C393.277 30.3633 393.16 29.9746 392.926 29.7207C392.695 29.4629 392.332 29.334 391.836 29.334C391.176 29.334 390.695 29.5176 390.395 29.8848C390.098 30.248 389.949 30.8418 389.949 31.666V35H388.895V28.5664H389.744L389.902 29.4453H389.961C390.16 29.1289 390.439 28.8848 390.799 28.7129C391.158 28.5371 391.555 28.4492 391.988 28.4492C392.777 28.4492 393.363 28.6406 393.746 29.0234C394.129 29.4062 394.32 30.002 394.32 30.8105V35H393.277ZM398.592 35.1172C397.756 35.1172 397.107 34.8281 396.646 34.25C396.186 33.6719 395.955 32.8535 395.955 31.7949C395.955 30.7441 396.186 29.9238 396.646 29.334C397.111 28.7441 397.764 28.4492 398.604 28.4492C399.467 28.4492 400.131 28.7656 400.596 29.3984H400.672C400.66 29.3203 400.645 29.1641 400.625 28.9297C400.605 28.6914 400.596 28.5312 400.596 28.4492V25.8828H401.65V35H400.801L400.643 34.1387H400.596C400.146 34.791 399.479 35.1172 398.592 35.1172ZM398.762 34.2441C399.402 34.2441 399.869 34.0703 400.162 33.7227C400.459 33.3711 400.607 32.7969 400.607 32V31.8066C400.607 30.9121 400.457 30.2754 400.156 29.8965C399.859 29.5137 399.391 29.3223 398.75 29.3223C398.207 29.3223 397.787 29.5391 397.49 29.9727C397.193 30.4023 397.045 31.0176 397.045 31.8184C397.045 32.6152 397.191 33.2188 397.484 33.6289C397.781 34.0391 398.207 34.2441 398.762 34.2441Z" fill="#02A783"/>
<rect width="383" height="1" transform="translate(21 193)" fill="#CED7D4"/>
<rect x="13.5" y="14.5" width="31" height="31" rx="15.5" fill="#EFFCF6"/>
<rect x="13.5" y="14.5" width="31" height="31" rx="15.5" stroke="#02A783"/>
<path d="M30.2979 28.4897C29.2413 27.7346 28.1281 28.1751 27.7036 28.4897L26.3828 26.7815C26.0809 26.35 26.3828 25.5829 26.5715 25.2533L28.1636 21.7398C28.2961 21.4474 28.4609 21.1333 28.7667 21.0355C28.8739 21.0012 28.9777 20.9938 29.0749 21.0046C29.4916 21.0506 29.6526 21.5256 29.6803 21.9439C31.9032 21.836 34.2419 23.1917 35.3853 24.2813C37.359 26.1621 38.0057 28.9727 38 30.5817C37.9991 30.8328 37.7878 31.0236 37.5367 31.0236C37.2813 31.0236 37.0705 30.8271 37.0459 30.5728C36.9178 29.2488 36.4963 26.6998 34.7249 25.0903C32.6967 23.2474 30.9191 22.9665 29.7876 22.9328L30.2979 28.4897Z" fill="#02A783"/>
<path d="M30.062 32.4003C31.1563 31.9329 31.3985 30.7371 31.3827 30.1976L32.2968 30.1641C33.3193 30.1266 34.4282 30.2132 35.0147 31.0517L36.8877 33.5134C37.4393 34.2385 37.6179 35.7183 36.76 35.4117L36.4702 35.2814C35.7784 36.3193 33.4891 38.539 30.2439 38.9345C28.691 39.1238 26.3929 38.9446 24.4319 37.8379C24.1916 37.7023 24.016 37.5641 24.0398 37.2893C24.0992 36.6047 25.0971 36.8687 25.7126 37.1742C26.7803 37.7041 28.4998 38.1534 30.5741 37.8108C31.5174 37.7005 33.8193 36.9511 35.4796 34.836L30.062 32.4003Z" fill="#02A783"/>
<path d="M26.6187 30.1976C26.5715 30.6922 26.7696 31.8251 27.9394 32.4003L27.2319 33.9284C27.1218 34.1981 26.7413 34.7734 26.0998 34.9172L22.1398 35.2814C21.2122 35.3667 19.8392 34.9086 20.5339 34.288L20.8573 34.0706C19.612 32.0493 19.9925 29.2492 20.3384 28.1019C21.0554 25.1533 23.656 23.3373 24.8666 22.7979C25.6968 22.9418 25.527 23.3973 25.3383 23.607C23.7912 24.2902 22.3981 26.1092 21.895 26.9332C20.461 29.8459 21.1717 32.5246 21.7063 33.4998L26.6187 30.1976Z" fill="#02A783"/>
<path d="M34.8418 27.2357C34.0498 25.8729 32.6306 24.9924 31.6537 24.5346C31.2609 24.3505 30.6606 24.1412 30.3847 24.476C29.9777 24.97 30.8994 25.3242 31.4776 25.5989C32.4824 26.0764 33.1674 26.7432 33.5909 27.3311C33.9437 27.8208 34.6848 28.467 34.9455 27.9228C35.0505 27.7034 34.964 27.446 34.8418 27.2357Z" fill="#02A783"/>
<path d="M28.9334 36.7703C30.8018 36.697 32.2869 36.0331 33.0363 35.4502C33.2633 35.2737 33.4915 34.9254 33.3571 34.6712C33.1276 34.2368 32.5854 34.5144 32.1598 34.7597C31.2154 35.304 30.2829 35.55 29.5502 35.6399C28.8221 35.7293 27.7501 36.2271 28.3449 36.6564C28.525 36.7864 28.7018 36.7794 28.9223 36.7708L28.9334 36.7703Z" fill="#02A783"/>
<path d="M23.2157 31.4281C22.8917 30.1343 23.3322 28.7049 23.7655 27.7914C23.9683 27.3637 24.182 26.624 23.7121 26.5664C23.3255 26.519 23.0953 26.8269 22.9289 27.179C22.7563 27.5442 22.5496 28.0493 22.3195 28.6413C22.0835 29.2485 22.0443 30.028 22.0749 30.6697C22.1049 31.2959 22.1657 32.1898 22.7912 32.1473C23.3195 32.1113 23.2943 31.6528 23.2157 31.4281Z" fill="#02A783"/>
<path d="M30.0031 31.3934C30.582 30.8253 30.589 29.8948 30.0186 29.318C29.4453 28.7383 28.509 28.7383 27.9357 29.318C27.3653 29.8948 27.3722 30.8253 27.9512 31.3934C28.5209 31.9525 29.4334 31.9525 30.0031 31.3934Z" fill="#02A783"/>
<path d="M25.9289 222.228V232H23.9689V222.228H25.9289ZM31.9134 224.132C32.8374 224.132 33.5841 224.426 34.1534 225.014C34.7227 225.593 35.0074 226.405 35.0074 227.45V232H33.0474V227.716C33.0474 227.1 32.8934 226.629 32.5854 226.302C32.2774 225.966 31.8574 225.798 31.3254 225.798C30.7841 225.798 30.3547 225.966 30.0374 226.302C29.7294 226.629 29.5754 227.1 29.5754 227.716V232H27.6154V224.244H29.5754V225.21C29.8367 224.874 30.1681 224.613 30.5694 224.426C30.9801 224.23 31.4281 224.132 31.9134 224.132ZM36.1173 228.122C36.1173 227.319 36.2806 226.619 36.6073 226.022C36.9339 225.415 37.3866 224.949 37.9653 224.622C38.5439 224.286 39.2066 224.118 39.9533 224.118C40.9146 224.118 41.7079 224.361 42.3333 224.846C42.9679 225.322 43.3926 225.994 43.6073 226.862H41.4933C41.3813 226.526 41.1899 226.265 40.9193 226.078C40.6579 225.882 40.3313 225.784 39.9393 225.784C39.3793 225.784 38.9359 225.989 38.6093 226.4C38.2826 226.801 38.1193 227.375 38.1193 228.122C38.1193 228.859 38.2826 229.433 38.6093 229.844C38.9359 230.245 39.3793 230.446 39.9393 230.446C40.7326 230.446 41.2506 230.091 41.4933 229.382H43.6073C43.3926 230.222 42.9679 230.889 42.3333 231.384C41.6986 231.879 40.9053 232.126 39.9533 232.126C39.2066 232.126 38.5439 231.963 37.9653 231.636C37.3866 231.3 36.9339 230.833 36.6073 230.236C36.2806 229.629 36.1173 228.925 36.1173 228.122ZM46.7531 225.448C47.0051 225.037 47.3318 224.715 47.7331 224.482C48.1438 224.249 48.6105 224.132 49.1331 224.132V226.19H48.6151C47.9991 226.19 47.5325 226.335 47.2151 226.624C46.9071 226.913 46.7531 227.417 46.7531 228.136V232H44.7931V224.244H46.7531V225.448ZM57.4133 227.954C57.4133 228.234 57.3946 228.486 57.3573 228.71H51.6873C51.734 229.27 51.93 229.709 52.2753 230.026C52.6206 230.343 53.0453 230.502 53.5493 230.502C54.2773 230.502 54.7953 230.189 55.1033 229.564H57.2173C56.9933 230.311 56.564 230.927 55.9293 231.412C55.2946 231.888 54.5153 232.126 53.5913 232.126C52.8446 232.126 52.1726 231.963 51.5753 231.636C50.9873 231.3 50.5253 230.829 50.1893 230.222C49.8626 229.615 49.6993 228.915 49.6993 228.122C49.6993 227.319 49.8626 226.615 50.1893 226.008C50.516 225.401 50.9733 224.935 51.5613 224.608C52.1493 224.281 52.826 224.118 53.5913 224.118C54.3286 224.118 54.9866 224.277 55.5653 224.594C56.1533 224.911 56.606 225.364 56.9233 225.952C57.25 226.531 57.4133 227.198 57.4133 227.954ZM55.3833 227.394C55.374 226.89 55.192 226.489 54.8373 226.19C54.4826 225.882 54.0486 225.728 53.5353 225.728C53.05 225.728 52.6393 225.877 52.3033 226.176C51.9766 226.465 51.776 226.871 51.7013 227.394H55.3833ZM68.2259 224.132C69.1779 224.132 69.9433 224.426 70.5219 225.014C71.1099 225.593 71.4039 226.405 71.4039 227.45V232H69.4439V227.716C69.4439 227.109 69.2899 226.647 68.9819 226.33C68.6739 226.003 68.2539 225.84 67.7219 225.84C67.1899 225.84 66.7653 226.003 66.4479 226.33C66.1399 226.647 65.9859 227.109 65.9859 227.716V232H64.0259V227.716C64.0259 227.109 63.8719 226.647 63.5639 226.33C63.2559 226.003 62.8359 225.84 62.3039 225.84C61.7626 225.84 61.3333 226.003 61.0159 226.33C60.7079 226.647 60.5539 227.109 60.5539 227.716V232H58.5939V224.244H60.5539V225.182C60.8059 224.855 61.1279 224.599 61.5199 224.412C61.9213 224.225 62.3599 224.132 62.8359 224.132C63.4426 224.132 63.9839 224.263 64.4599 224.524C64.9359 224.776 65.3046 225.14 65.5659 225.616C65.8179 225.168 66.1819 224.809 66.6579 224.538C67.1433 224.267 67.6659 224.132 68.2259 224.132ZM80.2239 227.954C80.2239 228.234 80.2052 228.486 80.1679 228.71H74.4979C74.5445 229.27 74.7405 229.709 75.0859 230.026C75.4312 230.343 75.8559 230.502 76.3599 230.502C77.0879 230.502 77.6059 230.189 77.9139 229.564H80.0279C79.8039 230.311 79.3745 230.927 78.7399 231.412C78.1052 231.888 77.3259 232.126 76.4019 232.126C75.6552 232.126 74.9832 231.963 74.3859 231.636C73.7979 231.3 73.3359 230.829 72.9999 230.222C72.6732 229.615 72.5099 228.915 72.5099 228.122C72.5099 227.319 72.6732 226.615 72.9999 226.008C73.3265 225.401 73.7839 224.935 74.3719 224.608C74.9599 224.281 75.6365 224.118 76.4019 224.118C77.1392 224.118 77.7972 224.277 78.3759 224.594C78.9639 224.911 79.4165 225.364 79.7339 225.952C80.0605 226.531 80.2239 227.198 80.2239 227.954ZM78.1939 227.394C78.1845 226.89 78.0025 226.489 77.6479 226.19C77.2932 225.882 76.8592 225.728 76.3459 225.728C75.8605 225.728 75.4499 225.877 75.1139 226.176C74.7872 226.465 74.5865 226.871 74.5119 227.394H78.1939ZM85.7025 224.132C86.6265 224.132 87.3731 224.426 87.9425 225.014C88.5118 225.593 88.7965 226.405 88.7965 227.45V232H86.8365V227.716C86.8365 227.1 86.6825 226.629 86.3745 226.302C86.0665 225.966 85.6465 225.798 85.1145 225.798C84.5731 225.798 84.1438 225.966 83.8265 226.302C83.5185 226.629 83.3645 227.1 83.3645 227.716V232H81.4045V224.244H83.3645V225.21C83.6258 224.874 83.9571 224.613 84.3585 224.426C84.7691 224.23 85.2171 224.132 85.7025 224.132ZM92.6923 225.854V229.606C92.6923 229.867 92.753 230.059 92.8743 230.18C93.005 230.292 93.2197 230.348 93.5183 230.348H94.4283V232H93.1963C91.5443 232 90.7183 231.197 90.7183 229.592V225.854H89.7943V224.244H90.7183V222.326H92.6923V224.244H94.4283V225.854H92.6923ZM103.714 232L101.558 228.192H100.634V232H98.674V222.228H102.342C103.098 222.228 103.742 222.363 104.274 222.634C104.806 222.895 105.203 223.255 105.464 223.712C105.735 224.16 105.87 224.664 105.87 225.224C105.87 225.868 105.683 226.451 105.31 226.974C104.937 227.487 104.381 227.842 103.644 228.038L105.982 232H103.714ZM100.634 226.722H102.272C102.804 226.722 103.201 226.596 103.462 226.344C103.723 226.083 103.854 225.723 103.854 225.266C103.854 224.818 103.723 224.473 103.462 224.23C103.201 223.978 102.804 223.852 102.272 223.852H100.634V226.722ZM114.603 227.954C114.603 228.234 114.584 228.486 114.547 228.71H108.877C108.923 229.27 109.119 229.709 109.465 230.026C109.81 230.343 110.235 230.502 110.739 230.502C111.467 230.502 111.985 230.189 112.293 229.564H114.407C114.183 230.311 113.753 230.927 113.119 231.412C112.484 231.888 111.705 232.126 110.781 232.126C110.034 232.126 109.362 231.963 108.765 231.636C108.177 231.3 107.715 230.829 107.379 230.222C107.052 229.615 106.889 228.915 106.889 228.122C106.889 227.319 107.052 226.615 107.379 226.008C107.705 225.401 108.163 224.935 108.751 224.608C109.339 224.281 110.015 224.118 110.781 224.118C111.518 224.118 112.176 224.277 112.755 224.594C113.343 224.911 113.795 225.364 114.113 225.952C114.439 226.531 114.603 227.198 114.603 227.954ZM112.573 227.394C112.563 226.89 112.381 226.489 112.027 226.19C111.672 225.882 111.238 225.728 110.725 225.728C110.239 225.728 109.829 225.877 109.493 226.176C109.166 226.465 108.965 226.871 108.891 227.394H112.573ZM115.279 228.108C115.279 227.333 115.438 226.647 115.755 226.05C116.082 225.443 116.521 224.972 117.071 224.636C117.622 224.3 118.229 224.132 118.891 224.132C119.442 224.132 119.927 224.239 120.347 224.454C120.777 224.659 121.122 224.925 121.383 225.252V224.244H123.357V235.696H121.383V230.936C121.122 231.272 120.772 231.552 120.333 231.776C119.895 232 119.4 232.112 118.849 232.112C118.196 232.112 117.594 231.944 117.043 231.608C116.502 231.263 116.073 230.787 115.755 230.18C115.438 229.573 115.279 228.883 115.279 228.108ZM121.383 228.122C121.383 227.646 121.285 227.235 121.089 226.89C120.893 226.545 120.637 226.283 120.319 226.106C120.011 225.929 119.68 225.84 119.325 225.84C118.98 225.84 118.649 225.929 118.331 226.106C118.023 226.283 117.771 226.545 117.575 226.89C117.379 227.226 117.281 227.632 117.281 228.108C117.281 228.584 117.379 228.999 117.575 229.354C117.771 229.699 118.023 229.961 118.331 230.138C118.649 230.315 118.98 230.404 119.325 230.404C119.68 230.404 120.011 230.315 120.319 230.138C120.637 229.961 120.893 229.699 121.089 229.354C121.285 229.009 121.383 228.598 121.383 228.122ZM132.344 224.244V232H130.37V231.02C130.118 231.356 129.786 231.622 129.376 231.818C128.974 232.005 128.536 232.098 128.06 232.098C127.453 232.098 126.916 231.972 126.45 231.72C125.983 231.459 125.614 231.081 125.344 230.586C125.082 230.082 124.952 229.485 124.952 228.794V224.244H126.912V228.514C126.912 229.13 127.066 229.606 127.374 229.942C127.682 230.269 128.102 230.432 128.634 230.432C129.175 230.432 129.6 230.269 129.908 229.942C130.216 229.606 130.37 229.13 130.37 228.514V224.244H132.344ZM135.022 223.32C134.676 223.32 134.387 223.213 134.154 222.998C133.93 222.774 133.818 222.499 133.818 222.172C133.818 221.845 133.93 221.575 134.154 221.36C134.387 221.136 134.676 221.024 135.022 221.024C135.367 221.024 135.652 221.136 135.876 221.36C136.109 221.575 136.226 221.845 136.226 222.172C136.226 222.499 136.109 222.774 135.876 222.998C135.652 223.213 135.367 223.32 135.022 223.32ZM135.988 224.244V232H134.028V224.244H135.988ZM139.634 225.448C139.886 225.037 140.213 224.715 140.614 224.482C141.025 224.249 141.491 224.132 142.014 224.132V226.19H141.496C140.88 226.19 140.413 226.335 140.096 226.624C139.788 226.913 139.634 227.417 139.634 228.136V232H137.674V224.244H139.634V225.448ZM150.294 227.954C150.294 228.234 150.275 228.486 150.238 228.71H144.568C144.615 229.27 144.811 229.709 145.156 230.026C145.501 230.343 145.926 230.502 146.43 230.502C147.158 230.502 147.676 230.189 147.984 229.564H150.098C149.874 230.311 149.445 230.927 148.81 231.412C148.175 231.888 147.396 232.126 146.472 232.126C145.725 232.126 145.053 231.963 144.456 231.636C143.868 231.3 143.406 230.829 143.07 230.222C142.743 229.615 142.58 228.915 142.58 228.122C142.58 227.319 142.743 226.615 143.07 226.008C143.397 225.401 143.854 224.935 144.442 224.608C145.03 224.281 145.707 224.118 146.472 224.118C147.209 224.118 147.867 224.277 148.446 224.594C149.034 224.911 149.487 225.364 149.804 225.952C150.131 226.531 150.294 227.198 150.294 227.954ZM148.264 227.394C148.255 226.89 148.073 226.489 147.718 226.19C147.363 225.882 146.929 225.728 146.416 225.728C145.931 225.728 145.52 225.877 145.184 226.176C144.857 226.465 144.657 226.871 144.582 227.394H148.264ZM150.971 228.094C150.971 227.31 151.125 226.615 151.433 226.008C151.75 225.401 152.179 224.935 152.721 224.608C153.262 224.281 153.864 224.118 154.527 224.118C155.031 224.118 155.511 224.23 155.969 224.454C156.426 224.669 156.79 224.958 157.061 225.322V221.64H159.049V232H157.061V230.852C156.818 231.235 156.477 231.543 156.039 231.776C155.6 232.009 155.091 232.126 154.513 232.126C153.859 232.126 153.262 231.958 152.721 231.622C152.179 231.286 151.75 230.815 151.433 230.208C151.125 229.592 150.971 228.887 150.971 228.094ZM157.075 228.122C157.075 227.646 156.981 227.24 156.795 226.904C156.608 226.559 156.356 226.297 156.039 226.12C155.721 225.933 155.381 225.84 155.017 225.84C154.653 225.84 154.317 225.929 154.009 226.106C153.701 226.283 153.449 226.545 153.253 226.89C153.066 227.226 152.973 227.627 152.973 228.094C152.973 228.561 153.066 228.971 153.253 229.326C153.449 229.671 153.701 229.937 154.009 230.124C154.326 230.311 154.662 230.404 155.017 230.404C155.381 230.404 155.721 230.315 156.039 230.138C156.356 229.951 156.608 229.69 156.795 229.354C156.981 229.009 157.075 228.598 157.075 228.122Z" fill="#121212"/>
<path d="M330.343 232.84C331.623 231.773 332.643 230.887 333.403 230.18C334.163 229.46 334.797 228.713 335.303 227.94C335.81 227.167 336.063 226.407 336.063 225.66C336.063 224.98 335.903 224.447 335.583 224.06C335.263 223.673 334.77 223.48 334.103 223.48C333.437 223.48 332.923 223.707 332.563 224.16C332.203 224.6 332.017 225.207 332.003 225.98H329.283C329.337 224.38 329.81 223.167 330.703 222.34C331.61 221.513 332.757 221.1 334.143 221.1C335.663 221.1 336.83 221.507 337.643 222.32C338.457 223.12 338.863 224.18 338.863 225.5C338.863 226.54 338.583 227.533 338.023 228.48C337.463 229.427 336.823 230.253 336.103 230.96C335.383 231.653 334.443 232.493 333.283 233.48H339.183V235.8H329.303V233.72L330.343 232.84ZM343.688 231.9C343.794 232.487 344.034 232.94 344.408 233.26C344.794 233.567 345.308 233.72 345.948 233.72C346.774 233.72 347.374 233.38 347.748 232.7C348.121 232.007 348.308 230.847 348.308 229.22C348.001 229.647 347.568 229.98 347.008 230.22C346.461 230.46 345.868 230.58 345.228 230.58C344.374 230.58 343.601 230.407 342.908 230.06C342.228 229.7 341.688 229.173 341.288 228.48C340.888 227.773 340.688 226.92 340.688 225.92C340.688 224.44 341.128 223.267 342.008 222.4C342.888 221.52 344.088 221.08 345.608 221.08C347.501 221.08 348.834 221.687 349.608 222.9C350.394 224.113 350.788 225.94 350.788 228.38C350.788 230.113 350.634 231.533 350.328 232.64C350.034 233.747 349.521 234.587 348.788 235.16C348.068 235.733 347.081 236.02 345.828 236.02C344.841 236.02 344.001 235.833 343.308 235.46C342.614 235.073 342.081 234.573 341.708 233.96C341.348 233.333 341.141 232.647 341.088 231.9H343.688ZM345.808 228.3C346.501 228.3 347.048 228.087 347.448 227.66C347.848 227.233 348.048 226.66 348.048 225.94C348.048 225.153 347.834 224.547 347.408 224.12C346.994 223.68 346.428 223.46 345.708 223.46C344.988 223.46 344.414 223.687 343.988 224.14C343.574 224.58 343.368 225.167 343.368 225.9C343.368 226.607 343.568 227.187 343.968 227.64C344.381 228.08 344.994 228.3 345.808 228.3ZM352.467 228.52C352.467 226.213 352.881 224.407 353.707 223.1C354.547 221.793 355.934 221.14 357.867 221.14C359.801 221.14 361.181 221.793 362.007 223.1C362.847 224.407 363.267 226.213 363.267 228.52C363.267 230.84 362.847 232.66 362.007 233.98C361.181 235.3 359.801 235.96 357.867 235.96C355.934 235.96 354.547 235.3 353.707 233.98C352.881 232.66 352.467 230.84 352.467 228.52ZM360.507 228.52C360.507 227.533 360.441 226.707 360.307 226.04C360.187 225.36 359.934 224.807 359.547 224.38C359.174 223.953 358.614 223.74 357.867 223.74C357.121 223.74 356.554 223.953 356.167 224.38C355.794 224.807 355.541 225.36 355.407 226.04C355.287 226.707 355.227 227.533 355.227 228.52C355.227 229.533 355.287 230.387 355.407 231.08C355.527 231.76 355.781 232.313 356.167 232.74C356.554 233.153 357.121 233.36 357.867 233.36C358.614 233.36 359.181 233.153 359.567 232.74C359.954 232.313 360.207 231.76 360.327 231.08C360.447 230.387 360.507 229.533 360.507 228.52Z" fill="#121212"/>
<path d="M372.792 228.357C373.125 228.357 373.419 228.385 373.674 228.439L373.523 229.574C373.245 229.51 372.974 229.479 372.71 229.479C372.313 229.479 371.944 229.588 371.603 229.807C371.265 230.025 371.001 230.328 370.81 230.716C370.618 231.099 370.522 231.525 370.522 231.994V236H369.292V228.494H370.304L370.44 229.868H370.495C370.782 229.371 371.122 228.995 371.514 228.74C371.906 228.485 372.332 228.357 372.792 228.357ZM378.63 236.137C377.623 236.137 376.848 235.774 376.306 235.05H376.224L376.251 235.33C376.287 235.686 376.306 236.002 376.306 236.28V239.363H375.075V228.494H376.087L376.251 229.52H376.306C376.597 229.109 376.935 228.813 377.317 228.631C377.7 228.449 378.142 228.357 378.644 228.357C379.619 228.357 380.375 228.697 380.913 229.376C381.455 230.05 381.727 231.003 381.727 232.233C381.727 233.459 381.455 234.416 380.913 235.104C380.371 235.793 379.61 236.137 378.63 236.137ZM378.425 229.39C377.682 229.39 377.144 229.599 376.812 230.019C376.483 230.438 376.315 231.096 376.306 231.994V232.233C376.306 233.25 376.474 233.986 376.812 234.441C377.149 234.893 377.696 235.118 378.452 235.118C379.081 235.118 379.571 234.863 379.922 234.353C380.277 233.842 380.455 233.131 380.455 232.22C380.455 231.304 380.277 230.604 379.922 230.121C379.571 229.633 379.072 229.39 378.425 229.39ZM393.238 236V231.167C393.238 229.982 392.73 229.39 391.714 229.39C391.017 229.39 390.504 229.592 390.176 229.998C389.848 230.404 389.684 231.023 389.684 231.857V236H388.46V231.167C388.46 230.575 388.335 230.13 388.084 229.834C387.838 229.538 387.451 229.39 386.922 229.39C386.229 229.39 385.721 229.602 385.397 230.025C385.078 230.449 384.919 231.144 384.919 232.11V236H383.688V228.494H384.68L384.864 229.52H384.933C385.147 229.155 385.448 228.87 385.835 228.665C386.227 228.46 386.664 228.357 387.147 228.357C388.323 228.357 389.089 228.777 389.444 229.615H389.513C389.754 229.214 390.082 228.904 390.497 228.686C390.916 228.467 391.39 228.357 391.919 228.357C392.767 228.357 393.4 228.576 393.819 229.014C394.243 229.451 394.455 230.151 394.455 231.112V236H393.238Z" fill="#595959"/>
<path d="M30.344 125.872C30.184 125.2 29.904 124.696 29.504 124.36C29.12 124.024 28.56 123.856 27.824 123.856C26.72 123.856 25.904 124.304 25.376 125.2C24.864 126.08 24.6 127.52 24.584 129.52C24.968 128.88 25.528 128.384 26.264 128.032C27 127.664 27.8 127.48 28.664 127.48C29.704 127.48 30.624 127.704 31.424 128.152C32.224 128.6 32.848 129.256 33.296 130.12C33.744 130.968 33.968 131.992 33.968 133.192C33.968 134.328 33.736 135.344 33.272 136.24C32.824 137.12 32.16 137.808 31.28 138.304C30.4 138.8 29.352 139.048 28.136 139.048C26.472 139.048 25.16 138.68 24.2 137.944C23.256 137.208 22.592 136.184 22.208 134.872C21.84 133.544 21.656 131.912 21.656 129.976C21.656 127.048 22.16 124.84 23.168 123.352C24.176 121.848 25.768 121.096 27.944 121.096C29.624 121.096 30.928 121.552 31.856 122.464C32.784 123.376 33.32 124.512 33.464 125.872H30.344ZM27.896 130.24C27.048 130.24 26.336 130.488 25.76 130.984C25.184 131.48 24.896 132.2 24.896 133.144C24.896 134.088 25.16 134.832 25.688 135.376C26.232 135.92 26.992 136.192 27.968 136.192C28.832 136.192 29.512 135.928 30.008 135.4C30.52 134.872 30.776 134.16 30.776 133.264C30.776 132.336 30.528 131.6 30.032 131.056C29.552 130.512 28.84 130.24 27.896 130.24ZM47.8836 124.408H40.1076V128.512C40.4436 128.096 40.9236 127.76 41.5476 127.504C42.1716 127.232 42.8356 127.096 43.5396 127.096C44.8196 127.096 45.8676 127.376 46.6836 127.936C47.4996 128.496 48.0916 129.216 48.4596 130.096C48.8276 130.96 49.0116 131.888 49.0116 132.88C49.0116 134.72 48.4836 136.2 47.4276 137.32C46.3876 138.44 44.8996 139 42.9636 139C41.1396 139 39.6836 138.544 38.5956 137.632C37.5076 136.72 36.8916 135.528 36.7476 134.056H40.0116C40.1556 134.696 40.4756 135.208 40.9716 135.592C41.4836 135.976 42.1316 136.168 42.9156 136.168C43.8596 136.168 44.5716 135.872 45.0516 135.28C45.5316 134.688 45.7716 133.904 45.7716 132.928C45.7716 131.936 45.5236 131.184 45.0276 130.672C44.5476 130.144 43.8356 129.88 42.8916 129.88C42.2196 129.88 41.6596 130.048 41.2116 130.384C40.7636 130.72 40.4436 131.168 40.2516 131.728H37.0356V121.456H47.8836V124.408ZM50.9249 135.592V132.952L58.7729 121.72H62.6849V132.664H64.7969V135.592H62.6849V139H59.3249V135.592H50.9249ZM59.5409 125.32L54.6209 132.664H59.5409V125.32ZM66.4361 130.024C66.4361 127.256 66.9321 125.088 67.9241 123.52C68.9321 121.952 70.5961 121.168 72.9161 121.168C75.2361 121.168 76.8921 121.952 77.8841 123.52C78.8921 125.088 79.3961 127.256 79.3961 130.024C79.3961 132.808 78.8921 134.992 77.8841 136.576C76.8921 138.16 75.2361 138.952 72.9161 138.952C70.5961 138.952 68.9321 138.16 67.9241 136.576C66.9321 134.992 66.4361 132.808 66.4361 130.024ZM76.0841 130.024C76.0841 128.84 76.0041 127.848 75.8441 127.048C75.7001 126.232 75.3961 125.568 74.9321 125.056C74.4841 124.544 73.8121 124.288 72.9161 124.288C72.0201 124.288 71.3401 124.544 70.8761 125.056C70.4281 125.568 70.1241 126.232 69.9641 127.048C69.8201 127.848 69.7481 128.84 69.7481 130.024C69.7481 131.24 69.8201 132.264 69.9641 133.096C70.1081 133.912 70.4121 134.576 70.8761 135.088C71.3401 135.584 72.0201 135.832 72.9161 135.832C73.8121 135.832 74.4921 135.584 74.9561 135.088C75.4201 134.576 75.7241 133.912 75.8681 133.096C76.0121 132.264 76.0841 131.24 76.0841 130.024Z" fill="#121212"/>
<path d="M90.7578 130.266C91.138 130.266 91.474 130.297 91.7656 130.359L91.5938 131.656C91.276 131.583 90.9661 131.547 90.6641 131.547C90.2109 131.547 89.7891 131.672 89.3984 131.922C89.013 132.172 88.7109 132.518 88.4922 132.961C88.2734 133.398 88.1641 133.885 88.1641 134.422V139H86.7578V130.422H87.9141L88.0703 131.992H88.1328C88.4609 131.424 88.849 130.995 89.2969 130.703C89.7448 130.411 90.2318 130.266 90.7578 130.266ZM97.4297 139.156C96.2786 139.156 95.3932 138.742 94.7734 137.914H94.6797L94.7109 138.234C94.7526 138.641 94.7734 139.003 94.7734 139.32V142.844H93.3672V130.422H94.5234L94.7109 131.594H94.7734C95.1068 131.125 95.4922 130.786 95.9297 130.578C96.3672 130.37 96.8724 130.266 97.4453 130.266C98.5599 130.266 99.4245 130.654 100.039 131.43C100.659 132.201 100.969 133.289 100.969 134.695C100.969 136.096 100.659 137.19 100.039 137.977C99.4193 138.763 98.5495 139.156 97.4297 139.156ZM97.1953 131.445C96.3464 131.445 95.7318 131.685 95.3516 132.164C94.9766 132.643 94.7839 133.396 94.7734 134.422V134.695C94.7734 135.857 94.9661 136.698 95.3516 137.219C95.737 137.734 96.362 137.992 97.2266 137.992C97.9453 137.992 98.5052 137.701 98.9062 137.117C99.3125 136.534 99.5156 135.721 99.5156 134.68C99.5156 133.633 99.3125 132.833 98.9062 132.281C98.5052 131.724 97.9349 131.445 97.1953 131.445ZM114.125 139V133.477C114.125 132.122 113.544 131.445 112.383 131.445C111.586 131.445 111 131.677 110.625 132.141C110.25 132.604 110.062 133.312 110.062 134.266V139H108.664V133.477C108.664 132.799 108.521 132.292 108.234 131.953C107.953 131.615 107.51 131.445 106.906 131.445C106.115 131.445 105.534 131.688 105.164 132.172C104.799 132.656 104.617 133.451 104.617 134.555V139H103.211V130.422H104.344L104.555 131.594H104.633C104.878 131.177 105.221 130.852 105.664 130.617C106.112 130.383 106.612 130.266 107.164 130.266C108.508 130.266 109.383 130.745 109.789 131.703H109.867C110.143 131.245 110.518 130.891 110.992 130.641C111.471 130.391 112.013 130.266 112.617 130.266C113.586 130.266 114.31 130.516 114.789 131.016C115.273 131.516 115.516 132.315 115.516 133.414V139H114.125Z" fill="#595959"/>
<path d="M307.344 125.872C307.184 125.2 306.904 124.696 306.504 124.36C306.12 124.024 305.56 123.856 304.824 123.856C303.72 123.856 302.904 124.304 302.376 125.2C301.864 126.08 301.6 127.52 301.584 129.52C301.968 128.88 302.528 128.384 303.264 128.032C304 127.664 304.8 127.48 305.664 127.48C306.704 127.48 307.624 127.704 308.424 128.152C309.224 128.6 309.848 129.256 310.296 130.12C310.744 130.968 310.968 131.992 310.968 133.192C310.968 134.328 310.736 135.344 310.272 136.24C309.824 137.12 309.16 137.808 308.28 138.304C307.4 138.8 306.352 139.048 305.136 139.048C303.472 139.048 302.16 138.68 301.2 137.944C300.256 137.208 299.592 136.184 299.208 134.872C298.84 133.544 298.656 131.912 298.656 129.976C298.656 127.048 299.16 124.84 300.168 123.352C301.176 121.848 302.768 121.096 304.944 121.096C306.624 121.096 307.928 121.552 308.856 122.464C309.784 123.376 310.32 124.512 310.464 125.872H307.344ZM304.896 130.24C304.048 130.24 303.336 130.488 302.76 130.984C302.184 131.48 301.896 132.2 301.896 133.144C301.896 134.088 302.16 134.832 302.688 135.376C303.232 135.92 303.992 136.192 304.968 136.192C305.832 136.192 306.512 135.928 307.008 135.4C307.52 134.872 307.776 134.16 307.776 133.264C307.776 132.336 307.528 131.6 307.032 131.056C306.552 130.512 305.84 130.24 304.896 130.24ZM314.18 135.208C315.716 133.928 316.94 132.864 317.852 132.016C318.764 131.152 319.524 130.256 320.132 129.328C320.74 128.4 321.044 127.488 321.044 126.592C321.044 125.776 320.852 125.136 320.468 124.672C320.084 124.208 319.492 123.976 318.692 123.976C317.892 123.976 317.276 124.248 316.844 124.792C316.412 125.32 316.188 126.048 316.172 126.976H312.908C312.972 125.056 313.54 123.6 314.612 122.608C315.7 121.616 317.076 121.12 318.74 121.12C320.564 121.12 321.964 121.608 322.94 122.584C323.916 123.544 324.404 124.816 324.404 126.4C324.404 127.648 324.068 128.84 323.396 129.976C322.724 131.112 321.956 132.104 321.092 132.952C320.228 133.784 319.1 134.792 317.708 135.976H324.788V138.76H312.932V136.264L314.18 135.208ZM338.165 124.408H330.389V128.512C330.725 128.096 331.205 127.76 331.829 127.504C332.453 127.232 333.117 127.096 333.821 127.096C335.101 127.096 336.149 127.376 336.965 127.936C337.781 128.496 338.373 129.216 338.741 130.096C339.109 130.96 339.293 131.888 339.293 132.88C339.293 134.72 338.765 136.2 337.709 137.32C336.669 138.44 335.181 139 333.245 139C331.421 139 329.965 138.544 328.877 137.632C327.789 136.72 327.173 135.528 327.029 134.056H330.293C330.437 134.696 330.757 135.208 331.253 135.592C331.765 135.976 332.413 136.168 333.197 136.168C334.141 136.168 334.853 135.872 335.333 135.28C335.813 134.688 336.053 133.904 336.053 132.928C336.053 131.936 335.805 131.184 335.309 130.672C334.829 130.144 334.117 129.88 333.173 129.88C332.501 129.88 331.941 130.048 331.493 130.384C331.045 130.72 330.725 131.168 330.533 131.728H327.317V121.456H338.165V124.408ZM341.35 130.024C341.35 127.256 341.846 125.088 342.838 123.52C343.846 121.952 345.51 121.168 347.83 121.168C350.15 121.168 351.806 121.952 352.798 123.52C353.806 125.088 354.31 127.256 354.31 130.024C354.31 132.808 353.806 134.992 352.798 136.576C351.806 138.16 350.15 138.952 347.83 138.952C345.51 138.952 343.846 138.16 342.838 136.576C341.846 134.992 341.35 132.808 341.35 130.024ZM350.998 130.024C350.998 128.84 350.918 127.848 350.758 127.048C350.614 126.232 350.31 125.568 349.846 125.056C349.398 124.544 348.726 124.288 347.83 124.288C346.934 124.288 346.254 124.544 345.79 125.056C345.342 125.568 345.038 126.232 344.878 127.048C344.734 127.848 344.662 128.84 344.662 130.024C344.662 131.24 344.734 132.264 344.878 133.096C345.022 133.912 345.326 134.576 345.79 135.088C346.254 135.584 346.934 135.832 347.83 135.832C348.726 135.832 349.406 135.584 349.87 135.088C350.334 134.576 350.638 133.912 350.782 133.096C350.926 132.264 350.998 131.24 350.998 130.024Z" fill="#121212"/>
<path d="M365.672 130.266C366.052 130.266 366.388 130.297 366.68 130.359L366.508 131.656C366.19 131.583 365.88 131.547 365.578 131.547C365.125 131.547 364.703 131.672 364.312 131.922C363.927 132.172 363.625 132.518 363.406 132.961C363.188 133.398 363.078 133.885 363.078 134.422V139H361.672V130.422H362.828L362.984 131.992H363.047C363.375 131.424 363.763 130.995 364.211 130.703C364.659 130.411 365.146 130.266 365.672 130.266ZM372.344 139.156C371.193 139.156 370.307 138.742 369.688 137.914H369.594L369.625 138.234C369.667 138.641 369.688 139.003 369.688 139.32V142.844H368.281V130.422H369.438L369.625 131.594H369.688C370.021 131.125 370.406 130.786 370.844 130.578C371.281 130.37 371.786 130.266 372.359 130.266C373.474 130.266 374.339 130.654 374.953 131.43C375.573 132.201 375.883 133.289 375.883 134.695C375.883 136.096 375.573 137.19 374.953 137.977C374.333 138.763 373.464 139.156 372.344 139.156ZM372.109 131.445C371.26 131.445 370.646 131.685 370.266 132.164C369.891 132.643 369.698 133.396 369.688 134.422V134.695C369.688 135.857 369.88 136.698 370.266 137.219C370.651 137.734 371.276 137.992 372.141 137.992C372.859 137.992 373.419 137.701 373.82 137.117C374.227 136.534 374.43 135.721 374.43 134.68C374.43 133.633 374.227 132.833 373.82 132.281C373.419 131.724 372.849 131.445 372.109 131.445ZM389.039 139V133.477C389.039 132.122 388.458 131.445 387.297 131.445C386.5 131.445 385.914 131.677 385.539 132.141C385.164 132.604 384.977 133.312 384.977 134.266V139H383.578V133.477C383.578 132.799 383.435 132.292 383.148 131.953C382.867 131.615 382.424 131.445 381.82 131.445C381.029 131.445 380.448 131.688 380.078 132.172C379.714 132.656 379.531 133.451 379.531 134.555V139H378.125V130.422H379.258L379.469 131.594H379.547C379.792 131.177 380.135 130.852 380.578 130.617C381.026 130.383 381.526 130.266 382.078 130.266C383.422 130.266 384.297 130.745 384.703 131.703H384.781C385.057 131.245 385.432 130.891 385.906 130.641C386.385 130.391 386.927 130.266 387.531 130.266C388.5 130.266 389.224 130.516 389.703 131.016C390.188 131.516 390.43 132.315 390.43 133.414V139H389.039Z" fill="#595959"/>
<path d="M27.6289 96L26.4258 92.9033H22.4609L21.2715 96H20L23.9033 85.9648H25.0381L28.9346 96H27.6289ZM26.0498 91.7891L24.9287 88.7607L24.4502 87.2637C24.3135 87.8105 24.1699 88.3096 24.0195 88.7607L22.8848 91.7891H26.0498ZM33.1523 96.1367C32.0723 96.1367 31.2314 95.8063 30.6299 95.1455C30.0283 94.4801 29.7275 93.5277 29.7275 92.2881C29.7275 91.0303 30.0306 90.0618 30.6367 89.3828C31.2474 88.6992 32.1156 88.3574 33.2412 88.3574C33.6058 88.3574 33.9658 88.3962 34.3213 88.4736C34.6813 88.5465 34.9775 88.6423 35.21 88.7607L34.834 89.7861C34.2005 89.5492 33.6605 89.4307 33.2139 89.4307C32.4574 89.4307 31.8991 89.6699 31.5391 90.1484C31.179 90.6224 30.999 91.3311 30.999 92.2744C30.999 93.1813 31.179 93.8763 31.5391 94.3594C31.8991 94.8379 32.4323 95.0771 33.1387 95.0771C33.7995 95.0771 34.4489 94.9313 35.0869 94.6396V95.7334C34.5674 96.0023 33.9225 96.1367 33.1523 96.1367ZM39.3799 95.1318C39.5394 95.1318 39.7262 95.1159 39.9404 95.084C40.1546 95.0521 40.3164 95.0156 40.4258 94.9746V95.918C40.3118 95.9681 40.1341 96.016 39.8926 96.0615C39.6556 96.1117 39.4141 96.1367 39.168 96.1367C37.7005 96.1367 36.9668 95.3643 36.9668 93.8193V89.4512H35.9072V88.8633L36.9805 88.3711L37.4727 86.7715H38.2041V88.4941H40.3711V89.4512H38.2041V93.7852C38.2041 94.2181 38.3066 94.5508 38.5117 94.7832C38.7214 95.0156 39.0107 95.1318 39.3799 95.1318ZM43.0918 88.4941V93.3271C43.0918 93.9333 43.2262 94.3844 43.4951 94.6807C43.7686 94.9723 44.1901 95.1182 44.7598 95.1182C45.5299 95.1182 46.0905 94.904 46.4414 94.4756C46.7923 94.0472 46.9678 93.3568 46.9678 92.4043V88.4941H48.2051V96H47.1934L47.0156 95.0088H46.9541C46.7308 95.3688 46.4141 95.6468 46.0039 95.8428C45.5938 96.0387 45.1175 96.1367 44.5752 96.1367C43.6729 96.1367 42.9915 95.9202 42.5312 95.4873C42.0755 95.0544 41.8477 94.3617 41.8477 93.4092V88.4941H43.0918ZM55.2188 96L54.9795 94.9336H54.9248C54.5511 95.403 54.1774 95.722 53.8037 95.8906C53.4346 96.0547 52.9674 96.1367 52.4023 96.1367C51.6641 96.1367 51.0853 95.943 50.666 95.5557C50.2467 95.1683 50.0371 94.6214 50.0371 93.915C50.0371 92.3929 51.238 91.5954 53.6396 91.5225L54.9111 91.4746V91.0303C54.9111 90.4606 54.7881 90.0413 54.542 89.7725C54.2959 89.499 53.9017 89.3623 53.3594 89.3623C52.9629 89.3623 52.5869 89.4215 52.2314 89.54C51.8805 89.6585 51.5501 89.7907 51.2402 89.9365L50.8643 89.0137C51.2425 88.8132 51.6549 88.6559 52.1016 88.542C52.5482 88.4281 52.9902 88.3711 53.4277 88.3711C54.3346 88.3711 55.0091 88.5716 55.4512 88.9727C55.8932 89.3737 56.1143 90.0117 56.1143 90.8867V96H55.2188ZM52.6826 95.1455C53.3708 95.1455 53.9108 94.9609 54.3027 94.5918C54.6992 94.2181 54.8975 93.6895 54.8975 93.0059V92.3291L53.79 92.377C52.9287 92.4089 52.2998 92.5456 51.9033 92.7871C51.5114 93.0286 51.3154 93.4092 51.3154 93.9287C51.3154 94.3206 51.4339 94.6214 51.6709 94.8311C51.9124 95.0407 52.2497 95.1455 52.6826 95.1455ZM59.6758 96H58.4453V85.3633H59.6758V96Z" fill="#595959"/>
<path d="M306.027 93.3271C306.027 94.1976 305.713 94.8835 305.084 95.3848C304.455 95.8861 303.58 96.1367 302.459 96.1367C301.274 96.1367 300.358 95.9795 299.711 95.665V94.4619C300.135 94.6442 300.597 94.7878 301.099 94.8926C301.604 94.9974 302.076 95.0498 302.514 95.0498C303.261 95.0498 303.824 94.9062 304.202 94.6191C304.58 94.332 304.77 93.9378 304.77 93.4365C304.77 93.1038 304.701 92.8304 304.564 92.6162C304.428 92.402 304.198 92.2015 303.874 92.0146C303.555 91.8278 303.07 91.6159 302.418 91.3789C301.493 91.0417 300.832 90.6452 300.436 90.1895C300.039 89.7292 299.841 89.1367 299.841 88.4121C299.841 87.6328 300.132 87.013 300.716 86.5527C301.304 86.0924 302.076 85.8623 303.033 85.8623C304.031 85.8623 304.95 86.0492 305.788 86.4229L305.398 87.5029C304.542 87.1475 303.744 86.9697 303.006 86.9697C302.413 86.9697 301.949 87.0973 301.611 87.3525C301.279 87.6077 301.112 87.9655 301.112 88.4258C301.112 88.7539 301.176 89.0273 301.304 89.2461C301.436 89.4603 301.646 89.6562 301.933 89.834C302.224 90.0117 302.68 90.2145 303.3 90.4424C304.043 90.7158 304.596 90.9824 304.961 91.2422C305.326 91.4974 305.594 91.7936 305.768 92.1309C305.941 92.4635 306.027 92.8623 306.027 93.3271ZM309.035 88.4941V93.3271C309.035 93.9333 309.17 94.3844 309.438 94.6807C309.712 94.9723 310.133 95.1182 310.703 95.1182C311.473 95.1182 312.034 94.904 312.385 94.4756C312.736 94.0472 312.911 93.3568 312.911 92.4043V88.4941H314.148V96H313.137L312.959 95.0088H312.897C312.674 95.3688 312.357 95.6468 311.947 95.8428C311.537 96.0387 311.061 96.1367 310.519 96.1367C309.616 96.1367 308.935 95.9202 308.475 95.4873C308.019 95.0544 307.791 94.3617 307.791 93.4092V88.4941H309.035ZM319.385 95.1318C320.141 95.1318 320.69 94.929 321.032 94.5234C321.379 94.1133 321.552 93.457 321.552 92.5547V92.2607C321.552 91.2581 321.379 90.529 321.032 90.0732C320.686 89.6175 320.128 89.3896 319.357 89.3896C318.729 89.3896 318.241 89.6403 317.895 90.1416C317.553 90.6383 317.382 91.3493 317.382 92.2744C317.382 93.2041 317.548 93.9128 317.881 94.4004C318.218 94.888 318.719 95.1318 319.385 95.1318ZM321.538 95.9316L321.579 95.0088H321.524C321.019 95.7607 320.244 96.1367 319.2 96.1367C318.229 96.1367 317.471 95.7995 316.924 95.125C316.382 94.446 316.11 93.4912 316.11 92.2607C316.11 91.0531 316.384 90.1006 316.931 89.4033C317.482 88.7061 318.234 88.3574 319.187 88.3574C320.203 88.3574 320.987 88.7357 321.538 89.4922H321.613L321.777 88.4941H322.755V96.123C322.755 97.1986 322.481 98.0075 321.935 98.5498C321.392 99.0921 320.547 99.3633 319.398 99.3633C318.305 99.3633 317.405 99.2038 316.698 98.8848V97.75C317.427 98.1419 318.35 98.3379 319.467 98.3379C320.105 98.3379 320.608 98.151 320.978 97.7773C321.351 97.4036 321.538 96.8864 321.538 96.2256V95.9316ZM327.998 95.1318C328.755 95.1318 329.304 94.929 329.646 94.5234C329.992 94.1133 330.165 93.457 330.165 92.5547V92.2607C330.165 91.2581 329.992 90.529 329.646 90.0732C329.299 89.6175 328.741 89.3896 327.971 89.3896C327.342 89.3896 326.854 89.6403 326.508 90.1416C326.166 90.6383 325.995 91.3493 325.995 92.2744C325.995 93.2041 326.161 93.9128 326.494 94.4004C326.831 94.888 327.333 95.1318 327.998 95.1318ZM330.151 95.9316L330.192 95.0088H330.138C329.632 95.7607 328.857 96.1367 327.813 96.1367C326.843 96.1367 326.084 95.7995 325.537 95.125C324.995 94.446 324.724 93.4912 324.724 92.2607C324.724 91.0531 324.997 90.1006 325.544 89.4033C326.095 88.7061 326.847 88.3574 327.8 88.3574C328.816 88.3574 329.6 88.7357 330.151 89.4922H330.227L330.391 88.4941H331.368V96.123C331.368 97.1986 331.095 98.0075 330.548 98.5498C330.006 99.0921 329.16 99.3633 328.012 99.3633C326.918 99.3633 326.018 99.2038 325.312 98.8848V97.75C326.041 98.1419 326.964 98.3379 328.08 98.3379C328.718 98.3379 329.222 98.151 329.591 97.7773C329.965 97.4036 330.151 96.8864 330.151 96.2256V95.9316ZM336.946 96.1367C335.821 96.1367 334.937 95.7972 334.294 95.1182C333.656 94.4346 333.337 93.4958 333.337 92.3018C333.337 91.0986 333.635 90.1416 334.232 89.4307C334.829 88.7152 335.636 88.3574 336.652 88.3574C337.596 88.3574 338.348 88.6628 338.908 89.2734C339.469 89.8796 339.749 90.7021 339.749 91.7412V92.4863H334.608C334.631 93.3385 334.848 93.9857 335.258 94.4277C335.668 94.8698 336.249 95.0908 337.001 95.0908C337.402 95.0908 337.783 95.0566 338.143 94.9883C338.503 94.9154 338.924 94.7764 339.407 94.5713V95.6514C338.993 95.8291 338.603 95.9544 338.238 96.0273C337.874 96.1003 337.443 96.1367 336.946 96.1367ZM336.639 89.3623C336.051 89.3623 335.586 89.5514 335.244 89.9297C334.902 90.3079 334.7 90.8343 334.636 91.5088H338.457C338.448 90.807 338.286 90.2738 337.972 89.9092C337.657 89.5446 337.213 89.3623 336.639 89.3623ZM346.544 93.9287C346.544 94.6305 346.282 95.1751 345.758 95.5625C345.234 95.9453 344.498 96.1367 343.55 96.1367C342.561 96.1367 341.775 95.9795 341.191 95.665V94.5439C342.016 94.945 342.812 95.1455 343.577 95.1455C344.197 95.1455 344.648 95.0452 344.931 94.8447C345.213 94.6442 345.354 94.3753 345.354 94.0381C345.354 93.7419 345.218 93.4912 344.944 93.2861C344.675 93.0811 344.195 92.8464 343.502 92.582C342.796 92.3086 342.299 92.0762 342.012 91.8848C341.725 91.6888 341.513 91.4701 341.376 91.2285C341.244 90.987 341.178 90.693 341.178 90.3467C341.178 89.7314 341.428 89.2461 341.93 88.8906C342.431 88.5352 343.119 88.3574 343.994 88.3574C344.846 88.3574 345.644 88.526 346.387 88.8633L345.97 89.8408C345.209 89.5218 344.523 89.3623 343.912 89.3623C343.402 89.3623 343.014 89.4443 342.75 89.6084C342.486 89.7679 342.354 89.9889 342.354 90.2715C342.354 90.5449 342.467 90.7728 342.695 90.9551C342.923 91.1328 343.454 91.3812 344.288 91.7002C344.912 91.9326 345.373 92.1491 345.669 92.3496C345.97 92.5501 346.191 92.7757 346.332 93.0264C346.473 93.277 346.544 93.5778 346.544 93.9287ZM350.878 95.1318C351.037 95.1318 351.224 95.1159 351.438 95.084C351.653 95.0521 351.814 95.0156 351.924 94.9746V95.918C351.81 95.9681 351.632 96.016 351.391 96.0615C351.154 96.1117 350.912 96.1367 350.666 96.1367C349.199 96.1367 348.465 95.3643 348.465 93.8193V89.4512H347.405V88.8633L348.479 88.3711L348.971 86.7715H349.702V88.4941H351.869V89.4512H349.702V93.7852C349.702 94.2181 349.805 94.5508 350.01 94.7832C350.219 95.0156 350.509 95.1318 350.878 95.1318ZM356.62 96.1367C355.494 96.1367 354.61 95.7972 353.968 95.1182C353.33 94.4346 353.011 93.4958 353.011 92.3018C353.011 91.0986 353.309 90.1416 353.906 89.4307C354.503 88.7152 355.31 88.3574 356.326 88.3574C357.27 88.3574 358.021 88.6628 358.582 89.2734C359.143 89.8796 359.423 90.7021 359.423 91.7412V92.4863H354.282C354.305 93.3385 354.521 93.9857 354.932 94.4277C355.342 94.8698 355.923 95.0908 356.675 95.0908C357.076 95.0908 357.456 95.0566 357.816 94.9883C358.176 94.9154 358.598 94.7764 359.081 94.5713V95.6514C358.666 95.8291 358.277 95.9544 357.912 96.0273C357.548 96.1003 357.117 96.1367 356.62 96.1367ZM356.312 89.3623C355.725 89.3623 355.26 89.5514 354.918 89.9297C354.576 90.3079 354.373 90.8343 354.31 91.5088H358.131C358.122 90.807 357.96 90.2738 357.646 89.9092C357.331 89.5446 356.887 89.3623 356.312 89.3623ZM363.989 96.1367C363.014 96.1367 362.257 95.7995 361.72 95.125C361.182 94.4505 360.913 93.4958 360.913 92.2607C360.913 91.0348 361.182 90.0778 361.72 89.3896C362.262 88.7015 363.023 88.3574 364.003 88.3574C365.01 88.3574 365.785 88.7266 366.327 89.4648H366.416C366.402 89.3737 366.384 89.1914 366.361 88.918C366.339 88.64 366.327 88.4531 366.327 88.3574V85.3633H367.558V96H366.566L366.382 94.9951H366.327C365.803 95.7562 365.024 96.1367 363.989 96.1367ZM364.188 95.1182C364.935 95.1182 365.479 94.9154 365.821 94.5098C366.168 94.0996 366.341 93.4297 366.341 92.5V92.2744C366.341 91.2308 366.165 90.488 365.814 90.0459C365.468 89.5993 364.921 89.376 364.174 89.376C363.54 89.376 363.05 89.6289 362.704 90.1348C362.358 90.6361 362.185 91.3538 362.185 92.2881C362.185 93.2178 362.355 93.9219 362.697 94.4004C363.044 94.8789 363.54 95.1182 364.188 95.1182Z" fill="#595959"/>
<rect x="283" y="217" width="34" height="20" rx="4" fill="#EFFCF6"/>
<path d="M303 222.5L304.718 224.217L301.057 227.878L298.057 224.878L292.5 230.443L293.558 231.5L298.057 227L301.057 230L305.782 225.283L307.5 227V222.5H303Z" fill="#02A783"/>
</svg>
