<svg width="426" height="265" viewBox="0 0 426 265" fill="none" xmlns="http://www.w3.org/2000/svg">
<rect width="426" height="265" fill="#F5F5F5"/>
<rect x="-13545" y="-5378" width="23840" height="13376" fill="#F8FAF9"/>
<rect x="1" width="425" height="265" rx="4" fill="white"/>
<g clip-path="url(#clip0_0_1)">
<path d="M32.8047 59.0898C32.8047 59.5 32.7832 59.9102 32.7402 60.3203C32.7012 60.7266 32.6289 61.1152 32.5234 61.4863C32.4219 61.8574 32.2812 62.2051 32.1016 62.5293C31.9219 62.8496 31.6934 63.127 31.416 63.3613C31.1387 63.5957 30.8066 63.7812 30.4199 63.918C30.0332 64.0508 29.5801 64.1172 29.0605 64.1172C28.9863 64.1172 28.9043 64.1152 28.8145 64.1113C28.7246 64.1074 28.6348 64.0996 28.5449 64.0879C28.4551 64.0801 28.3672 64.0703 28.2812 64.0586C28.1953 64.0469 28.1191 64.0312 28.0527 64.0117V63.0977C28.1895 63.1484 28.3438 63.1855 28.5156 63.209C28.6875 63.2324 28.8574 63.2441 29.0254 63.2441C29.5527 63.2441 29.9863 63.1523 30.3262 62.9688C30.666 62.7852 30.9355 62.5371 31.1348 62.2246C31.334 61.9082 31.4746 61.541 31.5566 61.123C31.6426 60.7051 31.6953 60.2637 31.7148 59.7988H31.6387C31.5605 59.9395 31.4668 60.0703 31.3574 60.1914C31.248 60.3125 31.1191 60.418 30.9707 60.5078C30.8223 60.5977 30.6543 60.668 30.4668 60.7188C30.2793 60.7695 30.0703 60.7949 29.8398 60.7949C29.4688 60.7949 29.1328 60.7383 28.832 60.625C28.5312 60.5078 28.2754 60.3379 28.0645 60.1152C27.8535 59.8926 27.6895 59.6211 27.5723 59.3008C27.459 58.9766 27.4023 58.6074 27.4023 58.1934C27.4023 57.748 27.4629 57.3477 27.584 56.9922C27.709 56.6328 27.8828 56.3301 28.1055 56.084C28.332 55.834 28.6055 55.6426 28.9258 55.5098C29.25 55.377 29.6113 55.3105 30.0098 55.3105C30.4043 55.3105 30.7715 55.3867 31.1113 55.5391C31.4512 55.6914 31.7461 55.9238 31.9961 56.2363C32.2461 56.5488 32.4434 56.9434 32.5879 57.4199C32.7324 57.8926 32.8047 58.4492 32.8047 59.0898ZM30.0215 56.2129C29.7871 56.2129 29.5723 56.252 29.377 56.3301C29.1855 56.4082 29.0195 56.5293 28.8789 56.6934C28.7383 56.8574 28.6289 57.0645 28.5508 57.3145C28.4766 57.5605 28.4395 57.8535 28.4395 58.1934C28.4395 58.4668 28.4707 58.7129 28.5332 58.9316C28.5996 59.1465 28.6973 59.3301 28.8262 59.4824C28.9551 59.6348 29.1152 59.752 29.3066 59.834C29.502 59.916 29.7285 59.957 29.9863 59.957C30.252 59.957 30.4922 59.9121 30.707 59.8223C30.9219 59.7285 31.1055 59.6094 31.2578 59.4648C31.4102 59.3164 31.5273 59.1484 31.6094 58.9609C31.6953 58.7734 31.7383 58.5859 31.7383 58.3984C31.7383 58.1367 31.7012 57.877 31.627 57.6191C31.5566 57.3574 31.4492 57.123 31.3047 56.916C31.1641 56.7051 30.9863 56.5352 30.7715 56.4062C30.5566 56.2773 30.3066 56.2129 30.0215 56.2129ZM39.4375 59.7051C39.4375 60.3965 39.3867 61.0156 39.2852 61.5625C39.1875 62.1094 39.0273 62.5723 38.8047 62.9512C38.5859 63.3301 38.3027 63.6191 37.9551 63.8184C37.6074 64.0176 37.1855 64.1172 36.6895 64.1172C36.2285 64.1172 35.8262 64.0176 35.4824 63.8184C35.1426 63.6191 34.8594 63.3301 34.6328 62.9512C34.4102 62.5723 34.2422 62.1094 34.1289 61.5625C34.0195 61.0156 33.9648 60.3965 33.9648 59.7051C33.9648 59.0137 34.0137 58.3945 34.1113 57.8477C34.2129 57.3008 34.3711 56.8398 34.5859 56.4648C34.8047 56.0859 35.0859 55.7969 35.4297 55.5977C35.7773 55.3984 36.1973 55.2988 36.6895 55.2988C37.1543 55.2988 37.5586 55.3984 37.9023 55.5977C38.2461 55.793 38.5312 56.0801 38.7578 56.459C38.9844 56.834 39.1543 57.2949 39.2676 57.8418C39.3809 58.3887 39.4375 59.0098 39.4375 59.7051ZM35.0488 59.7051C35.0488 60.291 35.0781 60.8027 35.1367 61.2402C35.1953 61.6777 35.2891 62.043 35.418 62.3359C35.5469 62.625 35.7148 62.8438 35.9219 62.9922C36.1328 63.1367 36.3887 63.209 36.6895 63.209C36.9902 63.209 37.2461 63.1367 37.457 62.9922C37.668 62.8477 37.8398 62.6309 37.9727 62.3418C38.1094 62.0527 38.207 61.6895 38.2656 61.252C38.3281 60.8105 38.3594 60.2949 38.3594 59.7051C38.3594 59.1191 38.3281 58.6074 38.2656 58.1699C38.207 57.7324 38.1094 57.3691 37.9727 57.0801C37.8398 56.791 37.668 56.5742 37.457 56.4297C37.2461 56.2852 36.9902 56.2129 36.6895 56.2129C36.3887 56.2129 36.1328 56.2852 35.9219 56.4297C35.7148 56.5742 35.5469 56.791 35.418 57.0801C35.2891 57.3691 35.1953 57.7324 35.1367 58.1699C35.0781 58.6074 35.0488 59.1191 35.0488 59.7051Z" fill="#595959"/>
</g>
<g clip-path="url(#clip1_0_1)">
<path d="M30.0918 134.299C30.4199 134.299 30.7285 134.342 31.0176 134.428C31.3105 134.514 31.5664 134.643 31.7852 134.814C32.0078 134.986 32.1836 135.201 32.3125 135.459C32.4414 135.717 32.5059 136.018 32.5059 136.361C32.5059 136.623 32.4668 136.859 32.3887 137.07C32.3105 137.281 32.2031 137.473 32.0664 137.645C31.9297 137.812 31.7676 137.965 31.5801 138.102C31.3926 138.234 31.1895 138.355 30.9707 138.465C31.1973 138.586 31.418 138.721 31.6328 138.869C31.8516 139.018 32.0449 139.186 32.2129 139.373C32.3848 139.557 32.5215 139.764 32.623 139.994C32.7285 140.225 32.7812 140.482 32.7812 140.768C32.7812 141.127 32.7148 141.453 32.582 141.746C32.4531 142.035 32.2695 142.281 32.0312 142.484C31.7969 142.688 31.5137 142.844 31.1816 142.953C30.8535 143.062 30.4902 143.117 30.0918 143.117C29.6621 143.117 29.2793 143.064 28.9434 142.959C28.6113 142.854 28.3301 142.703 28.0996 142.508C27.873 142.309 27.6992 142.066 27.5781 141.781C27.4609 141.496 27.4023 141.174 27.4023 140.814C27.4023 140.521 27.4453 140.258 27.5312 140.023C27.6211 139.789 27.7402 139.578 27.8887 139.391C28.0371 139.203 28.2129 139.037 28.416 138.893C28.6191 138.748 28.834 138.621 29.0605 138.512C28.8691 138.391 28.6895 138.26 28.5215 138.119C28.3535 137.975 28.207 137.814 28.082 137.639C27.9609 137.463 27.8633 137.27 27.7891 137.059C27.7188 136.844 27.6836 136.607 27.6836 136.35C27.6836 136.01 27.748 135.713 27.877 135.459C28.0098 135.201 28.1875 134.986 28.4102 134.814C28.6328 134.643 28.8887 134.514 29.1777 134.428C29.4707 134.342 29.7754 134.299 30.0918 134.299ZM28.4512 140.826C28.4512 141.033 28.4824 141.225 28.5449 141.4C28.6074 141.572 28.7051 141.721 28.8379 141.846C28.9707 141.967 29.1387 142.062 29.3418 142.133C29.5449 142.199 29.7871 142.232 30.0684 142.232C30.3418 142.232 30.582 142.199 30.7891 142.133C31 142.062 31.1758 141.965 31.3164 141.84C31.457 141.711 31.5625 141.557 31.6328 141.377C31.7031 141.197 31.7383 140.998 31.7383 140.779C31.7383 140.576 31.6992 140.393 31.6211 140.229C31.5469 140.064 31.4375 139.912 31.293 139.771C31.1523 139.631 30.9824 139.498 30.7832 139.373C30.584 139.248 30.3613 139.125 30.1152 139.004L29.9395 138.922C29.4473 139.156 29.0762 139.426 28.8262 139.73C28.5762 140.031 28.4512 140.396 28.4512 140.826ZM30.0801 135.189C29.666 135.189 29.3359 135.293 29.0898 135.5C28.8477 135.707 28.7266 136.008 28.7266 136.402C28.7266 136.625 28.7598 136.816 28.8262 136.977C28.8965 137.137 28.9922 137.279 29.1133 137.404C29.2344 137.529 29.3789 137.643 29.5469 137.744C29.7188 137.842 29.9043 137.938 30.1035 138.031C30.291 137.945 30.4668 137.852 30.6309 137.75C30.7988 137.648 30.9434 137.533 31.0645 137.404C31.1895 137.275 31.2871 137.129 31.3574 136.965C31.4277 136.801 31.4629 136.613 31.4629 136.402C31.4629 136.008 31.3398 135.707 31.0938 135.5C30.8477 135.293 30.5098 135.189 30.0801 135.189ZM39.4375 138.705C39.4375 139.396 39.3867 140.016 39.2852 140.562C39.1875 141.109 39.0273 141.572 38.8047 141.951C38.5859 142.33 38.3027 142.619 37.9551 142.818C37.6074 143.018 37.1855 143.117 36.6895 143.117C36.2285 143.117 35.8262 143.018 35.4824 142.818C35.1426 142.619 34.8594 142.33 34.6328 141.951C34.4102 141.572 34.2422 141.109 34.1289 140.562C34.0195 140.016 33.9648 139.396 33.9648 138.705C33.9648 138.014 34.0137 137.395 34.1113 136.848C34.2129 136.301 34.3711 135.84 34.5859 135.465C34.8047 135.086 35.0859 134.797 35.4297 134.598C35.7773 134.398 36.1973 134.299 36.6895 134.299C37.1543 134.299 37.5586 134.398 37.9023 134.598C38.2461 134.793 38.5312 135.08 38.7578 135.459C38.9844 135.834 39.1543 136.295 39.2676 136.842C39.3809 137.389 39.4375 138.01 39.4375 138.705ZM35.0488 138.705C35.0488 139.291 35.0781 139.803 35.1367 140.24C35.1953 140.678 35.2891 141.043 35.418 141.336C35.5469 141.625 35.7148 141.844 35.9219 141.992C36.1328 142.137 36.3887 142.209 36.6895 142.209C36.9902 142.209 37.2461 142.137 37.457 141.992C37.668 141.848 37.8398 141.631 37.9727 141.342C38.1094 141.053 38.207 140.689 38.2656 140.252C38.3281 139.811 38.3594 139.295 38.3594 138.705C38.3594 138.119 38.3281 137.607 38.2656 137.17C38.207 136.732 38.1094 136.369 37.9727 136.08C37.8398 135.791 37.668 135.574 37.457 135.43C37.2461 135.285 36.9902 135.213 36.6895 135.213C36.3887 135.213 36.1328 135.285 35.9219 135.43C35.7148 135.574 35.5469 135.791 35.418 136.08C35.2891 136.369 35.1953 136.732 35.1367 137.17C35.0781 137.607 35.0488 138.119 35.0488 138.705Z" fill="#595959"/>
</g>
<g clip-path="url(#clip2_0_1)">
<path d="M28.4277 220L31.7266 212.406H27.3086V211.434H32.8164V212.283L29.5645 220H28.4277ZM39.4375 215.705C39.4375 216.396 39.3867 217.016 39.2852 217.562C39.1875 218.109 39.0273 218.572 38.8047 218.951C38.5859 219.33 38.3027 219.619 37.9551 219.818C37.6074 220.018 37.1855 220.117 36.6895 220.117C36.2285 220.117 35.8262 220.018 35.4824 219.818C35.1426 219.619 34.8594 219.33 34.6328 218.951C34.4102 218.572 34.2422 218.109 34.1289 217.562C34.0195 217.016 33.9648 216.396 33.9648 215.705C33.9648 215.014 34.0137 214.395 34.1113 213.848C34.2129 213.301 34.3711 212.84 34.5859 212.465C34.8047 212.086 35.0859 211.797 35.4297 211.598C35.7773 211.398 36.1973 211.299 36.6895 211.299C37.1543 211.299 37.5586 211.398 37.9023 211.598C38.2461 211.793 38.5312 212.08 38.7578 212.459C38.9844 212.834 39.1543 213.295 39.2676 213.842C39.3809 214.389 39.4375 215.01 39.4375 215.705ZM35.0488 215.705C35.0488 216.291 35.0781 216.803 35.1367 217.24C35.1953 217.678 35.2891 218.043 35.418 218.336C35.5469 218.625 35.7148 218.844 35.9219 218.992C36.1328 219.137 36.3887 219.209 36.6895 219.209C36.9902 219.209 37.2461 219.137 37.457 218.992C37.668 218.848 37.8398 218.631 37.9727 218.342C38.1094 218.053 38.207 217.689 38.2656 217.252C38.3281 216.811 38.3594 216.295 38.3594 215.705C38.3594 215.119 38.3281 214.607 38.2656 214.17C38.207 213.732 38.1094 213.369 37.9727 213.08C37.8398 212.791 37.668 212.574 37.457 212.43C37.2461 212.285 36.9902 212.213 36.6895 212.213C36.3887 212.213 36.1328 212.285 35.9219 212.43C35.7148 212.574 35.5469 212.791 35.418 213.08C35.2891 213.369 35.1953 213.732 35.1367 214.17C35.0781 214.607 35.0488 215.119 35.0488 215.705Z" fill="#595959"/>
</g>
<line x1="69.5" y1="57" x2="69.5" y2="215" stroke="#EBEFEE" stroke-dasharray="4 4"/>
<line x1="245.5" y1="57" x2="245.5" y2="215" stroke="#EBEFEE" stroke-dasharray="4 4"/>
<line x1="157.5" y1="57" x2="157.5" y2="215" stroke="#EBEFEE" stroke-dasharray="4 4"/>
<line x1="337.5" y1="57" x2="337.5" y2="215" stroke="#EBEFEE" stroke-dasharray="4 4"/>
<rect x="51.25" y="57.25" width="358.5" height="0.5" fill="#EBEFEE" stroke="#EBEFEE" stroke-width="0.5"/>
<rect x="51" y="215" width="359" height="1" fill="#CED7D4"/>
<rect x="51.25" y="136.25" width="358.5" height="0.5" fill="#EBEFEE" stroke="#EBEFEE" stroke-width="0.5"/>
<g clip-path="url(#clip3_0_1)">
<path d="M156.193 227.076C156.58 227.076 156.939 227.131 157.271 227.24C157.607 227.346 157.898 227.504 158.145 227.715C158.395 227.926 158.59 228.188 158.73 228.5C158.871 228.812 158.941 229.174 158.941 229.584C158.941 230.029 158.875 230.43 158.742 230.785C158.609 231.141 158.412 231.441 158.15 231.688C157.889 231.934 157.564 232.123 157.178 232.256C156.795 232.385 156.354 232.449 155.854 232.449C155.654 232.449 155.457 232.439 155.262 232.42C155.07 232.4 154.885 232.371 154.705 232.332C154.529 232.297 154.361 232.25 154.201 232.191C154.041 232.133 153.896 232.064 153.768 231.986V230.979C153.896 231.068 154.047 231.148 154.219 231.219C154.395 231.289 154.578 231.348 154.77 231.395C154.961 231.441 155.152 231.479 155.344 231.506C155.539 231.529 155.719 231.541 155.883 231.541C156.191 231.541 156.467 231.506 156.709 231.436C156.951 231.361 157.156 231.248 157.324 231.096C157.492 230.943 157.621 230.752 157.711 230.521C157.801 230.291 157.846 230.018 157.846 229.701C157.846 229.143 157.674 228.717 157.33 228.424C156.986 228.127 156.486 227.979 155.83 227.979C155.725 227.979 155.609 227.984 155.484 227.996C155.363 228.004 155.24 228.016 155.115 228.031C154.994 228.047 154.877 228.064 154.764 228.084C154.654 228.1 154.559 228.115 154.477 228.131L153.949 227.797L154.271 223.766H158.314V224.738H155.197L154.969 227.193C155.094 227.17 155.258 227.145 155.461 227.117C155.668 227.09 155.912 227.076 156.193 227.076Z" fill="#595959"/>
<path d="M72.5469 228.037C72.5469 228.729 72.4961 229.348 72.3945 229.895C72.2969 230.441 72.1367 230.904 71.9141 231.283C71.6953 231.662 71.4121 231.951 71.0645 232.15C70.7168 232.35 70.2949 232.449 69.7988 232.449C69.3379 232.449 68.9355 232.35 68.5918 232.15C68.252 231.951 67.9688 231.662 67.7422 231.283C67.5195 230.904 67.3516 230.441 67.2383 229.895C67.1289 229.348 67.0742 228.729 67.0742 228.037C67.0742 227.346 67.123 226.727 67.2207 226.18C67.3223 225.633 67.4805 225.172 67.6953 224.797C67.9141 224.418 68.1953 224.129 68.5391 223.93C68.8867 223.73 69.3066 223.631 69.7988 223.631C70.2637 223.631 70.668 223.73 71.0117 223.93C71.3555 224.125 71.6406 224.412 71.8672 224.791C72.0938 225.166 72.2637 225.627 72.377 226.174C72.4902 226.721 72.5469 227.342 72.5469 228.037ZM68.1582 228.037C68.1582 228.623 68.1875 229.135 68.2461 229.572C68.3047 230.01 68.3984 230.375 68.5273 230.668C68.6562 230.957 68.8242 231.176 69.0312 231.324C69.2422 231.469 69.498 231.541 69.7988 231.541C70.0996 231.541 70.3555 231.469 70.5664 231.324C70.7773 231.18 70.9492 230.963 71.082 230.674C71.2188 230.385 71.3164 230.021 71.375 229.584C71.4375 229.143 71.4688 228.627 71.4688 228.037C71.4688 227.451 71.4375 226.939 71.375 226.502C71.3164 226.064 71.2188 225.701 71.082 225.412C70.9492 225.123 70.7773 224.906 70.5664 224.762C70.3555 224.617 70.0996 224.545 69.7988 224.545C69.498 224.545 69.2422 224.617 69.0312 224.762C68.8242 224.906 68.6562 225.123 68.5273 225.412C68.3984 225.701 68.3047 226.064 68.2461 226.502C68.1875 226.939 68.1582 227.451 68.1582 228.037Z" fill="#595959"/>
<path d="M336.166 232.332H335.135V226.982C335.135 226.814 335.135 226.635 335.135 226.443C335.139 226.252 335.143 226.062 335.146 225.875C335.154 225.684 335.16 225.502 335.164 225.33C335.172 225.154 335.178 225 335.182 224.867C335.115 224.938 335.057 224.998 335.006 225.049C334.955 225.1 334.902 225.148 334.848 225.195C334.797 225.242 334.742 225.293 334.684 225.348C334.625 225.398 334.555 225.459 334.473 225.529L333.605 226.238L333.043 225.518L335.287 223.766H336.166V232.332ZM341.803 227.076C342.189 227.076 342.549 227.131 342.881 227.24C343.217 227.346 343.508 227.504 343.754 227.715C344.004 227.926 344.199 228.188 344.34 228.5C344.48 228.812 344.551 229.174 344.551 229.584C344.551 230.029 344.484 230.43 344.352 230.785C344.219 231.141 344.021 231.441 343.76 231.688C343.498 231.934 343.174 232.123 342.787 232.256C342.404 232.385 341.963 232.449 341.463 232.449C341.264 232.449 341.066 232.439 340.871 232.42C340.68 232.4 340.494 232.371 340.314 232.332C340.139 232.297 339.971 232.25 339.811 232.191C339.65 232.133 339.506 232.064 339.377 231.986V230.979C339.506 231.068 339.656 231.148 339.828 231.219C340.004 231.289 340.188 231.348 340.379 231.395C340.57 231.441 340.762 231.479 340.953 231.506C341.148 231.529 341.328 231.541 341.492 231.541C341.801 231.541 342.076 231.506 342.318 231.436C342.561 231.361 342.766 231.248 342.934 231.096C343.102 230.943 343.23 230.752 343.32 230.521C343.41 230.291 343.455 230.018 343.455 229.701C343.455 229.143 343.283 228.717 342.939 228.424C342.596 228.127 342.096 227.979 341.439 227.979C341.334 227.979 341.219 227.984 341.094 227.996C340.973 228.004 340.85 228.016 340.725 228.031C340.604 228.047 340.486 228.064 340.373 228.084C340.264 228.1 340.168 228.115 340.086 228.131L339.559 227.797L339.881 223.766H343.924V224.738H340.807L340.578 227.193C340.703 227.17 340.867 227.145 341.07 227.117C341.277 227.09 341.521 227.076 341.803 227.076Z" fill="#595959"/>
<path d="M243.166 232.332H242.135V226.982C242.135 226.814 242.135 226.635 242.135 226.443C242.139 226.252 242.143 226.062 242.146 225.875C242.154 225.684 242.16 225.502 242.164 225.33C242.172 225.154 242.178 225 242.182 224.867C242.115 224.938 242.057 224.998 242.006 225.049C241.955 225.1 241.902 225.148 241.848 225.195C241.797 225.242 241.742 225.293 241.684 225.348C241.625 225.398 241.555 225.459 241.473 225.529L240.605 226.238L240.043 225.518L242.287 223.766H243.166V232.332ZM251.756 228.037C251.756 228.729 251.705 229.348 251.604 229.895C251.506 230.441 251.346 230.904 251.123 231.283C250.905 231.662 250.621 231.951 250.274 232.15C249.926 232.35 249.504 232.449 249.008 232.449C248.547 232.449 248.145 232.35 247.801 232.15C247.461 231.951 247.178 231.662 246.952 231.283C246.729 230.904 246.561 230.441 246.448 229.895C246.338 229.348 246.284 228.729 246.284 228.037C246.284 227.346 246.332 226.727 246.43 226.18C246.532 225.633 246.69 225.172 246.905 224.797C247.123 224.418 247.405 224.129 247.748 223.93C248.096 223.73 248.516 223.631 249.008 223.631C249.473 223.631 249.877 223.73 250.221 223.93C250.565 224.125 250.85 224.412 251.077 224.791C251.303 225.166 251.473 225.627 251.586 226.174C251.7 226.721 251.756 227.342 251.756 228.037ZM247.368 228.037C247.368 228.623 247.397 229.135 247.455 229.572C247.514 230.01 247.608 230.375 247.737 230.668C247.866 230.957 248.034 231.176 248.241 231.324C248.452 231.469 248.707 231.541 249.008 231.541C249.309 231.541 249.565 231.469 249.776 231.324C249.987 231.18 250.159 230.963 250.291 230.674C250.428 230.385 250.526 230.021 250.584 229.584C250.647 229.143 250.678 228.627 250.678 228.037C250.678 227.451 250.647 226.939 250.584 226.502C250.526 226.064 250.428 225.701 250.291 225.412C250.159 225.123 249.987 224.906 249.776 224.762C249.565 224.617 249.309 224.545 249.008 224.545C248.707 224.545 248.452 224.617 248.241 224.762C248.034 224.906 247.866 225.123 247.737 225.412C247.608 225.701 247.514 226.064 247.455 226.502C247.397 226.939 247.368 227.451 247.368 228.037Z" fill="#595959"/>
</g>
<path d="M386.055 136.296H382.563L381.963 138H380.535L383.523 129.648H385.107L388.095 138H386.655L386.055 136.296ZM385.671 135.18L384.315 131.304L382.947 135.18H385.671Z" fill="#595959"/>
<path d="M351.367 155.424C351.679 155.82 351.835 156.264 351.835 156.756C351.835 157.188 351.715 157.572 351.499 157.908C351.283 158.244 350.959 158.52 350.551 158.712C350.131 158.904 349.651 159 349.099 159H345.763V150.66H348.943C349.507 150.66 349.999 150.756 350.407 150.948C350.815 151.14 351.115 151.404 351.331 151.728C351.535 152.052 351.643 152.412 351.643 152.808C351.643 153.288 351.511 153.696 351.259 154.008C350.995 154.332 350.659 154.572 350.227 154.716C350.671 154.8 351.055 155.04 351.367 155.424ZM347.131 154.164H348.823C349.267 154.164 349.615 154.068 349.867 153.864C350.119 153.66 350.251 153.36 350.251 152.976C350.251 152.604 350.119 152.316 349.867 152.1C349.615 151.884 349.267 151.776 348.823 151.776H347.131V154.164ZM350.071 157.548C350.335 157.332 350.467 157.02 350.467 156.612C350.467 156.204 350.323 155.88 350.047 155.64C349.759 155.4 349.387 155.28 348.931 155.28H347.131V157.884H348.979C349.435 157.884 349.807 157.776 350.071 157.548Z" fill="#595959"/>
<path d="M325.596 165.616C325.98 164.968 326.496 164.464 327.144 164.104C327.792 163.744 328.512 163.552 329.292 163.552C330.18 163.552 330.96 163.78 331.656 164.212C332.352 164.644 332.856 165.268 333.168 166.06H331.524C331.308 165.628 331.008 165.292 330.624 165.076C330.24 164.86 329.796 164.752 329.292 164.752C328.74 164.752 328.248 164.884 327.816 165.124C327.384 165.376 327.036 165.736 326.796 166.192C326.556 166.66 326.436 167.2 326.436 167.812C326.436 168.436 326.556 168.976 326.796 169.432C327.036 169.9 327.384 170.26 327.816 170.512C328.248 170.764 328.74 170.884 329.292 170.884C329.796 170.884 330.24 170.776 330.624 170.56C331.008 170.344 331.308 170.02 331.524 169.576H333.168C332.856 170.38 332.352 170.992 331.656 171.424C330.96 171.856 330.18 172.072 329.292 172.072C328.5 172.072 327.792 171.892 327.144 171.532C326.496 171.172 325.98 170.656 325.596 170.008C325.212 169.36 325.032 168.628 325.032 167.812C325.032 166.996 325.212 166.264 325.596 165.616Z" fill="#595959"/>
<path d="M318.198 170.176C318.87 170.512 319.386 171.004 319.746 171.64C320.106 172.276 320.298 173.02 320.298 173.86C320.298 174.712 320.106 175.444 319.746 176.068C319.386 176.692 318.87 177.172 318.198 177.508C317.526 177.844 316.758 178 315.87 178H313.146V169.66H315.87C316.758 169.66 317.526 169.84 318.198 170.176ZM318.114 176.092C318.63 175.564 318.894 174.82 318.894 173.86C318.894 172.9 318.63 172.144 318.114 171.592C317.586 171.052 316.842 170.776 315.87 170.776H314.514V176.884H315.87C316.842 176.884 317.586 176.62 318.114 176.092Z" fill="#595959"/>
<path d="M286.303 185.764V188.212H289.183V189.328H286.303V191.884H289.543V193H284.935V184.648H289.543V185.764H286.303Z" fill="#595959"/>
<path d="M258.99 196.66V197.776H255.45V200.236H258.21V201.352H255.45V205H254.082V196.66H258.99Z" fill="#595959"/>
<ellipse cx="145.665" cy="108.515" rx="1.92823" ry="2.01479" fill="#D0D0D0"/>
<ellipse cx="149.52" cy="113.888" rx="1.92823" ry="2.01479" fill="#E6B056"/>
<ellipse cx="156.59" cy="115.232" rx="1.92823" ry="2.01479" fill="#D0D0D0"/>
<ellipse cx="160.448" cy="114.56" rx="1.92823" ry="2.01479" fill="#E6B056"/>
<ellipse cx="170.731" cy="108.515" rx="1.92823" ry="2.01479" fill="#D0D0D0"/>
<ellipse cx="233.28" cy="112.015" rx="1.92823" ry="2.01479" fill="#E6B056"/>
<ellipse cx="175.875" cy="117.917" rx="1.92823" ry="2.01479" fill="#D0D0D0"/>
<ellipse cx="179.729" cy="115.902" rx="1.92823" ry="2.01479" fill="#E6B056"/>
<ellipse cx="237.11" cy="118.015" rx="1.92823" ry="2.01479" fill="#D0D0D0"/>
<ellipse cx="221.797" cy="115.015" rx="1.92823" ry="2.01479" fill="#E6B056"/>
<ellipse opacity="0.5" cx="199.012" cy="115.23" rx="1.92823" ry="2.01479" fill="#ADBDB9"/>
<ellipse cx="295.489" cy="115.015" rx="1.92823" ry="2.01479" fill="#D0D0D0"/>
<ellipse cx="217.008" cy="119.261" rx="1.92823" ry="2.01479" fill="#D0D0D0"/>
<ellipse cx="269.651" cy="123.015" rx="1.92823" ry="2.01479" fill="#E6B056"/>
<ellipse cx="280.176" cy="119.015" rx="1.92823" ry="2.01479" fill="#D0D0D0"/>
<ellipse cx="319.415" cy="113.015" rx="1.92823" ry="2.01479" fill="#E6B056"/>
<ellipse cx="321.329" cy="118.015" rx="1.92823" ry="2.01479" fill="#D0D0D0"/>
<ellipse cx="132.167" cy="108.515" rx="1.92823" ry="2.01479" fill="#02A783"/>
<ellipse cx="132.167" cy="121.946" rx="1.92823" ry="2.01479" fill="#4CA2A8"/>
<ellipse cx="141.163" cy="121.946" rx="1.92823" ry="2.01479" fill="#4CA2A8"/>
<ellipse cx="145.022" cy="121.275" rx="1.92823" ry="2.01479" fill="#DD887C"/>
<ellipse cx="153.379" cy="117.917" rx="1.92823" ry="2.01479" fill="#4CA2A8"/>
<ellipse cx="157.235" cy="117.245" rx="1.92823" ry="2.01479" fill="#DD887C"/>
<ellipse cx="227.54" cy="118.015" rx="1.92823" ry="2.01479" fill="#4CA2A8"/>
<ellipse cx="170.731" cy="119.261" rx="1.92823" ry="2.01479" fill="#DD887C"/>
<ellipse cx="180.375" cy="113.888" rx="1.92823" ry="2.01479" fill="#4CA2A8"/>
<ellipse cx="245.723" cy="110.015" rx="1.92823" ry="2.01479" fill="#4CA2A8"/>
<ellipse cx="199.653" cy="115.232" rx="1.92823" ry="2.01479" fill="#DD887C"/>
<ellipse cx="259.12" cy="114.015" rx="1.92823" ry="2.01479" fill="#4CA2A8"/>
<ellipse cx="259.12" cy="121.015" rx="1.92823" ry="2.01479" fill="#DD887C"/>
<ellipse cx="299.315" cy="120.015" rx="1.92823" ry="2.01479" fill="#4CA2A8"/>
<ellipse cx="310.799" cy="122.015" rx="1.92823" ry="2.01479" fill="#DD887C"/>
<ellipse cx="327.071" cy="113.015" rx="1.92823" ry="2.01479" fill="#4CA2A8"/>
<path d="M379.414 133.13C343.553 108.682 248.217 59.4581 153.77 58.1445L81.4121 145.718C114.735 149.915 195.662 166.846 252.787 201" stroke="#595959"/>
<path d="M97.5977 127.656C141.711 134.589 240.791 156.446 284.206 188.411" stroke="#595959"/>
<path d="M112.389 106.857C161.58 115.067 270.244 139.698 311.374 172.538" stroke="#595959"/>
<path d="M120.002 99.7422C166.971 106.493 273.478 129.298 323.748 166.517" stroke="#595959"/>
<path d="M132.381 82.7754C175.225 87.8839 277.478 109.267 343.744 153.929" stroke="#595959"/>
<path d="M26.6504 21.9531C26.6504 22.8281 26.3516 23.5 25.7539 23.9688C25.1562 24.4336 24.3145 24.666 23.2285 24.666H22.2441V28H21.166V19.4336H23.4336C25.5781 19.4336 26.6504 20.2734 26.6504 21.9531ZM22.2441 23.7402H23.1055C23.957 23.7402 24.5742 23.6035 24.957 23.3301C25.3398 23.0527 25.5312 22.6094 25.5312 22C25.5312 21.4492 25.3535 21.0371 24.998 20.7637C24.6426 20.4902 24.0879 20.3535 23.334 20.3535H22.2441V23.7402ZM33.875 24.7715C33.875 25.8223 33.6094 26.6426 33.0781 27.2324C32.5469 27.8223 31.8125 28.1172 30.875 28.1172C30.293 28.1172 29.7773 27.9824 29.3281 27.7129C28.8789 27.4395 28.5332 27.0488 28.291 26.541C28.0488 26.0332 27.9277 25.4434 27.9277 24.7715C27.9277 23.7246 28.1895 22.9102 28.7129 22.3281C29.2363 21.7422 29.9707 21.4492 30.916 21.4492C31.8223 21.4492 32.541 21.748 33.0723 22.3457C33.6074 22.9395 33.875 23.748 33.875 24.7715ZM29.0176 24.7715C29.0176 25.5801 29.1758 26.1953 29.4922 26.6172C29.8125 27.0352 30.2832 27.2441 30.9043 27.2441C31.5176 27.2441 31.9844 27.0352 32.3047 26.6172C32.625 26.1953 32.7852 25.5801 32.7852 24.7715C32.7852 23.9629 32.623 23.3555 32.2988 22.9492C31.9785 22.5391 31.5078 22.334 30.8867 22.334C29.6406 22.334 29.0176 23.1465 29.0176 24.7715ZM36.6055 28H35.5508V18.8828H36.6055V28ZM37.6367 21.5664H38.7676L40.1562 25.2285C40.4492 26.0254 40.6289 26.6094 40.6953 26.9805H40.7422C40.7773 26.8359 40.8574 26.5664 40.9824 26.1719C41.1074 25.7734 41.2129 25.4551 41.2988 25.2168L42.6055 21.5664H43.7422L40.9707 28.8906C40.7012 29.6016 40.3809 30.1113 40.0098 30.4199C39.6387 30.7285 39.1797 30.8828 38.6328 30.8828C38.3398 30.8828 38.0488 30.8496 37.7598 30.7832V29.9453C37.9551 29.9922 38.1895 30.0156 38.4629 30.0156C38.7988 30.0156 39.084 29.9219 39.3184 29.7344C39.5527 29.5508 39.7441 29.2656 39.8926 28.8789L40.2266 28.0234L37.6367 21.5664ZM46.9121 27.2559C47.0488 27.2559 47.209 27.2422 47.3926 27.2148C47.5762 27.1875 47.7148 27.1562 47.8086 27.1211V27.9297C47.7109 27.9727 47.5586 28.0137 47.3516 28.0527C47.1484 28.0957 46.9414 28.1172 46.7305 28.1172C45.4727 28.1172 44.8438 27.4551 44.8438 26.1309V22.3867H43.9355V21.8828L44.8555 21.4609L45.2773 20.0898H45.9043V21.5664H47.7617V22.3867H45.9043V26.1016C45.9043 26.4727 45.9922 26.7578 46.168 26.957C46.3477 27.1562 46.5957 27.2559 46.9121 27.2559ZM52.0977 21.4492C52.3828 21.4492 52.6348 21.4727 52.8535 21.5195L52.7246 22.4922C52.4863 22.4375 52.2539 22.4102 52.0273 22.4102C51.6875 22.4102 51.3711 22.5039 51.0781 22.6914C50.7891 22.8789 50.5625 23.1387 50.3984 23.4707C50.2344 23.7988 50.1523 24.1641 50.1523 24.5664V28H49.0977V21.5664H49.9648L50.082 22.7441H50.1289C50.375 22.3184 50.666 21.9961 51.002 21.7773C51.3379 21.5586 51.7031 21.4492 52.0977 21.4492ZM59.5273 24.7715C59.5273 25.8223 59.2617 26.6426 58.7305 27.2324C58.1992 27.8223 57.4648 28.1172 56.5273 28.1172C55.9453 28.1172 55.4297 27.9824 54.9805 27.7129C54.5312 27.4395 54.1855 27.0488 53.9434 26.541C53.7012 26.0332 53.5801 25.4434 53.5801 24.7715C53.5801 23.7246 53.8418 22.9102 54.3652 22.3281C54.8887 21.7422 55.623 21.4492 56.5684 21.4492C57.4746 21.4492 58.1934 21.748 58.7246 22.3457C59.2598 22.9395 59.5273 23.748 59.5273 24.7715ZM54.6699 24.7715C54.6699 25.5801 54.8281 26.1953 55.1445 26.6172C55.4648 27.0352 55.9355 27.2441 56.5566 27.2441C57.1699 27.2441 57.6367 27.0352 57.957 26.6172C58.2773 26.1953 58.4375 25.5801 58.4375 24.7715C58.4375 23.9629 58.2754 23.3555 57.9512 22.9492C57.6309 22.5391 57.1602 22.334 56.5391 22.334C55.293 22.334 54.6699 23.1465 54.6699 24.7715ZM64.25 28.1172C63.3867 28.1172 62.7227 27.8066 62.2578 27.1855H62.1875L62.2109 27.4258C62.2422 27.7305 62.2578 28.002 62.2578 28.2402V30.8828H61.2031V21.5664H62.0703L62.2109 22.4453H62.2578C62.5078 22.0938 62.7969 21.8398 63.125 21.6836C63.4531 21.5273 63.832 21.4492 64.2617 21.4492C65.0977 21.4492 65.7461 21.7402 66.207 22.3223C66.6719 22.9004 66.9043 23.7168 66.9043 24.7715C66.9043 25.8223 66.6719 26.6426 66.207 27.2324C65.7422 27.8223 65.0898 28.1172 64.25 28.1172ZM64.0742 22.334C63.4375 22.334 62.9766 22.5137 62.6914 22.873C62.4102 23.2324 62.2656 23.7969 62.2578 24.5664V24.7715C62.2578 25.6426 62.4023 26.2734 62.6914 26.6641C62.9805 27.0508 63.4492 27.2441 64.0977 27.2441C64.6367 27.2441 65.0566 27.0254 65.3574 26.5879C65.6621 26.1504 65.8145 25.541 65.8145 24.7598C65.8145 23.9746 65.6621 23.375 65.3574 22.9609C65.0566 22.543 64.6289 22.334 64.0742 22.334ZM69.6406 28H68.5859V21.5664H69.6406V28ZM68.5039 19.8262C68.5039 19.5918 68.5625 19.4219 68.6797 19.3164C68.8008 19.2109 68.9492 19.1582 69.125 19.1582C69.2891 19.1582 69.4316 19.2109 69.5527 19.3164C69.6777 19.4219 69.7402 19.5918 69.7402 19.8262C69.7402 20.0566 69.6777 20.2266 69.5527 20.3359C69.4316 20.4453 69.2891 20.5 69.125 20.5C68.9492 20.5 68.8008 20.4453 68.6797 20.3359C68.5625 20.2266 68.5039 20.0566 68.5039 19.8262ZM74.2578 28.1172C73.332 28.1172 72.6113 27.834 72.0957 27.2676C71.5801 26.6973 71.3223 25.8809 71.3223 24.8184C71.3223 23.7402 71.582 22.9102 72.1016 22.3281C72.625 21.7422 73.3691 21.4492 74.334 21.4492C74.6465 21.4492 74.9551 21.4824 75.2598 21.5488C75.5684 21.6113 75.8223 21.6934 76.0215 21.7949L75.6992 22.6738C75.1562 22.4707 74.6934 22.3691 74.3105 22.3691C73.6621 22.3691 73.1836 22.5742 72.875 22.9844C72.5664 23.3906 72.4121 23.998 72.4121 24.8066C72.4121 25.584 72.5664 26.1797 72.875 26.5938C73.1836 27.0039 73.6406 27.209 74.2461 27.209C74.8125 27.209 75.3691 27.084 75.916 26.834V27.7715C75.4707 28.002 74.918 28.1172 74.2578 28.1172ZM83.2988 28.1172C82.334 28.1172 81.5762 27.8262 81.0254 27.2441C80.4785 26.6582 80.2051 25.8535 80.2051 24.8301C80.2051 23.7988 80.4609 22.9785 80.9727 22.3691C81.4844 21.7559 82.1758 21.4492 83.0469 21.4492C83.8555 21.4492 84.5 21.7109 84.9805 22.2344C85.4609 22.7539 85.7012 23.459 85.7012 24.3496V24.9883H81.2949C81.3145 25.7188 81.5 26.2734 81.8516 26.6523C82.2031 27.0312 82.7012 27.2207 83.3457 27.2207C83.6895 27.2207 84.0156 27.1914 84.3242 27.1328C84.6328 27.0703 84.9941 26.9512 85.4082 26.7754V27.7012C85.0527 27.8535 84.7188 27.9609 84.4062 28.0234C84.0938 28.0859 83.7246 28.1172 83.2988 28.1172ZM83.0352 22.3105C82.5312 22.3105 82.1328 22.4727 81.8398 22.7969C81.5469 23.1211 81.373 23.5723 81.3184 24.1504H84.5938C84.5859 23.5488 84.4473 23.0918 84.1777 22.7793C83.9082 22.4668 83.5273 22.3105 83.0352 22.3105ZM90.3008 22.3867H88.6777V28H87.623V22.3867H86.498V21.8945L87.623 21.5312V21.1621C87.623 20.3809 87.793 19.7949 88.1328 19.4043C88.4766 19.0137 89.0039 18.8184 89.7148 18.8184C90.125 18.8184 90.541 18.8906 90.9629 19.0352L90.6816 19.8613C90.3184 19.7441 90 19.6855 89.7266 19.6855C89.3711 19.6855 89.1074 19.8027 88.9355 20.0371C88.7637 20.2715 88.6777 20.6426 88.6777 21.1504V21.5664H90.3008V22.3867ZM94.4375 22.3867H92.8145V28H91.7598V22.3867H90.6348V21.8945L91.7598 21.5312V21.1621C91.7598 20.3809 91.9297 19.7949 92.2695 19.4043C92.6133 19.0137 93.1406 18.8184 93.8516 18.8184C94.2617 18.8184 94.6777 18.8906 95.0996 19.0352L94.8184 19.8613C94.4551 19.7441 94.1367 19.6855 93.8633 19.6855C93.5078 19.6855 93.2441 19.8027 93.0723 20.0371C92.9004 20.2715 92.8145 20.6426 92.8145 21.1504V21.5664H94.4375V22.3867ZM96.6641 28H95.6094V21.5664H96.6641V28ZM95.5273 19.8262C95.5273 19.5918 95.5859 19.4219 95.7031 19.3164C95.8242 19.2109 95.9727 19.1582 96.1484 19.1582C96.3125 19.1582 96.4551 19.2109 96.5762 19.3164C96.7012 19.4219 96.7637 19.5918 96.7637 19.8262C96.7637 20.0566 96.7012 20.2266 96.5762 20.3359C96.4551 20.4453 96.3125 20.5 96.1484 20.5C95.9727 20.5 95.8242 20.4453 95.7031 20.3359C95.5859 20.2266 95.5273 20.0566 95.5273 19.8262ZM101.281 28.1172C100.355 28.1172 99.6348 27.834 99.1191 27.2676C98.6035 26.6973 98.3457 25.8809 98.3457 24.8184C98.3457 23.7402 98.6055 22.9102 99.125 22.3281C99.6484 21.7422 100.393 21.4492 101.357 21.4492C101.67 21.4492 101.979 21.4824 102.283 21.5488C102.592 21.6113 102.846 21.6934 103.045 21.7949L102.723 22.6738C102.18 22.4707 101.717 22.3691 101.334 22.3691C100.686 22.3691 100.207 22.5742 99.8984 22.9844C99.5898 23.3906 99.4355 23.998 99.4355 24.8066C99.4355 25.584 99.5898 26.1797 99.8984 26.5938C100.207 27.0039 100.664 27.209 101.27 27.209C101.836 27.209 102.393 27.084 102.939 26.834V27.7715C102.494 28.002 101.941 28.1172 101.281 28.1172ZM105.523 28H104.469V21.5664H105.523V28ZM104.387 19.8262C104.387 19.5918 104.445 19.4219 104.562 19.3164C104.684 19.2109 104.832 19.1582 105.008 19.1582C105.172 19.1582 105.314 19.2109 105.436 19.3164C105.561 19.4219 105.623 19.5918 105.623 19.8262C105.623 20.0566 105.561 20.2266 105.436 20.3359C105.314 20.4453 105.172 20.5 105.008 20.5C104.832 20.5 104.684 20.4453 104.562 20.3359C104.445 20.2266 104.387 20.0566 104.387 19.8262ZM110.299 28.1172C109.334 28.1172 108.576 27.8262 108.025 27.2441C107.479 26.6582 107.205 25.8535 107.205 24.8301C107.205 23.7988 107.461 22.9785 107.973 22.3691C108.484 21.7559 109.176 21.4492 110.047 21.4492C110.855 21.4492 111.5 21.7109 111.98 22.2344C112.461 22.7539 112.701 23.459 112.701 24.3496V24.9883H108.295C108.314 25.7188 108.5 26.2734 108.852 26.6523C109.203 27.0312 109.701 27.2207 110.346 27.2207C110.689 27.2207 111.016 27.1914 111.324 27.1328C111.633 27.0703 111.994 26.9512 112.408 26.7754V27.7012C112.053 27.8535 111.719 27.9609 111.406 28.0234C111.094 28.0859 110.725 28.1172 110.299 28.1172ZM110.035 22.3105C109.531 22.3105 109.133 22.4727 108.84 22.7969C108.547 23.1211 108.373 23.5723 108.318 24.1504H111.594C111.586 23.5488 111.447 23.0918 111.178 22.7793C110.908 22.4668 110.527 22.3105 110.035 22.3105ZM118.719 28V23.8867C118.719 23.3633 118.602 22.9746 118.367 22.7207C118.137 22.4629 117.773 22.334 117.277 22.334C116.617 22.334 116.137 22.5176 115.836 22.8848C115.539 23.248 115.391 23.8418 115.391 24.666V28H114.336V21.5664H115.186L115.344 22.4453H115.402C115.602 22.1289 115.881 21.8848 116.24 21.7129C116.6 21.5371 116.996 21.4492 117.43 21.4492C118.219 21.4492 118.805 21.6406 119.188 22.0234C119.57 22.4062 119.762 23.002 119.762 23.8105V28H118.719ZM124.332 28.1172C123.406 28.1172 122.686 27.834 122.17 27.2676C121.654 26.6973 121.396 25.8809 121.396 24.8184C121.396 23.7402 121.656 22.9102 122.176 22.3281C122.699 21.7422 123.443 21.4492 124.408 21.4492C124.721 21.4492 125.029 21.4824 125.334 21.5488C125.643 21.6113 125.896 21.6934 126.096 21.7949L125.773 22.6738C125.23 22.4707 124.768 22.3691 124.385 22.3691C123.736 22.3691 123.258 22.5742 122.949 22.9844C122.641 23.3906 122.486 23.998 122.486 24.8066C122.486 25.584 122.641 26.1797 122.949 26.5938C123.258 27.0039 123.715 27.209 124.32 27.209C124.887 27.209 125.443 27.084 125.99 26.834V27.7715C125.545 28.002 124.992 28.1172 124.332 28.1172ZM126.512 21.5664H127.643L129.031 25.2285C129.324 26.0254 129.504 26.6094 129.57 26.9805H129.617C129.652 26.8359 129.732 26.5664 129.857 26.1719C129.982 25.7734 130.088 25.4551 130.174 25.2168L131.48 21.5664H132.617L129.846 28.8906C129.576 29.6016 129.256 30.1113 128.885 30.4199C128.514 30.7285 128.055 30.8828 127.508 30.8828C127.215 30.8828 126.924 30.8496 126.635 30.7832V29.9453C126.83 29.9922 127.064 30.0156 127.338 30.0156C127.674 30.0156 127.959 29.9219 128.193 29.7344C128.428 29.5508 128.619 29.2656 128.768 28.8789L129.102 28.0234L126.512 21.5664ZM136.555 23.9512C136.555 23.3926 136.588 22.8457 136.654 22.3105C136.725 21.7754 136.83 21.2578 136.971 20.7578C137.115 20.2578 137.295 19.7793 137.51 19.3223C137.729 18.8613 137.988 18.4277 138.289 18.0215H139.262C138.992 18.4473 138.752 18.8945 138.541 19.3633C138.33 19.832 138.152 20.3203 138.008 20.8281C137.863 21.3359 137.756 21.8535 137.686 22.3809C137.615 22.9043 137.58 23.4316 137.58 23.9629C137.58 25.0527 137.723 26.1133 138.008 27.1445C138.293 28.1719 138.715 29.1172 139.273 29.9805H138.289C137.988 29.5664 137.729 29.123 137.51 28.6504C137.295 28.1816 137.115 27.6914 136.971 27.1797C136.83 26.6641 136.725 26.1367 136.654 25.5977C136.588 25.0547 136.555 24.5059 136.555 23.9512ZM141.529 22.5801C141.529 23.0488 141.598 23.4004 141.734 23.6348C141.871 23.8691 142.092 23.9863 142.396 23.9863C142.994 23.9863 143.293 23.5176 143.293 22.5801C143.293 21.6426 142.994 21.1738 142.396 21.1738C142.092 21.1738 141.871 21.291 141.734 21.5254C141.598 21.7598 141.529 22.1113 141.529 22.5801ZM144.16 22.5801C144.16 22.916 144.125 23.2207 144.055 23.4941C143.988 23.7637 143.883 23.9922 143.738 24.1797C143.594 24.3672 143.41 24.5098 143.188 24.6074C142.965 24.7051 142.701 24.7539 142.396 24.7539C142.111 24.7539 141.861 24.7051 141.646 24.6074C141.432 24.5098 141.25 24.3672 141.102 24.1797C140.953 23.9922 140.842 23.7637 140.768 23.4941C140.697 23.2207 140.662 22.916 140.662 22.5801C140.662 22.2402 140.695 21.9355 140.762 21.666C140.828 21.3965 140.932 21.1699 141.072 20.9863C141.217 20.7988 141.398 20.6582 141.617 20.5645C141.836 20.4668 142.096 20.418 142.396 20.418C142.686 20.418 142.939 20.4668 143.158 20.5645C143.377 20.6582 143.561 20.7988 143.709 20.9863C143.861 21.1699 143.975 21.3965 144.049 21.666C144.123 21.9355 144.16 22.2402 144.16 22.5801ZM146.598 25.9434C146.598 26.4121 146.666 26.7637 146.803 26.998C146.939 27.2285 147.16 27.3438 147.465 27.3438C148.062 27.3438 148.361 26.877 148.361 25.9434C148.361 25.0059 148.062 24.5371 147.465 24.5371C147.16 24.5371 146.939 24.6543 146.803 24.8887C146.666 25.1191 146.598 25.4707 146.598 25.9434ZM149.223 25.9434C149.223 26.2832 149.189 26.5879 149.123 26.8574C149.057 27.123 148.951 27.3496 148.807 27.5371C148.662 27.7246 148.479 27.8691 148.256 27.9707C148.037 28.0684 147.773 28.1172 147.465 28.1172C147.18 28.1172 146.928 28.0684 146.709 27.9707C146.494 27.8691 146.314 27.7246 146.17 27.5371C146.025 27.3496 145.916 27.123 145.842 26.8574C145.768 26.5879 145.73 26.2832 145.73 25.9434C145.73 25.6035 145.764 25.2988 145.83 25.0293C145.9 24.7598 146.006 24.5332 146.146 24.3496C146.287 24.166 146.467 24.0254 146.686 23.9277C146.904 23.8301 147.164 23.7812 147.465 23.7812C147.758 23.7812 148.014 23.8301 148.232 23.9277C148.451 24.0254 148.633 24.166 148.777 24.3496C148.926 24.5332 149.037 24.7598 149.111 25.0293C149.186 25.2988 149.223 25.6035 149.223 25.9434ZM147.734 20.5352L143.111 28H142.174L146.809 20.5352H147.734ZM153.336 24.0508C153.336 24.6094 153.301 25.1562 153.23 25.6914C153.164 26.2266 153.059 26.7441 152.914 27.2441C152.773 27.7441 152.594 28.2227 152.375 28.6797C152.16 29.1406 151.902 29.5742 151.602 29.9805H150.629C150.898 29.5547 151.139 29.1074 151.35 28.6387C151.561 28.1699 151.738 27.6816 151.883 27.1738C152.027 26.666 152.135 26.1504 152.205 25.627C152.275 25.0996 152.311 24.5703 152.311 24.0391C152.311 22.9492 152.168 21.8906 151.883 20.8633C151.598 19.832 151.176 18.8848 150.617 18.0215H151.602C151.902 18.4355 152.16 18.8789 152.375 19.3516C152.594 19.8203 152.773 20.3125 152.914 20.8281C153.059 21.3398 153.164 21.8672 153.23 22.4102C153.301 22.9492 153.336 23.4961 153.336 24.0508ZM159.711 28L157.273 21.5664H158.404L159.77 25.3574C160.039 26.1191 160.211 26.6875 160.285 27.0625H160.332C160.344 27.0117 160.357 26.9551 160.373 26.8926C160.393 26.8262 160.414 26.7559 160.438 26.6816C160.461 26.6035 160.605 26.1621 160.871 25.3574L162.242 21.5664H163.367L160.924 28H159.711ZM168.576 26.2246C168.576 26.8262 168.352 27.293 167.902 27.625C167.453 27.9531 166.822 28.1172 166.01 28.1172C165.162 28.1172 164.488 27.9824 163.988 27.7129V26.752C164.695 27.0957 165.377 27.2676 166.033 27.2676C166.564 27.2676 166.951 27.1816 167.193 27.0098C167.436 26.8379 167.557 26.6074 167.557 26.3184C167.557 26.0645 167.439 25.8496 167.205 25.6738C166.975 25.498 166.562 25.2969 165.969 25.0703C165.363 24.8359 164.938 24.6367 164.691 24.4727C164.445 24.3047 164.264 24.1172 164.146 23.9102C164.033 23.7031 163.977 23.4512 163.977 23.1543C163.977 22.627 164.191 22.2109 164.621 21.9062C165.051 21.6016 165.641 21.4492 166.391 21.4492C167.121 21.4492 167.805 21.5938 168.441 21.8828L168.084 22.7207C167.432 22.4473 166.844 22.3105 166.32 22.3105C165.883 22.3105 165.551 22.3809 165.324 22.5215C165.098 22.6582 164.984 22.8477 164.984 23.0898C164.984 23.3242 165.082 23.5195 165.277 23.6758C165.473 23.8281 165.928 24.041 166.643 24.3145C167.178 24.5137 167.572 24.6992 167.826 24.8711C168.084 25.043 168.273 25.2363 168.395 25.4512C168.516 25.666 168.576 25.9238 168.576 26.2246ZM175.812 28H172.719V27.3789L173.727 27.1504V20.2949L172.719 20.0547V19.4336H175.812V20.0547L174.805 20.2949V27.1504L175.812 27.3789V28ZM181.707 28V23.8867C181.707 23.3633 181.59 22.9746 181.355 22.7207C181.125 22.4629 180.762 22.334 180.266 22.334C179.605 22.334 179.125 22.5176 178.824 22.8848C178.527 23.248 178.379 23.8418 178.379 24.666V28H177.324V21.5664H178.174L178.332 22.4453H178.391C178.59 22.1289 178.869 21.8848 179.229 21.7129C179.588 21.5371 179.984 21.4492 180.418 21.4492C181.207 21.4492 181.793 21.6406 182.176 22.0234C182.559 22.4062 182.75 23.002 182.75 23.8105V28H181.707ZM185.797 28H184.742V18.8828H185.797V28ZM190.572 28.1172C189.607 28.1172 188.85 27.8262 188.299 27.2441C187.752 26.6582 187.479 25.8535 187.479 24.8301C187.479 23.7988 187.734 22.9785 188.246 22.3691C188.758 21.7559 189.449 21.4492 190.32 21.4492C191.129 21.4492 191.773 21.7109 192.254 22.2344C192.734 22.7539 192.975 23.459 192.975 24.3496V24.9883H188.568C188.588 25.7188 188.773 26.2734 189.125 26.6523C189.477 27.0312 189.975 27.2207 190.619 27.2207C190.963 27.2207 191.289 27.1914 191.598 27.1328C191.906 27.0703 192.268 26.9512 192.682 26.7754V27.7012C192.326 27.8535 191.992 27.9609 191.68 28.0234C191.367 28.0859 190.998 28.1172 190.572 28.1172ZM190.309 22.3105C189.805 22.3105 189.406 22.4727 189.113 22.7969C188.82 23.1211 188.646 23.5723 188.592 24.1504H191.867C191.859 23.5488 191.721 23.0918 191.451 22.7793C191.182 22.4668 190.801 22.3105 190.309 22.3105ZM196.76 27.2559C196.896 27.2559 197.057 27.2422 197.24 27.2148C197.424 27.1875 197.562 27.1562 197.656 27.1211V27.9297C197.559 27.9727 197.406 28.0137 197.199 28.0527C196.996 28.0957 196.789 28.1172 196.578 28.1172C195.32 28.1172 194.691 27.4551 194.691 26.1309V22.3867H193.783V21.8828L194.703 21.4609L195.125 20.0898H195.752V21.5664H197.609V22.3867H195.752V26.1016C195.752 26.4727 195.84 26.7578 196.016 26.957C196.195 27.1562 196.443 27.2559 196.76 27.2559ZM201.043 19.4336H202.174L204.102 24.9297C204.348 25.625 204.527 26.248 204.641 26.7988C204.738 26.3066 204.92 25.6758 205.186 24.9062L207.102 19.4336H208.244L205.186 28H204.102L201.043 19.4336ZM214.742 24.7715C214.742 25.8223 214.477 26.6426 213.945 27.2324C213.414 27.8223 212.68 28.1172 211.742 28.1172C211.16 28.1172 210.645 27.9824 210.195 27.7129C209.746 27.4395 209.4 27.0488 209.158 26.541C208.916 26.0332 208.795 25.4434 208.795 24.7715C208.795 23.7246 209.057 22.9102 209.58 22.3281C210.104 21.7422 210.838 21.4492 211.783 21.4492C212.689 21.4492 213.408 21.748 213.939 22.3457C214.475 22.9395 214.742 23.748 214.742 24.7715ZM209.885 24.7715C209.885 25.5801 210.043 26.1953 210.359 26.6172C210.68 27.0352 211.15 27.2441 211.771 27.2441C212.385 27.2441 212.852 27.0352 213.172 26.6172C213.492 26.1953 213.652 25.5801 213.652 24.7715C213.652 23.9629 213.49 23.3555 213.166 22.9492C212.846 22.5391 212.375 22.334 211.754 22.334C210.508 22.334 209.885 23.1465 209.885 24.7715ZM217.473 28H216.418V18.8828H217.473V28ZM220.508 21.5664V25.709C220.508 26.2285 220.623 26.6152 220.854 26.8691C221.088 27.1191 221.449 27.2441 221.938 27.2441C222.598 27.2441 223.078 27.0605 223.379 26.6934C223.68 26.3262 223.83 25.7344 223.83 24.918V21.5664H224.891V28H224.023L223.871 27.1504H223.818C223.627 27.459 223.355 27.6973 223.004 27.8652C222.652 28.0332 222.244 28.1172 221.779 28.1172C221.006 28.1172 220.422 27.9316 220.027 27.5605C219.637 27.1895 219.441 26.5957 219.441 25.7793V21.5664H220.508ZM235.115 28V23.8574C235.115 22.8418 234.68 22.334 233.809 22.334C233.211 22.334 232.771 22.5078 232.49 22.8555C232.209 23.2031 232.068 23.7344 232.068 24.4492V28H231.02V23.8574C231.02 23.3496 230.912 22.9688 230.697 22.7148C230.486 22.4609 230.154 22.334 229.701 22.334C229.107 22.334 228.672 22.5156 228.395 22.8789C228.121 23.2422 227.984 23.8379 227.984 24.666V28H226.93V21.5664H227.779L227.938 22.4453H227.996C228.18 22.1328 228.438 21.8887 228.77 21.7129C229.105 21.5371 229.48 21.4492 229.895 21.4492C230.902 21.4492 231.559 21.8086 231.863 22.5273H231.922C232.129 22.1836 232.41 21.918 232.766 21.7305C233.125 21.543 233.531 21.4492 233.984 21.4492C234.711 21.4492 235.254 21.6367 235.613 22.0117C235.977 22.3867 236.158 22.9863 236.158 23.8105V28H235.115ZM240.893 28.1172C239.928 28.1172 239.17 27.8262 238.619 27.2441C238.072 26.6582 237.799 25.8535 237.799 24.8301C237.799 23.7988 238.055 22.9785 238.566 22.3691C239.078 21.7559 239.77 21.4492 240.641 21.4492C241.449 21.4492 242.094 21.7109 242.574 22.2344C243.055 22.7539 243.295 23.459 243.295 24.3496V24.9883H238.889C238.908 25.7188 239.094 26.2734 239.445 26.6523C239.797 27.0312 240.295 27.2207 240.939 27.2207C241.283 27.2207 241.609 27.1914 241.918 27.1328C242.227 27.0703 242.588 26.9512 243.002 26.7754V27.7012C242.646 27.8535 242.312 27.9609 242 28.0234C241.688 28.0859 241.318 28.1172 240.893 28.1172ZM240.629 22.3105C240.125 22.3105 239.727 22.4727 239.434 22.7969C239.141 23.1211 238.967 23.5723 238.912 24.1504H242.188C242.18 23.5488 242.041 23.0918 241.771 22.7793C241.502 22.4668 241.121 22.3105 240.629 22.3105ZM247.08 27.2559C247.217 27.2559 247.377 27.2422 247.561 27.2148C247.744 27.1875 247.883 27.1562 247.977 27.1211V27.9297C247.879 27.9727 247.727 28.0137 247.52 28.0527C247.316 28.0957 247.109 28.1172 246.898 28.1172C245.641 28.1172 245.012 27.4551 245.012 26.1309V22.3867H244.104V21.8828L245.023 21.4609L245.445 20.0898H246.072V21.5664H247.93V22.3867H246.072V26.1016C246.072 26.4727 246.16 26.7578 246.336 26.957C246.516 27.1562 246.764 27.2559 247.08 27.2559ZM252.266 21.4492C252.551 21.4492 252.803 21.4727 253.021 21.5195L252.893 22.4922C252.654 22.4375 252.422 22.4102 252.195 22.4102C251.855 22.4102 251.539 22.5039 251.246 22.6914C250.957 22.8789 250.73 23.1387 250.566 23.4707C250.402 23.7988 250.32 24.1641 250.32 24.5664V28H249.266V21.5664H250.133L250.25 22.7441H250.297C250.543 22.3184 250.834 21.9961 251.17 21.7773C251.506 21.5586 251.871 21.4492 252.266 21.4492ZM255.277 28H254.223V21.5664H255.277V28ZM254.141 19.8262C254.141 19.5918 254.199 19.4219 254.316 19.3164C254.438 19.2109 254.586 19.1582 254.762 19.1582C254.926 19.1582 255.068 19.2109 255.189 19.3164C255.314 19.4219 255.377 19.5918 255.377 19.8262C255.377 20.0566 255.314 20.2266 255.189 20.3359C255.068 20.4453 254.926 20.5 254.762 20.5C254.586 20.5 254.438 20.4453 254.316 20.3359C254.199 20.2266 254.141 20.0566 254.141 19.8262ZM259.895 28.1172C258.969 28.1172 258.248 27.834 257.732 27.2676C257.217 26.6973 256.959 25.8809 256.959 24.8184C256.959 23.7402 257.219 22.9102 257.738 22.3281C258.262 21.7422 259.006 21.4492 259.971 21.4492C260.283 21.4492 260.592 21.4824 260.896 21.5488C261.205 21.6113 261.459 21.6934 261.658 21.7949L261.336 22.6738C260.793 22.4707 260.33 22.3691 259.947 22.3691C259.299 22.3691 258.82 22.5742 258.512 22.9844C258.203 23.3906 258.049 23.998 258.049 24.8066C258.049 25.584 258.203 26.1797 258.512 26.5938C258.82 27.0039 259.277 27.209 259.883 27.209C260.449 27.209 261.006 27.084 261.553 26.834V27.7715C261.107 28.002 260.555 28.1172 259.895 28.1172ZM267.424 28H266.346V19.4336H271.133V20.3828H267.424V23.418H270.904V24.3613H267.424V28ZM273.488 28H272.434V18.8828H273.488V28ZM281.117 24.7715C281.117 25.8223 280.852 26.6426 280.32 27.2324C279.789 27.8223 279.055 28.1172 278.117 28.1172C277.535 28.1172 277.02 27.9824 276.57 27.7129C276.121 27.4395 275.775 27.0488 275.533 26.541C275.291 26.0332 275.17 25.4434 275.17 24.7715C275.17 23.7246 275.432 22.9102 275.955 22.3281C276.479 21.7422 277.213 21.4492 278.158 21.4492C279.064 21.4492 279.783 21.748 280.314 22.3457C280.85 22.9395 281.117 23.748 281.117 24.7715ZM276.26 24.7715C276.26 25.5801 276.418 26.1953 276.734 26.6172C277.055 27.0352 277.525 27.2441 278.146 27.2441C278.76 27.2441 279.227 27.0352 279.547 26.6172C279.867 26.1953 280.027 25.5801 280.027 24.7715C280.027 23.9629 279.865 23.3555 279.541 22.9492C279.221 22.5391 278.75 22.334 278.129 22.334C276.883 22.334 276.26 23.1465 276.26 24.7715ZM287.932 28L286.83 24.3789C286.729 24.0781 286.58 23.5098 286.385 22.6738H286.338C286.174 23.4355 286.029 24.0078 285.904 24.3906L284.75 28H283.555L281.791 21.5664H282.881C283.287 23.1484 283.596 24.3516 283.807 25.1758C284.021 26 284.148 26.582 284.188 26.9219H284.234L284.316 26.5586C284.438 26 284.555 25.5449 284.668 25.1934L285.811 21.5664H286.959L288.066 25.1934C288.105 25.3301 288.146 25.4766 288.189 25.6328C288.236 25.7852 288.279 25.9375 288.318 26.0898C288.357 26.2383 288.393 26.3848 288.424 26.5293C288.455 26.6699 288.479 26.7969 288.494 26.9102H288.547C288.582 26.6133 288.725 25.9766 288.975 25L289.877 21.5664H290.955L289.168 28H287.932ZM295.027 23.9512C295.027 23.3926 295.061 22.8457 295.127 22.3105C295.197 21.7754 295.303 21.2578 295.443 20.7578C295.588 20.2578 295.768 19.7793 295.982 19.3223C296.201 18.8613 296.461 18.4277 296.762 18.0215H297.734C297.465 18.4473 297.225 18.8945 297.014 19.3633C296.803 19.832 296.625 20.3203 296.48 20.8281C296.336 21.3359 296.229 21.8535 296.158 22.3809C296.088 22.9043 296.053 23.4316 296.053 23.9629C296.053 25.0527 296.195 26.1133 296.48 27.1445C296.766 28.1719 297.188 29.1172 297.746 29.9805H296.762C296.461 29.5664 296.201 29.123 295.982 28.6504C295.768 28.1816 295.588 27.6914 295.443 27.1797C295.303 26.6641 295.197 26.1367 295.127 25.5977C295.061 25.0547 295.027 24.5059 295.027 23.9512ZM307.654 28V23.8574C307.654 22.8418 307.219 22.334 306.348 22.334C305.75 22.334 305.311 22.5078 305.029 22.8555C304.748 23.2031 304.607 23.7344 304.607 24.4492V28H303.559V23.8574C303.559 23.3496 303.451 22.9688 303.236 22.7148C303.025 22.4609 302.693 22.334 302.24 22.334C301.646 22.334 301.211 22.5156 300.934 22.8789C300.66 23.2422 300.523 23.8379 300.523 24.666V28H299.469V21.5664H300.318L300.477 22.4453H300.535C300.719 22.1328 300.977 21.8887 301.309 21.7129C301.645 21.5371 302.02 21.4492 302.434 21.4492C303.441 21.4492 304.098 21.8086 304.402 22.5273H304.461C304.668 22.1836 304.949 21.918 305.305 21.7305C305.664 21.543 306.07 21.4492 306.523 21.4492C307.25 21.4492 307.793 21.6367 308.152 22.0117C308.516 22.3867 308.697 22.9863 308.697 23.8105V28H307.654ZM320.557 18.0098L317.41 29.9863H316.414L319.572 18.0098H320.557ZM326.275 26.2246C326.275 26.8262 326.051 27.293 325.602 27.625C325.152 27.9531 324.521 28.1172 323.709 28.1172C322.861 28.1172 322.188 27.9824 321.688 27.7129V26.752C322.395 27.0957 323.076 27.2676 323.732 27.2676C324.264 27.2676 324.65 27.1816 324.893 27.0098C325.135 26.8379 325.256 26.6074 325.256 26.3184C325.256 26.0645 325.139 25.8496 324.904 25.6738C324.674 25.498 324.262 25.2969 323.668 25.0703C323.062 24.8359 322.637 24.6367 322.391 24.4727C322.145 24.3047 321.963 24.1172 321.846 23.9102C321.732 23.7031 321.676 23.4512 321.676 23.1543C321.676 22.627 321.891 22.2109 322.32 21.9062C322.75 21.6016 323.34 21.4492 324.09 21.4492C324.82 21.4492 325.504 21.5938 326.141 21.8828L325.783 22.7207C325.131 22.4473 324.543 22.3105 324.02 22.3105C323.582 22.3105 323.25 22.3809 323.023 22.5215C322.797 22.6582 322.684 22.8477 322.684 23.0898C322.684 23.3242 322.781 23.5195 322.977 23.6758C323.172 23.8281 323.627 24.041 324.342 24.3145C324.877 24.5137 325.271 24.6992 325.525 24.8711C325.783 25.043 325.973 25.2363 326.094 25.4512C326.215 25.666 326.275 25.9238 326.275 26.2246ZM330.242 24.0508C330.242 24.6094 330.207 25.1562 330.137 25.6914C330.07 26.2266 329.965 26.7441 329.82 27.2441C329.68 27.7441 329.5 28.2227 329.281 28.6797C329.066 29.1406 328.809 29.5742 328.508 29.9805H327.535C327.805 29.5547 328.045 29.1074 328.256 28.6387C328.467 28.1699 328.645 27.6816 328.789 27.1738C328.934 26.666 329.041 26.1504 329.111 25.627C329.182 25.0996 329.217 24.5703 329.217 24.0391C329.217 22.9492 329.074 21.8906 328.789 20.8633C328.504 19.832 328.082 18.8848 327.523 18.0215H328.508C328.809 18.4355 329.066 18.8789 329.281 19.3516C329.5 19.8203 329.68 20.3125 329.82 20.8281C329.965 21.3398 330.07 21.8672 330.137 22.4102C330.207 22.9492 330.242 23.4961 330.242 24.0508Z" fill="#121212"/>
<path d="M195.285 249.709C195.285 250.455 195.016 251.043 194.477 251.473C193.938 251.902 193.188 252.117 192.227 252.117C191.211 252.117 190.426 251.982 189.871 251.713V250.682C190.234 250.838 190.631 250.961 191.061 251.051C191.494 251.141 191.898 251.186 192.273 251.186C192.914 251.186 193.396 251.062 193.721 250.816C194.045 250.57 194.207 250.232 194.207 249.803C194.207 249.518 194.148 249.283 194.031 249.1C193.914 248.916 193.717 248.744 193.439 248.584C193.166 248.424 192.75 248.242 192.191 248.039C191.398 247.75 190.832 247.41 190.492 247.02C190.152 246.625 189.982 246.117 189.982 245.496C189.982 244.828 190.232 244.297 190.732 243.902C191.236 243.508 191.898 243.311 192.719 243.311C193.574 243.311 194.361 243.471 195.08 243.791L194.746 244.717C194.012 244.412 193.328 244.26 192.695 244.26C192.188 244.26 191.789 244.369 191.5 244.588C191.215 244.807 191.072 245.113 191.072 245.508C191.072 245.789 191.127 246.023 191.236 246.211C191.35 246.395 191.529 246.562 191.775 246.715C192.025 246.867 192.416 247.041 192.947 247.236C193.584 247.471 194.059 247.699 194.371 247.922C194.684 248.141 194.914 248.395 195.062 248.684C195.211 248.969 195.285 249.311 195.285 249.709ZM199.018 251.256C199.154 251.256 199.314 251.242 199.498 251.215C199.682 251.188 199.82 251.156 199.914 251.121V251.93C199.816 251.973 199.664 252.014 199.457 252.053C199.254 252.096 199.047 252.117 198.836 252.117C197.578 252.117 196.949 251.455 196.949 250.131V246.387H196.041V245.883L196.961 245.461L197.383 244.09H198.01V245.566H199.867V246.387H198.01V250.102C198.01 250.473 198.098 250.758 198.273 250.957C198.453 251.156 198.701 251.256 199.018 251.256ZM205.176 252L204.971 251.086H204.924C204.604 251.488 204.283 251.762 203.963 251.906C203.646 252.047 203.246 252.117 202.762 252.117C202.129 252.117 201.633 251.951 201.273 251.619C200.914 251.287 200.734 250.818 200.734 250.213C200.734 248.908 201.764 248.225 203.822 248.162L204.912 248.121V247.74C204.912 247.252 204.807 246.893 204.596 246.662C204.385 246.428 204.047 246.311 203.582 246.311C203.242 246.311 202.92 246.361 202.615 246.463C202.314 246.564 202.031 246.678 201.766 246.803L201.443 246.012C201.768 245.84 202.121 245.705 202.504 245.607C202.887 245.51 203.266 245.461 203.641 245.461C204.418 245.461 204.996 245.633 205.375 245.977C205.754 246.32 205.943 246.867 205.943 247.617V252H205.176ZM203.002 251.268C203.592 251.268 204.055 251.109 204.391 250.793C204.73 250.473 204.9 250.02 204.9 249.434V248.854L203.951 248.895C203.213 248.922 202.674 249.039 202.334 249.246C201.998 249.453 201.83 249.779 201.83 250.225C201.83 250.561 201.932 250.818 202.135 250.998C202.342 251.178 202.631 251.268 203.002 251.268ZM210.391 251.256C211.039 251.256 211.51 251.082 211.803 250.734C212.1 250.383 212.248 249.82 212.248 249.047V248.795C212.248 247.936 212.1 247.311 211.803 246.92C211.506 246.529 211.027 246.334 210.367 246.334C209.828 246.334 209.41 246.549 209.113 246.979C208.82 247.404 208.674 248.014 208.674 248.807C208.674 249.604 208.816 250.211 209.102 250.629C209.391 251.047 209.82 251.256 210.391 251.256ZM212.236 251.941L212.271 251.15H212.225C211.791 251.795 211.127 252.117 210.232 252.117C209.4 252.117 208.75 251.828 208.281 251.25C207.816 250.668 207.584 249.85 207.584 248.795C207.584 247.76 207.818 246.943 208.287 246.346C208.76 245.748 209.404 245.449 210.221 245.449C211.092 245.449 211.764 245.773 212.236 246.422H212.301L212.441 245.566H213.279V252.105C213.279 253.027 213.045 253.721 212.576 254.186C212.111 254.65 211.387 254.883 210.402 254.883C209.465 254.883 208.693 254.746 208.088 254.473V253.5C208.713 253.836 209.504 254.004 210.461 254.004C211.008 254.004 211.439 253.844 211.756 253.523C212.076 253.203 212.236 252.76 212.236 252.193V251.941ZM218.061 252.117C217.096 252.117 216.338 251.826 215.787 251.244C215.24 250.658 214.967 249.854 214.967 248.83C214.967 247.799 215.223 246.979 215.734 246.369C216.246 245.756 216.938 245.449 217.809 245.449C218.617 245.449 219.262 245.711 219.742 246.234C220.223 246.754 220.463 247.459 220.463 248.35V248.988H216.057C216.076 249.719 216.262 250.273 216.613 250.652C216.965 251.031 217.463 251.221 218.107 251.221C218.451 251.221 218.777 251.191 219.086 251.133C219.395 251.07 219.756 250.951 220.17 250.775V251.701C219.814 251.854 219.48 251.961 219.168 252.023C218.855 252.086 218.486 252.117 218.061 252.117ZM217.797 246.311C217.293 246.311 216.895 246.473 216.602 246.797C216.309 247.121 216.135 247.572 216.08 248.15H219.355C219.348 247.549 219.209 247.092 218.939 246.779C218.67 246.467 218.289 246.311 217.797 246.311ZM224.781 248.93V247.945H227.688V248.93H224.781ZM235.557 252H234.525V246.65C234.525 246.482 234.525 246.303 234.525 246.111C234.529 245.92 234.533 245.73 234.537 245.543C234.545 245.352 234.551 245.17 234.555 244.998C234.562 244.822 234.568 244.668 234.572 244.535C234.506 244.605 234.447 244.666 234.396 244.717C234.346 244.768 234.293 244.816 234.238 244.863C234.188 244.91 234.133 244.961 234.074 245.016C234.016 245.066 233.945 245.127 233.863 245.197L232.996 245.906L232.434 245.186L234.678 243.434H235.557V252Z" fill="#595959"/>
<path d="M310.48 19.672C310.517 19.1813 310.707 18.7973 311.048 18.52C311.389 18.2427 311.832 18.104 312.376 18.104C312.739 18.104 313.051 18.1707 313.312 18.304C313.579 18.432 313.779 18.608 313.912 18.832C314.051 19.056 314.12 19.3093 314.12 19.592C314.12 19.9227 314.024 20.208 313.832 20.448C313.645 20.688 313.4 20.8427 313.096 20.912V20.952C313.443 21.0373 313.717 21.2053 313.92 21.456C314.123 21.7067 314.224 22.0347 314.224 22.44C314.224 22.744 314.155 23.0187 314.016 23.264C313.877 23.504 313.669 23.6933 313.392 23.832C313.115 23.9707 312.781 24.04 312.392 24.04C311.827 24.04 311.363 23.8933 311 23.6C310.637 23.3013 310.435 22.88 310.392 22.336H311.096C311.133 22.656 311.264 22.9173 311.488 23.12C311.712 23.3227 312.011 23.424 312.384 23.424C312.757 23.424 313.04 23.328 313.232 23.136C313.429 22.9387 313.528 22.6853 313.528 22.376C313.528 21.976 313.395 21.688 313.128 21.512C312.861 21.336 312.459 21.248 311.92 21.248H311.736V20.64H311.928C312.419 20.6347 312.789 20.5547 313.04 20.4C313.291 20.24 313.416 19.9947 313.416 19.664C313.416 19.3813 313.323 19.1547 313.136 18.984C312.955 18.8133 312.693 18.728 312.352 18.728C312.021 18.728 311.755 18.8133 311.552 18.984C311.349 19.1547 311.229 19.384 311.192 19.672H310.48Z" fill="#1A2321"/>
<defs>
<clipPath id="clip0_0_1">
<rect width="40" height="16" fill="white" transform="translate(0 50)"/>
</clipPath>
<clipPath id="clip1_0_1">
<rect width="40" height="16" fill="white" transform="translate(0 129)"/>
</clipPath>
<clipPath id="clip2_0_1">
<rect width="40" height="16" fill="white" transform="translate(0 206)"/>
</clipPath>
<clipPath id="clip3_0_1">
<rect width="396" height="22" fill="white" transform="translate(14 216)"/>
</clipPath>
</defs>
</svg>
