<svg width="425" height="265" viewBox="0 0 425 265" fill="none" xmlns="http://www.w3.org/2000/svg">
<rect width="425" height="265" fill="#F5F5F5"/>
<rect x="-12936" y="-5378" width="23840" height="13376" fill="#F8FAF9"/>
<rect width="425" height="265" rx="4" fill="white"/>
<rect x="42.25" y="86.25" width="365.5" height="0.5" stroke="#EBEFEE" stroke-width="0.5"/>
<rect x="42.25" y="127.25" width="365.5" height="0.5" stroke="#EBEFEE" stroke-width="0.5"/>
<rect x="0.25" y="-0.25" width="365.5" height="0.5" transform="matrix(1 0 0 -1 42 169.5)" stroke="#EBEFEE" stroke-width="0.5"/>
<rect x="42" y="209" width="366" height="1" fill="#CED7D4"/>
<path d="M66.9984 223.705C66.9984 224.396 66.9476 225.016 66.846 225.562C66.7484 226.109 66.5882 226.572 66.3656 226.951C66.1468 227.33 65.8636 227.619 65.5159 227.818C65.1683 228.018 64.7464 228.117 64.2503 228.117C63.7894 228.117 63.387 228.018 63.0433 227.818C62.7034 227.619 62.4202 227.33 62.1937 226.951C61.971 226.572 61.8031 226.109 61.6898 225.562C61.5804 225.016 61.5257 224.396 61.5257 223.705C61.5257 223.014 61.5745 222.395 61.6722 221.848C61.7738 221.301 61.932 220.84 62.1468 220.465C62.3656 220.086 62.6468 219.797 62.9906 219.598C63.3382 219.398 63.7581 219.299 64.2503 219.299C64.7152 219.299 65.1195 219.398 65.4632 219.598C65.807 219.793 66.0921 220.08 66.3187 220.459C66.5452 220.834 66.7152 221.295 66.8284 221.842C66.9417 222.389 66.9984 223.01 66.9984 223.705ZM62.6097 223.705C62.6097 224.291 62.639 224.803 62.6976 225.24C62.7562 225.678 62.8499 226.043 62.9788 226.336C63.1077 226.625 63.2757 226.844 63.4827 226.992C63.6937 227.137 63.9495 227.209 64.2503 227.209C64.5511 227.209 64.807 227.137 65.0179 226.992C65.2288 226.848 65.4007 226.631 65.5335 226.342C65.6702 226.053 65.7679 225.689 65.8265 225.252C65.889 224.811 65.9202 224.295 65.9202 223.705C65.9202 223.119 65.889 222.607 65.8265 222.17C65.7679 221.732 65.6702 221.369 65.5335 221.08C65.4007 220.791 65.2288 220.574 65.0179 220.43C64.807 220.285 64.5511 220.213 64.2503 220.213C63.9495 220.213 63.6937 220.285 63.4827 220.43C63.2757 220.574 63.1077 220.791 62.9788 221.08C62.8499 221.369 62.7562 221.732 62.6976 222.17C62.639 222.607 62.6097 223.119 62.6097 223.705Z" fill="#595959"/>
<path d="M121.337 228H120.306V222.65C120.306 222.482 120.306 222.303 120.306 222.111C120.31 221.92 120.314 221.73 120.318 221.543C120.325 221.352 120.331 221.17 120.335 220.998C120.343 220.822 120.349 220.668 120.353 220.535C120.286 220.605 120.228 220.666 120.177 220.717C120.126 220.768 120.073 220.816 120.019 220.863C119.968 220.91 119.913 220.961 119.855 221.016C119.796 221.066 119.726 221.127 119.644 221.197L118.777 221.906L118.214 221.186L120.458 219.434H121.337V228ZM129.827 223.705C129.827 224.396 129.777 225.016 129.675 225.562C129.577 226.109 129.417 226.572 129.194 226.951C128.976 227.33 128.693 227.619 128.345 227.818C127.997 228.018 127.575 228.117 127.079 228.117C126.618 228.117 126.216 228.018 125.872 227.818C125.532 227.619 125.249 227.33 125.023 226.951C124.8 226.572 124.632 226.109 124.519 225.562C124.409 225.016 124.355 224.396 124.355 223.705C124.355 223.014 124.403 222.395 124.501 221.848C124.603 221.301 124.761 220.84 124.976 220.465C125.194 220.086 125.476 219.797 125.819 219.598C126.167 219.398 126.587 219.299 127.079 219.299C127.544 219.299 127.948 219.398 128.292 219.598C128.636 219.793 128.921 220.08 129.148 220.459C129.374 220.834 129.544 221.295 129.657 221.842C129.771 222.389 129.827 223.01 129.827 223.705ZM125.439 223.705C125.439 224.291 125.468 224.803 125.527 225.24C125.585 225.678 125.679 226.043 125.808 226.336C125.937 226.625 126.105 226.844 126.312 226.992C126.523 227.137 126.778 227.209 127.079 227.209C127.38 227.209 127.636 227.137 127.847 226.992C128.058 226.848 128.23 226.631 128.362 226.342C128.499 226.053 128.597 225.689 128.655 225.252C128.718 224.811 128.749 224.295 128.749 223.705C128.749 223.119 128.718 222.607 128.655 222.17C128.597 221.732 128.499 221.369 128.362 221.08C128.23 220.791 128.058 220.574 127.847 220.43C127.636 220.285 127.38 220.213 127.079 220.213C126.778 220.213 126.523 220.285 126.312 220.43C126.105 220.574 125.937 220.791 125.808 221.08C125.679 221.369 125.585 221.732 125.527 222.17C125.468 222.607 125.439 223.119 125.439 223.705Z" fill="#595959"/>
<path d="M188.337 228H187.306V222.65C187.306 222.482 187.306 222.303 187.306 222.111C187.31 221.92 187.314 221.73 187.318 221.543C187.325 221.352 187.331 221.17 187.335 220.998C187.343 220.822 187.349 220.668 187.353 220.535C187.286 220.605 187.228 220.666 187.177 220.717C187.126 220.768 187.073 220.816 187.019 220.863C186.968 220.91 186.913 220.961 186.855 221.016C186.796 221.066 186.726 221.127 186.644 221.197L185.777 221.906L185.214 221.186L187.458 219.434H188.337V228ZM193.974 222.744C194.361 222.744 194.72 222.799 195.052 222.908C195.388 223.014 195.679 223.172 195.925 223.383C196.175 223.594 196.37 223.855 196.511 224.168C196.652 224.48 196.722 224.842 196.722 225.252C196.722 225.697 196.655 226.098 196.523 226.453C196.39 226.809 196.193 227.109 195.931 227.355C195.669 227.602 195.345 227.791 194.958 227.924C194.575 228.053 194.134 228.117 193.634 228.117C193.435 228.117 193.237 228.107 193.042 228.088C192.851 228.068 192.665 228.039 192.486 228C192.31 227.965 192.142 227.918 191.982 227.859C191.821 227.801 191.677 227.732 191.548 227.654V226.646C191.677 226.736 191.827 226.816 191.999 226.887C192.175 226.957 192.359 227.016 192.55 227.062C192.741 227.109 192.933 227.146 193.124 227.174C193.319 227.197 193.499 227.209 193.663 227.209C193.972 227.209 194.247 227.174 194.489 227.104C194.732 227.029 194.937 226.916 195.105 226.764C195.273 226.611 195.402 226.42 195.491 226.189C195.581 225.959 195.626 225.686 195.626 225.369C195.626 224.811 195.454 224.385 195.111 224.092C194.767 223.795 194.267 223.646 193.611 223.646C193.505 223.646 193.39 223.652 193.265 223.664C193.144 223.672 193.021 223.684 192.896 223.699C192.775 223.715 192.657 223.732 192.544 223.752C192.435 223.768 192.339 223.783 192.257 223.799L191.73 223.465L192.052 219.434H196.095V220.406H192.978L192.749 222.861C192.874 222.838 193.038 222.812 193.241 222.785C193.448 222.758 193.693 222.744 193.974 222.744Z" fill="#595959"/>
<path d="M262.468 228H257.124V227.086L259.175 224.854C259.468 224.537 259.729 224.248 259.96 223.986C260.19 223.725 260.385 223.469 260.546 223.219C260.71 222.969 260.835 222.719 260.921 222.469C261.007 222.215 261.05 221.939 261.05 221.643C261.05 221.412 261.016 221.209 260.95 221.033C260.884 220.857 260.788 220.709 260.663 220.588C260.542 220.463 260.397 220.369 260.229 220.307C260.061 220.244 259.874 220.213 259.667 220.213C259.296 220.213 258.96 220.289 258.659 220.441C258.362 220.59 258.079 220.781 257.809 221.016L257.212 220.318C257.368 220.178 257.536 220.047 257.716 219.926C257.895 219.801 258.089 219.693 258.296 219.604C258.503 219.514 258.721 219.443 258.952 219.393C259.182 219.338 259.425 219.311 259.678 219.311C260.053 219.311 260.391 219.363 260.692 219.469C260.997 219.574 261.255 219.727 261.466 219.926C261.677 220.121 261.839 220.361 261.952 220.646C262.069 220.928 262.128 221.246 262.128 221.602C262.128 221.934 262.075 222.25 261.969 222.551C261.868 222.852 261.725 223.148 261.542 223.441C261.362 223.73 261.145 224.021 260.891 224.314C260.641 224.607 260.37 224.912 260.077 225.229L258.43 226.98V227.027H262.468V228ZM269.218 223.705C269.218 224.396 269.167 225.016 269.065 225.562C268.968 226.109 268.807 226.572 268.585 226.951C268.366 227.33 268.083 227.619 267.735 227.818C267.387 228.018 266.966 228.117 266.469 228.117C266.009 228.117 265.606 228.018 265.262 227.818C264.923 227.619 264.639 227.33 264.413 226.951C264.19 226.572 264.022 226.109 263.909 225.562C263.8 225.016 263.745 224.396 263.745 223.705C263.745 223.014 263.794 222.395 263.891 221.848C263.993 221.301 264.151 220.84 264.366 220.465C264.585 220.086 264.866 219.797 265.21 219.598C265.557 219.398 265.977 219.299 266.469 219.299C266.934 219.299 267.339 219.398 267.682 219.598C268.026 219.793 268.311 220.08 268.538 220.459C268.764 220.834 268.934 221.295 269.048 221.842C269.161 222.389 269.218 223.01 269.218 223.705ZM264.829 223.705C264.829 224.291 264.858 224.803 264.917 225.24C264.975 225.678 265.069 226.043 265.198 226.336C265.327 226.625 265.495 226.844 265.702 226.992C265.913 227.137 266.169 227.209 266.469 227.209C266.77 227.209 267.026 227.137 267.237 226.992C267.448 226.848 267.62 226.631 267.753 226.342C267.889 226.053 267.987 225.689 268.046 225.252C268.108 224.811 268.139 224.295 268.139 223.705C268.139 223.119 268.108 222.607 268.046 222.17C267.987 221.732 267.889 221.369 267.753 221.08C267.62 220.791 267.448 220.574 267.237 220.43C267.026 220.285 266.77 220.213 266.469 220.213C266.169 220.213 265.913 220.285 265.702 220.43C265.495 220.574 265.327 220.791 265.198 221.08C265.069 221.369 264.975 221.732 264.917 222.17C264.858 222.607 264.829 223.119 264.829 223.705Z" fill="#595959"/>
<path d="M342.778 228H337.434V227.086L339.485 224.854C339.778 224.537 340.039 224.248 340.27 223.986C340.5 223.725 340.696 223.469 340.856 223.219C341.02 222.969 341.145 222.719 341.231 222.469C341.317 222.215 341.36 221.939 341.36 221.643C341.36 221.412 341.326 221.209 341.26 221.033C341.194 220.857 341.098 220.709 340.973 220.588C340.852 220.463 340.707 220.369 340.539 220.307C340.371 220.244 340.184 220.213 339.977 220.213C339.606 220.213 339.27 220.289 338.969 220.441C338.672 220.59 338.389 220.781 338.119 221.016L337.522 220.318C337.678 220.178 337.846 220.047 338.026 219.926C338.205 219.801 338.399 219.693 338.606 219.604C338.813 219.514 339.032 219.443 339.262 219.393C339.492 219.338 339.735 219.311 339.989 219.311C340.364 219.311 340.701 219.363 341.002 219.469C341.307 219.574 341.565 219.727 341.776 219.926C341.987 220.121 342.149 220.361 342.262 220.646C342.379 220.928 342.438 221.246 342.438 221.602C342.438 221.934 342.385 222.25 342.28 222.551C342.178 222.852 342.035 223.148 341.852 223.441C341.672 223.73 341.455 224.021 341.201 224.314C340.951 224.607 340.68 224.912 340.387 225.229L338.741 226.98V227.027H342.778V228ZM346.674 222.744C347.061 222.744 347.42 222.799 347.752 222.908C348.088 223.014 348.379 223.172 348.625 223.383C348.875 223.594 349.071 223.855 349.211 224.168C349.352 224.48 349.422 224.842 349.422 225.252C349.422 225.697 349.356 226.098 349.223 226.453C349.09 226.809 348.893 227.109 348.631 227.355C348.369 227.602 348.045 227.791 347.658 227.924C347.276 228.053 346.834 228.117 346.334 228.117C346.135 228.117 345.938 228.107 345.742 228.088C345.551 228.068 345.366 228.039 345.186 228C345.01 227.965 344.842 227.918 344.682 227.859C344.522 227.801 344.377 227.732 344.248 227.654V226.646C344.377 226.736 344.528 226.816 344.699 226.887C344.875 226.957 345.059 227.016 345.25 227.062C345.442 227.109 345.633 227.146 345.824 227.174C346.02 227.197 346.199 227.209 346.364 227.209C346.672 227.209 346.948 227.174 347.19 227.104C347.432 227.029 347.637 226.916 347.805 226.764C347.973 226.611 348.102 226.42 348.192 226.189C348.282 225.959 348.326 225.686 348.326 225.369C348.326 224.811 348.155 224.385 347.811 224.092C347.467 223.795 346.967 223.646 346.311 223.646C346.205 223.646 346.09 223.652 345.965 223.664C345.844 223.672 345.721 223.684 345.596 223.699C345.475 223.715 345.358 223.732 345.244 223.752C345.135 223.768 345.039 223.783 344.957 223.799L344.43 223.465L344.752 219.434H348.795V220.406H345.678L345.449 222.861C345.574 222.838 345.739 222.812 345.942 222.785C346.149 222.758 346.393 222.744 346.674 222.744Z" fill="#595959"/>
<g clip-path="url(#clip0_0_1)">
<g clip-path="url(#clip1_0_1)">
<path d="M25.0527 87.3379C25.0527 86.9277 25.0723 86.5195 25.1113 86.1133C25.1543 85.707 25.2266 85.3184 25.3281 84.9473C25.4336 84.5723 25.5762 84.2246 25.7559 83.9043C25.9355 83.584 26.1641 83.3066 26.4414 83.0723C26.7188 82.834 27.0508 82.6484 27.4375 82.5156C27.8242 82.3789 28.2773 82.3105 28.7969 82.3105C28.8711 82.3105 28.9531 82.3125 29.043 82.3164C29.1328 82.3203 29.2227 82.3281 29.3125 82.3398C29.4062 82.3477 29.4941 82.3594 29.5762 82.375C29.6621 82.3867 29.7383 82.4023 29.8047 82.4219V83.3301C29.668 83.2832 29.5137 83.248 29.3418 83.2246C29.1699 83.2012 29 83.1895 28.832 83.1895C28.4805 83.1895 28.1699 83.2324 27.9004 83.3184C27.6348 83.4004 27.4043 83.5176 27.209 83.6699C27.0137 83.8223 26.8496 84.0039 26.7168 84.2148C26.5879 84.4258 26.4824 84.6602 26.4004 84.918C26.3184 85.1719 26.2578 85.4434 26.2188 85.7324C26.1797 86.0215 26.1543 86.3223 26.1426 86.6348H26.2129C26.291 86.4941 26.3848 86.3633 26.4941 86.2422C26.6074 86.1172 26.7383 86.0117 26.8867 85.9258C27.0352 85.8359 27.2012 85.7656 27.3848 85.7148C27.5723 85.6641 27.7812 85.6387 28.0117 85.6387C28.3828 85.6387 28.7188 85.6973 29.0195 85.8145C29.3203 85.9277 29.5762 86.0957 29.7871 86.3184C29.998 86.541 30.1602 86.8145 30.2734 87.1387C30.3906 87.459 30.4492 87.8262 30.4492 88.2402C30.4492 88.6855 30.3887 89.0859 30.2676 89.4414C30.1465 89.7969 29.9727 90.0996 29.7461 90.3496C29.5195 90.5957 29.2461 90.7852 28.9258 90.918C28.6055 91.0508 28.2461 91.1172 27.8477 91.1172C27.457 91.1172 27.0898 91.041 26.7461 90.8887C26.4062 90.7363 26.1113 90.5039 25.8613 90.1914C25.6113 89.8789 25.4141 89.4863 25.2695 89.0137C25.125 88.541 25.0527 87.9824 25.0527 87.3379ZM27.8359 90.2207C28.0703 90.2207 28.2832 90.1816 28.4746 90.1035C28.6699 90.0215 28.8379 89.9004 28.9785 89.7402C29.1191 89.5762 29.2266 89.3711 29.3008 89.125C29.3789 88.875 29.418 88.5801 29.418 88.2402C29.418 87.9668 29.3848 87.7227 29.3184 87.5078C29.2559 87.2891 29.1602 87.1035 29.0312 86.9512C28.9023 86.7988 28.7402 86.6816 28.5449 86.5996C28.3535 86.5176 28.1289 86.4766 27.8711 86.4766C27.6094 86.4766 27.3691 86.5234 27.1504 86.6172C26.9355 86.707 26.752 86.8262 26.5996 86.9746C26.4473 87.1191 26.3281 87.2852 26.2422 87.4727C26.1602 87.6602 26.1191 87.8477 26.1191 88.0352C26.1191 88.2969 26.1543 88.5586 26.2246 88.8203C26.2988 89.0781 26.4062 89.3105 26.5469 89.5176C26.6914 89.7246 26.8711 89.8945 27.0859 90.0273C27.3008 90.1562 27.5508 90.2207 27.8359 90.2207Z" fill="#595959"/>
</g>
<g clip-path="url(#clip2_0_1)">
<path d="M30.2969 172H24.9531V171.086L27.0039 168.854C27.2969 168.537 27.5586 168.248 27.7891 167.986C28.0195 167.725 28.2148 167.469 28.375 167.219C28.5391 166.969 28.6641 166.719 28.75 166.469C28.8359 166.215 28.8789 165.939 28.8789 165.643C28.8789 165.412 28.8457 165.209 28.7793 165.033C28.7129 164.857 28.6172 164.709 28.4922 164.588C28.3711 164.463 28.2266 164.369 28.0586 164.307C27.8906 164.244 27.7031 164.213 27.4961 164.213C27.125 164.213 26.7891 164.289 26.4883 164.441C26.1914 164.59 25.9082 164.781 25.6387 165.016L25.041 164.318C25.1973 164.178 25.3652 164.047 25.5449 163.926C25.7246 163.801 25.918 163.693 26.125 163.604C26.332 163.514 26.5508 163.443 26.7812 163.393C27.0117 163.338 27.2539 163.311 27.5078 163.311C27.8828 163.311 28.2207 163.363 28.5215 163.469C28.8262 163.574 29.084 163.727 29.2949 163.926C29.5059 164.121 29.668 164.361 29.7812 164.646C29.8984 164.928 29.957 165.246 29.957 165.602C29.957 165.934 29.9043 166.25 29.7988 166.551C29.6973 166.852 29.5547 167.148 29.3711 167.441C29.1914 167.73 28.9746 168.021 28.7207 168.314C28.4707 168.607 28.1992 168.912 27.9062 169.229L26.2598 170.98V171.027H30.2969V172Z" fill="#595959"/>
</g>
<g clip-path="url(#clip3_0_1)">
<path d="M30.7598 130.078H29.5117V132H28.4805V130.078H24.5254V129.146L28.4102 123.387H29.5117V129.105H30.7598V130.078ZM28.4805 129.105V127.02C28.4805 126.801 28.4824 126.572 28.4863 126.334C28.4941 126.092 28.502 125.857 28.5098 125.631C28.5176 125.4 28.5254 125.186 28.5332 124.986C28.5449 124.787 28.5527 124.621 28.5566 124.488H28.5039C28.4766 124.566 28.4414 124.654 28.3984 124.752C28.3594 124.846 28.3145 124.941 28.2637 125.039C28.2168 125.133 28.168 125.225 28.1172 125.314C28.0664 125.404 28.0195 125.48 27.9766 125.543L25.5684 129.105H28.4805Z" fill="#595959"/>
</g>
<g clip-path="url(#clip4_0_1)">
<path d="M30.4375 208.705C30.4375 209.396 30.3867 210.016 30.2852 210.562C30.1875 211.109 30.0273 211.572 29.8047 211.951C29.5859 212.33 29.3027 212.619 28.9551 212.818C28.6074 213.018 28.1855 213.117 27.6895 213.117C27.2285 213.117 26.8262 213.018 26.4824 212.818C26.1426 212.619 25.8594 212.33 25.6328 211.951C25.4102 211.572 25.2422 211.109 25.1289 210.562C25.0195 210.016 24.9648 209.396 24.9648 208.705C24.9648 208.014 25.0137 207.395 25.1113 206.848C25.2129 206.301 25.3711 205.84 25.5859 205.465C25.8047 205.086 26.0859 204.797 26.4297 204.598C26.7773 204.398 27.1973 204.299 27.6895 204.299C28.1543 204.299 28.5586 204.398 28.9023 204.598C29.2461 204.793 29.5312 205.08 29.7578 205.459C29.9844 205.834 30.1543 206.295 30.2676 206.842C30.3809 207.389 30.4375 208.01 30.4375 208.705ZM26.0488 208.705C26.0488 209.291 26.0781 209.803 26.1367 210.24C26.1953 210.678 26.2891 211.043 26.418 211.336C26.5469 211.625 26.7148 211.844 26.9219 211.992C27.1328 212.137 27.3887 212.209 27.6895 212.209C27.9902 212.209 28.2461 212.137 28.457 211.992C28.668 211.848 28.8398 211.631 28.9727 211.342C29.1094 211.053 29.207 210.689 29.2656 210.252C29.3281 209.811 29.3594 209.295 29.3594 208.705C29.3594 208.119 29.3281 207.607 29.2656 207.17C29.207 206.732 29.1094 206.369 28.9727 206.08C28.8398 205.791 28.668 205.574 28.457 205.43C28.2461 205.285 27.9902 205.213 27.6895 205.213C27.3887 205.213 27.1328 205.285 26.9219 205.43C26.7148 205.574 26.5469 205.791 26.418 206.08C26.2891 206.369 26.1953 206.732 26.1367 207.17C26.0781 207.607 26.0488 208.119 26.0488 208.705Z" fill="#595959"/>
</g>
</g>
<rect x="118" y="182" width="10" height="27" stroke="#CED7D4"/>
<rect x="132" y="166" width="10" height="43" stroke="#CED7D4"/>
<rect x="146" y="148" width="10" height="61" stroke="#CED7D4"/>
<rect x="160" y="126" width="10" height="83" stroke="#CED7D4"/>
<rect x="174" y="104" width="10" height="105" stroke="#CED7D4"/>
<rect x="188" y="81" width="10" height="128" stroke="#CED7D4"/>
<rect x="314" y="182" width="10" height="27" stroke="#CED7D4"/>
<rect x="202" y="71" width="10" height="138" stroke="#CED7D4"/>
<rect x="216" y="65" width="10" height="144" stroke="#CED7D4"/>
<rect x="230" y="71" width="10" height="138" stroke="#CED7D4"/>
<rect x="300" y="171" width="10" height="38" stroke="#CED7D4"/>
<rect x="258" y="104" width="10" height="105" stroke="#CED7D4"/>
<rect x="272" y="130" width="10" height="79" stroke="#CED7D4"/>
<rect x="118" y="188" width="10" height="21" fill="#666EB4"/>
<rect x="132" y="178" width="10" height="31" fill="#666EB4"/>
<rect x="146" y="188" width="10" height="21" fill="#666EB4"/>
<rect x="160" y="130" width="10" height="79" fill="#666EB4"/>
<rect x="174" y="138" width="10" height="71" fill="#666EB4"/>
<rect x="188" y="159" width="10" height="50" fill="#666EB4"/>
<rect x="314" y="191" width="10" height="18" fill="#666EB4"/>
<rect x="202" y="119" width="10" height="90" fill="#666EB4"/>
<rect x="216" y="91" width="10" height="118" fill="#666EB4"/>
<rect x="230" y="121" width="10" height="88" fill="#666EB4"/>
<rect x="244" y="84" width="10" height="125" fill="#666EB4"/>
<rect x="286" y="153" width="10" height="56" fill="#666EB4"/>
<rect x="300" y="184" width="10" height="25" fill="#666EB4"/>
<rect x="258" y="173" width="10" height="36" fill="#666EB4"/>
<rect x="272" y="188" width="10" height="21" fill="#666EB4"/>
<path d="M26.6504 27.9531C26.6504 28.8281 26.3516 29.5 25.7539 29.9688C25.1562 30.4336 24.3145 30.666 23.2285 30.666H22.2441V34H21.166V25.4336H23.4336C25.5781 25.4336 26.6504 26.2734 26.6504 27.9531ZM22.2441 29.7402H23.1055C23.957 29.7402 24.5742 29.6035 24.957 29.3301C25.3398 29.0527 25.5312 28.6094 25.5312 28C25.5312 27.4492 25.3535 27.0371 24.998 26.7637C24.6426 26.4902 24.0879 26.3535 23.334 26.3535H22.2441V29.7402ZM31.2852 27.4492C31.5703 27.4492 31.8223 27.4727 32.041 27.5195L31.9121 28.4922C31.6738 28.4375 31.4414 28.4102 31.2148 28.4102C30.875 28.4102 30.5586 28.5039 30.2656 28.6914C29.9766 28.8789 29.75 29.1387 29.5859 29.4707C29.4219 29.7988 29.3398 30.1641 29.3398 30.5664V34H28.2852V27.5664H29.1523L29.2695 28.7441H29.3164C29.5625 28.3184 29.8535 27.9961 30.1895 27.7773C30.5254 27.5586 30.8906 27.4492 31.2852 27.4492ZM35.8613 34.1172C34.8965 34.1172 34.1387 33.8262 33.5879 33.2441C33.041 32.6582 32.7676 31.8535 32.7676 30.8301C32.7676 29.7988 33.0234 28.9785 33.5352 28.3691C34.0469 27.7559 34.7383 27.4492 35.6094 27.4492C36.418 27.4492 37.0625 27.7109 37.543 28.2344C38.0234 28.7539 38.2637 29.459 38.2637 30.3496V30.9883H33.8574C33.877 31.7188 34.0625 32.2734 34.4141 32.6523C34.7656 33.0312 35.2637 33.2207 35.9082 33.2207C36.252 33.2207 36.5781 33.1914 36.8867 33.1328C37.1953 33.0703 37.5566 32.9512 37.9707 32.7754V33.7012C37.6152 33.8535 37.2812 33.9609 36.9688 34.0234C36.6562 34.0859 36.2871 34.1172 35.8613 34.1172ZM35.5977 28.3105C35.0938 28.3105 34.6953 28.4727 34.4023 28.7969C34.1094 29.1211 33.9355 29.5723 33.8809 30.1504H37.1562C37.1484 29.5488 37.0098 29.0918 36.7402 28.7793C36.4707 28.4668 36.0898 28.3105 35.5977 28.3105ZM44.0879 32.2246C44.0879 32.8262 43.8633 33.293 43.4141 33.625C42.9648 33.9531 42.334 34.1172 41.5215 34.1172C40.6738 34.1172 40 33.9824 39.5 33.7129V32.752C40.207 33.0957 40.8887 33.2676 41.5449 33.2676C42.0762 33.2676 42.4629 33.1816 42.7051 33.0098C42.9473 32.8379 43.0684 32.6074 43.0684 32.3184C43.0684 32.0645 42.9512 31.8496 42.7168 31.6738C42.4863 31.498 42.0742 31.2969 41.4805 31.0703C40.875 30.8359 40.4492 30.6367 40.2031 30.4727C39.957 30.3047 39.7754 30.1172 39.6582 29.9102C39.5449 29.7031 39.4883 29.4512 39.4883 29.1543C39.4883 28.627 39.7031 28.2109 40.1328 27.9062C40.5625 27.6016 41.1523 27.4492 41.9023 27.4492C42.6328 27.4492 43.3164 27.5938 43.9531 27.8828L43.5957 28.7207C42.9434 28.4473 42.3555 28.3105 41.832 28.3105C41.3945 28.3105 41.0625 28.3809 40.8359 28.5215C40.6094 28.6582 40.4961 28.8477 40.4961 29.0898C40.4961 29.3242 40.5938 29.5195 40.7891 29.6758C40.9844 29.8281 41.4395 30.041 42.1543 30.3145C42.6895 30.5137 43.084 30.6992 43.3379 30.8711C43.5957 31.043 43.7852 31.2363 43.9062 31.4512C44.0273 31.666 44.0879 31.9238 44.0879 32.2246ZM49.8418 32.2246C49.8418 32.8262 49.6172 33.293 49.168 33.625C48.7188 33.9531 48.0879 34.1172 47.2754 34.1172C46.4277 34.1172 45.7539 33.9824 45.2539 33.7129V32.752C45.9609 33.0957 46.6426 33.2676 47.2988 33.2676C47.8301 33.2676 48.2168 33.1816 48.459 33.0098C48.7012 32.8379 48.8223 32.6074 48.8223 32.3184C48.8223 32.0645 48.7051 31.8496 48.4707 31.6738C48.2402 31.498 47.8281 31.2969 47.2344 31.0703C46.6289 30.8359 46.2031 30.6367 45.957 30.4727C45.7109 30.3047 45.5293 30.1172 45.4121 29.9102C45.2988 29.7031 45.2422 29.4512 45.2422 29.1543C45.2422 28.627 45.457 28.2109 45.8867 27.9062C46.3164 27.6016 46.9062 27.4492 47.6562 27.4492C48.3867 27.4492 49.0703 27.5938 49.707 27.8828L49.3496 28.7207C48.6973 28.4473 48.1094 28.3105 47.5859 28.3105C47.1484 28.3105 46.8164 28.3809 46.5898 28.5215C46.3633 28.6582 46.25 28.8477 46.25 29.0898C46.25 29.3242 46.3477 29.5195 46.543 29.6758C46.7383 29.8281 47.1934 30.041 47.9082 30.3145C48.4434 30.5137 48.8379 30.6992 49.0918 30.8711C49.3496 31.043 49.5391 31.2363 49.6602 31.4512C49.7812 31.666 49.8418 31.9238 49.8418 32.2246ZM52.4023 27.5664V31.709C52.4023 32.2285 52.5176 32.6152 52.748 32.8691C52.9824 33.1191 53.3438 33.2441 53.832 33.2441C54.4922 33.2441 54.9727 33.0605 55.2734 32.6934C55.5742 32.3262 55.7246 31.7344 55.7246 30.918V27.5664H56.7852V34H55.918L55.7656 33.1504H55.7129C55.5215 33.459 55.25 33.6973 54.8984 33.8652C54.5469 34.0332 54.1387 34.1172 53.6738 34.1172C52.9004 34.1172 52.3164 33.9316 51.9219 33.5605C51.5312 33.1895 51.3359 32.5957 51.3359 31.7793V27.5664H52.4023ZM61.8242 27.4492C62.1094 27.4492 62.3613 27.4727 62.5801 27.5195L62.4512 28.4922C62.2129 28.4375 61.9805 28.4102 61.7539 28.4102C61.4141 28.4102 61.0977 28.5039 60.8047 28.6914C60.5156 28.8789 60.2891 29.1387 60.125 29.4707C59.9609 29.7988 59.8789 30.1641 59.8789 30.5664V34H58.8242V27.5664H59.6914L59.8086 28.7441H59.8555C60.1016 28.3184 60.3926 27.9961 60.7285 27.7773C61.0645 27.5586 61.4297 27.4492 61.8242 27.4492ZM66.4004 34.1172C65.4355 34.1172 64.6777 33.8262 64.127 33.2441C63.5801 32.6582 63.3066 31.8535 63.3066 30.8301C63.3066 29.7988 63.5625 28.9785 64.0742 28.3691C64.5859 27.7559 65.2773 27.4492 66.1484 27.4492C66.957 27.4492 67.6016 27.7109 68.082 28.2344C68.5625 28.7539 68.8027 29.459 68.8027 30.3496V30.9883H64.3965C64.416 31.7188 64.6016 32.2734 64.9531 32.6523C65.3047 33.0312 65.8027 33.2207 66.4473 33.2207C66.791 33.2207 67.1172 33.1914 67.4258 33.1328C67.7344 33.0703 68.0957 32.9512 68.5098 32.7754V33.7012C68.1543 33.8535 67.8203 33.9609 67.5078 34.0234C67.1953 34.0859 66.8262 34.1172 66.4004 34.1172ZM66.1367 28.3105C65.6328 28.3105 65.2344 28.4727 64.9414 28.7969C64.6484 29.1211 64.4746 29.5723 64.4199 30.1504H67.6953C67.6875 29.5488 67.5488 29.0918 67.2793 28.7793C67.0098 28.4668 66.6289 28.3105 66.1367 28.3105ZM76.5547 27.4492C76.8398 27.4492 77.0918 27.4727 77.3105 27.5195L77.1816 28.4922C76.9434 28.4375 76.7109 28.4102 76.4844 28.4102C76.1445 28.4102 75.8281 28.5039 75.5352 28.6914C75.2461 28.8789 75.0195 29.1387 74.8555 29.4707C74.6914 29.7988 74.6094 30.1641 74.6094 30.5664V34H73.5547V27.5664H74.4219L74.5391 28.7441H74.5859C74.832 28.3184 75.123 27.9961 75.459 27.7773C75.7949 27.5586 76.1602 27.4492 76.5547 27.4492ZM82.3672 34L82.1621 33.0859H82.1152C81.7949 33.4883 81.4746 33.7617 81.1543 33.9062C80.8379 34.0469 80.4375 34.1172 79.9531 34.1172C79.3203 34.1172 78.8242 33.9512 78.4648 33.6191C78.1055 33.2871 77.9258 32.8184 77.9258 32.2129C77.9258 30.9082 78.9551 30.2246 81.0137 30.1621L82.1035 30.1211V29.7402C82.1035 29.252 81.998 28.8926 81.7871 28.6621C81.5762 28.4277 81.2383 28.3105 80.7734 28.3105C80.4336 28.3105 80.1113 28.3613 79.8066 28.4629C79.5059 28.5645 79.2227 28.6777 78.957 28.8027L78.6348 28.0117C78.959 27.8398 79.3125 27.7051 79.6953 27.6074C80.0781 27.5098 80.457 27.4609 80.832 27.4609C81.6094 27.4609 82.1875 27.6328 82.5664 27.9766C82.9453 28.3203 83.1348 28.8672 83.1348 29.6172V34H82.3672ZM80.1934 33.2676C80.7832 33.2676 81.2461 33.1094 81.582 32.793C81.9219 32.4727 82.0918 32.0195 82.0918 31.4336V30.8535L81.1426 30.8945C80.4043 30.9219 79.8652 31.0391 79.5254 31.2461C79.1895 31.4531 79.0215 31.7793 79.0215 32.2246C79.0215 32.5605 79.123 32.8184 79.3262 32.998C79.5332 33.1777 79.8223 33.2676 80.1934 33.2676ZM87.2832 33.2559C87.4199 33.2559 87.5801 33.2422 87.7637 33.2148C87.9473 33.1875 88.0859 33.1562 88.1797 33.1211V33.9297C88.082 33.9727 87.9297 34.0137 87.7227 34.0527C87.5195 34.0957 87.3125 34.1172 87.1016 34.1172C85.8438 34.1172 85.2148 33.4551 85.2148 32.1309V28.3867H84.3066V27.8828L85.2266 27.4609L85.6484 26.0898H86.2754V27.5664H88.1328V28.3867H86.2754V32.1016C86.2754 32.4727 86.3633 32.7578 86.5391 32.957C86.7188 33.1562 86.9668 33.2559 87.2832 33.2559ZM90.5234 34H89.4688V27.5664H90.5234V34ZM89.3867 25.8262C89.3867 25.5918 89.4453 25.4219 89.5625 25.3164C89.6836 25.2109 89.832 25.1582 90.0078 25.1582C90.1719 25.1582 90.3145 25.2109 90.4355 25.3164C90.5605 25.4219 90.623 25.5918 90.623 25.8262C90.623 26.0566 90.5605 26.2266 90.4355 26.3359C90.3145 26.4453 90.1719 26.5 90.0078 26.5C89.832 26.5 89.6836 26.4453 89.5625 26.3359C89.4453 26.2266 89.3867 26.0566 89.3867 25.8262ZM98.1523 30.7715C98.1523 31.8223 97.8867 32.6426 97.3555 33.2324C96.8242 33.8223 96.0898 34.1172 95.1523 34.1172C94.5703 34.1172 94.0547 33.9824 93.6055 33.7129C93.1562 33.4395 92.8105 33.0488 92.5684 32.541C92.3262 32.0332 92.2051 31.4434 92.2051 30.7715C92.2051 29.7246 92.4668 28.9102 92.9902 28.3281C93.5137 27.7422 94.248 27.4492 95.1934 27.4492C96.0996 27.4492 96.8184 27.748 97.3496 28.3457C97.8848 28.9395 98.1523 29.748 98.1523 30.7715ZM93.2949 30.7715C93.2949 31.5801 93.4531 32.1953 93.7695 32.6172C94.0898 33.0352 94.5605 33.2441 95.1816 33.2441C95.7949 33.2441 96.2617 33.0352 96.582 32.6172C96.9023 32.1953 97.0625 31.5801 97.0625 30.7715C97.0625 29.9629 96.9004 29.3555 96.5762 28.9492C96.2559 28.5391 95.7852 28.334 95.1641 28.334C93.918 28.334 93.2949 29.1465 93.2949 30.7715ZM104.363 34L101.926 27.5664H103.057L104.422 31.3574C104.691 32.1191 104.863 32.6875 104.938 33.0625H104.984C104.996 33.0117 105.01 32.9551 105.025 32.8926C105.045 32.8262 105.066 32.7559 105.09 32.6816C105.113 32.6035 105.258 32.1621 105.523 31.3574L106.895 27.5664H108.02L105.576 34H104.363ZM113.229 32.2246C113.229 32.8262 113.004 33.293 112.555 33.625C112.105 33.9531 111.475 34.1172 110.662 34.1172C109.814 34.1172 109.141 33.9824 108.641 33.7129V32.752C109.348 33.0957 110.029 33.2676 110.686 33.2676C111.217 33.2676 111.604 33.1816 111.846 33.0098C112.088 32.8379 112.209 32.6074 112.209 32.3184C112.209 32.0645 112.092 31.8496 111.857 31.6738C111.627 31.498 111.215 31.2969 110.621 31.0703C110.016 30.8359 109.59 30.6367 109.344 30.4727C109.098 30.3047 108.916 30.1172 108.799 29.9102C108.686 29.7031 108.629 29.4512 108.629 29.1543C108.629 28.627 108.844 28.2109 109.273 27.9062C109.703 27.6016 110.293 27.4492 111.043 27.4492C111.773 27.4492 112.457 27.5938 113.094 27.8828L112.736 28.7207C112.084 28.4473 111.496 28.3105 110.973 28.3105C110.535 28.3105 110.203 28.3809 109.977 28.5215C109.75 28.6582 109.637 28.8477 109.637 29.0898C109.637 29.3242 109.734 29.5195 109.93 29.6758C110.125 29.8281 110.58 30.041 111.295 30.3145C111.83 30.5137 112.225 30.6992 112.479 30.8711C112.736 31.043 112.926 31.2363 113.047 31.4512C113.168 31.666 113.229 31.9238 113.229 32.2246ZM120.465 34H117.371V33.3789L118.379 33.1504V26.2949L117.371 26.0547V25.4336H120.465V26.0547L119.457 26.2949V33.1504L120.465 33.3789V34ZM126.359 34V29.8867C126.359 29.3633 126.242 28.9746 126.008 28.7207C125.777 28.4629 125.414 28.334 124.918 28.334C124.258 28.334 123.777 28.5176 123.477 28.8848C123.18 29.248 123.031 29.8418 123.031 30.666V34H121.977V27.5664H122.826L122.984 28.4453H123.043C123.242 28.1289 123.521 27.8848 123.881 27.7129C124.24 27.5371 124.637 27.4492 125.07 27.4492C125.859 27.4492 126.445 27.6406 126.828 28.0234C127.211 28.4062 127.402 29.002 127.402 29.8105V34H126.359ZM130.449 34H129.395V24.8828H130.449V34ZM135.225 34.1172C134.26 34.1172 133.502 33.8262 132.951 33.2441C132.404 32.6582 132.131 31.8535 132.131 30.8301C132.131 29.7988 132.387 28.9785 132.898 28.3691C133.41 27.7559 134.102 27.4492 134.973 27.4492C135.781 27.4492 136.426 27.7109 136.906 28.2344C137.387 28.7539 137.627 29.459 137.627 30.3496V30.9883H133.221C133.24 31.7188 133.426 32.2734 133.777 32.6523C134.129 33.0312 134.627 33.2207 135.271 33.2207C135.615 33.2207 135.941 33.1914 136.25 33.1328C136.559 33.0703 136.92 32.9512 137.334 32.7754V33.7012C136.979 33.8535 136.645 33.9609 136.332 34.0234C136.02 34.0859 135.65 34.1172 135.225 34.1172ZM134.961 28.3105C134.457 28.3105 134.059 28.4727 133.766 28.7969C133.473 29.1211 133.299 29.5723 133.244 30.1504H136.52C136.512 29.5488 136.373 29.0918 136.104 28.7793C135.834 28.4668 135.453 28.3105 134.961 28.3105ZM141.412 33.2559C141.549 33.2559 141.709 33.2422 141.893 33.2148C142.076 33.1875 142.215 33.1562 142.309 33.1211V33.9297C142.211 33.9727 142.059 34.0137 141.852 34.0527C141.648 34.0957 141.441 34.1172 141.23 34.1172C139.973 34.1172 139.344 33.4551 139.344 32.1309V28.3867H138.436V27.8828L139.355 27.4609L139.777 26.0898H140.404V27.5664H142.262V28.3867H140.404V32.1016C140.404 32.4727 140.492 32.7578 140.668 32.957C140.848 33.1562 141.096 33.2559 141.412 33.2559ZM148.133 34L145.695 27.5664H146.826L148.191 31.3574C148.461 32.1191 148.633 32.6875 148.707 33.0625H148.754C148.766 33.0117 148.779 32.9551 148.795 32.8926C148.814 32.8262 148.836 32.7559 148.859 32.6816C148.883 32.6035 149.027 32.1621 149.293 31.3574L150.664 27.5664H151.789L149.346 34H148.133ZM158.398 30.7715C158.398 31.8223 158.133 32.6426 157.602 33.2324C157.07 33.8223 156.336 34.1172 155.398 34.1172C154.816 34.1172 154.301 33.9824 153.852 33.7129C153.402 33.4395 153.057 33.0488 152.814 32.541C152.572 32.0332 152.451 31.4434 152.451 30.7715C152.451 29.7246 152.713 28.9102 153.236 28.3281C153.76 27.7422 154.494 27.4492 155.439 27.4492C156.346 27.4492 157.064 27.748 157.596 28.3457C158.131 28.9395 158.398 29.748 158.398 30.7715ZM153.541 30.7715C153.541 31.5801 153.699 32.1953 154.016 32.6172C154.336 33.0352 154.807 33.2441 155.428 33.2441C156.041 33.2441 156.508 33.0352 156.828 32.6172C157.148 32.1953 157.309 31.5801 157.309 30.7715C157.309 29.9629 157.146 29.3555 156.822 28.9492C156.502 28.5391 156.031 28.334 155.41 28.334C154.164 28.334 153.541 29.1465 153.541 30.7715ZM161.129 34H160.074V24.8828H161.129V34ZM164.164 27.5664V31.709C164.164 32.2285 164.279 32.6152 164.51 32.8691C164.744 33.1191 165.105 33.2441 165.594 33.2441C166.254 33.2441 166.734 33.0605 167.035 32.6934C167.336 32.3262 167.486 31.7344 167.486 30.918V27.5664H168.547V34H167.68L167.527 33.1504H167.475C167.283 33.459 167.012 33.6973 166.66 33.8652C166.309 34.0332 165.9 34.1172 165.436 34.1172C164.662 34.1172 164.078 33.9316 163.684 33.5605C163.293 33.1895 163.098 32.5957 163.098 31.7793V27.5664H164.164ZM178.771 34V29.8574C178.771 28.8418 178.336 28.334 177.465 28.334C176.867 28.334 176.428 28.5078 176.146 28.8555C175.865 29.2031 175.725 29.7344 175.725 30.4492V34H174.676V29.8574C174.676 29.3496 174.568 28.9688 174.354 28.7148C174.143 28.4609 173.811 28.334 173.357 28.334C172.764 28.334 172.328 28.5156 172.051 28.8789C171.777 29.2422 171.641 29.8379 171.641 30.666V34H170.586V27.5664H171.436L171.594 28.4453H171.652C171.836 28.1328 172.094 27.8887 172.426 27.7129C172.762 27.5371 173.137 27.4492 173.551 27.4492C174.559 27.4492 175.215 27.8086 175.52 28.5273H175.578C175.785 28.1836 176.066 27.918 176.422 27.7305C176.781 27.543 177.188 27.4492 177.641 27.4492C178.367 27.4492 178.91 27.6367 179.27 28.0117C179.633 28.3867 179.814 28.9863 179.814 29.8105V34H178.771ZM184.549 34.1172C183.584 34.1172 182.826 33.8262 182.275 33.2441C181.729 32.6582 181.455 31.8535 181.455 30.8301C181.455 29.7988 181.711 28.9785 182.223 28.3691C182.734 27.7559 183.426 27.4492 184.297 27.4492C185.105 27.4492 185.75 27.7109 186.23 28.2344C186.711 28.7539 186.951 29.459 186.951 30.3496V30.9883H182.545C182.564 31.7188 182.75 32.2734 183.102 32.6523C183.453 33.0312 183.951 33.2207 184.596 33.2207C184.939 33.2207 185.266 33.1914 185.574 33.1328C185.883 33.0703 186.244 32.9512 186.658 32.7754V33.7012C186.303 33.8535 185.969 33.9609 185.656 34.0234C185.344 34.0859 184.975 34.1172 184.549 34.1172ZM184.285 28.3105C183.781 28.3105 183.383 28.4727 183.09 28.7969C182.797 29.1211 182.623 29.5723 182.568 30.1504H185.844C185.836 29.5488 185.697 29.0918 185.428 28.7793C185.158 28.4668 184.777 28.3105 184.285 28.3105ZM190.736 33.2559C190.873 33.2559 191.033 33.2422 191.217 33.2148C191.4 33.1875 191.539 33.1562 191.633 33.1211V33.9297C191.535 33.9727 191.383 34.0137 191.176 34.0527C190.973 34.0957 190.766 34.1172 190.555 34.1172C189.297 34.1172 188.668 33.4551 188.668 32.1309V28.3867H187.76V27.8828L188.68 27.4609L189.102 26.0898H189.729V27.5664H191.586V28.3867H189.729V32.1016C189.729 32.4727 189.816 32.7578 189.992 32.957C190.172 33.1562 190.42 33.2559 190.736 33.2559ZM195.922 27.4492C196.207 27.4492 196.459 27.4727 196.678 27.5195L196.549 28.4922C196.311 28.4375 196.078 28.4102 195.852 28.4102C195.512 28.4102 195.195 28.5039 194.902 28.6914C194.613 28.8789 194.387 29.1387 194.223 29.4707C194.059 29.7988 193.977 30.1641 193.977 30.5664V34H192.922V27.5664H193.789L193.906 28.7441H193.953C194.199 28.3184 194.49 27.9961 194.826 27.7773C195.162 27.5586 195.527 27.4492 195.922 27.4492ZM198.934 34H197.879V27.5664H198.934V34ZM197.797 25.8262C197.797 25.5918 197.855 25.4219 197.973 25.3164C198.094 25.2109 198.242 25.1582 198.418 25.1582C198.582 25.1582 198.725 25.2109 198.846 25.3164C198.971 25.4219 199.033 25.5918 199.033 25.8262C199.033 26.0566 198.971 26.2266 198.846 26.3359C198.725 26.4453 198.582 26.5 198.418 26.5C198.242 26.5 198.094 26.4453 197.973 26.3359C197.855 26.2266 197.797 26.0566 197.797 25.8262ZM203.551 34.1172C202.625 34.1172 201.904 33.834 201.389 33.2676C200.873 32.6973 200.615 31.8809 200.615 30.8184C200.615 29.7402 200.875 28.9102 201.395 28.3281C201.918 27.7422 202.662 27.4492 203.627 27.4492C203.939 27.4492 204.248 27.4824 204.553 27.5488C204.861 27.6113 205.115 27.6934 205.314 27.7949L204.992 28.6738C204.449 28.4707 203.986 28.3691 203.604 28.3691C202.955 28.3691 202.477 28.5742 202.168 28.9844C201.859 29.3906 201.705 29.998 201.705 30.8066C201.705 31.584 201.859 32.1797 202.168 32.5938C202.477 33.0039 202.934 33.209 203.539 33.209C204.105 33.209 204.662 33.084 205.209 32.834V33.7715C204.764 34.002 204.211 34.1172 203.551 34.1172ZM212.82 28.3867H211.197V34H210.143V28.3867H209.018V27.8945L210.143 27.5312V27.1621C210.143 26.3809 210.312 25.7949 210.652 25.4043C210.996 25.0137 211.523 24.8184 212.234 24.8184C212.645 24.8184 213.061 24.8906 213.482 25.0352L213.201 25.8613C212.838 25.7441 212.52 25.6855 212.246 25.6855C211.891 25.6855 211.627 25.8027 211.455 26.0371C211.283 26.2715 211.197 26.6426 211.197 27.1504V27.5664H212.82V28.3867ZM215.047 34H213.992V24.8828H215.047V34ZM222.676 30.7715C222.676 31.8223 222.41 32.6426 221.879 33.2324C221.348 33.8223 220.613 34.1172 219.676 34.1172C219.094 34.1172 218.578 33.9824 218.129 33.7129C217.68 33.4395 217.334 33.0488 217.092 32.541C216.85 32.0332 216.729 31.4434 216.729 30.7715C216.729 29.7246 216.99 28.9102 217.514 28.3281C218.037 27.7422 218.771 27.4492 219.717 27.4492C220.623 27.4492 221.342 27.748 221.873 28.3457C222.408 28.9395 222.676 29.748 222.676 30.7715ZM217.818 30.7715C217.818 31.5801 217.977 32.1953 218.293 32.6172C218.613 33.0352 219.084 33.2441 219.705 33.2441C220.318 33.2441 220.785 33.0352 221.105 32.6172C221.426 32.1953 221.586 31.5801 221.586 30.7715C221.586 29.9629 221.424 29.3555 221.1 28.9492C220.779 28.5391 220.309 28.334 219.688 28.334C218.441 28.334 217.818 29.1465 217.818 30.7715ZM229.49 34L228.389 30.3789C228.287 30.0781 228.139 29.5098 227.943 28.6738H227.896C227.732 29.4355 227.588 30.0078 227.463 30.3906L226.309 34H225.113L223.35 27.5664H224.439C224.846 29.1484 225.154 30.3516 225.365 31.1758C225.58 32 225.707 32.582 225.746 32.9219H225.793L225.875 32.5586C225.996 32 226.113 31.5449 226.227 31.1934L227.369 27.5664H228.518L229.625 31.1934C229.664 31.3301 229.705 31.4766 229.748 31.6328C229.795 31.7852 229.838 31.9375 229.877 32.0898C229.916 32.2383 229.951 32.3848 229.982 32.5293C230.014 32.6699 230.037 32.7969 230.053 32.9102H230.105C230.141 32.6133 230.283 31.9766 230.533 31L231.436 27.5664H232.514L230.727 34H229.49ZM236.586 29.9512C236.586 29.3926 236.619 28.8457 236.686 28.3105C236.756 27.7754 236.861 27.2578 237.002 26.7578C237.146 26.2578 237.326 25.7793 237.541 25.3223C237.76 24.8613 238.02 24.4277 238.32 24.0215H239.293C239.023 24.4473 238.783 24.8945 238.572 25.3633C238.361 25.832 238.184 26.3203 238.039 26.8281C237.895 27.3359 237.787 27.8535 237.717 28.3809C237.646 28.9043 237.611 29.4316 237.611 29.9629C237.611 31.0527 237.754 32.1133 238.039 33.1445C238.324 34.1719 238.746 35.1172 239.305 35.9805H238.32C238.02 35.5664 237.76 35.123 237.541 34.6504C237.326 34.1816 237.146 33.6914 237.002 33.1797C236.861 32.6641 236.756 32.1367 236.686 31.5977C236.619 31.0547 236.586 30.5059 236.586 29.9512ZM249.213 34V29.8574C249.213 28.8418 248.777 28.334 247.906 28.334C247.309 28.334 246.869 28.5078 246.588 28.8555C246.307 29.2031 246.166 29.7344 246.166 30.4492V34H245.117V29.8574C245.117 29.3496 245.01 28.9688 244.795 28.7148C244.584 28.4609 244.252 28.334 243.799 28.334C243.205 28.334 242.77 28.5156 242.492 28.8789C242.219 29.2422 242.082 29.8379 242.082 30.666V34H241.027V27.5664H241.877L242.035 28.4453H242.094C242.277 28.1328 242.535 27.8887 242.867 27.7129C243.203 27.5371 243.578 27.4492 243.992 27.4492C245 27.4492 245.656 27.8086 245.961 28.5273H246.02C246.227 28.1836 246.508 27.918 246.863 27.7305C247.223 27.543 247.629 27.4492 248.082 27.4492C248.809 27.4492 249.352 27.6367 249.711 28.0117C250.074 28.3867 250.256 28.9863 250.256 29.8105V34H249.213ZM262.115 24.0098L258.969 35.9863H257.973L261.131 24.0098H262.115ZM267.834 32.2246C267.834 32.8262 267.609 33.293 267.16 33.625C266.711 33.9531 266.08 34.1172 265.268 34.1172C264.42 34.1172 263.746 33.9824 263.246 33.7129V32.752C263.953 33.0957 264.635 33.2676 265.291 33.2676C265.822 33.2676 266.209 33.1816 266.451 33.0098C266.693 32.8379 266.814 32.6074 266.814 32.3184C266.814 32.0645 266.697 31.8496 266.463 31.6738C266.232 31.498 265.82 31.2969 265.227 31.0703C264.621 30.8359 264.195 30.6367 263.949 30.4727C263.703 30.3047 263.521 30.1172 263.404 29.9102C263.291 29.7031 263.234 29.4512 263.234 29.1543C263.234 28.627 263.449 28.2109 263.879 27.9062C264.309 27.6016 264.898 27.4492 265.648 27.4492C266.379 27.4492 267.062 27.5938 267.699 27.8828L267.342 28.7207C266.689 28.4473 266.102 28.3105 265.578 28.3105C265.141 28.3105 264.809 28.3809 264.582 28.5215C264.355 28.6582 264.242 28.8477 264.242 29.0898C264.242 29.3242 264.34 29.5195 264.535 29.6758C264.73 29.8281 265.186 30.041 265.9 30.3145C266.436 30.5137 266.83 30.6992 267.084 30.8711C267.342 31.043 267.531 31.2363 267.652 31.4512C267.773 31.666 267.834 31.9238 267.834 32.2246ZM271.801 30.0508C271.801 30.6094 271.766 31.1562 271.695 31.6914C271.629 32.2266 271.523 32.7441 271.379 33.2441C271.238 33.7441 271.059 34.2227 270.84 34.6797C270.625 35.1406 270.367 35.5742 270.066 35.9805H269.094C269.363 35.5547 269.604 35.1074 269.814 34.6387C270.025 34.1699 270.203 33.6816 270.348 33.1738C270.492 32.666 270.6 32.1504 270.67 31.627C270.74 31.0996 270.775 30.5703 270.775 30.0391C270.775 28.9492 270.633 27.8906 270.348 26.8633C270.062 25.832 269.641 24.8848 269.082 24.0215H270.066C270.367 24.4355 270.625 24.8789 270.84 25.3516C271.059 25.8203 271.238 26.3125 271.379 26.8281C271.523 27.3398 271.629 27.8672 271.695 28.4102C271.766 28.9492 271.801 29.4961 271.801 30.0508Z" fill="#121212"/>
<path d="M252.48 25.672C252.517 25.1813 252.707 24.7973 253.048 24.52C253.389 24.2427 253.832 24.104 254.376 24.104C254.739 24.104 255.051 24.1707 255.312 24.304C255.579 24.432 255.779 24.608 255.912 24.832C256.051 25.056 256.12 25.3093 256.12 25.592C256.12 25.9227 256.024 26.208 255.832 26.448C255.645 26.688 255.4 26.8427 255.096 26.912V26.952C255.443 27.0373 255.717 27.2053 255.92 27.456C256.123 27.7067 256.224 28.0347 256.224 28.44C256.224 28.744 256.155 29.0187 256.016 29.264C255.877 29.504 255.669 29.6933 255.392 29.832C255.115 29.9707 254.781 30.04 254.392 30.04C253.827 30.04 253.363 29.8933 253 29.6C252.637 29.3013 252.435 28.88 252.392 28.336H253.096C253.133 28.656 253.264 28.9173 253.488 29.12C253.712 29.3227 254.011 29.424 254.384 29.424C254.757 29.424 255.04 29.328 255.232 29.136C255.429 28.9387 255.528 28.6853 255.528 28.376C255.528 27.976 255.395 27.688 255.128 27.512C254.861 27.336 254.459 27.248 253.92 27.248H253.736V26.64H253.928C254.419 26.6347 254.789 26.5547 255.04 26.4C255.291 26.24 255.416 25.9947 255.416 25.664C255.416 25.3813 255.323 25.1547 255.136 24.984C254.955 24.8133 254.693 24.728 254.352 24.728C254.021 24.728 253.755 24.8133 253.552 24.984C253.349 25.1547 253.229 25.384 253.192 25.672H252.48Z" fill="#1A2321"/>
<path d="M396 208.722C365.901 206.132 312.659 189.296 279.838 120.472C241.195 39.44 199.217 59.9756 179.223 93.55C144.845 151.278 110.465 209 47 209" stroke="#666EB4"/>
<path d="M194.285 249.709C194.285 250.455 194.016 251.043 193.477 251.473C192.938 251.902 192.188 252.117 191.227 252.117C190.211 252.117 189.426 251.982 188.871 251.713V250.682C189.234 250.838 189.631 250.961 190.061 251.051C190.494 251.141 190.898 251.186 191.273 251.186C191.914 251.186 192.396 251.062 192.721 250.816C193.045 250.57 193.207 250.232 193.207 249.803C193.207 249.518 193.148 249.283 193.031 249.1C192.914 248.916 192.717 248.744 192.439 248.584C192.166 248.424 191.75 248.242 191.191 248.039C190.398 247.75 189.832 247.41 189.492 247.02C189.152 246.625 188.982 246.117 188.982 245.496C188.982 244.828 189.232 244.297 189.732 243.902C190.236 243.508 190.898 243.311 191.719 243.311C192.574 243.311 193.361 243.471 194.08 243.791L193.746 244.717C193.012 244.412 192.328 244.26 191.695 244.26C191.188 244.26 190.789 244.369 190.5 244.588C190.215 244.807 190.072 245.113 190.072 245.508C190.072 245.789 190.127 246.023 190.236 246.211C190.35 246.395 190.529 246.562 190.775 246.715C191.025 246.867 191.416 247.041 191.947 247.236C192.584 247.471 193.059 247.699 193.371 247.922C193.684 248.141 193.914 248.395 194.062 248.684C194.211 248.969 194.285 249.311 194.285 249.709ZM198.018 251.256C198.154 251.256 198.314 251.242 198.498 251.215C198.682 251.188 198.82 251.156 198.914 251.121V251.93C198.816 251.973 198.664 252.014 198.457 252.053C198.254 252.096 198.047 252.117 197.836 252.117C196.578 252.117 195.949 251.455 195.949 250.131V246.387H195.041V245.883L195.961 245.461L196.383 244.09H197.01V245.566H198.867V246.387H197.01V250.102C197.01 250.473 197.098 250.758 197.273 250.957C197.453 251.156 197.701 251.256 198.018 251.256ZM204.176 252L203.971 251.086H203.924C203.604 251.488 203.283 251.762 202.963 251.906C202.646 252.047 202.246 252.117 201.762 252.117C201.129 252.117 200.633 251.951 200.273 251.619C199.914 251.287 199.734 250.818 199.734 250.213C199.734 248.908 200.764 248.225 202.822 248.162L203.912 248.121V247.74C203.912 247.252 203.807 246.893 203.596 246.662C203.385 246.428 203.047 246.311 202.582 246.311C202.242 246.311 201.92 246.361 201.615 246.463C201.314 246.564 201.031 246.678 200.766 246.803L200.443 246.012C200.768 245.84 201.121 245.705 201.504 245.607C201.887 245.51 202.266 245.461 202.641 245.461C203.418 245.461 203.996 245.633 204.375 245.977C204.754 246.32 204.943 246.867 204.943 247.617V252H204.176ZM202.002 251.268C202.592 251.268 203.055 251.109 203.391 250.793C203.73 250.473 203.9 250.02 203.9 249.434V248.854L202.951 248.895C202.213 248.922 201.674 249.039 201.334 249.246C200.998 249.453 200.83 249.779 200.83 250.225C200.83 250.561 200.932 250.818 201.135 250.998C201.342 251.178 201.631 251.268 202.002 251.268ZM209.391 251.256C210.039 251.256 210.51 251.082 210.803 250.734C211.1 250.383 211.248 249.82 211.248 249.047V248.795C211.248 247.936 211.1 247.311 210.803 246.92C210.506 246.529 210.027 246.334 209.367 246.334C208.828 246.334 208.41 246.549 208.113 246.979C207.82 247.404 207.674 248.014 207.674 248.807C207.674 249.604 207.816 250.211 208.102 250.629C208.391 251.047 208.82 251.256 209.391 251.256ZM211.236 251.941L211.271 251.15H211.225C210.791 251.795 210.127 252.117 209.232 252.117C208.4 252.117 207.75 251.828 207.281 251.25C206.816 250.668 206.584 249.85 206.584 248.795C206.584 247.76 206.818 246.943 207.287 246.346C207.76 245.748 208.404 245.449 209.221 245.449C210.092 245.449 210.764 245.773 211.236 246.422H211.301L211.441 245.566H212.279V252.105C212.279 253.027 212.045 253.721 211.576 254.186C211.111 254.65 210.387 254.883 209.402 254.883C208.465 254.883 207.693 254.746 207.088 254.473V253.5C207.713 253.836 208.504 254.004 209.461 254.004C210.008 254.004 210.439 253.844 210.756 253.523C211.076 253.203 211.236 252.76 211.236 252.193V251.941ZM217.061 252.117C216.096 252.117 215.338 251.826 214.787 251.244C214.24 250.658 213.967 249.854 213.967 248.83C213.967 247.799 214.223 246.979 214.734 246.369C215.246 245.756 215.938 245.449 216.809 245.449C217.617 245.449 218.262 245.711 218.742 246.234C219.223 246.754 219.463 247.459 219.463 248.35V248.988H215.057C215.076 249.719 215.262 250.273 215.613 250.652C215.965 251.031 216.463 251.221 217.107 251.221C217.451 251.221 217.777 251.191 218.086 251.133C218.395 251.07 218.756 250.951 219.17 250.775V251.701C218.814 251.854 218.48 251.961 218.168 252.023C217.855 252.086 217.486 252.117 217.061 252.117ZM216.797 246.311C216.293 246.311 215.895 246.473 215.602 246.797C215.309 247.121 215.135 247.572 215.08 248.15H218.355C218.348 247.549 218.209 247.092 217.939 246.779C217.67 246.467 217.289 246.311 216.797 246.311ZM223.781 248.93V247.945H226.688V248.93H223.781ZM234.557 252H233.525V246.65C233.525 246.482 233.525 246.303 233.525 246.111C233.529 245.92 233.533 245.73 233.537 245.543C233.545 245.352 233.551 245.17 233.555 244.998C233.562 244.822 233.568 244.668 233.572 244.535C233.506 244.605 233.447 244.666 233.396 244.717C233.346 244.768 233.293 244.816 233.238 244.863C233.188 244.91 233.133 244.961 233.074 245.016C233.016 245.066 232.945 245.127 232.863 245.197L231.996 245.906L231.434 245.186L233.678 243.434H234.557V252Z" fill="#595959"/>
<defs>
<clipPath id="clip0_0_1">
<rect width="25" height="167" fill="white" transform="translate(6 72)"/>
</clipPath>
<clipPath id="clip1_0_1">
<rect width="40" height="16" fill="white" transform="translate(-9 77)"/>
</clipPath>
<clipPath id="clip2_0_1">
<rect width="40" height="16" fill="white" transform="translate(-9 158)"/>
</clipPath>
<clipPath id="clip3_0_1">
<rect width="40" height="16" fill="white" transform="translate(-9 118)"/>
</clipPath>
<clipPath id="clip4_0_1">
<rect width="40" height="16" fill="white" transform="translate(-9 199)"/>
</clipPath>
</defs>
</svg>
