<svg width="273" height="91" viewBox="0 0 273 91" fill="none" xmlns="http://www.w3.org/2000/svg">
<rect width="273" height="91" fill="#F5F5F5"/>
<rect x="-8518" y="-5797" width="23840" height="13376" fill="#F8FAF9"/>
<path d="M0 0H273V87C273 89.2091 271.209 91 269 91H4C1.79086 91 0 89.2091 0 87V0Z" fill="white"/>
<rect x="193" y="17" width="60" height="60" rx="12" fill="#EBEFEE"/>
<path d="M223 37C217.48 37 213 41.48 213 47C213 52.52 217.48 57 223 57C228.52 57 233 52.52 233 47C233 41.48 228.52 37 223 37ZM215 47C215 42.58 218.58 39 223 39C224.85 39 226.55 39.63 227.9 40.69L216.69 51.9C215.63 50.55 215 48.85 215 47ZM223 55C221.15 55 219.45 54.37 218.1 53.31L229.31 42.1C230.37 43.45 231 45.15 231 47C231 51.42 227.42 55 223 55Z" fill="#595959"/>
<path d="M21.696 44.032C21.696 40.3413 22.3573 37.4507 23.68 35.36C25.024 33.2693 27.2427 32.224 30.336 32.224C33.4293 32.224 35.6373 33.2693 36.96 35.36C38.304 37.4507 38.976 40.3413 38.976 44.032C38.976 47.744 38.304 50.656 36.96 52.768C35.6373 54.88 33.4293 55.936 30.336 55.936C27.2427 55.936 25.024 54.88 23.68 52.768C22.3573 50.656 21.696 47.744 21.696 44.032ZM34.56 44.032C34.56 42.4533 34.4533 41.1307 34.24 40.064C34.048 38.976 33.6427 38.0907 33.024 37.408C32.4267 36.7253 31.5307 36.384 30.336 36.384C29.1413 36.384 28.2347 36.7253 27.616 37.408C27.0187 38.0907 26.6133 38.976 26.4 40.064C26.208 41.1307 26.112 42.4533 26.112 44.032C26.112 45.6533 26.208 47.0187 26.4 48.128C26.592 49.216 26.9973 50.1013 27.616 50.784C28.2347 51.4453 29.1413 51.776 30.336 51.776C31.5307 51.776 32.4373 51.4453 33.056 50.784C33.6747 50.1013 34.08 49.216 34.272 48.128C34.464 47.0187 34.56 45.6533 34.56 44.032ZM41.6915 51.456V47.936L52.1555 32.96H57.3715V47.552H60.1875V51.456H57.3715V56H52.8915V51.456H41.6915ZM53.1795 37.76L46.6195 47.552H53.1795V37.76Z" fill="#121212"/>
</svg>
