<svg width="425" height="265" viewBox="0 0 425 265" fill="none" xmlns="http://www.w3.org/2000/svg">
<rect width="425" height="265" fill="#F5F5F5"/>
<rect x="-12916" y="-5034" width="23840" height="13376" fill="#F8FAF9"/>
<g clip-path="url(#clip0_0_1)">
<rect width="425" height="265" rx="4" fill="white"/>
<path d="M28.9805 79H27.8965V71.3828H25.2188V70.4336H31.6406V71.3828H28.9805V79ZM36.498 71.2598C35.5762 71.2598 34.8516 71.5684 34.3242 72.1855C33.7969 72.8027 33.5332 73.6465 33.5332 74.7168C33.5332 75.8223 33.7891 76.6758 34.3008 77.2773C34.8125 77.875 35.541 78.1738 36.4863 78.1738C37.0957 78.1738 37.7812 78.0605 38.543 77.834V78.7715C38.1797 78.9043 37.8301 78.9941 37.4941 79.041C37.1582 79.0918 36.7715 79.1172 36.334 79.1172C35.0723 79.1172 34.0996 78.7344 33.416 77.9688C32.7363 77.1992 32.3965 76.1113 32.3965 74.7051C32.3965 73.8223 32.5586 73.0488 32.8828 72.3848C33.2109 71.7207 33.6855 71.209 34.3066 70.8496C34.9316 70.4902 35.666 70.3105 36.5098 70.3105C37.416 70.3105 38.2051 70.4785 38.877 70.8145L38.4434 71.7285C37.7598 71.416 37.1113 71.2598 36.498 71.2598ZM39.832 75.9297V74.9453H42.7383V75.9297H39.832ZM49.8633 79L48.832 76.3457H45.4336L44.4141 79H43.3242L46.6699 70.3984H47.6426L50.9824 79H49.8633ZM48.5098 75.3906L47.5488 72.7949L47.1387 71.5117C47.0215 71.9805 46.8984 72.4082 46.7695 72.7949L45.7969 75.3906H48.5098Z" fill="#595959"/>
<path d="M28.8516 119H27.7676V111.383H25.0898V110.434H31.5117V111.383H28.8516V119ZM36.3691 111.26C35.4473 111.26 34.7227 111.568 34.1953 112.186C33.668 112.803 33.4043 113.646 33.4043 114.717C33.4043 115.822 33.6602 116.676 34.1719 117.277C34.6836 117.875 35.4121 118.174 36.3574 118.174C36.9668 118.174 37.6523 118.061 38.4141 117.834V118.771C38.0508 118.904 37.7012 118.994 37.3652 119.041C37.0293 119.092 36.6426 119.117 36.2051 119.117C34.9434 119.117 33.9707 118.734 33.2871 117.969C32.6074 117.199 32.2676 116.111 32.2676 114.705C32.2676 113.822 32.4297 113.049 32.7539 112.385C33.082 111.721 33.5566 111.209 34.1777 110.85C34.8027 110.49 35.5371 110.311 36.3809 110.311C37.2871 110.311 38.0762 110.479 38.748 110.814L38.3145 111.729C37.6309 111.416 36.9824 111.26 36.3691 111.26ZM39.7031 115.93V114.945H42.6094V115.93H39.7031ZM44.3613 110.434H46.8047C47.9531 110.434 48.7812 110.605 49.2891 110.949C49.8008 111.289 50.0566 111.824 50.0566 112.555C50.0566 113.062 49.918 113.482 49.6406 113.814C49.3633 114.143 48.959 114.355 48.4277 114.453V114.512C49.0879 114.625 49.5723 114.854 49.8809 115.197C50.1934 115.541 50.3496 115.996 50.3496 116.562C50.3496 117.328 50.0879 117.926 49.5645 118.355C49.041 118.785 48.3105 119 47.373 119H44.3613V110.434ZM45.4395 114.078H47.0215C47.6934 114.078 48.1816 113.971 48.4863 113.756C48.791 113.541 48.9434 113.182 48.9434 112.678C48.9434 112.209 48.7754 111.871 48.4395 111.664C48.1074 111.457 47.5801 111.354 46.8574 111.354H45.4395V114.078ZM45.4395 114.98V118.086H47.168C47.8555 118.086 48.3652 117.953 48.6973 117.688C49.0293 117.422 49.1953 117.02 49.1953 116.48C49.1953 115.969 49.0195 115.592 48.668 115.35C48.3164 115.104 47.7891 114.98 47.0859 114.98H45.4395Z" fill="#595959"/>
<path d="M29.0742 159H27.9902V151.383H25.3125V150.434H31.7344V151.383H29.0742V159ZM36.5918 151.26C35.6699 151.26 34.9453 151.568 34.418 152.186C33.8906 152.803 33.627 153.646 33.627 154.717C33.627 155.822 33.8828 156.676 34.3945 157.277C34.9062 157.875 35.6348 158.174 36.5801 158.174C37.1895 158.174 37.875 158.061 38.6367 157.834V158.771C38.2734 158.904 37.9238 158.994 37.5879 159.041C37.252 159.092 36.8652 159.117 36.4277 159.117C35.166 159.117 34.1934 158.734 33.5098 157.969C32.8301 157.199 32.4902 156.111 32.4902 154.705C32.4902 153.822 32.6523 153.049 32.9766 152.385C33.3047 151.721 33.7793 151.209 34.4004 150.85C35.0254 150.49 35.7598 150.311 36.6035 150.311C37.5098 150.311 38.2988 150.479 38.9707 150.814L38.5371 151.729C37.8535 151.416 37.2051 151.26 36.5918 151.26ZM39.9258 155.93V154.945H42.832V155.93H39.9258ZM48.252 151.26C47.3301 151.26 46.6055 151.568 46.0781 152.186C45.5508 152.803 45.2871 153.646 45.2871 154.717C45.2871 155.822 45.543 156.676 46.0547 157.277C46.5664 157.875 47.2949 158.174 48.2402 158.174C48.8496 158.174 49.5352 158.061 50.2969 157.834V158.771C49.9336 158.904 49.584 158.994 49.248 159.041C48.9121 159.092 48.5254 159.117 48.0879 159.117C46.8262 159.117 45.8535 158.734 45.1699 157.969C44.4902 157.199 44.1504 156.111 44.1504 154.705C44.1504 153.822 44.3125 153.049 44.6367 152.385C44.9648 151.721 45.4395 151.209 46.0605 150.85C46.6855 150.49 47.4199 150.311 48.2637 150.311C49.1699 150.311 49.959 150.479 50.6309 150.814L50.1973 151.729C49.5137 151.416 48.8652 151.26 48.252 151.26Z" fill="#595959"/>
<path d="M27.8906 199H26.8066V191.383H24.1289V190.434H30.5508V191.383H27.8906V199ZM35.4082 191.26C34.4863 191.26 33.7617 191.568 33.2344 192.186C32.707 192.803 32.4434 193.646 32.4434 194.717C32.4434 195.822 32.6992 196.676 33.2109 197.277C33.7227 197.875 34.4512 198.174 35.3965 198.174C36.0059 198.174 36.6914 198.061 37.4531 197.834V198.771C37.0898 198.904 36.7402 198.994 36.4043 199.041C36.0684 199.092 35.6816 199.117 35.2441 199.117C33.9824 199.117 33.0098 198.734 32.3262 197.969C31.6465 197.199 31.3066 196.111 31.3066 194.705C31.3066 193.822 31.4688 193.049 31.793 192.385C32.1211 191.721 32.5957 191.209 33.2168 190.85C33.8418 190.49 34.5762 190.311 35.4199 190.311C36.3262 190.311 37.1152 190.479 37.7871 190.814L37.3535 191.729C36.6699 191.416 36.0215 191.26 35.4082 191.26ZM38.7422 195.93V194.945H41.6484V195.93H38.7422ZM50.2617 194.635C50.2617 196.049 49.875 197.131 49.1016 197.881C48.332 198.627 47.2266 199 45.7852 199H43.4004V190.434H46.0371C47.3691 190.434 48.4062 190.801 49.1484 191.535C49.8906 192.266 50.2617 193.299 50.2617 194.635ZM49.125 194.67C49.125 193.58 48.8555 192.756 48.3164 192.197C47.7812 191.635 46.9707 191.354 45.8848 191.354H44.4785V198.074H45.6445C47.9648 198.074 49.125 196.939 49.125 194.67Z" fill="#595959"/>
<rect x="62" y="225" width="318" height="1" fill="#CED7D4"/>
<rect x="70" y="62" width="1" height="170" fill="#CED7D4"/>
<path d="M75.4375 237.705C75.4375 238.396 75.3867 239.016 75.2852 239.562C75.1875 240.109 75.0273 240.572 74.8047 240.951C74.5859 241.33 74.3027 241.619 73.9551 241.818C73.6074 242.018 73.1855 242.117 72.6895 242.117C72.2285 242.117 71.8262 242.018 71.4824 241.818C71.1426 241.619 70.8594 241.33 70.6328 240.951C70.4102 240.572 70.2422 240.109 70.1289 239.562C70.0195 239.016 69.9648 238.396 69.9648 237.705C69.9648 237.014 70.0137 236.395 70.1113 235.848C70.2129 235.301 70.3711 234.84 70.5859 234.465C70.8047 234.086 71.0859 233.797 71.4297 233.598C71.7773 233.398 72.1973 233.299 72.6895 233.299C73.1543 233.299 73.5586 233.398 73.9023 233.598C74.2461 233.793 74.5312 234.08 74.7578 234.459C74.9844 234.834 75.1543 235.295 75.2676 235.842C75.3809 236.389 75.4375 237.01 75.4375 237.705ZM71.0488 237.705C71.0488 238.291 71.0781 238.803 71.1367 239.24C71.1953 239.678 71.2891 240.043 71.418 240.336C71.5469 240.625 71.7148 240.844 71.9219 240.992C72.1328 241.137 72.3887 241.209 72.6895 241.209C72.9902 241.209 73.2461 241.137 73.457 240.992C73.668 240.848 73.8398 240.631 73.9727 240.342C74.1094 240.053 74.207 239.689 74.2656 239.252C74.3281 238.811 74.3594 238.295 74.3594 237.705C74.3594 237.119 74.3281 236.607 74.2656 236.17C74.207 235.732 74.1094 235.369 73.9727 235.08C73.8398 234.791 73.668 234.574 73.457 234.43C73.2461 234.285 72.9902 234.213 72.6895 234.213C72.3887 234.213 72.1328 234.285 71.9219 234.43C71.7148 234.574 71.5469 234.791 71.418 235.08C71.2891 235.369 71.1953 235.732 71.1367 236.17C71.0781 236.607 71.0488 237.119 71.0488 237.705Z" fill="#595959"/>
<path d="M221.584 236.744C221.971 236.744 222.33 236.799 222.662 236.908C222.998 237.014 223.289 237.172 223.535 237.383C223.785 237.594 223.98 237.855 224.121 238.168C224.262 238.48 224.332 238.842 224.332 239.252C224.332 239.697 224.266 240.098 224.133 240.453C224 240.809 223.803 241.109 223.541 241.355C223.279 241.602 222.955 241.791 222.568 241.924C222.186 242.053 221.744 242.117 221.244 242.117C221.045 242.117 220.848 242.107 220.652 242.088C220.461 242.068 220.275 242.039 220.096 242C219.92 241.965 219.752 241.918 219.592 241.859C219.432 241.801 219.287 241.732 219.158 241.654V240.646C219.287 240.736 219.438 240.816 219.609 240.887C219.785 240.957 219.969 241.016 220.16 241.062C220.352 241.109 220.543 241.146 220.734 241.174C220.93 241.197 221.109 241.209 221.273 241.209C221.582 241.209 221.857 241.174 222.1 241.104C222.342 241.029 222.547 240.916 222.715 240.764C222.883 240.611 223.012 240.42 223.102 240.189C223.191 239.959 223.236 239.686 223.236 239.369C223.236 238.811 223.064 238.385 222.721 238.092C222.377 237.795 221.877 237.646 221.221 237.646C221.115 237.646 221 237.652 220.875 237.664C220.754 237.672 220.631 237.684 220.506 237.699C220.385 237.715 220.268 237.732 220.154 237.752C220.045 237.768 219.949 237.783 219.867 237.799L219.34 237.465L219.662 233.434H223.705V234.406H220.588L220.359 236.861C220.484 236.838 220.648 236.812 220.852 236.785C221.059 236.758 221.303 236.744 221.584 236.744ZM231.047 237.705C231.047 238.396 230.996 239.016 230.895 239.562C230.797 240.109 230.637 240.572 230.414 240.951C230.195 241.33 229.912 241.619 229.564 241.818C229.217 242.018 228.795 242.117 228.299 242.117C227.838 242.117 227.436 242.018 227.092 241.818C226.752 241.619 226.469 241.33 226.242 240.951C226.02 240.572 225.852 240.109 225.738 239.562C225.629 239.016 225.574 238.396 225.574 237.705C225.574 237.014 225.623 236.395 225.721 235.848C225.822 235.301 225.98 234.84 226.195 234.465C226.414 234.086 226.695 233.797 227.039 233.598C227.387 233.398 227.807 233.299 228.299 233.299C228.764 233.299 229.168 233.398 229.512 233.598C229.855 233.793 230.141 234.08 230.367 234.459C230.594 234.834 230.764 235.295 230.877 235.842C230.99 236.389 231.047 237.01 231.047 237.705ZM226.658 237.705C226.658 238.291 226.688 238.803 226.746 239.24C226.805 239.678 226.898 240.043 227.027 240.336C227.156 240.625 227.324 240.844 227.531 240.992C227.742 241.137 227.998 241.209 228.299 241.209C228.6 241.209 228.855 241.137 229.066 240.992C229.277 240.848 229.449 240.631 229.582 240.342C229.719 240.053 229.816 239.689 229.875 239.252C229.938 238.811 229.969 238.295 229.969 237.705C229.969 237.119 229.938 236.607 229.875 236.17C229.816 235.732 229.719 235.369 229.582 235.08C229.449 234.791 229.277 234.574 229.066 234.43C228.855 234.285 228.6 234.213 228.299 234.213C227.998 234.213 227.742 234.285 227.531 234.43C227.324 234.574 227.156 234.791 227.027 235.08C226.898 235.369 226.805 235.732 226.746 236.17C226.688 236.607 226.658 237.119 226.658 237.705Z" fill="#595959"/>
<path d="M364.252 242H363.221V236.65C363.221 236.482 363.221 236.303 363.221 236.111C363.225 235.92 363.229 235.73 363.232 235.543C363.24 235.352 363.246 235.17 363.25 234.998C363.258 234.822 363.264 234.668 363.268 234.535C363.201 234.605 363.143 234.666 363.092 234.717C363.041 234.768 362.988 234.816 362.934 234.863C362.883 234.91 362.828 234.961 362.77 235.016C362.711 235.066 362.641 235.127 362.559 235.197L361.691 235.906L361.129 235.186L363.373 233.434H364.252V242ZM372.742 237.705C372.742 238.396 372.691 239.016 372.59 239.562C372.492 240.109 372.332 240.572 372.109 240.951C371.891 241.33 371.607 241.619 371.26 241.818C370.912 242.018 370.49 242.117 369.994 242.117C369.533 242.117 369.131 242.018 368.787 241.818C368.447 241.619 368.164 241.33 367.938 240.951C367.715 240.572 367.547 240.109 367.434 239.562C367.324 239.016 367.27 238.396 367.27 237.705C367.27 237.014 367.318 236.395 367.416 235.848C367.518 235.301 367.676 234.84 367.891 234.465C368.109 234.086 368.391 233.797 368.734 233.598C369.082 233.398 369.502 233.299 369.994 233.299C370.459 233.299 370.863 233.398 371.207 233.598C371.551 233.793 371.836 234.08 372.062 234.459C372.289 234.834 372.459 235.295 372.572 235.842C372.686 236.389 372.742 237.01 372.742 237.705ZM368.354 237.705C368.354 238.291 368.383 238.803 368.441 239.24C368.5 239.678 368.594 240.043 368.723 240.336C368.852 240.625 369.02 240.844 369.227 240.992C369.438 241.137 369.693 241.209 369.994 241.209C370.295 241.209 370.551 241.137 370.762 240.992C370.973 240.848 371.145 240.631 371.277 240.342C371.414 240.053 371.512 239.689 371.57 239.252C371.633 238.811 371.664 238.295 371.664 237.705C371.664 237.119 371.633 236.607 371.57 236.17C371.512 235.732 371.414 235.369 371.277 235.08C371.145 234.791 370.973 234.574 370.762 234.43C370.551 234.285 370.295 234.213 369.994 234.213C369.693 234.213 369.438 234.285 369.227 234.43C369.02 234.574 368.852 234.791 368.723 235.08C368.594 235.369 368.5 235.732 368.441 236.17C368.383 236.607 368.354 237.119 368.354 237.705ZM379.352 237.705C379.352 238.396 379.301 239.016 379.199 239.562C379.102 240.109 378.941 240.572 378.719 240.951C378.5 241.33 378.217 241.619 377.869 241.818C377.521 242.018 377.1 242.117 376.604 242.117C376.143 242.117 375.74 242.018 375.396 241.818C375.057 241.619 374.773 241.33 374.547 240.951C374.324 240.572 374.156 240.109 374.043 239.562C373.934 239.016 373.879 238.396 373.879 237.705C373.879 237.014 373.928 236.395 374.025 235.848C374.127 235.301 374.285 234.84 374.5 234.465C374.719 234.086 375 233.797 375.344 233.598C375.691 233.398 376.111 233.299 376.604 233.299C377.068 233.299 377.473 233.398 377.816 233.598C378.16 233.793 378.445 234.08 378.672 234.459C378.898 234.834 379.068 235.295 379.182 235.842C379.295 236.389 379.352 237.01 379.352 237.705ZM374.963 237.705C374.963 238.291 374.992 238.803 375.051 239.24C375.109 239.678 375.203 240.043 375.332 240.336C375.461 240.625 375.629 240.844 375.836 240.992C376.047 241.137 376.303 241.209 376.604 241.209C376.904 241.209 377.16 241.137 377.371 240.992C377.582 240.848 377.754 240.631 377.887 240.342C378.023 240.053 378.121 239.689 378.18 239.252C378.242 238.811 378.273 238.295 378.273 237.705C378.273 237.119 378.242 236.607 378.18 236.17C378.121 235.732 378.023 235.369 377.887 235.08C377.754 234.791 377.582 234.574 377.371 234.43C377.16 234.285 376.904 234.213 376.604 234.213C376.303 234.213 376.047 234.285 375.836 234.43C375.629 234.574 375.461 234.791 375.332 235.08C375.203 235.369 375.109 235.732 375.051 236.17C374.992 236.607 374.963 237.119 374.963 237.705Z" fill="#595959"/>
<rect x="134.615" y="185" width="28.735" height="20" fill="#4CA2A8"/>
<rect x="100.652" y="185" width="28.735" height="20" fill="#4CA2A8"/>
<rect x="196.068" y="185.5" width="27.735" height="19" stroke="#CED7D4"/>
<rect x="165.592" y="185.5" width="27.735" height="19" stroke="#CED7D4"/>
<rect x="257.023" y="185.5" width="27.735" height="19" stroke="#CED7D4"/>
<rect x="226.547" y="185.5" width="27.735" height="19" stroke="#CED7D4"/>
<rect x="351.941" y="185.5" width="27.735" height="19" stroke="#CED7D4"/>
<rect x="321.465" y="185.5" width="27.735" height="19" stroke="#CED7D4"/>
<path d="M70.1758 185H98.9108V205H70.1758V185Z" fill="#4CA2A8"/>
<path d="M164.98 185H188.502V205H164.98V185Z" fill="#4CA2A8"/>
<rect x="287.5" y="185.5" width="27.735" height="19" stroke="#CED7D4"/>
<rect x="134.615" y="145" width="28.735" height="20" fill="#4CA2A8"/>
<rect x="100.652" y="145" width="28.735" height="20" fill="#4CA2A8"/>
<rect x="196.068" y="145.5" width="27.735" height="19" stroke="#CED7D4"/>
<rect x="165.592" y="145.5" width="27.735" height="19" stroke="#CED7D4"/>
<rect x="257.023" y="145.5" width="27.735" height="19" stroke="#CED7D4"/>
<rect x="226.547" y="145.5" width="27.735" height="19" stroke="#CED7D4"/>
<rect x="351.941" y="145.5" width="27.735" height="19" stroke="#CED7D4"/>
<rect x="321.465" y="145.5" width="27.735" height="19" stroke="#CED7D4"/>
<rect x="70.1758" y="145" width="28.735" height="20" fill="#4CA2A8"/>
<rect x="287.5" y="145.5" width="27.735" height="19" stroke="#CED7D4"/>
<rect x="131.131" y="105" width="28.735" height="20" fill="#4CA2A8"/>
<rect x="100.652" y="105" width="28.735" height="20" fill="#4CA2A8"/>
<rect x="195.568" y="105" width="28.735" height="20" fill="#4CA2A8"/>
<rect x="165.092" y="105" width="28.735" height="20" fill="#4CA2A8"/>
<rect x="256.523" y="105" width="28.735" height="20" fill="#4CA2A8"/>
<rect x="226.047" y="105" width="28.735" height="20" fill="#4CA2A8"/>
<rect x="351.941" y="105.5" width="27.735" height="19" stroke="#CED7D4"/>
<rect x="321.465" y="105.5" width="27.735" height="19" stroke="#CED7D4"/>
<rect x="70.1758" y="105" width="28.735" height="20" fill="#4CA2A8"/>
<rect x="290.988" y="105.5" width="27.735" height="19" stroke="#CED7D4"/>
<rect x="134.615" y="65" width="28.735" height="20" fill="#E6B056"/>
<rect x="100.652" y="65" width="28.735" height="20" fill="#E6B056"/>
<rect x="196.068" y="65.5" width="27.735" height="19" stroke="#CED7D4"/>
<rect x="165.092" y="65" width="28.735" height="20" fill="#E6B056"/>
<rect x="257.023" y="65.5" width="27.735" height="19" stroke="#CED7D4"/>
<rect x="226.547" y="65.5" width="27.735" height="19" stroke="#CED7D4"/>
<rect x="351.941" y="65.5" width="27.735" height="19" stroke="#CED7D4"/>
<rect x="321.465" y="65.5" width="27.735" height="19" stroke="#CED7D4"/>
<rect x="70.1758" y="65" width="28.735" height="20" fill="#E6B056"/>
<rect x="287.5" y="65.5" width="27.735" height="19" stroke="#CED7D4"/>
<rect x="100.514" y="65" width="6.96935" height="20" fill="#E6B056"/>
<path d="M406.383 81.25H391.617L399 68.4979L406.383 81.25Z" fill="#FEEAEE" stroke="#E16E75"/>
<path d="M399.573 78H398.07V79.5H399.573V78Z" fill="#C21A2C"/>
<path d="M399.573 73.5H398.07V76.5H399.573V73.5Z" fill="#C21A2C"/>
</g>
<defs>
<clipPath id="clip0_0_1">
<rect width="425" height="265" rx="4" fill="white"/>
</clipPath>
</defs>
</svg>
