<svg width="882" height="265" viewBox="0 0 882 265" fill="none" xmlns="http://www.w3.org/2000/svg">
<rect width="882" height="265" fill="#F5F5F5"/>
<rect x="-12937" y="-6756" width="23840" height="13376" fill="#F8FAF9"/>
<g clip-path="url(#clip0_0_1)">
<rect width="882" height="265" rx="4" fill="white"/>
<rect width="386" height="1" transform="translate(21 190)" fill="#CED7D4"/>
<rect width="386" height="1" transform="translate(21 69)" fill="#CED7D4"/>
<rect width="386" height="1" transform="translate(21 130)" fill="#CED7D4"/>
<path d="M26.7012 42.7227H30.1533V47.624C29.6247 47.7926 29.0869 47.9202 28.54 48.0068C27.9932 48.0934 27.3597 48.1367 26.6396 48.1367C25.1175 48.1367 23.9395 47.6855 23.1055 46.7832C22.2715 45.8809 21.8545 44.6208 21.8545 43.0029C21.8545 41.9593 22.0618 41.0479 22.4766 40.2686C22.8913 39.4893 23.4883 38.8945 24.2676 38.4844C25.0514 38.0697 25.9743 37.8623 27.0361 37.8623C28.1025 37.8623 29.096 38.0583 30.0166 38.4502L29.5381 39.5439C28.6585 39.1611 27.7995 38.9697 26.9609 38.9697C25.7715 38.9697 24.8418 39.3298 24.1719 40.0498C23.502 40.7699 23.167 41.7542 23.167 43.0029C23.167 44.3245 23.4883 45.3294 24.1309 46.0176C24.7734 46.7057 25.7077 47.0498 26.9336 47.0498C27.6035 47.0498 28.2575 46.9701 28.8955 46.8105V43.8438H26.7012V42.7227ZM35.7246 48H34.46V39.1133H31.3359V38.0059H38.8281V39.1133H35.7246V48ZM49.6562 45.3271C49.6562 46.1976 49.3418 46.8835 48.7129 47.3848C48.084 47.8861 47.209 48.1367 46.0879 48.1367C44.903 48.1367 43.987 47.9795 43.3398 47.665V46.4619C43.7637 46.6442 44.2262 46.7878 44.7275 46.8926C45.2334 46.9974 45.7051 47.0498 46.1426 47.0498C46.89 47.0498 47.4528 46.9062 47.8311 46.6191C48.2093 46.332 48.3984 45.9378 48.3984 45.4365C48.3984 45.1038 48.3301 44.8304 48.1934 44.6162C48.0566 44.402 47.8265 44.2015 47.5029 44.0146C47.1839 43.8278 46.6986 43.6159 46.0469 43.3789C45.1217 43.0417 44.4609 42.6452 44.0645 42.1895C43.668 41.7292 43.4697 41.1367 43.4697 40.4121C43.4697 39.6328 43.7614 39.013 44.3447 38.5527C44.9326 38.0924 45.7051 37.8623 46.6621 37.8623C47.6602 37.8623 48.5785 38.0492 49.417 38.4229L49.0273 39.5029C48.1706 39.1475 47.373 38.9697 46.6348 38.9697C46.0423 38.9697 45.5775 39.0973 45.2402 39.3525C44.9076 39.6077 44.7412 39.9655 44.7412 40.4258C44.7412 40.7539 44.805 41.0273 44.9326 41.2461C45.0648 41.4603 45.2744 41.6562 45.5615 41.834C45.8532 42.0117 46.3089 42.2145 46.9287 42.4424C47.6715 42.7158 48.2253 42.9824 48.5898 43.2422C48.9544 43.4974 49.2233 43.7936 49.3965 44.1309C49.5697 44.4635 49.6562 44.8623 49.6562 45.3271ZM54.0107 47.1318C54.1702 47.1318 54.3571 47.1159 54.5713 47.084C54.7855 47.0521 54.9473 47.0156 55.0566 46.9746V47.918C54.9427 47.9681 54.765 48.016 54.5234 48.0615C54.2865 48.1117 54.0449 48.1367 53.7988 48.1367C52.3314 48.1367 51.5977 47.3643 51.5977 45.8193V41.4512H50.5381V40.8633L51.6113 40.3711L52.1035 38.7715H52.835V40.4941H55.002V41.4512H52.835V45.7852C52.835 46.2181 52.9375 46.5508 53.1426 46.7832C53.3522 47.0156 53.6416 47.1318 54.0107 47.1318ZM61.1953 48L60.9561 46.9336H60.9014C60.5277 47.403 60.154 47.722 59.7803 47.8906C59.4111 48.0547 58.944 48.1367 58.3789 48.1367C57.6406 48.1367 57.0618 47.943 56.6426 47.5557C56.2233 47.1683 56.0137 46.6214 56.0137 45.915C56.0137 44.3929 57.2145 43.5954 59.6162 43.5225L60.8877 43.4746V43.0303C60.8877 42.4606 60.7646 42.0413 60.5186 41.7725C60.2725 41.499 59.8783 41.3623 59.3359 41.3623C58.9395 41.3623 58.5635 41.4215 58.208 41.54C57.8571 41.6585 57.5267 41.7907 57.2168 41.9365L56.8408 41.0137C57.2191 40.8132 57.6315 40.6559 58.0781 40.542C58.5247 40.4281 58.9668 40.3711 59.4043 40.3711C60.3112 40.3711 60.9857 40.5716 61.4277 40.9727C61.8698 41.3737 62.0908 42.0117 62.0908 42.8867V48H61.1953ZM58.6592 47.1455C59.3473 47.1455 59.8874 46.9609 60.2793 46.5918C60.6758 46.2181 60.874 45.6895 60.874 45.0059V44.3291L59.7666 44.377C58.9053 44.4089 58.2764 44.5456 57.8799 44.7871C57.488 45.0286 57.292 45.4092 57.292 45.9287C57.292 46.3206 57.4105 46.6214 57.6475 46.8311C57.889 47.0407 58.2262 47.1455 58.6592 47.1455ZM66.9307 47.1318C67.0902 47.1318 67.277 47.1159 67.4912 47.084C67.7054 47.0521 67.8672 47.0156 67.9766 46.9746V47.918C67.8626 47.9681 67.6849 48.016 67.4434 48.0615C67.2064 48.1117 66.9648 48.1367 66.7188 48.1367C65.2513 48.1367 64.5176 47.3643 64.5176 45.8193V41.4512H63.458V40.8633L64.5312 40.3711L65.0234 38.7715H65.7549V40.4941H67.9219V41.4512H65.7549V45.7852C65.7549 46.2181 65.8574 46.5508 66.0625 46.7832C66.2721 47.0156 66.5615 47.1318 66.9307 47.1318ZM70.6426 40.4941V45.3271C70.6426 45.9333 70.777 46.3844 71.0459 46.6807C71.3193 46.9723 71.7409 47.1182 72.3105 47.1182C73.0807 47.1182 73.6413 46.904 73.9922 46.4756C74.3431 46.0472 74.5186 45.3568 74.5186 44.4043V40.4941H75.7559V48H74.7441L74.5664 47.0088H74.5049C74.2816 47.3688 73.9648 47.6468 73.5547 47.8428C73.1445 48.0387 72.6683 48.1367 72.126 48.1367C71.2236 48.1367 70.5423 47.9202 70.082 47.4873C69.6263 47.0544 69.3984 46.3617 69.3984 45.4092V40.4941H70.6426ZM83.0225 45.9287C83.0225 46.6305 82.7604 47.1751 82.2363 47.5625C81.7122 47.9453 80.9762 48.1367 80.0283 48.1367C79.0394 48.1367 78.2533 47.9795 77.6699 47.665V46.5439C78.4948 46.945 79.29 47.1455 80.0557 47.1455C80.6755 47.1455 81.1266 47.0452 81.4092 46.8447C81.6917 46.6442 81.833 46.3753 81.833 46.0381C81.833 45.7419 81.6963 45.4912 81.4229 45.2861C81.154 45.0811 80.6732 44.8464 79.9805 44.582C79.2741 44.3086 78.7773 44.0762 78.4902 43.8848C78.2031 43.6888 77.9912 43.4701 77.8545 43.2285C77.7223 42.987 77.6562 42.693 77.6562 42.3467C77.6562 41.7314 77.9069 41.2461 78.4082 40.8906C78.9095 40.5352 79.5977 40.3574 80.4727 40.3574C81.3249 40.3574 82.1224 40.526 82.8652 40.8633L82.4482 41.8408C81.6872 41.5218 81.0013 41.3623 80.3906 41.3623C79.8802 41.3623 79.4928 41.4443 79.2285 41.6084C78.9642 41.7679 78.832 41.9889 78.832 42.2715C78.832 42.5449 78.946 42.7728 79.1738 42.9551C79.4017 43.1328 79.9326 43.3812 80.7666 43.7002C81.391 43.9326 81.8512 44.1491 82.1475 44.3496C82.4482 44.5501 82.6693 44.7757 82.8105 45.0264C82.9518 45.277 83.0225 45.5778 83.0225 45.9287ZM22.3604 98.0059H25.2109C26.5508 98.0059 27.5169 98.2064 28.1094 98.6074C28.7064 99.0039 29.0049 99.6283 29.0049 100.48C29.0049 101.073 28.8431 101.563 28.5195 101.95C28.196 102.333 27.7243 102.581 27.1045 102.695V102.764C27.8747 102.896 28.4398 103.162 28.7998 103.563C29.1644 103.965 29.3467 104.495 29.3467 105.156C29.3467 106.049 29.0413 106.747 28.4307 107.248C27.82 107.749 26.9678 108 25.874 108H22.3604V98.0059ZM23.6182 102.258H25.4639C26.2477 102.258 26.8174 102.132 27.1729 101.882C27.5283 101.631 27.7061 101.212 27.7061 100.624C27.7061 100.077 27.5101 99.6829 27.1182 99.4414C26.7308 99.1999 26.1156 99.0791 25.2725 99.0791H23.6182V102.258ZM23.6182 103.311V106.934H25.6348C26.4368 106.934 27.0316 106.779 27.4189 106.469C27.8063 106.159 28 105.689 28 105.061C28 104.464 27.7949 104.024 27.3848 103.741C26.9746 103.454 26.3594 103.311 25.5391 103.311H23.6182ZM32.457 100.494V105.327C32.457 105.933 32.5915 106.384 32.8604 106.681C33.1338 106.972 33.5553 107.118 34.125 107.118C34.8952 107.118 35.4557 106.904 35.8066 106.476C36.1576 106.047 36.333 105.357 36.333 104.404V100.494H37.5703V108H36.5586L36.3809 107.009H36.3193C36.096 107.369 35.7793 107.647 35.3691 107.843C34.959 108.039 34.4827 108.137 33.9404 108.137C33.0381 108.137 32.3568 107.92 31.8965 107.487C31.4408 107.054 31.2129 106.362 31.2129 105.409V100.494H32.457ZM43.4492 100.357C43.7819 100.357 44.0758 100.385 44.3311 100.439L44.1807 101.574C43.9027 101.51 43.6315 101.479 43.3672 101.479C42.9707 101.479 42.6016 101.588 42.2598 101.807C41.9225 102.025 41.6582 102.328 41.4668 102.716C41.2754 103.099 41.1797 103.525 41.1797 103.994V108H39.9492V100.494H40.9609L41.0977 101.868H41.1523C41.4395 101.371 41.779 100.995 42.1709 100.74C42.5628 100.485 42.9889 100.357 43.4492 100.357ZM50.8457 108V103.201C50.8457 102.59 50.709 102.137 50.4355 101.841C50.1667 101.54 49.7428 101.39 49.1641 101.39C48.3939 101.39 47.8333 101.604 47.4824 102.032C47.1361 102.456 46.9629 103.149 46.9629 104.11V108H45.7324V100.494H46.7236L46.9082 101.52H46.9766C47.209 101.15 47.5348 100.866 47.9541 100.665C48.3734 100.46 48.8359 100.357 49.3418 100.357C50.2624 100.357 50.946 100.581 51.3926 101.027C51.8392 101.474 52.0625 102.169 52.0625 103.112V108H50.8457ZM57.5791 108.137C56.4535 108.137 55.5693 107.797 54.9268 107.118C54.2887 106.435 53.9697 105.496 53.9697 104.302C53.9697 103.099 54.2682 102.142 54.8652 101.431C55.4622 100.715 56.2689 100.357 57.2852 100.357C58.2285 100.357 58.9805 100.663 59.541 101.273C60.1016 101.88 60.3818 102.702 60.3818 103.741V104.486H55.2412C55.264 105.339 55.4805 105.986 55.8906 106.428C56.3008 106.87 56.8818 107.091 57.6338 107.091C58.0348 107.091 58.4154 107.057 58.7754 106.988C59.1354 106.915 59.557 106.776 60.04 106.571V107.651C59.6253 107.829 59.2357 107.954 58.8711 108.027C58.5065 108.1 58.0758 108.137 57.5791 108.137ZM57.2715 101.362C56.6836 101.362 56.2188 101.551 55.877 101.93C55.5352 102.308 55.3324 102.834 55.2686 103.509H59.0898C59.0807 102.807 58.9189 102.274 58.6045 101.909C58.29 101.545 57.8457 101.362 57.2715 101.362ZM65.7891 100.357C66.1217 100.357 66.4157 100.385 66.6709 100.439L66.5205 101.574C66.2425 101.51 65.9714 101.479 65.707 101.479C65.3105 101.479 64.9414 101.588 64.5996 101.807C64.2624 102.025 63.998 102.328 63.8066 102.716C63.6152 103.099 63.5195 103.525 63.5195 103.994V108H62.2891V100.494H63.3008L63.4375 101.868H63.4922C63.7793 101.371 64.1188 100.995 64.5107 100.74C64.9027 100.485 65.3288 100.357 65.7891 100.357ZM76.2891 108L72.9941 99.2363H72.9395C73.0078 99.9655 73.042 100.866 73.042 101.937V108H71.8799V98.0059H73.7393L76.8223 106.195H76.877L80.0146 98.0059H81.8604V108H80.6162V101.854C80.6162 101.171 80.6481 100.303 80.7119 99.25H80.6572L77.3213 108H76.2891ZM90.9316 104.233C90.9316 105.459 90.6217 106.416 90.002 107.104C89.3822 107.793 88.5254 108.137 87.4316 108.137C86.7526 108.137 86.151 107.979 85.627 107.665C85.1029 107.346 84.6995 106.89 84.417 106.298C84.1344 105.705 83.9932 105.017 83.9932 104.233C83.9932 103.012 84.2985 102.062 84.9092 101.383C85.5199 100.699 86.3766 100.357 87.4795 100.357C88.5368 100.357 89.3753 100.706 89.9951 101.403C90.6195 102.096 90.9316 103.039 90.9316 104.233ZM85.2646 104.233C85.2646 105.177 85.4492 105.895 85.8184 106.387C86.1921 106.874 86.7412 107.118 87.4658 107.118C88.1813 107.118 88.7259 106.874 89.0996 106.387C89.4733 105.895 89.6602 105.177 89.6602 104.233C89.6602 103.29 89.471 102.581 89.0928 102.107C88.7191 101.629 88.1699 101.39 87.4453 101.39C85.9915 101.39 85.2646 102.338 85.2646 104.233ZM95.5459 108.137C94.5706 108.137 93.8141 107.799 93.2764 107.125C92.7386 106.451 92.4697 105.496 92.4697 104.261C92.4697 103.035 92.7386 102.078 93.2764 101.39C93.8187 100.701 94.5798 100.357 95.5596 100.357C96.5667 100.357 97.3415 100.727 97.8838 101.465H97.9727C97.959 101.374 97.9408 101.191 97.918 100.918C97.8952 100.64 97.8838 100.453 97.8838 100.357V97.3633H99.1143V108H98.123L97.9385 106.995H97.8838C97.3597 107.756 96.5804 108.137 95.5459 108.137ZM95.7441 107.118C96.4915 107.118 97.0361 106.915 97.3779 106.51C97.7243 106.1 97.8975 105.43 97.8975 104.5V104.274C97.8975 103.231 97.722 102.488 97.3711 102.046C97.0247 101.599 96.4779 101.376 95.7305 101.376C95.097 101.376 94.6071 101.629 94.2607 102.135C93.9144 102.636 93.7412 103.354 93.7412 104.288C93.7412 105.218 93.9121 105.922 94.2539 106.4C94.6003 106.879 95.097 107.118 95.7441 107.118ZM104.692 108.137C103.567 108.137 102.683 107.797 102.04 107.118C101.402 106.435 101.083 105.496 101.083 104.302C101.083 103.099 101.382 102.142 101.979 101.431C102.576 100.715 103.382 100.357 104.398 100.357C105.342 100.357 106.094 100.663 106.654 101.273C107.215 101.88 107.495 102.702 107.495 103.741V104.486H102.354C102.377 105.339 102.594 105.986 103.004 106.428C103.414 106.87 103.995 107.091 104.747 107.091C105.148 107.091 105.529 107.057 105.889 106.988C106.249 106.915 106.67 106.776 107.153 106.571V107.651C106.739 107.829 106.349 107.954 105.984 108.027C105.62 108.1 105.189 108.137 104.692 108.137ZM104.385 101.362C103.797 101.362 103.332 101.551 102.99 101.93C102.648 102.308 102.446 102.834 102.382 103.509H106.203C106.194 102.807 106.032 102.274 105.718 101.909C105.403 101.545 104.959 101.362 104.385 101.362ZM30.3652 162.907C30.3652 164.557 29.9141 165.819 29.0117 166.694C28.1139 167.565 26.8242 168 25.1426 168H22.3604V158.006H25.4365C26.9906 158.006 28.2005 158.434 29.0664 159.291C29.9323 160.143 30.3652 161.349 30.3652 162.907ZM29.0391 162.948C29.0391 161.677 28.7246 160.715 28.0957 160.063C27.4714 159.407 26.5257 159.079 25.2588 159.079H23.6182V166.92H24.9785C27.6855 166.92 29.0391 165.596 29.0391 162.948ZM32.5869 168V158.006H33.8447V166.879H38.2129V168H32.5869ZM45.5137 168H39.9287V158.006H45.5137V159.113H41.1865V162.23H45.2607V163.324H41.1865V166.893H45.5137V168ZM60.7373 168V163.167C60.7373 161.982 60.2292 161.39 59.2129 161.39C58.5156 161.39 58.0029 161.592 57.6748 161.998C57.3467 162.404 57.1826 163.023 57.1826 163.857V168H55.959V163.167C55.959 162.575 55.8337 162.13 55.583 161.834C55.3369 161.538 54.9495 161.39 54.4209 161.39C53.7282 161.39 53.2201 161.602 52.8965 162.025C52.5775 162.449 52.418 163.144 52.418 164.11V168H51.1875V160.494H52.1787L52.3633 161.52H52.4316C52.6458 161.155 52.9466 160.87 53.334 160.665C53.7259 160.46 54.1634 160.357 54.6465 160.357C55.8223 160.357 56.5879 160.777 56.9434 161.615H57.0117C57.2533 161.214 57.5814 160.904 57.9961 160.686C58.4154 160.467 58.8893 160.357 59.418 160.357C60.2656 160.357 60.8991 160.576 61.3184 161.014C61.7422 161.451 61.9541 162.151 61.9541 163.112V168H60.7373ZM68.9199 168L68.6807 166.934H68.626C68.2523 167.403 67.8786 167.722 67.5049 167.891C67.1357 168.055 66.6686 168.137 66.1035 168.137C65.3652 168.137 64.7865 167.943 64.3672 167.556C63.9479 167.168 63.7383 166.621 63.7383 165.915C63.7383 164.393 64.9391 163.595 67.3408 163.522L68.6123 163.475V163.03C68.6123 162.461 68.4893 162.041 68.2432 161.772C67.9971 161.499 67.6029 161.362 67.0605 161.362C66.6641 161.362 66.2881 161.422 65.9326 161.54C65.5817 161.659 65.2513 161.791 64.9414 161.937L64.5654 161.014C64.9437 160.813 65.3561 160.656 65.8027 160.542C66.2493 160.428 66.6914 160.371 67.1289 160.371C68.0358 160.371 68.7103 160.572 69.1523 160.973C69.5944 161.374 69.8154 162.012 69.8154 162.887V168H68.9199ZM66.3838 167.146C67.0719 167.146 67.612 166.961 68.0039 166.592C68.4004 166.218 68.5986 165.689 68.5986 165.006V164.329L67.4912 164.377C66.6299 164.409 66.001 164.546 65.6045 164.787C65.2126 165.029 65.0166 165.409 65.0166 165.929C65.0166 166.321 65.1351 166.621 65.3721 166.831C65.6136 167.041 65.9508 167.146 66.3838 167.146ZM75.7012 168.137C74.694 168.137 73.9193 167.774 73.377 167.05H73.2949L73.3223 167.33C73.3587 167.686 73.377 168.002 73.377 168.28V171.363H72.1465V160.494H73.1582L73.3223 161.52H73.377C73.6686 161.109 74.0059 160.813 74.3887 160.631C74.7715 160.449 75.2135 160.357 75.7148 160.357C76.6901 160.357 77.4466 160.697 77.9844 161.376C78.5267 162.05 78.7979 163.003 78.7979 164.233C78.7979 165.459 78.5267 166.416 77.9844 167.104C77.4421 167.793 76.681 168.137 75.7012 168.137ZM75.4961 161.39C74.7533 161.39 74.2155 161.599 73.8828 162.019C73.5547 162.438 73.3861 163.096 73.377 163.994V164.233C73.377 165.25 73.5456 165.986 73.8828 166.441C74.2201 166.893 74.7669 167.118 75.5234 167.118C76.1523 167.118 76.6423 166.863 76.9932 166.353C77.3486 165.842 77.5264 165.131 77.5264 164.22C77.5264 163.304 77.3486 162.604 76.9932 162.121C76.6423 161.633 76.1432 161.39 75.4961 161.39ZM84.3145 168.137C83.3073 168.137 82.5326 167.774 81.9902 167.05H81.9082L81.9355 167.33C81.972 167.686 81.9902 168.002 81.9902 168.28V171.363H80.7598V160.494H81.7715L81.9355 161.52H81.9902C82.2819 161.109 82.6191 160.813 83.002 160.631C83.3848 160.449 83.8268 160.357 84.3281 160.357C85.3034 160.357 86.0599 160.697 86.5977 161.376C87.14 162.05 87.4111 163.003 87.4111 164.233C87.4111 165.459 87.14 166.416 86.5977 167.104C86.0553 167.793 85.2943 168.137 84.3145 168.137ZM84.1094 161.39C83.3665 161.39 82.8288 161.599 82.4961 162.019C82.168 162.438 81.9993 163.096 81.9902 163.994V164.233C81.9902 165.25 82.1589 165.986 82.4961 166.441C82.8333 166.893 83.3802 167.118 84.1367 167.118C84.7656 167.118 85.2555 166.863 85.6064 166.353C85.9619 165.842 86.1396 165.131 86.1396 164.22C86.1396 163.304 85.9619 162.604 85.6064 162.121C85.2555 161.633 84.7565 161.39 84.1094 161.39ZM90.6035 168H89.373V160.494H90.6035V168ZM89.2773 158.464C89.2773 158.19 89.3457 157.992 89.4824 157.869C89.6237 157.746 89.7969 157.685 90.002 157.685C90.1934 157.685 90.3597 157.746 90.501 157.869C90.6468 157.992 90.7197 158.19 90.7197 158.464C90.7197 158.733 90.6468 158.931 90.501 159.059C90.3597 159.186 90.1934 159.25 90.002 159.25C89.7969 159.25 89.6237 159.186 89.4824 159.059C89.3457 158.931 89.2773 158.733 89.2773 158.464ZM98.0957 168V163.201C98.0957 162.59 97.959 162.137 97.6855 161.841C97.4167 161.54 96.9928 161.39 96.4141 161.39C95.6439 161.39 95.0833 161.604 94.7324 162.032C94.3861 162.456 94.2129 163.149 94.2129 164.11V168H92.9824V160.494H93.9736L94.1582 161.52H94.2266C94.459 161.15 94.7848 160.866 95.2041 160.665C95.6234 160.46 96.0859 160.357 96.5918 160.357C97.5124 160.357 98.196 160.581 98.6426 161.027C99.0892 161.474 99.3125 162.169 99.3125 163.112V168H98.0957ZM104.494 167.132C105.251 167.132 105.8 166.929 106.142 166.523C106.488 166.113 106.661 165.457 106.661 164.555V164.261C106.661 163.258 106.488 162.529 106.142 162.073C105.795 161.618 105.237 161.39 104.467 161.39C103.838 161.39 103.35 161.64 103.004 162.142C102.662 162.638 102.491 163.349 102.491 164.274C102.491 165.204 102.658 165.913 102.99 166.4C103.327 166.888 103.829 167.132 104.494 167.132ZM106.647 167.932L106.688 167.009H106.634C106.128 167.761 105.353 168.137 104.31 168.137C103.339 168.137 102.58 167.799 102.033 167.125C101.491 166.446 101.22 165.491 101.22 164.261C101.22 163.053 101.493 162.101 102.04 161.403C102.591 160.706 103.343 160.357 104.296 160.357C105.312 160.357 106.096 160.736 106.647 161.492H106.723L106.887 160.494H107.864V168.123C107.864 169.199 107.591 170.007 107.044 170.55C106.502 171.092 105.656 171.363 104.508 171.363C103.414 171.363 102.514 171.204 101.808 170.885V169.75C102.537 170.142 103.46 170.338 104.576 170.338C105.214 170.338 105.718 170.151 106.087 169.777C106.461 169.404 106.647 168.886 106.647 168.226V167.932ZM119 168V163.201C119 162.59 118.863 162.137 118.59 161.841C118.321 161.54 117.897 161.39 117.318 161.39C116.548 161.39 115.988 161.604 115.637 162.032C115.29 162.456 115.117 163.149 115.117 164.11V168H113.887V160.494H114.878L115.062 161.52H115.131C115.363 161.15 115.689 160.866 116.108 160.665C116.528 160.46 116.99 160.357 117.496 160.357C118.417 160.357 119.1 160.581 119.547 161.027C119.993 161.474 120.217 162.169 120.217 163.112V168H119ZM125.733 168.137C124.608 168.137 123.724 167.797 123.081 167.118C122.443 166.435 122.124 165.496 122.124 164.302C122.124 163.099 122.423 162.142 123.02 161.431C123.617 160.715 124.423 160.357 125.439 160.357C126.383 160.357 127.135 160.663 127.695 161.273C128.256 161.88 128.536 162.702 128.536 163.741V164.486H123.396C123.418 165.339 123.635 165.986 124.045 166.428C124.455 166.87 125.036 167.091 125.788 167.091C126.189 167.091 126.57 167.057 126.93 166.988C127.29 166.915 127.711 166.776 128.194 166.571V167.651C127.78 167.829 127.39 167.954 127.025 168.027C126.661 168.1 126.23 168.137 125.733 168.137ZM125.426 161.362C124.838 161.362 124.373 161.551 124.031 161.93C123.689 162.308 123.487 162.834 123.423 163.509H127.244C127.235 162.807 127.073 162.274 126.759 161.909C126.444 161.545 126 161.362 125.426 161.362ZM133.636 168.137C132.51 168.137 131.626 167.797 130.983 167.118C130.345 166.435 130.026 165.496 130.026 164.302C130.026 163.099 130.325 162.142 130.922 161.431C131.519 160.715 132.326 160.357 133.342 160.357C134.285 160.357 135.037 160.663 135.598 161.273C136.158 161.88 136.438 162.702 136.438 163.741V164.486H131.298C131.321 165.339 131.537 165.986 131.947 166.428C132.357 166.87 132.938 167.091 133.69 167.091C134.091 167.091 134.472 167.057 134.832 166.988C135.192 166.915 135.614 166.776 136.097 166.571V167.651C135.682 167.829 135.292 167.954 134.928 168.027C134.563 168.1 134.132 168.137 133.636 168.137ZM133.328 161.362C132.74 161.362 132.275 161.551 131.934 161.93C131.592 162.308 131.389 162.834 131.325 163.509H135.146C135.137 162.807 134.976 162.274 134.661 161.909C134.347 161.545 133.902 161.362 133.328 161.362ZM141.005 168.137C140.03 168.137 139.273 167.799 138.735 167.125C138.198 166.451 137.929 165.496 137.929 164.261C137.929 163.035 138.198 162.078 138.735 161.39C139.278 160.701 140.039 160.357 141.019 160.357C142.026 160.357 142.8 160.727 143.343 161.465H143.432C143.418 161.374 143.4 161.191 143.377 160.918C143.354 160.64 143.343 160.453 143.343 160.357V157.363H144.573V168H143.582L143.397 166.995H143.343C142.819 167.756 142.039 168.137 141.005 168.137ZM141.203 167.118C141.951 167.118 142.495 166.915 142.837 166.51C143.183 166.1 143.356 165.43 143.356 164.5V164.274C143.356 163.231 143.181 162.488 142.83 162.046C142.484 161.599 141.937 161.376 141.189 161.376C140.556 161.376 140.066 161.629 139.72 162.135C139.373 162.636 139.2 163.354 139.2 164.288C139.2 165.218 139.371 165.922 139.713 166.4C140.059 166.879 140.556 167.118 141.203 167.118ZM150.151 168.137C149.026 168.137 148.142 167.797 147.499 167.118C146.861 166.435 146.542 165.496 146.542 164.302C146.542 163.099 146.84 162.142 147.438 161.431C148.035 160.715 148.841 160.357 149.857 160.357C150.801 160.357 151.553 160.663 152.113 161.273C152.674 161.88 152.954 162.702 152.954 163.741V164.486H147.813C147.836 165.339 148.053 165.986 148.463 166.428C148.873 166.87 149.454 167.091 150.206 167.091C150.607 167.091 150.988 167.057 151.348 166.988C151.708 166.915 152.129 166.776 152.612 166.571V167.651C152.198 167.829 151.808 167.954 151.443 168.027C151.079 168.1 150.648 168.137 150.151 168.137ZM149.844 161.362C149.256 161.362 148.791 161.551 148.449 161.93C148.107 162.308 147.905 162.834 147.841 163.509H151.662C151.653 162.807 151.491 162.274 151.177 161.909C150.862 161.545 150.418 161.362 149.844 161.362ZM157.521 168.137C156.545 168.137 155.789 167.799 155.251 167.125C154.713 166.451 154.444 165.496 154.444 164.261C154.444 163.035 154.713 162.078 155.251 161.39C155.793 160.701 156.554 160.357 157.534 160.357C158.541 160.357 159.316 160.727 159.858 161.465H159.947C159.934 161.374 159.915 161.191 159.893 160.918C159.87 160.64 159.858 160.453 159.858 160.357V157.363H161.089V168H160.098L159.913 166.995H159.858C159.334 167.756 158.555 168.137 157.521 168.137ZM157.719 167.118C158.466 167.118 159.011 166.915 159.353 166.51C159.699 166.1 159.872 165.43 159.872 164.5V164.274C159.872 163.231 159.697 162.488 159.346 162.046C158.999 161.599 158.452 161.376 157.705 161.376C157.072 161.376 156.582 161.629 156.235 162.135C155.889 162.636 155.716 163.354 155.716 164.288C155.716 165.218 155.887 165.922 156.229 166.4C156.575 166.879 157.072 167.118 157.719 167.118ZM22.3604 228V218.006H23.6182V226.879H27.9863V228H22.3604ZM34.166 228L33.9268 226.934H33.8721C33.4984 227.403 33.1247 227.722 32.751 227.891C32.3818 228.055 31.9147 228.137 31.3496 228.137C30.6113 228.137 30.0326 227.943 29.6133 227.556C29.194 227.168 28.9844 226.621 28.9844 225.915C28.9844 224.393 30.1852 223.595 32.5869 223.522L33.8584 223.475V223.03C33.8584 222.461 33.7354 222.041 33.4893 221.772C33.2432 221.499 32.849 221.362 32.3066 221.362C31.9102 221.362 31.5342 221.422 31.1787 221.54C30.8278 221.659 30.4974 221.791 30.1875 221.937L29.8115 221.014C30.1898 220.813 30.6022 220.656 31.0488 220.542C31.4954 220.428 31.9375 220.371 32.375 220.371C33.2819 220.371 33.9564 220.572 34.3984 220.973C34.8405 221.374 35.0615 222.012 35.0615 222.887V228H34.166ZM31.6299 227.146C32.318 227.146 32.8581 226.961 33.25 226.592C33.6465 226.218 33.8447 225.689 33.8447 225.006V224.329L32.7373 224.377C31.876 224.409 31.2471 224.546 30.8506 224.787C30.4587 225.029 30.2627 225.409 30.2627 225.929C30.2627 226.321 30.3812 226.621 30.6182 226.831C30.8597 227.041 31.1969 227.146 31.6299 227.146ZM42.2803 225.929C42.2803 226.631 42.0182 227.175 41.4941 227.562C40.9701 227.945 40.234 228.137 39.2861 228.137C38.2972 228.137 37.5111 227.979 36.9277 227.665V226.544C37.7526 226.945 38.5479 227.146 39.3135 227.146C39.9333 227.146 40.3844 227.045 40.667 226.845C40.9495 226.644 41.0908 226.375 41.0908 226.038C41.0908 225.742 40.9541 225.491 40.6807 225.286C40.4118 225.081 39.931 224.846 39.2383 224.582C38.5319 224.309 38.0352 224.076 37.748 223.885C37.4609 223.689 37.249 223.47 37.1123 223.229C36.9801 222.987 36.9141 222.693 36.9141 222.347C36.9141 221.731 37.1647 221.246 37.666 220.891C38.1673 220.535 38.8555 220.357 39.7305 220.357C40.5827 220.357 41.3802 220.526 42.123 220.863L41.7061 221.841C40.945 221.522 40.2591 221.362 39.6484 221.362C39.138 221.362 38.7507 221.444 38.4863 221.608C38.222 221.768 38.0898 221.989 38.0898 222.271C38.0898 222.545 38.2038 222.773 38.4316 222.955C38.6595 223.133 39.1904 223.381 40.0244 223.7C40.6488 223.933 41.109 224.149 41.4053 224.35C41.7061 224.55 41.9271 224.776 42.0684 225.026C42.2096 225.277 42.2803 225.578 42.2803 225.929ZM46.6143 227.132C46.7738 227.132 46.9606 227.116 47.1748 227.084C47.389 227.052 47.5508 227.016 47.6602 226.975V227.918C47.5462 227.968 47.3685 228.016 47.127 228.062C46.89 228.112 46.6484 228.137 46.4023 228.137C44.9349 228.137 44.2012 227.364 44.2012 225.819V221.451H43.1416V220.863L44.2148 220.371L44.707 218.771H45.4385V220.494H47.6055V221.451H45.4385V225.785C45.4385 226.218 45.541 226.551 45.7461 226.783C45.9557 227.016 46.2451 227.132 46.6143 227.132ZM60.9766 222.907C60.9766 224.557 60.5254 225.819 59.623 226.694C58.7253 227.565 57.4355 228 55.7539 228H52.9717V218.006H56.0479C57.6019 218.006 58.8118 218.434 59.6777 219.291C60.5436 220.143 60.9766 221.349 60.9766 222.907ZM59.6504 222.948C59.6504 221.677 59.3359 220.715 58.707 220.063C58.0827 219.407 57.137 219.079 55.8701 219.079H54.2295V226.92H55.5898C58.2969 226.92 59.6504 225.596 59.6504 222.948ZM63.1982 228V218.006H64.4561V226.879H68.8242V228H63.1982ZM76.125 228H70.54V218.006H76.125V219.113H71.7979V222.23H75.8721V223.324H71.7979V226.893H76.125V228ZM86.3789 228L83.084 219.236H83.0293C83.0977 219.965 83.1318 220.866 83.1318 221.937V228H81.9697V218.006H83.8291L86.9121 226.195H86.9668L90.1045 218.006H91.9502V228H90.7061V221.854C90.7061 221.171 90.738 220.303 90.8018 219.25H90.7471L87.4111 228H86.3789ZM99.1348 228L98.8955 226.934H98.8408C98.4671 227.403 98.0934 227.722 97.7197 227.891C97.3506 228.055 96.8835 228.137 96.3184 228.137C95.5801 228.137 95.0013 227.943 94.582 227.556C94.1628 227.168 93.9531 226.621 93.9531 225.915C93.9531 224.393 95.154 223.595 97.5557 223.522L98.8271 223.475V223.03C98.8271 222.461 98.7041 222.041 98.458 221.772C98.2119 221.499 97.8177 221.362 97.2754 221.362C96.8789 221.362 96.5029 221.422 96.1475 221.54C95.7965 221.659 95.4661 221.791 95.1562 221.937L94.7803 221.014C95.1585 220.813 95.571 220.656 96.0176 220.542C96.4642 220.428 96.9062 220.371 97.3438 220.371C98.2507 220.371 98.9251 220.572 99.3672 220.973C99.8092 221.374 100.03 222.012 100.03 222.887V228H99.1348ZM96.5986 227.146C97.2868 227.146 97.8268 226.961 98.2188 226.592C98.6152 226.218 98.8135 225.689 98.8135 225.006V224.329L97.7061 224.377C96.8447 224.409 96.2158 224.546 95.8193 224.787C95.4274 225.029 95.2314 225.409 95.2314 225.929C95.2314 226.321 95.3499 226.621 95.5869 226.831C95.8285 227.041 96.1657 227.146 96.5986 227.146ZM105.916 228.137C104.909 228.137 104.134 227.774 103.592 227.05H103.51L103.537 227.33C103.574 227.686 103.592 228.002 103.592 228.28V231.363H102.361V220.494H103.373L103.537 221.52H103.592C103.883 221.109 104.221 220.813 104.604 220.631C104.986 220.449 105.428 220.357 105.93 220.357C106.905 220.357 107.661 220.697 108.199 221.376C108.742 222.05 109.013 223.003 109.013 224.233C109.013 225.459 108.742 226.416 108.199 227.104C107.657 227.793 106.896 228.137 105.916 228.137ZM105.711 221.39C104.968 221.39 104.43 221.599 104.098 222.019C103.77 222.438 103.601 223.096 103.592 223.994V224.233C103.592 225.25 103.76 225.986 104.098 226.441C104.435 226.893 104.982 227.118 105.738 227.118C106.367 227.118 106.857 226.863 107.208 226.353C107.563 225.842 107.741 225.131 107.741 224.22C107.741 223.304 107.563 222.604 107.208 222.121C106.857 221.633 106.358 221.39 105.711 221.39ZM114.529 228.137C113.522 228.137 112.747 227.774 112.205 227.05H112.123L112.15 227.33C112.187 227.686 112.205 228.002 112.205 228.28V231.363H110.975V220.494H111.986L112.15 221.52H112.205C112.497 221.109 112.834 220.813 113.217 220.631C113.6 220.449 114.042 220.357 114.543 220.357C115.518 220.357 116.275 220.697 116.812 221.376C117.355 222.05 117.626 223.003 117.626 224.233C117.626 225.459 117.355 226.416 116.812 227.104C116.27 227.793 115.509 228.137 114.529 228.137ZM114.324 221.39C113.581 221.39 113.044 221.599 112.711 222.019C112.383 222.438 112.214 223.096 112.205 223.994V224.233C112.205 225.25 112.374 225.986 112.711 226.441C113.048 226.893 113.595 227.118 114.352 227.118C114.98 227.118 115.47 226.863 115.821 226.353C116.177 225.842 116.354 225.131 116.354 224.22C116.354 223.304 116.177 222.604 115.821 222.121C115.47 221.633 114.971 221.39 114.324 221.39ZM120.818 228H119.588V220.494H120.818V228ZM119.492 218.464C119.492 218.19 119.561 217.992 119.697 217.869C119.839 217.746 120.012 217.685 120.217 217.685C120.408 217.685 120.575 217.746 120.716 217.869C120.862 217.992 120.935 218.19 120.935 218.464C120.935 218.733 120.862 218.931 120.716 219.059C120.575 219.186 120.408 219.25 120.217 219.25C120.012 219.25 119.839 219.186 119.697 219.059C119.561 218.931 119.492 218.733 119.492 218.464ZM128.311 228V223.201C128.311 222.59 128.174 222.137 127.9 221.841C127.632 221.54 127.208 221.39 126.629 221.39C125.859 221.39 125.298 221.604 124.947 222.032C124.601 222.456 124.428 223.149 124.428 224.11V228H123.197V220.494H124.188L124.373 221.52H124.441C124.674 221.15 125 220.866 125.419 220.665C125.838 220.46 126.301 220.357 126.807 220.357C127.727 220.357 128.411 220.581 128.857 221.027C129.304 221.474 129.527 222.169 129.527 223.112V228H128.311ZM134.709 227.132C135.465 227.132 136.015 226.929 136.356 226.523C136.703 226.113 136.876 225.457 136.876 224.555V224.261C136.876 223.258 136.703 222.529 136.356 222.073C136.01 221.618 135.452 221.39 134.682 221.39C134.053 221.39 133.565 221.64 133.219 222.142C132.877 222.638 132.706 223.349 132.706 224.274C132.706 225.204 132.872 225.913 133.205 226.4C133.542 226.888 134.044 227.132 134.709 227.132ZM136.862 227.932L136.903 227.009H136.849C136.343 227.761 135.568 228.137 134.524 228.137C133.554 228.137 132.795 227.799 132.248 227.125C131.706 226.446 131.435 225.491 131.435 224.261C131.435 223.053 131.708 222.101 132.255 221.403C132.806 220.706 133.558 220.357 134.511 220.357C135.527 220.357 136.311 220.736 136.862 221.492H136.938L137.102 220.494H138.079V228.123C138.079 229.199 137.806 230.007 137.259 230.55C136.716 231.092 135.871 231.363 134.723 231.363C133.629 231.363 132.729 231.204 132.022 230.885V229.75C132.752 230.142 133.674 230.338 134.791 230.338C135.429 230.338 135.933 230.151 136.302 229.777C136.675 229.404 136.862 228.886 136.862 228.226V227.932Z" fill="#595959"/>
<path d="M739 134.5C739 180.616 701.616 218 655.5 218C609.384 218 572 180.616 572 134.5C572 88.3842 609.384 51 655.5 51C701.616 51 739 88.3842 739 134.5ZM605.4 134.5C605.4 162.169 627.831 184.6 655.5 184.6C683.169 184.6 705.6 162.169 705.6 134.5C705.6 106.831 683.169 84.4 655.5 84.4C627.831 84.4 605.4 106.831 605.4 134.5Z" fill="#666EB4"/>
<path d="M655.5 218C668.298 218 680.925 215.058 692.406 209.401C703.886 203.745 713.913 195.525 721.711 185.376C729.509 175.228 734.87 163.423 737.379 150.873C739.889 138.323 739.48 125.364 736.184 112.997C732.888 100.63 726.793 89.1867 718.371 79.5502C709.949 69.9137 699.424 62.3422 687.61 57.4207C675.795 52.4991 663.008 50.3592 650.235 51.1662C637.462 51.9732 625.046 55.7055 613.945 62.0749L630.567 91.0449C637.227 87.2233 644.677 84.9839 652.341 84.4997C660.005 84.0155 667.677 85.2995 674.766 88.2524C681.854 91.2053 688.169 95.7482 693.223 101.53C698.276 107.312 701.933 114.178 703.91 121.598C705.888 129.018 706.133 136.794 704.627 144.324C703.122 151.854 699.905 158.937 695.226 165.026C690.548 171.115 684.532 176.047 677.644 179.441C670.755 182.835 663.179 184.6 655.5 184.6L655.5 218Z" fill="#E6B056"/>
<path d="M655.5 218C674.224 218 692.405 211.707 707.122 200.131C721.839 188.556 732.238 172.37 736.649 154.173C741.061 135.976 739.228 116.824 731.446 99.7944C723.664 82.7644 710.383 68.8443 693.738 60.2699L678.443 89.9619C688.43 95.1066 696.398 103.459 701.068 113.677C705.737 123.895 706.837 135.386 704.19 146.304C701.543 157.222 695.303 166.933 686.473 173.879C677.643 180.824 666.734 184.6 655.5 184.6L655.5 218Z" fill="#DD887C"/>
<path d="M655.5 218C672.427 218 688.955 212.855 702.892 203.248L683.935 175.749C675.573 181.513 665.656 184.6 655.5 184.6L655.5 218Z" fill="#D0D0D0"/>
<path d="M598.185 26.828C598.549 27.29 598.731 27.808 598.731 28.382C598.731 28.886 598.591 29.334 598.339 29.726C598.087 30.118 597.709 30.44 597.233 30.664C596.743 30.888 596.183 31 595.539 31H591.647V21.27H595.357C596.015 21.27 596.589 21.382 597.065 21.606C597.541 21.83 597.891 22.138 598.143 22.516C598.381 22.894 598.507 23.314 598.507 23.776C598.507 24.336 598.353 24.812 598.059 25.176C597.751 25.554 597.359 25.834 596.855 26.002C597.373 26.1 597.821 26.38 598.185 26.828ZM593.243 25.358H595.217C595.735 25.358 596.141 25.246 596.435 25.008C596.729 24.77 596.883 24.42 596.883 23.972C596.883 23.538 596.729 23.202 596.435 22.95C596.141 22.698 595.735 22.572 595.217 22.572H593.243V25.358ZM596.673 29.306C596.981 29.054 597.135 28.69 597.135 28.214C597.135 27.738 596.967 27.36 596.645 27.08C596.309 26.8 595.875 26.66 595.343 26.66H593.243V29.698H595.399C595.931 29.698 596.365 29.572 596.673 29.306ZM607.201 23.286V31H605.605V30.09C605.353 30.412 605.017 30.664 604.611 30.846C604.205 31.028 603.771 31.112 603.323 31.112C602.707 31.112 602.161 30.986 601.685 30.734C601.209 30.482 600.831 30.118 600.551 29.614C600.271 29.124 600.145 28.522 600.145 27.822V23.286H601.727V27.584C601.727 28.284 601.895 28.816 602.245 29.18C602.581 29.544 603.057 29.726 603.659 29.726C604.247 29.726 604.723 29.544 605.073 29.18C605.423 28.816 605.605 28.284 605.605 27.584V23.286H607.201ZM611.577 23.496C611.969 23.272 612.431 23.16 612.963 23.16V24.812H612.557C611.927 24.812 611.451 24.98 611.129 25.288C610.807 25.61 610.653 26.156 610.653 26.94V31H609.057V23.286H610.653V24.406C610.877 24.014 611.185 23.72 611.577 23.496ZM619.696 23.538C620.172 23.79 620.55 24.168 620.83 24.658C621.096 25.162 621.236 25.75 621.236 26.45V31H619.654V26.688C619.654 26.002 619.472 25.47 619.136 25.106C618.786 24.742 618.31 24.546 617.722 24.546C617.12 24.546 616.644 24.742 616.294 25.106C615.944 25.47 615.776 26.002 615.776 26.688V31H614.18V23.286H615.776V24.168C616.028 23.86 616.364 23.608 616.77 23.426C617.176 23.258 617.61 23.16 618.072 23.16C618.674 23.16 619.22 23.286 619.696 23.538ZM630.036 27.738H624.142C624.184 28.354 624.408 28.858 624.828 29.222C625.234 29.6 625.738 29.782 626.34 29.782C627.194 29.782 627.796 29.432 628.16 28.704H629.882C629.644 29.418 629.224 30.006 628.608 30.454C627.992 30.902 627.236 31.126 626.34 31.126C625.598 31.126 624.94 30.972 624.352 30.636C623.764 30.3 623.316 29.838 622.98 29.236C622.644 28.634 622.49 27.934 622.49 27.136C622.49 26.352 622.644 25.652 622.966 25.05C623.288 24.448 623.736 23.986 624.324 23.65C624.912 23.328 625.584 23.16 626.34 23.16C627.068 23.16 627.712 23.328 628.286 23.636C628.846 23.958 629.294 24.406 629.616 24.98C629.924 25.554 630.092 26.212 630.092 26.954C630.092 27.248 630.064 27.514 630.036 27.738ZM628.426 26.45C628.412 25.862 628.202 25.4 627.796 25.036C627.376 24.686 626.872 24.504 626.27 24.504C625.71 24.504 625.248 24.686 624.856 25.036C624.464 25.386 624.226 25.862 624.156 26.45H628.426ZM633.932 23.496C634.324 23.272 634.786 23.16 635.318 23.16V24.812H634.912C634.282 24.812 633.806 24.98 633.484 25.288C633.162 25.61 633.008 26.156 633.008 26.94V31H631.412V23.286H633.008V24.406C633.232 24.014 633.54 23.72 633.932 23.496ZM650.17 21.27V31H648.574V24.336L645.606 31H644.5L641.518 24.336V31H639.922V21.27H641.644L645.06 28.9L648.462 21.27H650.17ZM653.39 30.636C652.802 30.3 652.34 29.838 652.004 29.236C651.668 28.634 651.5 27.934 651.5 27.136C651.5 26.352 651.668 25.666 652.018 25.05C652.354 24.448 652.83 23.986 653.432 23.65C654.02 23.328 654.692 23.16 655.434 23.16C656.162 23.16 656.834 23.328 657.436 23.65C658.024 23.986 658.5 24.448 658.85 25.05C659.186 25.666 659.368 26.352 659.368 27.136C659.368 27.92 659.186 28.62 658.836 29.222C658.472 29.838 657.996 30.3 657.38 30.636C656.764 30.972 656.092 31.126 655.364 31.126C654.636 31.126 653.978 30.972 653.39 30.636ZM656.512 29.446C656.876 29.25 657.17 28.956 657.394 28.564C657.618 28.172 657.73 27.696 657.73 27.136C657.73 26.576 657.618 26.114 657.408 25.722C657.184 25.33 656.904 25.036 656.554 24.84C656.19 24.644 655.812 24.546 655.406 24.546C654.986 24.546 654.608 24.644 654.258 24.84C653.908 25.036 653.628 25.33 653.432 25.722C653.222 26.114 653.124 26.576 653.124 27.136C653.124 27.976 653.334 28.62 653.754 29.068C654.174 29.516 654.72 29.74 655.364 29.74C655.77 29.74 656.148 29.642 656.512 29.446ZM660.64 25.05C660.962 24.462 661.396 24 661.956 23.664C662.516 23.328 663.132 23.16 663.818 23.16C664.322 23.16 664.812 23.272 665.302 23.496C665.792 23.72 666.184 24 666.478 24.364V20.64H668.088V31H666.478V29.838C666.212 30.216 665.848 30.524 665.386 30.762C664.924 31.014 664.392 31.126 663.804 31.126C663.132 31.126 662.516 30.958 661.956 30.622C661.396 30.286 660.962 29.81 660.64 29.194C660.318 28.578 660.164 27.892 660.164 27.108C660.164 26.338 660.318 25.652 660.64 25.05ZM666.142 25.75C665.918 25.358 665.638 25.064 665.288 24.854C664.924 24.658 664.546 24.546 664.14 24.546C663.72 24.546 663.342 24.658 662.992 24.854C662.628 25.05 662.348 25.344 662.124 25.736C661.9 26.128 661.802 26.576 661.802 27.108C661.802 27.64 661.9 28.116 662.124 28.508C662.348 28.914 662.628 29.222 662.992 29.432C663.356 29.642 663.734 29.74 664.14 29.74C664.546 29.74 664.924 29.642 665.288 29.432C665.638 29.236 665.918 28.928 666.142 28.536C666.366 28.144 666.478 27.668 666.478 27.136C666.478 26.604 666.366 26.142 666.142 25.75ZM676.948 27.738H671.054C671.096 28.354 671.32 28.858 671.74 29.222C672.146 29.6 672.65 29.782 673.252 29.782C674.106 29.782 674.708 29.432 675.072 28.704H676.794C676.556 29.418 676.136 30.006 675.52 30.454C674.904 30.902 674.148 31.126 673.252 31.126C672.51 31.126 671.852 30.972 671.264 30.636C670.676 30.3 670.228 29.838 669.892 29.236C669.556 28.634 669.402 27.934 669.402 27.136C669.402 26.352 669.556 25.652 669.878 25.05C670.2 24.448 670.648 23.986 671.236 23.65C671.824 23.328 672.496 23.16 673.252 23.16C673.98 23.16 674.624 23.328 675.198 23.636C675.758 23.958 676.206 24.406 676.528 24.98C676.836 25.554 677.004 26.212 677.004 26.954C677.004 27.248 676.976 27.514 676.948 27.738ZM675.338 26.45C675.324 25.862 675.114 25.4 674.708 25.036C674.288 24.686 673.784 24.504 673.182 24.504C672.622 24.504 672.16 24.686 671.768 25.036C671.376 25.386 671.138 25.862 671.068 26.45H675.338ZM689.481 21.27V31H687.885V26.744H683.307V31H681.711V21.27H683.307V25.442H687.885V21.27H689.481ZM692.704 30.636C692.116 30.3 691.654 29.838 691.318 29.236C690.982 28.634 690.814 27.934 690.814 27.136C690.814 26.352 690.982 25.666 691.332 25.05C691.668 24.448 692.144 23.986 692.746 23.65C693.334 23.328 694.006 23.16 694.748 23.16C695.476 23.16 696.148 23.328 696.75 23.65C697.338 23.986 697.814 24.448 698.164 25.05C698.5 25.666 698.682 26.352 698.682 27.136C698.682 27.92 698.5 28.62 698.15 29.222C697.786 29.838 697.31 30.3 696.694 30.636C696.078 30.972 695.406 31.126 694.678 31.126C693.95 31.126 693.292 30.972 692.704 30.636ZM695.826 29.446C696.19 29.25 696.484 28.956 696.708 28.564C696.932 28.172 697.044 27.696 697.044 27.136C697.044 26.576 696.932 26.114 696.722 25.722C696.498 25.33 696.218 25.036 695.868 24.84C695.504 24.644 695.126 24.546 694.72 24.546C694.3 24.546 693.922 24.644 693.572 24.84C693.222 25.036 692.942 25.33 692.746 25.722C692.536 26.114 692.438 26.576 692.438 27.136C692.438 27.976 692.648 28.62 693.068 29.068C693.488 29.516 694.034 29.74 694.678 29.74C695.084 29.74 695.462 29.642 695.826 29.446ZM706.996 23.286V31H705.4V30.09C705.148 30.412 704.812 30.664 704.406 30.846C704 31.028 703.566 31.112 703.118 31.112C702.502 31.112 701.956 30.986 701.48 30.734C701.004 30.482 700.626 30.118 700.346 29.614C700.066 29.124 699.94 28.522 699.94 27.822V23.286H701.522V27.584C701.522 28.284 701.69 28.816 702.04 29.18C702.376 29.544 702.852 29.726 703.454 29.726C704.042 29.726 704.518 29.544 704.868 29.18C705.218 28.816 705.4 28.284 705.4 27.584V23.286H706.996ZM711.372 23.496C711.764 23.272 712.226 23.16 712.758 23.16V24.812H712.352C711.722 24.812 711.246 24.98 710.924 25.288C710.602 25.61 710.448 26.156 710.448 26.94V31H708.852V23.286H710.448V24.406C710.672 24.014 710.98 23.72 711.372 23.496ZM715.137 30.804C714.661 30.58 714.283 30.286 714.003 29.908C713.723 29.53 713.569 29.11 713.555 28.634H715.207C715.235 28.97 715.389 29.236 715.669 29.46C715.949 29.684 716.313 29.782 716.747 29.782C717.195 29.782 717.531 29.698 717.783 29.53C718.035 29.362 718.161 29.138 718.161 28.858C718.161 28.578 718.021 28.354 717.741 28.214C717.461 28.074 717.027 27.92 716.439 27.752C715.851 27.598 715.389 27.444 715.025 27.29C714.661 27.15 714.339 26.912 714.073 26.604C713.807 26.296 713.681 25.89 713.681 25.386C713.681 24.98 713.793 24.602 714.045 24.266C714.283 23.93 714.633 23.65 715.081 23.454C715.529 23.258 716.061 23.16 716.649 23.16C717.517 23.16 718.231 23.384 718.763 23.832C719.295 24.28 719.589 24.882 719.631 25.638H718.035C718.007 25.302 717.867 25.022 717.615 24.812C717.363 24.616 717.013 24.504 716.593 24.504C716.173 24.504 715.851 24.588 715.627 24.742C715.403 24.91 715.291 25.12 715.291 25.372C715.291 25.582 715.361 25.75 715.515 25.89C715.655 26.03 715.837 26.142 716.061 26.226C716.271 26.31 716.593 26.408 717.013 26.52C717.573 26.674 718.021 26.828 718.385 26.982C718.749 27.136 719.057 27.36 719.323 27.654C719.575 27.962 719.715 28.354 719.729 28.844C719.729 29.292 719.603 29.684 719.365 30.02C719.113 30.37 718.777 30.636 718.329 30.832C717.881 31.028 717.363 31.126 716.775 31.126C716.159 31.126 715.613 31.028 715.137 30.804Z" fill="#121212"/>
<path d="M638.13 118.6V115.504H643.914V133H640.458V118.6H638.13ZM655.805 119.872C655.645 119.2 655.365 118.696 654.965 118.36C654.581 118.024 654.021 117.856 653.285 117.856C652.181 117.856 651.365 118.304 650.837 119.2C650.325 120.08 650.061 121.52 650.045 123.52C650.429 122.88 650.989 122.384 651.725 122.032C652.461 121.664 653.261 121.48 654.125 121.48C655.165 121.48 656.085 121.704 656.885 122.152C657.685 122.6 658.309 123.256 658.757 124.12C659.205 124.968 659.429 125.992 659.429 127.192C659.429 128.328 659.197 129.344 658.733 130.24C658.285 131.12 657.621 131.808 656.741 132.304C655.861 132.8 654.813 133.048 653.597 133.048C651.933 133.048 650.621 132.68 649.661 131.944C648.717 131.208 648.053 130.184 647.669 128.872C647.301 127.544 647.117 125.912 647.117 123.976C647.117 121.048 647.621 118.84 648.629 117.352C649.637 115.848 651.229 115.096 653.405 115.096C655.085 115.096 656.389 115.552 657.317 116.464C658.245 117.376 658.781 118.512 658.925 119.872H655.805ZM653.357 124.24C652.509 124.24 651.797 124.488 651.221 124.984C650.645 125.48 650.357 126.2 650.357 127.144C650.357 128.088 650.621 128.832 651.149 129.376C651.693 129.92 652.453 130.192 653.429 130.192C654.293 130.192 654.973 129.928 655.469 129.4C655.981 128.872 656.237 128.16 656.237 127.264C656.237 126.336 655.989 125.6 655.493 125.056C655.013 124.512 654.301 124.24 653.357 124.24ZM664.513 123.736C662.913 122.904 662.113 121.616 662.113 119.872C662.113 119.008 662.329 118.224 662.761 117.52C663.209 116.8 663.873 116.232 664.753 115.816C665.649 115.384 666.737 115.168 668.017 115.168C669.297 115.168 670.377 115.384 671.257 115.816C672.153 116.232 672.817 116.8 673.249 117.52C673.697 118.224 673.921 119.008 673.921 119.872C673.921 120.752 673.705 121.528 673.273 122.2C672.841 122.856 672.265 123.368 671.545 123.736C672.425 124.12 673.113 124.68 673.609 125.416C674.105 126.152 674.353 127.024 674.353 128.032C674.353 129.12 674.073 130.072 673.513 130.888C672.969 131.688 672.217 132.304 671.257 132.736C670.297 133.168 669.217 133.384 668.017 133.384C666.817 133.384 665.737 133.168 664.777 132.736C663.833 132.304 663.081 131.688 662.521 130.888C661.977 130.072 661.705 129.12 661.705 128.032C661.705 127.024 661.953 126.152 662.449 125.416C662.945 124.664 663.633 124.104 664.513 123.736ZM670.657 120.352C670.657 119.568 670.417 118.96 669.937 118.528C669.473 118.096 668.833 117.88 668.017 117.88C667.217 117.88 666.577 118.096 666.097 118.528C665.633 118.96 665.401 119.576 665.401 120.376C665.401 121.096 665.641 121.672 666.121 122.104C666.617 122.536 667.249 122.752 668.017 122.752C668.785 122.752 669.417 122.536 669.913 122.104C670.409 121.656 670.657 121.072 670.657 120.352ZM668.017 125.2C667.105 125.2 666.361 125.432 665.785 125.896C665.225 126.36 664.945 127.024 664.945 127.888C664.945 128.688 665.217 129.344 665.761 129.856C666.321 130.352 667.073 130.6 668.017 130.6C668.961 130.6 669.705 130.344 670.249 129.832C670.793 129.32 671.065 128.672 671.065 127.888C671.065 127.04 670.785 126.384 670.225 125.92C669.665 125.44 668.929 125.2 668.017 125.2Z" fill="#121212"/>
<path d="M643.93 155H642.492V149.672H636.633V155H635.195V143.578H636.633V148.406H642.492V143.578H643.93V155ZM654.312 150.695C654.312 152.096 653.958 153.19 653.25 153.977C652.542 154.763 651.562 155.156 650.312 155.156C649.536 155.156 648.849 154.977 648.25 154.617C647.651 154.253 647.19 153.732 646.867 153.055C646.544 152.378 646.383 151.591 646.383 150.695C646.383 149.299 646.732 148.214 647.43 147.438C648.128 146.656 649.107 146.266 650.367 146.266C651.576 146.266 652.534 146.664 653.242 147.461C653.956 148.253 654.312 149.331 654.312 150.695ZM647.836 150.695C647.836 151.773 648.047 152.594 648.469 153.156C648.896 153.714 649.523 153.992 650.352 153.992C651.169 153.992 651.792 153.714 652.219 153.156C652.646 152.594 652.859 151.773 652.859 150.695C652.859 149.617 652.643 148.807 652.211 148.266C651.784 147.719 651.156 147.445 650.328 147.445C648.667 147.445 647.836 148.529 647.836 150.695ZM657.875 146.422V151.945C657.875 152.638 658.029 153.154 658.336 153.492C658.648 153.826 659.13 153.992 659.781 153.992C660.661 153.992 661.302 153.747 661.703 153.258C662.104 152.768 662.305 151.979 662.305 150.891V146.422H663.719V155H662.562L662.359 153.867H662.289C662.034 154.279 661.672 154.596 661.203 154.82C660.734 155.044 660.19 155.156 659.57 155.156C658.539 155.156 657.76 154.909 657.234 154.414C656.714 153.919 656.453 153.128 656.453 152.039V146.422H657.875ZM670.438 146.266C670.818 146.266 671.154 146.297 671.445 146.359L671.273 147.656C670.956 147.583 670.646 147.547 670.344 147.547C669.891 147.547 669.469 147.672 669.078 147.922C668.693 148.172 668.391 148.518 668.172 148.961C667.953 149.398 667.844 149.885 667.844 150.422V155H666.438V146.422H667.594L667.75 147.992H667.812C668.141 147.424 668.529 146.995 668.977 146.703C669.424 146.411 669.911 146.266 670.438 146.266ZM678.633 152.633C678.633 153.435 678.333 154.057 677.734 154.5C677.135 154.938 676.294 155.156 675.211 155.156C674.081 155.156 673.182 154.977 672.516 154.617V153.336C673.458 153.794 674.367 154.023 675.242 154.023C675.951 154.023 676.466 153.909 676.789 153.68C677.112 153.451 677.273 153.143 677.273 152.758C677.273 152.419 677.117 152.133 676.805 151.898C676.497 151.664 675.948 151.396 675.156 151.094C674.349 150.781 673.781 150.516 673.453 150.297C673.125 150.073 672.883 149.823 672.727 149.547C672.576 149.271 672.5 148.935 672.5 148.539C672.5 147.836 672.786 147.281 673.359 146.875C673.932 146.469 674.719 146.266 675.719 146.266C676.693 146.266 677.604 146.458 678.453 146.844L677.977 147.961C677.107 147.596 676.323 147.414 675.625 147.414C675.042 147.414 674.599 147.508 674.297 147.695C673.995 147.878 673.844 148.13 673.844 148.453C673.844 148.766 673.974 149.026 674.234 149.234C674.495 149.438 675.102 149.721 676.055 150.086C676.768 150.352 677.294 150.599 677.633 150.828C677.977 151.057 678.229 151.315 678.391 151.602C678.552 151.888 678.633 152.232 678.633 152.633Z" fill="#595959"/>
<rect x="369.5" y="27.5" width="31" height="31" rx="15.5" fill="#EBEFEE"/>
<rect x="369.5" y="27.5" width="31" height="31" rx="15.5" stroke="#A0A0A0"/>
<path d="M386.486 41.3237C385.279 40.4165 384.007 40.9457 383.522 41.3237L382.013 39.2716C381.668 38.7532 382.013 37.8316 382.229 37.4357L384.046 33.2184C384.199 32.8647 384.514 32.3799 384.896 32.3323C385.597 32.2449 385.764 33.063 385.826 33.7671L386.486 41.3237Z" fill="#595959"/>
<path d="M386.216 46.0214C387.467 45.46 387.743 44.0235 387.725 43.3754L388.733 43.3365C389.925 43.2906 391.214 43.408 391.875 44.4013L394.024 47.3721C394.65 48.2375 394.868 50.0147 393.868 49.639L386.216 46.0214Z" fill="#595959"/>
<path d="M383.791 46.0214C382.455 45.3304 382.229 43.9695 382.283 43.3754L375.331 48.2891C374.531 49.041 376.126 49.583 377.22 49.4773L381.69 49.0451C382.423 48.8723 382.857 48.1811 382.983 47.8571L383.791 46.0214Z" fill="#595959"/>
<path d="M383.745 44.7504C384.419 45.4458 385.535 45.4458 386.209 44.7504C386.846 44.0924 386.854 43.0494 386.226 42.3819C385.549 41.6619 384.405 41.6619 383.728 42.3819C383.1 43.0494 383.108 44.0924 383.745 44.7504Z" fill="#595959"/>
</g>
<path d="M378.008 103.012H373.934L373.234 105H371.568L375.054 95.256H376.902L380.388 105H378.708L378.008 103.012ZM377.56 101.71L375.978 97.188L374.382 101.71H377.56ZM388.192 100.828C388.556 101.29 388.738 101.808 388.738 102.382C388.738 102.886 388.598 103.334 388.346 103.726C388.094 104.118 387.716 104.44 387.24 104.664C386.75 104.888 386.19 105 385.546 105H381.654V95.27H385.364C386.022 95.27 386.596 95.382 387.072 95.606C387.548 95.83 387.898 96.138 388.15 96.516C388.388 96.894 388.514 97.314 388.514 97.776C388.514 98.336 388.36 98.812 388.066 99.176C387.758 99.554 387.366 99.834 386.862 100.002C387.38 100.1 387.828 100.38 388.192 100.828ZM383.25 99.358H385.224C385.742 99.358 386.148 99.246 386.442 99.008C386.736 98.77 386.89 98.42 386.89 97.972C386.89 97.538 386.736 97.202 386.442 96.95C386.148 96.698 385.742 96.572 385.224 96.572H383.25V99.358ZM386.68 103.306C386.988 103.054 387.142 102.69 387.142 102.214C387.142 101.738 386.974 101.36 386.652 101.08C386.316 100.8 385.882 100.66 385.35 100.66H383.25V103.698H385.406C385.938 103.698 386.372 103.572 386.68 103.306ZM390.348 97.552C390.796 96.796 391.398 96.208 392.154 95.788C392.91 95.368 393.75 95.144 394.66 95.144C395.696 95.144 396.606 95.41 397.418 95.914C398.23 96.418 398.818 97.146 399.182 98.07H397.264C397.012 97.566 396.662 97.174 396.214 96.922C395.766 96.67 395.248 96.544 394.66 96.544C394.016 96.544 393.442 96.698 392.938 96.978C392.434 97.272 392.028 97.692 391.748 98.224C391.468 98.77 391.328 99.4 391.328 100.114C391.328 100.842 391.468 101.472 391.748 102.004C392.028 102.55 392.434 102.97 392.938 103.264C393.442 103.558 394.016 103.698 394.66 103.698C395.248 103.698 395.766 103.572 396.214 103.32C396.662 103.068 397.012 102.69 397.264 102.172H399.182C398.818 103.11 398.23 103.824 397.418 104.328C396.606 104.832 395.696 105.084 394.66 105.084C393.736 105.084 392.91 104.874 392.154 104.454C391.398 104.034 390.796 103.432 390.348 102.676C389.9 101.92 389.69 101.066 389.69 100.114C389.69 99.162 389.9 98.308 390.348 97.552Z" fill="#595959"/>
<path d="M327.411 218.25V216.794H330.323V227H328.713V218.25H327.411ZM334.856 225.292C335.164 225.544 335.57 225.656 336.102 225.656C336.76 225.656 337.25 225.404 337.558 224.872C337.866 224.354 338.02 223.458 338.02 222.198C337.796 222.52 337.474 222.772 337.068 222.94C336.662 223.108 336.228 223.192 335.752 223.192C335.136 223.192 334.59 223.08 334.1 222.828C333.596 222.576 333.204 222.212 332.924 221.722C332.644 221.232 332.504 220.63 332.504 219.93C332.504 218.908 332.798 218.096 333.4 217.48C334.002 216.864 334.828 216.556 335.892 216.556C337.152 216.556 338.062 216.99 338.594 217.83C339.126 218.67 339.406 219.972 339.406 221.708C339.406 222.912 339.294 223.906 339.098 224.662C338.902 225.432 338.552 226.006 338.062 226.398C337.558 226.79 336.872 226.986 336.004 226.986C334.996 226.986 334.226 226.734 333.694 226.202C333.148 225.684 332.84 225.026 332.784 224.228H334.254C334.338 224.704 334.548 225.054 334.856 225.292ZM337.348 221.33C337.67 220.98 337.838 220.518 337.838 219.93C337.838 219.286 337.656 218.796 337.32 218.432C336.984 218.068 336.522 217.886 335.934 217.886C335.346 217.886 334.87 218.082 334.534 218.446C334.198 218.81 334.03 219.3 334.03 219.888C334.03 220.462 334.184 220.938 334.52 221.302C334.856 221.666 335.36 221.848 336.032 221.848C336.592 221.848 337.026 221.68 337.348 221.33ZM346.293 213.784L342.485 229.45H340.917L344.711 213.784H346.293ZM348.656 217.984C349.202 217.074 350.14 216.612 351.484 216.612C352.814 216.612 353.752 217.074 354.298 217.984C354.844 218.894 355.124 220.154 355.124 221.764C355.124 223.402 354.844 224.676 354.298 225.6C353.752 226.524 352.814 226.972 351.484 226.972C350.14 226.972 349.202 226.524 348.656 225.6C348.11 224.676 347.844 223.402 347.844 221.764C347.844 220.154 348.11 218.894 348.656 217.984ZM353.402 219.846C353.304 219.328 353.108 218.908 352.814 218.572C352.506 218.236 352.072 218.068 351.484 218.068C350.896 218.068 350.448 218.236 350.154 218.572C349.846 218.908 349.65 219.328 349.552 219.846C349.454 220.378 349.412 221.008 349.412 221.764C349.412 222.548 349.454 223.206 349.552 223.738C349.636 224.27 349.832 224.704 350.14 225.026C350.448 225.362 350.896 225.516 351.484 225.516C352.072 225.516 352.506 225.362 352.814 225.026C353.122 224.704 353.318 224.27 353.416 223.738C353.5 223.206 353.556 222.548 353.556 221.764C353.556 221.008 353.5 220.378 353.402 219.846ZM356.353 218.25V216.794H359.265V227H357.655V218.25H356.353ZM366.597 213.784L362.789 229.45H361.221L365.015 213.784H366.597ZM369.031 224.83C369.927 224.06 370.627 223.43 371.145 222.926C371.663 222.422 372.097 221.904 372.447 221.358C372.783 220.826 372.965 220.28 372.965 219.734C372.965 219.174 372.825 218.74 372.559 218.418C372.293 218.11 371.873 217.942 371.313 217.942C370.753 217.942 370.333 218.124 370.025 218.474C369.717 218.824 369.563 219.286 369.549 219.874H368.009C368.037 218.81 368.345 217.998 368.961 217.438C369.577 216.878 370.347 216.584 371.299 216.584C372.307 216.584 373.105 216.864 373.679 217.424C374.253 217.984 374.547 218.74 374.547 219.664C374.547 220.336 374.365 220.994 374.029 221.61C373.693 222.226 373.287 222.786 372.811 223.276C372.335 223.766 371.747 224.326 371.019 224.97L370.389 225.53H374.827V226.86H368.023V225.698L369.031 224.83ZM376.791 217.984C377.337 217.074 378.275 216.612 379.619 216.612C380.949 216.612 381.887 217.074 382.433 217.984C382.979 218.894 383.259 220.154 383.259 221.764C383.259 223.402 382.979 224.676 382.433 225.6C381.887 226.524 380.949 226.972 379.619 226.972C378.275 226.972 377.337 226.524 376.791 225.6C376.245 224.676 375.979 223.402 375.979 221.764C375.979 220.154 376.245 218.894 376.791 217.984ZM381.537 219.846C381.439 219.328 381.243 218.908 380.949 218.572C380.641 218.236 380.207 218.068 379.619 218.068C379.031 218.068 378.583 218.236 378.289 218.572C377.981 218.908 377.785 219.328 377.687 219.846C377.589 220.378 377.547 221.008 377.547 221.764C377.547 222.548 377.589 223.206 377.687 223.738C377.771 224.27 377.967 224.704 378.275 225.026C378.583 225.362 379.031 225.516 379.619 225.516C380.207 225.516 380.641 225.362 380.949 225.026C381.257 224.704 381.453 224.27 381.551 223.738C381.635 223.206 381.691 222.548 381.691 221.764C381.691 221.008 381.635 220.378 381.537 219.846ZM385.579 224.83C386.475 224.06 387.175 223.43 387.693 222.926C388.211 222.422 388.645 221.904 388.995 221.358C389.331 220.826 389.513 220.28 389.513 219.734C389.513 219.174 389.373 218.74 389.107 218.418C388.841 218.11 388.421 217.942 387.861 217.942C387.301 217.942 386.881 218.124 386.573 218.474C386.265 218.824 386.111 219.286 386.097 219.874H384.557C384.585 218.81 384.893 217.998 385.509 217.438C386.125 216.878 386.895 216.584 387.847 216.584C388.855 216.584 389.653 216.864 390.227 217.424C390.801 217.984 391.095 218.74 391.095 219.664C391.095 220.336 390.913 220.994 390.577 221.61C390.241 222.226 389.835 222.786 389.359 223.276C388.883 223.766 388.295 224.326 387.567 224.97L386.937 225.53H391.375V226.86H384.571V225.698L385.579 224.83ZM393.494 217.284C394.11 216.808 394.894 216.556 395.846 216.556C396.49 216.556 397.064 216.682 397.54 216.906C398.016 217.144 398.366 217.466 398.618 217.858C398.856 218.264 398.982 218.712 398.982 219.216C398.982 219.804 398.828 220.294 398.52 220.7C398.212 221.12 397.834 221.386 397.414 221.526V221.582C397.96 221.75 398.394 222.058 398.702 222.506C399.01 222.954 399.164 223.514 399.164 224.2C399.164 224.76 399.038 225.25 398.786 225.67C398.534 226.104 398.156 226.44 397.666 226.692C397.162 226.944 396.574 227.056 395.888 227.056C394.88 227.056 394.04 226.804 393.396 226.286C392.752 225.768 392.402 225.026 392.36 224.046H393.9C393.928 224.55 394.124 224.956 394.474 225.264C394.81 225.572 395.285 225.726 395.874 225.726C396.434 225.726 396.882 225.572 397.19 225.264C397.498 224.956 397.652 224.55 397.652 224.046C397.652 223.402 397.442 222.94 397.022 222.66C396.602 222.38 395.972 222.24 395.118 222.24H394.754V220.924H395.132C395.888 220.924 396.462 220.798 396.854 220.546C397.246 220.308 397.456 219.93 397.456 219.398C397.456 218.95 397.302 218.6 397.022 218.334C396.728 218.068 396.322 217.928 395.79 217.928C395.258 217.928 394.852 218.068 394.572 218.334C394.278 218.6 394.11 218.922 394.054 219.314H392.5C392.556 218.446 392.878 217.774 393.494 217.284Z" fill="#595959"/>
<circle cx="514" cy="244" r="4" fill="#666EB4"/>
<path d="M532.074 246.296H528.582L527.982 248H526.554L529.542 239.648H531.126L534.114 248H532.674L532.074 246.296ZM531.69 245.18L530.334 241.304L528.966 245.18H531.69ZM540.768 244.424C541.08 244.82 541.236 245.264 541.236 245.756C541.236 246.188 541.116 246.572 540.9 246.908C540.684 247.244 540.36 247.52 539.952 247.712C539.532 247.904 539.052 248 538.5 248H535.164V239.66H538.344C538.908 239.66 539.4 239.756 539.808 239.948C540.216 240.14 540.516 240.404 540.732 240.728C540.936 241.052 541.044 241.412 541.044 241.808C541.044 242.288 540.912 242.696 540.66 243.008C540.396 243.332 540.06 243.572 539.628 243.716C540.072 243.8 540.456 244.04 540.768 244.424ZM536.532 243.164H538.224C538.668 243.164 539.016 243.068 539.268 242.864C539.52 242.66 539.652 242.36 539.652 241.976C539.652 241.604 539.52 241.316 539.268 241.1C539.016 240.884 538.668 240.776 538.224 240.776H536.532V243.164ZM539.472 246.548C539.736 246.332 539.868 246.02 539.868 245.612C539.868 245.204 539.724 244.88 539.448 244.64C539.16 244.4 538.788 244.28 538.332 244.28H536.532V246.884H538.38C538.836 246.884 539.208 246.776 539.472 246.548ZM542.58 241.616C542.964 240.968 543.48 240.464 544.128 240.104C544.776 239.744 545.496 239.552 546.276 239.552C547.164 239.552 547.944 239.78 548.64 240.212C549.336 240.644 549.84 241.268 550.152 242.06H548.508C548.292 241.628 547.992 241.292 547.608 241.076C547.224 240.86 546.78 240.752 546.276 240.752C545.724 240.752 545.232 240.884 544.8 241.124C544.368 241.376 544.02 241.736 543.78 242.192C543.54 242.66 543.42 243.2 543.42 243.812C543.42 244.436 543.54 244.976 543.78 245.432C544.02 245.9 544.368 246.26 544.8 246.512C545.232 246.764 545.724 246.884 546.276 246.884C546.78 246.884 547.224 246.776 547.608 246.56C547.992 246.344 548.292 246.02 548.508 245.576H550.152C549.84 246.38 549.336 246.992 548.64 247.424C547.944 247.856 547.164 248.072 546.276 248.072C545.484 248.072 544.776 247.892 544.128 247.532C543.48 247.172 542.964 246.656 542.58 246.008C542.196 245.36 542.016 244.628 542.016 243.812C542.016 242.996 542.196 242.264 542.58 241.616Z" fill="#121212"/>
<circle cx="587" cy="244" r="4" fill="#E6B056"/>
<path d="M605.391 246.296H601.899L601.299 248H599.871L602.859 239.648H604.443L607.431 248H605.991L605.391 246.296ZM605.007 245.18L603.651 241.304L602.283 245.18H605.007ZM614.084 244.424C614.396 244.82 614.552 245.264 614.552 245.756C614.552 246.188 614.432 246.572 614.216 246.908C614 247.244 613.676 247.52 613.268 247.712C612.848 247.904 612.368 248 611.816 248H608.48V239.66H611.66C612.224 239.66 612.716 239.756 613.124 239.948C613.532 240.14 613.832 240.404 614.048 240.728C614.252 241.052 614.36 241.412 614.36 241.808C614.36 242.288 614.228 242.696 613.976 243.008C613.712 243.332 613.376 243.572 612.944 243.716C613.388 243.8 613.772 244.04 614.084 244.424ZM609.848 243.164H611.54C611.984 243.164 612.332 243.068 612.584 242.864C612.836 242.66 612.968 242.36 612.968 241.976C612.968 241.604 612.836 241.316 612.584 241.1C612.332 240.884 611.984 240.776 611.54 240.776H609.848V243.164ZM612.788 246.548C613.052 246.332 613.184 246.02 613.184 245.612C613.184 245.204 613.04 244.88 612.764 244.64C612.476 244.4 612.104 244.28 611.648 244.28H609.848V246.884H611.696C612.152 246.884 612.524 246.776 612.788 246.548ZM617.829 246.536C618.093 246.752 618.441 246.848 618.897 246.848C619.461 246.848 619.881 246.632 620.145 246.176C620.409 245.732 620.541 244.964 620.541 243.884C620.349 244.16 620.073 244.376 619.725 244.52C619.377 244.664 619.005 244.736 618.597 244.736C618.069 244.736 617.601 244.64 617.181 244.424C616.749 244.208 616.413 243.896 616.173 243.476C615.933 243.056 615.813 242.54 615.813 241.94C615.813 241.064 616.065 240.368 616.581 239.84C617.097 239.312 617.805 239.048 618.717 239.048C619.797 239.048 620.577 239.42 621.033 240.14C621.489 240.86 621.729 241.976 621.729 243.464C621.729 244.496 621.633 245.348 621.465 245.996C621.297 246.656 620.997 247.148 620.577 247.484C620.145 247.82 619.557 247.988 618.813 247.988C617.949 247.988 617.289 247.772 616.833 247.316C616.365 246.872 616.101 246.308 616.053 245.624H617.313C617.385 246.032 617.565 246.332 617.829 246.536ZM619.965 243.14C620.241 242.84 620.385 242.444 620.385 241.94C620.385 241.388 620.229 240.968 619.941 240.656C619.653 240.344 619.257 240.188 618.753 240.188C618.249 240.188 617.841 240.356 617.553 240.668C617.265 240.98 617.121 241.4 617.121 241.904C617.121 242.396 617.253 242.804 617.541 243.116C617.829 243.428 618.261 243.584 618.837 243.584C619.317 243.584 619.689 243.44 619.965 243.14ZM623.264 241.616C623.648 240.968 624.164 240.464 624.812 240.104C625.46 239.744 626.18 239.552 626.96 239.552C627.848 239.552 628.628 239.78 629.324 240.212C630.02 240.644 630.524 241.268 630.836 242.06H629.192C628.976 241.628 628.676 241.292 628.292 241.076C627.908 240.86 627.464 240.752 626.96 240.752C626.408 240.752 625.916 240.884 625.484 241.124C625.052 241.376 624.704 241.736 624.464 242.192C624.224 242.66 624.104 243.2 624.104 243.812C624.104 244.436 624.224 244.976 624.464 245.432C624.704 245.9 625.052 246.26 625.484 246.512C625.916 246.764 626.408 246.884 626.96 246.884C627.464 246.884 627.908 246.776 628.292 246.56C628.676 246.344 628.976 246.02 629.192 245.576H630.836C630.524 246.38 630.02 246.992 629.324 247.424C628.628 247.856 627.848 248.072 626.96 248.072C626.168 248.072 625.46 247.892 624.812 247.532C624.164 247.172 623.648 246.656 623.264 246.008C622.88 245.36 622.7 244.628 622.7 243.812C622.7 242.996 622.88 242.264 623.264 241.616Z" fill="#121212"/>
<circle cx="668" cy="244" r="4" fill="#DD887C"/>
<path d="M686.709 244.424C687.021 244.82 687.177 245.264 687.177 245.756C687.177 246.188 687.057 246.572 686.841 246.908C686.625 247.244 686.301 247.52 685.893 247.712C685.473 247.904 684.993 248 684.441 248H681.105V239.66H684.285C684.849 239.66 685.341 239.756 685.749 239.948C686.157 240.14 686.457 240.404 686.673 240.728C686.877 241.052 686.985 241.412 686.985 241.808C686.985 242.288 686.853 242.696 686.601 243.008C686.337 243.332 686.001 243.572 685.569 243.716C686.013 243.8 686.397 244.04 686.709 244.424ZM682.473 243.164H684.165C684.609 243.164 684.957 243.068 685.209 242.864C685.461 242.66 685.593 242.36 685.593 241.976C685.593 241.604 685.461 241.316 685.209 241.1C684.957 240.884 684.609 240.776 684.165 240.776H682.473V243.164ZM685.413 246.548C685.677 246.332 685.809 246.02 685.809 245.612C685.809 245.204 685.665 244.88 685.389 244.64C685.101 244.4 684.729 244.28 684.273 244.28H682.473V246.884H684.321C684.777 246.884 685.149 246.776 685.413 246.548ZM688.522 241.616C688.906 240.968 689.422 240.464 690.07 240.104C690.718 239.744 691.438 239.552 692.218 239.552C693.106 239.552 693.886 239.78 694.582 240.212C695.278 240.644 695.782 241.268 696.094 242.06H694.45C694.234 241.628 693.934 241.292 693.55 241.076C693.166 240.86 692.722 240.752 692.218 240.752C691.666 240.752 691.174 240.884 690.742 241.124C690.31 241.376 689.962 241.736 689.722 242.192C689.482 242.66 689.362 243.2 689.362 243.812C689.362 244.436 689.482 244.976 689.722 245.432C689.962 245.9 690.31 246.26 690.742 246.512C691.174 246.764 691.666 246.884 692.218 246.884C692.722 246.884 693.166 246.776 693.55 246.56C693.934 246.344 694.234 246.02 694.45 245.576H696.094C695.782 246.38 695.278 246.992 694.582 247.424C693.886 247.856 693.106 248.072 692.218 248.072C691.426 248.072 690.718 247.892 690.07 247.532C689.422 247.172 688.906 246.656 688.522 246.008C688.138 245.36 687.958 244.628 687.958 243.812C687.958 242.996 688.138 242.264 688.522 241.616Z" fill="#121212"/>
<circle cx="733" cy="244" r="4" fill="#D0D0D0"/>
<path d="M747.636 247.544C746.988 247.184 746.472 246.668 746.088 246.02C745.704 245.372 745.524 244.628 745.524 243.812C745.524 242.996 745.704 242.264 746.088 241.616C746.472 240.968 746.988 240.464 747.636 240.104C748.284 239.744 749.004 239.552 749.784 239.552C750.564 239.552 751.284 239.744 751.932 240.104C752.58 240.464 753.096 240.968 753.48 241.616C753.852 242.264 754.044 242.996 754.044 243.812C754.044 244.628 753.852 245.372 753.48 246.02C753.096 246.668 752.58 247.184 751.932 247.544C751.284 247.904 750.564 248.084 749.784 248.084C749.004 248.084 748.284 247.904 747.636 247.544ZM751.26 246.524C751.692 246.272 752.028 245.912 752.268 245.444C752.508 244.976 752.64 244.436 752.64 243.812C752.64 243.2 752.508 242.66 752.268 242.192C752.028 241.736 751.692 241.376 751.26 241.124C750.828 240.884 750.336 240.752 749.784 240.752C749.232 240.752 748.74 240.884 748.308 241.124C747.876 241.376 747.528 241.736 747.288 242.192C747.048 242.66 746.928 243.2 746.928 243.812C746.928 244.436 747.048 244.976 747.288 245.444C747.528 245.912 747.876 246.272 748.308 246.524C748.74 246.776 749.232 246.896 749.784 246.896C750.336 246.896 750.828 246.776 751.26 246.524ZM756.736 242.504V246.164C756.736 246.416 756.784 246.596 756.904 246.704C757.024 246.812 757.216 246.86 757.504 246.86H758.344V248H757.264C756.64 248 756.172 247.856 755.848 247.568C755.512 247.28 755.356 246.812 755.356 246.164V242.504H754.576V241.388H755.356V239.744H756.736V241.388H758.344V242.504H756.736ZM764.119 241.604C764.515 241.82 764.827 242.144 765.055 242.564C765.283 242.996 765.403 243.5 765.403 244.1V248H764.047V244.304C764.047 243.716 763.891 243.26 763.603 242.948C763.303 242.636 762.895 242.468 762.391 242.468C761.875 242.468 761.467 242.636 761.167 242.948C760.867 243.26 760.723 243.716 760.723 244.304V248H759.355V239.12H760.723V242.156C760.951 241.88 761.239 241.664 761.599 241.508C761.959 241.364 762.343 241.28 762.775 241.28C763.279 241.28 763.723 241.388 764.119 241.604ZM772.91 245.204H767.858C767.894 245.732 768.086 246.164 768.446 246.476C768.794 246.8 769.226 246.956 769.742 246.956C770.474 246.956 770.99 246.656 771.302 246.032H772.778C772.574 246.644 772.214 247.148 771.686 247.532C771.158 247.916 770.51 248.108 769.742 248.108C769.106 248.108 768.542 247.976 768.038 247.688C767.534 247.4 767.15 247.004 766.862 246.488C766.574 245.972 766.442 245.372 766.442 244.688C766.442 244.016 766.574 243.416 766.85 242.9C767.126 242.384 767.51 241.988 768.014 241.7C768.518 241.424 769.094 241.28 769.742 241.28C770.366 241.28 770.918 241.424 771.41 241.688C771.89 241.964 772.274 242.348 772.55 242.84C772.814 243.332 772.958 243.896 772.958 244.532C772.958 244.784 772.934 245.012 772.91 245.204ZM771.53 244.1C771.518 243.596 771.338 243.2 770.99 242.888C770.63 242.588 770.198 242.432 769.682 242.432C769.202 242.432 768.806 242.588 768.47 242.888C768.134 243.188 767.93 243.596 767.87 244.1H771.53ZM776.214 241.568C776.55 241.376 776.946 241.28 777.402 241.28V242.696H777.054C776.514 242.696 776.106 242.84 775.83 243.104C775.554 243.38 775.422 243.848 775.422 244.52V248H774.054V241.388H775.422V242.348C775.614 242.012 775.878 241.76 776.214 241.568ZM779.406 247.832C778.998 247.64 778.674 247.388 778.434 247.064C778.194 246.74 778.062 246.38 778.05 245.972H779.466C779.49 246.26 779.622 246.488 779.862 246.68C780.102 246.872 780.414 246.956 780.786 246.956C781.17 246.956 781.458 246.884 781.674 246.74C781.89 246.596 781.998 246.404 781.998 246.164C781.998 245.924 781.878 245.732 781.638 245.612C781.398 245.492 781.026 245.36 780.522 245.216C780.018 245.084 779.622 244.952 779.31 244.82C778.998 244.7 778.722 244.496 778.494 244.232C778.266 243.968 778.158 243.62 778.158 243.188C778.158 242.84 778.254 242.516 778.47 242.228C778.674 241.94 778.974 241.7 779.358 241.532C779.742 241.364 780.198 241.28 780.702 241.28C781.446 241.28 782.058 241.472 782.514 241.856C782.97 242.24 783.222 242.756 783.258 243.404H781.89C781.866 243.116 781.746 242.876 781.53 242.696C781.314 242.528 781.014 242.432 780.654 242.432C780.294 242.432 780.018 242.504 779.826 242.636C779.634 242.78 779.538 242.96 779.538 243.176C779.538 243.356 779.598 243.5 779.73 243.62C779.85 243.74 780.006 243.836 780.198 243.908C780.378 243.98 780.654 244.064 781.014 244.16C781.494 244.292 781.878 244.424 782.19 244.556C782.502 244.688 782.766 244.88 782.994 245.132C783.21 245.396 783.33 245.732 783.342 246.152C783.342 246.536 783.234 246.872 783.03 247.16C782.814 247.46 782.526 247.688 782.142 247.856C781.758 248.024 781.314 248.108 780.81 248.108C780.282 248.108 779.814 248.024 779.406 247.832Z" fill="#121212"/>
<rect x="353" y="149" width="47" height="24" rx="12" fill="#FDCBD3"/>
<path d="M368.965 160.921L371.569 156.006H372.923L369.594 162.124V166H368.329V162.179L365 156.006H366.374L368.965 160.921ZM376.97 166.137C375.844 166.137 374.96 165.797 374.317 165.118C373.679 164.435 373.36 163.496 373.36 162.302C373.36 161.099 373.659 160.142 374.256 159.431C374.853 158.715 375.66 158.357 376.676 158.357C377.619 158.357 378.371 158.663 378.932 159.273C379.492 159.88 379.772 160.702 379.772 161.741V162.486H374.632C374.655 163.339 374.871 163.986 375.281 164.428C375.691 164.87 376.272 165.091 377.024 165.091C377.425 165.091 377.806 165.057 378.166 164.988C378.526 164.915 378.948 164.776 379.431 164.571V165.651C379.016 165.829 378.626 165.954 378.262 166.027C377.897 166.1 377.466 166.137 376.97 166.137ZM376.662 159.362C376.074 159.362 375.609 159.551 375.268 159.93C374.926 160.308 374.723 160.834 374.659 161.509H378.48C378.471 160.807 378.31 160.274 377.995 159.909C377.681 159.545 377.236 159.362 376.662 159.362ZM386.567 163.929C386.567 164.631 386.305 165.175 385.781 165.562C385.257 165.945 384.521 166.137 383.573 166.137C382.584 166.137 381.798 165.979 381.215 165.665V164.544C382.04 164.945 382.835 165.146 383.601 165.146C384.22 165.146 384.672 165.045 384.954 164.845C385.237 164.644 385.378 164.375 385.378 164.038C385.378 163.742 385.241 163.491 384.968 163.286C384.699 163.081 384.218 162.846 383.525 162.582C382.819 162.309 382.322 162.076 382.035 161.885C381.748 161.689 381.536 161.47 381.399 161.229C381.267 160.987 381.201 160.693 381.201 160.347C381.201 159.731 381.452 159.246 381.953 158.891C382.454 158.535 383.143 158.357 384.018 158.357C384.87 158.357 385.667 158.526 386.41 158.863L385.993 159.841C385.232 159.522 384.546 159.362 383.936 159.362C383.425 159.362 383.038 159.444 382.773 159.608C382.509 159.768 382.377 159.989 382.377 160.271C382.377 160.545 382.491 160.773 382.719 160.955C382.947 161.133 383.478 161.381 384.312 161.7C384.936 161.933 385.396 162.149 385.692 162.35C385.993 162.55 386.214 162.776 386.355 163.026C386.497 163.277 386.567 163.578 386.567 163.929Z" fill="#C21A2C"/>
<defs>
<clipPath id="clip0_0_1">
<rect width="882" height="265" rx="4" fill="white"/>
</clipPath>
</defs>
</svg>
