<svg width="425" height="265" viewBox="0 0 425 265" fill="none" xmlns="http://www.w3.org/2000/svg">
<rect width="425" height="265" fill="#F5F5F5"/>
<rect x="-14157" y="-6755" width="23840" height="13376" fill="#F8FAF9"/>
<rect width="425" height="265" rx="4" fill="white"/>
<circle cx="47" cy="228" r="4" fill="#DD887C"/>
<path d="M61.2914 223.66V232H59.9234V223.66H61.2914ZM67.5655 225.604C67.9735 225.82 68.2975 226.144 68.5375 226.564C68.7655 226.996 68.8855 227.5 68.8855 228.1V232H67.5295V228.304C67.5295 227.716 67.3735 227.26 67.0855 226.948C66.7855 226.636 66.3775 226.468 65.8735 226.468C65.3575 226.468 64.9495 226.636 64.6495 226.948C64.3495 227.26 64.2055 227.716 64.2055 228.304V232H62.8375V225.388H64.2055V226.144C64.4215 225.88 64.7095 225.664 65.0575 225.508C65.4055 225.364 65.7775 225.28 66.1735 225.28C66.6895 225.28 67.1575 225.388 67.5655 225.604ZM71.9765 226.504V230.164C71.9765 230.416 72.0245 230.596 72.1445 230.704C72.2645 230.812 72.4565 230.86 72.7445 230.86H73.5845V232H72.5045C71.8805 232 71.4125 231.856 71.0885 231.568C70.7525 231.28 70.5965 230.812 70.5965 230.164V226.504H69.8165V225.388H70.5965V223.744H71.9765V225.388H73.5845V226.504H71.9765ZM80.6073 229.204H75.5553C75.5913 229.732 75.7833 230.164 76.1433 230.476C76.4913 230.8 76.9233 230.956 77.4393 230.956C78.1713 230.956 78.6873 230.656 78.9993 230.032H80.4753C80.2713 230.644 79.9113 231.148 79.3833 231.532C78.8553 231.916 78.2073 232.108 77.4393 232.108C76.8033 232.108 76.2393 231.976 75.7353 231.688C75.2313 231.4 74.8473 231.004 74.5593 230.488C74.2713 229.972 74.1393 229.372 74.1393 228.688C74.1393 228.016 74.2713 227.416 74.5473 226.9C74.8233 226.384 75.2073 225.988 75.7113 225.7C76.2153 225.424 76.7913 225.28 77.4393 225.28C78.0633 225.28 78.6153 225.424 79.1073 225.688C79.5873 225.964 79.9713 226.348 80.2473 226.84C80.5113 227.332 80.6553 227.896 80.6553 228.532C80.6553 228.784 80.6313 229.012 80.6073 229.204ZM79.2273 228.1C79.2153 227.596 79.0353 227.2 78.6873 226.888C78.3273 226.588 77.8953 226.432 77.3793 226.432C76.8993 226.432 76.5033 226.588 76.1673 226.888C75.8313 227.188 75.6273 227.596 75.5673 228.1H79.2273ZM83.9116 225.568C84.2476 225.376 84.6436 225.28 85.0996 225.28V226.696H84.7516C84.2116 226.696 83.8036 226.84 83.5276 227.104C83.2516 227.38 83.1196 227.848 83.1196 228.52V232H81.7516V225.388H83.1196V226.348C83.3116 226.012 83.5756 225.76 83.9116 225.568ZM88.663 230.776L90.535 225.388H91.987L89.467 232H87.835L85.327 225.388H86.791L88.663 230.776ZM98.7831 229.204H93.7311C93.7671 229.732 93.9591 230.164 94.3191 230.476C94.6671 230.8 95.0991 230.956 95.6151 230.956C96.3471 230.956 96.8631 230.656 97.1751 230.032H98.6511C98.4471 230.644 98.0871 231.148 97.5591 231.532C97.0311 231.916 96.3831 232.108 95.6151 232.108C94.9791 232.108 94.4151 231.976 93.9111 231.688C93.4071 231.4 93.0231 231.004 92.7351 230.488C92.4471 229.972 92.3151 229.372 92.3151 228.688C92.3151 228.016 92.4471 227.416 92.7231 226.9C92.9991 226.384 93.3831 225.988 93.8871 225.7C94.3911 225.424 94.9671 225.28 95.6151 225.28C96.2391 225.28 96.7911 225.424 97.2831 225.688C97.7631 225.964 98.1471 226.348 98.4231 226.84C98.6871 227.332 98.8311 227.896 98.8311 228.532C98.8311 228.784 98.8071 229.012 98.7831 229.204ZM97.4031 228.1C97.3911 227.596 97.2111 227.2 96.8631 226.888C96.5031 226.588 96.0711 226.432 95.5551 226.432C95.0751 226.432 94.6791 226.588 94.3431 226.888C94.0071 227.188 93.8031 227.596 93.7431 228.1H97.4031ZM104.655 225.604C105.063 225.82 105.387 226.144 105.627 226.564C105.855 226.996 105.975 227.5 105.975 228.1V232H104.619V228.304C104.619 227.716 104.463 227.26 104.175 226.948C103.875 226.636 103.467 226.468 102.963 226.468C102.447 226.468 102.039 226.636 101.739 226.948C101.439 227.26 101.295 227.716 101.295 228.304V232H99.9273V225.388H101.295V226.144C101.511 225.88 101.799 225.664 102.147 225.508C102.495 225.364 102.867 225.28 103.263 225.28C103.779 225.28 104.247 225.388 104.655 225.604ZM113.482 229.204H108.43C108.466 229.732 108.658 230.164 109.018 230.476C109.366 230.8 109.798 230.956 110.314 230.956C111.046 230.956 111.562 230.656 111.874 230.032H113.35C113.146 230.644 112.786 231.148 112.258 231.532C111.73 231.916 111.082 232.108 110.314 232.108C109.678 232.108 109.114 231.976 108.61 231.688C108.106 231.4 107.722 231.004 107.434 230.488C107.146 229.972 107.014 229.372 107.014 228.688C107.014 228.016 107.146 227.416 107.422 226.9C107.698 226.384 108.082 225.988 108.586 225.7C109.09 225.424 109.666 225.28 110.314 225.28C110.938 225.28 111.49 225.424 111.982 225.688C112.462 225.964 112.846 226.348 113.122 226.84C113.386 227.332 113.53 227.896 113.53 228.532C113.53 228.784 113.506 229.012 113.482 229.204ZM112.102 228.1C112.09 227.596 111.91 227.2 111.562 226.888C111.202 226.588 110.77 226.432 110.254 226.432C109.774 226.432 109.378 226.588 109.042 226.888C108.706 227.188 108.502 227.596 108.442 228.1H112.102Z" fill="#121212"/>
<circle cx="150" cy="228" r="4" fill="#E6B056"/>
<path d="M164.445 231.796C163.989 231.604 163.641 231.316 163.389 230.956C163.125 230.596 163.005 230.176 163.005 229.696H164.469C164.493 230.056 164.637 230.356 164.889 230.584C165.141 230.824 165.501 230.932 165.957 230.932C166.425 230.932 166.797 230.824 167.061 230.596C167.325 230.368 167.457 230.068 167.457 229.708C167.457 229.432 167.373 229.204 167.205 229.024C167.037 228.856 166.833 228.712 166.593 228.616C166.353 228.52 166.017 228.424 165.585 228.304C165.033 228.16 164.589 228.016 164.253 227.872C163.917 227.728 163.629 227.488 163.389 227.176C163.149 226.864 163.029 226.456 163.029 225.928C163.029 225.448 163.149 225.028 163.389 224.668C163.629 224.308 163.965 224.032 164.397 223.84C164.829 223.648 165.321 223.552 165.897 223.552C166.701 223.552 167.361 223.756 167.877 224.164C168.393 224.572 168.681 225.124 168.741 225.82H167.229C167.205 225.52 167.061 225.256 166.797 225.04C166.533 224.824 166.185 224.716 165.753 224.716C165.357 224.716 165.033 224.824 164.793 225.016C164.541 225.22 164.421 225.508 164.421 225.88C164.421 226.144 164.493 226.348 164.649 226.516C164.805 226.684 165.009 226.804 165.249 226.9C165.489 226.996 165.813 227.104 166.233 227.212C166.785 227.368 167.229 227.524 167.577 227.668C167.925 227.824 168.225 228.064 168.465 228.376C168.705 228.688 168.837 229.108 168.837 229.636C168.837 230.068 168.717 230.464 168.489 230.836C168.261 231.22 167.925 231.52 167.493 231.748C167.061 231.976 166.545 232.084 165.957 232.084C165.393 232.084 164.889 231.988 164.445 231.796ZM170.153 226.9C170.429 226.384 170.813 225.988 171.305 225.7C171.785 225.424 172.349 225.28 172.985 225.28C173.777 225.28 174.437 225.472 174.965 225.856C175.493 226.24 175.841 226.78 176.033 227.476H174.557C174.437 227.152 174.245 226.9 173.981 226.708C173.717 226.528 173.381 226.432 172.985 226.432C172.421 226.432 171.977 226.636 171.641 227.032C171.305 227.428 171.149 227.98 171.149 228.688C171.149 229.408 171.305 229.96 171.641 230.356C171.977 230.764 172.421 230.956 172.985 230.956C173.777 230.956 174.293 230.608 174.557 229.912H176.033C175.841 230.584 175.481 231.124 174.953 231.52C174.425 231.916 173.765 232.108 172.985 232.108C172.349 232.108 171.785 231.976 171.305 231.688C170.813 231.4 170.429 231.004 170.153 230.488C169.877 229.972 169.745 229.372 169.745 228.688C169.745 228.016 169.877 227.416 170.153 226.9ZM181.91 225.604C182.306 225.82 182.618 226.144 182.846 226.564C183.074 226.996 183.194 227.5 183.194 228.1V232H181.838V228.304C181.838 227.716 181.682 227.26 181.394 226.948C181.094 226.636 180.686 226.468 180.182 226.468C179.666 226.468 179.258 226.636 178.958 226.948C178.658 227.26 178.514 227.716 178.514 228.304V232H177.146V223.12H178.514V226.156C178.742 225.88 179.03 225.664 179.39 225.508C179.75 225.364 180.134 225.28 180.566 225.28C181.07 225.28 181.514 225.388 181.91 225.604ZM190.701 229.204H185.649C185.685 229.732 185.877 230.164 186.237 230.476C186.585 230.8 187.017 230.956 187.533 230.956C188.265 230.956 188.781 230.656 189.093 230.032H190.569C190.365 230.644 190.005 231.148 189.477 231.532C188.949 231.916 188.301 232.108 187.533 232.108C186.897 232.108 186.333 231.976 185.829 231.688C185.325 231.4 184.941 231.004 184.653 230.488C184.365 229.972 184.233 229.372 184.233 228.688C184.233 228.016 184.365 227.416 184.641 226.9C184.917 226.384 185.301 225.988 185.805 225.7C186.309 225.424 186.885 225.28 187.533 225.28C188.157 225.28 188.709 225.424 189.201 225.688C189.681 225.964 190.065 226.348 190.341 226.84C190.605 227.332 190.749 227.896 190.749 228.532C190.749 228.784 190.725 229.012 190.701 229.204ZM189.321 228.1C189.309 227.596 189.129 227.2 188.781 226.888C188.421 226.588 187.989 226.432 187.473 226.432C186.993 226.432 186.597 226.588 186.261 226.888C185.925 227.188 185.721 227.596 185.661 228.1H189.321ZM191.797 226.9C192.073 226.396 192.445 226 192.925 225.712C193.405 225.424 193.933 225.28 194.521 225.28C194.953 225.28 195.373 225.376 195.793 225.568C196.213 225.76 196.549 226 196.801 226.312V223.12H198.181V232H196.801V231.004C196.573 231.328 196.261 231.592 195.865 231.796C195.469 232.012 195.013 232.108 194.509 232.108C193.933 232.108 193.405 231.964 192.925 231.676C192.445 231.388 192.073 230.98 191.797 230.452C191.521 229.924 191.389 229.336 191.389 228.664C191.389 228.004 191.521 227.416 191.797 226.9ZM196.513 227.5C196.321 227.164 196.081 226.912 195.781 226.732C195.469 226.564 195.145 226.468 194.797 226.468C194.437 226.468 194.113 226.564 193.813 226.732C193.501 226.9 193.261 227.152 193.069 227.488C192.877 227.824 192.793 228.208 192.793 228.664C192.793 229.12 192.877 229.528 193.069 229.864C193.261 230.212 193.501 230.476 193.813 230.656C194.125 230.836 194.449 230.92 194.797 230.92C195.145 230.92 195.469 230.836 195.781 230.656C196.081 230.488 196.321 230.224 196.513 229.888C196.705 229.552 196.801 229.144 196.801 228.688C196.801 228.232 196.705 227.836 196.513 227.5ZM205.716 225.388V232H204.348V231.22C204.132 231.496 203.844 231.712 203.496 231.868C203.148 232.024 202.776 232.096 202.392 232.096C201.864 232.096 201.396 231.988 200.988 231.772C200.58 231.556 200.256 231.244 200.016 230.812C199.776 230.392 199.668 229.876 199.668 229.276V225.388H201.024V229.072C201.024 229.672 201.168 230.128 201.468 230.44C201.756 230.752 202.164 230.908 202.68 230.908C203.184 230.908 203.592 230.752 203.892 230.44C204.192 230.128 204.348 229.672 204.348 229.072V225.388H205.716ZM208.639 223.12V232H207.271V223.12H208.639ZM216.197 229.204H211.145C211.181 229.732 211.373 230.164 211.733 230.476C212.081 230.8 212.513 230.956 213.029 230.956C213.761 230.956 214.277 230.656 214.589 230.032H216.065C215.861 230.644 215.501 231.148 214.973 231.532C214.445 231.916 213.797 232.108 213.029 232.108C212.393 232.108 211.829 231.976 211.325 231.688C210.821 231.4 210.437 231.004 210.149 230.488C209.861 229.972 209.729 229.372 209.729 228.688C209.729 228.016 209.861 227.416 210.137 226.9C210.413 226.384 210.797 225.988 211.301 225.7C211.805 225.424 212.381 225.28 213.029 225.28C213.653 225.28 214.205 225.424 214.697 225.688C215.177 225.964 215.561 226.348 215.837 226.84C216.101 227.332 216.245 227.896 216.245 228.532C216.245 228.784 216.221 229.012 216.197 229.204ZM214.817 228.1C214.805 227.596 214.625 227.2 214.277 226.888C213.917 226.588 213.485 226.432 212.969 226.432C212.489 226.432 212.093 226.588 211.757 226.888C211.421 227.188 211.217 227.596 211.157 228.1H214.817Z" fill="#121212"/>
<circle cx="253" cy="228" r="4" fill="#4CA2A8"/>
<path d="M271.215 230.296H267.723L267.123 232H265.695L268.683 223.648H270.267L273.255 232H271.815L271.215 230.296ZM270.831 229.18L269.475 225.304L268.107 229.18H270.831ZM274.256 226.9C274.532 226.384 274.916 225.988 275.408 225.7C275.888 225.424 276.452 225.28 277.088 225.28C277.88 225.28 278.54 225.472 279.068 225.856C279.596 226.24 279.944 226.78 280.136 227.476H278.66C278.54 227.152 278.348 226.9 278.084 226.708C277.82 226.528 277.484 226.432 277.088 226.432C276.524 226.432 276.08 226.636 275.744 227.032C275.408 227.428 275.252 227.98 275.252 228.688C275.252 229.408 275.408 229.96 275.744 230.356C276.08 230.764 276.524 230.956 277.088 230.956C277.88 230.956 278.396 230.608 278.66 229.912H280.136C279.944 230.584 279.584 231.124 279.056 231.52C278.528 231.916 277.868 232.108 277.088 232.108C276.452 232.108 275.888 231.976 275.408 231.688C274.916 231.4 274.532 231.004 274.256 230.488C273.98 229.972 273.848 229.372 273.848 228.688C273.848 228.016 273.98 227.416 274.256 226.9ZM281.202 226.9C281.478 226.384 281.862 225.988 282.354 225.7C282.834 225.424 283.398 225.28 284.034 225.28C284.826 225.28 285.486 225.472 286.014 225.856C286.542 226.24 286.89 226.78 287.082 227.476H285.606C285.486 227.152 285.294 226.9 285.03 226.708C284.766 226.528 284.43 226.432 284.034 226.432C283.47 226.432 283.026 226.636 282.69 227.032C282.354 227.428 282.198 227.98 282.198 228.688C282.198 229.408 282.354 229.96 282.69 230.356C283.026 230.764 283.47 230.956 284.034 230.956C284.826 230.956 285.342 230.608 285.606 229.912H287.082C286.89 230.584 286.53 231.124 286.002 231.52C285.474 231.916 284.814 232.108 284.034 232.108C283.398 232.108 282.834 231.976 282.354 231.688C281.862 231.4 281.478 231.004 281.202 230.488C280.926 229.972 280.794 229.372 280.794 228.688C280.794 228.016 280.926 227.416 281.202 226.9ZM294.207 229.204H289.155C289.191 229.732 289.383 230.164 289.743 230.476C290.091 230.8 290.523 230.956 291.039 230.956C291.771 230.956 292.287 230.656 292.599 230.032H294.075C293.871 230.644 293.511 231.148 292.983 231.532C292.455 231.916 291.807 232.108 291.039 232.108C290.403 232.108 289.839 231.976 289.335 231.688C288.831 231.4 288.447 231.004 288.159 230.488C287.871 229.972 287.739 229.372 287.739 228.688C287.739 228.016 287.871 227.416 288.147 226.9C288.423 226.384 288.807 225.988 289.311 225.7C289.815 225.424 290.391 225.28 291.039 225.28C291.663 225.28 292.215 225.424 292.707 225.688C293.187 225.964 293.571 226.348 293.847 226.84C294.111 227.332 294.255 227.896 294.255 228.532C294.255 228.784 294.231 229.012 294.207 229.204ZM292.827 228.1C292.815 227.596 292.635 227.2 292.287 226.888C291.927 226.588 291.495 226.432 290.979 226.432C290.499 226.432 290.103 226.588 289.767 226.888C289.431 227.188 289.227 227.596 289.167 228.1H292.827ZM297.667 225.592C298.063 225.388 298.519 225.28 299.023 225.28C299.599 225.28 300.115 225.424 300.595 225.712C301.075 226 301.447 226.396 301.723 226.9C301.987 227.416 302.131 228.004 302.131 228.664C302.131 229.336 301.987 229.924 301.723 230.452C301.447 230.98 301.075 231.388 300.595 231.676C300.115 231.964 299.599 232.108 299.023 232.108C298.519 232.108 298.063 232.012 297.679 231.808C297.283 231.604 296.959 231.352 296.719 231.04V235.144H295.351V225.388H296.719V226.36C296.947 226.06 297.259 225.808 297.667 225.592ZM300.451 227.488C300.259 227.152 300.019 226.9 299.707 226.732C299.395 226.564 299.071 226.468 298.723 226.468C298.375 226.468 298.051 226.564 297.739 226.732C297.427 226.912 297.187 227.164 296.995 227.5C296.803 227.836 296.719 228.232 296.719 228.688C296.719 229.144 296.803 229.552 296.995 229.888C297.187 230.224 297.427 230.488 297.739 230.656C298.051 230.836 298.375 230.92 298.723 230.92C299.071 230.92 299.395 230.836 299.707 230.656C300.019 230.476 300.259 230.212 300.451 229.864C300.643 229.528 300.739 229.12 300.739 228.664C300.739 228.208 300.643 227.824 300.451 227.488ZM304.83 226.504V230.164C304.83 230.416 304.878 230.596 304.998 230.704C305.118 230.812 305.31 230.86 305.598 230.86H306.438V232H305.358C304.734 232 304.266 231.856 303.942 231.568C303.606 231.28 303.45 230.812 303.45 230.164V226.504H302.67V225.388H303.45V223.744H304.83V225.388H306.438V226.504H304.83ZM307.401 226.9C307.677 226.396 308.049 226 308.529 225.712C309.009 225.424 309.537 225.28 310.113 225.28C310.629 225.28 311.085 225.388 311.469 225.592C311.853 225.796 312.165 226.048 312.405 226.348V225.388H313.785V232H312.405V231.016C312.165 231.328 311.853 231.592 311.457 231.796C311.049 232.012 310.593 232.108 310.089 232.108C309.513 232.108 308.997 231.964 308.529 231.676C308.049 231.388 307.677 230.98 307.401 230.452C307.125 229.924 306.993 229.336 306.993 228.664C306.993 228.004 307.125 227.416 307.401 226.9ZM312.117 227.5C311.925 227.164 311.685 226.912 311.385 226.732C311.073 226.564 310.749 226.468 310.401 226.468C310.041 226.468 309.717 226.564 309.417 226.732C309.105 226.9 308.865 227.152 308.673 227.488C308.481 227.824 308.397 228.208 308.397 228.664C308.397 229.12 308.481 229.528 308.673 229.864C308.865 230.212 309.105 230.476 309.417 230.656C309.729 230.836 310.053 230.92 310.401 230.92C310.749 230.92 311.073 230.836 311.385 230.656C311.685 230.488 311.925 230.224 312.117 229.888C312.309 229.552 312.405 229.144 312.405 228.688C312.405 228.232 312.309 227.836 312.117 227.5ZM317.648 225.592C318.056 225.388 318.5 225.28 319.004 225.28C319.58 225.28 320.108 225.424 320.588 225.7C321.056 225.988 321.428 226.384 321.704 226.9C321.968 227.416 322.112 228.004 322.112 228.664C322.112 229.336 321.968 229.924 321.704 230.452C321.428 230.98 321.056 231.388 320.576 231.676C320.096 231.964 319.58 232.108 319.004 232.108C318.488 232.108 318.032 232.012 317.636 231.808C317.24 231.616 316.928 231.352 316.7 231.04V232H315.332V223.12H316.7V226.372C316.928 226.06 317.24 225.796 317.648 225.592ZM320.432 227.488C320.24 227.152 320 226.9 319.688 226.732C319.376 226.564 319.052 226.468 318.704 226.468C318.356 226.468 318.032 226.564 317.72 226.732C317.408 226.912 317.168 227.164 316.976 227.5C316.784 227.836 316.7 228.232 316.7 228.688C316.7 229.144 316.784 229.552 316.976 229.888C317.168 230.224 317.408 230.488 317.72 230.656C318.032 230.836 318.356 230.92 318.704 230.92C319.052 230.92 319.376 230.836 319.688 230.656C320 230.476 320.24 230.212 320.432 229.864C320.624 229.528 320.72 229.12 320.72 228.664C320.72 228.208 320.624 227.824 320.432 227.488ZM324.582 223.12V232H323.214V223.12H324.582ZM332.141 229.204H327.089C327.125 229.732 327.317 230.164 327.677 230.476C328.025 230.8 328.457 230.956 328.973 230.956C329.705 230.956 330.221 230.656 330.533 230.032H332.009C331.805 230.644 331.445 231.148 330.917 231.532C330.389 231.916 329.741 232.108 328.973 232.108C328.337 232.108 327.773 231.976 327.269 231.688C326.765 231.4 326.381 231.004 326.093 230.488C325.805 229.972 325.673 229.372 325.673 228.688C325.673 228.016 325.805 227.416 326.081 226.9C326.357 226.384 326.741 225.988 327.245 225.7C327.749 225.424 328.325 225.28 328.973 225.28C329.597 225.28 330.149 225.424 330.641 225.688C331.121 225.964 331.505 226.348 331.781 226.84C332.045 227.332 332.189 227.896 332.189 228.532C332.189 228.784 332.165 229.012 332.141 229.204ZM330.761 228.1C330.749 227.596 330.569 227.2 330.221 226.888C329.861 226.588 329.429 226.432 328.913 226.432C328.433 226.432 328.037 226.588 327.701 226.888C327.365 227.188 327.161 227.596 327.101 228.1H330.761ZM337.725 220.672L334.461 234.1H333.117L336.369 220.672H337.725ZM347.983 223.66V232H346.615V226.288L344.071 232H343.123L340.567 226.288V232H339.199V223.66H340.675L343.603 230.2L346.519 223.66H347.983ZM350.707 231.688C350.203 231.4 349.807 231.004 349.519 230.488C349.231 229.972 349.087 229.372 349.087 228.688C349.087 228.016 349.231 227.428 349.531 226.9C349.819 226.384 350.227 225.988 350.743 225.7C351.247 225.424 351.823 225.28 352.459 225.28C353.083 225.28 353.659 225.424 354.175 225.7C354.679 225.988 355.087 226.384 355.387 226.9C355.675 227.428 355.831 228.016 355.831 228.688C355.831 229.36 355.675 229.96 355.375 230.476C355.063 231.004 354.655 231.4 354.127 231.688C353.599 231.976 353.023 232.108 352.399 232.108C351.775 232.108 351.211 231.976 350.707 231.688ZM353.383 230.668C353.695 230.5 353.947 230.248 354.139 229.912C354.331 229.576 354.427 229.168 354.427 228.688C354.427 228.208 354.331 227.812 354.151 227.476C353.959 227.14 353.719 226.888 353.419 226.72C353.107 226.552 352.783 226.468 352.435 226.468C352.075 226.468 351.751 226.552 351.451 226.72C351.151 226.888 350.911 227.14 350.743 227.476C350.563 227.812 350.479 228.208 350.479 228.688C350.479 229.408 350.659 229.96 351.019 230.344C351.379 230.728 351.847 230.92 352.399 230.92C352.747 230.92 353.071 230.836 353.383 230.668ZM361.661 225.604C362.069 225.82 362.393 226.144 362.633 226.564C362.861 226.996 362.981 227.5 362.981 228.1V232H361.625V228.304C361.625 227.716 361.469 227.26 361.181 226.948C360.881 226.636 360.473 226.468 359.969 226.468C359.453 226.468 359.045 226.636 358.745 226.948C358.445 227.26 358.301 227.716 358.301 228.304V232H356.933V225.388H358.301V226.144C358.517 225.88 358.805 225.664 359.153 225.508C359.501 225.364 359.873 225.28 360.269 225.28C360.785 225.28 361.253 225.388 361.661 225.604ZM364.548 224.26C364.38 224.092 364.296 223.888 364.296 223.636C364.296 223.396 364.38 223.18 364.548 223.012C364.716 222.844 364.92 222.76 365.172 222.76C365.412 222.76 365.616 222.844 365.784 223.012C365.952 223.18 366.036 223.396 366.036 223.636C366.036 223.888 365.952 224.092 365.784 224.26C365.616 224.428 365.412 224.512 365.172 224.512C364.92 224.512 364.716 224.428 364.548 224.26ZM365.844 225.388V232H364.476V225.388H365.844ZM368.986 226.504V230.164C368.986 230.416 369.034 230.596 369.154 230.704C369.274 230.812 369.466 230.86 369.754 230.86H370.594V232H369.514C368.89 232 368.422 231.856 368.098 231.568C367.762 231.28 367.606 230.812 367.606 230.164V226.504H366.826V225.388H367.606V223.744H368.986V225.388H370.594V226.504H368.986ZM372.781 231.688C372.277 231.4 371.881 231.004 371.593 230.488C371.305 229.972 371.161 229.372 371.161 228.688C371.161 228.016 371.305 227.428 371.605 226.9C371.893 226.384 372.301 225.988 372.817 225.7C373.321 225.424 373.897 225.28 374.533 225.28C375.157 225.28 375.733 225.424 376.249 225.7C376.753 225.988 377.161 226.384 377.461 226.9C377.749 227.428 377.905 228.016 377.905 228.688C377.905 229.36 377.749 229.96 377.449 230.476C377.137 231.004 376.729 231.4 376.201 231.688C375.673 231.976 375.097 232.108 374.473 232.108C373.849 232.108 373.285 231.976 372.781 231.688ZM375.457 230.668C375.769 230.5 376.021 230.248 376.213 229.912C376.405 229.576 376.501 229.168 376.501 228.688C376.501 228.208 376.405 227.812 376.225 227.476C376.033 227.14 375.793 226.888 375.493 226.72C375.181 226.552 374.857 226.468 374.509 226.468C374.149 226.468 373.825 226.552 373.525 226.72C373.225 226.888 372.985 227.14 372.817 227.476C372.637 227.812 372.553 228.208 372.553 228.688C372.553 229.408 372.733 229.96 373.093 230.344C373.453 230.728 373.921 230.92 374.473 230.92C374.821 230.92 375.145 230.836 375.457 230.668ZM381.167 225.568C381.503 225.376 381.899 225.28 382.355 225.28V226.696H382.007C381.467 226.696 381.059 226.84 380.783 227.104C380.507 227.38 380.375 227.848 380.375 228.52V232H379.007V225.388H380.375V226.348C380.567 226.012 380.831 225.76 381.167 225.568Z" fill="#121212"/>
<path d="M273.919 43.5117C255.124 28.398 231.581 20.4332 207.47 21.0314C183.359 21.6296 160.241 30.752 142.218 46.7793L210 123L273.919 43.5117Z" fill="#E6B056"/>
<path d="M307.204 153.91C313.583 133.849 313.599 112.305 307.25 92.2345C300.9 72.1638 288.496 54.5493 271.739 41.8073L210 123L307.204 153.91Z" fill="#4CA2A8"/>
<path d="M145.501 44.176C129.285 57.0758 117.382 74.6087 111.377 94.4409C105.372 114.273 105.55 135.464 111.886 155.192L209 124L145.501 44.176Z" fill="#DD887C"/>
<circle cx="295.311" cy="148.734" r="13" fill="#4CA2A8"/>
<ellipse cx="209.5" cy="125" rx="76.5" ry="76" fill="#F8FAF9"/>
<circle cx="208.901" cy="124.901" r="64.4886" fill="white" stroke="#CED7D4"/>
<circle cx="124.611" cy="151.734" r="13" fill="#DD887C"/>
<circle cx="212.619" cy="125.146" r="10" fill="#EBEFEE"/>
<path d="M293.871 64.6196L207.28 135.999L201.999 128.711L293.871 64.6196Z" fill="#121212"/>
<circle cx="212.619" cy="125.146" r="7" fill="white"/>
</svg>
