<svg width="273" height="91" viewBox="0 0 273 91" fill="none" xmlns="http://www.w3.org/2000/svg">
<rect width="273" height="91" fill="#F5F5F5"/>
<rect x="-9738" y="-5652" width="23840" height="13376" fill="#F8FAF9"/>
<path d="M0 0H273V87C273 89.2091 271.209 91 269 91H4C1.79086 91 0 89.2091 0 87V0Z" fill="white"/>
<rect x="193" y="17" width="60" height="60" rx="12" fill="#EBEFEE"/>
<path d="M231.379 43.5691L230.149 45.4191C230.742 46.6022 231.033 47.914 230.994 49.2369C230.956 50.5598 230.59 51.8525 229.929 52.9991H216.069C215.21 51.5092 214.854 49.7823 215.054 48.0742C215.254 46.3662 215.999 44.768 217.179 43.5166C218.358 42.2652 219.91 41.4272 221.603 41.1268C223.296 40.8265 225.041 41.0798 226.579 41.8491L228.429 40.6191C226.546 39.4114 224.312 38.8701 222.084 39.0821C219.857 39.294 217.765 40.2468 216.143 41.7882C214.521 43.3295 213.463 45.3702 213.137 47.584C212.812 49.7977 213.239 52.0565 214.349 53.9991C214.524 54.3014 214.774 54.5528 215.076 54.7282C215.378 54.9036 215.72 54.997 216.069 54.9991H229.919C230.272 55.0005 230.618 54.9088 230.924 54.7332C231.229 54.5576 231.483 54.3044 231.659 53.9991C232.581 52.4031 233.043 50.5834 232.995 48.7411C232.948 46.8988 232.392 45.1055 231.389 43.5591L231.379 43.5691Z" fill="#595959"/>
<path d="M221.59 50.4099C221.776 50.5959 221.997 50.7434 222.24 50.844C222.482 50.9447 222.743 50.9965 223.005 50.9965C223.268 50.9965 223.529 50.9447 223.771 50.844C224.014 50.7434 224.235 50.5959 224.42 50.4099L230.08 41.9199L221.59 47.5799C221.405 47.7657 221.257 47.9862 221.156 48.229C221.056 48.4718 221.004 48.7321 221.004 48.9949C221.004 49.2578 221.056 49.518 221.156 49.7608C221.257 50.0036 221.405 50.2242 221.59 50.4099Z" fill="#121212"/>
<path d="M21.152 36.8V32.672H28.864V56H24.256V36.8H21.152ZM32.5978 51.456V47.936L43.0618 32.96H48.2778V47.552H51.0938V51.456H48.2778V56H43.7978V51.456H32.5978ZM44.0858 37.76L37.5258 47.552H44.0858V37.76ZM65.958 25.696L57.318 61.792H52.934L61.574 25.696H65.958ZM67.9645 36.8V32.672H75.6765V56H71.0685V36.8H67.9645ZM81.0103 50.944C83.0583 49.2373 84.6903 47.8187 85.9062 46.688C87.1223 45.536 88.1356 44.3413 88.9463 43.104C89.7569 41.8667 90.1623 40.6507 90.1623 39.456C90.1623 38.368 89.9063 37.5147 89.3943 36.896C88.8823 36.2773 88.0929 35.968 87.0263 35.968C85.9596 35.968 85.1383 36.3307 84.5623 37.056C83.9863 37.76 83.6876 38.7307 83.6663 39.968H79.3143C79.3996 37.408 80.1569 35.4667 81.5863 34.144C83.0369 32.8213 84.8716 32.16 87.0903 32.16C89.5223 32.16 91.3889 32.8107 92.6903 34.112C93.9916 35.392 94.6423 37.088 94.6423 39.2C94.6423 40.864 94.1943 42.4533 93.2983 43.968C92.4023 45.4827 91.3783 46.8053 90.2263 47.936C89.0743 49.0453 87.5703 50.3893 85.7143 51.968H95.1543V55.68H79.3463V52.352L81.0103 50.944Z" fill="#121212"/>
</svg>
