<svg width="273" height="91" viewBox="0 0 273 91" fill="none" xmlns="http://www.w3.org/2000/svg">
<rect width="273" height="91" fill="#F5F5F5"/>
<rect x="-8518" y="-5652" width="23840" height="13376" fill="#F8FAF9"/>
<path d="M0 0H273V87C273 89.2091 271.209 91 269 91H4C1.79086 91 0 89.2091 0 87V0Z" fill="white"/>
<rect x="193" y="17" width="60" height="60" rx="12" fill="#EBEFEE"/>
<path d="M223 36L214 40V46C214 51.55 217.84 56.74 223 58C228.16 56.74 232 51.55 232 46V40L223 36ZM223 46.99H230C229.47 51.11 226.72 54.78 223 55.93V47H216V41.3L223 38.19V46.99Z" fill="#595959"/>
<path d="M26.88 49.44C27.0507 50.3787 27.4347 51.104 28.032 51.616C28.6507 52.1067 29.472 52.352 30.496 52.352C31.8187 52.352 32.7787 51.808 33.376 50.72C33.9733 49.6107 34.272 47.7547 34.272 45.152C33.7813 45.8347 33.088 46.368 32.192 46.752C31.3173 47.136 30.368 47.328 29.344 47.328C27.9787 47.328 26.7413 47.0507 25.632 46.496C24.544 45.92 23.68 45.0773 23.04 43.968C22.4 42.8373 22.08 41.472 22.08 39.872C22.08 37.504 22.784 35.6267 24.192 34.24C25.6 32.832 27.52 32.128 29.952 32.128C32.9813 32.128 35.1147 33.0987 36.352 35.04C37.6107 36.9813 38.24 39.904 38.24 43.808C38.24 46.5813 37.9947 48.8533 37.504 50.624C37.0347 52.3947 36.2133 53.7387 35.04 54.656C33.888 55.5733 32.3093 56.032 30.304 56.032C28.7253 56.032 27.3813 55.7333 26.272 55.136C25.1627 54.5173 24.3093 53.7173 23.712 52.736C23.136 51.7333 22.8053 50.6347 22.72 49.44H26.88ZM30.272 43.68C31.3813 43.68 32.256 43.3387 32.896 42.656C33.536 41.9733 33.856 41.056 33.856 39.904C33.856 38.6453 33.5147 37.6747 32.832 36.992C32.1707 36.288 31.264 35.936 30.112 35.936C28.96 35.936 28.0427 36.2987 27.36 37.024C26.6987 37.728 26.368 38.6667 26.368 39.84C26.368 40.9707 26.688 41.8987 27.328 42.624C27.9893 43.328 28.9707 43.68 30.272 43.68ZM46.4113 49.44C46.5819 50.3787 46.9659 51.104 47.5633 51.616C48.1819 52.1067 49.0033 52.352 50.0273 52.352C51.3499 52.352 52.3099 51.808 52.9073 50.72C53.5046 49.6107 53.8033 47.7547 53.8033 45.152C53.3126 45.8347 52.6193 46.368 51.7233 46.752C50.8486 47.136 49.8993 47.328 48.8753 47.328C47.5099 47.328 46.2726 47.0507 45.1633 46.496C44.0753 45.92 43.2113 45.0773 42.5713 43.968C41.9313 42.8373 41.6113 41.472 41.6113 39.872C41.6113 37.504 42.3153 35.6267 43.7233 34.24C45.1313 32.832 47.0513 32.128 49.4833 32.128C52.5126 32.128 54.6459 33.0987 55.8833 35.04C57.1419 36.9813 57.7713 39.904 57.7713 43.808C57.7713 46.5813 57.5259 48.8533 57.0353 50.624C56.5659 52.3947 55.7446 53.7387 54.5713 54.656C53.4193 55.5733 51.8406 56.032 49.8353 56.032C48.2566 56.032 46.9126 55.7333 45.8033 55.136C44.6939 54.5173 43.8406 53.7173 43.2433 52.736C42.6673 51.7333 42.3366 50.6347 42.2513 49.44H46.4113ZM49.8033 43.68C50.9126 43.68 51.7873 43.3387 52.4273 42.656C53.0673 41.9733 53.3873 41.056 53.3873 39.904C53.3873 38.6453 53.0459 37.6747 52.3633 36.992C51.7019 36.288 50.7953 35.936 49.6433 35.936C48.4913 35.936 47.5739 36.2987 46.8913 37.024C46.2299 37.728 45.8993 38.6667 45.8993 39.84C45.8993 40.9707 46.2193 41.8987 46.8593 42.624C47.5206 43.328 48.5019 43.68 49.8033 43.68ZM60.2465 38.4C60.2465 36.7787 60.7158 35.5093 61.6545 34.592C62.6145 33.6747 63.8412 33.216 65.3345 33.216C66.8278 33.216 68.0438 33.6747 68.9825 34.592C69.9425 35.5093 70.4225 36.7787 70.4225 38.4C70.4225 40.0427 69.9425 41.3227 68.9825 42.24C68.0438 43.1573 66.8278 43.616 65.3345 43.616C63.8412 43.616 62.6145 43.1573 61.6545 42.24C60.7158 41.3227 60.2465 40.0427 60.2465 38.4ZM80.7905 33.6L68.2145 56H63.8625L76.4065 33.6H80.7905ZM65.3025 35.904C64.1292 35.904 63.5425 36.736 63.5425 38.4C63.5425 40.0853 64.1292 40.928 65.3025 40.928C65.8785 40.928 66.3265 40.7253 66.6465 40.32C66.9665 39.8933 67.1265 39.2533 67.1265 38.4C67.1265 36.736 66.5185 35.904 65.3025 35.904ZM74.2945 51.168C74.2945 49.5253 74.7638 48.256 75.7025 47.36C76.6625 46.4427 77.8892 45.984 79.3825 45.984C80.8758 45.984 82.0812 46.4427 82.9985 47.36C83.9372 48.256 84.4065 49.5253 84.4065 51.168C84.4065 52.8107 83.9372 54.0907 82.9985 55.008C82.0812 55.9253 80.8758 56.384 79.3825 56.384C77.8678 56.384 76.6412 55.9253 75.7025 55.008C74.7638 54.0907 74.2945 52.8107 74.2945 51.168ZM79.3505 48.672C78.1345 48.672 77.5265 49.504 77.5265 51.168C77.5265 52.8533 78.1345 53.696 79.3505 53.696C80.5452 53.696 81.1425 52.8533 81.1425 51.168C81.1425 49.504 80.5452 48.672 79.3505 48.672Z" fill="#121212"/>
</svg>
