<svg width="273" height="91" viewBox="0 0 273 91" fill="none" xmlns="http://www.w3.org/2000/svg">
<rect width="273" height="91" fill="#F5F5F5"/>
<rect x="-9433" y="-5507" width="23840" height="13376" fill="#F8FAF9"/>
<path d="M0 0H273V87C273 89.2091 271.209 91 269 91H4C1.79086 91 0 89.2091 0 87V0Z" fill="white"/>
<rect x="193" y="17" width="60" height="60" rx="12" fill="#EBEFEE"/>
<path d="M222.99 37C217.47 37 213 41.48 213 47C213 52.52 217.47 57 222.99 57C228.52 57 233 52.52 233 47C233 41.48 228.52 37 222.99 37ZM223 55C218.58 55 215 51.42 215 47C215 42.58 218.58 39 223 39C227.42 39 231 42.58 231 47C231 51.42 227.42 55 223 55ZM223.5 42H222V48L227.25 51.15L228 49.92L223.5 47.25V42Z" fill="#595959"/>
<path d="M21.76 38.816C21.8667 36.6827 22.6133 35.04 24 33.888C25.408 32.7147 27.2533 32.128 29.536 32.128C31.0933 32.128 32.4267 32.4053 33.536 32.96C34.6453 33.4933 35.4773 34.2293 36.032 35.168C36.608 36.0853 36.896 37.1307 36.896 38.304C36.896 39.648 36.544 40.7893 35.84 41.728C35.1573 42.6453 34.336 43.264 33.376 43.584V43.712C34.6133 44.096 35.5733 44.7787 36.256 45.76C36.96 46.7413 37.312 48 37.312 49.536C37.312 50.816 37.0133 51.9573 36.416 52.96C35.84 53.9627 34.976 54.752 33.824 55.328C32.6933 55.8827 31.328 56.16 29.728 56.16C27.3173 56.16 25.3547 55.552 23.84 54.336C22.3253 53.12 21.5253 51.328 21.44 48.96H25.792C25.8347 50.0053 26.1867 50.848 26.848 51.488C27.5307 52.1067 28.4587 52.416 29.632 52.416C30.72 52.416 31.552 52.1173 32.128 51.52C32.7253 50.9013 33.024 50.112 33.024 49.152C33.024 47.872 32.6187 46.9547 31.808 46.4C30.9973 45.8453 29.7387 45.568 28.032 45.568H27.104V41.888H28.032C31.0613 41.888 32.576 40.8747 32.576 38.848C32.576 37.9307 32.2987 37.216 31.744 36.704C31.2107 36.192 30.432 35.936 29.408 35.936C28.4053 35.936 27.6267 36.2133 27.072 36.768C26.5387 37.3013 26.2293 37.984 26.144 38.816H21.76ZM52.4483 38.496C52.2349 37.6 51.8616 36.928 51.3283 36.48C50.8163 36.032 50.0696 35.808 49.0883 35.808C47.6163 35.808 46.5283 36.4053 45.8243 37.6C45.1416 38.7733 44.7896 40.6933 44.7683 43.36C45.2803 42.5067 46.0269 41.8453 47.0083 41.376C47.9896 40.8853 49.0563 40.64 50.2083 40.64C51.5949 40.64 52.8216 40.9387 53.8883 41.536C54.9549 42.1333 55.7869 43.008 56.3843 44.16C56.9816 45.2907 57.2803 46.656 57.2803 48.256C57.2803 49.7707 56.9709 51.1253 56.3523 52.32C55.7549 53.4933 54.8696 54.4107 53.6963 55.072C52.5229 55.7333 51.1256 56.064 49.5043 56.064C47.2856 56.064 45.5363 55.5733 44.2563 54.592C42.9976 53.6107 42.1123 52.2453 41.6003 50.496C41.1096 48.7253 40.8643 46.5493 40.8643 43.968C40.8643 40.064 41.5363 37.12 42.8802 35.136C44.2243 33.1307 46.3469 32.128 49.2483 32.128C51.4883 32.128 53.2269 32.736 54.4643 33.952C55.7016 35.168 56.4163 36.6827 56.6083 38.496H52.4483ZM49.1843 44.32C48.0536 44.32 47.1043 44.6507 46.3363 45.312C45.5683 45.9733 45.1843 46.9333 45.1843 48.192C45.1843 49.4507 45.5363 50.4427 46.2403 51.168C46.9656 51.8933 47.9789 52.256 49.2803 52.256C50.4323 52.256 51.3389 51.904 52.0003 51.2C52.6829 50.496 53.0243 49.5467 53.0243 48.352C53.0243 47.1147 52.6936 46.1333 52.0323 45.408C51.3923 44.6827 50.4429 44.32 49.1843 44.32ZM65.505 49.44C65.6757 50.3787 66.0597 51.104 66.657 51.616C67.2757 52.1067 68.097 52.352 69.121 52.352C70.4437 52.352 71.4037 51.808 72.001 50.72C72.5983 49.6107 72.897 47.7547 72.897 45.152C72.4063 45.8347 71.713 46.368 70.817 46.752C69.9423 47.136 68.993 47.328 67.969 47.328C66.6037 47.328 65.3663 47.0507 64.257 46.496C63.169 45.92 62.305 45.0773 61.665 43.968C61.025 42.8373 60.705 41.472 60.705 39.872C60.705 37.504 61.409 35.6267 62.817 34.24C64.225 32.832 66.145 32.128 68.577 32.128C71.6063 32.128 73.7397 33.0987 74.977 35.04C76.2357 36.9813 76.865 39.904 76.865 43.808C76.865 46.5813 76.6197 48.8533 76.129 50.624C75.6597 52.3947 74.8383 53.7387 73.665 54.656C72.513 55.5733 70.9343 56.032 68.929 56.032C67.3503 56.032 66.0063 55.7333 64.897 55.136C63.7877 54.5173 62.9343 53.7173 62.337 52.736C61.761 51.7333 61.4303 50.6347 61.345 49.44H65.505ZM68.897 43.68C70.0063 43.68 70.881 43.3387 71.521 42.656C72.161 41.9733 72.481 41.056 72.481 39.904C72.481 38.6453 72.1397 37.6747 71.457 36.992C70.7957 36.288 69.889 35.936 68.737 35.936C67.585 35.936 66.6677 36.2987 65.985 37.024C65.3237 37.728 64.993 38.6667 64.993 39.84C64.993 40.9707 65.313 41.8987 65.953 42.624C66.6143 43.328 67.5957 43.68 68.897 43.68ZM79.3083 36.8V32.672H87.0203V56H82.4123V36.8H79.3083Z" fill="#121212"/>
</svg>
