<svg width="273" height="91" viewBox="0 0 273 91" fill="none" xmlns="http://www.w3.org/2000/svg">
<rect width="273" height="91" fill="#F5F5F5"/>
<rect x="-8213" y="-5797" width="23840" height="13376" fill="#F8FAF9"/>
<path d="M0 0H273V87C273 89.2091 271.209 91 269 91H4C1.79086 91 0 89.2091 0 87V0Z" fill="white"/>
<rect x="193" y="17" width="60" height="60" rx="12" fill="#EBEFEE"/>
<path d="M223 37C217.48 37 213 41.48 213 47C213 52.52 217.48 57 223 57C228.52 57 233 52.52 233 47C233 41.48 228.52 37 223 37ZM223 55C218.59 55 215 51.41 215 47C215 42.59 218.59 39 223 39C227.41 39 231 42.59 231 47C231 51.41 227.41 55 223 55ZM227.59 42.58L221 49.17L218.41 46.59L217 48L221 52L229 44L227.59 42.58Z" fill="#595959"/>
<path d="M21.152 36.8V32.672H28.864V56H24.256V36.8H21.152ZM32.7898 44.032C32.7898 40.3413 33.4511 37.4507 34.7738 35.36C36.1178 33.2693 38.3364 32.224 41.4298 32.224C44.5231 32.224 46.7311 33.2693 48.0538 35.36C49.3978 37.4507 50.0698 40.3413 50.0698 44.032C50.0698 47.744 49.3978 50.656 48.0538 52.768C46.7311 54.88 44.5231 55.936 41.4298 55.936C38.3364 55.936 36.1178 54.88 34.7738 52.768C33.4511 50.656 32.7898 47.744 32.7898 44.032ZM45.6538 44.032C45.6538 42.4533 45.5471 41.1307 45.3338 40.064C45.1418 38.976 44.7364 38.0907 44.1178 37.408C43.5204 36.7253 42.6244 36.384 41.4298 36.384C40.2351 36.384 39.3284 36.7253 38.7098 37.408C38.1124 38.0907 37.7071 38.976 37.4938 40.064C37.3018 41.1307 37.2058 42.4533 37.2058 44.032C37.2058 45.6533 37.3018 47.0187 37.4938 48.128C37.6858 49.216 38.0911 50.1013 38.7098 50.784C39.3284 51.4453 40.2351 51.776 41.4298 51.776C42.6244 51.776 43.5311 51.4453 44.1498 50.784C44.7684 50.1013 45.1738 49.216 45.3658 48.128C45.5578 47.0187 45.6538 45.6533 45.6538 44.032Z" fill="#121212"/>
</svg>
