<svg width="425" height="265" viewBox="0 0 425 265" fill="none" xmlns="http://www.w3.org/2000/svg">
<rect width="425" height="265" fill="#F5F5F5"/>
<rect x="-13982" y="-3986" width="23840" height="13376" fill="#F8FAF9"/>
<rect width="425" height="265" rx="4" fill="white"/>
<circle cx="47" cy="221" r="4" fill="#666EB4"/>
<path d="M61.3442 223.896H64.1642V225H59.9762V216.66H61.3442V223.896ZM71.0702 222.204H66.0182C66.0542 222.732 66.2462 223.164 66.6062 223.476C66.9542 223.8 67.3862 223.956 67.9022 223.956C68.6342 223.956 69.1502 223.656 69.4622 223.032H70.9382C70.7342 223.644 70.3742 224.148 69.8462 224.532C69.3182 224.916 68.6702 225.108 67.9022 225.108C67.2662 225.108 66.7022 224.976 66.1982 224.688C65.6942 224.4 65.3102 224.004 65.0222 223.488C64.7342 222.972 64.6022 222.372 64.6022 221.688C64.6022 221.016 64.7342 220.416 65.0102 219.9C65.2862 219.384 65.6702 218.988 66.1742 218.7C66.6782 218.424 67.2542 218.28 67.9022 218.28C68.5262 218.28 69.0782 218.424 69.5702 218.688C70.0502 218.964 70.4342 219.348 70.7102 219.84C70.9742 220.332 71.1182 220.896 71.1182 221.532C71.1182 221.784 71.0942 222.012 71.0702 222.204ZM69.6902 221.1C69.6782 220.596 69.4982 220.2 69.1502 219.888C68.7902 219.588 68.3582 219.432 67.8422 219.432C67.3622 219.432 66.9662 219.588 66.6302 219.888C66.2942 220.188 66.0902 220.596 66.0302 221.1H69.6902ZM72.1665 219.9C72.4425 219.396 72.8145 219 73.2945 218.712C73.7745 218.424 74.3025 218.28 74.8785 218.28C75.3945 218.28 75.8505 218.388 76.2345 218.592C76.6185 218.796 76.9305 219.048 77.1705 219.348V218.388H78.5505V225H77.1705V224.016C76.9305 224.328 76.6185 224.592 76.2225 224.796C75.8145 225.012 75.3585 225.108 74.8545 225.108C74.2785 225.108 73.7625 224.964 73.2945 224.676C72.8145 224.388 72.4425 223.98 72.1665 223.452C71.8905 222.924 71.7585 222.336 71.7585 221.664C71.7585 221.004 71.8905 220.416 72.1665 219.9ZM76.8825 220.5C76.6905 220.164 76.4505 219.912 76.1505 219.732C75.8385 219.564 75.5145 219.468 75.1665 219.468C74.8065 219.468 74.4825 219.564 74.1825 219.732C73.8705 219.9 73.6305 220.152 73.4385 220.488C73.2465 220.824 73.1625 221.208 73.1625 221.664C73.1625 222.12 73.2465 222.528 73.4385 222.864C73.6305 223.212 73.8705 223.476 74.1825 223.656C74.4945 223.836 74.8185 223.92 75.1665 223.92C75.5145 223.92 75.8385 223.836 76.1505 223.656C76.4505 223.488 76.6905 223.224 76.8825 222.888C77.0745 222.552 77.1705 222.144 77.1705 221.688C77.1705 221.232 77.0745 220.836 76.8825 220.5ZM82.7133 221.7L85.7613 225H83.9133L81.4653 222.156V225H80.0973V216.12H81.4653V221.28L83.8653 218.388H85.7613L82.7133 221.7ZM86.4438 219.9C86.7198 219.396 87.0918 219 87.5718 218.712C88.0518 218.424 88.5798 218.28 89.1558 218.28C89.6718 218.28 90.1278 218.388 90.5118 218.592C90.8958 218.796 91.2078 219.048 91.4478 219.348V218.388H92.8278V225H91.4478V224.016C91.2078 224.328 90.8958 224.592 90.4998 224.796C90.0918 225.012 89.6358 225.108 89.1318 225.108C88.5558 225.108 88.0398 224.964 87.5718 224.676C87.0918 224.388 86.7198 223.98 86.4438 223.452C86.1678 222.924 86.0358 222.336 86.0358 221.664C86.0358 221.004 86.1678 220.416 86.4438 219.9ZM91.1598 220.5C90.9678 220.164 90.7278 219.912 90.4278 219.732C90.1158 219.564 89.7918 219.468 89.4438 219.468C89.0838 219.468 88.7598 219.564 88.4598 219.732C88.1478 219.9 87.9078 220.152 87.7158 220.488C87.5238 220.824 87.4398 221.208 87.4398 221.664C87.4398 222.12 87.5238 222.528 87.7158 222.864C87.9078 223.212 88.1478 223.476 88.4598 223.656C88.7718 223.836 89.0958 223.92 89.4438 223.92C89.7918 223.92 90.1158 223.836 90.4278 223.656C90.7278 223.488 90.9678 223.224 91.1598 222.888C91.3518 222.552 91.4478 222.144 91.4478 221.688C91.4478 221.232 91.3518 220.836 91.1598 220.5ZM98.3946 218.592C98.7906 218.796 99.1026 219.048 99.3306 219.348V218.388H100.711V225.108C100.711 225.72 100.579 226.26 100.327 226.74C100.063 227.22 99.6906 227.592 99.2106 227.856C98.7306 228.132 98.1546 228.264 97.4826 228.264C96.5826 228.264 95.8386 228.06 95.2506 227.64C94.6506 227.22 94.3146 226.644 94.2426 225.924H95.5986C95.6946 226.272 95.9226 226.548 96.2586 226.764C96.5946 226.98 97.0026 227.076 97.4826 227.076C98.0346 227.076 98.4786 226.908 98.8146 226.572C99.1506 226.236 99.3306 225.756 99.3306 225.108V224.004C99.0906 224.316 98.7786 224.58 98.3826 224.796C97.9866 225.012 97.5426 225.108 97.0386 225.108C96.4626 225.108 95.9346 224.964 95.4546 224.676C94.9746 224.388 94.6026 223.98 94.3266 223.452C94.0506 222.924 93.9186 222.336 93.9186 221.664C93.9186 221.004 94.0506 220.416 94.3266 219.9C94.6026 219.396 94.9746 219 95.4546 218.712C95.9346 218.424 96.4626 218.28 97.0386 218.28C97.5426 218.28 97.9986 218.388 98.3946 218.592ZM99.0426 220.5C98.8506 220.164 98.6106 219.912 98.3106 219.732C97.9986 219.564 97.6746 219.468 97.3266 219.468C96.9666 219.468 96.6426 219.564 96.3426 219.732C96.0306 219.9 95.7906 220.152 95.5986 220.488C95.4066 220.824 95.3226 221.208 95.3226 221.664C95.3226 222.12 95.4066 222.528 95.5986 222.864C95.7906 223.212 96.0306 223.476 96.3426 223.656C96.6546 223.836 96.9786 223.92 97.3266 223.92C97.6746 223.92 97.9986 223.836 98.3106 223.656C98.6106 223.488 98.8506 223.224 99.0426 222.888C99.2346 222.552 99.3306 222.144 99.3306 221.688C99.3306 221.232 99.2346 220.836 99.0426 220.5ZM108.269 222.204H103.217C103.253 222.732 103.445 223.164 103.805 223.476C104.153 223.8 104.585 223.956 105.101 223.956C105.833 223.956 106.349 223.656 106.661 223.032H108.137C107.933 223.644 107.573 224.148 107.045 224.532C106.517 224.916 105.869 225.108 105.101 225.108C104.465 225.108 103.901 224.976 103.397 224.688C102.893 224.4 102.509 224.004 102.221 223.488C101.933 222.972 101.801 222.372 101.801 221.688C101.801 221.016 101.933 220.416 102.209 219.9C102.485 219.384 102.869 218.988 103.373 218.7C103.877 218.424 104.453 218.28 105.101 218.28C105.725 218.28 106.277 218.424 106.769 218.688C107.249 218.964 107.633 219.348 107.909 219.84C108.173 220.332 108.317 220.896 108.317 221.532C108.317 221.784 108.293 222.012 108.269 222.204ZM106.889 221.1C106.877 220.596 106.697 220.2 106.349 219.888C105.989 219.588 105.557 219.432 105.041 219.432C104.561 219.432 104.165 219.588 103.829 219.888C103.493 220.188 103.289 220.596 103.229 221.1H106.889ZM110.41 224.832C110.002 224.64 109.678 224.388 109.438 224.064C109.198 223.74 109.066 223.38 109.054 222.972H110.47C110.494 223.26 110.626 223.488 110.866 223.68C111.106 223.872 111.418 223.956 111.79 223.956C112.174 223.956 112.462 223.884 112.678 223.74C112.894 223.596 113.002 223.404 113.002 223.164C113.002 222.924 112.882 222.732 112.642 222.612C112.402 222.492 112.03 222.36 111.526 222.216C111.022 222.084 110.626 221.952 110.314 221.82C110.002 221.7 109.726 221.496 109.498 221.232C109.27 220.968 109.162 220.62 109.162 220.188C109.162 219.84 109.258 219.516 109.474 219.228C109.678 218.94 109.978 218.7 110.362 218.532C110.746 218.364 111.202 218.28 111.706 218.28C112.45 218.28 113.062 218.472 113.518 218.856C113.974 219.24 114.226 219.756 114.262 220.404H112.894C112.87 220.116 112.75 219.876 112.534 219.696C112.318 219.528 112.018 219.432 111.658 219.432C111.298 219.432 111.022 219.504 110.83 219.636C110.638 219.78 110.542 219.96 110.542 220.176C110.542 220.356 110.602 220.5 110.734 220.62C110.854 220.74 111.01 220.836 111.202 220.908C111.382 220.98 111.658 221.064 112.018 221.16C112.498 221.292 112.882 221.424 113.194 221.556C113.506 221.688 113.77 221.88 113.998 222.132C114.214 222.396 114.334 222.732 114.346 223.152C114.346 223.536 114.238 223.872 114.034 224.16C113.818 224.46 113.53 224.688 113.146 224.856C112.762 225.024 112.318 225.108 111.814 225.108C111.286 225.108 110.818 225.024 110.41 224.832Z" fill="#121212"/>
<circle cx="151" cy="221" r="4" fill="#4CA2A8"/>
<path d="M168.863 216.66V217.776H165.323V220.236H168.083V221.352H165.323V225H163.955V216.66H168.863ZM169.952 217.26C169.784 217.092 169.7 216.888 169.7 216.636C169.7 216.396 169.784 216.18 169.952 216.012C170.12 215.844 170.324 215.76 170.576 215.76C170.816 215.76 171.02 215.844 171.188 216.012C171.356 216.18 171.44 216.396 171.44 216.636C171.44 216.888 171.356 217.092 171.188 217.26C171.02 217.428 170.816 217.512 170.576 217.512C170.324 217.512 170.12 217.428 169.952 217.26ZM171.248 218.388V225H169.88V218.388H171.248ZM174.163 216.12V225H172.795V216.12H174.163ZM177.305 219.504V223.164C177.305 223.416 177.353 223.596 177.473 223.704C177.593 223.812 177.785 223.86 178.073 223.86H178.913V225H177.833C177.209 225 176.741 224.856 176.417 224.568C176.081 224.28 175.925 223.812 175.925 223.164V219.504H175.145V218.388H175.925V216.744H177.305V218.388H178.913V219.504H177.305ZM185.935 222.204H180.883C180.919 222.732 181.111 223.164 181.471 223.476C181.819 223.8 182.251 223.956 182.767 223.956C183.499 223.956 184.015 223.656 184.327 223.032H185.803C185.599 223.644 185.239 224.148 184.711 224.532C184.183 224.916 183.535 225.108 182.767 225.108C182.131 225.108 181.567 224.976 181.063 224.688C180.559 224.4 180.175 224.004 179.887 223.488C179.599 222.972 179.467 222.372 179.467 221.688C179.467 221.016 179.599 220.416 179.875 219.9C180.151 219.384 180.535 218.988 181.039 218.7C181.543 218.424 182.119 218.28 182.767 218.28C183.391 218.28 183.943 218.424 184.435 218.688C184.915 218.964 185.299 219.348 185.575 219.84C185.839 220.332 185.983 220.896 185.983 221.532C185.983 221.784 185.959 222.012 185.935 222.204ZM184.555 221.1C184.543 220.596 184.363 220.2 184.015 219.888C183.655 219.588 183.223 219.432 182.707 219.432C182.227 219.432 181.831 219.588 181.495 219.888C181.159 220.188 180.955 220.596 180.895 221.1H184.555ZM189.24 218.568C189.576 218.376 189.972 218.28 190.428 218.28V219.696H190.08C189.54 219.696 189.132 219.84 188.856 220.104C188.58 220.38 188.448 220.848 188.448 221.52V225H187.08V218.388H188.448V219.348C188.64 219.012 188.904 218.76 189.24 218.568ZM192.431 224.832C192.023 224.64 191.699 224.388 191.459 224.064C191.219 223.74 191.087 223.38 191.075 222.972H192.491C192.515 223.26 192.647 223.488 192.887 223.68C193.127 223.872 193.439 223.956 193.811 223.956C194.195 223.956 194.483 223.884 194.699 223.74C194.915 223.596 195.023 223.404 195.023 223.164C195.023 222.924 194.903 222.732 194.663 222.612C194.423 222.492 194.051 222.36 193.547 222.216C193.043 222.084 192.647 221.952 192.335 221.82C192.023 221.7 191.747 221.496 191.519 221.232C191.291 220.968 191.183 220.62 191.183 220.188C191.183 219.84 191.279 219.516 191.495 219.228C191.699 218.94 191.999 218.7 192.383 218.532C192.767 218.364 193.223 218.28 193.727 218.28C194.471 218.28 195.083 218.472 195.539 218.856C195.995 219.24 196.247 219.756 196.283 220.404H194.915C194.891 220.116 194.771 219.876 194.555 219.696C194.339 219.528 194.039 219.432 193.679 219.432C193.319 219.432 193.043 219.504 192.851 219.636C192.659 219.78 192.563 219.96 192.563 220.176C192.563 220.356 192.623 220.5 192.755 220.62C192.875 220.74 193.031 220.836 193.223 220.908C193.403 220.98 193.679 221.064 194.039 221.16C194.519 221.292 194.903 221.424 195.215 221.556C195.527 221.688 195.791 221.88 196.019 222.132C196.235 222.396 196.355 222.732 196.367 223.152C196.367 223.536 196.259 223.872 196.055 224.16C195.839 224.46 195.551 224.688 195.167 224.856C194.783 225.024 194.339 225.108 193.835 225.108C193.307 225.108 192.839 225.024 192.431 224.832Z" fill="#121212"/>
<circle cx="233" cy="221" r="4" fill="#AF74B9"/>
<path d="M251.061 223.296H247.569L246.969 225H245.541L248.529 216.648H250.113L253.101 225H251.661L251.061 223.296ZM250.677 222.18L249.321 218.304L247.953 222.18H250.677ZM254.102 219.9C254.378 219.384 254.762 218.988 255.254 218.7C255.734 218.424 256.298 218.28 256.934 218.28C257.726 218.28 258.386 218.472 258.914 218.856C259.442 219.24 259.79 219.78 259.982 220.476H258.506C258.386 220.152 258.194 219.9 257.93 219.708C257.666 219.528 257.33 219.432 256.934 219.432C256.37 219.432 255.926 219.636 255.59 220.032C255.254 220.428 255.098 220.98 255.098 221.688C255.098 222.408 255.254 222.96 255.59 223.356C255.926 223.764 256.37 223.956 256.934 223.956C257.726 223.956 258.242 223.608 258.506 222.912H259.982C259.79 223.584 259.43 224.124 258.902 224.52C258.374 224.916 257.714 225.108 256.934 225.108C256.298 225.108 255.734 224.976 255.254 224.688C254.762 224.4 254.378 224.004 254.102 223.488C253.826 222.972 253.694 222.372 253.694 221.688C253.694 221.016 253.826 220.416 254.102 219.9ZM262.691 219.504V223.164C262.691 223.416 262.739 223.596 262.859 223.704C262.979 223.812 263.171 223.86 263.459 223.86H264.299V225H263.219C262.595 225 262.127 224.856 261.803 224.568C261.467 224.28 261.311 223.812 261.311 223.164V219.504H260.531V218.388H261.311V216.744H262.691V218.388H264.299V219.504H262.691ZM271.298 218.388V225H269.93V224.22C269.714 224.496 269.426 224.712 269.078 224.868C268.73 225.024 268.358 225.096 267.974 225.096C267.446 225.096 266.978 224.988 266.57 224.772C266.162 224.556 265.838 224.244 265.598 223.812C265.358 223.392 265.25 222.876 265.25 222.276V218.388H266.606V222.072C266.606 222.672 266.75 223.128 267.05 223.44C267.338 223.752 267.746 223.908 268.262 223.908C268.766 223.908 269.174 223.752 269.474 223.44C269.774 223.128 269.93 222.672 269.93 222.072V218.388H271.298ZM272.805 219.9C273.081 219.396 273.453 219 273.933 218.712C274.413 218.424 274.941 218.28 275.517 218.28C276.033 218.28 276.489 218.388 276.873 218.592C277.257 218.796 277.569 219.048 277.809 219.348V218.388H279.189V225H277.809V224.016C277.569 224.328 277.257 224.592 276.861 224.796C276.453 225.012 275.997 225.108 275.493 225.108C274.917 225.108 274.401 224.964 273.933 224.676C273.453 224.388 273.081 223.98 272.805 223.452C272.529 222.924 272.397 222.336 272.397 221.664C272.397 221.004 272.529 220.416 272.805 219.9ZM277.521 220.5C277.329 220.164 277.089 219.912 276.789 219.732C276.477 219.564 276.153 219.468 275.805 219.468C275.445 219.468 275.121 219.564 274.821 219.732C274.509 219.9 274.269 220.152 274.077 220.488C273.885 220.824 273.801 221.208 273.801 221.664C273.801 222.12 273.885 222.528 274.077 222.864C274.269 223.212 274.509 223.476 274.821 223.656C275.133 223.836 275.457 223.92 275.805 223.92C276.153 223.92 276.477 223.836 276.789 223.656C277.089 223.488 277.329 223.224 277.521 222.888C277.713 222.552 277.809 222.144 277.809 221.688C277.809 221.232 277.713 220.836 277.521 220.5ZM282.332 219.504V223.164C282.332 223.416 282.38 223.596 282.5 223.704C282.62 223.812 282.812 223.86 283.1 223.86H283.94V225H282.86C282.236 225 281.768 224.856 281.444 224.568C281.108 224.28 280.952 223.812 280.952 223.164V219.504H280.172V218.388H280.952V216.744H282.332V218.388H283.94V219.504H282.332ZM285.023 217.26C284.855 217.092 284.771 216.888 284.771 216.636C284.771 216.396 284.855 216.18 285.023 216.012C285.191 215.844 285.395 215.76 285.647 215.76C285.887 215.76 286.091 215.844 286.259 216.012C286.427 216.18 286.511 216.396 286.511 216.636C286.511 216.888 286.427 217.092 286.259 217.26C286.091 217.428 285.887 217.512 285.647 217.512C285.395 217.512 285.191 217.428 285.023 217.26ZM286.319 218.388V225H284.951V218.388H286.319ZM289.041 224.688C288.537 224.4 288.141 224.004 287.853 223.488C287.565 222.972 287.421 222.372 287.421 221.688C287.421 221.016 287.565 220.428 287.865 219.9C288.153 219.384 288.561 218.988 289.077 218.7C289.581 218.424 290.157 218.28 290.793 218.28C291.417 218.28 291.993 218.424 292.509 218.7C293.013 218.988 293.421 219.384 293.721 219.9C294.009 220.428 294.165 221.016 294.165 221.688C294.165 222.36 294.009 222.96 293.709 223.476C293.397 224.004 292.989 224.4 292.461 224.688C291.933 224.976 291.357 225.108 290.733 225.108C290.109 225.108 289.545 224.976 289.041 224.688ZM291.717 223.668C292.029 223.5 292.281 223.248 292.473 222.912C292.665 222.576 292.761 222.168 292.761 221.688C292.761 221.208 292.665 220.812 292.485 220.476C292.293 220.14 292.053 219.888 291.753 219.72C291.441 219.552 291.117 219.468 290.769 219.468C290.409 219.468 290.085 219.552 289.785 219.72C289.485 219.888 289.245 220.14 289.077 220.476C288.897 220.812 288.813 221.208 288.813 221.688C288.813 222.408 288.993 222.96 289.353 223.344C289.713 223.728 290.181 223.92 290.733 223.92C291.081 223.92 291.405 223.836 291.717 223.668ZM299.995 218.604C300.403 218.82 300.727 219.144 300.967 219.564C301.195 219.996 301.315 220.5 301.315 221.1V225H299.959V221.304C299.959 220.716 299.803 220.26 299.515 219.948C299.215 219.636 298.807 219.468 298.303 219.468C297.787 219.468 297.379 219.636 297.079 219.948C296.779 220.26 296.635 220.716 296.635 221.304V225H295.267V218.388H296.635V219.144C296.851 218.88 297.139 218.664 297.487 218.508C297.835 218.364 298.207 218.28 298.603 218.28C299.119 218.28 299.587 218.388 299.995 218.604ZM310.117 213.672L306.853 227.1H305.509L308.761 213.672H310.117ZM323.243 216.66V225H321.875V219.288L319.331 225H318.383L315.827 219.288V225H314.459V216.66H315.935L318.863 223.2L321.779 216.66H323.243ZM330.803 222.204H325.751C325.787 222.732 325.979 223.164 326.339 223.476C326.687 223.8 327.119 223.956 327.635 223.956C328.367 223.956 328.883 223.656 329.195 223.032H330.671C330.467 223.644 330.107 224.148 329.579 224.532C329.051 224.916 328.403 225.108 327.635 225.108C326.999 225.108 326.435 224.976 325.931 224.688C325.427 224.4 325.043 224.004 324.755 223.488C324.467 222.972 324.335 222.372 324.335 221.688C324.335 221.016 324.467 220.416 324.743 219.9C325.019 219.384 325.403 218.988 325.907 218.7C326.411 218.424 326.987 218.28 327.635 218.28C328.259 218.28 328.811 218.424 329.303 218.688C329.783 218.964 330.167 219.348 330.443 219.84C330.707 220.332 330.851 220.896 330.851 221.532C330.851 221.784 330.827 222.012 330.803 222.204ZM329.423 221.1C329.411 220.596 329.231 220.2 328.883 219.888C328.523 219.588 328.091 219.432 327.575 219.432C327.095 219.432 326.699 219.588 326.363 219.888C326.027 220.188 325.823 220.596 325.763 221.1H329.423ZM331.899 219.9C332.175 219.384 332.559 218.988 333.051 218.7C333.531 218.424 334.095 218.28 334.731 218.28C335.523 218.28 336.183 218.472 336.711 218.856C337.239 219.24 337.587 219.78 337.779 220.476H336.303C336.183 220.152 335.991 219.9 335.727 219.708C335.463 219.528 335.127 219.432 334.731 219.432C334.167 219.432 333.723 219.636 333.387 220.032C333.051 220.428 332.895 220.98 332.895 221.688C332.895 222.408 333.051 222.96 333.387 223.356C333.723 223.764 334.167 223.956 334.731 223.956C335.523 223.956 336.039 223.608 336.303 222.912H337.779C337.587 223.584 337.227 224.124 336.699 224.52C336.171 224.916 335.511 225.108 334.731 225.108C334.095 225.108 333.531 224.976 333.051 224.688C332.559 224.4 332.175 224.004 331.899 223.488C331.623 222.972 331.491 222.372 331.491 221.688C331.491 221.016 331.623 220.416 331.899 219.9ZM343.656 218.604C344.052 218.82 344.364 219.144 344.592 219.564C344.82 219.996 344.94 220.5 344.94 221.1V225H343.584V221.304C343.584 220.716 343.428 220.26 343.14 219.948C342.84 219.636 342.432 219.468 341.928 219.468C341.412 219.468 341.004 219.636 340.704 219.948C340.404 220.26 340.26 220.716 340.26 221.304V225H338.892V216.12H340.26V219.156C340.488 218.88 340.776 218.664 341.136 218.508C341.496 218.364 341.88 218.28 342.312 218.28C342.816 218.28 343.26 218.388 343.656 218.604ZM346.387 219.9C346.663 219.396 347.035 219 347.515 218.712C347.995 218.424 348.523 218.28 349.099 218.28C349.615 218.28 350.071 218.388 350.455 218.592C350.839 218.796 351.151 219.048 351.391 219.348V218.388H352.771V225H351.391V224.016C351.151 224.328 350.839 224.592 350.443 224.796C350.035 225.012 349.579 225.108 349.075 225.108C348.499 225.108 347.983 224.964 347.515 224.676C347.035 224.388 346.663 223.98 346.387 223.452C346.111 222.924 345.979 222.336 345.979 221.664C345.979 221.004 346.111 220.416 346.387 219.9ZM351.103 220.5C350.911 220.164 350.671 219.912 350.371 219.732C350.059 219.564 349.735 219.468 349.387 219.468C349.027 219.468 348.703 219.564 348.403 219.732C348.091 219.9 347.851 220.152 347.659 220.488C347.467 220.824 347.383 221.208 347.383 221.664C347.383 222.12 347.467 222.528 347.659 222.864C347.851 223.212 348.091 223.476 348.403 223.656C348.715 223.836 349.039 223.92 349.387 223.92C349.735 223.92 350.059 223.836 350.371 223.656C350.671 223.488 350.911 223.224 351.103 222.888C351.295 222.552 351.391 222.144 351.391 221.688C351.391 221.232 351.295 220.836 351.103 220.5ZM359.046 218.604C359.454 218.82 359.778 219.144 360.018 219.564C360.246 219.996 360.366 220.5 360.366 221.1V225H359.01V221.304C359.01 220.716 358.854 220.26 358.566 219.948C358.266 219.636 357.858 219.468 357.354 219.468C356.838 219.468 356.43 219.636 356.13 219.948C355.83 220.26 355.686 220.716 355.686 221.304V225H354.318V218.388H355.686V219.144C355.902 218.88 356.19 218.664 356.538 218.508C356.886 218.364 357.258 218.28 357.654 218.28C358.17 218.28 358.638 218.388 359.046 218.604ZM361.933 217.26C361.765 217.092 361.681 216.888 361.681 216.636C361.681 216.396 361.765 216.18 361.933 216.012C362.101 215.844 362.305 215.76 362.557 215.76C362.797 215.76 363.001 215.844 363.169 216.012C363.337 216.18 363.421 216.396 363.421 216.636C363.421 216.888 363.337 217.092 363.169 217.26C363.001 217.428 362.797 217.512 362.557 217.512C362.305 217.512 362.101 217.428 361.933 217.26ZM363.229 218.388V225H361.861V218.388H363.229ZM364.727 219.9C365.003 219.384 365.387 218.988 365.879 218.7C366.359 218.424 366.923 218.28 367.559 218.28C368.351 218.28 369.011 218.472 369.539 218.856C370.067 219.24 370.415 219.78 370.607 220.476H369.131C369.011 220.152 368.819 219.9 368.555 219.708C368.291 219.528 367.955 219.432 367.559 219.432C366.995 219.432 366.551 219.636 366.215 220.032C365.879 220.428 365.723 220.98 365.723 221.688C365.723 222.408 365.879 222.96 366.215 223.356C366.551 223.764 366.995 223.956 367.559 223.956C368.351 223.956 368.867 223.608 369.131 222.912H370.607C370.415 223.584 370.055 224.124 369.527 224.52C368.999 224.916 368.339 225.108 367.559 225.108C366.923 225.108 366.359 224.976 365.879 224.688C365.387 224.4 365.003 224.004 364.727 223.488C364.451 222.972 364.319 222.372 364.319 221.688C364.319 221.016 364.451 220.416 364.727 219.9ZM371.672 219.9C371.948 219.396 372.32 219 372.8 218.712C373.28 218.424 373.808 218.28 374.384 218.28C374.9 218.28 375.356 218.388 375.74 218.592C376.124 218.796 376.436 219.048 376.676 219.348V218.388H378.056V225H376.676V224.016C376.436 224.328 376.124 224.592 375.728 224.796C375.32 225.012 374.864 225.108 374.36 225.108C373.784 225.108 373.268 224.964 372.8 224.676C372.32 224.388 371.948 223.98 371.672 223.452C371.396 222.924 371.264 222.336 371.264 221.664C371.264 221.004 371.396 220.416 371.672 219.9ZM376.388 220.5C376.196 220.164 375.956 219.912 375.656 219.732C375.344 219.564 375.02 219.468 374.672 219.468C374.312 219.468 373.988 219.564 373.688 219.732C373.376 219.9 373.136 220.152 372.944 220.488C372.752 220.824 372.668 221.208 372.668 221.664C372.668 222.12 372.752 222.528 372.944 222.864C373.136 223.212 373.376 223.476 373.688 223.656C374 223.836 374.324 223.92 374.672 223.92C375.02 223.92 375.344 223.836 375.656 223.656C375.956 223.488 376.196 223.224 376.388 222.888C376.58 222.552 376.676 222.144 376.676 221.688C376.676 221.232 376.58 220.836 376.388 220.5ZM380.971 216.12V225H379.603V216.12H380.971Z" fill="#121212"/>
<circle cx="46" cy="240" r="4" fill="#B49566"/>
<path d="M60.3813 235.66V244H59.0133V235.66H60.3813ZM66.6553 237.604C67.0633 237.82 67.3873 238.144 67.6273 238.564C67.8553 238.996 67.9753 239.5 67.9753 240.1V244H66.6193V240.304C66.6193 239.716 66.4633 239.26 66.1753 238.948C65.8753 238.636 65.4673 238.468 64.9633 238.468C64.4473 238.468 64.0393 238.636 63.7393 238.948C63.4393 239.26 63.2953 239.716 63.2953 240.304V244H61.9273V237.388H63.2953V238.144C63.5113 237.88 63.7993 237.664 64.1473 237.508C64.4953 237.364 64.8673 237.28 65.2633 237.28C65.7793 237.28 66.2473 237.388 66.6553 237.604ZM70.4663 243.832C70.0583 243.64 69.7343 243.388 69.4943 243.064C69.2543 242.74 69.1223 242.38 69.1103 241.972H70.5263C70.5503 242.26 70.6823 242.488 70.9223 242.68C71.1623 242.872 71.4743 242.956 71.8463 242.956C72.2303 242.956 72.5183 242.884 72.7343 242.74C72.9503 242.596 73.0583 242.404 73.0583 242.164C73.0583 241.924 72.9383 241.732 72.6983 241.612C72.4583 241.492 72.0863 241.36 71.5823 241.216C71.0783 241.084 70.6823 240.952 70.3703 240.82C70.0583 240.7 69.7823 240.496 69.5543 240.232C69.3263 239.968 69.2183 239.62 69.2183 239.188C69.2183 238.84 69.3143 238.516 69.5303 238.228C69.7343 237.94 70.0343 237.7 70.4183 237.532C70.8023 237.364 71.2583 237.28 71.7623 237.28C72.5063 237.28 73.1183 237.472 73.5743 237.856C74.0303 238.24 74.2823 238.756 74.3183 239.404H72.9503C72.9263 239.116 72.8063 238.876 72.5903 238.696C72.3743 238.528 72.0743 238.432 71.7143 238.432C71.3543 238.432 71.0783 238.504 70.8863 238.636C70.6943 238.78 70.5983 238.96 70.5983 239.176C70.5983 239.356 70.6583 239.5 70.7903 239.62C70.9103 239.74 71.0663 239.836 71.2583 239.908C71.4383 239.98 71.7143 240.064 72.0743 240.16C72.5543 240.292 72.9383 240.424 73.2503 240.556C73.5623 240.688 73.8263 240.88 74.0543 241.132C74.2703 241.396 74.3903 241.732 74.4023 242.152C74.4023 242.536 74.2943 242.872 74.0903 243.16C73.8743 243.46 73.5863 243.688 73.2023 243.856C72.8183 244.024 72.3743 244.108 71.8703 244.108C71.3423 244.108 70.8743 244.024 70.4663 243.832ZM77.2265 238.504V242.164C77.2265 242.416 77.2745 242.596 77.3945 242.704C77.5145 242.812 77.7065 242.86 77.9945 242.86H78.8345V244H77.7545C77.1305 244 76.6625 243.856 76.3385 243.568C76.0025 243.28 75.8465 242.812 75.8465 242.164V238.504H75.0665V237.388H75.8465V235.744H77.2265V237.388H78.8345V238.504H77.2265ZM82.0053 237.568C82.3413 237.376 82.7373 237.28 83.1933 237.28V238.696H82.8453C82.3053 238.696 81.8973 238.84 81.6213 239.104C81.3453 239.38 81.2133 239.848 81.2133 240.52V244H79.8453V237.388H81.2133V238.348C81.4053 238.012 81.6693 237.76 82.0053 237.568ZM84.1288 243.832C83.9608 243.664 83.8768 243.46 83.8768 243.208C83.8768 242.968 83.9608 242.752 84.1288 242.584C84.2968 242.416 84.5008 242.332 84.7528 242.332C84.9928 242.332 85.1968 242.416 85.3648 242.584C85.5328 242.752 85.6168 242.968 85.6168 243.208C85.6168 243.46 85.5328 243.664 85.3648 243.832C85.1968 244 84.9928 244.084 84.7528 244.084C84.5008 244.084 84.2968 244 84.1288 243.832ZM91.7533 235.66V236.776H88.2133V239.236H90.9733V240.352H88.2133V244H86.8453V235.66H91.7533ZM92.7231 238.9C92.9991 238.396 93.3711 238 93.8511 237.712C94.3311 237.424 94.8591 237.28 95.4351 237.28C95.9511 237.28 96.4071 237.388 96.7911 237.592C97.1751 237.796 97.4871 238.048 97.7271 238.348V237.388H99.1071V244H97.7271V243.016C97.4871 243.328 97.1751 243.592 96.7791 243.796C96.3711 244.012 95.9151 244.108 95.4111 244.108C94.8351 244.108 94.3191 243.964 93.8511 243.676C93.3711 243.388 92.9991 242.98 92.7231 242.452C92.4471 241.924 92.3151 241.336 92.3151 240.664C92.3151 240.004 92.4471 239.416 92.7231 238.9ZM97.4391 239.5C97.2471 239.164 97.0071 238.912 96.7071 238.732C96.3951 238.564 96.0711 238.468 95.7231 238.468C95.3631 238.468 95.0391 238.564 94.7391 238.732C94.4271 238.9 94.1871 239.152 93.9951 239.488C93.8031 239.824 93.7191 240.208 93.7191 240.664C93.7191 241.12 93.8031 241.528 93.9951 241.864C94.1871 242.212 94.4271 242.476 94.7391 242.656C95.0511 242.836 95.3751 242.92 95.7231 242.92C96.0711 242.92 96.3951 242.836 96.7071 242.656C97.0071 242.488 97.2471 242.224 97.4391 241.888C97.6311 241.552 97.7271 241.144 97.7271 240.688C97.7271 240.232 97.6311 239.836 97.4391 239.5ZM100.726 236.26C100.558 236.092 100.474 235.888 100.474 235.636C100.474 235.396 100.558 235.18 100.726 235.012C100.894 234.844 101.098 234.76 101.35 234.76C101.59 234.76 101.794 234.844 101.962 235.012C102.13 235.18 102.214 235.396 102.214 235.636C102.214 235.888 102.13 236.092 101.962 236.26C101.794 236.428 101.59 236.512 101.35 236.512C101.098 236.512 100.894 236.428 100.726 236.26ZM102.022 237.388V244H100.654V237.388H102.022ZM104.936 235.12V244H103.568V235.12H104.936ZM112.47 237.388V244H111.102V243.22C110.886 243.496 110.598 243.712 110.25 243.868C109.902 244.024 109.53 244.096 109.146 244.096C108.618 244.096 108.15 243.988 107.742 243.772C107.334 243.556 107.01 243.244 106.77 242.812C106.53 242.392 106.422 241.876 106.422 241.276V237.388H107.778V241.072C107.778 241.672 107.922 242.128 108.222 242.44C108.51 242.752 108.918 242.908 109.434 242.908C109.938 242.908 110.346 242.752 110.646 242.44C110.946 242.128 111.102 241.672 111.102 241.072V237.388H112.47ZM116.185 237.568C116.521 237.376 116.917 237.28 117.373 237.28V238.696H117.025C116.485 238.696 116.077 238.84 115.801 239.104C115.525 239.38 115.393 239.848 115.393 240.52V244H114.025V237.388H115.393V238.348C115.585 238.012 115.849 237.76 116.185 237.568ZM124.392 241.204H119.34C119.376 241.732 119.568 242.164 119.928 242.476C120.276 242.8 120.708 242.956 121.224 242.956C121.956 242.956 122.472 242.656 122.784 242.032H124.26C124.056 242.644 123.696 243.148 123.168 243.532C122.64 243.916 121.992 244.108 121.224 244.108C120.588 244.108 120.024 243.976 119.52 243.688C119.016 243.4 118.632 243.004 118.344 242.488C118.056 241.972 117.924 241.372 117.924 240.688C117.924 240.016 118.056 239.416 118.332 238.9C118.608 238.384 118.992 237.988 119.496 237.7C120 237.424 120.576 237.28 121.224 237.28C121.848 237.28 122.4 237.424 122.892 237.688C123.372 237.964 123.756 238.348 124.032 238.84C124.296 239.332 124.44 239.896 124.44 240.532C124.44 240.784 124.416 241.012 124.392 241.204ZM123.012 240.1C123 239.596 122.82 239.2 122.472 238.888C122.112 238.588 121.68 238.432 121.164 238.432C120.684 238.432 120.288 238.588 119.952 238.888C119.616 239.188 119.412 239.596 119.352 240.1H123.012Z" fill="#121212"/>
<circle cx="161" cy="240" r="4" fill="#DD887C"/>
<path d="M175.303 242.896H178.123V244H173.935V235.66H175.303V242.896ZM185.005 237.388V244H183.637V243.22C183.421 243.496 183.133 243.712 182.785 243.868C182.437 244.024 182.065 244.096 181.681 244.096C181.153 244.096 180.685 243.988 180.277 243.772C179.869 243.556 179.545 243.244 179.305 242.812C179.065 242.392 178.957 241.876 178.957 241.276V237.388H180.313V241.072C180.313 241.672 180.457 242.128 180.757 242.44C181.045 242.752 181.453 242.908 181.969 242.908C182.473 242.908 182.881 242.752 183.181 242.44C183.481 242.128 183.637 241.672 183.637 241.072V237.388H185.005ZM188.876 237.592C189.284 237.388 189.728 237.28 190.232 237.28C190.808 237.28 191.336 237.424 191.816 237.7C192.284 237.988 192.656 238.384 192.932 238.9C193.196 239.416 193.34 240.004 193.34 240.664C193.34 241.336 193.196 241.924 192.932 242.452C192.656 242.98 192.284 243.388 191.804 243.676C191.324 243.964 190.808 244.108 190.232 244.108C189.716 244.108 189.26 244.012 188.864 243.808C188.468 243.616 188.156 243.352 187.928 243.04V244H186.56V235.12H187.928V238.372C188.156 238.06 188.468 237.796 188.876 237.592ZM191.66 239.488C191.468 239.152 191.228 238.9 190.916 238.732C190.604 238.564 190.28 238.468 189.932 238.468C189.584 238.468 189.26 238.564 188.948 238.732C188.636 238.912 188.396 239.164 188.204 239.5C188.012 239.836 187.928 240.232 187.928 240.688C187.928 241.144 188.012 241.552 188.204 241.888C188.396 242.224 188.636 242.488 188.948 242.656C189.26 242.836 189.584 242.92 189.932 242.92C190.28 242.92 190.604 242.836 190.916 242.656C191.228 242.476 191.468 242.212 191.66 241.864C191.852 241.528 191.948 241.12 191.948 240.664C191.948 240.208 191.852 239.824 191.66 239.488ZM196.603 237.568C196.939 237.376 197.335 237.28 197.791 237.28V238.696H197.443C196.903 238.696 196.495 238.84 196.219 239.104C195.943 239.38 195.811 239.848 195.811 240.52V244H194.443V237.388H195.811V238.348C196.003 238.012 196.267 237.76 196.603 237.568ZM198.87 236.26C198.702 236.092 198.618 235.888 198.618 235.636C198.618 235.396 198.702 235.18 198.87 235.012C199.038 234.844 199.242 234.76 199.494 234.76C199.734 234.76 199.938 234.844 200.106 235.012C200.274 235.18 200.358 235.396 200.358 235.636C200.358 235.888 200.274 236.092 200.106 236.26C199.938 236.428 199.734 236.512 199.494 236.512C199.242 236.512 199.038 236.428 198.87 236.26ZM200.166 237.388V244H198.798V237.388H200.166ZM201.665 238.9C201.941 238.384 202.325 237.988 202.817 237.7C203.297 237.424 203.861 237.28 204.497 237.28C205.289 237.28 205.949 237.472 206.477 237.856C207.005 238.24 207.353 238.78 207.545 239.476H206.069C205.949 239.152 205.757 238.9 205.493 238.708C205.229 238.528 204.893 238.432 204.497 238.432C203.933 238.432 203.489 238.636 203.153 239.032C202.817 239.428 202.661 239.98 202.661 240.688C202.661 241.408 202.817 241.96 203.153 242.356C203.489 242.764 203.933 242.956 204.497 242.956C205.289 242.956 205.805 242.608 206.069 241.912H207.545C207.353 242.584 206.993 243.124 206.465 243.52C205.937 243.916 205.277 244.108 204.497 244.108C203.861 244.108 203.297 243.976 202.817 243.688C202.325 243.4 201.941 243.004 201.665 242.488C201.389 241.972 201.257 241.372 201.257 240.688C201.257 240.016 201.389 239.416 201.665 238.9ZM208.61 238.9C208.886 238.396 209.258 238 209.738 237.712C210.218 237.424 210.746 237.28 211.322 237.28C211.838 237.28 212.294 237.388 212.678 237.592C213.062 237.796 213.374 238.048 213.614 238.348V237.388H214.994V244H213.614V243.016C213.374 243.328 213.062 243.592 212.666 243.796C212.258 244.012 211.802 244.108 211.298 244.108C210.722 244.108 210.206 243.964 209.738 243.676C209.258 243.388 208.886 242.98 208.61 242.452C208.334 241.924 208.202 241.336 208.202 240.664C208.202 240.004 208.334 239.416 208.61 238.9ZM213.326 239.5C213.134 239.164 212.894 238.912 212.594 238.732C212.282 238.564 211.958 238.468 211.61 238.468C211.25 238.468 210.926 238.564 210.626 238.732C210.314 238.9 210.074 239.152 209.882 239.488C209.69 239.824 209.606 240.208 209.606 240.664C209.606 241.12 209.69 241.528 209.882 241.864C210.074 242.212 210.314 242.476 210.626 242.656C210.938 242.836 211.262 242.92 211.61 242.92C211.958 242.92 212.282 242.836 212.594 242.656C212.894 242.488 213.134 242.224 213.326 241.888C213.518 241.552 213.614 241.144 213.614 240.688C213.614 240.232 213.518 239.836 213.326 239.5ZM218.137 238.504V242.164C218.137 242.416 218.185 242.596 218.305 242.704C218.425 242.812 218.617 242.86 218.905 242.86H219.745V244H218.665C218.041 244 217.573 243.856 217.249 243.568C216.913 243.28 216.757 242.812 216.757 242.164V238.504H215.977V237.388H216.757V235.744H218.137V237.388H219.745V238.504H218.137ZM220.827 236.26C220.659 236.092 220.575 235.888 220.575 235.636C220.575 235.396 220.659 235.18 220.827 235.012C220.995 234.844 221.199 234.76 221.451 234.76C221.691 234.76 221.895 234.844 222.063 235.012C222.231 235.18 222.315 235.396 222.315 235.636C222.315 235.888 222.231 236.092 222.063 236.26C221.895 236.428 221.691 236.512 221.451 236.512C221.199 236.512 220.995 236.428 220.827 236.26ZM222.123 237.388V244H220.755V237.388H222.123ZM224.846 243.688C224.342 243.4 223.946 243.004 223.658 242.488C223.37 241.972 223.226 241.372 223.226 240.688C223.226 240.016 223.37 239.428 223.67 238.9C223.958 238.384 224.366 237.988 224.882 237.7C225.386 237.424 225.962 237.28 226.598 237.28C227.222 237.28 227.798 237.424 228.314 237.7C228.818 237.988 229.226 238.384 229.526 238.9C229.814 239.428 229.97 240.016 229.97 240.688C229.97 241.36 229.814 241.96 229.514 242.476C229.202 243.004 228.794 243.4 228.266 243.688C227.738 243.976 227.162 244.108 226.538 244.108C225.914 244.108 225.35 243.976 224.846 243.688ZM227.522 242.668C227.834 242.5 228.086 242.248 228.278 241.912C228.47 241.576 228.566 241.168 228.566 240.688C228.566 240.208 228.47 239.812 228.29 239.476C228.098 239.14 227.858 238.888 227.558 238.72C227.246 238.552 226.922 238.468 226.574 238.468C226.214 238.468 225.89 238.552 225.59 238.72C225.29 238.888 225.05 239.14 224.882 239.476C224.702 239.812 224.618 240.208 224.618 240.688C224.618 241.408 224.798 241.96 225.158 242.344C225.518 242.728 225.986 242.92 226.538 242.92C226.886 242.92 227.21 242.836 227.522 242.668ZM235.8 237.604C236.208 237.82 236.532 238.144 236.772 238.564C237 238.996 237.12 239.5 237.12 240.1V244H235.764V240.304C235.764 239.716 235.608 239.26 235.32 238.948C235.02 238.636 234.612 238.468 234.108 238.468C233.592 238.468 233.184 238.636 232.884 238.948C232.584 239.26 232.44 239.716 232.44 240.304V244H231.072V237.388H232.44V238.144C232.656 237.88 232.944 237.664 233.292 237.508C233.64 237.364 234.012 237.28 234.408 237.28C234.924 237.28 235.392 237.388 235.8 237.604Z" fill="#121212"/>
<circle cx="274" cy="240" r="4" fill="#E6B056"/>
<path d="M288.747 243.544C288.099 243.184 287.583 242.668 287.199 242.02C286.815 241.372 286.635 240.628 286.635 239.812C286.635 238.996 286.815 238.264 287.199 237.616C287.583 236.968 288.099 236.464 288.747 236.104C289.395 235.744 290.115 235.552 290.895 235.552C291.675 235.552 292.395 235.744 293.043 236.104C293.691 236.464 294.207 236.968 294.591 237.616C294.963 238.264 295.155 238.996 295.155 239.812C295.155 240.628 294.963 241.372 294.591 242.02C294.207 242.668 293.691 243.184 293.043 243.544C292.395 243.904 291.675 244.084 290.895 244.084C290.115 244.084 289.395 243.904 288.747 243.544ZM292.371 242.524C292.803 242.272 293.139 241.912 293.379 241.444C293.619 240.976 293.751 240.436 293.751 239.812C293.751 239.2 293.619 238.66 293.379 238.192C293.139 237.736 292.803 237.376 292.371 237.124C291.939 236.884 291.447 236.752 290.895 236.752C290.343 236.752 289.851 236.884 289.419 237.124C288.987 237.376 288.639 237.736 288.399 238.192C288.159 238.66 288.039 239.2 288.039 239.812C288.039 240.436 288.159 240.976 288.399 241.444C288.639 241.912 288.987 242.272 289.419 242.524C289.851 242.776 290.343 242.896 290.895 242.896C291.447 242.896 291.939 242.776 292.371 242.524ZM297.848 238.504V242.164C297.848 242.416 297.896 242.596 298.016 242.704C298.136 242.812 298.328 242.86 298.616 242.86H299.456V244H298.376C297.752 244 297.284 243.856 296.96 243.568C296.624 243.28 296.468 242.812 296.468 242.164V238.504H295.688V237.388H296.468V235.744H297.848V237.388H299.456V238.504H297.848ZM305.23 237.604C305.626 237.82 305.938 238.144 306.166 238.564C306.394 238.996 306.514 239.5 306.514 240.1V244H305.158V240.304C305.158 239.716 305.002 239.26 304.714 238.948C304.414 238.636 304.006 238.468 303.502 238.468C302.986 238.468 302.578 238.636 302.278 238.948C301.978 239.26 301.834 239.716 301.834 240.304V244H300.466V235.12H301.834V238.156C302.062 237.88 302.35 237.664 302.71 237.508C303.07 237.364 303.454 237.28 303.886 237.28C304.39 237.28 304.834 237.388 305.23 237.604ZM314.021 241.204H308.969C309.005 241.732 309.197 242.164 309.557 242.476C309.905 242.8 310.337 242.956 310.853 242.956C311.585 242.956 312.101 242.656 312.413 242.032H313.889C313.685 242.644 313.325 243.148 312.797 243.532C312.269 243.916 311.621 244.108 310.853 244.108C310.217 244.108 309.653 243.976 309.149 243.688C308.645 243.4 308.261 243.004 307.973 242.488C307.685 241.972 307.553 241.372 307.553 240.688C307.553 240.016 307.685 239.416 307.961 238.9C308.237 238.384 308.621 237.988 309.125 237.7C309.629 237.424 310.205 237.28 310.853 237.28C311.477 237.28 312.029 237.424 312.521 237.688C313.001 237.964 313.385 238.348 313.661 238.84C313.925 239.332 314.069 239.896 314.069 240.532C314.069 240.784 314.045 241.012 314.021 241.204ZM312.641 240.1C312.629 239.596 312.449 239.2 312.101 238.888C311.741 238.588 311.309 238.432 310.793 238.432C310.313 238.432 309.917 238.588 309.581 238.888C309.245 239.188 309.041 239.596 308.981 240.1H312.641ZM317.326 237.568C317.662 237.376 318.058 237.28 318.514 237.28V238.696H318.166C317.626 238.696 317.218 238.84 316.942 239.104C316.666 239.38 316.534 239.848 316.534 240.52V244H315.166V237.388H316.534V238.348C316.726 238.012 316.99 237.76 317.326 237.568ZM322.34 238.9C322.616 238.384 323 237.988 323.492 237.7C323.972 237.424 324.536 237.28 325.172 237.28C325.964 237.28 326.624 237.472 327.152 237.856C327.68 238.24 328.028 238.78 328.22 239.476H326.744C326.624 239.152 326.432 238.9 326.168 238.708C325.904 238.528 325.568 238.432 325.172 238.432C324.608 238.432 324.164 238.636 323.828 239.032C323.492 239.428 323.336 239.98 323.336 240.688C323.336 241.408 323.492 241.96 323.828 242.356C324.164 242.764 324.608 242.956 325.172 242.956C325.964 242.956 326.48 242.608 326.744 241.912H328.22C328.028 242.584 327.668 243.124 327.14 243.52C326.612 243.916 325.952 244.108 325.172 244.108C324.536 244.108 323.972 243.976 323.492 243.688C323 243.4 322.616 243.004 322.34 242.488C322.064 241.972 321.932 241.372 321.932 240.688C321.932 240.016 322.064 239.416 322.34 238.9ZM329.286 238.9C329.562 238.396 329.934 238 330.414 237.712C330.894 237.424 331.422 237.28 331.998 237.28C332.514 237.28 332.97 237.388 333.354 237.592C333.738 237.796 334.05 238.048 334.29 238.348V237.388H335.67V244H334.29V243.016C334.05 243.328 333.738 243.592 333.342 243.796C332.934 244.012 332.478 244.108 331.974 244.108C331.398 244.108 330.882 243.964 330.414 243.676C329.934 243.388 329.562 242.98 329.286 242.452C329.01 241.924 328.878 241.336 328.878 240.664C328.878 240.004 329.01 239.416 329.286 238.9ZM334.002 239.5C333.81 239.164 333.57 238.912 333.27 238.732C332.958 238.564 332.634 238.468 332.286 238.468C331.926 238.468 331.602 238.564 331.302 238.732C330.99 238.9 330.75 239.152 330.558 239.488C330.366 239.824 330.282 240.208 330.282 240.664C330.282 241.12 330.366 241.528 330.558 241.864C330.75 242.212 330.99 242.476 331.302 242.656C331.614 242.836 331.938 242.92 332.286 242.92C332.634 242.92 332.958 242.836 333.27 242.656C333.57 242.488 333.81 242.224 334.002 241.888C334.194 241.552 334.29 241.144 334.29 240.688C334.29 240.232 334.194 239.836 334.002 239.5ZM338.812 238.504V242.164C338.812 242.416 338.86 242.596 338.98 242.704C339.1 242.812 339.292 242.86 339.58 242.86H340.42V244H339.34C338.716 244 338.248 243.856 337.924 243.568C337.588 243.28 337.432 242.812 337.432 242.164V238.504H336.652V237.388H337.432V235.744H338.812V237.388H340.42V238.504H338.812ZM347.443 241.204H342.391C342.427 241.732 342.619 242.164 342.979 242.476C343.327 242.8 343.759 242.956 344.275 242.956C345.007 242.956 345.523 242.656 345.835 242.032H347.311C347.107 242.644 346.747 243.148 346.219 243.532C345.691 243.916 345.043 244.108 344.275 244.108C343.639 244.108 343.075 243.976 342.571 243.688C342.067 243.4 341.683 243.004 341.395 242.488C341.107 241.972 340.975 241.372 340.975 240.688C340.975 240.016 341.107 239.416 341.383 238.9C341.659 238.384 342.043 237.988 342.547 237.7C343.051 237.424 343.627 237.28 344.275 237.28C344.899 237.28 345.451 237.424 345.943 237.688C346.423 237.964 346.807 238.348 347.083 238.84C347.347 239.332 347.491 239.896 347.491 240.532C347.491 240.784 347.467 241.012 347.443 241.204ZM346.063 240.1C346.051 239.596 345.871 239.2 345.523 238.888C345.163 238.588 344.731 238.432 344.215 238.432C343.735 238.432 343.339 238.588 343.003 238.888C342.667 239.188 342.463 239.596 342.403 240.1H346.063ZM352.608 237.592C353.004 237.796 353.316 238.048 353.544 238.348V237.388H354.924V244.108C354.924 244.72 354.792 245.26 354.54 245.74C354.276 246.22 353.904 246.592 353.424 246.856C352.944 247.132 352.368 247.264 351.696 247.264C350.796 247.264 350.052 247.06 349.464 246.64C348.864 246.22 348.528 245.644 348.456 244.924H349.812C349.908 245.272 350.136 245.548 350.472 245.764C350.808 245.98 351.215 246.076 351.696 246.076C352.248 246.076 352.692 245.908 353.028 245.572C353.364 245.236 353.544 244.756 353.544 244.108V243.004C353.304 243.316 352.992 243.58 352.596 243.796C352.2 244.012 351.756 244.108 351.252 244.108C350.676 244.108 350.148 243.964 349.668 243.676C349.188 243.388 348.816 242.98 348.54 242.452C348.264 241.924 348.132 241.336 348.132 240.664C348.132 240.004 348.264 239.416 348.54 238.9C348.816 238.396 349.188 238 349.668 237.712C350.148 237.424 350.676 237.28 351.252 237.28C351.756 237.28 352.212 237.388 352.608 237.592ZM353.256 239.5C353.064 239.164 352.824 238.912 352.524 238.732C352.212 238.564 351.888 238.468 351.54 238.468C351.18 238.468 350.855 238.564 350.556 238.732C350.244 238.9 350.004 239.152 349.812 239.488C349.62 239.824 349.536 240.208 349.536 240.664C349.536 241.12 349.62 241.528 349.812 241.864C350.004 242.212 350.244 242.476 350.556 242.656C350.868 242.836 351.192 242.92 351.54 242.92C351.888 242.92 352.212 242.836 352.524 242.656C352.824 242.488 353.064 242.224 353.256 241.888C353.448 241.552 353.544 241.144 353.544 240.688C353.544 240.232 353.448 239.836 353.256 239.5ZM357.646 243.688C357.142 243.4 356.746 243.004 356.458 242.488C356.17 241.972 356.026 241.372 356.026 240.688C356.026 240.016 356.17 239.428 356.47 238.9C356.758 238.384 357.166 237.988 357.682 237.7C358.186 237.424 358.762 237.28 359.398 237.28C360.022 237.28 360.598 237.424 361.114 237.7C361.618 237.988 362.026 238.384 362.326 238.9C362.614 239.428 362.77 240.016 362.77 240.688C362.77 241.36 362.614 241.96 362.314 242.476C362.002 243.004 361.594 243.4 361.066 243.688C360.538 243.976 359.962 244.108 359.338 244.108C358.714 244.108 358.15 243.976 357.646 243.688ZM360.322 242.668C360.634 242.5 360.886 242.248 361.078 241.912C361.27 241.576 361.366 241.168 361.366 240.688C361.366 240.208 361.27 239.812 361.09 239.476C360.898 239.14 360.658 238.888 360.358 238.72C360.046 238.552 359.722 238.468 359.374 238.468C359.014 238.468 358.69 238.552 358.39 238.72C358.09 238.888 357.85 239.14 357.682 239.476C357.502 239.812 357.418 240.208 357.418 240.688C357.418 241.408 357.598 241.96 357.958 242.344C358.318 242.728 358.786 242.92 359.338 242.92C359.686 242.92 360.01 242.836 360.322 242.668ZM366.033 237.568C366.369 237.376 366.765 237.28 367.221 237.28V238.696H366.873C366.333 238.696 365.925 238.84 365.649 239.104C365.373 239.38 365.241 239.848 365.241 240.52V244H363.873V237.388H365.241V238.348C365.433 238.012 365.697 237.76 366.033 237.568ZM368.3 236.26C368.132 236.092 368.048 235.888 368.048 235.636C368.048 235.396 368.132 235.18 368.3 235.012C368.468 234.844 368.672 234.76 368.924 234.76C369.164 234.76 369.368 234.844 369.536 235.012C369.704 235.18 369.788 235.396 369.788 235.636C369.788 235.888 369.704 236.092 369.536 236.26C369.368 236.428 369.164 236.512 368.924 236.512C368.672 236.512 368.468 236.428 368.3 236.26ZM369.596 237.388V244H368.228V237.388H369.596ZM377.154 241.204H372.102C372.138 241.732 372.33 242.164 372.69 242.476C373.038 242.8 373.47 242.956 373.986 242.956C374.718 242.956 375.234 242.656 375.546 242.032H377.022C376.818 242.644 376.458 243.148 375.93 243.532C375.402 243.916 374.754 244.108 373.986 244.108C373.35 244.108 372.786 243.976 372.282 243.688C371.778 243.4 371.394 243.004 371.106 242.488C370.818 241.972 370.686 241.372 370.686 240.688C370.686 240.016 370.818 239.416 371.094 238.9C371.37 238.384 371.754 237.988 372.258 237.7C372.762 237.424 373.338 237.28 373.986 237.28C374.61 237.28 375.162 237.424 375.654 237.688C376.134 237.964 376.518 238.348 376.794 238.84C377.058 239.332 377.202 239.896 377.202 240.532C377.202 240.784 377.178 241.012 377.154 241.204ZM375.774 240.1C375.762 239.596 375.582 239.2 375.234 238.888C374.874 238.588 374.442 238.432 373.926 238.432C373.446 238.432 373.05 238.588 372.714 238.888C372.378 239.188 372.174 239.596 372.114 240.1H375.774ZM379.294 243.832C378.886 243.64 378.562 243.388 378.322 243.064C378.082 242.74 377.95 242.38 377.938 241.972H379.354C379.378 242.26 379.51 242.488 379.75 242.68C379.99 242.872 380.302 242.956 380.674 242.956C381.058 242.956 381.346 242.884 381.562 242.74C381.778 242.596 381.886 242.404 381.886 242.164C381.886 241.924 381.766 241.732 381.526 241.612C381.286 241.492 380.914 241.36 380.41 241.216C379.906 241.084 379.51 240.952 379.198 240.82C378.886 240.7 378.61 240.496 378.382 240.232C378.154 239.968 378.046 239.62 378.046 239.188C378.046 238.84 378.142 238.516 378.358 238.228C378.562 237.94 378.862 237.7 379.246 237.532C379.63 237.364 380.086 237.28 380.59 237.28C381.334 237.28 381.946 237.472 382.402 237.856C382.858 238.24 383.11 238.756 383.146 239.404H381.778C381.754 239.116 381.634 238.876 381.418 238.696C381.202 238.528 380.902 238.432 380.542 238.432C380.182 238.432 379.906 238.504 379.714 238.636C379.522 238.78 379.426 238.96 379.426 239.176C379.426 239.356 379.486 239.5 379.618 239.62C379.738 239.74 379.894 239.836 380.086 239.908C380.266 239.98 380.542 240.064 380.902 240.16C381.382 240.292 381.766 240.424 382.078 240.556C382.39 240.688 382.654 240.88 382.882 241.132C383.098 241.396 383.218 241.732 383.23 242.152C383.23 242.536 383.122 242.872 382.918 243.16C382.702 243.46 382.414 243.688 382.03 243.856C381.646 244.024 381.202 244.108 380.698 244.108C380.17 244.108 379.702 244.024 379.294 243.832Z" fill="#121212"/>
<path d="M351.914 155.213C351.518 144.161 349.75 133.197 346.65 122.566L213.5 160L351.914 155.213Z" fill="#E6B056"/>
<path d="M349.973 135.815C347.865 123.851 344.134 112.218 338.882 101.226L213.5 159L349.973 135.815Z" fill="#DD887C"/>
<path d="M341.303 106.59C329.787 79.5138 309.662 56.8208 283.933 41.8988L213.5 159L341.303 106.59Z" fill="#B49566"/>
<path d="M296.161 49.3667C274.317 32.7995 247.93 23.019 220.386 21.2802L211.5 157L296.161 49.3667Z" fill="#AF74B9"/>
<path d="M222.465 21.4269C193.906 19.1996 165.346 25.7239 140.72 40.1009L211.5 157L222.465 21.4269Z" fill="#4CA2A8"/>
<path d="M144.813 38.3479C123.318 50.1714 105.424 67.4111 92.9764 88.2891C80.5289 109.167 73.9782 132.928 74.0001 157.12L212.5 157L144.813 38.3479Z" fill="#666EB4"/>
<ellipse opacity="0.1" cx="54" cy="53.5" rx="54" ry="53.5" transform="matrix(-1 0 0 1 267 97)" fill="#121212" fill-opacity="0.8"/>
<circle cx="45.5" cy="45.5" r="45.5" transform="matrix(-1 0 0 1 259 105)" fill="white"/>
<ellipse opacity="0.4" cx="38" cy="38.5" rx="38" ry="38.5" transform="matrix(-1 0 0 1 251 113)" fill="#EBEFEE"/>
<path d="M201.509 144.6V141.504H207.293V159H203.837V144.6H201.509ZM210.112 150.024C210.112 147.256 210.608 145.088 211.6 143.52C212.608 141.952 214.272 141.168 216.592 141.168C218.912 141.168 220.568 141.952 221.56 143.52C222.568 145.088 223.072 147.256 223.072 150.024C223.072 152.808 222.568 154.992 221.56 156.576C220.568 158.16 218.912 158.952 216.592 158.952C214.272 158.952 212.608 158.16 211.6 156.576C210.608 154.992 210.112 152.808 210.112 150.024ZM219.76 150.024C219.76 148.84 219.68 147.848 219.52 147.048C219.376 146.232 219.072 145.568 218.608 145.056C218.16 144.544 217.488 144.288 216.592 144.288C215.696 144.288 215.016 144.544 214.552 145.056C214.104 145.568 213.8 146.232 213.64 147.048C213.496 147.848 213.424 148.84 213.424 150.024C213.424 151.24 213.496 152.264 213.64 153.096C213.784 153.912 214.088 154.576 214.552 155.088C215.016 155.584 215.696 155.832 216.592 155.832C217.488 155.832 218.168 155.584 218.632 155.088C219.096 154.576 219.4 153.912 219.544 153.096C219.688 152.264 219.76 151.24 219.76 150.024Z" fill="#121212"/>
</svg>
