<svg width="425" height="265" viewBox="0 0 425 265" fill="none" xmlns="http://www.w3.org/2000/svg">
<rect width="425" height="265" fill="#F5F5F5"/>
<rect x="-14157" y="-6411" width="23840" height="13376" fill="#F8FAF9"/>
<g clip-path="url(#clip0_0_1)">
<rect width="425" height="265" rx="4" fill="white"/>
<path d="M28.9805 106H27.8965V98.3828H25.2188V97.4336H31.6406V98.3828H28.9805V106ZM36.498 98.2598C35.5762 98.2598 34.8516 98.5684 34.3242 99.1855C33.7969 99.8027 33.5332 100.646 33.5332 101.717C33.5332 102.822 33.7891 103.676 34.3008 104.277C34.8125 104.875 35.541 105.174 36.4863 105.174C37.0957 105.174 37.7812 105.061 38.543 104.834V105.771C38.1797 105.904 37.8301 105.994 37.4941 106.041C37.1582 106.092 36.7715 106.117 36.334 106.117C35.0723 106.117 34.0996 105.734 33.416 104.969C32.7363 104.199 32.3965 103.111 32.3965 101.705C32.3965 100.822 32.5586 100.049 32.8828 99.3848C33.2109 98.7207 33.6855 98.209 34.3066 97.8496C34.9316 97.4902 35.666 97.3105 36.5098 97.3105C37.416 97.3105 38.2051 97.4785 38.877 97.8145L38.4434 98.7285C37.7598 98.416 37.1113 98.2598 36.498 98.2598ZM39.832 102.93V101.945H42.7383V102.93H39.832ZM49.8633 106L48.832 103.346H45.4336L44.4141 106H43.3242L46.6699 97.3984H47.6426L50.9824 106H49.8633ZM48.5098 102.391L47.5488 99.7949L47.1387 98.5117C47.0215 98.9805 46.8984 99.4082 46.7695 99.7949L45.7969 102.391H48.5098Z" fill="#595959"/>
<path d="M28.8516 146H27.7676V138.383H25.0898V137.434H31.5117V138.383H28.8516V146ZM36.3691 138.26C35.4473 138.26 34.7227 138.568 34.1953 139.186C33.668 139.803 33.4043 140.646 33.4043 141.717C33.4043 142.822 33.6602 143.676 34.1719 144.277C34.6836 144.875 35.4121 145.174 36.3574 145.174C36.9668 145.174 37.6523 145.061 38.4141 144.834V145.771C38.0508 145.904 37.7012 145.994 37.3652 146.041C37.0293 146.092 36.6426 146.117 36.2051 146.117C34.9434 146.117 33.9707 145.734 33.2871 144.969C32.6074 144.199 32.2676 143.111 32.2676 141.705C32.2676 140.822 32.4297 140.049 32.7539 139.385C33.082 138.721 33.5566 138.209 34.1777 137.85C34.8027 137.49 35.5371 137.311 36.3809 137.311C37.2871 137.311 38.0762 137.479 38.748 137.814L38.3145 138.729C37.6309 138.416 36.9824 138.26 36.3691 138.26ZM39.7031 142.93V141.945H42.6094V142.93H39.7031ZM44.3613 137.434H46.8047C47.9531 137.434 48.7812 137.605 49.2891 137.949C49.8008 138.289 50.0566 138.824 50.0566 139.555C50.0566 140.062 49.918 140.482 49.6406 140.814C49.3633 141.143 48.959 141.355 48.4277 141.453V141.512C49.0879 141.625 49.5723 141.854 49.8809 142.197C50.1934 142.541 50.3496 142.996 50.3496 143.562C50.3496 144.328 50.0879 144.926 49.5645 145.355C49.041 145.785 48.3105 146 47.373 146H44.3613V137.434ZM45.4395 141.078H47.0215C47.6934 141.078 48.1816 140.971 48.4863 140.756C48.791 140.541 48.9434 140.182 48.9434 139.678C48.9434 139.209 48.7754 138.871 48.4395 138.664C48.1074 138.457 47.5801 138.354 46.8574 138.354H45.4395V141.078ZM45.4395 141.98V145.086H47.168C47.8555 145.086 48.3652 144.953 48.6973 144.688C49.0293 144.422 49.1953 144.02 49.1953 143.48C49.1953 142.969 49.0195 142.592 48.668 142.35C48.3164 142.104 47.7891 141.98 47.0859 141.98H45.4395Z" fill="#595959"/>
<rect x="70" y="77" width="1" height="145" fill="#CED7D4"/>
<path d="M79.4375 227.705C79.4375 228.396 79.3867 229.016 79.2852 229.562C79.1875 230.109 79.0273 230.572 78.8047 230.951C78.5859 231.33 78.3027 231.619 77.9551 231.818C77.6074 232.018 77.1855 232.117 76.6895 232.117C76.2285 232.117 75.8262 232.018 75.4824 231.818C75.1426 231.619 74.8594 231.33 74.6328 230.951C74.4102 230.572 74.2422 230.109 74.1289 229.562C74.0195 229.016 73.9648 228.396 73.9648 227.705C73.9648 227.014 74.0137 226.395 74.1113 225.848C74.2129 225.301 74.3711 224.84 74.5859 224.465C74.8047 224.086 75.0859 223.797 75.4297 223.598C75.7773 223.398 76.1973 223.299 76.6895 223.299C77.1543 223.299 77.5586 223.398 77.9023 223.598C78.2461 223.793 78.5312 224.08 78.7578 224.459C78.9844 224.834 79.1543 225.295 79.2676 225.842C79.3809 226.389 79.4375 227.01 79.4375 227.705ZM75.0488 227.705C75.0488 228.291 75.0781 228.803 75.1367 229.24C75.1953 229.678 75.2891 230.043 75.418 230.336C75.5469 230.625 75.7148 230.844 75.9219 230.992C76.1328 231.137 76.3887 231.209 76.6895 231.209C76.9902 231.209 77.2461 231.137 77.457 230.992C77.668 230.848 77.8398 230.631 77.9727 230.342C78.1094 230.053 78.207 229.689 78.2656 229.252C78.3281 228.811 78.3594 228.295 78.3594 227.705C78.3594 227.119 78.3281 226.607 78.2656 226.17C78.207 225.732 78.1094 225.369 77.9727 225.08C77.8398 224.791 77.668 224.574 77.457 224.43C77.2461 224.285 76.9902 224.213 76.6895 224.213C76.3887 224.213 76.1328 224.285 75.9219 224.43C75.7148 224.574 75.5469 224.791 75.418 225.08C75.2891 225.369 75.1953 225.732 75.1367 226.17C75.0781 226.607 75.0488 227.119 75.0488 227.705Z" fill="#595959"/>
<path d="M220.584 226.744C220.971 226.744 221.33 226.799 221.662 226.908C221.998 227.014 222.289 227.172 222.535 227.383C222.785 227.594 222.98 227.855 223.121 228.168C223.262 228.48 223.332 228.842 223.332 229.252C223.332 229.697 223.266 230.098 223.133 230.453C223 230.809 222.803 231.109 222.541 231.355C222.279 231.602 221.955 231.791 221.568 231.924C221.186 232.053 220.744 232.117 220.244 232.117C220.045 232.117 219.848 232.107 219.652 232.088C219.461 232.068 219.275 232.039 219.096 232C218.92 231.965 218.752 231.918 218.592 231.859C218.432 231.801 218.287 231.732 218.158 231.654V230.646C218.287 230.736 218.438 230.816 218.609 230.887C218.785 230.957 218.969 231.016 219.16 231.062C219.352 231.109 219.543 231.146 219.734 231.174C219.93 231.197 220.109 231.209 220.273 231.209C220.582 231.209 220.857 231.174 221.1 231.104C221.342 231.029 221.547 230.916 221.715 230.764C221.883 230.611 222.012 230.42 222.102 230.189C222.191 229.959 222.236 229.686 222.236 229.369C222.236 228.811 222.064 228.385 221.721 228.092C221.377 227.795 220.877 227.646 220.221 227.646C220.115 227.646 220 227.652 219.875 227.664C219.754 227.672 219.631 227.684 219.506 227.699C219.385 227.715 219.268 227.732 219.154 227.752C219.045 227.768 218.949 227.783 218.867 227.799L218.34 227.465L218.662 223.434H222.705V224.406H219.588L219.359 226.861C219.484 226.838 219.648 226.812 219.852 226.785C220.059 226.758 220.303 226.744 220.584 226.744ZM230.047 227.705C230.047 228.396 229.996 229.016 229.895 229.562C229.797 230.109 229.637 230.572 229.414 230.951C229.195 231.33 228.912 231.619 228.564 231.818C228.217 232.018 227.795 232.117 227.299 232.117C226.838 232.117 226.436 232.018 226.092 231.818C225.752 231.619 225.469 231.33 225.242 230.951C225.02 230.572 224.852 230.109 224.738 229.562C224.629 229.016 224.574 228.396 224.574 227.705C224.574 227.014 224.623 226.395 224.721 225.848C224.822 225.301 224.98 224.84 225.195 224.465C225.414 224.086 225.695 223.797 226.039 223.598C226.387 223.398 226.807 223.299 227.299 223.299C227.764 223.299 228.168 223.398 228.512 223.598C228.855 223.793 229.141 224.08 229.367 224.459C229.594 224.834 229.764 225.295 229.877 225.842C229.99 226.389 230.047 227.01 230.047 227.705ZM225.658 227.705C225.658 228.291 225.688 228.803 225.746 229.24C225.805 229.678 225.898 230.043 226.027 230.336C226.156 230.625 226.324 230.844 226.531 230.992C226.742 231.137 226.998 231.209 227.299 231.209C227.6 231.209 227.855 231.137 228.066 230.992C228.277 230.848 228.449 230.631 228.582 230.342C228.719 230.053 228.816 229.689 228.875 229.252C228.938 228.811 228.969 228.295 228.969 227.705C228.969 227.119 228.938 226.607 228.875 226.17C228.816 225.732 228.719 225.369 228.582 225.08C228.449 224.791 228.277 224.574 228.066 224.43C227.855 224.285 227.6 224.213 227.299 224.213C226.998 224.213 226.742 224.285 226.531 224.43C226.324 224.574 226.156 224.791 226.027 225.08C225.898 225.369 225.805 225.732 225.746 226.17C225.688 226.607 225.658 227.119 225.658 227.705Z" fill="#595959"/>
<path d="M366.252 232H365.221V226.65C365.221 226.482 365.221 226.303 365.221 226.111C365.225 225.92 365.229 225.73 365.232 225.543C365.24 225.352 365.246 225.17 365.25 224.998C365.258 224.822 365.264 224.668 365.268 224.535C365.201 224.605 365.143 224.666 365.092 224.717C365.041 224.768 364.988 224.816 364.934 224.863C364.883 224.91 364.828 224.961 364.77 225.016C364.711 225.066 364.641 225.127 364.559 225.197L363.691 225.906L363.129 225.186L365.373 223.434H366.252V232ZM374.742 227.705C374.742 228.396 374.691 229.016 374.59 229.562C374.492 230.109 374.332 230.572 374.109 230.951C373.891 231.33 373.607 231.619 373.26 231.818C372.912 232.018 372.49 232.117 371.994 232.117C371.533 232.117 371.131 232.018 370.787 231.818C370.447 231.619 370.164 231.33 369.938 230.951C369.715 230.572 369.547 230.109 369.434 229.562C369.324 229.016 369.27 228.396 369.27 227.705C369.27 227.014 369.318 226.395 369.416 225.848C369.518 225.301 369.676 224.84 369.891 224.465C370.109 224.086 370.391 223.797 370.734 223.598C371.082 223.398 371.502 223.299 371.994 223.299C372.459 223.299 372.863 223.398 373.207 223.598C373.551 223.793 373.836 224.08 374.062 224.459C374.289 224.834 374.459 225.295 374.572 225.842C374.686 226.389 374.742 227.01 374.742 227.705ZM370.354 227.705C370.354 228.291 370.383 228.803 370.441 229.24C370.5 229.678 370.594 230.043 370.723 230.336C370.852 230.625 371.02 230.844 371.227 230.992C371.438 231.137 371.693 231.209 371.994 231.209C372.295 231.209 372.551 231.137 372.762 230.992C372.973 230.848 373.145 230.631 373.277 230.342C373.414 230.053 373.512 229.689 373.57 229.252C373.633 228.811 373.664 228.295 373.664 227.705C373.664 227.119 373.633 226.607 373.57 226.17C373.512 225.732 373.414 225.369 373.277 225.08C373.145 224.791 372.973 224.574 372.762 224.43C372.551 224.285 372.295 224.213 371.994 224.213C371.693 224.213 371.438 224.285 371.227 224.43C371.02 224.574 370.852 224.791 370.723 225.08C370.594 225.369 370.5 225.732 370.441 226.17C370.383 226.607 370.354 227.119 370.354 227.705ZM381.352 227.705C381.352 228.396 381.301 229.016 381.199 229.562C381.102 230.109 380.941 230.572 380.719 230.951C380.5 231.33 380.217 231.619 379.869 231.818C379.521 232.018 379.1 232.117 378.604 232.117C378.143 232.117 377.74 232.018 377.396 231.818C377.057 231.619 376.773 231.33 376.547 230.951C376.324 230.572 376.156 230.109 376.043 229.562C375.934 229.016 375.879 228.396 375.879 227.705C375.879 227.014 375.928 226.395 376.025 225.848C376.127 225.301 376.285 224.84 376.5 224.465C376.719 224.086 377 223.797 377.344 223.598C377.691 223.398 378.111 223.299 378.604 223.299C379.068 223.299 379.473 223.398 379.816 223.598C380.16 223.793 380.445 224.08 380.672 224.459C380.898 224.834 381.068 225.295 381.182 225.842C381.295 226.389 381.352 227.01 381.352 227.705ZM376.963 227.705C376.963 228.291 376.992 228.803 377.051 229.24C377.109 229.678 377.203 230.043 377.332 230.336C377.461 230.625 377.629 230.844 377.836 230.992C378.047 231.137 378.303 231.209 378.604 231.209C378.904 231.209 379.16 231.137 379.371 230.992C379.582 230.848 379.754 230.631 379.887 230.342C380.023 230.053 380.121 229.689 380.18 229.252C380.242 228.811 380.273 228.295 380.273 227.705C380.273 227.119 380.242 226.607 380.18 226.17C380.121 225.732 380.023 225.369 379.887 225.08C379.754 224.791 379.582 224.574 379.371 224.43C379.16 224.285 378.904 224.213 378.604 224.213C378.303 224.213 378.047 224.285 377.836 224.43C377.629 224.574 377.461 224.791 377.332 225.08C377.203 225.369 377.109 225.732 377.051 226.17C376.992 226.607 376.963 227.119 376.963 227.705Z" fill="#595959"/>
<rect x="133.156" y="132" width="29.3958" height="20" fill="#4CA2A8"/>
<rect x="101.977" y="132" width="29.3958" height="20" fill="#4CA2A8"/>
<rect x="195.512" y="132" width="29.3958" height="20" fill="#4CA2A8"/>
<rect x="164.334" y="132" width="29.3958" height="20" fill="#4CA2A8"/>
<rect x="258.369" y="132.5" width="28.3958" height="19" stroke="#CED7D4"/>
<rect x="227.189" y="132.5" width="28.3958" height="19" stroke="#CED7D4"/>
<rect x="351.902" y="132.5" width="28.3958" height="19" stroke="#CED7D4"/>
<rect x="320.725" y="132.5" width="28.3958" height="19" stroke="#CED7D4"/>
<rect x="70.7988" y="132" width="29.3958" height="20" fill="#4CA2A8"/>
<rect x="289.547" y="132.5" width="28.3958" height="19" stroke="#CED7D4"/>
<rect x="226.602" y="132" width="10.6944" height="20" fill="#4CA2A8"/>
<path d="M29.0742 186H27.9902V178.383H25.3125V177.434H31.7344V178.383H29.0742V186ZM36.5918 178.26C35.6699 178.26 34.9453 178.568 34.418 179.186C33.8906 179.803 33.627 180.646 33.627 181.717C33.627 182.822 33.8828 183.676 34.3945 184.277C34.9062 184.875 35.6348 185.174 36.5801 185.174C37.1895 185.174 37.875 185.061 38.6367 184.834V185.771C38.2734 185.904 37.9238 185.994 37.5879 186.041C37.252 186.092 36.8652 186.117 36.4277 186.117C35.166 186.117 34.1934 185.734 33.5098 184.969C32.8301 184.199 32.4902 183.111 32.4902 181.705C32.4902 180.822 32.6523 180.049 32.9766 179.385C33.3047 178.721 33.7793 178.209 34.4004 177.85C35.0254 177.49 35.7598 177.311 36.6035 177.311C37.5098 177.311 38.2988 177.479 38.9707 177.814L38.5371 178.729C37.8535 178.416 37.2051 178.26 36.5918 178.26ZM39.9258 182.93V181.945H42.832V182.93H39.9258ZM48.252 178.26C47.3301 178.26 46.6055 178.568 46.0781 179.186C45.5508 179.803 45.2871 180.646 45.2871 181.717C45.2871 182.822 45.543 183.676 46.0547 184.277C46.5664 184.875 47.2949 185.174 48.2402 185.174C48.8496 185.174 49.5352 185.061 50.2969 184.834V185.771C49.9336 185.904 49.584 185.994 49.248 186.041C48.9121 186.092 48.5254 186.117 48.0879 186.117C46.8262 186.117 45.8535 185.734 45.1699 184.969C44.4902 184.199 44.1504 183.111 44.1504 181.705C44.1504 180.822 44.3125 180.049 44.6367 179.385C44.9648 178.721 45.4395 178.209 46.0605 177.85C46.6855 177.49 47.4199 177.311 48.2637 177.311C49.1699 177.311 49.959 177.479 50.6309 177.814L50.1973 178.729C49.5137 178.416 48.8652 178.26 48.252 178.26Z" fill="#595959"/>
<rect x="133.156" y="172" width="29.3958" height="20" fill="#4CA2A8"/>
<rect x="101.977" y="172" width="29.3958" height="20" fill="#4CA2A8"/>
<rect x="195.512" y="172" width="29.3958" height="20" fill="#4CA2A8"/>
<rect x="164.334" y="172" width="29.3958" height="20" fill="#4CA2A8"/>
<rect x="258.369" y="172.5" width="28.3958" height="19" stroke="#CED7D4"/>
<rect x="227.189" y="172.5" width="28.3958" height="19" stroke="#CED7D4"/>
<rect x="351.902" y="172.5" width="28.3958" height="19" stroke="#CED7D4"/>
<rect x="320.725" y="172.5" width="28.3958" height="19" stroke="#CED7D4"/>
<rect x="70.7988" y="172" width="29.3958" height="20" fill="#4CA2A8"/>
<rect x="289.547" y="172.5" width="28.3958" height="19" stroke="#CED7D4"/>
<rect x="226.602" y="172" width="10.6944" height="20" fill="#4CA2A8"/>
<rect x="133.156" y="91" width="29.3958" height="20" fill="#E6B056"/>
<rect x="101.977" y="91" width="29.3958" height="20" fill="#E6B056"/>
<rect x="195.512" y="91" width="29.3958" height="20" fill="#E6B056"/>
<rect x="164.334" y="91" width="29.3958" height="20" fill="#E6B056"/>
<rect x="257.869" y="91" width="29.3958" height="20" fill="#E6B056"/>
<rect x="226.689" y="91" width="29.3958" height="20" fill="#E6B056"/>
<rect x="351.402" y="91" width="29.3958" height="20" fill="#E6B056"/>
<rect x="320.225" y="91" width="29.3958" height="20" fill="#E6B056"/>
<rect x="70.7988" y="91" width="29.3958" height="20" fill="#E6B056"/>
<rect x="289.047" y="91" width="29.3958" height="20" fill="#E6B056"/>
</g>
<rect x="60" y="211" width="318" height="1" fill="#CED7D4"/>
<path d="M405.383 107.25H390.617L398 94.4979L405.383 107.25Z" fill="#FEEAEE" stroke="#E16E75"/>
<path d="M398.573 104H397.07V105.5H398.573V104Z" fill="#C21A2C"/>
<path d="M398.573 99.5H397.07V102.5H398.573V99.5Z" fill="#C21A2C"/>
<defs>
<clipPath id="clip0_0_1">
<rect width="425" height="265" rx="4" fill="white"/>
</clipPath>
</defs>
</svg>
