<svg width="425" height="265" viewBox="0 0 425 265" fill="none" xmlns="http://www.w3.org/2000/svg">
<rect width="425" height="265" fill="#F5F5F5"/>
<rect x="-14157" y="-4690" width="23840" height="13376" fill="#F8FAF9"/>
<g clip-path="url(#clip0_0_1)">
<rect width="425" height="265" rx="4" fill="white"/>
<rect x="58.25" y="69.25" width="346.5" height="0.5" stroke="#EBEFEE" stroke-width="0.5"/>
<rect x="58.25" y="110.25" width="346.5" height="0.5" stroke="#EBEFEE" stroke-width="0.5"/>
<rect x="58.25" y="151.25" width="346.5" height="0.5" stroke="#EBEFEE" stroke-width="0.5"/>
<rect x="58" y="192" width="347" height="1" fill="#CED7D4"/>
<rect x="135" y="110" width="24" height="82" fill="#666EB4"/>
<rect x="302" y="164" width="24" height="28" fill="#4CA2A8"/>
<rect x="222" y="133" width="24" height="59" fill="#EBEFEE"/>
<rect x="222" y="102" width="24" height="90" fill="#E6B056"/>
<path d="M132.969 211L131.938 208.346H128.539L127.52 211H126.43L129.775 202.398H130.748L134.088 211H132.969ZM131.615 207.391L130.654 204.795L130.244 203.512C130.127 203.98 130.004 204.408 129.875 204.795L128.902 207.391H131.615ZM139.508 211V206.887C139.508 206.363 139.391 205.975 139.156 205.721C138.926 205.463 138.562 205.334 138.066 205.334C137.406 205.334 136.926 205.518 136.625 205.885C136.328 206.248 136.18 206.842 136.18 207.666V211H135.125V204.566H135.975L136.133 205.445H136.191C136.391 205.129 136.67 204.885 137.029 204.713C137.389 204.537 137.785 204.449 138.219 204.449C139.008 204.449 139.594 204.641 139.977 205.023C140.359 205.406 140.551 206.002 140.551 206.811V211H139.508ZM146.516 211L146.311 210.086H146.264C145.943 210.488 145.623 210.762 145.303 210.906C144.986 211.047 144.586 211.117 144.102 211.117C143.469 211.117 142.973 210.951 142.613 210.619C142.254 210.287 142.074 209.818 142.074 209.213C142.074 207.908 143.104 207.225 145.162 207.162L146.252 207.121V206.74C146.252 206.252 146.146 205.893 145.936 205.662C145.725 205.428 145.387 205.311 144.922 205.311C144.582 205.311 144.26 205.361 143.955 205.463C143.654 205.564 143.371 205.678 143.105 205.803L142.783 205.012C143.107 204.84 143.461 204.705 143.844 204.607C144.227 204.51 144.605 204.461 144.98 204.461C145.758 204.461 146.336 204.633 146.715 204.977C147.094 205.32 147.283 205.867 147.283 206.617V211H146.516ZM144.342 210.268C144.932 210.268 145.395 210.109 145.73 209.793C146.07 209.473 146.24 209.02 146.24 208.434V207.854L145.291 207.895C144.553 207.922 144.014 208.039 143.674 208.246C143.338 208.453 143.17 208.779 143.17 209.225C143.17 209.561 143.271 209.818 143.475 209.998C143.682 210.178 143.971 210.268 144.342 210.268ZM150.336 211H149.281V201.883H150.336V211ZM151.367 204.566H152.498L153.887 208.229C154.18 209.025 154.359 209.609 154.426 209.98H154.473C154.508 209.836 154.588 209.566 154.713 209.172C154.838 208.773 154.943 208.455 155.029 208.217L156.336 204.566H157.473L154.701 211.891C154.432 212.602 154.111 213.111 153.74 213.42C153.369 213.729 152.91 213.883 152.363 213.883C152.07 213.883 151.779 213.85 151.49 213.783V212.945C151.686 212.992 151.92 213.016 152.193 213.016C152.529 213.016 152.814 212.922 153.049 212.734C153.283 212.551 153.475 212.266 153.623 211.879L153.957 211.023L151.367 204.566ZM162.682 209.225C162.682 209.826 162.457 210.293 162.008 210.625C161.559 210.953 160.928 211.117 160.115 211.117C159.268 211.117 158.594 210.982 158.094 210.713V209.752C158.801 210.096 159.482 210.268 160.139 210.268C160.67 210.268 161.057 210.182 161.299 210.01C161.541 209.838 161.662 209.607 161.662 209.318C161.662 209.064 161.545 208.85 161.311 208.674C161.08 208.498 160.668 208.297 160.074 208.07C159.469 207.836 159.043 207.637 158.797 207.473C158.551 207.305 158.369 207.117 158.252 206.91C158.139 206.703 158.082 206.451 158.082 206.154C158.082 205.627 158.297 205.211 158.727 204.906C159.156 204.602 159.746 204.449 160.496 204.449C161.227 204.449 161.91 204.594 162.547 204.883L162.189 205.721C161.537 205.447 160.949 205.311 160.426 205.311C159.988 205.311 159.656 205.381 159.43 205.521C159.203 205.658 159.09 205.848 159.09 206.09C159.09 206.324 159.188 206.52 159.383 206.676C159.578 206.828 160.033 207.041 160.748 207.314C161.283 207.514 161.678 207.699 161.932 207.871C162.189 208.043 162.379 208.236 162.5 208.451C162.621 208.666 162.682 208.924 162.682 209.225ZM166.982 211.117C166.018 211.117 165.26 210.826 164.709 210.244C164.162 209.658 163.889 208.854 163.889 207.83C163.889 206.799 164.145 205.979 164.656 205.369C165.168 204.756 165.859 204.449 166.73 204.449C167.539 204.449 168.184 204.711 168.664 205.234C169.145 205.754 169.385 206.459 169.385 207.35V207.988H164.979C164.998 208.719 165.184 209.273 165.535 209.652C165.887 210.031 166.385 210.221 167.029 210.221C167.373 210.221 167.699 210.191 168.008 210.133C168.316 210.07 168.678 209.951 169.092 209.775V210.701C168.736 210.854 168.402 210.961 168.09 211.023C167.777 211.086 167.408 211.117 166.982 211.117ZM166.719 205.311C166.215 205.311 165.816 205.473 165.523 205.797C165.23 206.121 165.057 206.572 165.002 207.15H168.277C168.27 206.549 168.131 206.092 167.861 205.779C167.592 205.467 167.211 205.311 166.719 205.311Z" fill="#595959"/>
<path d="M224.713 211L223.682 208.346H220.283L219.264 211H218.174L221.52 202.398H222.492L225.832 211H224.713ZM223.359 207.391L222.398 204.795L221.988 203.512C221.871 203.98 221.748 204.408 221.619 204.795L220.646 207.391H223.359ZM229.916 211.117C229.053 211.117 228.389 210.807 227.924 210.186H227.854L227.877 210.426C227.908 210.73 227.924 211.002 227.924 211.24V213.883H226.869V204.566H227.736L227.877 205.445H227.924C228.174 205.094 228.463 204.84 228.791 204.684C229.119 204.527 229.498 204.449 229.928 204.449C230.764 204.449 231.412 204.74 231.873 205.322C232.338 205.9 232.57 206.717 232.57 207.771C232.57 208.822 232.338 209.643 231.873 210.232C231.408 210.822 230.756 211.117 229.916 211.117ZM229.74 205.334C229.104 205.334 228.643 205.514 228.357 205.873C228.076 206.232 227.932 206.797 227.924 207.566V207.771C227.924 208.643 228.068 209.273 228.357 209.664C228.646 210.051 229.115 210.244 229.764 210.244C230.303 210.244 230.723 210.025 231.023 209.588C231.328 209.15 231.48 208.541 231.48 207.76C231.48 206.975 231.328 206.375 231.023 205.961C230.723 205.543 230.295 205.334 229.74 205.334ZM237.299 211.117C236.436 211.117 235.771 210.807 235.307 210.186H235.236L235.26 210.426C235.291 210.73 235.307 211.002 235.307 211.24V213.883H234.252V204.566H235.119L235.26 205.445H235.307C235.557 205.094 235.846 204.84 236.174 204.684C236.502 204.527 236.881 204.449 237.311 204.449C238.146 204.449 238.795 204.74 239.256 205.322C239.721 205.9 239.953 206.717 239.953 207.771C239.953 208.822 239.721 209.643 239.256 210.232C238.791 210.822 238.139 211.117 237.299 211.117ZM237.123 205.334C236.486 205.334 236.025 205.514 235.74 205.873C235.459 206.232 235.314 206.797 235.307 207.566V207.771C235.307 208.643 235.451 209.273 235.74 209.664C236.029 210.051 236.498 210.244 237.146 210.244C237.686 210.244 238.105 210.025 238.406 209.588C238.711 209.15 238.863 208.541 238.863 207.76C238.863 206.975 238.711 206.375 238.406 205.961C238.105 205.543 237.678 205.334 237.123 205.334ZM242.689 211H241.635V201.883H242.689V211ZM243.721 204.566H244.852L246.24 208.229C246.533 209.025 246.713 209.609 246.779 209.98H246.826C246.861 209.836 246.941 209.566 247.066 209.172C247.191 208.773 247.297 208.455 247.383 208.217L248.689 204.566H249.826L247.055 211.891C246.785 212.602 246.465 213.111 246.094 213.42C245.723 213.729 245.264 213.883 244.717 213.883C244.424 213.883 244.133 213.85 243.844 213.783V212.945C244.039 212.992 244.273 213.016 244.547 213.016C244.883 213.016 245.168 212.922 245.402 212.734C245.637 212.551 245.828 212.266 245.977 211.879L246.311 211.023L243.721 204.566Z" fill="#595959"/>
<path d="M289.377 202.434H290.508L292.436 207.93C292.682 208.625 292.861 209.248 292.975 209.799C293.072 209.307 293.254 208.676 293.52 207.906L295.436 202.434H296.578L293.52 211H292.436L289.377 202.434ZM301.459 211L301.254 210.086H301.207C300.887 210.488 300.566 210.762 300.246 210.906C299.93 211.047 299.529 211.117 299.045 211.117C298.412 211.117 297.916 210.951 297.557 210.619C297.197 210.287 297.018 209.818 297.018 209.213C297.018 207.908 298.047 207.225 300.105 207.162L301.195 207.121V206.74C301.195 206.252 301.09 205.893 300.879 205.662C300.668 205.428 300.33 205.311 299.865 205.311C299.525 205.311 299.203 205.361 298.898 205.463C298.598 205.564 298.314 205.678 298.049 205.803L297.727 205.012C298.051 204.84 298.404 204.705 298.787 204.607C299.17 204.51 299.549 204.461 299.924 204.461C300.701 204.461 301.279 204.633 301.658 204.977C302.037 205.32 302.227 205.867 302.227 206.617V211H301.459ZM299.285 210.268C299.875 210.268 300.338 210.109 300.674 209.793C301.014 209.473 301.184 209.02 301.184 208.434V207.854L300.234 207.895C299.496 207.922 298.957 208.039 298.617 208.246C298.281 208.453 298.113 208.779 298.113 209.225C298.113 209.561 298.215 209.818 298.418 209.998C298.625 210.178 298.914 210.268 299.285 210.268ZM305.279 211H304.225V201.883H305.279V211ZM308.373 211H307.318V204.566H308.373V211ZM307.236 202.826C307.236 202.592 307.295 202.422 307.412 202.316C307.533 202.211 307.682 202.158 307.857 202.158C308.021 202.158 308.164 202.211 308.285 202.316C308.41 202.422 308.473 202.592 308.473 202.826C308.473 203.057 308.41 203.227 308.285 203.336C308.164 203.445 308.021 203.5 307.857 203.5C307.682 203.5 307.533 203.445 307.412 203.336C307.295 203.227 307.236 203.057 307.236 202.826ZM312.691 211.117C311.855 211.117 311.207 210.828 310.746 210.25C310.285 209.672 310.055 208.854 310.055 207.795C310.055 206.744 310.285 205.924 310.746 205.334C311.211 204.744 311.863 204.449 312.703 204.449C313.566 204.449 314.23 204.766 314.695 205.398H314.771C314.76 205.32 314.744 205.164 314.725 204.93C314.705 204.691 314.695 204.531 314.695 204.449V201.883H315.75V211H314.9L314.742 210.139H314.695C314.246 210.791 313.578 211.117 312.691 211.117ZM312.861 210.244C313.502 210.244 313.969 210.07 314.262 209.723C314.559 209.371 314.707 208.797 314.707 208V207.807C314.707 206.912 314.557 206.275 314.256 205.896C313.959 205.514 313.49 205.322 312.85 205.322C312.307 205.322 311.887 205.539 311.59 205.973C311.293 206.402 311.145 207.018 311.145 207.818C311.145 208.615 311.291 209.219 311.584 209.629C311.881 210.039 312.307 210.244 312.861 210.244ZM321.768 211L321.562 210.086H321.516C321.195 210.488 320.875 210.762 320.555 210.906C320.238 211.047 319.838 211.117 319.354 211.117C318.721 211.117 318.225 210.951 317.865 210.619C317.506 210.287 317.326 209.818 317.326 209.213C317.326 207.908 318.355 207.225 320.414 207.162L321.504 207.121V206.74C321.504 206.252 321.398 205.893 321.188 205.662C320.977 205.428 320.639 205.311 320.174 205.311C319.834 205.311 319.512 205.361 319.207 205.463C318.906 205.564 318.623 205.678 318.357 205.803L318.035 205.012C318.359 204.84 318.713 204.705 319.096 204.607C319.479 204.51 319.857 204.461 320.232 204.461C321.01 204.461 321.588 204.633 321.967 204.977C322.346 205.32 322.535 205.867 322.535 206.617V211H321.768ZM319.594 210.268C320.184 210.268 320.646 210.109 320.982 209.793C321.322 209.473 321.492 209.02 321.492 208.434V207.854L320.543 207.895C319.805 207.922 319.266 208.039 318.926 208.246C318.59 208.453 318.422 208.779 318.422 209.225C318.422 209.561 318.523 209.818 318.727 209.998C318.934 210.178 319.223 210.268 319.594 210.268ZM326.684 210.256C326.82 210.256 326.98 210.242 327.164 210.215C327.348 210.188 327.486 210.156 327.58 210.121V210.93C327.482 210.973 327.33 211.014 327.123 211.053C326.92 211.096 326.713 211.117 326.502 211.117C325.244 211.117 324.615 210.455 324.615 209.131V205.387H323.707V204.883L324.627 204.461L325.049 203.09H325.676V204.566H327.533V205.387H325.676V209.102C325.676 209.473 325.764 209.758 325.939 209.957C326.119 210.156 326.367 210.256 326.684 210.256ZM331.605 211.117C330.641 211.117 329.883 210.826 329.332 210.244C328.785 209.658 328.512 208.854 328.512 207.83C328.512 206.799 328.768 205.979 329.279 205.369C329.791 204.756 330.482 204.449 331.354 204.449C332.162 204.449 332.807 204.711 333.287 205.234C333.768 205.754 334.008 206.459 334.008 207.35V207.988H329.602C329.621 208.719 329.807 209.273 330.158 209.652C330.51 210.031 331.008 210.221 331.652 210.221C331.996 210.221 332.322 210.191 332.631 210.133C332.939 210.07 333.301 209.951 333.715 209.775V210.701C333.359 210.854 333.025 210.961 332.713 211.023C332.4 211.086 332.031 211.117 331.605 211.117ZM331.342 205.311C330.838 205.311 330.439 205.473 330.146 205.797C329.854 206.121 329.68 206.572 329.625 207.15H332.9C332.893 206.549 332.754 206.092 332.484 205.779C332.215 205.467 331.834 205.311 331.342 205.311Z" fill="#595959"/>
<g clip-path="url(#clip1_0_1)">
<path d="M28.9473 74H27.916V68.6504C27.916 68.4824 27.916 68.3027 27.916 68.1113C27.9199 67.9199 27.9238 67.7305 27.9277 67.543C27.9355 67.3516 27.9414 67.1699 27.9453 66.998C27.9531 66.8223 27.959 66.668 27.9629 66.5352C27.8965 66.6055 27.8379 66.666 27.7871 66.7168C27.7363 66.7676 27.6836 66.8164 27.6289 66.8633C27.5781 66.9102 27.5234 66.9609 27.4648 67.0156C27.4062 67.0664 27.3359 67.127 27.2539 67.1973L26.3867 67.9062L25.8242 67.1855L28.0684 65.4336H28.9473V74ZM34.584 68.7441C34.9707 68.7441 35.3301 68.7988 35.6621 68.9082C35.998 69.0137 36.2891 69.1719 36.5352 69.3828C36.7852 69.5938 36.9805 69.8555 37.1211 70.168C37.2617 70.4805 37.332 70.8418 37.332 71.252C37.332 71.6973 37.2656 72.0977 37.1328 72.4531C37 72.8086 36.8027 73.1094 36.541 73.3555C36.2793 73.6016 35.9551 73.791 35.5684 73.9238C35.1855 74.0527 34.7441 74.1172 34.2441 74.1172C34.0449 74.1172 33.8477 74.1074 33.6523 74.0879C33.4609 74.0684 33.2754 74.0391 33.0957 74C32.9199 73.9648 32.752 73.918 32.5918 73.8594C32.4316 73.8008 32.2871 73.7324 32.1582 73.6543V72.6465C32.2871 72.7363 32.4375 72.8164 32.6094 72.8867C32.7852 72.957 32.9688 73.0156 33.1602 73.0625C33.3516 73.1094 33.543 73.1465 33.7344 73.1738C33.9297 73.1973 34.1094 73.209 34.2734 73.209C34.582 73.209 34.8574 73.1738 35.0996 73.1035C35.3418 73.0293 35.5469 72.916 35.7148 72.7637C35.8828 72.6113 36.0117 72.4199 36.1016 72.1895C36.1914 71.959 36.2363 71.6855 36.2363 71.3691C36.2363 70.8105 36.0645 70.3848 35.7207 70.0918C35.377 69.7949 34.877 69.6465 34.2207 69.6465C34.1152 69.6465 34 69.6523 33.875 69.6641C33.7539 69.6719 33.6309 69.6836 33.5059 69.6992C33.3848 69.7148 33.2676 69.7324 33.1543 69.752C33.0449 69.7676 32.9492 69.7832 32.8672 69.7988L32.3398 69.4648L32.6621 65.4336H36.7051V66.4062H33.5879L33.3594 68.8613C33.4844 68.8379 33.6484 68.8125 33.8516 68.7852C34.0586 68.7578 34.3027 68.7441 34.584 68.7441Z" fill="#595959"/>
</g>
<g clip-path="url(#clip2_0_1)">
<path d="M34.584 149.744C34.9707 149.744 35.3301 149.799 35.6621 149.908C35.998 150.014 36.2891 150.172 36.5352 150.383C36.7852 150.594 36.9805 150.855 37.1211 151.168C37.2617 151.48 37.332 151.842 37.332 152.252C37.332 152.697 37.2656 153.098 37.1328 153.453C37 153.809 36.8027 154.109 36.541 154.355C36.2793 154.602 35.9551 154.791 35.5684 154.924C35.1855 155.053 34.7441 155.117 34.2441 155.117C34.0449 155.117 33.8477 155.107 33.6523 155.088C33.4609 155.068 33.2754 155.039 33.0957 155C32.9199 154.965 32.752 154.918 32.5918 154.859C32.4316 154.801 32.2871 154.732 32.1582 154.654V153.646C32.2871 153.736 32.4375 153.816 32.6094 153.887C32.7852 153.957 32.9688 154.016 33.1602 154.062C33.3516 154.109 33.543 154.146 33.7344 154.174C33.9297 154.197 34.1094 154.209 34.2734 154.209C34.582 154.209 34.8574 154.174 35.0996 154.104C35.3418 154.029 35.5469 153.916 35.7148 153.764C35.8828 153.611 36.0117 153.42 36.1016 153.189C36.1914 152.959 36.2363 152.686 36.2363 152.369C36.2363 151.811 36.0645 151.385 35.7207 151.092C35.377 150.795 34.877 150.646 34.2207 150.646C34.1152 150.646 34 150.652 33.875 150.664C33.7539 150.672 33.6309 150.684 33.5059 150.699C33.3848 150.715 33.2676 150.732 33.1543 150.752C33.0449 150.768 32.9492 150.783 32.8672 150.799L32.3398 150.465L32.6621 146.434H36.7051V147.406H33.5879L33.3594 149.861C33.4844 149.838 33.6484 149.812 33.8516 149.785C34.0586 149.758 34.3027 149.744 34.584 149.744Z" fill="#595959"/>
</g>
<g clip-path="url(#clip3_0_1)">
<path d="M28.9473 115H27.916V109.65C27.916 109.482 27.916 109.303 27.916 109.111C27.9199 108.92 27.9238 108.73 27.9277 108.543C27.9355 108.352 27.9414 108.17 27.9453 107.998C27.9531 107.822 27.959 107.668 27.9629 107.535C27.8965 107.605 27.8379 107.666 27.7871 107.717C27.7363 107.768 27.6836 107.816 27.6289 107.863C27.5781 107.91 27.5234 107.961 27.4648 108.016C27.4062 108.066 27.3359 108.127 27.2539 108.197L26.3867 108.906L25.8242 108.186L28.0684 106.434H28.9473V115ZM37.4375 110.705C37.4375 111.396 37.3867 112.016 37.2852 112.562C37.1875 113.109 37.0273 113.572 36.8047 113.951C36.5859 114.33 36.3027 114.619 35.9551 114.818C35.6074 115.018 35.1855 115.117 34.6895 115.117C34.2285 115.117 33.8262 115.018 33.4824 114.818C33.1426 114.619 32.8594 114.33 32.6328 113.951C32.4102 113.572 32.2422 113.109 32.1289 112.562C32.0195 112.016 31.9648 111.396 31.9648 110.705C31.9648 110.014 32.0137 109.395 32.1113 108.848C32.2129 108.301 32.3711 107.84 32.5859 107.465C32.8047 107.086 33.0859 106.797 33.4297 106.598C33.7773 106.398 34.1973 106.299 34.6895 106.299C35.1543 106.299 35.5586 106.398 35.9023 106.598C36.2461 106.793 36.5312 107.08 36.7578 107.459C36.9844 107.834 37.1543 108.295 37.2676 108.842C37.3809 109.389 37.4375 110.01 37.4375 110.705ZM33.0488 110.705C33.0488 111.291 33.0781 111.803 33.1367 112.24C33.1953 112.678 33.2891 113.043 33.418 113.336C33.5469 113.625 33.7148 113.844 33.9219 113.992C34.1328 114.137 34.3887 114.209 34.6895 114.209C34.9902 114.209 35.2461 114.137 35.457 113.992C35.668 113.848 35.8398 113.631 35.9727 113.342C36.1094 113.053 36.207 112.689 36.2656 112.252C36.3281 111.811 36.3594 111.295 36.3594 110.705C36.3594 110.119 36.3281 109.607 36.2656 109.17C36.207 108.732 36.1094 108.369 35.9727 108.08C35.8398 107.791 35.668 107.574 35.457 107.43C35.2461 107.285 34.9902 107.213 34.6895 107.213C34.3887 107.213 34.1328 107.285 33.9219 107.43C33.7148 107.574 33.5469 107.791 33.418 108.08C33.2891 108.369 33.1953 108.732 33.1367 109.17C33.0781 109.607 33.0488 110.119 33.0488 110.705Z" fill="#595959"/>
</g>
<g clip-path="url(#clip4_0_1)">
<path d="M37.4375 191.705C37.4375 192.396 37.3867 193.016 37.2852 193.562C37.1875 194.109 37.0273 194.572 36.8047 194.951C36.5859 195.33 36.3027 195.619 35.9551 195.818C35.6074 196.018 35.1855 196.117 34.6895 196.117C34.2285 196.117 33.8262 196.018 33.4824 195.818C33.1426 195.619 32.8594 195.33 32.6328 194.951C32.4102 194.572 32.2422 194.109 32.1289 193.562C32.0195 193.016 31.9648 192.396 31.9648 191.705C31.9648 191.014 32.0137 190.395 32.1113 189.848C32.2129 189.301 32.3711 188.84 32.5859 188.465C32.8047 188.086 33.0859 187.797 33.4297 187.598C33.7773 187.398 34.1973 187.299 34.6895 187.299C35.1543 187.299 35.5586 187.398 35.9023 187.598C36.2461 187.793 36.5312 188.08 36.7578 188.459C36.9844 188.834 37.1543 189.295 37.2676 189.842C37.3809 190.389 37.4375 191.01 37.4375 191.705ZM33.0488 191.705C33.0488 192.291 33.0781 192.803 33.1367 193.24C33.1953 193.678 33.2891 194.043 33.418 194.336C33.5469 194.625 33.7148 194.844 33.9219 194.992C34.1328 195.137 34.3887 195.209 34.6895 195.209C34.9902 195.209 35.2461 195.137 35.457 194.992C35.668 194.848 35.8398 194.631 35.9727 194.342C36.1094 194.053 36.207 193.689 36.2656 193.252C36.3281 192.811 36.3594 192.295 36.3594 191.705C36.3594 191.119 36.3281 190.607 36.2656 190.17C36.207 189.732 36.1094 189.369 35.9727 189.08C35.8398 188.791 35.668 188.574 35.457 188.43C35.2461 188.285 34.9902 188.213 34.6895 188.213C34.3887 188.213 34.1328 188.285 33.9219 188.43C33.7148 188.574 33.5469 188.791 33.418 189.08C33.2891 189.369 33.1953 189.732 33.1367 190.17C33.0781 190.607 33.0488 191.119 33.0488 191.705Z" fill="#595959"/>
</g>
<path d="M153.472 232.66V233.776H151.252V241H149.884V233.776H147.652V232.66H153.472ZM158.939 241L157.019 237.664H155.975V241H154.607V232.66H157.487C158.123 232.66 158.663 232.78 159.107 232.996C159.551 233.224 159.887 233.524 160.103 233.896C160.319 234.28 160.439 234.7 160.439 235.156C160.439 235.708 160.271 236.2 159.959 236.644C159.647 237.088 159.155 237.388 158.507 237.544L160.571 241H158.939ZM155.975 236.572H157.487C157.991 236.572 158.375 236.452 158.639 236.188C158.903 235.936 159.035 235.588 159.035 235.156C159.035 234.724 158.903 234.388 158.651 234.148C158.387 233.908 158.003 233.776 157.487 233.776H155.975V236.572ZM167.471 236.344C167.267 236.728 166.943 237.028 166.511 237.268C166.067 237.508 165.503 237.616 164.819 237.616H163.307V241H161.939V232.66H164.819C165.455 232.66 165.995 232.78 166.439 232.996C166.883 233.212 167.219 233.512 167.435 233.884C167.651 234.268 167.771 234.688 167.771 235.144C167.771 235.576 167.663 235.972 167.471 236.344ZM165.983 236.152C166.235 235.912 166.367 235.576 166.367 235.144C166.367 234.232 165.851 233.776 164.819 233.776H163.307V236.5H164.819C165.335 236.5 165.719 236.392 165.983 236.152ZM173.349 240.544C172.701 240.184 172.185 239.668 171.801 239.02C171.417 238.372 171.237 237.628 171.237 236.812C171.237 235.996 171.417 235.264 171.801 234.616C172.185 233.968 172.701 233.464 173.349 233.104C173.997 232.744 174.717 232.552 175.497 232.552C176.277 232.552 176.997 232.744 177.645 233.104C178.293 233.464 178.809 233.968 179.193 234.616C179.565 235.264 179.757 235.996 179.757 236.812C179.757 237.628 179.565 238.372 179.193 239.02C178.809 239.668 178.293 240.184 177.645 240.544C176.997 240.904 176.277 241.084 175.497 241.084C174.717 241.084 173.997 240.904 173.349 240.544ZM176.973 239.524C177.405 239.272 177.741 238.912 177.981 238.444C178.221 237.976 178.353 237.436 178.353 236.812C178.353 236.2 178.221 235.66 177.981 235.192C177.741 234.736 177.405 234.376 176.973 234.124C176.541 233.884 176.049 233.752 175.497 233.752C174.945 233.752 174.453 233.884 174.021 234.124C173.589 234.376 173.241 234.736 173.001 235.192C172.761 235.66 172.641 236.2 172.641 236.812C172.641 237.436 172.761 237.976 173.001 238.444C173.241 238.912 173.589 239.272 174.021 239.524C174.453 239.776 174.945 239.896 175.497 239.896C176.049 239.896 176.541 239.776 176.973 239.524ZM183.169 234.592C183.565 234.388 184.021 234.28 184.525 234.28C185.101 234.28 185.617 234.424 186.097 234.712C186.577 235 186.949 235.396 187.225 235.9C187.489 236.416 187.633 237.004 187.633 237.664C187.633 238.336 187.489 238.924 187.225 239.452C186.949 239.98 186.577 240.388 186.097 240.676C185.617 240.964 185.101 241.108 184.525 241.108C184.021 241.108 183.565 241.012 183.181 240.808C182.785 240.604 182.461 240.352 182.221 240.04V244.144H180.853V234.388H182.221V235.36C182.449 235.06 182.761 234.808 183.169 234.592ZM185.953 236.488C185.761 236.152 185.521 235.9 185.209 235.732C184.897 235.564 184.573 235.468 184.225 235.468C183.877 235.468 183.553 235.564 183.241 235.732C182.929 235.912 182.689 236.164 182.497 236.5C182.305 236.836 182.221 237.232 182.221 237.688C182.221 238.144 182.305 238.552 182.497 238.888C182.689 239.224 182.929 239.488 183.241 239.656C183.553 239.836 183.877 239.92 184.225 239.92C184.573 239.92 184.897 239.836 185.209 239.656C185.521 239.476 185.761 239.212 185.953 238.864C186.145 238.528 186.241 238.12 186.241 237.664C186.241 237.208 186.145 236.824 185.953 236.488ZM194.748 238.204H189.696C189.732 238.732 189.924 239.164 190.284 239.476C190.632 239.8 191.064 239.956 191.58 239.956C192.312 239.956 192.828 239.656 193.14 239.032H194.616C194.412 239.644 194.052 240.148 193.524 240.532C192.996 240.916 192.348 241.108 191.58 241.108C190.944 241.108 190.38 240.976 189.876 240.688C189.372 240.4 188.988 240.004 188.7 239.488C188.412 238.972 188.28 238.372 188.28 237.688C188.28 237.016 188.412 236.416 188.688 235.9C188.964 235.384 189.348 234.988 189.852 234.7C190.356 234.424 190.932 234.28 191.58 234.28C192.204 234.28 192.756 234.424 193.248 234.688C193.728 234.964 194.112 235.348 194.388 235.84C194.652 236.332 194.796 236.896 194.796 237.532C194.796 237.784 194.772 238.012 194.748 238.204ZM193.368 237.1C193.356 236.596 193.176 236.2 192.828 235.888C192.468 235.588 192.036 235.432 191.52 235.432C191.04 235.432 190.644 235.588 190.308 235.888C189.972 236.188 189.768 236.596 189.708 237.1H193.368ZM200.62 234.604C201.028 234.82 201.352 235.144 201.592 235.564C201.82 235.996 201.94 236.5 201.94 237.1V241H200.584V237.304C200.584 236.716 200.428 236.26 200.14 235.948C199.84 235.636 199.432 235.468 198.928 235.468C198.412 235.468 198.004 235.636 197.704 235.948C197.404 236.26 197.26 236.716 197.26 237.304V241H195.892V234.388H197.26V235.144C197.476 234.88 197.764 234.664 198.112 234.508C198.46 234.364 198.832 234.28 199.228 234.28C199.744 234.28 200.212 234.388 200.62 234.604ZM206.254 235.9C206.53 235.384 206.914 234.988 207.406 234.7C207.886 234.424 208.45 234.28 209.086 234.28C209.878 234.28 210.538 234.472 211.066 234.856C211.594 235.24 211.942 235.78 212.134 236.476H210.658C210.538 236.152 210.346 235.9 210.082 235.708C209.818 235.528 209.482 235.432 209.086 235.432C208.522 235.432 208.078 235.636 207.742 236.032C207.406 236.428 207.25 236.98 207.25 237.688C207.25 238.408 207.406 238.96 207.742 239.356C208.078 239.764 208.522 239.956 209.086 239.956C209.878 239.956 210.394 239.608 210.658 238.912H212.134C211.942 239.584 211.582 240.124 211.054 240.52C210.526 240.916 209.866 241.108 209.086 241.108C208.45 241.108 207.886 240.976 207.406 240.688C206.914 240.4 206.53 240.004 206.254 239.488C205.978 238.972 205.846 238.372 205.846 237.688C205.846 237.016 205.978 236.416 206.254 235.9ZM213.2 235.9C213.476 235.396 213.848 235 214.328 234.712C214.808 234.424 215.336 234.28 215.912 234.28C216.428 234.28 216.884 234.388 217.268 234.592C217.652 234.796 217.964 235.048 218.204 235.348V234.388H219.584V241H218.204V240.016C217.964 240.328 217.652 240.592 217.256 240.796C216.848 241.012 216.392 241.108 215.888 241.108C215.312 241.108 214.796 240.964 214.328 240.676C213.848 240.388 213.476 239.98 213.2 239.452C212.924 238.924 212.792 238.336 212.792 237.664C212.792 237.004 212.924 236.416 213.2 235.9ZM217.916 236.5C217.724 236.164 217.484 235.912 217.184 235.732C216.872 235.564 216.548 235.468 216.2 235.468C215.84 235.468 215.516 235.564 215.216 235.732C214.904 235.9 214.664 236.152 214.472 236.488C214.28 236.824 214.196 237.208 214.196 237.664C214.196 238.12 214.28 238.528 214.472 238.864C214.664 239.212 214.904 239.476 215.216 239.656C215.528 239.836 215.852 239.92 216.2 239.92C216.548 239.92 216.872 239.836 217.184 239.656C217.484 239.488 217.724 239.224 217.916 238.888C218.108 238.552 218.204 238.144 218.204 237.688C218.204 237.232 218.108 236.836 217.916 236.5ZM222.126 240.832C221.718 240.64 221.394 240.388 221.154 240.064C220.914 239.74 220.782 239.38 220.77 238.972H222.186C222.21 239.26 222.342 239.488 222.582 239.68C222.822 239.872 223.134 239.956 223.506 239.956C223.89 239.956 224.178 239.884 224.394 239.74C224.61 239.596 224.718 239.404 224.718 239.164C224.718 238.924 224.598 238.732 224.358 238.612C224.118 238.492 223.746 238.36 223.242 238.216C222.738 238.084 222.342 237.952 222.03 237.82C221.718 237.7 221.442 237.496 221.214 237.232C220.986 236.968 220.878 236.62 220.878 236.188C220.878 235.84 220.974 235.516 221.19 235.228C221.394 234.94 221.694 234.7 222.078 234.532C222.462 234.364 222.918 234.28 223.422 234.28C224.166 234.28 224.778 234.472 225.234 234.856C225.69 235.24 225.942 235.756 225.978 236.404H224.61C224.586 236.116 224.466 235.876 224.25 235.696C224.034 235.528 223.734 235.432 223.374 235.432C223.014 235.432 222.738 235.504 222.546 235.636C222.354 235.78 222.258 235.96 222.258 236.176C222.258 236.356 222.318 236.5 222.45 236.62C222.57 236.74 222.726 236.836 222.918 236.908C223.098 236.98 223.374 237.064 223.734 237.16C224.214 237.292 224.598 237.424 224.91 237.556C225.222 237.688 225.486 237.88 225.714 238.132C225.93 238.396 226.05 238.732 226.062 239.152C226.062 239.536 225.954 239.872 225.75 240.16C225.534 240.46 225.246 240.688 224.862 240.856C224.478 241.024 224.034 241.108 223.53 241.108C223.002 241.108 222.534 241.024 222.126 240.832ZM233.303 238.204H228.251C228.287 238.732 228.479 239.164 228.839 239.476C229.187 239.8 229.619 239.956 230.135 239.956C230.867 239.956 231.383 239.656 231.695 239.032H233.171C232.967 239.644 232.607 240.148 232.079 240.532C231.551 240.916 230.903 241.108 230.135 241.108C229.499 241.108 228.935 240.976 228.431 240.688C227.927 240.4 227.543 240.004 227.255 239.488C226.967 238.972 226.835 238.372 226.835 237.688C226.835 237.016 226.967 236.416 227.243 235.9C227.519 235.384 227.903 234.988 228.407 234.7C228.911 234.424 229.487 234.28 230.135 234.28C230.759 234.28 231.311 234.424 231.803 234.688C232.283 234.964 232.667 235.348 232.943 235.84C233.207 236.332 233.351 236.896 233.351 237.532C233.351 237.784 233.327 238.012 233.303 238.204ZM231.923 237.1C231.911 236.596 231.731 236.2 231.383 235.888C231.023 235.588 230.591 235.432 230.075 235.432C229.595 235.432 229.199 235.588 228.863 235.888C228.527 236.188 228.323 236.596 228.263 237.1H231.923ZM235.443 240.832C235.035 240.64 234.711 240.388 234.471 240.064C234.231 239.74 234.099 239.38 234.087 238.972H235.503C235.527 239.26 235.659 239.488 235.899 239.68C236.139 239.872 236.451 239.956 236.823 239.956C237.207 239.956 237.495 239.884 237.711 239.74C237.927 239.596 238.035 239.404 238.035 239.164C238.035 238.924 237.915 238.732 237.675 238.612C237.435 238.492 237.063 238.36 236.559 238.216C236.055 238.084 235.659 237.952 235.347 237.82C235.035 237.7 234.759 237.496 234.531 237.232C234.303 236.968 234.195 236.62 234.195 236.188C234.195 235.84 234.291 235.516 234.507 235.228C234.711 234.94 235.011 234.7 235.395 234.532C235.779 234.364 236.235 234.28 236.739 234.28C237.483 234.28 238.095 234.472 238.551 234.856C239.007 235.24 239.259 235.756 239.295 236.404H237.927C237.903 236.116 237.783 235.876 237.567 235.696C237.351 235.528 237.051 235.432 236.691 235.432C236.331 235.432 236.055 235.504 235.863 235.636C235.671 235.78 235.575 235.96 235.575 236.176C235.575 236.356 235.635 236.5 235.767 236.62C235.887 236.74 236.043 236.836 236.235 236.908C236.415 236.98 236.691 237.064 237.051 237.16C237.531 237.292 237.915 237.424 238.227 237.556C238.539 237.688 238.803 237.88 239.031 238.132C239.247 238.396 239.367 238.732 239.379 239.152C239.379 239.536 239.271 239.872 239.067 240.16C238.851 240.46 238.563 240.688 238.179 240.856C237.795 241.024 237.351 241.108 236.847 241.108C236.319 241.108 235.851 241.024 235.443 240.832ZM244.47 240.832C244.062 240.64 243.738 240.388 243.498 240.064C243.258 239.74 243.126 239.38 243.114 238.972H244.53C244.554 239.26 244.686 239.488 244.926 239.68C245.166 239.872 245.478 239.956 245.85 239.956C246.234 239.956 246.522 239.884 246.738 239.74C246.954 239.596 247.062 239.404 247.062 239.164C247.062 238.924 246.942 238.732 246.702 238.612C246.462 238.492 246.09 238.36 245.586 238.216C245.082 238.084 244.686 237.952 244.374 237.82C244.062 237.7 243.786 237.496 243.558 237.232C243.33 236.968 243.222 236.62 243.222 236.188C243.222 235.84 243.318 235.516 243.534 235.228C243.738 234.94 244.038 234.7 244.422 234.532C244.806 234.364 245.262 234.28 245.766 234.28C246.51 234.28 247.122 234.472 247.578 234.856C248.034 235.24 248.286 235.756 248.322 236.404H246.954C246.93 236.116 246.81 235.876 246.594 235.696C246.378 235.528 246.078 235.432 245.718 235.432C245.358 235.432 245.082 235.504 244.89 235.636C244.698 235.78 244.602 235.96 244.602 236.176C244.602 236.356 244.662 236.5 244.794 236.62C244.914 236.74 245.07 236.836 245.262 236.908C245.442 236.98 245.718 237.064 246.078 237.16C246.558 237.292 246.942 237.424 247.254 237.556C247.566 237.688 247.83 237.88 248.058 238.132C248.274 238.396 248.394 238.732 248.406 239.152C248.406 239.536 248.298 239.872 248.094 240.16C247.878 240.46 247.59 240.688 247.206 240.856C246.822 241.024 246.378 241.108 245.874 241.108C245.346 241.108 244.878 241.024 244.47 240.832ZM251.23 235.504V239.164C251.23 239.416 251.278 239.596 251.398 239.704C251.518 239.812 251.71 239.86 251.998 239.86H252.838V241H251.758C251.134 241 250.666 240.856 250.342 240.568C250.006 240.28 249.85 239.812 249.85 239.164V235.504H249.07V234.388H249.85V232.744H251.23V234.388H252.838V235.504H251.23ZM253.801 235.9C254.077 235.396 254.449 235 254.929 234.712C255.409 234.424 255.937 234.28 256.513 234.28C257.029 234.28 257.485 234.388 257.869 234.592C258.253 234.796 258.565 235.048 258.805 235.348V234.388H260.185V241H258.805V240.016C258.565 240.328 258.253 240.592 257.857 240.796C257.449 241.012 256.993 241.108 256.489 241.108C255.913 241.108 255.397 240.964 254.929 240.676C254.449 240.388 254.077 239.98 253.801 239.452C253.525 238.924 253.393 238.336 253.393 237.664C253.393 237.004 253.525 236.416 253.801 235.9ZM258.517 236.5C258.325 236.164 258.085 235.912 257.785 235.732C257.473 235.564 257.149 235.468 256.801 235.468C256.441 235.468 256.117 235.564 255.817 235.732C255.505 235.9 255.265 236.152 255.073 236.488C254.881 236.824 254.797 237.208 254.797 237.664C254.797 238.12 254.881 238.528 255.073 238.864C255.265 239.212 255.505 239.476 255.817 239.656C256.129 239.836 256.453 239.92 256.801 239.92C257.149 239.92 257.473 239.836 257.785 239.656C258.085 239.488 258.325 239.224 258.517 238.888C258.709 238.552 258.805 238.144 258.805 237.688C258.805 237.232 258.709 236.836 258.517 236.5ZM263.328 235.504V239.164C263.328 239.416 263.376 239.596 263.496 239.704C263.616 239.812 263.808 239.86 264.096 239.86H264.936V241H263.856C263.232 241 262.764 240.856 262.44 240.568C262.104 240.28 261.948 239.812 261.948 239.164V235.504H261.168V234.388H261.948V232.744H263.328V234.388H264.936V235.504H263.328ZM271.935 234.388V241H270.567V240.22C270.351 240.496 270.063 240.712 269.715 240.868C269.367 241.024 268.995 241.096 268.611 241.096C268.083 241.096 267.615 240.988 267.207 240.772C266.799 240.556 266.475 240.244 266.235 239.812C265.995 239.392 265.887 238.876 265.887 238.276V234.388H267.243V238.072C267.243 238.672 267.387 239.128 267.687 239.44C267.975 239.752 268.383 239.908 268.899 239.908C269.403 239.908 269.811 239.752 270.111 239.44C270.411 239.128 270.567 238.672 270.567 238.072V234.388H271.935ZM274.486 240.832C274.078 240.64 273.754 240.388 273.514 240.064C273.274 239.74 273.142 239.38 273.13 238.972H274.546C274.57 239.26 274.702 239.488 274.942 239.68C275.182 239.872 275.494 239.956 275.866 239.956C276.25 239.956 276.538 239.884 276.754 239.74C276.97 239.596 277.078 239.404 277.078 239.164C277.078 238.924 276.958 238.732 276.718 238.612C276.478 238.492 276.106 238.36 275.602 238.216C275.098 238.084 274.702 237.952 274.39 237.82C274.078 237.7 273.802 237.496 273.574 237.232C273.346 236.968 273.238 236.62 273.238 236.188C273.238 235.84 273.334 235.516 273.55 235.228C273.754 234.94 274.054 234.7 274.438 234.532C274.822 234.364 275.278 234.28 275.782 234.28C276.526 234.28 277.138 234.472 277.594 234.856C278.05 235.24 278.302 235.756 278.338 236.404H276.97C276.946 236.116 276.826 235.876 276.61 235.696C276.394 235.528 276.094 235.432 275.734 235.432C275.374 235.432 275.098 235.504 274.906 235.636C274.714 235.78 274.618 235.96 274.618 236.176C274.618 236.356 274.678 236.5 274.81 236.62C274.93 236.74 275.086 236.836 275.278 236.908C275.458 236.98 275.734 237.064 276.094 237.16C276.574 237.292 276.958 237.424 277.27 237.556C277.582 237.688 277.846 237.88 278.074 238.132C278.29 238.396 278.41 238.732 278.422 239.152C278.422 239.536 278.314 239.872 278.11 240.16C277.894 240.46 277.606 240.688 277.222 240.856C276.838 241.024 276.394 241.108 275.89 241.108C275.362 241.108 274.894 241.024 274.486 240.832Z" fill="#121212"/>
<path d="M33.6426 28.7051C33.6426 30.0762 33.2949 31.1543 32.5996 31.9395C31.9082 32.7246 30.9395 33.1172 29.6934 33.1172C28.4316 33.1172 27.4551 32.7324 26.7637 31.9629C26.0762 31.1895 25.7324 30.0996 25.7324 28.6934C25.7324 27.2988 26.0742 26.2188 26.7578 25.4531C27.4453 24.6836 28.4277 24.2988 29.7051 24.2988C30.9473 24.2988 31.9141 24.6895 32.6055 25.4707C33.2969 26.248 33.6426 27.3262 33.6426 28.7051ZM26.8691 28.7051C26.8691 29.8379 27.1094 30.7012 27.5898 31.2949C28.0703 31.8887 28.7715 32.1855 29.6934 32.1855C30.6113 32.1855 31.3086 31.8926 31.7852 31.3066C32.2617 30.7207 32.5 29.8535 32.5 28.7051C32.5 27.5605 32.2637 26.6992 31.791 26.1211C31.3184 25.5391 30.623 25.248 29.7051 25.248C28.7754 25.248 28.0703 25.543 27.5898 26.1328C27.1094 26.7188 26.8691 27.5762 26.8691 28.7051ZM38.4414 33.1172C37.5781 33.1172 36.9141 32.8066 36.4492 32.1855H36.3789L36.4023 32.4258C36.4336 32.7305 36.4492 33.002 36.4492 33.2402V35.8828H35.3945V26.5664H36.2617L36.4023 27.4453H36.4492C36.6992 27.0938 36.9883 26.8398 37.3164 26.6836C37.6445 26.5273 38.0234 26.4492 38.4531 26.4492C39.2891 26.4492 39.9375 26.7402 40.3984 27.3223C40.8633 27.9004 41.0957 28.7168 41.0957 29.7715C41.0957 30.8223 40.8633 31.6426 40.3984 32.2324C39.9336 32.8223 39.2812 33.1172 38.4414 33.1172ZM38.2656 27.334C37.6289 27.334 37.168 27.5137 36.8828 27.873C36.6016 28.2324 36.457 28.7969 36.4492 29.5664V29.7715C36.4492 30.6426 36.5938 31.2734 36.8828 31.6641C37.1719 32.0508 37.6406 32.2441 38.2891 32.2441C38.8281 32.2441 39.248 32.0254 39.5488 31.5879C39.8535 31.1504 40.0059 30.541 40.0059 29.7598C40.0059 28.9746 39.8535 28.375 39.5488 27.9609C39.248 27.543 38.8203 27.334 38.2656 27.334ZM45.5137 33.1172C44.5488 33.1172 43.791 32.8262 43.2402 32.2441C42.6934 31.6582 42.4199 30.8535 42.4199 29.8301C42.4199 28.7988 42.6758 27.9785 43.1875 27.3691C43.6992 26.7559 44.3906 26.4492 45.2617 26.4492C46.0703 26.4492 46.7148 26.7109 47.1953 27.2344C47.6758 27.7539 47.916 28.459 47.916 29.3496V29.9883H43.5098C43.5293 30.7188 43.7148 31.2734 44.0664 31.6523C44.418 32.0312 44.916 32.2207 45.5605 32.2207C45.9043 32.2207 46.2305 32.1914 46.5391 32.1328C46.8477 32.0703 47.209 31.9512 47.623 31.7754V32.7012C47.2676 32.8535 46.9336 32.9609 46.6211 33.0234C46.3086 33.0859 45.9395 33.1172 45.5137 33.1172ZM45.25 27.3105C44.7461 27.3105 44.3477 27.4727 44.0547 27.7969C43.7617 28.1211 43.5879 28.5723 43.5332 29.1504H46.8086C46.8008 28.5488 46.6621 28.0918 46.3926 27.7793C46.123 27.4668 45.7422 27.3105 45.25 27.3105ZM53.9336 33V28.8867C53.9336 28.3633 53.8164 27.9746 53.582 27.7207C53.3516 27.4629 52.9883 27.334 52.4922 27.334C51.832 27.334 51.3516 27.5176 51.0508 27.8848C50.7539 28.248 50.6055 28.8418 50.6055 29.666V33H49.5508V26.5664H50.4004L50.5586 27.4453H50.6172C50.8164 27.1289 51.0957 26.8848 51.4551 26.7129C51.8145 26.5371 52.2109 26.4492 52.6445 26.4492C53.4336 26.4492 54.0195 26.6406 54.4023 27.0234C54.7852 27.4062 54.9766 28.002 54.9766 28.8105V33H53.9336ZM63.9004 25.2598C62.9785 25.2598 62.2539 25.5684 61.7266 26.1855C61.1992 26.8027 60.9355 27.6465 60.9355 28.7168C60.9355 29.8223 61.1914 30.6758 61.7031 31.2773C62.2148 31.875 62.9434 32.1738 63.8887 32.1738C64.498 32.1738 65.1836 32.0605 65.9453 31.834V32.7715C65.582 32.9043 65.2324 32.9941 64.8965 33.041C64.5605 33.0918 64.1738 33.1172 63.7363 33.1172C62.4746 33.1172 61.502 32.7344 60.8184 31.9688C60.1387 31.1992 59.7988 30.1113 59.7988 28.7051C59.7988 27.8223 59.9609 27.0488 60.2852 26.3848C60.6133 25.7207 61.0879 25.209 61.709 24.8496C62.334 24.4902 63.0684 24.3105 63.9121 24.3105C64.8184 24.3105 65.6074 24.4785 66.2793 24.8145L65.8457 25.7285C65.1621 25.416 64.5137 25.2598 63.9004 25.2598ZM71.6406 33L71.4355 32.0859H71.3887C71.0684 32.4883 70.748 32.7617 70.4277 32.9062C70.1113 33.0469 69.7109 33.1172 69.2266 33.1172C68.5938 33.1172 68.0977 32.9512 67.7383 32.6191C67.3789 32.2871 67.1992 31.8184 67.1992 31.2129C67.1992 29.9082 68.2285 29.2246 70.2871 29.1621L71.377 29.1211V28.7402C71.377 28.252 71.2715 27.8926 71.0605 27.6621C70.8496 27.4277 70.5117 27.3105 70.0469 27.3105C69.707 27.3105 69.3848 27.3613 69.0801 27.4629C68.7793 27.5645 68.4961 27.6777 68.2305 27.8027L67.9082 27.0117C68.2324 26.8398 68.5859 26.7051 68.9688 26.6074C69.3516 26.5098 69.7305 26.4609 70.1055 26.4609C70.8828 26.4609 71.4609 26.6328 71.8398 26.9766C72.2188 27.3203 72.4082 27.8672 72.4082 28.6172V33H71.6406ZM69.4668 32.2676C70.0566 32.2676 70.5195 32.1094 70.8555 31.793C71.1953 31.4727 71.3652 31.0195 71.3652 30.4336V29.8535L70.416 29.8945C69.6777 29.9219 69.1387 30.0391 68.7988 30.2461C68.4629 30.4531 68.2949 30.7793 68.2949 31.2246C68.2949 31.5605 68.3965 31.8184 68.5996 31.998C68.8066 32.1777 69.0957 32.2676 69.4668 32.2676ZM78.5957 31.2246C78.5957 31.8262 78.3711 32.293 77.9219 32.625C77.4727 32.9531 76.8418 33.1172 76.0293 33.1172C75.1816 33.1172 74.5078 32.9824 74.0078 32.7129V31.752C74.7148 32.0957 75.3965 32.2676 76.0527 32.2676C76.584 32.2676 76.9707 32.1816 77.2129 32.0098C77.4551 31.8379 77.5762 31.6074 77.5762 31.3184C77.5762 31.0645 77.459 30.8496 77.2246 30.6738C76.9941 30.498 76.582 30.2969 75.9883 30.0703C75.3828 29.8359 74.957 29.6367 74.7109 29.4727C74.4648 29.3047 74.2832 29.1172 74.166 28.9102C74.0527 28.7031 73.9961 28.4512 73.9961 28.1543C73.9961 27.627 74.2109 27.2109 74.6406 26.9062C75.0703 26.6016 75.6602 26.4492 76.4102 26.4492C77.1406 26.4492 77.8242 26.5938 78.4609 26.8828L78.1035 27.7207C77.4512 27.4473 76.8633 27.3105 76.3398 27.3105C75.9023 27.3105 75.5703 27.3809 75.3438 27.5215C75.1172 27.6582 75.0039 27.8477 75.0039 28.0898C75.0039 28.3242 75.1016 28.5195 75.2969 28.6758C75.4922 28.8281 75.9473 29.041 76.6621 29.3145C77.1973 29.5137 77.5918 29.6992 77.8457 29.8711C78.1035 30.043 78.293 30.2363 78.4141 30.4512C78.5352 30.666 78.5957 30.9238 78.5957 31.2246ZM82.8965 33.1172C81.9316 33.1172 81.1738 32.8262 80.623 32.2441C80.0762 31.6582 79.8027 30.8535 79.8027 29.8301C79.8027 28.7988 80.0586 27.9785 80.5703 27.3691C81.082 26.7559 81.7734 26.4492 82.6445 26.4492C83.4531 26.4492 84.0977 26.7109 84.5781 27.2344C85.0586 27.7539 85.2988 28.459 85.2988 29.3496V29.9883H80.8926C80.9121 30.7188 81.0977 31.2734 81.4492 31.6523C81.8008 32.0312 82.2988 32.2207 82.9434 32.2207C83.2871 32.2207 83.6133 32.1914 83.9219 32.1328C84.2305 32.0703 84.5918 31.9512 85.0059 31.7754V32.7012C84.6504 32.8535 84.3164 32.9609 84.0039 33.0234C83.6914 33.0859 83.3223 33.1172 82.8965 33.1172ZM82.6328 27.3105C82.1289 27.3105 81.7305 27.4727 81.4375 27.7969C81.1445 28.1211 80.9707 28.5723 80.916 29.1504H84.1914C84.1836 28.5488 84.0449 28.0918 83.7754 27.7793C83.5059 27.4668 83.125 27.3105 82.6328 27.3105ZM91.123 31.2246C91.123 31.8262 90.8984 32.293 90.4492 32.625C90 32.9531 89.3691 33.1172 88.5566 33.1172C87.709 33.1172 87.0352 32.9824 86.5352 32.7129V31.752C87.2422 32.0957 87.9238 32.2676 88.5801 32.2676C89.1113 32.2676 89.498 32.1816 89.7402 32.0098C89.9824 31.8379 90.1035 31.6074 90.1035 31.3184C90.1035 31.0645 89.9863 30.8496 89.752 30.6738C89.5215 30.498 89.1094 30.2969 88.5156 30.0703C87.9102 29.8359 87.4844 29.6367 87.2383 29.4727C86.9922 29.3047 86.8105 29.1172 86.6934 28.9102C86.5801 28.7031 86.5234 28.4512 86.5234 28.1543C86.5234 27.627 86.7383 27.2109 87.168 26.9062C87.5977 26.6016 88.1875 26.4492 88.9375 26.4492C89.668 26.4492 90.3516 26.5938 90.9883 26.8828L90.6309 27.7207C89.9785 27.4473 89.3906 27.3105 88.8672 27.3105C88.4297 27.3105 88.0977 27.3809 87.8711 27.5215C87.6445 27.6582 87.5312 27.8477 87.5312 28.0898C87.5312 28.3242 87.6289 28.5195 87.8242 28.6758C88.0195 28.8281 88.4746 29.041 89.1895 29.3145C89.7246 29.5137 90.1191 29.6992 90.373 29.8711C90.6309 30.043 90.8203 30.2363 90.9414 30.4512C91.0625 30.666 91.123 30.9238 91.123 31.2246ZM95.3711 29.9297V28.9453H98.2773V29.9297H95.3711ZM108.004 28.0898C108.004 28.5 107.982 28.9102 107.939 29.3203C107.9 29.7266 107.828 30.1152 107.723 30.4863C107.621 30.8574 107.48 31.2051 107.301 31.5293C107.121 31.8496 106.893 32.127 106.615 32.3613C106.338 32.5957 106.006 32.7812 105.619 32.918C105.232 33.0508 104.779 33.1172 104.26 33.1172C104.186 33.1172 104.104 33.1152 104.014 33.1113C103.924 33.1074 103.834 33.0996 103.744 33.0879C103.654 33.0801 103.566 33.0703 103.48 33.0586C103.395 33.0469 103.318 33.0312 103.252 33.0117V32.0977C103.389 32.1484 103.543 32.1855 103.715 32.209C103.887 32.2324 104.057 32.2441 104.225 32.2441C104.752 32.2441 105.186 32.1523 105.525 31.9688C105.865 31.7852 106.135 31.5371 106.334 31.2246C106.533 30.9082 106.674 30.541 106.756 30.123C106.842 29.7051 106.895 29.2637 106.914 28.7988H106.838C106.76 28.9395 106.666 29.0703 106.557 29.1914C106.447 29.3125 106.318 29.418 106.17 29.5078C106.021 29.5977 105.854 29.668 105.666 29.7188C105.479 29.7695 105.27 29.7949 105.039 29.7949C104.668 29.7949 104.332 29.7383 104.031 29.625C103.73 29.5078 103.475 29.3379 103.264 29.1152C103.053 28.8926 102.889 28.6211 102.771 28.3008C102.658 27.9766 102.602 27.6074 102.602 27.1934C102.602 26.748 102.662 26.3477 102.783 25.9922C102.908 25.6328 103.082 25.3301 103.305 25.084C103.531 24.834 103.805 24.6426 104.125 24.5098C104.449 24.377 104.811 24.3105 105.209 24.3105C105.604 24.3105 105.971 24.3867 106.311 24.5391C106.65 24.6914 106.945 24.9238 107.195 25.2363C107.445 25.5488 107.643 25.9434 107.787 26.4199C107.932 26.8926 108.004 27.4492 108.004 28.0898ZM105.221 25.2129C104.986 25.2129 104.771 25.252 104.576 25.3301C104.385 25.4082 104.219 25.5293 104.078 25.6934C103.938 25.8574 103.828 26.0645 103.75 26.3145C103.676 26.5605 103.639 26.8535 103.639 27.1934C103.639 27.4668 103.67 27.7129 103.732 27.9316C103.799 28.1465 103.896 28.3301 104.025 28.4824C104.154 28.6348 104.314 28.752 104.506 28.834C104.701 28.916 104.928 28.957 105.186 28.957C105.451 28.957 105.691 28.9121 105.906 28.8223C106.121 28.7285 106.305 28.6094 106.457 28.4648C106.609 28.3164 106.727 28.1484 106.809 27.9609C106.895 27.7734 106.938 27.5859 106.938 27.3984C106.938 27.1367 106.9 26.877 106.826 26.6191C106.756 26.3574 106.648 26.123 106.504 25.916C106.363 25.7051 106.186 25.5352 105.971 25.4062C105.756 25.2773 105.506 25.2129 105.221 25.2129Z" fill="#121212"/>
<path d="M147.834 25.2598C146.912 25.2598 146.188 25.5684 145.66 26.1855C145.133 26.8027 144.869 27.6465 144.869 28.7168C144.869 29.8223 145.125 30.6758 145.637 31.2773C146.148 31.875 146.877 32.1738 147.822 32.1738C148.432 32.1738 149.117 32.0605 149.879 31.834V32.7715C149.516 32.9043 149.166 32.9941 148.83 33.041C148.494 33.0918 148.107 33.1172 147.67 33.1172C146.408 33.1172 145.436 32.7344 144.752 31.9688C144.072 31.1992 143.732 30.1113 143.732 28.7051C143.732 27.8223 143.895 27.0488 144.219 26.3848C144.547 25.7207 145.021 25.209 145.643 24.8496C146.268 24.4902 147.002 24.3105 147.846 24.3105C148.752 24.3105 149.541 24.4785 150.213 24.8145L149.779 25.7285C149.096 25.416 148.447 25.2598 147.834 25.2598ZM152.656 33H151.602V23.8828H152.656V33ZM160.285 29.7715C160.285 30.8223 160.02 31.6426 159.488 32.2324C158.957 32.8223 158.223 33.1172 157.285 33.1172C156.703 33.1172 156.188 32.9824 155.738 32.7129C155.289 32.4395 154.943 32.0488 154.701 31.541C154.459 31.0332 154.338 30.4434 154.338 29.7715C154.338 28.7246 154.6 27.9102 155.123 27.3281C155.646 26.7422 156.381 26.4492 157.326 26.4492C158.232 26.4492 158.951 26.748 159.482 27.3457C160.018 27.9395 160.285 28.748 160.285 29.7715ZM155.428 29.7715C155.428 30.5801 155.586 31.1953 155.902 31.6172C156.223 32.0352 156.693 32.2441 157.314 32.2441C157.928 32.2441 158.395 32.0352 158.715 31.6172C159.035 31.1953 159.195 30.5801 159.195 29.7715C159.195 28.9629 159.033 28.3555 158.709 27.9492C158.389 27.5391 157.918 27.334 157.297 27.334C156.051 27.334 155.428 28.1465 155.428 29.7715ZM166.15 31.2246C166.15 31.8262 165.926 32.293 165.477 32.625C165.027 32.9531 164.396 33.1172 163.584 33.1172C162.736 33.1172 162.062 32.9824 161.562 32.7129V31.752C162.27 32.0957 162.951 32.2676 163.607 32.2676C164.139 32.2676 164.525 32.1816 164.768 32.0098C165.01 31.8379 165.131 31.6074 165.131 31.3184C165.131 31.0645 165.014 30.8496 164.779 30.6738C164.549 30.498 164.137 30.2969 163.543 30.0703C162.938 29.8359 162.512 29.6367 162.266 29.4727C162.02 29.3047 161.838 29.1172 161.721 28.9102C161.607 28.7031 161.551 28.4512 161.551 28.1543C161.551 27.627 161.766 27.2109 162.195 26.9062C162.625 26.6016 163.215 26.4492 163.965 26.4492C164.695 26.4492 165.379 26.5938 166.016 26.8828L165.658 27.7207C165.006 27.4473 164.418 27.3105 163.895 27.3105C163.457 27.3105 163.125 27.3809 162.898 27.5215C162.672 27.6582 162.559 27.8477 162.559 28.0898C162.559 28.3242 162.656 28.5195 162.852 28.6758C163.047 28.8281 163.502 29.041 164.217 29.3145C164.752 29.5137 165.146 29.6992 165.4 29.8711C165.658 30.043 165.848 30.2363 165.969 30.4512C166.09 30.666 166.15 30.9238 166.15 31.2246ZM170.451 33.1172C169.486 33.1172 168.729 32.8262 168.178 32.2441C167.631 31.6582 167.357 30.8535 167.357 29.8301C167.357 28.7988 167.613 27.9785 168.125 27.3691C168.637 26.7559 169.328 26.4492 170.199 26.4492C171.008 26.4492 171.652 26.7109 172.133 27.2344C172.613 27.7539 172.854 28.459 172.854 29.3496V29.9883H168.447C168.467 30.7188 168.652 31.2734 169.004 31.6523C169.355 32.0312 169.854 32.2207 170.498 32.2207C170.842 32.2207 171.168 32.1914 171.477 32.1328C171.785 32.0703 172.146 31.9512 172.561 31.7754V32.7012C172.205 32.8535 171.871 32.9609 171.559 33.0234C171.246 33.0859 170.877 33.1172 170.451 33.1172ZM170.188 27.3105C169.684 27.3105 169.285 27.4727 168.992 27.7969C168.699 28.1211 168.525 28.5723 168.471 29.1504H171.746C171.738 28.5488 171.6 28.0918 171.33 27.7793C171.061 27.4668 170.68 27.3105 170.188 27.3105ZM176.768 33.1172C175.932 33.1172 175.283 32.8281 174.822 32.25C174.361 31.6719 174.131 30.8535 174.131 29.7949C174.131 28.7441 174.361 27.9238 174.822 27.334C175.287 26.7441 175.939 26.4492 176.779 26.4492C177.643 26.4492 178.307 26.7656 178.771 27.3984H178.848C178.836 27.3203 178.82 27.1641 178.801 26.9297C178.781 26.6914 178.771 26.5312 178.771 26.4492V23.8828H179.826V33H178.977L178.818 32.1387H178.771C178.322 32.791 177.654 33.1172 176.768 33.1172ZM176.938 32.2441C177.578 32.2441 178.045 32.0703 178.338 31.7227C178.635 31.3711 178.783 30.7969 178.783 30V29.8066C178.783 28.9121 178.633 28.2754 178.332 27.8965C178.035 27.5137 177.566 27.3223 176.926 27.3223C176.383 27.3223 175.963 27.5391 175.666 27.9727C175.369 28.4023 175.221 29.0176 175.221 29.8184C175.221 30.6152 175.367 31.2188 175.66 31.6289C175.957 32.0391 176.383 32.2441 176.938 32.2441ZM188.803 25.2598C187.881 25.2598 187.156 25.5684 186.629 26.1855C186.102 26.8027 185.838 27.6465 185.838 28.7168C185.838 29.8223 186.094 30.6758 186.605 31.2773C187.117 31.875 187.846 32.1738 188.791 32.1738C189.4 32.1738 190.086 32.0605 190.848 31.834V32.7715C190.484 32.9043 190.135 32.9941 189.799 33.041C189.463 33.0918 189.076 33.1172 188.639 33.1172C187.377 33.1172 186.404 32.7344 185.721 31.9688C185.041 31.1992 184.701 30.1113 184.701 28.7051C184.701 27.8223 184.863 27.0488 185.188 26.3848C185.516 25.7207 185.99 25.209 186.611 24.8496C187.236 24.4902 187.971 24.3105 188.814 24.3105C189.721 24.3105 190.51 24.4785 191.182 24.8145L190.748 25.7285C190.064 25.416 189.416 25.2598 188.803 25.2598ZM196.543 33L196.338 32.0859H196.291C195.971 32.4883 195.65 32.7617 195.33 32.9062C195.014 33.0469 194.613 33.1172 194.129 33.1172C193.496 33.1172 193 32.9512 192.641 32.6191C192.281 32.2871 192.102 31.8184 192.102 31.2129C192.102 29.9082 193.131 29.2246 195.189 29.1621L196.279 29.1211V28.7402C196.279 28.252 196.174 27.8926 195.963 27.6621C195.752 27.4277 195.414 27.3105 194.949 27.3105C194.609 27.3105 194.287 27.3613 193.982 27.4629C193.682 27.5645 193.398 27.6777 193.133 27.8027L192.811 27.0117C193.135 26.8398 193.488 26.7051 193.871 26.6074C194.254 26.5098 194.633 26.4609 195.008 26.4609C195.785 26.4609 196.363 26.6328 196.742 26.9766C197.121 27.3203 197.311 27.8672 197.311 28.6172V33H196.543ZM194.369 32.2676C194.959 32.2676 195.422 32.1094 195.758 31.793C196.098 31.4727 196.268 31.0195 196.268 30.4336V29.8535L195.318 29.8945C194.58 29.9219 194.041 30.0391 193.701 30.2461C193.365 30.4531 193.197 30.7793 193.197 31.2246C193.197 31.5605 193.299 31.8184 193.502 31.998C193.709 32.1777 193.998 32.2676 194.369 32.2676ZM203.498 31.2246C203.498 31.8262 203.273 32.293 202.824 32.625C202.375 32.9531 201.744 33.1172 200.932 33.1172C200.084 33.1172 199.41 32.9824 198.91 32.7129V31.752C199.617 32.0957 200.299 32.2676 200.955 32.2676C201.486 32.2676 201.873 32.1816 202.115 32.0098C202.357 31.8379 202.479 31.6074 202.479 31.3184C202.479 31.0645 202.361 30.8496 202.127 30.6738C201.896 30.498 201.484 30.2969 200.891 30.0703C200.285 29.8359 199.859 29.6367 199.613 29.4727C199.367 29.3047 199.186 29.1172 199.068 28.9102C198.955 28.7031 198.898 28.4512 198.898 28.1543C198.898 27.627 199.113 27.2109 199.543 26.9062C199.973 26.6016 200.562 26.4492 201.312 26.4492C202.043 26.4492 202.727 26.5938 203.363 26.8828L203.006 27.7207C202.354 27.4473 201.766 27.3105 201.242 27.3105C200.805 27.3105 200.473 27.3809 200.246 27.5215C200.02 27.6582 199.906 27.8477 199.906 28.0898C199.906 28.3242 200.004 28.5195 200.199 28.6758C200.395 28.8281 200.85 29.041 201.564 29.3145C202.1 29.5137 202.494 29.6992 202.748 29.8711C203.006 30.043 203.195 30.2363 203.316 30.4512C203.438 30.666 203.498 30.9238 203.498 31.2246ZM207.799 33.1172C206.834 33.1172 206.076 32.8262 205.525 32.2441C204.979 31.6582 204.705 30.8535 204.705 29.8301C204.705 28.7988 204.961 27.9785 205.473 27.3691C205.984 26.7559 206.676 26.4492 207.547 26.4492C208.355 26.4492 209 26.7109 209.48 27.2344C209.961 27.7539 210.201 28.459 210.201 29.3496V29.9883H205.795C205.814 30.7188 206 31.2734 206.352 31.6523C206.703 32.0312 207.201 32.2207 207.846 32.2207C208.189 32.2207 208.516 32.1914 208.824 32.1328C209.133 32.0703 209.494 31.9512 209.908 31.7754V32.7012C209.553 32.8535 209.219 32.9609 208.906 33.0234C208.594 33.0859 208.225 33.1172 207.799 33.1172ZM207.535 27.3105C207.031 27.3105 206.633 27.4727 206.34 27.7969C206.047 28.1211 205.873 28.5723 205.818 29.1504H209.094C209.086 28.5488 208.947 28.0918 208.678 27.7793C208.408 27.4668 208.027 27.3105 207.535 27.3105ZM216.025 31.2246C216.025 31.8262 215.801 32.293 215.352 32.625C214.902 32.9531 214.271 33.1172 213.459 33.1172C212.611 33.1172 211.938 32.9824 211.438 32.7129V31.752C212.145 32.0957 212.826 32.2676 213.482 32.2676C214.014 32.2676 214.4 32.1816 214.643 32.0098C214.885 31.8379 215.006 31.6074 215.006 31.3184C215.006 31.0645 214.889 30.8496 214.654 30.6738C214.424 30.498 214.012 30.2969 213.418 30.0703C212.812 29.8359 212.387 29.6367 212.141 29.4727C211.895 29.3047 211.713 29.1172 211.596 28.9102C211.482 28.7031 211.426 28.4512 211.426 28.1543C211.426 27.627 211.641 27.2109 212.07 26.9062C212.5 26.6016 213.09 26.4492 213.84 26.4492C214.57 26.4492 215.254 26.5938 215.891 26.8828L215.533 27.7207C214.881 27.4473 214.293 27.3105 213.77 27.3105C213.332 27.3105 213 27.3809 212.773 27.5215C212.547 27.6582 212.434 27.8477 212.434 28.0898C212.434 28.3242 212.531 28.5195 212.727 28.6758C212.922 28.8281 213.377 29.041 214.092 29.3145C214.627 29.5137 215.021 29.6992 215.275 29.8711C215.533 30.043 215.723 30.2363 215.844 30.4512C215.965 30.666 216.025 30.9238 216.025 31.2246ZM220.273 29.9297V28.9453H223.18V29.9297H220.273ZM232.514 26.4375C232.514 26.7227 232.469 26.9824 232.379 27.2168C232.289 27.4512 232.162 27.6543 231.998 27.8262C231.838 27.998 231.645 28.1406 231.418 28.2539C231.191 28.3633 230.939 28.4414 230.662 28.4883V28.5234C231.354 28.6094 231.879 28.8301 232.238 29.1855C232.598 29.5371 232.777 29.9961 232.777 30.5625C232.777 30.9375 232.713 31.2812 232.584 31.5938C232.459 31.9062 232.268 32.1758 232.01 32.4023C231.752 32.6289 231.426 32.8047 231.031 32.9297C230.637 33.0547 230.17 33.1172 229.631 33.1172C229.205 33.1172 228.803 33.084 228.424 33.0176C228.049 32.9512 227.695 32.8301 227.363 32.6543V31.6582C227.703 31.8379 228.07 31.9766 228.465 32.0742C228.863 32.1719 229.244 32.2207 229.607 32.2207C229.967 32.2207 230.277 32.1816 230.539 32.1035C230.801 32.0254 231.016 31.9141 231.184 31.7695C231.355 31.625 231.48 31.4473 231.559 31.2363C231.641 31.0254 231.682 30.7891 231.682 30.5273C231.682 30.2617 231.629 30.0352 231.523 29.8477C231.422 29.6562 231.275 29.5 231.084 29.3789C230.893 29.2539 230.658 29.1621 230.381 29.1035C230.107 29.0449 229.797 29.0156 229.449 29.0156H228.67V28.1309H229.449C229.766 28.1309 230.047 28.0918 230.293 28.0137C230.539 27.9355 230.744 27.8242 230.908 27.6797C231.076 27.5352 231.203 27.3633 231.289 27.1641C231.375 26.9648 231.418 26.7461 231.418 26.5078C231.418 26.3047 231.383 26.123 231.312 25.9629C231.242 25.8027 231.143 25.668 231.014 25.5586C230.885 25.4453 230.73 25.3594 230.551 25.3008C230.371 25.2422 230.172 25.2129 229.953 25.2129C229.535 25.2129 229.166 25.2793 228.846 25.4121C228.529 25.541 228.227 25.7109 227.938 25.9219L227.398 25.1895C227.547 25.0684 227.711 24.9551 227.891 24.8496C228.074 24.7441 228.273 24.6523 228.488 24.5742C228.703 24.4922 228.932 24.4277 229.174 24.3809C229.42 24.334 229.68 24.3105 229.953 24.3105C230.375 24.3105 230.744 24.3633 231.061 24.4688C231.381 24.5742 231.648 24.7227 231.863 24.9141C232.078 25.1016 232.24 25.3262 232.35 25.5879C232.459 25.8457 232.514 26.1289 232.514 26.4375Z" fill="#121212"/>
<path d="M272.643 28.7051C272.643 30.0762 272.295 31.1543 271.6 31.9395C270.908 32.7246 269.939 33.1172 268.693 33.1172C267.432 33.1172 266.455 32.7324 265.764 31.9629C265.076 31.1895 264.732 30.0996 264.732 28.6934C264.732 27.2988 265.074 26.2188 265.758 25.4531C266.445 24.6836 267.428 24.2988 268.705 24.2988C269.947 24.2988 270.914 24.6895 271.605 25.4707C272.297 26.248 272.643 27.3262 272.643 28.7051ZM265.869 28.7051C265.869 29.8379 266.109 30.7012 266.59 31.2949C267.07 31.8887 267.771 32.1855 268.693 32.1855C269.611 32.1855 270.309 31.8926 270.785 31.3066C271.262 30.7207 271.5 29.8535 271.5 28.7051C271.5 27.5605 271.264 26.6992 270.791 26.1211C270.318 25.5391 269.623 25.248 268.705 25.248C267.775 25.248 267.07 25.543 266.59 26.1328C266.109 26.7188 265.869 27.5762 265.869 28.7051ZM278.777 33V28.8867C278.777 28.3633 278.66 27.9746 278.426 27.7207C278.195 27.4629 277.832 27.334 277.336 27.334C276.676 27.334 276.195 27.5176 275.895 27.8848C275.598 28.248 275.449 28.8418 275.449 29.666V33H274.395V26.5664H275.244L275.402 27.4453H275.461C275.66 27.1289 275.939 26.8848 276.299 26.7129C276.658 26.5371 277.055 26.4492 277.488 26.4492C278.277 26.4492 278.863 26.6406 279.246 27.0234C279.629 27.4062 279.82 28.002 279.82 28.8105V33H278.777ZM291.627 33H290.549V29.0039H286.154V33H285.076V24.4336H286.154V28.0547H290.549V24.4336H291.627V33ZM299.414 29.7715C299.414 30.8223 299.148 31.6426 298.617 32.2324C298.086 32.8223 297.352 33.1172 296.414 33.1172C295.832 33.1172 295.316 32.9824 294.867 32.7129C294.418 32.4395 294.072 32.0488 293.83 31.541C293.588 31.0332 293.467 30.4434 293.467 29.7715C293.467 28.7246 293.729 27.9102 294.252 27.3281C294.775 26.7422 295.51 26.4492 296.455 26.4492C297.361 26.4492 298.08 26.748 298.611 27.3457C299.146 27.9395 299.414 28.748 299.414 29.7715ZM294.557 29.7715C294.557 30.5801 294.715 31.1953 295.031 31.6172C295.352 32.0352 295.822 32.2441 296.443 32.2441C297.057 32.2441 297.523 32.0352 297.844 31.6172C298.164 31.1953 298.324 30.5801 298.324 29.7715C298.324 28.9629 298.162 28.3555 297.838 27.9492C297.518 27.5391 297.047 27.334 296.426 27.334C295.18 27.334 294.557 28.1465 294.557 29.7715ZM302.145 33H301.09V23.8828H302.145V33ZM306.463 33.1172C305.627 33.1172 304.979 32.8281 304.518 32.25C304.057 31.6719 303.826 30.8535 303.826 29.7949C303.826 28.7441 304.057 27.9238 304.518 27.334C304.982 26.7441 305.635 26.4492 306.475 26.4492C307.338 26.4492 308.002 26.7656 308.467 27.3984H308.543C308.531 27.3203 308.516 27.1641 308.496 26.9297C308.477 26.6914 308.467 26.5312 308.467 26.4492V23.8828H309.521V33H308.672L308.514 32.1387H308.467C308.018 32.791 307.35 33.1172 306.463 33.1172ZM306.633 32.2441C307.273 32.2441 307.74 32.0703 308.033 31.7227C308.33 31.3711 308.479 30.7969 308.479 30V29.8066C308.479 28.9121 308.328 28.2754 308.027 27.8965C307.73 27.5137 307.262 27.3223 306.621 27.3223C306.078 27.3223 305.658 27.5391 305.361 27.9727C305.064 28.4023 304.916 29.0176 304.916 29.8184C304.916 30.6152 305.062 31.2188 305.355 31.6289C305.652 32.0391 306.078 32.2441 306.633 32.2441ZM318.498 25.2598C317.576 25.2598 316.852 25.5684 316.324 26.1855C315.797 26.8027 315.533 27.6465 315.533 28.7168C315.533 29.8223 315.789 30.6758 316.301 31.2773C316.812 31.875 317.541 32.1738 318.486 32.1738C319.096 32.1738 319.781 32.0605 320.543 31.834V32.7715C320.18 32.9043 319.83 32.9941 319.494 33.041C319.158 33.0918 318.771 33.1172 318.334 33.1172C317.072 33.1172 316.1 32.7344 315.416 31.9688C314.736 31.1992 314.396 30.1113 314.396 28.7051C314.396 27.8223 314.559 27.0488 314.883 26.3848C315.211 25.7207 315.686 25.209 316.307 24.8496C316.932 24.4902 317.666 24.3105 318.51 24.3105C319.416 24.3105 320.205 24.4785 320.877 24.8145L320.443 25.7285C319.76 25.416 319.111 25.2598 318.498 25.2598ZM326.238 33L326.033 32.0859H325.986C325.666 32.4883 325.346 32.7617 325.025 32.9062C324.709 33.0469 324.309 33.1172 323.824 33.1172C323.191 33.1172 322.695 32.9512 322.336 32.6191C321.977 32.2871 321.797 31.8184 321.797 31.2129C321.797 29.9082 322.826 29.2246 324.885 29.1621L325.975 29.1211V28.7402C325.975 28.252 325.869 27.8926 325.658 27.6621C325.447 27.4277 325.109 27.3105 324.645 27.3105C324.305 27.3105 323.982 27.3613 323.678 27.4629C323.377 27.5645 323.094 27.6777 322.828 27.8027L322.506 27.0117C322.83 26.8398 323.184 26.7051 323.566 26.6074C323.949 26.5098 324.328 26.4609 324.703 26.4609C325.48 26.4609 326.059 26.6328 326.438 26.9766C326.816 27.3203 327.006 27.8672 327.006 28.6172V33H326.238ZM324.064 32.2676C324.654 32.2676 325.117 32.1094 325.453 31.793C325.793 31.4727 325.963 31.0195 325.963 30.4336V29.8535L325.014 29.8945C324.275 29.9219 323.736 30.0391 323.396 30.2461C323.061 30.4531 322.893 30.7793 322.893 31.2246C322.893 31.5605 322.994 31.8184 323.197 31.998C323.404 32.1777 323.693 32.2676 324.064 32.2676ZM333.193 31.2246C333.193 31.8262 332.969 32.293 332.52 32.625C332.07 32.9531 331.439 33.1172 330.627 33.1172C329.779 33.1172 329.105 32.9824 328.605 32.7129V31.752C329.312 32.0957 329.994 32.2676 330.65 32.2676C331.182 32.2676 331.568 32.1816 331.811 32.0098C332.053 31.8379 332.174 31.6074 332.174 31.3184C332.174 31.0645 332.057 30.8496 331.822 30.6738C331.592 30.498 331.18 30.2969 330.586 30.0703C329.98 29.8359 329.555 29.6367 329.309 29.4727C329.062 29.3047 328.881 29.1172 328.764 28.9102C328.65 28.7031 328.594 28.4512 328.594 28.1543C328.594 27.627 328.809 27.2109 329.238 26.9062C329.668 26.6016 330.258 26.4492 331.008 26.4492C331.738 26.4492 332.422 26.5938 333.059 26.8828L332.701 27.7207C332.049 27.4473 331.461 27.3105 330.938 27.3105C330.5 27.3105 330.168 27.3809 329.941 27.5215C329.715 27.6582 329.602 27.8477 329.602 28.0898C329.602 28.3242 329.699 28.5195 329.895 28.6758C330.09 28.8281 330.545 29.041 331.26 29.3145C331.795 29.5137 332.189 29.6992 332.443 29.8711C332.701 30.043 332.891 30.2363 333.012 30.4512C333.133 30.666 333.193 30.9238 333.193 31.2246ZM337.494 33.1172C336.529 33.1172 335.771 32.8262 335.221 32.2441C334.674 31.6582 334.4 30.8535 334.4 29.8301C334.4 28.7988 334.656 27.9785 335.168 27.3691C335.68 26.7559 336.371 26.4492 337.242 26.4492C338.051 26.4492 338.695 26.7109 339.176 27.2344C339.656 27.7539 339.896 28.459 339.896 29.3496V29.9883H335.49C335.51 30.7188 335.695 31.2734 336.047 31.6523C336.398 32.0312 336.896 32.2207 337.541 32.2207C337.885 32.2207 338.211 32.1914 338.52 32.1328C338.828 32.0703 339.189 31.9512 339.604 31.7754V32.7012C339.248 32.8535 338.914 32.9609 338.602 33.0234C338.289 33.0859 337.92 33.1172 337.494 33.1172ZM337.23 27.3105C336.727 27.3105 336.328 27.4727 336.035 27.7969C335.742 28.1211 335.568 28.5723 335.514 29.1504H338.789C338.781 28.5488 338.643 28.0918 338.373 27.7793C338.104 27.4668 337.723 27.3105 337.23 27.3105ZM345.721 31.2246C345.721 31.8262 345.496 32.293 345.047 32.625C344.598 32.9531 343.967 33.1172 343.154 33.1172C342.307 33.1172 341.633 32.9824 341.133 32.7129V31.752C341.84 32.0957 342.521 32.2676 343.178 32.2676C343.709 32.2676 344.096 32.1816 344.338 32.0098C344.58 31.8379 344.701 31.6074 344.701 31.3184C344.701 31.0645 344.584 30.8496 344.35 30.6738C344.119 30.498 343.707 30.2969 343.113 30.0703C342.508 29.8359 342.082 29.6367 341.836 29.4727C341.59 29.3047 341.408 29.1172 341.291 28.9102C341.178 28.7031 341.121 28.4512 341.121 28.1543C341.121 27.627 341.336 27.2109 341.766 26.9062C342.195 26.6016 342.785 26.4492 343.535 26.4492C344.266 26.4492 344.949 26.5938 345.586 26.8828L345.229 27.7207C344.576 27.4473 343.988 27.3105 343.465 27.3105C343.027 27.3105 342.695 27.3809 342.469 27.5215C342.242 27.6582 342.129 27.8477 342.129 28.0898C342.129 28.3242 342.227 28.5195 342.422 28.6758C342.617 28.8281 343.072 29.041 343.787 29.3145C344.322 29.5137 344.717 29.6992 344.971 29.8711C345.229 30.043 345.418 30.2363 345.539 30.4512C345.66 30.666 345.721 30.9238 345.721 31.2246ZM349.969 29.9297V28.9453H352.875V29.9297H349.969ZM360.744 33H359.713V27.6504C359.713 27.4824 359.713 27.3027 359.713 27.1113C359.717 26.9199 359.721 26.7305 359.725 26.543C359.732 26.3516 359.738 26.1699 359.742 25.998C359.75 25.8223 359.756 25.668 359.76 25.5352C359.693 25.6055 359.635 25.666 359.584 25.7168C359.533 25.7676 359.48 25.8164 359.426 25.8633C359.375 25.9102 359.32 25.9609 359.262 26.0156C359.203 26.0664 359.133 26.127 359.051 26.1973L358.184 26.9062L357.621 26.1855L359.865 24.4336H360.744V33Z" fill="#121212"/>
</g>
<defs>
<clipPath id="clip0_0_1">
<rect width="425" height="265" rx="4" fill="white"/>
</clipPath>
<clipPath id="clip1_0_1">
<rect width="40" height="16" fill="white" transform="translate(-2 60)"/>
</clipPath>
<clipPath id="clip2_0_1">
<rect width="40" height="16" fill="white" transform="translate(-2 141)"/>
</clipPath>
<clipPath id="clip3_0_1">
<rect width="40" height="16" fill="white" transform="translate(-2 101)"/>
</clipPath>
<clipPath id="clip4_0_1">
<rect width="40" height="16" fill="white" transform="translate(-2 182)"/>
</clipPath>
</defs>
</svg>
