<svg width="425" height="265" viewBox="0 0 425 265" fill="none" xmlns="http://www.w3.org/2000/svg">
<rect width="425" height="265" fill="#F5F5F5"/>
<rect x="-16618" y="-5720" width="23840" height="13376" fill="#F8FAF9"/>
<g style="mix-blend-mode:luminosity">
<g clip-path="url(#clip0_0_1)">
<rect width="425" height="265" rx="4" fill="white"/>
<path d="M28.9805 79H27.8965V71.3828H25.2188V70.4336H31.6406V71.3828H28.9805V79ZM36.498 71.2598C35.5762 71.2598 34.8516 71.5684 34.3242 72.1855C33.7969 72.8027 33.5332 73.6465 33.5332 74.7168C33.5332 75.8223 33.7891 76.6758 34.3008 77.2773C34.8125 77.875 35.541 78.1738 36.4863 78.1738C37.0957 78.1738 37.7812 78.0605 38.543 77.834V78.7715C38.1797 78.9043 37.8301 78.9941 37.4941 79.041C37.1582 79.0918 36.7715 79.1172 36.334 79.1172C35.0723 79.1172 34.0996 78.7344 33.416 77.9688C32.7363 77.1992 32.3965 76.1113 32.3965 74.7051C32.3965 73.8223 32.5586 73.0488 32.8828 72.3848C33.2109 71.7207 33.6855 71.209 34.3066 70.8496C34.9316 70.4902 35.666 70.3105 36.5098 70.3105C37.416 70.3105 38.2051 70.4785 38.877 70.8145L38.4434 71.7285C37.7598 71.416 37.1113 71.2598 36.498 71.2598ZM39.832 75.9297V74.9453H42.7383V75.9297H39.832ZM49.8633 79L48.832 76.3457H45.4336L44.4141 79H43.3242L46.6699 70.3984H47.6426L50.9824 79H49.8633ZM48.5098 75.3906L47.5488 72.7949L47.1387 71.5117C47.0215 71.9805 46.8984 72.4082 46.7695 72.7949L45.7969 75.3906H48.5098Z" fill="#595959"/>
<path d="M28.8516 119H27.7676V111.383H25.0898V110.434H31.5117V111.383H28.8516V119ZM36.3691 111.26C35.4473 111.26 34.7227 111.568 34.1953 112.186C33.668 112.803 33.4043 113.646 33.4043 114.717C33.4043 115.822 33.6602 116.676 34.1719 117.277C34.6836 117.875 35.4121 118.174 36.3574 118.174C36.9668 118.174 37.6523 118.061 38.4141 117.834V118.771C38.0508 118.904 37.7012 118.994 37.3652 119.041C37.0293 119.092 36.6426 119.117 36.2051 119.117C34.9434 119.117 33.9707 118.734 33.2871 117.969C32.6074 117.199 32.2676 116.111 32.2676 114.705C32.2676 113.822 32.4297 113.049 32.7539 112.385C33.082 111.721 33.5566 111.209 34.1777 110.85C34.8027 110.49 35.5371 110.311 36.3809 110.311C37.2871 110.311 38.0762 110.479 38.748 110.814L38.3145 111.729C37.6309 111.416 36.9824 111.26 36.3691 111.26ZM39.7031 115.93V114.945H42.6094V115.93H39.7031ZM44.3613 110.434H46.8047C47.9531 110.434 48.7812 110.605 49.2891 110.949C49.8008 111.289 50.0566 111.824 50.0566 112.555C50.0566 113.062 49.918 113.482 49.6406 113.814C49.3633 114.143 48.959 114.355 48.4277 114.453V114.512C49.0879 114.625 49.5723 114.854 49.8809 115.197C50.1934 115.541 50.3496 115.996 50.3496 116.562C50.3496 117.328 50.0879 117.926 49.5645 118.355C49.041 118.785 48.3105 119 47.373 119H44.3613V110.434ZM45.4395 114.078H47.0215C47.6934 114.078 48.1816 113.971 48.4863 113.756C48.791 113.541 48.9434 113.182 48.9434 112.678C48.9434 112.209 48.7754 111.871 48.4395 111.664C48.1074 111.457 47.5801 111.354 46.8574 111.354H45.4395V114.078ZM45.4395 114.98V118.086H47.168C47.8555 118.086 48.3652 117.953 48.6973 117.688C49.0293 117.422 49.1953 117.02 49.1953 116.48C49.1953 115.969 49.0195 115.592 48.668 115.35C48.3164 115.104 47.7891 114.98 47.0859 114.98H45.4395Z" fill="#595959"/>
<path d="M29.0742 159H27.9902V151.383H25.3125V150.434H31.7344V151.383H29.0742V159ZM36.5918 151.26C35.6699 151.26 34.9453 151.568 34.418 152.186C33.8906 152.803 33.627 153.646 33.627 154.717C33.627 155.822 33.8828 156.676 34.3945 157.277C34.9062 157.875 35.6348 158.174 36.5801 158.174C37.1895 158.174 37.875 158.061 38.6367 157.834V158.771C38.2734 158.904 37.9238 158.994 37.5879 159.041C37.252 159.092 36.8652 159.117 36.4277 159.117C35.166 159.117 34.1934 158.734 33.5098 157.969C32.8301 157.199 32.4902 156.111 32.4902 154.705C32.4902 153.822 32.6523 153.049 32.9766 152.385C33.3047 151.721 33.7793 151.209 34.4004 150.85C35.0254 150.49 35.7598 150.311 36.6035 150.311C37.5098 150.311 38.2988 150.479 38.9707 150.814L38.5371 151.729C37.8535 151.416 37.2051 151.26 36.5918 151.26ZM39.9258 155.93V154.945H42.832V155.93H39.9258ZM48.252 151.26C47.3301 151.26 46.6055 151.568 46.0781 152.186C45.5508 152.803 45.2871 153.646 45.2871 154.717C45.2871 155.822 45.543 156.676 46.0547 157.277C46.5664 157.875 47.2949 158.174 48.2402 158.174C48.8496 158.174 49.5352 158.061 50.2969 157.834V158.771C49.9336 158.904 49.584 158.994 49.248 159.041C48.9121 159.092 48.5254 159.117 48.0879 159.117C46.8262 159.117 45.8535 158.734 45.1699 157.969C44.4902 157.199 44.1504 156.111 44.1504 154.705C44.1504 153.822 44.3125 153.049 44.6367 152.385C44.9648 151.721 45.4395 151.209 46.0605 150.85C46.6855 150.49 47.4199 150.311 48.2637 150.311C49.1699 150.311 49.959 150.479 50.6309 150.814L50.1973 151.729C49.5137 151.416 48.8652 151.26 48.252 151.26Z" fill="#595959"/>
<rect x="62" y="185" width="319" height="1" fill="#CED7D4"/>
<path d="M70 52H71V192H70V52Z" fill="#CED7D4"/>
<path d="M79.4375 197.705C79.4375 198.396 79.3867 199.016 79.2852 199.562C79.1875 200.109 79.0273 200.572 78.8047 200.951C78.5859 201.33 78.3027 201.619 77.9551 201.818C77.6074 202.018 77.1855 202.117 76.6895 202.117C76.2285 202.117 75.8262 202.018 75.4824 201.818C75.1426 201.619 74.8594 201.33 74.6328 200.951C74.4102 200.572 74.2422 200.109 74.1289 199.562C74.0195 199.016 73.9648 198.396 73.9648 197.705C73.9648 197.014 74.0137 196.395 74.1113 195.848C74.2129 195.301 74.3711 194.84 74.5859 194.465C74.8047 194.086 75.0859 193.797 75.4297 193.598C75.7773 193.398 76.1973 193.299 76.6895 193.299C77.1543 193.299 77.5586 193.398 77.9023 193.598C78.2461 193.793 78.5312 194.08 78.7578 194.459C78.9844 194.834 79.1543 195.295 79.2676 195.842C79.3809 196.389 79.4375 197.01 79.4375 197.705ZM75.0488 197.705C75.0488 198.291 75.0781 198.803 75.1367 199.24C75.1953 199.678 75.2891 200.043 75.418 200.336C75.5469 200.625 75.7148 200.844 75.9219 200.992C76.1328 201.137 76.3887 201.209 76.6895 201.209C76.9902 201.209 77.2461 201.137 77.457 200.992C77.668 200.848 77.8398 200.631 77.9727 200.342C78.1094 200.053 78.207 199.689 78.2656 199.252C78.3281 198.811 78.3594 198.295 78.3594 197.705C78.3594 197.119 78.3281 196.607 78.2656 196.17C78.207 195.732 78.1094 195.369 77.9727 195.08C77.8398 194.791 77.668 194.574 77.457 194.43C77.2461 194.285 76.9902 194.213 76.6895 194.213C76.3887 194.213 76.1328 194.285 75.9219 194.43C75.7148 194.574 75.5469 194.791 75.418 195.08C75.2891 195.369 75.1953 195.732 75.1367 196.17C75.0781 196.607 75.0488 197.119 75.0488 197.705Z" fill="#595959"/>
<path d="M122.447 202H121.416V196.65C121.416 196.482 121.416 196.303 121.416 196.111C121.42 195.92 121.424 195.73 121.428 195.543C121.436 195.352 121.441 195.17 121.445 194.998C121.453 194.822 121.459 194.668 121.463 194.535C121.396 194.605 121.338 194.666 121.287 194.717C121.236 194.768 121.184 194.816 121.129 194.863C121.078 194.91 121.023 194.961 120.965 195.016C120.906 195.066 120.836 195.127 120.754 195.197L119.887 195.906L119.324 195.186L121.568 193.434H122.447V202ZM125.553 198.338C125.553 197.928 125.572 197.52 125.611 197.113C125.654 196.707 125.727 196.318 125.828 195.947C125.934 195.572 126.076 195.225 126.256 194.904C126.436 194.584 126.664 194.307 126.941 194.072C127.219 193.834 127.551 193.648 127.938 193.516C128.324 193.379 128.777 193.311 129.297 193.311C129.371 193.311 129.453 193.312 129.543 193.316C129.633 193.32 129.723 193.328 129.812 193.34C129.906 193.348 129.994 193.359 130.076 193.375C130.162 193.387 130.238 193.402 130.305 193.422V194.33C130.168 194.283 130.014 194.248 129.842 194.225C129.67 194.201 129.5 194.189 129.332 194.189C128.98 194.189 128.67 194.232 128.4 194.318C128.135 194.4 127.904 194.518 127.709 194.67C127.514 194.822 127.35 195.004 127.217 195.215C127.088 195.426 126.982 195.66 126.9 195.918C126.818 196.172 126.758 196.443 126.719 196.732C126.68 197.021 126.654 197.322 126.643 197.635H126.713C126.791 197.494 126.885 197.363 126.994 197.242C127.107 197.117 127.238 197.012 127.387 196.926C127.535 196.836 127.701 196.766 127.885 196.715C128.072 196.664 128.281 196.639 128.512 196.639C128.883 196.639 129.219 196.697 129.52 196.814C129.82 196.928 130.076 197.096 130.287 197.318C130.498 197.541 130.66 197.814 130.773 198.139C130.891 198.459 130.949 198.826 130.949 199.24C130.949 199.686 130.889 200.086 130.768 200.441C130.646 200.797 130.473 201.1 130.246 201.35C130.02 201.596 129.746 201.785 129.426 201.918C129.105 202.051 128.746 202.117 128.348 202.117C127.957 202.117 127.59 202.041 127.246 201.889C126.906 201.736 126.611 201.504 126.361 201.191C126.111 200.879 125.914 200.486 125.77 200.014C125.625 199.541 125.553 198.982 125.553 198.338ZM128.336 201.221C128.57 201.221 128.783 201.182 128.975 201.104C129.17 201.021 129.338 200.9 129.479 200.74C129.619 200.576 129.727 200.371 129.801 200.125C129.879 199.875 129.918 199.58 129.918 199.24C129.918 198.967 129.885 198.723 129.818 198.508C129.756 198.289 129.66 198.104 129.531 197.951C129.402 197.799 129.24 197.682 129.045 197.6C128.854 197.518 128.629 197.477 128.371 197.477C128.109 197.477 127.869 197.523 127.65 197.617C127.436 197.707 127.252 197.826 127.1 197.975C126.947 198.119 126.828 198.285 126.742 198.473C126.66 198.66 126.619 198.848 126.619 199.035C126.619 199.297 126.654 199.559 126.725 199.82C126.799 200.078 126.906 200.311 127.047 200.518C127.191 200.725 127.371 200.895 127.586 201.027C127.801 201.156 128.051 201.221 128.336 201.221ZM137.547 197.705C137.547 198.396 137.496 199.016 137.395 199.562C137.297 200.109 137.137 200.572 136.914 200.951C136.695 201.33 136.412 201.619 136.064 201.818C135.717 202.018 135.295 202.117 134.799 202.117C134.338 202.117 133.936 202.018 133.592 201.818C133.252 201.619 132.969 201.33 132.742 200.951C132.52 200.572 132.352 200.109 132.238 199.562C132.129 199.016 132.074 198.396 132.074 197.705C132.074 197.014 132.123 196.395 132.221 195.848C132.322 195.301 132.48 194.84 132.695 194.465C132.914 194.086 133.195 193.797 133.539 193.598C133.887 193.398 134.307 193.299 134.799 193.299C135.264 193.299 135.668 193.398 136.012 193.598C136.355 193.793 136.641 194.08 136.867 194.459C137.094 194.834 137.264 195.295 137.377 195.842C137.49 196.389 137.547 197.01 137.547 197.705ZM133.158 197.705C133.158 198.291 133.188 198.803 133.246 199.24C133.305 199.678 133.398 200.043 133.527 200.336C133.656 200.625 133.824 200.844 134.031 200.992C134.242 201.137 134.498 201.209 134.799 201.209C135.1 201.209 135.355 201.137 135.566 200.992C135.777 200.848 135.949 200.631 136.082 200.342C136.219 200.053 136.316 199.689 136.375 199.252C136.438 198.811 136.469 198.295 136.469 197.705C136.469 197.119 136.438 196.607 136.375 196.17C136.316 195.732 136.219 195.369 136.082 195.08C135.949 194.791 135.777 194.574 135.566 194.43C135.355 194.285 135.1 194.213 134.799 194.213C134.498 194.213 134.242 194.285 134.031 194.43C133.824 194.574 133.656 194.791 133.527 195.08C133.398 195.369 133.305 195.732 133.246 196.17C133.188 196.607 133.158 197.119 133.158 197.705ZM144.156 197.705C144.156 198.396 144.105 199.016 144.004 199.562C143.906 200.109 143.746 200.572 143.523 200.951C143.305 201.33 143.021 201.619 142.674 201.818C142.326 202.018 141.904 202.117 141.408 202.117C140.947 202.117 140.545 202.018 140.201 201.818C139.861 201.619 139.578 201.33 139.352 200.951C139.129 200.572 138.961 200.109 138.848 199.562C138.738 199.016 138.684 198.396 138.684 197.705C138.684 197.014 138.732 196.395 138.83 195.848C138.932 195.301 139.09 194.84 139.305 194.465C139.523 194.086 139.805 193.797 140.148 193.598C140.496 193.398 140.916 193.299 141.408 193.299C141.873 193.299 142.277 193.398 142.621 193.598C142.965 193.793 143.25 194.08 143.477 194.459C143.703 194.834 143.873 195.295 143.986 195.842C144.1 196.389 144.156 197.01 144.156 197.705ZM139.768 197.705C139.768 198.291 139.797 198.803 139.855 199.24C139.914 199.678 140.008 200.043 140.137 200.336C140.266 200.625 140.434 200.844 140.641 200.992C140.852 201.137 141.107 201.209 141.408 201.209C141.709 201.209 141.965 201.137 142.176 200.992C142.387 200.848 142.559 200.631 142.691 200.342C142.828 200.053 142.926 199.689 142.984 199.252C143.047 198.811 143.078 198.295 143.078 197.705C143.078 197.119 143.047 196.607 142.984 196.17C142.926 195.732 142.828 195.369 142.691 195.08C142.559 194.791 142.387 194.574 142.176 194.43C141.965 194.285 141.709 194.213 141.408 194.213C141.107 194.213 140.852 194.285 140.641 194.43C140.434 194.574 140.266 194.791 140.137 195.08C140.008 195.369 139.914 195.732 139.855 196.17C139.797 196.607 139.768 197.119 139.768 197.705Z" fill="#595959"/>
<path d="M186.912 195.438C186.912 195.723 186.867 195.982 186.777 196.217C186.688 196.451 186.561 196.654 186.396 196.826C186.236 196.998 186.043 197.141 185.816 197.254C185.59 197.363 185.338 197.441 185.061 197.488V197.523C185.752 197.609 186.277 197.83 186.637 198.186C186.996 198.537 187.176 198.996 187.176 199.562C187.176 199.938 187.111 200.281 186.982 200.594C186.857 200.906 186.666 201.176 186.408 201.402C186.15 201.629 185.824 201.805 185.43 201.93C185.035 202.055 184.568 202.117 184.029 202.117C183.604 202.117 183.201 202.084 182.822 202.018C182.447 201.951 182.094 201.83 181.762 201.654V200.658C182.102 200.838 182.469 200.977 182.863 201.074C183.262 201.172 183.643 201.221 184.006 201.221C184.365 201.221 184.676 201.182 184.938 201.104C185.199 201.025 185.414 200.914 185.582 200.77C185.754 200.625 185.879 200.447 185.957 200.236C186.039 200.025 186.08 199.789 186.08 199.527C186.08 199.262 186.027 199.035 185.922 198.848C185.82 198.656 185.674 198.5 185.482 198.379C185.291 198.254 185.057 198.162 184.779 198.104C184.506 198.045 184.195 198.016 183.848 198.016H183.068V197.131H183.848C184.164 197.131 184.445 197.092 184.691 197.014C184.938 196.936 185.143 196.824 185.307 196.68C185.475 196.535 185.602 196.363 185.688 196.164C185.773 195.965 185.816 195.746 185.816 195.508C185.816 195.305 185.781 195.123 185.711 194.963C185.641 194.803 185.541 194.668 185.412 194.559C185.283 194.445 185.129 194.359 184.949 194.301C184.77 194.242 184.57 194.213 184.352 194.213C183.934 194.213 183.564 194.279 183.244 194.412C182.928 194.541 182.625 194.711 182.336 194.922L181.797 194.189C181.945 194.068 182.109 193.955 182.289 193.85C182.473 193.744 182.672 193.652 182.887 193.574C183.102 193.492 183.33 193.428 183.572 193.381C183.818 193.334 184.078 193.311 184.352 193.311C184.773 193.311 185.143 193.363 185.459 193.469C185.779 193.574 186.047 193.723 186.262 193.914C186.477 194.102 186.639 194.326 186.748 194.588C186.857 194.846 186.912 195.129 186.912 195.438ZM193.797 202H188.453V201.086L190.504 198.854C190.797 198.537 191.059 198.248 191.289 197.986C191.52 197.725 191.715 197.469 191.875 197.219C192.039 196.969 192.164 196.719 192.25 196.469C192.336 196.215 192.379 195.939 192.379 195.643C192.379 195.412 192.346 195.209 192.279 195.033C192.213 194.857 192.117 194.709 191.992 194.588C191.871 194.463 191.727 194.369 191.559 194.307C191.391 194.244 191.203 194.213 190.996 194.213C190.625 194.213 190.289 194.289 189.988 194.441C189.691 194.59 189.408 194.781 189.139 195.016L188.541 194.318C188.697 194.178 188.865 194.047 189.045 193.926C189.225 193.801 189.418 193.693 189.625 193.604C189.832 193.514 190.051 193.443 190.281 193.393C190.512 193.338 190.754 193.311 191.008 193.311C191.383 193.311 191.721 193.363 192.021 193.469C192.326 193.574 192.584 193.727 192.795 193.926C193.006 194.121 193.168 194.361 193.281 194.646C193.398 194.928 193.457 195.246 193.457 195.602C193.457 195.934 193.404 196.25 193.299 196.551C193.197 196.852 193.055 197.148 192.871 197.441C192.691 197.73 192.475 198.021 192.221 198.314C191.971 198.607 191.699 198.912 191.406 199.229L189.76 200.98V201.027H193.797V202ZM200.547 197.705C200.547 198.396 200.496 199.016 200.395 199.562C200.297 200.109 200.137 200.572 199.914 200.951C199.695 201.33 199.412 201.619 199.064 201.818C198.717 202.018 198.295 202.117 197.799 202.117C197.338 202.117 196.936 202.018 196.592 201.818C196.252 201.619 195.969 201.33 195.742 200.951C195.52 200.572 195.352 200.109 195.238 199.562C195.129 199.016 195.074 198.396 195.074 197.705C195.074 197.014 195.123 196.395 195.221 195.848C195.322 195.301 195.48 194.84 195.695 194.465C195.914 194.086 196.195 193.797 196.539 193.598C196.887 193.398 197.307 193.299 197.799 193.299C198.264 193.299 198.668 193.398 199.012 193.598C199.355 193.793 199.641 194.08 199.867 194.459C200.094 194.834 200.264 195.295 200.377 195.842C200.49 196.389 200.547 197.01 200.547 197.705ZM196.158 197.705C196.158 198.291 196.188 198.803 196.246 199.24C196.305 199.678 196.398 200.043 196.527 200.336C196.656 200.625 196.824 200.844 197.031 200.992C197.242 201.137 197.498 201.209 197.799 201.209C198.1 201.209 198.355 201.137 198.566 200.992C198.777 200.848 198.949 200.631 199.082 200.342C199.219 200.053 199.316 199.689 199.375 199.252C199.438 198.811 199.469 198.295 199.469 197.705C199.469 197.119 199.438 196.607 199.375 196.17C199.316 195.732 199.219 195.369 199.082 195.08C198.949 194.791 198.777 194.574 198.566 194.43C198.355 194.285 198.1 194.213 197.799 194.213C197.498 194.213 197.242 194.285 197.031 194.43C196.824 194.574 196.656 194.791 196.527 195.08C196.398 195.369 196.305 195.732 196.246 196.17C196.188 196.607 196.158 197.119 196.158 197.705ZM207.156 197.705C207.156 198.396 207.105 199.016 207.004 199.562C206.906 200.109 206.746 200.572 206.523 200.951C206.305 201.33 206.021 201.619 205.674 201.818C205.326 202.018 204.904 202.117 204.408 202.117C203.947 202.117 203.545 202.018 203.201 201.818C202.861 201.619 202.578 201.33 202.352 200.951C202.129 200.572 201.961 200.109 201.848 199.562C201.738 199.016 201.684 198.396 201.684 197.705C201.684 197.014 201.732 196.395 201.83 195.848C201.932 195.301 202.09 194.84 202.305 194.465C202.523 194.086 202.805 193.797 203.148 193.598C203.496 193.398 203.916 193.299 204.408 193.299C204.873 193.299 205.277 193.398 205.621 193.598C205.965 193.793 206.25 194.08 206.477 194.459C206.703 194.834 206.873 195.295 206.986 195.842C207.1 196.389 207.156 197.01 207.156 197.705ZM202.768 197.705C202.768 198.291 202.797 198.803 202.855 199.24C202.914 199.678 203.008 200.043 203.137 200.336C203.266 200.625 203.434 200.844 203.641 200.992C203.852 201.137 204.107 201.209 204.408 201.209C204.709 201.209 204.965 201.137 205.176 200.992C205.387 200.848 205.559 200.631 205.691 200.342C205.828 200.053 205.926 199.689 205.984 199.252C206.047 198.811 206.078 198.295 206.078 197.705C206.078 197.119 206.047 196.607 205.984 196.17C205.926 195.732 205.828 195.369 205.691 195.08C205.559 194.791 205.387 194.574 205.176 194.43C204.965 194.285 204.709 194.213 204.408 194.213C204.107 194.213 203.852 194.285 203.641 194.43C203.434 194.574 203.266 194.791 203.137 195.08C203.008 195.369 202.914 195.732 202.855 196.17C202.797 196.607 202.768 197.119 202.768 197.705Z" fill="#595959"/>
<path d="M250.65 200.078H249.402V202H248.371V200.078H244.416V199.146L248.301 193.387H249.402V199.105H250.65V200.078ZM248.371 199.105V197.02C248.371 196.801 248.373 196.572 248.377 196.334C248.385 196.092 248.393 195.857 248.4 195.631C248.408 195.4 248.416 195.186 248.424 194.986C248.436 194.787 248.443 194.621 248.447 194.488H248.395C248.367 194.566 248.332 194.654 248.289 194.752C248.25 194.846 248.205 194.941 248.154 195.039C248.107 195.133 248.059 195.225 248.008 195.314C247.957 195.404 247.91 195.48 247.867 195.543L245.459 199.105H248.371ZM254.201 193.299C254.529 193.299 254.838 193.342 255.127 193.428C255.42 193.514 255.676 193.643 255.895 193.814C256.117 193.986 256.293 194.201 256.422 194.459C256.551 194.717 256.615 195.018 256.615 195.361C256.615 195.623 256.576 195.859 256.498 196.07C256.42 196.281 256.312 196.473 256.176 196.645C256.039 196.812 255.877 196.965 255.689 197.102C255.502 197.234 255.299 197.355 255.08 197.465C255.307 197.586 255.527 197.721 255.742 197.869C255.961 198.018 256.154 198.186 256.322 198.373C256.494 198.557 256.631 198.764 256.732 198.994C256.838 199.225 256.891 199.482 256.891 199.768C256.891 200.127 256.824 200.453 256.691 200.746C256.562 201.035 256.379 201.281 256.141 201.484C255.906 201.688 255.623 201.844 255.291 201.953C254.963 202.062 254.6 202.117 254.201 202.117C253.771 202.117 253.389 202.064 253.053 201.959C252.721 201.854 252.439 201.703 252.209 201.508C251.982 201.309 251.809 201.066 251.688 200.781C251.57 200.496 251.512 200.174 251.512 199.814C251.512 199.521 251.555 199.258 251.641 199.023C251.73 198.789 251.85 198.578 251.998 198.391C252.146 198.203 252.322 198.037 252.525 197.893C252.729 197.748 252.943 197.621 253.17 197.512C252.979 197.391 252.799 197.26 252.631 197.119C252.463 196.975 252.316 196.814 252.191 196.639C252.07 196.463 251.973 196.27 251.898 196.059C251.828 195.844 251.793 195.607 251.793 195.35C251.793 195.01 251.857 194.713 251.986 194.459C252.119 194.201 252.297 193.986 252.52 193.814C252.742 193.643 252.998 193.514 253.287 193.428C253.58 193.342 253.885 193.299 254.201 193.299ZM252.561 199.826C252.561 200.033 252.592 200.225 252.654 200.4C252.717 200.572 252.814 200.721 252.947 200.846C253.08 200.967 253.248 201.062 253.451 201.133C253.654 201.199 253.896 201.232 254.178 201.232C254.451 201.232 254.691 201.199 254.898 201.133C255.109 201.062 255.285 200.965 255.426 200.84C255.566 200.711 255.672 200.557 255.742 200.377C255.812 200.197 255.848 199.998 255.848 199.779C255.848 199.576 255.809 199.393 255.73 199.229C255.656 199.064 255.547 198.912 255.402 198.771C255.262 198.631 255.092 198.498 254.893 198.373C254.693 198.248 254.471 198.125 254.225 198.004L254.049 197.922C253.557 198.156 253.186 198.426 252.936 198.73C252.686 199.031 252.561 199.396 252.561 199.826ZM254.189 194.189C253.775 194.189 253.445 194.293 253.199 194.5C252.957 194.707 252.836 195.008 252.836 195.402C252.836 195.625 252.869 195.816 252.936 195.977C253.006 196.137 253.102 196.279 253.223 196.404C253.344 196.529 253.488 196.643 253.656 196.744C253.828 196.842 254.014 196.938 254.213 197.031C254.4 196.945 254.576 196.852 254.74 196.75C254.908 196.648 255.053 196.533 255.174 196.404C255.299 196.275 255.396 196.129 255.467 195.965C255.537 195.801 255.572 195.613 255.572 195.402C255.572 195.008 255.449 194.707 255.203 194.5C254.957 194.293 254.619 194.189 254.189 194.189ZM263.547 197.705C263.547 198.396 263.496 199.016 263.395 199.562C263.297 200.109 263.137 200.572 262.914 200.951C262.695 201.33 262.412 201.619 262.064 201.818C261.717 202.018 261.295 202.117 260.799 202.117C260.338 202.117 259.936 202.018 259.592 201.818C259.252 201.619 258.969 201.33 258.742 200.951C258.52 200.572 258.352 200.109 258.238 199.562C258.129 199.016 258.074 198.396 258.074 197.705C258.074 197.014 258.123 196.395 258.221 195.848C258.322 195.301 258.48 194.84 258.695 194.465C258.914 194.086 259.195 193.797 259.539 193.598C259.887 193.398 260.307 193.299 260.799 193.299C261.264 193.299 261.668 193.398 262.012 193.598C262.355 193.793 262.641 194.08 262.867 194.459C263.094 194.834 263.264 195.295 263.377 195.842C263.49 196.389 263.547 197.01 263.547 197.705ZM259.158 197.705C259.158 198.291 259.188 198.803 259.246 199.24C259.305 199.678 259.398 200.043 259.527 200.336C259.656 200.625 259.824 200.844 260.031 200.992C260.242 201.137 260.498 201.209 260.799 201.209C261.1 201.209 261.355 201.137 261.566 200.992C261.777 200.848 261.949 200.631 262.082 200.342C262.219 200.053 262.316 199.689 262.375 199.252C262.438 198.811 262.469 198.295 262.469 197.705C262.469 197.119 262.438 196.607 262.375 196.17C262.316 195.732 262.219 195.369 262.082 195.08C261.949 194.791 261.777 194.574 261.566 194.43C261.355 194.285 261.1 194.213 260.799 194.213C260.498 194.213 260.242 194.285 260.031 194.43C259.824 194.574 259.656 194.791 259.527 195.08C259.398 195.369 259.305 195.732 259.246 196.17C259.188 196.607 259.158 197.119 259.158 197.705ZM270.156 197.705C270.156 198.396 270.105 199.016 270.004 199.562C269.906 200.109 269.746 200.572 269.523 200.951C269.305 201.33 269.021 201.619 268.674 201.818C268.326 202.018 267.904 202.117 267.408 202.117C266.947 202.117 266.545 202.018 266.201 201.818C265.861 201.619 265.578 201.33 265.352 200.951C265.129 200.572 264.961 200.109 264.848 199.562C264.738 199.016 264.684 198.396 264.684 197.705C264.684 197.014 264.732 196.395 264.83 195.848C264.932 195.301 265.09 194.84 265.305 194.465C265.523 194.086 265.805 193.797 266.148 193.598C266.496 193.398 266.916 193.299 267.408 193.299C267.873 193.299 268.277 193.398 268.621 193.598C268.965 193.793 269.25 194.08 269.477 194.459C269.703 194.834 269.873 195.295 269.986 195.842C270.1 196.389 270.156 197.01 270.156 197.705ZM265.768 197.705C265.768 198.291 265.797 198.803 265.855 199.24C265.914 199.678 266.008 200.043 266.137 200.336C266.266 200.625 266.434 200.844 266.641 200.992C266.852 201.137 267.107 201.209 267.408 201.209C267.709 201.209 267.965 201.137 268.176 200.992C268.387 200.848 268.559 200.631 268.691 200.342C268.828 200.053 268.926 199.689 268.984 199.252C269.047 198.811 269.078 198.295 269.078 197.705C269.078 197.119 269.047 196.607 268.984 196.17C268.926 195.732 268.828 195.369 268.691 195.08C268.559 194.791 268.387 194.574 268.176 194.43C267.965 194.285 267.709 194.213 267.408 194.213C267.107 194.213 266.852 194.285 266.641 194.43C266.434 194.574 266.266 194.791 266.137 195.08C266.008 195.369 265.914 195.732 265.855 196.17C265.797 196.607 265.768 197.119 265.768 197.705Z" fill="#595959"/>
<path d="M307.943 198.338C307.943 197.928 307.963 197.52 308.002 197.113C308.045 196.707 308.117 196.318 308.219 195.947C308.324 195.572 308.467 195.225 308.646 194.904C308.826 194.584 309.055 194.307 309.332 194.072C309.609 193.834 309.941 193.648 310.328 193.516C310.715 193.379 311.168 193.311 311.688 193.311C311.762 193.311 311.844 193.312 311.934 193.316C312.023 193.32 312.113 193.328 312.203 193.34C312.297 193.348 312.385 193.359 312.467 193.375C312.553 193.387 312.629 193.402 312.695 193.422V194.33C312.559 194.283 312.404 194.248 312.232 194.225C312.061 194.201 311.891 194.189 311.723 194.189C311.371 194.189 311.061 194.232 310.791 194.318C310.525 194.4 310.295 194.518 310.1 194.67C309.904 194.822 309.74 195.004 309.607 195.215C309.479 195.426 309.373 195.66 309.291 195.918C309.209 196.172 309.148 196.443 309.109 196.732C309.07 197.021 309.045 197.322 309.033 197.635H309.104C309.182 197.494 309.275 197.363 309.385 197.242C309.498 197.117 309.629 197.012 309.777 196.926C309.926 196.836 310.092 196.766 310.275 196.715C310.463 196.664 310.672 196.639 310.902 196.639C311.273 196.639 311.609 196.697 311.91 196.814C312.211 196.928 312.467 197.096 312.678 197.318C312.889 197.541 313.051 197.814 313.164 198.139C313.281 198.459 313.34 198.826 313.34 199.24C313.34 199.686 313.279 200.086 313.158 200.441C313.037 200.797 312.863 201.1 312.637 201.35C312.41 201.596 312.137 201.785 311.816 201.918C311.496 202.051 311.137 202.117 310.738 202.117C310.348 202.117 309.98 202.041 309.637 201.889C309.297 201.736 309.002 201.504 308.752 201.191C308.502 200.879 308.305 200.486 308.16 200.014C308.016 199.541 307.943 198.982 307.943 198.338ZM310.727 201.221C310.961 201.221 311.174 201.182 311.365 201.104C311.561 201.021 311.729 200.9 311.869 200.74C312.01 200.576 312.117 200.371 312.191 200.125C312.27 199.875 312.309 199.58 312.309 199.24C312.309 198.967 312.275 198.723 312.209 198.508C312.146 198.289 312.051 198.104 311.922 197.951C311.793 197.799 311.631 197.682 311.436 197.6C311.244 197.518 311.02 197.477 310.762 197.477C310.5 197.477 310.26 197.523 310.041 197.617C309.826 197.707 309.643 197.826 309.49 197.975C309.338 198.119 309.219 198.285 309.133 198.473C309.051 198.66 309.01 198.848 309.01 199.035C309.01 199.297 309.045 199.559 309.115 199.82C309.189 200.078 309.297 200.311 309.438 200.518C309.582 200.725 309.762 200.895 309.977 201.027C310.191 201.156 310.441 201.221 310.727 201.221ZM320.26 200.078H319.012V202H317.98V200.078H314.025V199.146L317.91 193.387H319.012V199.105H320.26V200.078ZM317.98 199.105V197.02C317.98 196.801 317.982 196.572 317.986 196.334C317.994 196.092 318.002 195.857 318.01 195.631C318.018 195.4 318.025 195.186 318.033 194.986C318.045 194.787 318.053 194.621 318.057 194.488H318.004C317.977 194.566 317.941 194.654 317.898 194.752C317.859 194.846 317.814 194.941 317.764 195.039C317.717 195.133 317.668 195.225 317.617 195.314C317.566 195.404 317.52 195.48 317.477 195.543L315.068 199.105H317.98ZM326.547 197.705C326.547 198.396 326.496 199.016 326.395 199.562C326.297 200.109 326.137 200.572 325.914 200.951C325.695 201.33 325.412 201.619 325.064 201.818C324.717 202.018 324.295 202.117 323.799 202.117C323.338 202.117 322.936 202.018 322.592 201.818C322.252 201.619 321.969 201.33 321.742 200.951C321.52 200.572 321.352 200.109 321.238 199.562C321.129 199.016 321.074 198.396 321.074 197.705C321.074 197.014 321.123 196.395 321.221 195.848C321.322 195.301 321.48 194.84 321.695 194.465C321.914 194.086 322.195 193.797 322.539 193.598C322.887 193.398 323.307 193.299 323.799 193.299C324.264 193.299 324.668 193.398 325.012 193.598C325.355 193.793 325.641 194.08 325.867 194.459C326.094 194.834 326.264 195.295 326.377 195.842C326.49 196.389 326.547 197.01 326.547 197.705ZM322.158 197.705C322.158 198.291 322.188 198.803 322.246 199.24C322.305 199.678 322.398 200.043 322.527 200.336C322.656 200.625 322.824 200.844 323.031 200.992C323.242 201.137 323.498 201.209 323.799 201.209C324.1 201.209 324.355 201.137 324.566 200.992C324.777 200.848 324.949 200.631 325.082 200.342C325.219 200.053 325.316 199.689 325.375 199.252C325.438 198.811 325.469 198.295 325.469 197.705C325.469 197.119 325.438 196.607 325.375 196.17C325.316 195.732 325.219 195.369 325.082 195.08C324.949 194.791 324.777 194.574 324.566 194.43C324.355 194.285 324.1 194.213 323.799 194.213C323.498 194.213 323.242 194.285 323.031 194.43C322.824 194.574 322.656 194.791 322.527 195.08C322.398 195.369 322.305 195.732 322.246 196.17C322.188 196.607 322.158 197.119 322.158 197.705ZM333.156 197.705C333.156 198.396 333.105 199.016 333.004 199.562C332.906 200.109 332.746 200.572 332.523 200.951C332.305 201.33 332.021 201.619 331.674 201.818C331.326 202.018 330.904 202.117 330.408 202.117C329.947 202.117 329.545 202.018 329.201 201.818C328.861 201.619 328.578 201.33 328.352 200.951C328.129 200.572 327.961 200.109 327.848 199.562C327.738 199.016 327.684 198.396 327.684 197.705C327.684 197.014 327.732 196.395 327.83 195.848C327.932 195.301 328.09 194.84 328.305 194.465C328.523 194.086 328.805 193.797 329.148 193.598C329.496 193.398 329.916 193.299 330.408 193.299C330.873 193.299 331.277 193.398 331.621 193.598C331.965 193.793 332.25 194.08 332.477 194.459C332.703 194.834 332.873 195.295 332.986 195.842C333.1 196.389 333.156 197.01 333.156 197.705ZM328.768 197.705C328.768 198.291 328.797 198.803 328.855 199.24C328.914 199.678 329.008 200.043 329.137 200.336C329.266 200.625 329.434 200.844 329.641 200.992C329.852 201.137 330.107 201.209 330.408 201.209C330.709 201.209 330.965 201.137 331.176 200.992C331.387 200.848 331.559 200.631 331.691 200.342C331.828 200.053 331.926 199.689 331.984 199.252C332.047 198.811 332.078 198.295 332.078 197.705C332.078 197.119 332.047 196.607 331.984 196.17C331.926 195.732 331.828 195.369 331.691 195.08C331.559 194.791 331.387 194.574 331.176 194.43C330.965 194.285 330.709 194.213 330.408 194.213C330.107 194.213 329.852 194.285 329.641 194.43C329.434 194.574 329.266 194.791 329.137 195.08C329.008 195.369 328.914 195.732 328.855 196.17C328.797 196.607 328.768 197.119 328.768 197.705Z" fill="#595959"/>
<path d="M358.592 193.299C358.92 193.299 359.229 193.342 359.518 193.428C359.811 193.514 360.066 193.643 360.285 193.814C360.508 193.986 360.684 194.201 360.812 194.459C360.941 194.717 361.006 195.018 361.006 195.361C361.006 195.623 360.967 195.859 360.889 196.07C360.811 196.281 360.703 196.473 360.566 196.645C360.43 196.812 360.268 196.965 360.08 197.102C359.893 197.234 359.689 197.355 359.471 197.465C359.697 197.586 359.918 197.721 360.133 197.869C360.352 198.018 360.545 198.186 360.713 198.373C360.885 198.557 361.021 198.764 361.123 198.994C361.229 199.225 361.281 199.482 361.281 199.768C361.281 200.127 361.215 200.453 361.082 200.746C360.953 201.035 360.77 201.281 360.531 201.484C360.297 201.688 360.014 201.844 359.682 201.953C359.354 202.062 358.99 202.117 358.592 202.117C358.162 202.117 357.779 202.064 357.443 201.959C357.111 201.854 356.83 201.703 356.6 201.508C356.373 201.309 356.199 201.066 356.078 200.781C355.961 200.496 355.902 200.174 355.902 199.814C355.902 199.521 355.945 199.258 356.031 199.023C356.121 198.789 356.24 198.578 356.389 198.391C356.537 198.203 356.713 198.037 356.916 197.893C357.119 197.748 357.334 197.621 357.561 197.512C357.369 197.391 357.189 197.26 357.021 197.119C356.854 196.975 356.707 196.814 356.582 196.639C356.461 196.463 356.363 196.27 356.289 196.059C356.219 195.844 356.184 195.607 356.184 195.35C356.184 195.01 356.248 194.713 356.377 194.459C356.51 194.201 356.688 193.986 356.91 193.814C357.133 193.643 357.389 193.514 357.678 193.428C357.971 193.342 358.275 193.299 358.592 193.299ZM356.951 199.826C356.951 200.033 356.982 200.225 357.045 200.4C357.107 200.572 357.205 200.721 357.338 200.846C357.471 200.967 357.639 201.062 357.842 201.133C358.045 201.199 358.287 201.232 358.568 201.232C358.842 201.232 359.082 201.199 359.289 201.133C359.5 201.062 359.676 200.965 359.816 200.84C359.957 200.711 360.062 200.557 360.133 200.377C360.203 200.197 360.238 199.998 360.238 199.779C360.238 199.576 360.199 199.393 360.121 199.229C360.047 199.064 359.938 198.912 359.793 198.771C359.652 198.631 359.482 198.498 359.283 198.373C359.084 198.248 358.861 198.125 358.615 198.004L358.439 197.922C357.947 198.156 357.576 198.426 357.326 198.73C357.076 199.031 356.951 199.396 356.951 199.826ZM358.58 194.189C358.166 194.189 357.836 194.293 357.59 194.5C357.348 194.707 357.227 195.008 357.227 195.402C357.227 195.625 357.26 195.816 357.326 195.977C357.396 196.137 357.492 196.279 357.613 196.404C357.734 196.529 357.879 196.643 358.047 196.744C358.219 196.842 358.404 196.938 358.604 197.031C358.791 196.945 358.967 196.852 359.131 196.75C359.299 196.648 359.443 196.533 359.564 196.404C359.689 196.275 359.787 196.129 359.857 195.965C359.928 195.801 359.963 195.613 359.963 195.402C359.963 195.008 359.84 194.707 359.594 194.5C359.348 194.293 359.01 194.189 358.58 194.189ZM367.938 197.705C367.938 198.396 367.887 199.016 367.785 199.562C367.688 200.109 367.527 200.572 367.305 200.951C367.086 201.33 366.803 201.619 366.455 201.818C366.107 202.018 365.686 202.117 365.189 202.117C364.729 202.117 364.326 202.018 363.982 201.818C363.643 201.619 363.359 201.33 363.133 200.951C362.91 200.572 362.742 200.109 362.629 199.562C362.52 199.016 362.465 198.396 362.465 197.705C362.465 197.014 362.514 196.395 362.611 195.848C362.713 195.301 362.871 194.84 363.086 194.465C363.305 194.086 363.586 193.797 363.93 193.598C364.277 193.398 364.697 193.299 365.189 193.299C365.654 193.299 366.059 193.398 366.402 193.598C366.746 193.793 367.031 194.08 367.258 194.459C367.484 194.834 367.654 195.295 367.768 195.842C367.881 196.389 367.938 197.01 367.938 197.705ZM363.549 197.705C363.549 198.291 363.578 198.803 363.637 199.24C363.695 199.678 363.789 200.043 363.918 200.336C364.047 200.625 364.215 200.844 364.422 200.992C364.633 201.137 364.889 201.209 365.189 201.209C365.49 201.209 365.746 201.137 365.957 200.992C366.168 200.848 366.34 200.631 366.473 200.342C366.609 200.053 366.707 199.689 366.766 199.252C366.828 198.811 366.859 198.295 366.859 197.705C366.859 197.119 366.828 196.607 366.766 196.17C366.707 195.732 366.609 195.369 366.473 195.08C366.34 194.791 366.168 194.574 365.957 194.43C365.746 194.285 365.49 194.213 365.189 194.213C364.889 194.213 364.633 194.285 364.422 194.43C364.215 194.574 364.047 194.791 363.918 195.08C363.789 195.369 363.695 195.732 363.637 196.17C363.578 196.607 363.549 197.119 363.549 197.705ZM374.547 197.705C374.547 198.396 374.496 199.016 374.395 199.562C374.297 200.109 374.137 200.572 373.914 200.951C373.695 201.33 373.412 201.619 373.064 201.818C372.717 202.018 372.295 202.117 371.799 202.117C371.338 202.117 370.936 202.018 370.592 201.818C370.252 201.619 369.969 201.33 369.742 200.951C369.52 200.572 369.352 200.109 369.238 199.562C369.129 199.016 369.074 198.396 369.074 197.705C369.074 197.014 369.123 196.395 369.221 195.848C369.322 195.301 369.48 194.84 369.695 194.465C369.914 194.086 370.195 193.797 370.539 193.598C370.887 193.398 371.307 193.299 371.799 193.299C372.264 193.299 372.668 193.398 373.012 193.598C373.355 193.793 373.641 194.08 373.867 194.459C374.094 194.834 374.264 195.295 374.377 195.842C374.49 196.389 374.547 197.01 374.547 197.705ZM370.158 197.705C370.158 198.291 370.188 198.803 370.246 199.24C370.305 199.678 370.398 200.043 370.527 200.336C370.656 200.625 370.824 200.844 371.031 200.992C371.242 201.137 371.498 201.209 371.799 201.209C372.1 201.209 372.355 201.137 372.566 200.992C372.777 200.848 372.949 200.631 373.082 200.342C373.219 200.053 373.316 199.689 373.375 199.252C373.438 198.811 373.469 198.295 373.469 197.705C373.469 197.119 373.438 196.607 373.375 196.17C373.316 195.732 373.219 195.369 373.082 195.08C372.949 194.791 372.777 194.574 372.566 194.43C372.355 194.285 372.1 194.213 371.799 194.213C371.498 194.213 371.242 194.285 371.031 194.43C370.824 194.574 370.656 194.791 370.527 195.08C370.398 195.369 370.305 195.732 370.246 196.17C370.188 196.607 370.158 197.119 370.158 197.705ZM381.156 197.705C381.156 198.396 381.105 199.016 381.004 199.562C380.906 200.109 380.746 200.572 380.523 200.951C380.305 201.33 380.021 201.619 379.674 201.818C379.326 202.018 378.904 202.117 378.408 202.117C377.947 202.117 377.545 202.018 377.201 201.818C376.861 201.619 376.578 201.33 376.352 200.951C376.129 200.572 375.961 200.109 375.848 199.562C375.738 199.016 375.684 198.396 375.684 197.705C375.684 197.014 375.732 196.395 375.83 195.848C375.932 195.301 376.09 194.84 376.305 194.465C376.523 194.086 376.805 193.797 377.148 193.598C377.496 193.398 377.916 193.299 378.408 193.299C378.873 193.299 379.277 193.398 379.621 193.598C379.965 193.793 380.25 194.08 380.477 194.459C380.703 194.834 380.873 195.295 380.986 195.842C381.1 196.389 381.156 197.01 381.156 197.705ZM376.768 197.705C376.768 198.291 376.797 198.803 376.855 199.24C376.914 199.678 377.008 200.043 377.137 200.336C377.266 200.625 377.434 200.844 377.641 200.992C377.852 201.137 378.107 201.209 378.408 201.209C378.709 201.209 378.965 201.137 379.176 200.992C379.387 200.848 379.559 200.631 379.691 200.342C379.828 200.053 379.926 199.689 379.984 199.252C380.047 198.811 380.078 198.295 380.078 197.705C380.078 197.119 380.047 196.607 379.984 196.17C379.926 195.732 379.828 195.369 379.691 195.08C379.559 194.791 379.387 194.574 379.176 194.43C378.965 194.285 378.709 194.213 378.408 194.213C378.107 194.213 377.852 194.285 377.641 194.43C377.434 194.574 377.266 194.791 377.137 195.08C377.008 195.369 376.914 195.732 376.855 196.17C376.797 196.607 376.768 197.119 376.768 197.705Z" fill="#595959"/>
<rect x="135.115" y="145.5" width="27.735" height="19" stroke="#CED7D4"/>
<rect x="101.152" y="145.5" width="27.735" height="19" stroke="#CED7D4"/>
<rect x="196.07" y="145.5" width="27.735" height="19" stroke="#CED7D4"/>
<rect x="165.592" y="145.5" width="27.735" height="19" stroke="#CED7D4"/>
<rect x="257.023" y="145.5" width="27.735" height="19" stroke="#CED7D4"/>
<rect x="226.547" y="145.5" width="27.735" height="19" stroke="#CED7D4"/>
<rect x="351.941" y="145.5" width="27.735" height="19" stroke="#CED7D4"/>
<rect x="321.463" y="145.5" width="27.735" height="19" stroke="#CED7D4"/>
<path d="M70.1758 145H98.9108V165H70.1758V145Z" fill="#E6B056"/>
<path d="M100.514 145H124.035V165H100.514V145Z" fill="#E6B056"/>
<rect x="287.502" y="145.5" width="27.735" height="19" stroke="#CED7D4"/>
<rect x="134.615" y="105" width="28.735" height="20" fill="#4CA2A8"/>
<rect x="100.652" y="105" width="28.735" height="20" fill="#4CA2A8"/>
<rect x="195.57" y="105" width="28.735" height="20" fill="#4CA2A8"/>
<rect x="165.092" y="105" width="28.735" height="20" fill="#4CA2A8"/>
<rect x="257.023" y="105.5" width="27.735" height="19" stroke="#CED7D4"/>
<rect x="226.047" y="105" width="28.735" height="20" fill="#4CA2A8"/>
<rect x="351.941" y="105.5" width="27.735" height="19" stroke="#CED7D4"/>
<rect x="321.463" y="105.5" width="27.735" height="19" stroke="#CED7D4"/>
<rect x="70.1758" y="105" width="28.735" height="20" fill="#4CA2A8"/>
<rect x="287.502" y="105.5" width="27.735" height="19" stroke="#CED7D4"/>
<rect x="131.131" y="65" width="28.735" height="20" fill="#E6B056"/>
<rect x="100.652" y="65" width="28.735" height="20" fill="#E6B056"/>
<rect x="195.57" y="65" width="28.735" height="20" fill="#E6B056"/>
<rect x="165.092" y="65" width="28.735" height="20" fill="#E6B056"/>
<rect x="256.523" y="65" width="28.735" height="20" fill="#E6B056"/>
<rect x="226.047" y="65" width="28.735" height="20" fill="#E6B056"/>
<rect x="351.941" y="65.5" width="27.735" height="19" stroke="#CED7D4"/>
<rect x="321.463" y="65.5" width="27.735" height="19" stroke="#CED7D4"/>
<rect x="70.1758" y="65" width="28.735" height="20" fill="#E6B056"/>
<rect x="290.986" y="65.5" width="27.735" height="19" stroke="#CED7D4"/>
<rect x="290.43" y="65" width="21.7792" height="20" fill="#E6B056"/>
<path d="M411.383 161.25H396.617L404 148.498L411.383 161.25Z" fill="#FEEAEE" stroke="#E16E75"/>
<path d="M411.383 161.25H396.617L404 148.498L411.383 161.25Z" fill="#FEEAEE" stroke="#E16E75"/>
<path d="M404.405 158H402.992V159.5H404.405V158Z" fill="#C21A2C"/>
<path d="M404.405 153.5H402.992V156.5H404.405V153.5Z" fill="#C21A2C"/>
<path d="M410.383 81.25H395.617L403 68.4979L410.383 81.25Z" fill="#FEEAEE" stroke="#E16E75"/>
<path d="M403.465 78H402.053V79.5H403.465V78Z" fill="#C21A2C"/>
<path d="M403.465 73.5H402.053V76.5H403.465V73.5Z" fill="#C21A2C"/>
</g>
<circle cx="99" cy="237" r="4" fill="#4CA2A8"/>
<path d="M119.041 241H117.673L113.557 234.772V241H112.189V232.648H113.557L117.673 238.864V232.648H119.041V241ZM121.764 240.688C121.26 240.4 120.864 240.004 120.576 239.488C120.288 238.972 120.144 238.372 120.144 237.688C120.144 237.016 120.288 236.428 120.588 235.9C120.876 235.384 121.284 234.988 121.8 234.7C122.304 234.424 122.88 234.28 123.516 234.28C124.14 234.28 124.716 234.424 125.232 234.7C125.736 234.988 126.144 235.384 126.444 235.9C126.732 236.428 126.888 237.016 126.888 237.688C126.888 238.36 126.732 238.96 126.432 239.476C126.12 240.004 125.712 240.4 125.184 240.688C124.656 240.976 124.08 241.108 123.456 241.108C122.832 241.108 122.268 240.976 121.764 240.688ZM124.44 239.668C124.752 239.5 125.004 239.248 125.196 238.912C125.388 238.576 125.484 238.168 125.484 237.688C125.484 237.208 125.388 236.812 125.208 236.476C125.016 236.14 124.776 235.888 124.476 235.72C124.164 235.552 123.84 235.468 123.492 235.468C123.132 235.468 122.808 235.552 122.508 235.72C122.208 235.888 121.968 236.14 121.8 236.476C121.62 236.812 121.536 237.208 121.536 237.688C121.536 238.408 121.716 238.96 122.076 239.344C122.436 239.728 122.904 239.92 123.456 239.92C123.804 239.92 124.128 239.836 124.44 239.668ZM130.15 234.568C130.486 234.376 130.882 234.28 131.338 234.28V235.696H130.99C130.45 235.696 130.042 235.84 129.766 236.104C129.49 236.38 129.358 236.848 129.358 237.52V241H127.99V234.388H129.358V235.348C129.55 235.012 129.814 234.76 130.15 234.568ZM141.741 234.604C142.149 234.82 142.473 235.144 142.713 235.564C142.953 235.996 143.073 236.5 143.073 237.1V241H141.717V237.304C141.717 236.716 141.561 236.26 141.273 235.948C140.973 235.636 140.565 235.468 140.061 235.468C139.545 235.468 139.137 235.636 138.837 235.948C138.537 236.26 138.393 236.716 138.393 237.304V241H137.037V237.304C137.037 236.716 136.881 236.26 136.593 235.948C136.293 235.636 135.885 235.468 135.381 235.468C134.865 235.468 134.457 235.636 134.157 235.948C133.857 236.26 133.713 236.716 133.713 237.304V241H132.345V234.388H133.713V235.144C133.929 234.88 134.217 234.664 134.565 234.508C134.901 234.364 135.273 234.28 135.669 234.28C136.197 234.28 136.665 234.4 137.085 234.616C137.493 234.844 137.817 235.168 138.045 235.588C138.237 235.192 138.549 234.88 138.981 234.64C139.401 234.4 139.857 234.28 140.349 234.28C140.865 234.28 141.333 234.388 141.741 234.604ZM144.516 235.9C144.792 235.396 145.164 235 145.644 234.712C146.124 234.424 146.652 234.28 147.228 234.28C147.744 234.28 148.2 234.388 148.584 234.592C148.968 234.796 149.28 235.048 149.52 235.348V234.388H150.9V241H149.52V240.016C149.28 240.328 148.968 240.592 148.572 240.796C148.164 241.012 147.708 241.108 147.204 241.108C146.628 241.108 146.112 240.964 145.644 240.676C145.164 240.388 144.792 239.98 144.516 239.452C144.24 238.924 144.108 238.336 144.108 237.664C144.108 237.004 144.24 236.416 144.516 235.9ZM149.232 236.5C149.04 236.164 148.8 235.912 148.5 235.732C148.188 235.564 147.864 235.468 147.516 235.468C147.156 235.468 146.832 235.564 146.532 235.732C146.22 235.9 145.98 236.152 145.788 236.488C145.596 236.824 145.512 237.208 145.512 237.664C145.512 238.12 145.596 238.528 145.788 238.864C145.98 239.212 146.22 239.476 146.532 239.656C146.844 239.836 147.168 239.92 147.516 239.92C147.864 239.92 148.188 239.836 148.5 239.656C148.8 239.488 149.04 239.224 149.232 238.888C149.424 238.552 149.52 238.144 149.52 237.688C149.52 237.232 149.424 236.836 149.232 236.5ZM153.815 232.12V241H152.447V232.12H153.815Z" fill="#121212"/>
<circle cx="191" cy="237" r="4" fill="#E6B056"/>
<path d="M205.57 232.66V237.976C205.57 238.612 205.726 239.092 206.062 239.404C206.398 239.728 206.854 239.884 207.454 239.884C208.054 239.884 208.51 239.728 208.846 239.404C209.182 239.092 209.35 238.612 209.35 237.976V232.66H210.718V237.952C210.718 238.636 210.562 239.212 210.274 239.68C209.974 240.16 209.578 240.508 209.086 240.736C208.582 240.976 208.042 241.084 207.442 241.084C206.842 241.084 206.29 240.976 205.798 240.736C205.306 240.508 204.922 240.16 204.634 239.68C204.346 239.212 204.202 238.636 204.202 237.952V232.66H205.57ZM216.978 234.604C217.386 234.82 217.71 235.144 217.95 235.564C218.178 235.996 218.298 236.5 218.298 237.1V241H216.942V237.304C216.942 236.716 216.786 236.26 216.498 235.948C216.198 235.636 215.79 235.468 215.286 235.468C214.77 235.468 214.362 235.636 214.062 235.948C213.762 236.26 213.618 236.716 213.618 237.304V241H212.25V234.388H213.618V235.144C213.834 234.88 214.122 234.664 214.47 234.508C214.818 234.364 215.19 234.28 215.586 234.28C216.102 234.28 216.57 234.388 216.978 234.604ZM219.745 235.9C220.021 235.396 220.393 235 220.873 234.712C221.353 234.424 221.881 234.28 222.469 234.28C222.901 234.28 223.321 234.376 223.741 234.568C224.161 234.76 224.497 235 224.749 235.312V232.12H226.129V241H224.749V240.004C224.521 240.328 224.209 240.592 223.813 240.796C223.417 241.012 222.961 241.108 222.457 241.108C221.881 241.108 221.353 240.964 220.873 240.676C220.393 240.388 220.021 239.98 219.745 239.452C219.469 238.924 219.337 238.336 219.337 237.664C219.337 237.004 219.469 236.416 219.745 235.9ZM224.461 236.5C224.269 236.164 224.029 235.912 223.729 235.732C223.417 235.564 223.093 235.468 222.745 235.468C222.385 235.468 222.061 235.564 221.761 235.732C221.449 235.9 221.209 236.152 221.017 236.488C220.825 236.824 220.741 237.208 220.741 237.664C220.741 238.12 220.825 238.528 221.017 238.864C221.209 239.212 221.449 239.476 221.761 239.656C222.073 239.836 222.397 239.92 222.745 239.92C223.093 239.92 223.417 239.836 223.729 239.656C224.029 239.488 224.269 239.224 224.461 238.888C224.653 238.552 224.749 238.144 224.749 237.688C224.749 237.232 224.653 236.836 224.461 236.5ZM233.687 238.204H228.635C228.671 238.732 228.863 239.164 229.223 239.476C229.571 239.8 230.003 239.956 230.519 239.956C231.251 239.956 231.767 239.656 232.079 239.032H233.555C233.351 239.644 232.991 240.148 232.463 240.532C231.935 240.916 231.287 241.108 230.519 241.108C229.883 241.108 229.319 240.976 228.815 240.688C228.311 240.4 227.927 240.004 227.639 239.488C227.351 238.972 227.219 238.372 227.219 237.688C227.219 237.016 227.351 236.416 227.627 235.9C227.903 235.384 228.287 234.988 228.791 234.7C229.295 234.424 229.871 234.28 230.519 234.28C231.143 234.28 231.695 234.424 232.187 234.688C232.667 234.964 233.051 235.348 233.327 235.84C233.591 236.332 233.735 236.896 233.735 237.532C233.735 237.784 233.711 238.012 233.687 238.204ZM232.307 237.1C232.295 236.596 232.115 236.2 231.767 235.888C231.407 235.588 230.975 235.432 230.459 235.432C229.979 235.432 229.583 235.588 229.247 235.888C228.911 236.188 228.707 236.596 228.647 237.1H232.307ZM236.992 234.568C237.328 234.376 237.724 234.28 238.18 234.28V235.696H237.832C237.292 235.696 236.884 235.84 236.608 236.104C236.332 236.38 236.2 236.848 236.2 237.52V241H234.832V234.388H236.2V235.348C236.392 235.012 236.656 234.76 236.992 234.568ZM240.555 232.12V241H239.187V232.12H240.555ZM243.277 240.688C242.773 240.4 242.377 240.004 242.089 239.488C241.801 238.972 241.657 238.372 241.657 237.688C241.657 237.016 241.801 236.428 242.101 235.9C242.389 235.384 242.797 234.988 243.313 234.7C243.817 234.424 244.393 234.28 245.029 234.28C245.653 234.28 246.229 234.424 246.745 234.7C247.249 234.988 247.657 235.384 247.957 235.9C248.245 236.428 248.401 237.016 248.401 237.688C248.401 238.36 248.245 238.96 247.945 239.476C247.633 240.004 247.225 240.4 246.697 240.688C246.169 240.976 245.593 241.108 244.969 241.108C244.345 241.108 243.781 240.976 243.277 240.688ZM245.953 239.668C246.265 239.5 246.517 239.248 246.709 238.912C246.901 238.576 246.997 238.168 246.997 237.688C246.997 237.208 246.901 236.812 246.721 236.476C246.529 236.14 246.289 235.888 245.989 235.72C245.677 235.552 245.353 235.468 245.005 235.468C244.645 235.468 244.321 235.552 244.021 235.72C243.721 235.888 243.481 236.14 243.313 236.476C243.133 236.812 243.049 237.208 243.049 237.688C243.049 238.408 243.229 238.96 243.589 239.344C243.949 239.728 244.417 239.92 244.969 239.92C245.317 239.92 245.641 239.836 245.953 239.668ZM249.456 235.9C249.732 235.396 250.104 235 250.584 234.712C251.064 234.424 251.592 234.28 252.168 234.28C252.684 234.28 253.14 234.388 253.524 234.592C253.908 234.796 254.22 235.048 254.46 235.348V234.388H255.84V241H254.46V240.016C254.22 240.328 253.908 240.592 253.512 240.796C253.104 241.012 252.648 241.108 252.144 241.108C251.568 241.108 251.052 240.964 250.584 240.676C250.104 240.388 249.732 239.98 249.456 239.452C249.18 238.924 249.048 238.336 249.048 237.664C249.048 237.004 249.18 236.416 249.456 235.9ZM254.172 236.5C253.98 236.164 253.74 235.912 253.44 235.732C253.128 235.564 252.804 235.468 252.456 235.468C252.096 235.468 251.772 235.564 251.472 235.732C251.16 235.9 250.92 236.152 250.728 236.488C250.536 236.824 250.452 237.208 250.452 237.664C250.452 238.12 250.536 238.528 250.728 238.864C250.92 239.212 251.16 239.476 251.472 239.656C251.784 239.836 252.108 239.92 252.456 239.92C252.804 239.92 253.128 239.836 253.44 239.656C253.74 239.488 253.98 239.224 254.172 238.888C254.364 238.552 254.46 238.144 254.46 237.688C254.46 237.232 254.364 236.836 254.172 236.5ZM257.338 235.9C257.614 235.396 257.986 235 258.466 234.712C258.946 234.424 259.474 234.28 260.062 234.28C260.494 234.28 260.914 234.376 261.334 234.568C261.754 234.76 262.09 235 262.342 235.312V232.12H263.722V241H262.342V240.004C262.114 240.328 261.802 240.592 261.406 240.796C261.01 241.012 260.554 241.108 260.05 241.108C259.474 241.108 258.946 240.964 258.466 240.676C257.986 240.388 257.614 239.98 257.338 239.452C257.062 238.924 256.93 238.336 256.93 237.664C256.93 237.004 257.062 236.416 257.338 235.9ZM262.054 236.5C261.862 236.164 261.622 235.912 261.322 235.732C261.01 235.564 260.686 235.468 260.338 235.468C259.978 235.468 259.654 235.564 259.354 235.732C259.042 235.9 258.802 236.152 258.61 236.488C258.418 236.824 258.334 237.208 258.334 237.664C258.334 238.12 258.418 238.528 258.61 238.864C258.802 239.212 259.042 239.476 259.354 239.656C259.666 239.836 259.99 239.92 260.338 239.92C260.686 239.92 261.01 239.836 261.322 239.656C261.622 239.488 261.862 239.224 262.054 238.888C262.246 238.552 262.342 238.144 262.342 237.688C262.342 237.232 262.246 236.836 262.054 236.5ZM272.576 229.672L269.312 243.1H267.968L271.22 229.672H272.576ZM278.574 240.544C277.926 240.184 277.41 239.668 277.026 239.02C276.642 238.372 276.462 237.628 276.462 236.812C276.462 235.996 276.642 235.264 277.026 234.616C277.41 233.968 277.926 233.464 278.574 233.104C279.222 232.744 279.942 232.552 280.722 232.552C281.502 232.552 282.222 232.744 282.87 233.104C283.518 233.464 284.034 233.968 284.418 234.616C284.79 235.264 284.982 235.996 284.982 236.812C284.982 237.628 284.79 238.372 284.418 239.02C284.034 239.668 283.518 240.184 282.87 240.544C282.222 240.904 281.502 241.084 280.722 241.084C279.942 241.084 279.222 240.904 278.574 240.544ZM282.198 239.524C282.63 239.272 282.966 238.912 283.206 238.444C283.446 237.976 283.578 237.436 283.578 236.812C283.578 236.2 283.446 235.66 283.206 235.192C282.966 234.736 282.63 234.376 282.198 234.124C281.766 233.884 281.274 233.752 280.722 233.752C280.17 233.752 279.678 233.884 279.246 234.124C278.814 234.376 278.466 234.736 278.226 235.192C277.986 235.66 277.866 236.2 277.866 236.812C277.866 237.436 277.986 237.976 278.226 238.444C278.466 238.912 278.814 239.272 279.246 239.524C279.678 239.776 280.17 239.896 280.722 239.896C281.274 239.896 281.766 239.776 282.198 239.524ZM288.634 239.776L290.506 234.388H291.958L289.438 241H287.806L285.298 234.388H286.762L288.634 239.776ZM298.754 238.204H293.702C293.738 238.732 293.93 239.164 294.29 239.476C294.638 239.8 295.07 239.956 295.586 239.956C296.318 239.956 296.834 239.656 297.146 239.032H298.622C298.418 239.644 298.058 240.148 297.53 240.532C297.002 240.916 296.354 241.108 295.586 241.108C294.95 241.108 294.386 240.976 293.882 240.688C293.378 240.4 292.994 240.004 292.706 239.488C292.418 238.972 292.286 238.372 292.286 237.688C292.286 237.016 292.418 236.416 292.694 235.9C292.97 235.384 293.354 234.988 293.858 234.7C294.362 234.424 294.938 234.28 295.586 234.28C296.21 234.28 296.762 234.424 297.254 234.688C297.734 234.964 298.118 235.348 298.394 235.84C298.658 236.332 298.802 236.896 298.802 237.532C298.802 237.784 298.778 238.012 298.754 238.204ZM297.374 237.1C297.362 236.596 297.182 236.2 296.834 235.888C296.474 235.588 296.042 235.432 295.526 235.432C295.046 235.432 294.65 235.588 294.314 235.888C293.978 236.188 293.774 236.596 293.714 237.1H297.374ZM302.058 234.568C302.394 234.376 302.79 234.28 303.246 234.28V235.696H302.898C302.358 235.696 301.95 235.84 301.674 236.104C301.398 236.38 301.266 236.848 301.266 237.52V241H299.898V234.388H301.266V235.348C301.458 235.012 301.722 234.76 302.058 234.568ZM305.622 232.12V241H304.254V232.12H305.622ZM308.344 240.688C307.84 240.4 307.444 240.004 307.156 239.488C306.868 238.972 306.724 238.372 306.724 237.688C306.724 237.016 306.868 236.428 307.168 235.9C307.456 235.384 307.864 234.988 308.38 234.7C308.884 234.424 309.46 234.28 310.096 234.28C310.72 234.28 311.296 234.424 311.812 234.7C312.316 234.988 312.724 235.384 313.024 235.9C313.312 236.428 313.468 237.016 313.468 237.688C313.468 238.36 313.312 238.96 313.012 239.476C312.7 240.004 312.292 240.4 311.764 240.688C311.236 240.976 310.66 241.108 310.036 241.108C309.412 241.108 308.848 240.976 308.344 240.688ZM311.02 239.668C311.332 239.5 311.584 239.248 311.776 238.912C311.968 238.576 312.064 238.168 312.064 237.688C312.064 237.208 311.968 236.812 311.788 236.476C311.596 236.14 311.356 235.888 311.056 235.72C310.744 235.552 310.42 235.468 310.072 235.468C309.712 235.468 309.388 235.552 309.088 235.72C308.788 235.888 308.548 236.14 308.38 236.476C308.2 236.812 308.116 237.208 308.116 237.688C308.116 238.408 308.296 238.96 308.656 239.344C309.016 239.728 309.484 239.92 310.036 239.92C310.384 239.92 310.708 239.836 311.02 239.668ZM314.522 235.9C314.798 235.396 315.17 235 315.65 234.712C316.13 234.424 316.658 234.28 317.234 234.28C317.75 234.28 318.206 234.388 318.59 234.592C318.974 234.796 319.286 235.048 319.526 235.348V234.388H320.906V241H319.526V240.016C319.286 240.328 318.974 240.592 318.578 240.796C318.17 241.012 317.714 241.108 317.21 241.108C316.634 241.108 316.118 240.964 315.65 240.676C315.17 240.388 314.798 239.98 314.522 239.452C314.246 238.924 314.114 238.336 314.114 237.664C314.114 237.004 314.246 236.416 314.522 235.9ZM319.238 236.5C319.046 236.164 318.806 235.912 318.506 235.732C318.194 235.564 317.87 235.468 317.522 235.468C317.162 235.468 316.838 235.564 316.538 235.732C316.226 235.9 315.986 236.152 315.794 236.488C315.602 236.824 315.518 237.208 315.518 237.664C315.518 238.12 315.602 238.528 315.794 238.864C315.986 239.212 316.226 239.476 316.538 239.656C316.85 239.836 317.174 239.92 317.522 239.92C317.87 239.92 318.194 239.836 318.506 239.656C318.806 239.488 319.046 239.224 319.238 238.888C319.43 238.552 319.526 238.144 319.526 237.688C319.526 237.232 319.43 236.836 319.238 236.5ZM322.405 235.9C322.681 235.396 323.053 235 323.533 234.712C324.013 234.424 324.541 234.28 325.129 234.28C325.561 234.28 325.981 234.376 326.401 234.568C326.821 234.76 327.157 235 327.409 235.312V232.12H328.789V241H327.409V240.004C327.181 240.328 326.869 240.592 326.473 240.796C326.077 241.012 325.621 241.108 325.117 241.108C324.541 241.108 324.013 240.964 323.533 240.676C323.053 240.388 322.681 239.98 322.405 239.452C322.129 238.924 321.997 238.336 321.997 237.664C321.997 237.004 322.129 236.416 322.405 235.9ZM327.121 236.5C326.929 236.164 326.689 235.912 326.389 235.732C326.077 235.564 325.753 235.468 325.405 235.468C325.045 235.468 324.721 235.564 324.421 235.732C324.109 235.9 323.869 236.152 323.677 236.488C323.485 236.824 323.401 237.208 323.401 237.664C323.401 238.12 323.485 238.528 323.677 238.864C323.869 239.212 324.109 239.476 324.421 239.656C324.733 239.836 325.057 239.92 325.405 239.92C325.753 239.92 326.077 239.836 326.389 239.656C326.689 239.488 326.929 239.224 327.121 238.888C327.313 238.552 327.409 238.144 327.409 237.688C327.409 237.232 327.313 236.836 327.121 236.5Z" fill="#121212"/>
<path opacity="0.5" d="M0 4C0 1.79086 1.79086 0 4 0H421C423.209 0 425 1.79086 425 4V261C425 263.209 423.209 265 421 265H3.99999C1.79086 265 0 263.209 0 261V4Z" fill="#EBEFEE"/>
</g>
<defs>
<clipPath id="clip0_0_1">
<rect width="425" height="265" rx="4" fill="white"/>
</clipPath>
</defs>
</svg>
