<svg width="425" height="265" viewBox="0 0 425 265" fill="none" xmlns="http://www.w3.org/2000/svg">
<rect width="425" height="265" fill="#F5F5F5"/>
<rect x="-15413" y="-5719" width="23840" height="13376" fill="#F8FAF9"/>
<g style="mix-blend-mode:luminosity">
<g clip-path="url(#clip0_0_1)">
<rect width="425" height="265" rx="4" fill="white"/>
<path d="M324 144.5C324 115.989 312.674 88.6462 292.514 68.486C272.354 48.3259 245.011 37 216.5 37C187.989 37 160.646 48.3259 140.486 68.486C120.326 88.6462 109 115.989 109 144.5L133.054 144.5C133.054 122.369 141.846 101.144 157.495 85.4951C173.144 69.846 194.369 61.0545 216.5 61.0545C238.631 61.0545 259.856 69.846 275.505 85.4951C291.154 101.144 299.946 122.369 299.946 144.5H324Z" fill="#D9D9D9"/>
<path d="M312.586 70.9297V69.9453H315.492V70.9297H312.586ZM320.244 74H319.213V68.6504C319.213 68.4824 319.213 68.3027 319.213 68.1113C319.217 67.9199 319.221 67.7305 319.225 67.543C319.232 67.3516 319.238 67.1699 319.242 66.998C319.25 66.8223 319.256 66.668 319.26 66.5352C319.193 66.6055 319.135 66.666 319.084 66.7168C319.033 66.7676 318.98 66.8164 318.926 66.8633C318.875 66.9102 318.82 66.9609 318.762 67.0156C318.703 67.0664 318.633 67.127 318.551 67.1973L317.684 67.9062L317.121 67.1855L319.365 65.4336H320.244V74ZM325.881 68.7441C326.268 68.7441 326.627 68.7988 326.959 68.9082C327.295 69.0137 327.586 69.1719 327.832 69.3828C328.082 69.5938 328.277 69.8555 328.418 70.168C328.559 70.4805 328.629 70.8418 328.629 71.252C328.629 71.6973 328.562 72.0977 328.43 72.4531C328.297 72.8086 328.1 73.1094 327.838 73.3555C327.576 73.6016 327.252 73.791 326.865 73.9238C326.482 74.0527 326.041 74.1172 325.541 74.1172C325.342 74.1172 325.145 74.1074 324.949 74.0879C324.758 74.0684 324.572 74.0391 324.393 74C324.217 73.9648 324.049 73.918 323.889 73.8594C323.729 73.8008 323.584 73.7324 323.455 73.6543V72.6465C323.584 72.7363 323.734 72.8164 323.906 72.8867C324.082 72.957 324.266 73.0156 324.457 73.0625C324.648 73.1094 324.84 73.1465 325.031 73.1738C325.227 73.1973 325.406 73.209 325.57 73.209C325.879 73.209 326.154 73.1738 326.396 73.1035C326.639 73.0293 326.844 72.916 327.012 72.7637C327.18 72.6113 327.309 72.4199 327.398 72.1895C327.488 71.959 327.533 71.6855 327.533 71.3691C327.533 70.8105 327.361 70.3848 327.018 70.0918C326.674 69.7949 326.174 69.6465 325.518 69.6465C325.412 69.6465 325.297 69.6523 325.172 69.6641C325.051 69.6719 324.928 69.6836 324.803 69.6992C324.682 69.7148 324.564 69.7324 324.451 69.752C324.342 69.7676 324.246 69.7832 324.164 69.7988L323.637 69.4648L323.959 65.4336H328.002V66.4062H324.885L324.656 68.8613C324.781 68.8379 324.945 68.8125 325.148 68.7852C325.355 68.7578 325.6 68.7441 325.881 68.7441ZM335.344 69.7051C335.344 70.3965 335.293 71.0156 335.191 71.5625C335.094 72.1094 334.934 72.5723 334.711 72.9512C334.492 73.3301 334.209 73.6191 333.861 73.8184C333.514 74.0176 333.092 74.1172 332.596 74.1172C332.135 74.1172 331.732 74.0176 331.389 73.8184C331.049 73.6191 330.766 73.3301 330.539 72.9512C330.316 72.5723 330.148 72.1094 330.035 71.5625C329.926 71.0156 329.871 70.3965 329.871 69.7051C329.871 69.0137 329.92 68.3945 330.018 67.8477C330.119 67.3008 330.277 66.8398 330.492 66.4648C330.711 66.0859 330.992 65.7969 331.336 65.5977C331.684 65.3984 332.104 65.2988 332.596 65.2988C333.061 65.2988 333.465 65.3984 333.809 65.5977C334.152 65.793 334.438 66.0801 334.664 66.459C334.891 66.834 335.061 67.2949 335.174 67.8418C335.287 68.3887 335.344 69.0098 335.344 69.7051ZM330.955 69.7051C330.955 70.291 330.984 70.8027 331.043 71.2402C331.102 71.6777 331.195 72.043 331.324 72.3359C331.453 72.625 331.621 72.8438 331.828 72.9922C332.039 73.1367 332.295 73.209 332.596 73.209C332.896 73.209 333.152 73.1367 333.363 72.9922C333.574 72.8477 333.746 72.6309 333.879 72.3418C334.016 72.0527 334.113 71.6895 334.172 71.252C334.234 70.8105 334.266 70.2949 334.266 69.7051C334.266 69.1191 334.234 68.6074 334.172 68.1699C334.113 67.7324 334.016 67.3691 333.879 67.0801C333.746 66.791 333.574 66.5742 333.363 66.4297C333.152 66.2852 332.896 66.2129 332.596 66.2129C332.295 66.2129 332.039 66.2852 331.828 66.4297C331.621 66.5742 331.453 66.791 331.324 67.0801C331.195 67.3691 331.102 67.7324 331.043 68.1699C330.984 68.6074 330.955 69.1191 330.955 69.7051ZM341.953 69.7051C341.953 70.3965 341.902 71.0156 341.801 71.5625C341.703 72.1094 341.543 72.5723 341.32 72.9512C341.102 73.3301 340.818 73.6191 340.471 73.8184C340.123 74.0176 339.701 74.1172 339.205 74.1172C338.744 74.1172 338.342 74.0176 337.998 73.8184C337.658 73.6191 337.375 73.3301 337.148 72.9512C336.926 72.5723 336.758 72.1094 336.645 71.5625C336.535 71.0156 336.48 70.3965 336.48 69.7051C336.48 69.0137 336.529 68.3945 336.627 67.8477C336.729 67.3008 336.887 66.8398 337.102 66.4648C337.32 66.0859 337.602 65.7969 337.945 65.5977C338.293 65.3984 338.713 65.2988 339.205 65.2988C339.67 65.2988 340.074 65.3984 340.418 65.5977C340.762 65.793 341.047 66.0801 341.273 66.459C341.5 66.834 341.67 67.2949 341.783 67.8418C341.896 68.3887 341.953 69.0098 341.953 69.7051ZM337.564 69.7051C337.564 70.291 337.594 70.8027 337.652 71.2402C337.711 71.6777 337.805 72.043 337.934 72.3359C338.062 72.625 338.23 72.8438 338.438 72.9922C338.648 73.1367 338.904 73.209 339.205 73.209C339.506 73.209 339.762 73.1367 339.973 72.9922C340.184 72.8477 340.355 72.6309 340.488 72.3418C340.625 72.0527 340.723 71.6895 340.781 71.252C340.844 70.8105 340.875 70.2949 340.875 69.7051C340.875 69.1191 340.844 68.6074 340.781 68.1699C340.723 67.7324 340.625 67.3691 340.488 67.0801C340.355 66.791 340.184 66.5742 339.973 66.4297C339.762 66.2852 339.506 66.2129 339.205 66.2129C338.904 66.2129 338.648 66.2852 338.438 66.4297C338.23 66.5742 338.062 66.791 337.934 67.0801C337.805 67.3691 337.711 67.7324 337.652 68.1699C337.594 68.6074 337.564 69.1191 337.564 69.7051Z" fill="#595959"/>
<path d="M82.5859 75.9297V74.9453H85.4922V75.9297H82.5859ZM90.2441 79H89.2129V73.6504C89.2129 73.4824 89.2129 73.3027 89.2129 73.1113C89.2168 72.9199 89.2207 72.7305 89.2246 72.543C89.2324 72.3516 89.2383 72.1699 89.2422 71.998C89.25 71.8223 89.2559 71.668 89.2598 71.5352C89.1934 71.6055 89.1348 71.666 89.084 71.7168C89.0332 71.7676 88.9805 71.8164 88.9258 71.8633C88.875 71.9102 88.8203 71.9609 88.7617 72.0156C88.7031 72.0664 88.6328 72.127 88.5508 72.1973L87.6836 72.9062L87.1211 72.1855L89.3652 70.4336H90.2441V79ZM96.8535 79H95.8223V73.6504C95.8223 73.4824 95.8223 73.3027 95.8223 73.1113C95.8262 72.9199 95.8301 72.7305 95.834 72.543C95.8418 72.3516 95.8477 72.1699 95.8516 71.998C95.8594 71.8223 95.8652 71.668 95.8691 71.5352C95.8027 71.6055 95.7441 71.666 95.6934 71.7168C95.6426 71.7676 95.5898 71.8164 95.5352 71.8633C95.4844 71.9102 95.4297 71.9609 95.3711 72.0156C95.3125 72.0664 95.2422 72.127 95.1602 72.1973L94.293 72.9062L93.7305 72.1855L95.9746 70.4336H96.8535V79ZM102.49 73.7441C102.877 73.7441 103.236 73.7988 103.568 73.9082C103.904 74.0137 104.195 74.1719 104.441 74.3828C104.691 74.5938 104.887 74.8555 105.027 75.168C105.168 75.4805 105.238 75.8418 105.238 76.252C105.238 76.6973 105.172 77.0977 105.039 77.4531C104.906 77.8086 104.709 78.1094 104.447 78.3555C104.186 78.6016 103.861 78.791 103.475 78.9238C103.092 79.0527 102.65 79.1172 102.15 79.1172C101.951 79.1172 101.754 79.1074 101.559 79.0879C101.367 79.0684 101.182 79.0391 101.002 79C100.826 78.9648 100.658 78.918 100.498 78.8594C100.338 78.8008 100.193 78.7324 100.064 78.6543V77.6465C100.193 77.7363 100.344 77.8164 100.516 77.8867C100.691 77.957 100.875 78.0156 101.066 78.0625C101.258 78.1094 101.449 78.1465 101.641 78.1738C101.836 78.1973 102.016 78.209 102.18 78.209C102.488 78.209 102.764 78.1738 103.006 78.1035C103.248 78.0293 103.453 77.916 103.621 77.7637C103.789 77.6113 103.918 77.4199 104.008 77.1895C104.098 76.959 104.143 76.6855 104.143 76.3691C104.143 75.8105 103.971 75.3848 103.627 75.0918C103.283 74.7949 102.783 74.6465 102.127 74.6465C102.021 74.6465 101.906 74.6523 101.781 74.6641C101.66 74.6719 101.537 74.6836 101.412 74.6992C101.291 74.7148 101.174 74.7324 101.061 74.752C100.951 74.7676 100.855 74.7832 100.773 74.7988L100.246 74.4648L100.568 70.4336H104.611V71.4062H101.494L101.266 73.8613C101.391 73.8379 101.555 73.8125 101.758 73.7852C101.965 73.7578 102.209 73.7441 102.49 73.7441ZM111.953 74.7051C111.953 75.3965 111.902 76.0156 111.801 76.5625C111.703 77.1094 111.543 77.5723 111.32 77.9512C111.102 78.3301 110.818 78.6191 110.471 78.8184C110.123 79.0176 109.701 79.1172 109.205 79.1172C108.744 79.1172 108.342 79.0176 107.998 78.8184C107.658 78.6191 107.375 78.3301 107.148 77.9512C106.926 77.5723 106.758 77.1094 106.645 76.5625C106.535 76.0156 106.48 75.3965 106.48 74.7051C106.48 74.0137 106.529 73.3945 106.627 72.8477C106.729 72.3008 106.887 71.8398 107.102 71.4648C107.32 71.0859 107.602 70.7969 107.945 70.5977C108.293 70.3984 108.713 70.2988 109.205 70.2988C109.67 70.2988 110.074 70.3984 110.418 70.5977C110.762 70.793 111.047 71.0801 111.273 71.459C111.5 71.834 111.67 72.2949 111.783 72.8418C111.896 73.3887 111.953 74.0098 111.953 74.7051ZM107.564 74.7051C107.564 75.291 107.594 75.8027 107.652 76.2402C107.711 76.6777 107.805 77.043 107.934 77.3359C108.062 77.625 108.23 77.8438 108.438 77.9922C108.648 78.1367 108.904 78.209 109.205 78.209C109.506 78.209 109.762 78.1367 109.973 77.9922C110.184 77.8477 110.355 77.6309 110.488 77.3418C110.625 77.0527 110.723 76.6895 110.781 76.252C110.844 75.8105 110.875 75.2949 110.875 74.7051C110.875 74.1191 110.844 73.6074 110.781 73.1699C110.723 72.7324 110.625 72.3691 110.488 72.0801C110.355 71.791 110.184 71.5742 109.973 71.4297C109.762 71.2852 109.506 71.2129 109.205 71.2129C108.904 71.2129 108.648 71.2852 108.438 71.4297C108.23 71.5742 108.062 71.791 107.934 72.0801C107.805 72.3691 107.711 72.7324 107.652 73.1699C107.594 73.6074 107.564 74.1191 107.564 74.7051ZM118.562 74.7051C118.562 75.3965 118.512 76.0156 118.41 76.5625C118.312 77.1094 118.152 77.5723 117.93 77.9512C117.711 78.3301 117.428 78.6191 117.08 78.8184C116.732 79.0176 116.311 79.1172 115.814 79.1172C115.354 79.1172 114.951 79.0176 114.607 78.8184C114.268 78.6191 113.984 78.3301 113.758 77.9512C113.535 77.5723 113.367 77.1094 113.254 76.5625C113.145 76.0156 113.09 75.3965 113.09 74.7051C113.09 74.0137 113.139 73.3945 113.236 72.8477C113.338 72.3008 113.496 71.8398 113.711 71.4648C113.93 71.0859 114.211 70.7969 114.555 70.5977C114.902 70.3984 115.322 70.2988 115.814 70.2988C116.279 70.2988 116.684 70.3984 117.027 70.5977C117.371 70.793 117.656 71.0801 117.883 71.459C118.109 71.834 118.279 72.2949 118.393 72.8418C118.506 73.3887 118.562 74.0098 118.562 74.7051ZM114.174 74.7051C114.174 75.291 114.203 75.8027 114.262 76.2402C114.32 76.6777 114.414 77.043 114.543 77.3359C114.672 77.625 114.84 77.8438 115.047 77.9922C115.258 78.1367 115.514 78.209 115.814 78.209C116.115 78.209 116.371 78.1367 116.582 77.9922C116.793 77.8477 116.965 77.6309 117.098 77.3418C117.234 77.0527 117.332 76.6895 117.391 76.252C117.453 75.8105 117.484 75.2949 117.484 74.7051C117.484 74.1191 117.453 73.6074 117.391 73.1699C117.332 72.7324 117.234 72.3691 117.098 72.0801C116.965 71.791 116.793 71.5742 116.582 71.4297C116.371 71.2852 116.115 71.2129 115.814 71.2129C115.514 71.2129 115.258 71.2852 115.047 71.4297C114.84 71.5742 114.672 71.791 114.543 72.0801C114.414 72.3691 114.32 72.7324 114.262 73.1699C114.203 73.6074 114.174 74.1191 114.174 74.7051Z" fill="#595959"/>
<path d="M61.5859 142.93V141.945H64.4922V142.93H61.5859ZM69.2441 146H68.2129V140.65C68.2129 140.482 68.2129 140.303 68.2129 140.111C68.2168 139.92 68.2207 139.73 68.2246 139.543C68.2324 139.352 68.2383 139.17 68.2422 138.998C68.25 138.822 68.2559 138.668 68.2598 138.535C68.1934 138.605 68.1348 138.666 68.084 138.717C68.0332 138.768 67.9805 138.816 67.9258 138.863C67.875 138.91 67.8203 138.961 67.7617 139.016C67.7031 139.066 67.6328 139.127 67.5508 139.197L66.6836 139.906L66.1211 139.186L68.3652 137.434H69.2441V146ZM74.8809 140.744C75.2676 140.744 75.627 140.799 75.959 140.908C76.2949 141.014 76.5859 141.172 76.832 141.383C77.082 141.594 77.2773 141.855 77.418 142.168C77.5586 142.48 77.6289 142.842 77.6289 143.252C77.6289 143.697 77.5625 144.098 77.4297 144.453C77.2969 144.809 77.0996 145.109 76.8379 145.355C76.5762 145.602 76.252 145.791 75.8652 145.924C75.4824 146.053 75.041 146.117 74.541 146.117C74.3418 146.117 74.1445 146.107 73.9492 146.088C73.7578 146.068 73.5723 146.039 73.3926 146C73.2168 145.965 73.0488 145.918 72.8887 145.859C72.7285 145.801 72.584 145.732 72.4551 145.654V144.646C72.584 144.736 72.7344 144.816 72.9062 144.887C73.082 144.957 73.2656 145.016 73.457 145.062C73.6484 145.109 73.8398 145.146 74.0312 145.174C74.2266 145.197 74.4062 145.209 74.5703 145.209C74.8789 145.209 75.1543 145.174 75.3965 145.104C75.6387 145.029 75.8438 144.916 76.0117 144.764C76.1797 144.611 76.3086 144.42 76.3984 144.189C76.4883 143.959 76.5332 143.686 76.5332 143.369C76.5332 142.811 76.3613 142.385 76.0176 142.092C75.6738 141.795 75.1738 141.646 74.5176 141.646C74.4121 141.646 74.2969 141.652 74.1719 141.664C74.0508 141.672 73.9277 141.684 73.8027 141.699C73.6816 141.715 73.5645 141.732 73.4512 141.752C73.3418 141.768 73.2461 141.783 73.1641 141.799L72.6367 141.465L72.959 137.434H77.002V138.406H73.8848L73.6562 140.861C73.7812 140.838 73.9453 140.812 74.1484 140.785C74.3555 140.758 74.5996 140.744 74.8809 140.744ZM84.3438 141.705C84.3438 142.396 84.293 143.016 84.1914 143.562C84.0938 144.109 83.9336 144.572 83.7109 144.951C83.4922 145.33 83.209 145.619 82.8613 145.818C82.5137 146.018 82.0918 146.117 81.5957 146.117C81.1348 146.117 80.7324 146.018 80.3887 145.818C80.0488 145.619 79.7656 145.33 79.5391 144.951C79.3164 144.572 79.1484 144.109 79.0352 143.562C78.9258 143.016 78.8711 142.396 78.8711 141.705C78.8711 141.014 78.9199 140.395 79.0176 139.848C79.1191 139.301 79.2773 138.84 79.4922 138.465C79.7109 138.086 79.9922 137.797 80.3359 137.598C80.6836 137.398 81.1035 137.299 81.5957 137.299C82.0605 137.299 82.4648 137.398 82.8086 137.598C83.1523 137.793 83.4375 138.08 83.6641 138.459C83.8906 138.834 84.0605 139.295 84.1738 139.842C84.2871 140.389 84.3438 141.01 84.3438 141.705ZM79.9551 141.705C79.9551 142.291 79.9844 142.803 80.043 143.24C80.1016 143.678 80.1953 144.043 80.3242 144.336C80.4531 144.625 80.6211 144.844 80.8281 144.992C81.0391 145.137 81.2949 145.209 81.5957 145.209C81.8965 145.209 82.1523 145.137 82.3633 144.992C82.5742 144.848 82.7461 144.631 82.8789 144.342C83.0156 144.053 83.1133 143.689 83.1719 143.252C83.2344 142.811 83.2656 142.295 83.2656 141.705C83.2656 141.119 83.2344 140.607 83.1719 140.17C83.1133 139.732 83.0156 139.369 82.8789 139.08C82.7461 138.791 82.5742 138.574 82.3633 138.43C82.1523 138.285 81.8965 138.213 81.5957 138.213C81.2949 138.213 81.0391 138.285 80.8281 138.43C80.6211 138.574 80.4531 138.791 80.3242 139.08C80.1953 139.369 80.1016 139.732 80.043 140.17C79.9844 140.607 79.9551 141.119 79.9551 141.705ZM90.9531 141.705C90.9531 142.396 90.9023 143.016 90.8008 143.562C90.7031 144.109 90.543 144.572 90.3203 144.951C90.1016 145.33 89.8184 145.619 89.4707 145.818C89.123 146.018 88.7012 146.117 88.2051 146.117C87.7441 146.117 87.3418 146.018 86.998 145.818C86.6582 145.619 86.375 145.33 86.1484 144.951C85.9258 144.572 85.7578 144.109 85.6445 143.562C85.5352 143.016 85.4805 142.396 85.4805 141.705C85.4805 141.014 85.5293 140.395 85.627 139.848C85.7285 139.301 85.8867 138.84 86.1016 138.465C86.3203 138.086 86.6016 137.797 86.9453 137.598C87.293 137.398 87.7129 137.299 88.2051 137.299C88.6699 137.299 89.0742 137.398 89.418 137.598C89.7617 137.793 90.0469 138.08 90.2734 138.459C90.5 138.834 90.6699 139.295 90.7832 139.842C90.8965 140.389 90.9531 141.01 90.9531 141.705ZM86.5645 141.705C86.5645 142.291 86.5938 142.803 86.6523 143.24C86.7109 143.678 86.8047 144.043 86.9336 144.336C87.0625 144.625 87.2305 144.844 87.4375 144.992C87.6484 145.137 87.9043 145.209 88.2051 145.209C88.5059 145.209 88.7617 145.137 88.9727 144.992C89.1836 144.848 89.3555 144.631 89.4883 144.342C89.625 144.053 89.7227 143.689 89.7812 143.252C89.8438 142.811 89.875 142.295 89.875 141.705C89.875 141.119 89.8438 140.607 89.7812 140.17C89.7227 139.732 89.625 139.369 89.4883 139.08C89.3555 138.791 89.1836 138.574 88.9727 138.43C88.7617 138.285 88.5059 138.213 88.2051 138.213C87.9043 138.213 87.6484 138.285 87.4375 138.43C87.2305 138.574 87.0625 138.791 86.9336 139.08C86.8047 139.369 86.7109 139.732 86.6523 140.17C86.5938 140.607 86.5645 141.119 86.5645 141.705ZM97.5625 141.705C97.5625 142.396 97.5117 143.016 97.4102 143.562C97.3125 144.109 97.1523 144.572 96.9297 144.951C96.7109 145.33 96.4277 145.619 96.0801 145.818C95.7324 146.018 95.3105 146.117 94.8145 146.117C94.3535 146.117 93.9512 146.018 93.6074 145.818C93.2676 145.619 92.9844 145.33 92.7578 144.951C92.5352 144.572 92.3672 144.109 92.2539 143.562C92.1445 143.016 92.0898 142.396 92.0898 141.705C92.0898 141.014 92.1387 140.395 92.2363 139.848C92.3379 139.301 92.4961 138.84 92.7109 138.465C92.9297 138.086 93.2109 137.797 93.5547 137.598C93.9023 137.398 94.3223 137.299 94.8145 137.299C95.2793 137.299 95.6836 137.398 96.0273 137.598C96.3711 137.793 96.6562 138.08 96.8828 138.459C97.1094 138.834 97.2793 139.295 97.3926 139.842C97.5059 140.389 97.5625 141.01 97.5625 141.705ZM93.1738 141.705C93.1738 142.291 93.2031 142.803 93.2617 143.24C93.3203 143.678 93.4141 144.043 93.543 144.336C93.6719 144.625 93.8398 144.844 94.0469 144.992C94.2578 145.137 94.5137 145.209 94.8145 145.209C95.1152 145.209 95.3711 145.137 95.582 144.992C95.793 144.848 95.9648 144.631 96.0977 144.342C96.2344 144.053 96.332 143.689 96.3906 143.252C96.4531 142.811 96.4844 142.295 96.4844 141.705C96.4844 141.119 96.4531 140.607 96.3906 140.17C96.332 139.732 96.2344 139.369 96.0977 139.08C95.9648 138.791 95.793 138.574 95.582 138.43C95.3711 138.285 95.1152 138.213 94.8145 138.213C94.5137 138.213 94.2578 138.285 94.0469 138.43C93.8398 138.574 93.6719 138.791 93.543 139.08C93.4141 139.369 93.3203 139.732 93.2617 140.17C93.2031 140.607 93.1738 141.119 93.1738 141.705Z" fill="#595959"/>
<path d="M337.193 140.744C337.58 140.744 337.939 140.799 338.271 140.908C338.607 141.014 338.898 141.172 339.145 141.383C339.395 141.594 339.59 141.855 339.73 142.168C339.871 142.48 339.941 142.842 339.941 143.252C339.941 143.697 339.875 144.098 339.742 144.453C339.609 144.809 339.412 145.109 339.15 145.355C338.889 145.602 338.564 145.791 338.178 145.924C337.795 146.053 337.354 146.117 336.854 146.117C336.654 146.117 336.457 146.107 336.262 146.088C336.07 146.068 335.885 146.039 335.705 146C335.529 145.965 335.361 145.918 335.201 145.859C335.041 145.801 334.896 145.732 334.768 145.654V144.646C334.896 144.736 335.047 144.816 335.219 144.887C335.395 144.957 335.578 145.016 335.77 145.062C335.961 145.109 336.152 145.146 336.344 145.174C336.539 145.197 336.719 145.209 336.883 145.209C337.191 145.209 337.467 145.174 337.709 145.104C337.951 145.029 338.156 144.916 338.324 144.764C338.492 144.611 338.621 144.42 338.711 144.189C338.801 143.959 338.846 143.686 338.846 143.369C338.846 142.811 338.674 142.385 338.33 142.092C337.986 141.795 337.486 141.646 336.83 141.646C336.725 141.646 336.609 141.652 336.484 141.664C336.363 141.672 336.24 141.684 336.115 141.699C335.994 141.715 335.877 141.732 335.764 141.752C335.654 141.768 335.559 141.783 335.477 141.799L334.949 141.465L335.271 137.434H339.314V138.406H336.197L335.969 140.861C336.094 140.838 336.258 140.812 336.461 140.785C336.668 140.758 336.912 140.744 337.193 140.744ZM346.656 141.705C346.656 142.396 346.605 143.016 346.504 143.562C346.406 144.109 346.246 144.572 346.023 144.951C345.805 145.33 345.521 145.619 345.174 145.818C344.826 146.018 344.404 146.117 343.908 146.117C343.447 146.117 343.045 146.018 342.701 145.818C342.361 145.619 342.078 145.33 341.852 144.951C341.629 144.572 341.461 144.109 341.348 143.562C341.238 143.016 341.184 142.396 341.184 141.705C341.184 141.014 341.232 140.395 341.33 139.848C341.432 139.301 341.59 138.84 341.805 138.465C342.023 138.086 342.305 137.797 342.648 137.598C342.996 137.398 343.416 137.299 343.908 137.299C344.373 137.299 344.777 137.398 345.121 137.598C345.465 137.793 345.75 138.08 345.977 138.459C346.203 138.834 346.373 139.295 346.486 139.842C346.6 140.389 346.656 141.01 346.656 141.705ZM342.268 141.705C342.268 142.291 342.297 142.803 342.355 143.24C342.414 143.678 342.508 144.043 342.637 144.336C342.766 144.625 342.934 144.844 343.141 144.992C343.352 145.137 343.607 145.209 343.908 145.209C344.209 145.209 344.465 145.137 344.676 144.992C344.887 144.848 345.059 144.631 345.191 144.342C345.328 144.053 345.426 143.689 345.484 143.252C345.547 142.811 345.578 142.295 345.578 141.705C345.578 141.119 345.547 140.607 345.484 140.17C345.426 139.732 345.328 139.369 345.191 139.08C345.059 138.791 344.887 138.574 344.676 138.43C344.465 138.285 344.209 138.213 343.908 138.213C343.607 138.213 343.352 138.285 343.141 138.43C342.934 138.574 342.766 138.791 342.637 139.08C342.508 139.369 342.414 139.732 342.355 140.17C342.297 140.607 342.268 141.119 342.268 141.705ZM353.266 141.705C353.266 142.396 353.215 143.016 353.113 143.562C353.016 144.109 352.855 144.572 352.633 144.951C352.414 145.33 352.131 145.619 351.783 145.818C351.436 146.018 351.014 146.117 350.518 146.117C350.057 146.117 349.654 146.018 349.311 145.818C348.971 145.619 348.688 145.33 348.461 144.951C348.238 144.572 348.07 144.109 347.957 143.562C347.848 143.016 347.793 142.396 347.793 141.705C347.793 141.014 347.842 140.395 347.939 139.848C348.041 139.301 348.199 138.84 348.414 138.465C348.633 138.086 348.914 137.797 349.258 137.598C349.605 137.398 350.025 137.299 350.518 137.299C350.982 137.299 351.387 137.398 351.73 137.598C352.074 137.793 352.359 138.08 352.586 138.459C352.812 138.834 352.982 139.295 353.096 139.842C353.209 140.389 353.266 141.01 353.266 141.705ZM348.877 141.705C348.877 142.291 348.906 142.803 348.965 143.24C349.023 143.678 349.117 144.043 349.246 144.336C349.375 144.625 349.543 144.844 349.75 144.992C349.961 145.137 350.217 145.209 350.518 145.209C350.818 145.209 351.074 145.137 351.285 144.992C351.496 144.848 351.668 144.631 351.801 144.342C351.938 144.053 352.035 143.689 352.094 143.252C352.156 142.811 352.188 142.295 352.188 141.705C352.188 141.119 352.156 140.607 352.094 140.17C352.035 139.732 351.938 139.369 351.801 139.08C351.668 138.791 351.496 138.574 351.285 138.43C351.074 138.285 350.818 138.213 350.518 138.213C350.217 138.213 349.961 138.285 349.75 138.43C349.543 138.574 349.375 138.791 349.246 139.08C349.117 139.369 349.023 139.732 348.965 140.17C348.906 140.607 348.877 141.119 348.877 141.705ZM359.875 141.705C359.875 142.396 359.824 143.016 359.723 143.562C359.625 144.109 359.465 144.572 359.242 144.951C359.023 145.33 358.74 145.619 358.393 145.818C358.045 146.018 357.623 146.117 357.127 146.117C356.666 146.117 356.264 146.018 355.92 145.818C355.58 145.619 355.297 145.33 355.07 144.951C354.848 144.572 354.68 144.109 354.566 143.562C354.457 143.016 354.402 142.396 354.402 141.705C354.402 141.014 354.451 140.395 354.549 139.848C354.65 139.301 354.809 138.84 355.023 138.465C355.242 138.086 355.523 137.797 355.867 137.598C356.215 137.398 356.635 137.299 357.127 137.299C357.592 137.299 357.996 137.398 358.34 137.598C358.684 137.793 358.969 138.08 359.195 138.459C359.422 138.834 359.592 139.295 359.705 139.842C359.818 140.389 359.875 141.01 359.875 141.705ZM355.486 141.705C355.486 142.291 355.516 142.803 355.574 143.24C355.633 143.678 355.727 144.043 355.855 144.336C355.984 144.625 356.152 144.844 356.359 144.992C356.57 145.137 356.826 145.209 357.127 145.209C357.428 145.209 357.684 145.137 357.895 144.992C358.105 144.848 358.277 144.631 358.41 144.342C358.547 144.053 358.645 143.689 358.703 143.252C358.766 142.811 358.797 142.295 358.797 141.705C358.797 141.119 358.766 140.607 358.703 140.17C358.645 139.732 358.547 139.369 358.41 139.08C358.277 138.791 358.105 138.574 357.895 138.43C357.684 138.285 357.428 138.213 357.127 138.213C356.826 138.213 356.57 138.285 356.359 138.43C356.152 138.574 355.984 138.791 355.855 139.08C355.727 139.369 355.633 139.732 355.574 140.17C355.516 140.607 355.486 141.119 355.486 141.705Z" fill="#595959"/>
<line x1="105" y1="143.5" x2="110" y2="143.5" stroke="#595959"/>
<line x1="324" y1="143.5" x2="329" y2="143.5" stroke="#595959"/>
<line x1="304.493" y1="75.1285" x2="300.473" y2="78.1026" stroke="#595959"/>
<line y1="-0.5" x2="5" y2="-0.5" transform="matrix(0.874619 0.484809 0.484809 -0.874619 128 76)" stroke="#595959"/>
<path d="M132.025 78.015C117.117 96.9571 109.008 120.36 109 144.465L132.896 144.473C132.902 125.726 139.209 107.525 150.803 92.794L132.025 78.015Z" fill="#E6B056"/>
<path d="M302.784 80.3797C292.904 67.0856 280.086 56.254 265.331 48.7304C250.575 41.2068 234.28 37.1946 217.718 37.0069C201.156 36.8192 184.775 40.4611 169.852 47.6484C154.93 54.8358 141.87 65.374 131.692 78.4409L150.535 93.1186C158.452 82.955 168.61 74.7582 180.217 69.1678C191.824 63.5775 204.565 60.7447 217.447 60.8907C230.33 61.0367 243.004 64.1574 254.481 70.0094C265.958 75.8613 275.928 84.2862 283.612 94.6266L302.784 80.3797Z" fill="#4CA2A8"/>
<path d="M300.975 78.015C315.883 96.9571 323.992 120.36 324 144.465L299.818 144.473C299.812 125.79 293.527 107.652 281.972 92.9709L300.975 78.015Z" fill="#E6B056"/>
<rect x="158" y="174" width="109" height="40" fill="#EBEFEE"/>
<path d="M185.053 193.344V195.232H178.269V193.344H185.053ZM187.763 197.472C188.787 196.619 189.603 195.909 190.211 195.344C190.819 194.768 191.326 194.171 191.731 193.552C192.136 192.933 192.339 192.325 192.339 191.728C192.339 191.184 192.211 190.757 191.955 190.448C191.699 190.139 191.304 189.984 190.771 189.984C190.238 189.984 189.827 190.165 189.539 190.528C189.251 190.88 189.102 191.365 189.091 191.984H186.915C186.958 190.704 187.336 189.733 188.051 189.072C188.776 188.411 189.694 188.08 190.803 188.08C192.019 188.08 192.952 188.405 193.603 189.056C194.254 189.696 194.579 190.544 194.579 191.6C194.579 192.432 194.355 193.227 193.907 193.984C193.459 194.741 192.947 195.403 192.371 195.968C191.795 196.523 191.043 197.195 190.115 197.984H194.835V199.84H186.931V198.176L187.763 197.472ZM197.948 193.824C196.882 193.269 196.348 192.411 196.348 191.248C196.348 190.672 196.492 190.149 196.78 189.68C197.079 189.2 197.522 188.821 198.108 188.544C198.706 188.256 199.431 188.112 200.284 188.112C201.138 188.112 201.858 188.256 202.444 188.544C203.042 188.821 203.484 189.2 203.772 189.68C204.071 190.149 204.22 190.672 204.22 191.248C204.22 191.835 204.076 192.352 203.788 192.8C203.5 193.237 203.116 193.579 202.636 193.824C203.223 194.08 203.682 194.453 204.012 194.944C204.343 195.435 204.508 196.016 204.508 196.688C204.508 197.413 204.322 198.048 203.948 198.592C203.586 199.125 203.084 199.536 202.444 199.824C201.804 200.112 201.084 200.256 200.284 200.256C199.484 200.256 198.764 200.112 198.124 199.824C197.495 199.536 196.994 199.125 196.62 198.592C196.258 198.048 196.076 197.413 196.076 196.688C196.076 196.016 196.242 195.435 196.572 194.944C196.903 194.443 197.362 194.069 197.948 193.824ZM202.044 191.568C202.044 191.045 201.884 190.64 201.564 190.352C201.255 190.064 200.828 189.92 200.284 189.92C199.751 189.92 199.324 190.064 199.004 190.352C198.695 190.64 198.54 191.051 198.54 191.584C198.54 192.064 198.7 192.448 199.02 192.736C199.351 193.024 199.772 193.168 200.284 193.168C200.796 193.168 201.218 193.024 201.548 192.736C201.879 192.437 202.044 192.048 202.044 191.568ZM200.284 194.8C199.676 194.8 199.18 194.955 198.796 195.264C198.423 195.573 198.236 196.016 198.236 196.592C198.236 197.125 198.418 197.563 198.78 197.904C199.154 198.235 199.655 198.4 200.284 198.4C200.914 198.4 201.41 198.229 201.772 197.888C202.135 197.547 202.316 197.115 202.316 196.592C202.316 196.027 202.13 195.589 201.756 195.28C201.383 194.96 200.892 194.8 200.284 194.8ZM213.868 190.272H208.684V193.008C208.908 192.731 209.228 192.507 209.644 192.336C210.06 192.155 210.502 192.064 210.972 192.064C211.825 192.064 212.524 192.251 213.068 192.624C213.612 192.997 214.006 193.477 214.252 194.064C214.497 194.64 214.62 195.259 214.62 195.92C214.62 197.147 214.268 198.133 213.564 198.88C212.87 199.627 211.878 200 210.588 200C209.372 200 208.401 199.696 207.676 199.088C206.95 198.48 206.54 197.685 206.444 196.704H208.62C208.716 197.131 208.929 197.472 209.26 197.728C209.601 197.984 210.033 198.112 210.556 198.112C211.185 198.112 211.66 197.915 211.98 197.52C212.3 197.125 212.46 196.603 212.46 195.952C212.46 195.291 212.294 194.789 211.964 194.448C211.644 194.096 211.169 193.92 210.54 193.92C210.092 193.92 209.718 194.032 209.42 194.256C209.121 194.48 208.908 194.779 208.78 195.152H206.636V188.304H213.868V190.272ZM218.667 196.72C218.752 197.189 218.944 197.552 219.243 197.808C219.552 198.053 219.963 198.176 220.475 198.176C221.136 198.176 221.616 197.904 221.915 197.36C222.213 196.805 222.363 195.877 222.363 194.576C222.117 194.917 221.771 195.184 221.323 195.376C220.885 195.568 220.411 195.664 219.899 195.664C219.216 195.664 218.597 195.525 218.043 195.248C217.499 194.96 217.067 194.539 216.747 193.984C216.427 193.419 216.267 192.736 216.267 191.936C216.267 190.752 216.619 189.813 217.323 189.12C218.027 188.416 218.987 188.064 220.203 188.064C221.717 188.064 222.784 188.549 223.403 189.52C224.032 190.491 224.347 191.952 224.347 193.904C224.347 195.291 224.224 196.427 223.979 197.312C223.744 198.197 223.333 198.869 222.747 199.328C222.171 199.787 221.381 200.016 220.379 200.016C219.589 200.016 218.917 199.867 218.363 199.568C217.808 199.259 217.381 198.859 217.083 198.368C216.795 197.867 216.629 197.317 216.587 196.72H218.667ZM220.363 193.84C220.917 193.84 221.355 193.669 221.675 193.328C221.995 192.987 222.155 192.528 222.155 191.952C222.155 191.323 221.984 190.837 221.643 190.496C221.312 190.144 220.859 189.968 220.283 189.968C219.707 189.968 219.248 190.149 218.907 190.512C218.576 190.864 218.411 191.333 218.411 191.92C218.411 192.485 218.571 192.949 218.891 193.312C219.221 193.664 219.712 193.84 220.363 193.84ZM231.899 188.16V200H229.659V188.16H231.899ZM236.102 192.432C236.39 192.005 236.784 191.659 237.286 191.392C237.798 191.125 238.379 190.992 239.03 190.992C239.787 190.992 240.47 191.179 241.078 191.552C241.696 191.925 242.182 192.459 242.534 193.152C242.896 193.835 243.078 194.629 243.078 195.536C243.078 196.443 242.896 197.248 242.534 197.952C242.182 198.645 241.696 199.184 241.078 199.568C240.47 199.952 239.787 200.144 239.03 200.144C238.368 200.144 237.787 200.016 237.286 199.76C236.795 199.493 236.4 199.152 236.102 198.736V200H233.862V188.16H236.102V192.432ZM240.79 195.536C240.79 195.003 240.678 194.544 240.454 194.16C240.24 193.765 239.952 193.467 239.59 193.264C239.238 193.061 238.854 192.96 238.438 192.96C238.032 192.96 237.648 193.067 237.286 193.28C236.934 193.483 236.646 193.781 236.422 194.176C236.208 194.571 236.102 195.035 236.102 195.568C236.102 196.101 236.208 196.565 236.422 196.96C236.646 197.355 236.934 197.659 237.286 197.872C237.648 198.075 238.032 198.176 238.438 198.176C238.854 198.176 239.238 198.069 239.59 197.856C239.952 197.643 240.24 197.339 240.454 196.944C240.678 196.549 240.79 196.08 240.79 195.536ZM248.52 192.976H246.968V200H244.696V192.976H243.688V191.136H244.696V190.688C244.696 189.6 245.005 188.8 245.624 188.288C246.242 187.776 247.176 187.536 248.424 187.568V189.456C247.88 189.445 247.501 189.536 247.288 189.728C247.074 189.92 246.968 190.267 246.968 190.768V191.136H248.52V192.976Z" fill="#121212"/>
<circle cx="216" cy="134" r="10" fill="#EBEFEE"/>
<path d="M238.192 38.6179L216.927 148.803L208.213 146.55L238.192 38.6179Z" fill="#121212"/>
<circle cx="216" cy="134" r="7" fill="white"/>
<path d="M111.268 238.896H114.088V240H109.9V231.66H111.268V238.896ZM120.514 235.344C120.31 235.728 119.986 236.028 119.554 236.268C119.11 236.508 118.546 236.616 117.862 236.616H116.35V240H114.982V231.66H117.862C118.498 231.66 119.038 231.78 119.482 231.996C119.926 232.212 120.262 232.512 120.478 232.884C120.694 233.268 120.814 233.688 120.814 234.144C120.814 234.576 120.706 234.972 120.514 235.344ZM119.026 235.152C119.278 234.912 119.41 234.576 119.41 234.144C119.41 233.232 118.894 232.776 117.862 232.776H116.35V235.5H117.862C118.378 235.5 118.762 235.392 119.026 235.152ZM126.896 233.568C127.232 233.376 127.628 233.28 128.084 233.28V234.696H127.736C127.196 234.696 126.788 234.84 126.512 235.104C126.236 235.38 126.104 235.848 126.104 236.52V240H124.736V233.388H126.104V234.348C126.296 234.012 126.56 233.76 126.896 233.568ZM135.103 237.204H130.051C130.087 237.732 130.279 238.164 130.639 238.476C130.987 238.8 131.419 238.956 131.935 238.956C132.667 238.956 133.183 238.656 133.495 238.032H134.971C134.767 238.644 134.407 239.148 133.879 239.532C133.351 239.916 132.703 240.108 131.935 240.108C131.299 240.108 130.735 239.976 130.231 239.688C129.727 239.4 129.343 239.004 129.055 238.488C128.767 237.972 128.635 237.372 128.635 236.688C128.635 236.016 128.767 235.416 129.043 234.9C129.319 234.384 129.703 233.988 130.207 233.7C130.711 233.424 131.287 233.28 131.935 233.28C132.559 233.28 133.111 233.424 133.603 233.688C134.083 233.964 134.467 234.348 134.743 234.84C135.007 235.332 135.151 235.896 135.151 236.532C135.151 236.784 135.127 237.012 135.103 237.204ZM133.723 236.1C133.711 235.596 133.531 235.2 133.183 234.888C132.823 234.588 132.391 234.432 131.875 234.432C131.395 234.432 130.999 234.588 130.663 234.888C130.327 235.188 130.123 235.596 130.063 236.1H133.723ZM136.2 234.9C136.476 234.384 136.86 233.988 137.352 233.7C137.832 233.424 138.396 233.28 139.032 233.28C139.824 233.28 140.484 233.472 141.012 233.856C141.54 234.24 141.888 234.78 142.08 235.476H140.604C140.484 235.152 140.292 234.9 140.028 234.708C139.764 234.528 139.428 234.432 139.032 234.432C138.468 234.432 138.024 234.636 137.688 235.032C137.352 235.428 137.196 235.98 137.196 236.688C137.196 237.408 137.352 237.96 137.688 238.356C138.024 238.764 138.468 238.956 139.032 238.956C139.824 238.956 140.34 238.608 140.604 237.912H142.08C141.888 238.584 141.528 239.124 141 239.52C140.472 239.916 139.812 240.108 139.032 240.108C138.396 240.108 137.832 239.976 137.352 239.688C136.86 239.4 136.476 239.004 136.2 238.488C135.924 237.972 135.792 237.372 135.792 236.688C135.792 236.016 135.924 235.416 136.2 234.9ZM144.369 239.688C143.865 239.4 143.469 239.004 143.181 238.488C142.893 237.972 142.749 237.372 142.749 236.688C142.749 236.016 142.893 235.428 143.193 234.9C143.481 234.384 143.889 233.988 144.405 233.7C144.909 233.424 145.485 233.28 146.121 233.28C146.745 233.28 147.321 233.424 147.837 233.7C148.341 233.988 148.749 234.384 149.049 234.9C149.337 235.428 149.493 236.016 149.493 236.688C149.493 237.36 149.337 237.96 149.037 238.476C148.725 239.004 148.317 239.4 147.789 239.688C147.261 239.976 146.685 240.108 146.061 240.108C145.437 240.108 144.873 239.976 144.369 239.688ZM147.045 238.668C147.357 238.5 147.609 238.248 147.801 237.912C147.993 237.576 148.089 237.168 148.089 236.688C148.089 236.208 147.993 235.812 147.813 235.476C147.621 235.14 147.381 234.888 147.081 234.72C146.769 234.552 146.445 234.468 146.097 234.468C145.737 234.468 145.413 234.552 145.113 234.72C144.813 234.888 144.573 235.14 144.405 235.476C144.225 235.812 144.141 236.208 144.141 236.688C144.141 237.408 144.321 237.96 144.681 238.344C145.041 238.728 145.509 238.92 146.061 238.92C146.409 238.92 146.733 238.836 147.045 238.668ZM156.583 233.388V240H155.215V239.22C154.999 239.496 154.711 239.712 154.363 239.868C154.015 240.024 153.643 240.096 153.259 240.096C152.731 240.096 152.263 239.988 151.855 239.772C151.447 239.556 151.123 239.244 150.883 238.812C150.643 238.392 150.535 237.876 150.535 237.276V233.388H151.891V237.072C151.891 237.672 152.035 238.128 152.335 238.44C152.623 238.752 153.031 238.908 153.547 238.908C154.051 238.908 154.459 238.752 154.759 238.44C155.059 238.128 155.215 237.672 155.215 237.072V233.388H156.583ZM160.454 233.592C160.85 233.388 161.306 233.28 161.81 233.28C162.386 233.28 162.902 233.424 163.382 233.712C163.862 234 164.234 234.396 164.51 234.9C164.774 235.416 164.918 236.004 164.918 236.664C164.918 237.336 164.774 237.924 164.51 238.452C164.234 238.98 163.862 239.388 163.382 239.676C162.902 239.964 162.386 240.108 161.81 240.108C161.306 240.108 160.85 240.012 160.466 239.808C160.07 239.604 159.746 239.352 159.506 239.04V243.144H158.138V233.388H159.506V234.36C159.734 234.06 160.046 233.808 160.454 233.592ZM163.238 235.488C163.046 235.152 162.806 234.9 162.494 234.732C162.182 234.564 161.858 234.468 161.51 234.468C161.162 234.468 160.838 234.564 160.526 234.732C160.214 234.912 159.974 235.164 159.782 235.5C159.59 235.836 159.506 236.232 159.506 236.688C159.506 237.144 159.59 237.552 159.782 237.888C159.974 238.224 160.214 238.488 160.526 238.656C160.838 238.836 161.162 238.92 161.51 238.92C161.858 238.92 162.182 238.836 162.494 238.656C162.806 238.476 163.046 238.212 163.238 237.864C163.43 237.528 163.526 237.12 163.526 236.664C163.526 236.208 163.43 235.824 163.238 235.488ZM170.064 239.688C169.56 239.4 169.164 239.004 168.876 238.488C168.588 237.972 168.444 237.372 168.444 236.688C168.444 236.016 168.588 235.428 168.888 234.9C169.176 234.384 169.584 233.988 170.1 233.7C170.604 233.424 171.18 233.28 171.816 233.28C172.44 233.28 173.016 233.424 173.532 233.7C174.036 233.988 174.444 234.384 174.744 234.9C175.032 235.428 175.188 236.016 175.188 236.688C175.188 237.36 175.032 237.96 174.732 238.476C174.42 239.004 174.012 239.4 173.484 239.688C172.956 239.976 172.38 240.108 171.756 240.108C171.132 240.108 170.568 239.976 170.064 239.688ZM172.74 238.668C173.052 238.5 173.304 238.248 173.496 237.912C173.688 237.576 173.784 237.168 173.784 236.688C173.784 236.208 173.688 235.812 173.508 235.476C173.316 235.14 173.076 234.888 172.776 234.72C172.464 234.552 172.14 234.468 171.792 234.468C171.432 234.468 171.108 234.552 170.808 234.72C170.508 234.888 170.268 235.14 170.1 235.476C169.92 235.812 169.836 236.208 169.836 236.688C169.836 237.408 170.016 237.96 170.376 238.344C170.736 238.728 171.204 238.92 171.756 238.92C172.104 238.92 172.428 238.836 172.74 238.668ZM178.451 233.568C178.787 233.376 179.183 233.28 179.639 233.28V234.696H179.291C178.751 234.696 178.343 234.84 178.067 235.104C177.791 235.38 177.659 235.848 177.659 236.52V240H176.291V233.388H177.659V234.348C177.851 234.012 178.115 233.76 178.451 233.568ZM180.718 232.26C180.55 232.092 180.466 231.888 180.466 231.636C180.466 231.396 180.55 231.18 180.718 231.012C180.886 230.844 181.09 230.76 181.342 230.76C181.582 230.76 181.786 230.844 181.954 231.012C182.122 231.18 182.206 231.396 182.206 231.636C182.206 231.888 182.122 232.092 181.954 232.26C181.786 232.428 181.582 232.512 181.342 232.512C181.09 232.512 180.886 232.428 180.718 232.26ZM182.014 233.388V240H180.646V233.388H182.014ZM186.332 234.504H185.108V240H183.728V234.504H182.948V233.388H183.728V232.92C183.728 232.164 183.92 231.612 184.328 231.264C184.736 230.916 185.372 230.736 186.236 230.736V231.876C185.816 231.876 185.528 231.96 185.36 232.116C185.192 232.272 185.108 232.536 185.108 232.92V233.388H186.332V234.504ZM187.367 232.26C187.199 232.092 187.115 231.888 187.115 231.636C187.115 231.396 187.199 231.18 187.367 231.012C187.535 230.844 187.739 230.76 187.991 230.76C188.231 230.76 188.435 230.844 188.603 231.012C188.771 231.18 188.855 231.396 188.855 231.636C188.855 231.888 188.771 232.092 188.603 232.26C188.435 232.428 188.231 232.512 187.991 232.512C187.739 232.512 187.535 232.428 187.367 232.26ZM188.663 233.388V240H187.295V233.388H188.663ZM190.161 234.9C190.437 234.384 190.821 233.988 191.313 233.7C191.793 233.424 192.357 233.28 192.993 233.28C193.785 233.28 194.445 233.472 194.973 233.856C195.501 234.24 195.849 234.78 196.041 235.476H194.565C194.445 235.152 194.253 234.9 193.989 234.708C193.725 234.528 193.389 234.432 192.993 234.432C192.429 234.432 191.985 234.636 191.649 235.032C191.313 235.428 191.157 235.98 191.157 236.688C191.157 237.408 191.313 237.96 191.649 238.356C191.985 238.764 192.429 238.956 192.993 238.956C193.785 238.956 194.301 238.608 194.565 237.912H196.041C195.849 238.584 195.489 239.124 194.961 239.52C194.433 239.916 193.773 240.108 192.993 240.108C192.357 240.108 191.793 239.976 191.313 239.688C190.821 239.4 190.437 239.004 190.161 238.488C189.885 237.972 189.753 237.372 189.753 236.688C189.753 236.016 189.885 235.416 190.161 234.9ZM203.166 237.204H198.114C198.15 237.732 198.342 238.164 198.702 238.476C199.05 238.8 199.482 238.956 199.998 238.956C200.73 238.956 201.246 238.656 201.558 238.032H203.034C202.83 238.644 202.47 239.148 201.942 239.532C201.414 239.916 200.766 240.108 199.998 240.108C199.362 240.108 198.798 239.976 198.294 239.688C197.79 239.4 197.406 239.004 197.118 238.488C196.83 237.972 196.698 237.372 196.698 236.688C196.698 236.016 196.83 235.416 197.106 234.9C197.382 234.384 197.766 233.988 198.27 233.7C198.774 233.424 199.35 233.28 199.998 233.28C200.622 233.28 201.174 233.424 201.666 233.688C202.146 233.964 202.53 234.348 202.806 234.84C203.07 235.332 203.214 235.896 203.214 236.532C203.214 236.784 203.19 237.012 203.166 237.204ZM201.786 236.1C201.774 235.596 201.594 235.2 201.246 234.888C200.886 234.588 200.454 234.432 199.938 234.432C199.458 234.432 199.062 234.588 198.726 234.888C198.39 235.188 198.186 235.596 198.126 236.1H201.786ZM207.249 232.26C207.081 232.092 206.997 231.888 206.997 231.636C206.997 231.396 207.081 231.18 207.249 231.012C207.417 230.844 207.621 230.76 207.873 230.76C208.113 230.76 208.317 230.844 208.485 231.012C208.653 231.18 208.737 231.396 208.737 231.636C208.737 231.888 208.653 232.092 208.485 232.26C208.317 232.428 208.113 232.512 207.873 232.512C207.621 232.512 207.417 232.428 207.249 232.26ZM208.545 233.388V240H207.177V233.388H208.545ZM214.819 233.604C215.227 233.82 215.551 234.144 215.791 234.564C216.019 234.996 216.139 235.5 216.139 236.1V240H214.783V236.304C214.783 235.716 214.627 235.26 214.339 234.948C214.039 234.636 213.631 234.468 213.127 234.468C212.611 234.468 212.203 234.636 211.903 234.948C211.603 235.26 211.459 235.716 211.459 236.304V240H210.091V233.388H211.459V234.144C211.675 233.88 211.963 233.664 212.311 233.508C212.659 233.364 213.031 233.28 213.427 233.28C213.943 233.28 214.411 233.388 214.819 233.604ZM218.63 239.832C218.222 239.64 217.898 239.388 217.658 239.064C217.418 238.74 217.286 238.38 217.274 237.972H218.69C218.714 238.26 218.846 238.488 219.086 238.68C219.326 238.872 219.638 238.956 220.01 238.956C220.394 238.956 220.682 238.884 220.898 238.74C221.114 238.596 221.222 238.404 221.222 238.164C221.222 237.924 221.102 237.732 220.862 237.612C220.622 237.492 220.25 237.36 219.746 237.216C219.242 237.084 218.846 236.952 218.534 236.82C218.222 236.7 217.946 236.496 217.718 236.232C217.49 235.968 217.382 235.62 217.382 235.188C217.382 234.84 217.478 234.516 217.694 234.228C217.898 233.94 218.198 233.7 218.582 233.532C218.966 233.364 219.422 233.28 219.926 233.28C220.67 233.28 221.282 233.472 221.738 233.856C222.194 234.24 222.446 234.756 222.482 235.404H221.114C221.09 235.116 220.97 234.876 220.754 234.696C220.538 234.528 220.238 234.432 219.878 234.432C219.518 234.432 219.242 234.504 219.05 234.636C218.858 234.78 218.762 234.96 218.762 235.176C218.762 235.356 218.822 235.5 218.954 235.62C219.074 235.74 219.23 235.836 219.422 235.908C219.602 235.98 219.878 236.064 220.238 236.16C220.718 236.292 221.102 236.424 221.414 236.556C221.726 236.688 221.99 236.88 222.218 237.132C222.434 237.396 222.554 237.732 222.566 238.152C222.566 238.536 222.458 238.872 222.254 239.16C222.038 239.46 221.75 239.688 221.366 239.856C220.982 240.024 220.538 240.108 220.034 240.108C219.506 240.108 219.038 240.024 218.63 239.832ZM225.391 234.504V238.164C225.391 238.416 225.439 238.596 225.559 238.704C225.679 238.812 225.871 238.86 226.159 238.86H226.999V240H225.919C225.295 240 224.827 239.856 224.503 239.568C224.167 239.28 224.011 238.812 224.011 238.164V234.504H223.231V233.388H224.011V231.744H225.391V233.388H226.999V234.504H225.391ZM227.961 234.9C228.237 234.396 228.609 234 229.089 233.712C229.569 233.424 230.097 233.28 230.673 233.28C231.189 233.28 231.645 233.388 232.029 233.592C232.413 233.796 232.725 234.048 232.965 234.348V233.388H234.345V240H232.965V239.016C232.725 239.328 232.413 239.592 232.017 239.796C231.609 240.012 231.153 240.108 230.649 240.108C230.073 240.108 229.557 239.964 229.089 239.676C228.609 239.388 228.237 238.98 227.961 238.452C227.685 237.924 227.553 237.336 227.553 236.664C227.553 236.004 227.685 235.416 227.961 234.9ZM232.677 235.5C232.485 235.164 232.245 234.912 231.945 234.732C231.633 234.564 231.309 234.468 230.961 234.468C230.601 234.468 230.277 234.564 229.977 234.732C229.665 234.9 229.425 235.152 229.233 235.488C229.041 235.824 228.957 236.208 228.957 236.664C228.957 237.12 229.041 237.528 229.233 237.864C229.425 238.212 229.665 238.476 229.977 238.656C230.289 238.836 230.613 238.92 230.961 238.92C231.309 238.92 231.633 238.836 231.945 238.656C232.245 238.488 232.485 238.224 232.677 237.888C232.869 237.552 232.965 237.144 232.965 236.688C232.965 236.232 232.869 235.836 232.677 235.5ZM237.26 231.12V240H235.892V231.12H237.26ZM240.174 231.12V240H238.806V231.12H240.174ZM247.732 237.204H242.68C242.716 237.732 242.908 238.164 243.268 238.476C243.616 238.8 244.048 238.956 244.564 238.956C245.296 238.956 245.812 238.656 246.124 238.032H247.6C247.396 238.644 247.036 239.148 246.508 239.532C245.98 239.916 245.332 240.108 244.564 240.108C243.928 240.108 243.364 239.976 242.86 239.688C242.356 239.4 241.972 239.004 241.684 238.488C241.396 237.972 241.264 237.372 241.264 236.688C241.264 236.016 241.396 235.416 241.672 234.9C241.948 234.384 242.332 233.988 242.836 233.7C243.34 233.424 243.916 233.28 244.564 233.28C245.188 233.28 245.74 233.424 246.232 233.688C246.712 233.964 247.096 234.348 247.372 234.84C247.636 235.332 247.78 235.896 247.78 236.532C247.78 236.784 247.756 237.012 247.732 237.204ZM246.352 236.1C246.34 235.596 246.16 235.2 245.812 234.888C245.452 234.588 245.02 234.432 244.504 234.432C244.024 234.432 243.628 234.588 243.292 234.888C242.956 235.188 242.752 235.596 242.692 236.1H246.352ZM248.829 234.9C249.105 234.396 249.477 234 249.957 233.712C250.437 233.424 250.965 233.28 251.553 233.28C251.985 233.28 252.405 233.376 252.825 233.568C253.245 233.76 253.581 234 253.833 234.312V231.12H255.213V240H253.833V239.004C253.605 239.328 253.293 239.592 252.897 239.796C252.501 240.012 252.045 240.108 251.541 240.108C250.965 240.108 250.437 239.964 249.957 239.676C249.477 239.388 249.105 238.98 248.829 238.452C248.553 237.924 248.421 237.336 248.421 236.664C248.421 236.004 248.553 235.416 248.829 234.9ZM253.545 235.5C253.353 235.164 253.113 234.912 252.813 234.732C252.501 234.564 252.177 234.468 251.829 234.468C251.469 234.468 251.145 234.564 250.845 234.732C250.533 234.9 250.293 235.152 250.101 235.488C249.909 235.824 249.825 236.208 249.825 236.664C249.825 237.12 249.909 237.528 250.101 237.864C250.293 238.212 250.533 238.476 250.845 238.656C251.157 238.836 251.481 238.92 251.829 238.92C252.177 238.92 252.501 238.836 252.813 238.656C253.113 238.488 253.353 238.224 253.545 237.888C253.737 237.552 253.833 237.144 253.833 236.688C253.833 236.232 253.737 235.836 253.545 235.5ZM259.555 239.832C259.387 239.664 259.303 239.46 259.303 239.208C259.303 238.968 259.387 238.752 259.555 238.584C259.723 238.416 259.927 238.332 260.179 238.332C260.419 238.332 260.623 238.416 260.791 238.584C260.959 238.752 261.043 238.968 261.043 239.208C261.043 239.46 260.959 239.664 260.791 239.832C260.623 240 260.419 240.084 260.179 240.084C259.927 240.084 259.723 240 259.555 239.832ZM259.555 234.792C259.387 234.624 259.303 234.42 259.303 234.168C259.303 233.928 259.387 233.712 259.555 233.544C259.723 233.376 259.927 233.292 260.179 233.292C260.419 233.292 260.623 233.376 260.791 233.544C260.959 233.712 261.043 233.928 261.043 234.168C261.043 234.42 260.959 234.624 260.791 234.792C260.623 234.96 260.419 235.044 260.179 235.044C259.927 235.044 259.723 234.96 259.555 234.792ZM270.717 235.344C270.513 235.728 270.189 236.028 269.757 236.268C269.313 236.508 268.749 236.616 268.065 236.616H266.553V240H265.185V231.66H268.065C268.701 231.66 269.241 231.78 269.685 231.996C270.129 232.212 270.465 232.512 270.681 232.884C270.897 233.268 271.017 233.688 271.017 234.144C271.017 234.576 270.909 234.972 270.717 235.344ZM269.229 235.152C269.481 234.912 269.613 234.576 269.613 234.144C269.613 233.232 269.097 232.776 268.065 232.776H266.553V235.5H268.065C268.581 235.5 268.965 235.392 269.229 235.152ZM272.588 232.272C273.056 231.492 273.86 231.096 275.012 231.096C276.152 231.096 276.956 231.492 277.424 232.272C277.892 233.052 278.132 234.132 278.132 235.512C278.132 236.916 277.892 238.008 277.424 238.8C276.956 239.592 276.152 239.976 275.012 239.976C273.86 239.976 273.056 239.592 272.588 238.8C272.12 238.008 271.892 236.916 271.892 235.512C271.892 234.132 272.12 233.052 272.588 232.272ZM276.656 233.868C276.572 233.424 276.404 233.064 276.152 232.776C275.888 232.488 275.516 232.344 275.012 232.344C274.508 232.344 274.124 232.488 273.872 232.776C273.608 233.064 273.44 233.424 273.356 233.868C273.272 234.324 273.236 234.864 273.236 235.512C273.236 236.184 273.272 236.748 273.356 237.204C273.428 237.66 273.596 238.032 273.86 238.308C274.124 238.596 274.508 238.728 275.012 238.728C275.516 238.728 275.888 238.596 276.152 238.308C276.416 238.032 276.584 237.66 276.668 237.204C276.74 236.748 276.788 236.184 276.788 235.512C276.788 234.864 276.74 234.324 276.656 233.868ZM280.085 238.14C280.853 237.48 281.453 236.94 281.897 236.508C282.341 236.076 282.713 235.632 283.013 235.164C283.301 234.708 283.457 234.24 283.457 233.772C283.457 233.292 283.337 232.92 283.109 232.644C282.881 232.38 282.521 232.236 282.041 232.236C281.561 232.236 281.201 232.392 280.937 232.692C280.673 232.992 280.541 233.388 280.529 233.892H279.209C279.233 232.98 279.497 232.284 280.025 231.804C280.553 231.324 281.213 231.072 282.029 231.072C282.893 231.072 283.577 231.312 284.069 231.792C284.561 232.272 284.813 232.92 284.813 233.712C284.813 234.288 284.657 234.852 284.369 235.38C284.081 235.908 283.733 236.388 283.325 236.808C282.917 237.228 282.413 237.708 281.789 238.26L281.249 238.74H285.053V239.88H279.221V238.884L280.085 238.14Z" fill="#121212"/>
<path d="M314.383 240.25H299.617L307 227.498L314.383 240.25Z" fill="#FEEAEE" stroke="#E16E75"/>
<path d="M307.573 237H306.07V238.5H307.573V237Z" fill="#C21A2C"/>
<path d="M307.573 232.5H306.07V235.5H307.573V232.5Z" fill="#C21A2C"/>
<path opacity="0.5" d="M0 4C0 1.79086 1.79086 0 4 0H421C423.209 0 425 1.79086 425 4V261C425 263.209 423.209 265 421 265H3.99999C1.79086 265 0 263.209 0 261V4Z" fill="#EBEFEE"/>
</g>
</g>
<defs>
<clipPath id="clip0_0_1">
<rect width="425" height="265" rx="4" fill="white"/>
</clipPath>
</defs>
</svg>
