<svg width="425" height="265" viewBox="0 0 425 265" fill="none" xmlns="http://www.w3.org/2000/svg">
<rect width="425" height="265" fill="#F5F5F5"/>
<rect x="-16617" y="-6408" width="23840" height="13376" fill="#F8FAF9"/>
<g style="mix-blend-mode:luminosity">
<rect width="425" height="265" fill="white"/>
<rect width="425" height="265" rx="4" fill="white"/>
<g clip-path="url(#clip0_0_1)">
<rect x="12" y="53" width="548" height="1" fill="#CED7D4"/>
<path d="M20.504 27.568C20.266 28.016 19.888 28.366 19.384 28.646C18.866 28.926 18.208 29.052 17.41 29.052H15.646V33H14.05V23.27H17.41C18.152 23.27 18.782 23.41 19.3 23.662C19.818 23.914 20.21 24.264 20.462 24.698C20.714 25.146 20.854 25.636 20.854 26.168C20.854 26.672 20.728 27.134 20.504 27.568ZM18.768 27.344C19.062 27.064 19.216 26.672 19.216 26.168C19.216 25.104 18.614 24.572 17.41 24.572H15.646V27.75H17.41C18.012 27.75 18.46 27.624 18.768 27.344ZM23.4982 32.636C22.9102 32.3 22.4482 31.838 22.1122 31.236C21.7762 30.634 21.6082 29.934 21.6082 29.136C21.6082 28.352 21.7762 27.666 22.1262 27.05C22.4622 26.448 22.9382 25.986 23.5402 25.65C24.1282 25.328 24.8002 25.16 25.5422 25.16C26.2702 25.16 26.9422 25.328 27.5442 25.65C28.1322 25.986 28.6082 26.448 28.9582 27.05C29.2942 27.666 29.4762 28.352 29.4762 29.136C29.4762 29.92 29.2942 30.62 28.9442 31.222C28.5802 31.838 28.1042 32.3 27.4882 32.636C26.8722 32.972 26.2002 33.126 25.4722 33.126C24.7442 33.126 24.0862 32.972 23.4982 32.636ZM26.6202 31.446C26.9842 31.25 27.2782 30.956 27.5022 30.564C27.7262 30.172 27.8382 29.696 27.8382 29.136C27.8382 28.576 27.7262 28.114 27.5162 27.722C27.2922 27.33 27.0122 27.036 26.6622 26.84C26.2982 26.644 25.9202 26.546 25.5142 26.546C25.0942 26.546 24.7162 26.644 24.3662 26.84C24.0162 27.036 23.7362 27.33 23.5402 27.722C23.3302 28.114 23.2322 28.576 23.2322 29.136C23.2322 29.976 23.4422 30.62 23.8622 31.068C24.2822 31.516 24.8282 31.74 25.4722 31.74C25.8782 31.74 26.2562 31.642 26.6202 31.446ZM41.1639 25.286L38.7699 33H37.0899L35.5359 27.302L33.9819 33H32.3019L29.8939 25.286H31.5179L33.1279 31.488L34.7659 25.286H36.4319L37.9999 31.46L39.5959 25.286H41.1639ZM49.1206 29.738H43.2266C43.2686 30.354 43.4926 30.858 43.9126 31.222C44.3186 31.6 44.8226 31.782 45.4246 31.782C46.2786 31.782 46.8806 31.432 47.2446 30.704H48.9666C48.7286 31.418 48.3086 32.006 47.6926 32.454C47.0766 32.902 46.3206 33.126 45.4246 33.126C44.6826 33.126 44.0246 32.972 43.4366 32.636C42.8486 32.3 42.4006 31.838 42.0646 31.236C41.7286 30.634 41.5746 29.934 41.5746 29.136C41.5746 28.352 41.7286 27.652 42.0506 27.05C42.3726 26.448 42.8206 25.986 43.4086 25.65C43.9966 25.328 44.6686 25.16 45.4246 25.16C46.1526 25.16 46.7966 25.328 47.3706 25.636C47.9306 25.958 48.3786 26.406 48.7006 26.98C49.0086 27.554 49.1766 28.212 49.1766 28.954C49.1766 29.248 49.1486 29.514 49.1206 29.738ZM47.5106 28.45C47.4966 27.862 47.2866 27.4 46.8806 27.036C46.4606 26.686 45.9566 26.504 45.3546 26.504C44.7946 26.504 44.3326 26.686 43.9406 27.036C43.5486 27.386 43.3106 27.862 43.2406 28.45H47.5106ZM53.0173 25.496C53.4093 25.272 53.8713 25.16 54.4033 25.16V26.812H53.9973C53.3673 26.812 52.8913 26.98 52.5693 27.288C52.2473 27.61 52.0933 28.156 52.0933 28.94V33H50.4973V25.286H52.0933V26.406C52.3173 26.014 52.6253 25.72 53.0173 25.496ZM66.049 26.07C65.797 25.594 65.447 25.23 64.999 24.978C64.551 24.726 64.033 24.6 63.445 24.6C62.801 24.6 62.227 24.754 61.723 25.034C61.219 25.328 60.813 25.734 60.533 26.266C60.253 26.798 60.113 27.414 60.113 28.114C60.113 28.814 60.253 29.444 60.533 29.976C60.813 30.508 61.219 30.928 61.723 31.208C62.227 31.502 62.801 31.642 63.445 31.642C64.313 31.642 65.013 31.404 65.559 30.914C66.091 30.438 66.427 29.78 66.553 28.94H62.899V27.666H68.261V28.912C68.149 29.668 67.883 30.368 67.449 30.998C67.015 31.642 66.455 32.146 65.755 32.524C65.055 32.902 64.285 33.084 63.445 33.084C62.521 33.084 61.695 32.874 60.939 32.454C60.183 32.034 59.581 31.432 59.133 30.676C58.685 29.92 58.475 29.066 58.475 28.114C58.475 27.162 58.685 26.308 59.133 25.552C59.581 24.796 60.183 24.208 60.939 23.788C61.695 23.368 62.535 23.144 63.445 23.144C64.481 23.144 65.391 23.41 66.203 23.914C67.015 24.418 67.603 25.146 67.967 26.07H66.049ZM76.5992 29.738H70.7052C70.7472 30.354 70.9712 30.858 71.3912 31.222C71.7972 31.6 72.3012 31.782 72.9032 31.782C73.7572 31.782 74.3592 31.432 74.7232 30.704H76.4452C76.2072 31.418 75.7872 32.006 75.1712 32.454C74.5552 32.902 73.7992 33.126 72.9032 33.126C72.1612 33.126 71.5032 32.972 70.9152 32.636C70.3272 32.3 69.8792 31.838 69.5432 31.236C69.2072 30.634 69.0532 29.934 69.0532 29.136C69.0532 28.352 69.2072 27.652 69.5292 27.05C69.8512 26.448 70.2992 25.986 70.8872 25.65C71.4752 25.328 72.1472 25.16 72.9032 25.16C73.6312 25.16 74.2752 25.328 74.8492 25.636C75.4092 25.958 75.8572 26.406 76.1792 26.98C76.4872 27.554 76.6552 28.212 76.6552 28.954C76.6552 29.248 76.6272 29.514 76.5992 29.738ZM74.9892 28.45C74.9752 27.862 74.7652 27.4 74.3592 27.036C73.9392 26.686 73.4352 26.504 72.8332 26.504C72.2732 26.504 71.8112 26.686 71.4192 27.036C71.0272 27.386 70.7892 27.862 70.7192 28.45H74.9892ZM83.4918 25.538C83.9678 25.79 84.3458 26.168 84.6258 26.658C84.8918 27.162 85.0318 27.75 85.0318 28.45V33H83.4498V28.688C83.4498 28.002 83.2678 27.47 82.9318 27.106C82.5818 26.742 82.1058 26.546 81.5178 26.546C80.9158 26.546 80.4398 26.742 80.0898 27.106C79.7398 27.47 79.5718 28.002 79.5718 28.688V33H77.9758V25.286H79.5718V26.168C79.8238 25.86 80.1598 25.608 80.5658 25.426C80.9718 25.258 81.4058 25.16 81.8678 25.16C82.4698 25.16 83.0158 25.286 83.4918 25.538ZM91.7863 23.27V29.472C91.7863 30.214 91.9683 30.774 92.3603 31.138C92.7523 31.516 93.2843 31.698 93.9843 31.698C94.6843 31.698 95.2163 31.516 95.6083 31.138C96.0003 30.774 96.1963 30.214 96.1963 29.472V23.27H97.7923V29.444C97.7923 30.242 97.6103 30.914 97.2743 31.46C96.9243 32.02 96.4623 32.426 95.8883 32.692C95.3003 32.972 94.6703 33.098 93.9703 33.098C93.2703 33.098 92.6263 32.972 92.0523 32.692C91.4783 32.426 91.0303 32.02 90.6943 31.46C90.3583 30.914 90.1903 30.242 90.1903 29.444V23.27H91.7863ZM105.136 25.538C105.612 25.79 105.99 26.168 106.27 26.658C106.536 27.162 106.676 27.75 106.676 28.45V33H105.094V28.688C105.094 28.002 104.912 27.47 104.576 27.106C104.226 26.742 103.75 26.546 103.162 26.546C102.56 26.546 102.084 26.742 101.734 27.106C101.384 27.47 101.216 28.002 101.216 28.688V33H99.6203V25.286H101.216V26.168C101.468 25.86 101.804 25.608 102.21 25.426C102.616 25.258 103.05 25.16 103.512 25.16C104.114 25.16 104.66 25.286 105.136 25.538ZM108.546 23.97C108.35 23.774 108.252 23.536 108.252 23.242C108.252 22.962 108.35 22.71 108.546 22.514C108.742 22.318 108.98 22.22 109.274 22.22C109.554 22.22 109.792 22.318 109.988 22.514C110.184 22.71 110.282 22.962 110.282 23.242C110.282 23.536 110.184 23.774 109.988 23.97C109.792 24.166 109.554 24.264 109.274 24.264C108.98 24.264 108.742 24.166 108.546 23.97ZM110.058 25.286V33H108.462V25.286H110.058ZM113.766 26.588V30.858C113.766 31.152 113.822 31.362 113.962 31.488C114.102 31.614 114.326 31.67 114.662 31.67H115.642V33H114.382C113.654 33 113.108 32.832 112.73 32.496C112.338 32.16 112.156 31.614 112.156 30.858V26.588H111.246V25.286H112.156V23.368H113.766V25.286H115.642V26.588H113.766ZM118.025 32.804C117.549 32.58 117.171 32.286 116.891 31.908C116.611 31.53 116.457 31.11 116.443 30.634H118.095C118.123 30.97 118.277 31.236 118.557 31.46C118.837 31.684 119.201 31.782 119.635 31.782C120.083 31.782 120.419 31.698 120.671 31.53C120.923 31.362 121.049 31.138 121.049 30.858C121.049 30.578 120.909 30.354 120.629 30.214C120.349 30.074 119.915 29.92 119.327 29.752C118.739 29.598 118.277 29.444 117.913 29.29C117.549 29.15 117.227 28.912 116.961 28.604C116.695 28.296 116.569 27.89 116.569 27.386C116.569 26.98 116.681 26.602 116.933 26.266C117.171 25.93 117.521 25.65 117.969 25.454C118.417 25.258 118.949 25.16 119.537 25.16C120.405 25.16 121.119 25.384 121.651 25.832C122.183 26.28 122.477 26.882 122.519 27.638H120.923C120.895 27.302 120.755 27.022 120.503 26.812C120.251 26.616 119.901 26.504 119.481 26.504C119.061 26.504 118.739 26.588 118.515 26.742C118.291 26.91 118.179 27.12 118.179 27.372C118.179 27.582 118.249 27.75 118.403 27.89C118.543 28.03 118.725 28.142 118.949 28.226C119.159 28.31 119.481 28.408 119.901 28.52C120.461 28.674 120.909 28.828 121.273 28.982C121.637 29.136 121.945 29.36 122.211 29.654C122.463 29.962 122.603 30.354 122.617 30.844C122.617 31.292 122.491 31.684 122.253 32.02C122.001 32.37 121.665 32.636 121.217 32.832C120.769 33.028 120.251 33.126 119.663 33.126C119.047 33.126 118.501 33.028 118.025 32.804Z" fill="#121212"/>
<path d="M333.492 32.762C332.96 32.538 332.554 32.202 332.26 31.782C331.952 31.362 331.812 30.872 331.812 30.312H333.52C333.548 30.732 333.716 31.082 334.01 31.348C334.304 31.628 334.724 31.754 335.256 31.754C335.802 31.754 336.236 31.628 336.544 31.362C336.852 31.096 337.006 30.746 337.006 30.326C337.006 30.004 336.908 29.738 336.712 29.528C336.516 29.332 336.278 29.164 335.998 29.052C335.718 28.94 335.326 28.828 334.822 28.688C334.178 28.52 333.66 28.352 333.268 28.184C332.876 28.016 332.54 27.736 332.26 27.372C331.98 27.008 331.84 26.532 331.84 25.916C331.84 25.356 331.98 24.866 332.26 24.446C332.54 24.026 332.932 23.704 333.436 23.48C333.94 23.256 334.514 23.144 335.186 23.144C336.124 23.144 336.894 23.382 337.496 23.858C338.098 24.334 338.434 24.978 338.504 25.79H336.74C336.712 25.44 336.544 25.132 336.236 24.88C335.928 24.628 335.522 24.502 335.018 24.502C334.556 24.502 334.178 24.628 333.898 24.852C333.604 25.09 333.464 25.426 333.464 25.86C333.464 26.168 333.548 26.406 333.73 26.602C333.912 26.798 334.15 26.938 334.43 27.05C334.71 27.162 335.088 27.288 335.578 27.414C336.222 27.596 336.74 27.778 337.146 27.946C337.552 28.128 337.902 28.408 338.182 28.772C338.462 29.136 338.616 29.626 338.616 30.242C338.616 30.746 338.476 31.208 338.21 31.642C337.944 32.09 337.552 32.44 337.048 32.706C336.544 32.972 335.942 33.098 335.256 33.098C334.598 33.098 334.01 32.986 333.492 32.762ZM347.235 25.286V33H345.639V32.09C345.387 32.412 345.051 32.664 344.645 32.846C344.239 33.028 343.805 33.112 343.357 33.112C342.741 33.112 342.195 32.986 341.719 32.734C341.243 32.482 340.865 32.118 340.585 31.614C340.305 31.124 340.179 30.522 340.179 29.822V25.286H341.761V29.584C341.761 30.284 341.929 30.816 342.279 31.18C342.615 31.544 343.091 31.726 343.693 31.726C344.281 31.726 344.757 31.544 345.107 31.18C345.457 30.816 345.639 30.284 345.639 29.584V25.286H347.235ZM353.781 25.524C354.243 25.762 354.607 26.056 354.873 26.406V25.286H356.483V33.126C356.483 33.84 356.329 34.47 356.035 35.03C355.727 35.59 355.293 36.024 354.733 36.332C354.173 36.654 353.501 36.808 352.717 36.808C351.667 36.808 350.799 36.57 350.113 36.08C349.413 35.59 349.021 34.918 348.937 34.078H350.519C350.631 34.484 350.897 34.806 351.289 35.058C351.681 35.31 352.157 35.422 352.717 35.422C353.361 35.422 353.879 35.226 354.271 34.834C354.663 34.442 354.873 33.882 354.873 33.126V31.838C354.593 32.202 354.229 32.51 353.767 32.762C353.305 33.014 352.787 33.126 352.199 33.126C351.527 33.126 350.911 32.958 350.351 32.622C349.791 32.286 349.357 31.81 349.035 31.194C348.713 30.578 348.559 29.892 348.559 29.108C348.559 28.338 348.713 27.652 349.035 27.05C349.357 26.462 349.791 26 350.351 25.664C350.911 25.328 351.527 25.16 352.199 25.16C352.787 25.16 353.319 25.286 353.781 25.524ZM354.537 27.75C354.313 27.358 354.033 27.064 353.683 26.854C353.319 26.658 352.941 26.546 352.535 26.546C352.115 26.546 351.737 26.658 351.387 26.854C351.023 27.05 350.743 27.344 350.519 27.736C350.295 28.128 350.197 28.576 350.197 29.108C350.197 29.64 350.295 30.116 350.519 30.508C350.743 30.914 351.023 31.222 351.387 31.432C351.751 31.642 352.129 31.74 352.535 31.74C352.941 31.74 353.319 31.642 353.683 31.432C354.033 31.236 354.313 30.928 354.537 30.536C354.761 30.144 354.873 29.668 354.873 29.136C354.873 28.604 354.761 28.142 354.537 27.75ZM363.019 25.524C363.481 25.762 363.845 26.056 364.111 26.406V25.286H365.721V33.126C365.721 33.84 365.567 34.47 365.273 35.03C364.965 35.59 364.531 36.024 363.971 36.332C363.411 36.654 362.739 36.808 361.955 36.808C360.905 36.808 360.037 36.57 359.351 36.08C358.651 35.59 358.259 34.918 358.175 34.078H359.757C359.869 34.484 360.135 34.806 360.527 35.058C360.919 35.31 361.395 35.422 361.955 35.422C362.599 35.422 363.117 35.226 363.509 34.834C363.901 34.442 364.111 33.882 364.111 33.126V31.838C363.831 32.202 363.467 32.51 363.005 32.762C362.543 33.014 362.025 33.126 361.437 33.126C360.765 33.126 360.149 32.958 359.589 32.622C359.029 32.286 358.595 31.81 358.273 31.194C357.951 30.578 357.797 29.892 357.797 29.108C357.797 28.338 357.951 27.652 358.273 27.05C358.595 26.462 359.029 26 359.589 25.664C360.149 25.328 360.765 25.16 361.437 25.16C362.025 25.16 362.557 25.286 363.019 25.524ZM363.775 27.75C363.551 27.358 363.271 27.064 362.921 26.854C362.557 26.658 362.179 26.546 361.773 26.546C361.353 26.546 360.975 26.658 360.625 26.854C360.261 27.05 359.981 27.344 359.757 27.736C359.533 28.128 359.435 28.576 359.435 29.108C359.435 29.64 359.533 30.116 359.757 30.508C359.981 30.914 360.261 31.222 360.625 31.432C360.989 31.642 361.367 31.74 361.773 31.74C362.179 31.74 362.557 31.642 362.921 31.432C363.271 31.236 363.551 30.928 363.775 30.536C363.999 30.144 364.111 29.668 364.111 29.136C364.111 28.604 363.999 28.142 363.775 27.75ZM374.582 29.738H368.688C368.73 30.354 368.954 30.858 369.374 31.222C369.78 31.6 370.284 31.782 370.886 31.782C371.74 31.782 372.342 31.432 372.706 30.704H374.428C374.19 31.418 373.77 32.006 373.154 32.454C372.538 32.902 371.782 33.126 370.886 33.126C370.144 33.126 369.486 32.972 368.898 32.636C368.31 32.3 367.862 31.838 367.526 31.236C367.19 30.634 367.036 29.934 367.036 29.136C367.036 28.352 367.19 27.652 367.512 27.05C367.834 26.448 368.282 25.986 368.87 25.65C369.458 25.328 370.13 25.16 370.886 25.16C371.614 25.16 372.258 25.328 372.832 25.636C373.392 25.958 373.84 26.406 374.162 26.98C374.47 27.554 374.638 28.212 374.638 28.954C374.638 29.248 374.61 29.514 374.582 29.738ZM372.972 28.45C372.958 27.862 372.748 27.4 372.342 27.036C371.922 26.686 371.418 26.504 370.816 26.504C370.256 26.504 369.794 26.686 369.402 27.036C369.01 27.386 368.772 27.862 368.702 28.45H372.972ZM377.12 32.804C376.644 32.58 376.266 32.286 375.986 31.908C375.706 31.53 375.552 31.11 375.538 30.634H377.19C377.218 30.97 377.372 31.236 377.652 31.46C377.932 31.684 378.296 31.782 378.73 31.782C379.178 31.782 379.514 31.698 379.766 31.53C380.018 31.362 380.144 31.138 380.144 30.858C380.144 30.578 380.004 30.354 379.724 30.214C379.444 30.074 379.01 29.92 378.422 29.752C377.834 29.598 377.372 29.444 377.008 29.29C376.644 29.15 376.322 28.912 376.056 28.604C375.79 28.296 375.664 27.89 375.664 27.386C375.664 26.98 375.776 26.602 376.028 26.266C376.266 25.93 376.616 25.65 377.064 25.454C377.512 25.258 378.044 25.16 378.632 25.16C379.5 25.16 380.214 25.384 380.746 25.832C381.278 26.28 381.572 26.882 381.614 27.638H380.018C379.99 27.302 379.85 27.022 379.598 26.812C379.346 26.616 378.996 26.504 378.576 26.504C378.156 26.504 377.834 26.588 377.61 26.742C377.386 26.91 377.274 27.12 377.274 27.372C377.274 27.582 377.344 27.75 377.498 27.89C377.638 28.03 377.82 28.142 378.044 28.226C378.254 28.31 378.576 28.408 378.996 28.52C379.556 28.674 380.004 28.828 380.368 28.982C380.732 29.136 381.04 29.36 381.306 29.654C381.558 29.962 381.698 30.354 381.712 30.844C381.712 31.292 381.586 31.684 381.348 32.02C381.096 32.37 380.76 32.636 380.312 32.832C379.864 33.028 379.346 33.126 378.758 33.126C378.142 33.126 377.596 33.028 377.12 32.804ZM385.049 26.588V30.858C385.049 31.152 385.105 31.362 385.245 31.488C385.385 31.614 385.609 31.67 385.945 31.67H386.925V33H385.665C384.937 33 384.391 32.832 384.013 32.496C383.621 32.16 383.439 31.614 383.439 30.858V26.588H382.529V25.286H383.439V23.368H385.049V25.286H386.925V26.588H385.049ZM395.16 29.738H389.266C389.308 30.354 389.532 30.858 389.952 31.222C390.358 31.6 390.862 31.782 391.464 31.782C392.318 31.782 392.92 31.432 393.284 30.704H395.006C394.768 31.418 394.348 32.006 393.732 32.454C393.116 32.902 392.36 33.126 391.464 33.126C390.722 33.126 390.064 32.972 389.476 32.636C388.888 32.3 388.44 31.838 388.104 31.236C387.768 30.634 387.614 29.934 387.614 29.136C387.614 28.352 387.768 27.652 388.09 27.05C388.412 26.448 388.86 25.986 389.448 25.65C390.036 25.328 390.708 25.16 391.464 25.16C392.192 25.16 392.836 25.328 393.41 25.636C393.97 25.958 394.418 26.406 394.74 26.98C395.048 27.554 395.216 28.212 395.216 28.954C395.216 29.248 395.188 29.514 395.16 29.738ZM393.55 28.45C393.536 27.862 393.326 27.4 392.92 27.036C392.5 26.686 391.996 26.504 391.394 26.504C390.834 26.504 390.372 26.686 389.98 27.036C389.588 27.386 389.35 27.862 389.28 28.45H393.55ZM396.48 27.05C396.802 26.462 397.236 26 397.796 25.664C398.356 25.328 398.972 25.16 399.658 25.16C400.162 25.16 400.652 25.272 401.142 25.496C401.632 25.72 402.024 26 402.318 26.364V22.64H403.928V33H402.318V31.838C402.052 32.216 401.688 32.524 401.226 32.762C400.764 33.014 400.232 33.126 399.644 33.126C398.972 33.126 398.356 32.958 397.796 32.622C397.236 32.286 396.802 31.81 396.48 31.194C396.158 30.578 396.004 29.892 396.004 29.108C396.004 28.338 396.158 27.652 396.48 27.05ZM401.982 27.75C401.758 27.358 401.478 27.064 401.128 26.854C400.764 26.658 400.386 26.546 399.98 26.546C399.56 26.546 399.182 26.658 398.832 26.854C398.468 27.05 398.188 27.344 397.964 27.736C397.74 28.128 397.642 28.576 397.642 29.108C397.642 29.64 397.74 30.116 397.964 30.508C398.188 30.914 398.468 31.222 398.832 31.432C399.196 31.642 399.574 31.74 399.98 31.74C400.386 31.74 400.764 31.642 401.128 31.432C401.478 31.236 401.758 30.928 401.982 30.536C402.206 30.144 402.318 29.668 402.318 29.136C402.318 28.604 402.206 28.142 401.982 27.75Z" fill="#121212"/>
<path d="M208.916 31.012H204.842L204.142 33H202.476L205.962 23.256H207.81L211.296 33H209.616L208.916 31.012ZM208.468 29.71L206.886 25.188L205.29 29.71H208.468ZM212.506 27.05C212.828 26.448 213.276 25.986 213.85 25.65C214.41 25.328 215.068 25.16 215.81 25.16C216.734 25.16 217.504 25.384 218.12 25.832C218.736 26.28 219.142 26.91 219.366 27.722H217.644C217.504 27.344 217.28 27.05 216.972 26.826C216.664 26.616 216.272 26.504 215.81 26.504C215.152 26.504 214.634 26.742 214.242 27.204C213.85 27.666 213.668 28.31 213.668 29.136C213.668 29.976 213.85 30.62 214.242 31.082C214.634 31.558 215.152 31.782 215.81 31.782C216.734 31.782 217.336 31.376 217.644 30.564H219.366C219.142 31.348 218.722 31.978 218.106 32.44C217.49 32.902 216.72 33.126 215.81 33.126C215.068 33.126 214.41 32.972 213.85 32.636C213.276 32.3 212.828 31.838 212.506 31.236C212.184 30.634 212.03 29.934 212.03 29.136C212.03 28.352 212.184 27.652 212.506 27.05ZM222.568 26.588V30.858C222.568 31.152 222.624 31.362 222.764 31.488C222.904 31.614 223.128 31.67 223.464 31.67H224.444V33H223.184C222.456 33 221.91 32.832 221.532 32.496C221.14 32.16 220.958 31.614 220.958 30.858V26.588H220.048V25.286H220.958V23.368H222.568V25.286H224.444V26.588H222.568ZM232.651 25.286V33H231.055V32.09C230.803 32.412 230.467 32.664 230.061 32.846C229.655 33.028 229.221 33.112 228.773 33.112C228.157 33.112 227.611 32.986 227.135 32.734C226.659 32.482 226.281 32.118 226.001 31.614C225.721 31.124 225.595 30.522 225.595 29.822V25.286H227.177V29.584C227.177 30.284 227.345 30.816 227.695 31.18C228.031 31.544 228.507 31.726 229.109 31.726C229.697 31.726 230.173 31.544 230.523 31.18C230.873 30.816 231.055 30.284 231.055 29.584V25.286H232.651ZM234.451 27.05C234.773 26.462 235.207 26 235.767 25.664C236.327 25.328 236.943 25.16 237.615 25.16C238.217 25.16 238.749 25.286 239.197 25.524C239.645 25.762 240.009 26.056 240.289 26.406V25.286H241.899V33H240.289V31.852C240.009 32.216 239.645 32.524 239.183 32.762C238.707 33.014 238.175 33.126 237.587 33.126C236.915 33.126 236.313 32.958 235.767 32.622C235.207 32.286 234.773 31.81 234.451 31.194C234.129 30.578 233.975 29.892 233.975 29.108C233.975 28.338 234.129 27.652 234.451 27.05ZM239.953 27.75C239.729 27.358 239.449 27.064 239.099 26.854C238.735 26.658 238.357 26.546 237.951 26.546C237.531 26.546 237.153 26.658 236.803 26.854C236.439 27.05 236.159 27.344 235.935 27.736C235.711 28.128 235.613 28.576 235.613 29.108C235.613 29.64 235.711 30.116 235.935 30.508C236.159 30.914 236.439 31.222 236.803 31.432C237.167 31.642 237.545 31.74 237.951 31.74C238.357 31.74 238.735 31.642 239.099 31.432C239.449 31.236 239.729 30.928 239.953 30.536C240.177 30.144 240.289 29.668 240.289 29.136C240.289 28.604 240.177 28.142 239.953 27.75ZM245.341 22.64V33H243.745V22.64H245.341Z" fill="#121212"/>
</g>
<g clip-path="url(#clip1_0_1)">
<rect x="12" y="97" width="548" height="1" fill="#CED7D4"/>
<path d="M55.9619 71.0059V77.4727C55.9619 78.612 55.6178 79.5075 54.9297 80.1592C54.2415 80.8109 53.2868 81.1367 52.0654 81.1367C50.8577 81.1367 49.9212 80.8086 49.2559 80.1523C48.5905 79.4915 48.2578 78.5892 48.2578 77.4453V71.0059H49.5225V77.4863C49.5225 78.3021 49.7389 78.9333 50.1719 79.3799C50.6094 79.8265 51.2656 80.0498 52.1406 80.0498C52.9655 80.0498 53.599 79.8288 54.041 79.3867C54.4876 78.9447 54.7109 78.3066 54.7109 77.4727V71.0059H55.9619ZM63.543 81V76.2012C63.543 75.5905 63.4062 75.137 63.1328 74.8408C62.8639 74.54 62.4401 74.3896 61.8613 74.3896C61.0911 74.3896 60.5306 74.6038 60.1797 75.0322C59.8333 75.4561 59.6602 76.1488 59.6602 77.1104V81H58.4297V73.4941H59.4209L59.6055 74.5195H59.6738C59.9062 74.1504 60.2321 73.8656 60.6514 73.665C61.0706 73.46 61.5332 73.3574 62.0391 73.3574C62.9596 73.3574 63.6432 73.5807 64.0898 74.0273C64.5365 74.474 64.7598 75.1689 64.7598 76.1123V81H63.543ZM68.3145 81H67.084V73.4941H68.3145V81ZM66.9883 71.4639C66.9883 71.1904 67.0566 70.9922 67.1934 70.8691C67.3346 70.7461 67.5078 70.6846 67.7129 70.6846C67.9043 70.6846 68.0706 70.7461 68.2119 70.8691C68.3577 70.9922 68.4307 71.1904 68.4307 71.4639C68.4307 71.7327 68.3577 71.931 68.2119 72.0586C68.0706 72.1862 67.9043 72.25 67.7129 72.25C67.5078 72.25 67.3346 72.1862 67.1934 72.0586C67.0566 71.931 66.9883 71.7327 66.9883 71.4639ZM73.2021 80.1318C73.3617 80.1318 73.5485 80.1159 73.7627 80.084C73.9769 80.0521 74.1387 80.0156 74.248 79.9746V80.918C74.1341 80.9681 73.9564 81.016 73.7148 81.0615C73.4779 81.1117 73.2363 81.1367 72.9902 81.1367C71.5228 81.1367 70.7891 80.3643 70.7891 78.8193V74.4512H69.7295V73.8633L70.8027 73.3711L71.2949 71.7715H72.0264V73.4941H74.1934V74.4512H72.0264V78.7852C72.0264 79.2181 72.1289 79.5508 72.334 79.7832C72.5436 80.0156 72.833 80.1318 73.2021 80.1318ZM83.0596 81H81.8564V74.7588C81.8564 74.5628 81.8564 74.3532 81.8564 74.1299C81.861 73.9066 81.8656 73.6855 81.8701 73.4668C81.8792 73.2435 81.8861 73.0316 81.8906 72.8311C81.8997 72.626 81.9066 72.446 81.9111 72.291C81.8337 72.373 81.7653 72.4437 81.7061 72.5029C81.6468 72.5622 81.5853 72.6191 81.5215 72.6738C81.4622 72.7285 81.3984 72.7878 81.3301 72.8516C81.2617 72.9108 81.1797 72.9814 81.084 73.0635L80.0723 73.8906L79.416 73.0498L82.0342 71.0059H83.0596V81Z" fill="#595959"/>
<path d="M354.31 72.25V70.794H357.222V81H355.612V72.25H354.31ZM360.046 78.83C360.942 78.06 361.642 77.43 362.16 76.926C362.678 76.422 363.112 75.904 363.462 75.358C363.798 74.826 363.98 74.28 363.98 73.734C363.98 73.174 363.84 72.74 363.574 72.418C363.308 72.11 362.888 71.942 362.328 71.942C361.768 71.942 361.348 72.124 361.04 72.474C360.732 72.824 360.578 73.286 360.564 73.874H359.024C359.052 72.81 359.36 71.998 359.976 71.438C360.592 70.878 361.362 70.584 362.314 70.584C363.322 70.584 364.12 70.864 364.694 71.424C365.268 71.984 365.562 72.74 365.562 73.664C365.562 74.336 365.38 74.994 365.044 75.61C364.708 76.226 364.302 76.786 363.826 77.276C363.35 77.766 362.762 78.326 362.034 78.97L361.404 79.53H365.842V80.86H359.038V79.698L360.046 78.83ZM367.12 80.804C366.924 80.608 366.826 80.37 366.826 80.076C366.826 79.796 366.924 79.544 367.12 79.348C367.316 79.152 367.554 79.054 367.848 79.054C368.128 79.054 368.366 79.152 368.562 79.348C368.758 79.544 368.856 79.796 368.856 80.076C368.856 80.37 368.758 80.608 368.562 80.804C368.366 81 368.128 81.098 367.848 81.098C367.554 81.098 367.316 81 367.12 80.804ZM372.711 79.292C373.019 79.544 373.425 79.656 373.957 79.656C374.615 79.656 375.105 79.404 375.413 78.872C375.721 78.354 375.875 77.458 375.875 76.198C375.651 76.52 375.329 76.772 374.923 76.94C374.517 77.108 374.083 77.192 373.607 77.192C372.991 77.192 372.445 77.08 371.955 76.828C371.451 76.576 371.059 76.212 370.779 75.722C370.499 75.232 370.359 74.63 370.359 73.93C370.359 72.908 370.653 72.096 371.255 71.48C371.857 70.864 372.683 70.556 373.747 70.556C375.007 70.556 375.917 70.99 376.449 71.83C376.981 72.67 377.261 73.972 377.261 75.708C377.261 76.912 377.149 77.906 376.953 78.662C376.757 79.432 376.407 80.006 375.917 80.398C375.413 80.79 374.727 80.986 373.859 80.986C372.851 80.986 372.081 80.734 371.549 80.202C371.003 79.684 370.695 79.026 370.639 78.228H372.109C372.193 78.704 372.403 79.054 372.711 79.292ZM375.203 75.33C375.525 74.98 375.693 74.518 375.693 73.93C375.693 73.286 375.511 72.796 375.175 72.432C374.839 72.068 374.377 71.886 373.789 71.886C373.201 71.886 372.725 72.082 372.389 72.446C372.053 72.81 371.885 73.3 371.885 73.888C371.885 74.462 372.039 74.938 372.375 75.302C372.711 75.666 373.215 75.848 373.887 75.848C374.447 75.848 374.881 75.68 375.203 75.33Z" fill="#121212"/>
<path d="M389.216 71.27V81H387.62V74.336L384.652 81H383.546L380.564 74.336V81H378.968V71.27H380.69L384.106 78.9L387.508 71.27H389.216ZM403.734 71.27L400.85 81H399.044L397 73.636L394.83 81L393.038 81.014L390.28 71.27H391.974L393.99 79.194L396.174 71.27H397.966L399.996 79.152L402.026 71.27H403.734Z" fill="#595959"/>
<path d="M197.9 73.25V71.794H200.812V82H199.202V73.25H197.9ZM202.558 79.872V78.668L207.262 71.92H209.194V78.486H210.496V79.872H209.194V82H207.626V79.872H202.558ZM207.696 73.544L204.392 78.486H207.696V73.544ZM211.695 81.804C211.499 81.608 211.401 81.37 211.401 81.076C211.401 80.796 211.499 80.544 211.695 80.348C211.891 80.152 212.129 80.054 212.423 80.054C212.703 80.054 212.941 80.152 213.137 80.348C213.333 80.544 213.431 80.796 213.431 81.076C213.431 81.37 213.333 81.608 213.137 81.804C212.941 82 212.703 82.098 212.423 82.098C212.129 82.098 211.891 82 211.695 81.804ZM215.661 72.284C216.277 71.808 217.061 71.556 218.013 71.556C218.657 71.556 219.231 71.682 219.707 71.906C220.183 72.144 220.533 72.466 220.785 72.858C221.023 73.264 221.149 73.712 221.149 74.216C221.149 74.804 220.995 75.294 220.687 75.7C220.379 76.12 220.001 76.386 219.581 76.526V76.582C220.127 76.75 220.561 77.058 220.869 77.506C221.177 77.954 221.331 78.514 221.331 79.2C221.331 79.76 221.205 80.25 220.953 80.67C220.701 81.104 220.323 81.44 219.833 81.692C219.329 81.944 218.741 82.056 218.055 82.056C217.047 82.056 216.207 81.804 215.563 81.286C214.919 80.768 214.569 80.026 214.527 79.046H216.067C216.095 79.55 216.291 79.956 216.641 80.264C216.977 80.572 217.453 80.726 218.041 80.726C218.601 80.726 219.049 80.572 219.357 80.264C219.665 79.956 219.819 79.55 219.819 79.046C219.819 78.402 219.609 77.94 219.189 77.66C218.769 77.38 218.139 77.24 217.285 77.24H216.921V75.924H217.299C218.055 75.924 218.629 75.798 219.021 75.546C219.413 75.308 219.623 74.93 219.623 74.398C219.623 73.95 219.469 73.6 219.189 73.334C218.895 73.068 218.489 72.928 217.957 72.928C217.425 72.928 217.019 73.068 216.739 73.334C216.445 73.6 216.277 73.922 216.221 74.314H214.667C214.723 73.446 215.045 72.774 215.661 72.284Z" fill="#121212"/>
<path d="M233.216 72.27V82H231.62V75.336L228.652 82H227.546L224.564 75.336V82H222.968V72.27H224.69L228.106 79.9L231.508 72.27H233.216ZM247.734 72.27L244.85 82H243.044L241 74.636L238.83 82L237.038 82.014L234.28 72.27H235.974L237.99 80.194L240.174 72.27H241.966L243.996 80.152L246.026 72.27H247.734Z" fill="#595959"/>
</g>
<g clip-path="url(#clip2_0_1)">
<rect x="12" y="141" width="548" height="1" fill="#CED7D4"/>
<path d="M55.9619 115.006V121.473C55.9619 122.612 55.6178 123.507 54.9297 124.159C54.2415 124.811 53.2868 125.137 52.0654 125.137C50.8577 125.137 49.9212 124.809 49.2559 124.152C48.5905 123.492 48.2578 122.589 48.2578 121.445V115.006H49.5225V121.486C49.5225 122.302 49.7389 122.933 50.1719 123.38C50.6094 123.826 51.2656 124.05 52.1406 124.05C52.9655 124.05 53.599 123.829 54.041 123.387C54.4876 122.945 54.7109 122.307 54.7109 121.473V115.006H55.9619ZM63.543 125V120.201C63.543 119.59 63.4062 119.137 63.1328 118.841C62.8639 118.54 62.4401 118.39 61.8613 118.39C61.0911 118.39 60.5306 118.604 60.1797 119.032C59.8333 119.456 59.6602 120.149 59.6602 121.11V125H58.4297V117.494H59.4209L59.6055 118.52H59.6738C59.9062 118.15 60.2321 117.866 60.6514 117.665C61.0706 117.46 61.5332 117.357 62.0391 117.357C62.9596 117.357 63.6432 117.581 64.0898 118.027C64.5365 118.474 64.7598 119.169 64.7598 120.112V125H63.543ZM68.3145 125H67.084V117.494H68.3145V125ZM66.9883 115.464C66.9883 115.19 67.0566 114.992 67.1934 114.869C67.3346 114.746 67.5078 114.685 67.7129 114.685C67.9043 114.685 68.0706 114.746 68.2119 114.869C68.3577 114.992 68.4307 115.19 68.4307 115.464C68.4307 115.733 68.3577 115.931 68.2119 116.059C68.0706 116.186 67.9043 116.25 67.7129 116.25C67.5078 116.25 67.3346 116.186 67.1934 116.059C67.0566 115.931 66.9883 115.733 66.9883 115.464ZM73.2021 124.132C73.3617 124.132 73.5485 124.116 73.7627 124.084C73.9769 124.052 74.1387 124.016 74.248 123.975V124.918C74.1341 124.968 73.9564 125.016 73.7148 125.062C73.4779 125.112 73.2363 125.137 72.9902 125.137C71.5228 125.137 70.7891 124.364 70.7891 122.819V118.451H69.7295V117.863L70.8027 117.371L71.2949 115.771H72.0264V117.494H74.1934V118.451H72.0264V122.785C72.0264 123.218 72.1289 123.551 72.334 123.783C72.5436 124.016 72.833 124.132 73.2021 124.132ZM85.0898 125H78.8555V123.934L81.248 121.329C81.5898 120.96 81.8952 120.623 82.1641 120.317C82.4329 120.012 82.6608 119.714 82.8477 119.422C83.0391 119.13 83.1849 118.839 83.2852 118.547C83.3854 118.251 83.4355 117.929 83.4355 117.583C83.4355 117.314 83.3968 117.077 83.3193 116.872C83.2419 116.667 83.1302 116.494 82.9844 116.353C82.8431 116.207 82.6745 116.097 82.4785 116.024C82.2826 115.951 82.0638 115.915 81.8223 115.915C81.3893 115.915 80.9974 116.004 80.6465 116.182C80.3001 116.355 79.9697 116.578 79.6553 116.852L78.958 116.038C79.1403 115.874 79.3363 115.721 79.5459 115.58C79.7555 115.434 79.9811 115.309 80.2227 115.204C80.4642 115.099 80.7194 115.017 80.9883 114.958C81.2572 114.894 81.5397 114.862 81.8359 114.862C82.2734 114.862 82.6676 114.924 83.0186 115.047C83.374 115.17 83.6748 115.348 83.9209 115.58C84.167 115.808 84.3561 116.088 84.4883 116.421C84.625 116.749 84.6934 117.12 84.6934 117.535C84.6934 117.923 84.6318 118.292 84.5088 118.643C84.3903 118.993 84.224 119.34 84.0098 119.682C83.8001 120.019 83.5472 120.358 83.251 120.7C82.9593 121.042 82.6426 121.397 82.3008 121.767L80.3799 123.811V123.865H85.0898V125Z" fill="#595959"/>
<path d="M376.951 119.26V120.604H371.197V119.26H376.951Z" fill="#121212"/>
<path d="M389.216 115.27V125H387.62V118.336L384.652 125H383.546L380.564 118.336V125H378.968V115.27H380.69L384.106 122.9L387.508 115.27H389.216ZM403.734 115.27L400.85 125H399.044L397 117.636L394.83 125L393.038 125.014L390.28 115.27H391.974L393.99 123.194L396.174 115.27H397.966L399.996 123.152L402.026 115.27H403.734Z" fill="#595959"/>
<path d="M197.9 117.25V115.794H200.812V126H199.202V117.25H197.9ZM202.558 123.872V122.668L207.262 115.92H209.194V122.486H210.496V123.872H209.194V126H207.626V123.872H202.558ZM207.696 117.544L204.392 122.486H207.696V117.544ZM211.695 125.804C211.499 125.608 211.401 125.37 211.401 125.076C211.401 124.796 211.499 124.544 211.695 124.348C211.891 124.152 212.129 124.054 212.423 124.054C212.703 124.054 212.941 124.152 213.137 124.348C213.333 124.544 213.431 124.796 213.431 125.076C213.431 125.37 213.333 125.608 213.137 125.804C212.941 126 212.703 126.098 212.423 126.098C212.129 126.098 211.891 126 211.695 125.804ZM215.661 116.284C216.277 115.808 217.061 115.556 218.013 115.556C218.657 115.556 219.231 115.682 219.707 115.906C220.183 116.144 220.533 116.466 220.785 116.858C221.023 117.264 221.149 117.712 221.149 118.216C221.149 118.804 220.995 119.294 220.687 119.7C220.379 120.12 220.001 120.386 219.581 120.526V120.582C220.127 120.75 220.561 121.058 220.869 121.506C221.177 121.954 221.331 122.514 221.331 123.2C221.331 123.76 221.205 124.25 220.953 124.67C220.701 125.104 220.323 125.44 219.833 125.692C219.329 125.944 218.741 126.056 218.055 126.056C217.047 126.056 216.207 125.804 215.563 125.286C214.919 124.768 214.569 124.026 214.527 123.046H216.067C216.095 123.55 216.291 123.956 216.641 124.264C216.977 124.572 217.453 124.726 218.041 124.726C218.601 124.726 219.049 124.572 219.357 124.264C219.665 123.956 219.819 123.55 219.819 123.046C219.819 122.402 219.609 121.94 219.189 121.66C218.769 121.38 218.139 121.24 217.285 121.24H216.921V119.924H217.299C218.055 119.924 218.629 119.798 219.021 119.546C219.413 119.308 219.623 118.93 219.623 118.398C219.623 117.95 219.469 117.6 219.189 117.334C218.895 117.068 218.489 116.928 217.957 116.928C217.425 116.928 217.019 117.068 216.739 117.334C216.445 117.6 216.277 117.922 216.221 118.314H214.667C214.723 117.446 215.045 116.774 215.661 116.284Z" fill="#121212"/>
<path d="M233.216 116.27V126H231.62V119.336L228.652 126H227.546L224.564 119.336V126H222.968V116.27H224.69L228.106 123.9L231.508 116.27H233.216ZM247.734 116.27L244.85 126H243.044L241 118.636L238.83 126L237.038 126.014L234.28 116.27H235.974L237.99 124.194L240.174 116.27H241.966L243.996 124.152L246.026 116.27H247.734Z" fill="#595959"/>
</g>
<g clip-path="url(#clip3_0_1)">
<rect x="12" y="185" width="548" height="1" fill="#CED7D4"/>
<path d="M55.9619 159.006V165.473C55.9619 166.612 55.6178 167.507 54.9297 168.159C54.2415 168.811 53.2868 169.137 52.0654 169.137C50.8577 169.137 49.9212 168.809 49.2559 168.152C48.5905 167.492 48.2578 166.589 48.2578 165.445V159.006H49.5225V165.486C49.5225 166.302 49.7389 166.933 50.1719 167.38C50.6094 167.826 51.2656 168.05 52.1406 168.05C52.9655 168.05 53.599 167.829 54.041 167.387C54.4876 166.945 54.7109 166.307 54.7109 165.473V159.006H55.9619ZM63.543 169V164.201C63.543 163.59 63.4062 163.137 63.1328 162.841C62.8639 162.54 62.4401 162.39 61.8613 162.39C61.0911 162.39 60.5306 162.604 60.1797 163.032C59.8333 163.456 59.6602 164.149 59.6602 165.11V169H58.4297V161.494H59.4209L59.6055 162.52H59.6738C59.9062 162.15 60.2321 161.866 60.6514 161.665C61.0706 161.46 61.5332 161.357 62.0391 161.357C62.9596 161.357 63.6432 161.581 64.0898 162.027C64.5365 162.474 64.7598 163.169 64.7598 164.112V169H63.543ZM68.3145 169H67.084V161.494H68.3145V169ZM66.9883 159.464C66.9883 159.19 67.0566 158.992 67.1934 158.869C67.3346 158.746 67.5078 158.685 67.7129 158.685C67.9043 158.685 68.0706 158.746 68.2119 158.869C68.3577 158.992 68.4307 159.19 68.4307 159.464C68.4307 159.733 68.3577 159.931 68.2119 160.059C68.0706 160.186 67.9043 160.25 67.7129 160.25C67.5078 160.25 67.3346 160.186 67.1934 160.059C67.0566 159.931 66.9883 159.733 66.9883 159.464ZM73.2021 168.132C73.3617 168.132 73.5485 168.116 73.7627 168.084C73.9769 168.052 74.1387 168.016 74.248 167.975V168.918C74.1341 168.968 73.9564 169.016 73.7148 169.062C73.4779 169.112 73.2363 169.137 72.9902 169.137C71.5228 169.137 70.7891 168.364 70.7891 166.819V162.451H69.7295V161.863L70.8027 161.371L71.2949 159.771H72.0264V161.494H74.1934V162.451H72.0264V166.785C72.0264 167.218 72.1289 167.551 72.334 167.783C72.5436 168.016 72.833 168.132 73.2021 168.132ZM84.7686 161.344C84.7686 161.676 84.7161 161.979 84.6113 162.253C84.5065 162.526 84.3584 162.763 84.167 162.964C83.9801 163.164 83.7546 163.331 83.4902 163.463C83.2259 163.59 82.932 163.682 82.6084 163.736V163.777C83.415 163.878 84.028 164.135 84.4473 164.55C84.8665 164.96 85.0762 165.495 85.0762 166.156C85.0762 166.594 85.001 166.995 84.8506 167.359C84.7048 167.724 84.4814 168.038 84.1807 168.303C83.8799 168.567 83.4993 168.772 83.0391 168.918C82.5788 169.064 82.0342 169.137 81.4053 169.137C80.9085 169.137 80.4391 169.098 79.9971 169.021C79.5596 168.943 79.1471 168.802 78.7598 168.597V167.435C79.1562 167.644 79.5846 167.806 80.0449 167.92C80.5098 168.034 80.9541 168.091 81.3779 168.091C81.7972 168.091 82.1595 168.045 82.4648 167.954C82.7702 167.863 83.0208 167.733 83.2168 167.564C83.4173 167.396 83.5632 167.188 83.6543 166.942C83.75 166.696 83.7979 166.421 83.7979 166.115C83.7979 165.805 83.7363 165.541 83.6133 165.322C83.4948 165.099 83.3239 164.917 83.1006 164.775C82.8773 164.63 82.6038 164.522 82.2803 164.454C81.9613 164.386 81.599 164.352 81.1934 164.352H80.2842V163.319H81.1934C81.5625 163.319 81.8906 163.274 82.1777 163.183C82.4648 163.091 82.7041 162.962 82.8955 162.793C83.0915 162.624 83.2396 162.424 83.3398 162.191C83.4401 161.959 83.4902 161.704 83.4902 161.426C83.4902 161.189 83.4492 160.977 83.3672 160.79C83.2852 160.603 83.1689 160.446 83.0186 160.318C82.8682 160.186 82.6882 160.086 82.4785 160.018C82.2689 159.949 82.0365 159.915 81.7812 159.915C81.2936 159.915 80.863 159.993 80.4893 160.147C80.1201 160.298 79.7669 160.496 79.4297 160.742L78.8008 159.888C78.974 159.746 79.1654 159.614 79.375 159.491C79.5892 159.368 79.8216 159.261 80.0723 159.17C80.3229 159.074 80.5895 158.999 80.8721 158.944C81.1592 158.89 81.4622 158.862 81.7812 158.862C82.2734 158.862 82.7041 158.924 83.0732 159.047C83.4469 159.17 83.7591 159.343 84.0098 159.566C84.2604 159.785 84.4495 160.047 84.5771 160.353C84.7048 160.653 84.7686 160.984 84.7686 161.344Z" fill="#595959"/>
<path d="M370.851 159.984C371.397 159.074 372.335 158.612 373.679 158.612C375.009 158.612 375.947 159.074 376.493 159.984C377.039 160.894 377.319 162.154 377.319 163.764C377.319 165.402 377.039 166.676 376.493 167.6C375.947 168.524 375.009 168.972 373.679 168.972C372.335 168.972 371.397 168.524 370.851 167.6C370.305 166.676 370.039 165.402 370.039 163.764C370.039 162.154 370.305 160.894 370.851 159.984ZM375.597 161.846C375.499 161.328 375.303 160.908 375.009 160.572C374.701 160.236 374.267 160.068 373.679 160.068C373.091 160.068 372.643 160.236 372.349 160.572C372.041 160.908 371.845 161.328 371.747 161.846C371.649 162.378 371.607 163.008 371.607 163.764C371.607 164.548 371.649 165.206 371.747 165.738C371.831 166.27 372.027 166.704 372.335 167.026C372.643 167.362 373.091 167.516 373.679 167.516C374.267 167.516 374.701 167.362 375.009 167.026C375.317 166.704 375.513 166.27 375.611 165.738C375.695 165.206 375.751 164.548 375.751 163.764C375.751 163.008 375.695 162.378 375.597 161.846Z" fill="#121212"/>
<path d="M389.216 159.27V169H387.62V162.336L384.652 169H383.546L380.564 162.336V169H378.968V159.27H380.69L384.106 166.9L387.508 159.27H389.216ZM403.734 159.27L400.85 169H399.044L397 161.636L394.83 169L393.038 169.014L390.28 159.27H391.974L393.99 167.194L396.174 159.27H397.966L399.996 167.152L402.026 159.27H403.734Z" fill="#595959"/>
<path d="M214.851 160.984C215.397 160.074 216.335 159.612 217.679 159.612C219.009 159.612 219.947 160.074 220.493 160.984C221.039 161.894 221.319 163.154 221.319 164.764C221.319 166.402 221.039 167.676 220.493 168.6C219.947 169.524 219.009 169.972 217.679 169.972C216.335 169.972 215.397 169.524 214.851 168.6C214.305 167.676 214.039 166.402 214.039 164.764C214.039 163.154 214.305 161.894 214.851 160.984ZM219.597 162.846C219.499 162.328 219.303 161.908 219.009 161.572C218.701 161.236 218.267 161.068 217.679 161.068C217.091 161.068 216.643 161.236 216.349 161.572C216.041 161.908 215.845 162.328 215.747 162.846C215.649 163.378 215.607 164.008 215.607 164.764C215.607 165.548 215.649 166.206 215.747 166.738C215.831 167.27 216.027 167.704 216.335 168.026C216.643 168.362 217.091 168.516 217.679 168.516C218.267 168.516 218.701 168.362 219.009 168.026C219.317 167.704 219.513 167.27 219.611 166.738C219.695 166.206 219.751 165.548 219.751 164.764C219.751 164.008 219.695 163.378 219.597 162.846Z" fill="#121212"/>
<path d="M233.216 160.27V170H231.62V163.336L228.652 170H227.546L224.564 163.336V170H222.968V160.27H224.69L228.106 167.9L231.508 160.27H233.216ZM247.734 160.27L244.85 170H243.044L241 162.636L238.83 170L237.038 170.014L234.28 160.27H235.974L237.99 168.194L240.174 160.27H241.966L243.996 168.152L246.026 160.27H247.734Z" fill="#595959"/>
</g>
<g clip-path="url(#clip4_0_1)">
<rect x="12" y="229" width="548" height="1" fill="#CED7D4"/>
<path d="M55.9619 203.006V209.473C55.9619 210.612 55.6178 211.507 54.9297 212.159C54.2415 212.811 53.2868 213.137 52.0654 213.137C50.8577 213.137 49.9212 212.809 49.2559 212.152C48.5905 211.492 48.2578 210.589 48.2578 209.445V203.006H49.5225V209.486C49.5225 210.302 49.7389 210.933 50.1719 211.38C50.6094 211.826 51.2656 212.05 52.1406 212.05C52.9655 212.05 53.599 211.829 54.041 211.387C54.4876 210.945 54.7109 210.307 54.7109 209.473V203.006H55.9619ZM63.543 213V208.201C63.543 207.59 63.4062 207.137 63.1328 206.841C62.8639 206.54 62.4401 206.39 61.8613 206.39C61.0911 206.39 60.5306 206.604 60.1797 207.032C59.8333 207.456 59.6602 208.149 59.6602 209.11V213H58.4297V205.494H59.4209L59.6055 206.52H59.6738C59.9062 206.15 60.2321 205.866 60.6514 205.665C61.0706 205.46 61.5332 205.357 62.0391 205.357C62.9596 205.357 63.6432 205.581 64.0898 206.027C64.5365 206.474 64.7598 207.169 64.7598 208.112V213H63.543ZM68.3145 213H67.084V205.494H68.3145V213ZM66.9883 203.464C66.9883 203.19 67.0566 202.992 67.1934 202.869C67.3346 202.746 67.5078 202.685 67.7129 202.685C67.9043 202.685 68.0706 202.746 68.2119 202.869C68.3577 202.992 68.4307 203.19 68.4307 203.464C68.4307 203.733 68.3577 203.931 68.2119 204.059C68.0706 204.186 67.9043 204.25 67.7129 204.25C67.5078 204.25 67.3346 204.186 67.1934 204.059C67.0566 203.931 66.9883 203.733 66.9883 203.464ZM73.2021 212.132C73.3617 212.132 73.5485 212.116 73.7627 212.084C73.9769 212.052 74.1387 212.016 74.248 211.975V212.918C74.1341 212.968 73.9564 213.016 73.7148 213.062C73.4779 213.112 73.2363 213.137 72.9902 213.137C71.5228 213.137 70.7891 212.364 70.7891 210.819V206.451H69.7295V205.863L70.8027 205.371L71.2949 203.771H72.0264V205.494H74.1934V206.451H72.0264V210.785C72.0264 211.218 72.1289 211.551 72.334 211.783C72.5436 212.016 72.833 212.132 73.2021 212.132ZM85.6299 210.758H84.1738V213H82.9707V210.758H78.3564V209.671L82.8887 202.951H84.1738V209.623H85.6299V210.758ZM82.9707 209.623V207.189C82.9707 206.934 82.973 206.668 82.9775 206.39C82.9867 206.107 82.9958 205.834 83.0049 205.569C83.014 205.3 83.0231 205.05 83.0322 204.817C83.0459 204.585 83.055 204.391 83.0596 204.236H82.998C82.9661 204.327 82.9251 204.43 82.875 204.544C82.8294 204.653 82.777 204.765 82.7178 204.879C82.6631 204.988 82.6061 205.095 82.5469 205.2C82.4876 205.305 82.4329 205.394 82.3828 205.467L79.5732 209.623H82.9707Z" fill="#595959"/>
<path d="M354.515 204.25V202.794H357.427V213H355.817V204.25H354.515ZM359.635 205.37C359.635 204.866 359.761 204.404 360.013 203.984C360.265 203.564 360.643 203.242 361.147 202.99C361.651 202.738 362.267 202.612 362.995 202.612C363.709 202.612 364.325 202.738 364.829 202.99C365.333 203.242 365.725 203.564 365.977 203.984C366.229 204.404 366.355 204.866 366.355 205.37C366.355 205.902 366.215 206.364 365.949 206.756C365.683 207.148 365.333 207.456 364.899 207.666C365.431 207.862 365.851 208.184 366.159 208.632C366.467 209.08 366.621 209.598 366.621 210.186C366.621 210.802 366.467 211.334 366.159 211.796C365.851 212.272 365.417 212.622 364.871 212.874C364.311 213.126 363.695 213.252 362.995 213.252C362.295 213.252 361.665 213.126 361.119 212.874C360.573 212.622 360.153 212.272 359.845 211.796C359.537 211.334 359.383 210.802 359.383 210.186C359.383 209.584 359.537 209.066 359.845 208.618C360.153 208.184 360.559 207.862 361.091 207.666C360.111 207.19 359.635 206.42 359.635 205.37ZM364.339 204.362C364.003 204.082 363.555 203.942 362.995 203.942C362.435 203.942 361.987 204.082 361.665 204.362C361.329 204.642 361.175 205.048 361.175 205.58C361.175 206.056 361.343 206.434 361.679 206.728C362.015 207.022 362.463 207.162 362.995 207.162C363.527 207.162 363.961 207.022 364.311 206.714C364.647 206.42 364.829 206.042 364.829 205.566C364.829 205.048 364.661 204.642 364.339 204.362ZM361.483 208.828C361.091 209.136 360.909 209.57 360.909 210.13C360.909 210.662 361.091 211.096 361.469 211.432C361.833 211.768 362.351 211.922 362.995 211.922C363.625 211.922 364.129 211.754 364.493 211.418C364.857 211.082 365.053 210.662 365.053 210.13C365.053 209.57 364.857 209.136 364.479 208.828C364.101 208.52 363.611 208.366 362.995 208.366C362.379 208.366 361.875 208.52 361.483 208.828ZM368.173 212.804C367.977 212.608 367.879 212.37 367.879 212.076C367.879 211.796 367.977 211.544 368.173 211.348C368.369 211.152 368.607 211.054 368.901 211.054C369.181 211.054 369.419 211.152 369.615 211.348C369.811 211.544 369.909 211.796 369.909 212.076C369.909 212.37 369.811 212.608 369.615 212.804C369.419 213 369.181 213.098 368.901 213.098C368.607 213.098 368.369 213 368.173 212.804ZM377.642 204.026L373.75 213H372.14L376.074 204.194H370.894V202.836H377.642V204.026Z" fill="#121212"/>
<path d="M389.216 203.27V213H387.62V206.336L384.652 213H383.546L380.564 206.336V213H378.968V203.27H380.69L384.106 210.9L387.508 203.27H389.216ZM403.734 203.27L400.85 213H399.044L397 205.636L394.83 213L393.038 213.014L390.28 203.27H391.974L393.99 211.194L396.174 203.27H397.966L399.996 211.152L402.026 203.27H403.734Z" fill="#595959"/>
<path d="M197.9 205.25V203.794H200.812V214H199.202V205.25H197.9ZM202.558 211.872V210.668L207.262 203.92H209.194V210.486H210.496V211.872H209.194V214H207.626V211.872H202.558ZM207.696 205.544L204.392 210.486H207.696V205.544ZM211.695 213.804C211.499 213.608 211.401 213.37 211.401 213.076C211.401 212.796 211.499 212.544 211.695 212.348C211.891 212.152 212.129 212.054 212.423 212.054C212.703 212.054 212.941 212.152 213.137 212.348C213.333 212.544 213.431 212.796 213.431 213.076C213.431 213.37 213.333 213.608 213.137 213.804C212.941 214 212.703 214.098 212.423 214.098C212.129 214.098 211.891 214 211.695 213.804ZM215.661 204.284C216.277 203.808 217.061 203.556 218.013 203.556C218.657 203.556 219.231 203.682 219.707 203.906C220.183 204.144 220.533 204.466 220.785 204.858C221.023 205.264 221.149 205.712 221.149 206.216C221.149 206.804 220.995 207.294 220.687 207.7C220.379 208.12 220.001 208.386 219.581 208.526V208.582C220.127 208.75 220.561 209.058 220.869 209.506C221.177 209.954 221.331 210.514 221.331 211.2C221.331 211.76 221.205 212.25 220.953 212.67C220.701 213.104 220.323 213.44 219.833 213.692C219.329 213.944 218.741 214.056 218.055 214.056C217.047 214.056 216.207 213.804 215.563 213.286C214.919 212.768 214.569 212.026 214.527 211.046H216.067C216.095 211.55 216.291 211.956 216.641 212.264C216.977 212.572 217.453 212.726 218.041 212.726C218.601 212.726 219.049 212.572 219.357 212.264C219.665 211.956 219.819 211.55 219.819 211.046C219.819 210.402 219.609 209.94 219.189 209.66C218.769 209.38 218.139 209.24 217.285 209.24H216.921V207.924H217.299C218.055 207.924 218.629 207.798 219.021 207.546C219.413 207.308 219.623 206.93 219.623 206.398C219.623 205.95 219.469 205.6 219.189 205.334C218.895 205.068 218.489 204.928 217.957 204.928C217.425 204.928 217.019 205.068 216.739 205.334C216.445 205.6 216.277 205.922 216.221 206.314H214.667C214.723 205.446 215.045 204.774 215.661 204.284Z" fill="#121212"/>
<path d="M233.216 204.27V214H231.62V207.336L228.652 214H227.546L224.564 207.336V214H222.968V204.27H224.69L228.106 211.9L231.508 204.27H233.216ZM247.734 204.27L244.85 214H243.044L241 206.636L238.83 214L237.038 214.014L234.28 204.27H235.974L237.99 212.194L240.174 204.27H241.966L243.996 212.152L246.026 204.27H247.734Z" fill="#595959"/>
</g>
<rect x="276" y="198" width="55" height="20" rx="4" fill="#EFFCF6"/>
<path d="M296 203.5L297.718 205.217L294.057 208.878L291.057 205.878L285.5 211.443L286.558 212.5L291.057 208L294.057 211L298.782 206.283L300.5 208V203.5H296Z" fill="#02A783"/>
<path d="M312.369 211.078H311.121V213H310.09V211.078H306.135V210.146L310.02 204.387H311.121V210.105H312.369V211.078ZM310.09 210.105V208.02C310.09 207.801 310.092 207.572 310.096 207.334C310.104 207.092 310.111 206.857 310.119 206.631C310.127 206.4 310.135 206.186 310.143 205.986C310.154 205.787 310.162 205.621 310.166 205.488H310.113C310.086 205.566 310.051 205.654 310.008 205.752C309.969 205.846 309.924 205.941 309.873 206.039C309.826 206.133 309.777 206.225 309.727 206.314C309.676 206.404 309.629 206.48 309.586 206.543L307.178 210.105H310.09ZM313.471 212.35C313.471 212.201 313.49 212.076 313.529 211.975C313.568 211.869 313.621 211.785 313.688 211.723C313.754 211.656 313.832 211.609 313.922 211.582C314.012 211.551 314.109 211.535 314.215 211.535C314.316 211.535 314.412 211.551 314.502 211.582C314.596 211.609 314.676 211.656 314.742 211.723C314.809 211.785 314.861 211.869 314.9 211.975C314.939 212.076 314.959 212.201 314.959 212.35C314.959 212.494 314.939 212.619 314.9 212.725C314.861 212.826 314.809 212.91 314.742 212.977C314.676 213.043 314.596 213.092 314.502 213.123C314.412 213.154 314.316 213.17 314.215 213.17C314.109 213.17 314.012 213.154 313.922 213.123C313.832 213.092 313.754 213.043 313.688 212.977C313.621 212.91 313.568 212.826 313.529 212.725C313.49 212.619 313.471 212.494 313.471 212.35ZM322.201 211.078H320.953V213H319.922V211.078H315.967V210.146L319.852 204.387H320.953V210.105H322.201V211.078ZM319.922 210.105V208.02C319.922 207.801 319.924 207.572 319.928 207.334C319.936 207.092 319.943 206.857 319.951 206.631C319.959 206.4 319.967 206.186 319.975 205.986C319.986 205.787 319.994 205.621 319.998 205.488H319.945C319.918 205.566 319.883 205.654 319.84 205.752C319.801 205.846 319.756 205.941 319.705 206.039C319.658 206.133 319.609 206.225 319.559 206.314C319.508 206.404 319.461 206.48 319.418 206.543L317.01 210.105H319.922Z" fill="#02A783"/>
<rect x="276" y="67" width="55" height="20" rx="4" fill="#FEFBE6"/>
<path d="M296 81.5L297.718 79.7825L294.057 76.1225L291.057 79.1225L285.5 73.5575L286.558 72.5L291.057 77L294.057 74L298.782 78.7175L300.5 77V81.5H296Z" fill="#E87516"/>
<path d="M310.166 82H309.135V76.6504C309.135 76.4824 309.135 76.3027 309.135 76.1113C309.139 75.9199 309.143 75.7305 309.146 75.543C309.154 75.3516 309.16 75.1699 309.164 74.998C309.172 74.8223 309.178 74.668 309.182 74.5352C309.115 74.6055 309.057 74.666 309.006 74.7168C308.955 74.7676 308.902 74.8164 308.848 74.8633C308.797 74.9102 308.742 74.9609 308.684 75.0156C308.625 75.0664 308.555 75.127 308.473 75.1973L307.605 75.9062L307.043 75.1855L309.287 73.4336H310.166V82ZM313.471 81.3496C313.471 81.2012 313.49 81.0762 313.529 80.9746C313.568 80.8691 313.621 80.7852 313.688 80.7227C313.754 80.6562 313.832 80.6094 313.922 80.582C314.012 80.5508 314.109 80.5352 314.215 80.5352C314.316 80.5352 314.412 80.5508 314.502 80.582C314.596 80.6094 314.676 80.6562 314.742 80.7227C314.809 80.7852 314.861 80.8691 314.9 80.9746C314.939 81.0762 314.959 81.2012 314.959 81.3496C314.959 81.4941 314.939 81.6191 314.9 81.7246C314.861 81.8262 314.809 81.9102 314.742 81.9766C314.676 82.043 314.596 82.0918 314.502 82.123C314.412 82.1543 314.316 82.1699 314.215 82.1699C314.109 82.1699 314.012 82.1543 313.922 82.123C313.832 82.0918 313.754 82.043 313.688 81.9766C313.621 81.9102 313.568 81.8262 313.529 81.7246C313.49 81.6191 313.471 81.4941 313.471 81.3496ZM322.201 80.0781H320.953V82H319.922V80.0781H315.967V79.1465L319.852 73.3867H320.953V79.1055H322.201V80.0781ZM319.922 79.1055V77.0195C319.922 76.8008 319.924 76.5723 319.928 76.334C319.936 76.0918 319.943 75.8574 319.951 75.6309C319.959 75.4004 319.967 75.1855 319.975 74.9863C319.986 74.7871 319.994 74.6211 319.998 74.4883H319.945C319.918 74.5664 319.883 74.6543 319.84 74.752C319.801 74.8457 319.756 74.9414 319.705 75.0391C319.658 75.1328 319.609 75.2246 319.559 75.3145C319.508 75.4043 319.461 75.4805 319.418 75.543L317.01 79.1055H319.922Z" fill="#E87516"/>
<rect x="14.5" y="64.5" width="23" height="23" rx="11.5" fill="#EFFCF6"/>
<rect x="14.5" y="64.5" width="23" height="23" rx="11.5" stroke="#02A783"/>
<path d="M27.2979 74.4897C26.2413 73.7346 25.1281 74.1751 24.7036 74.4897L23.3828 72.7815C23.0809 72.35 23.3828 71.5829 23.5715 71.2533L25.1636 67.7398C25.2961 67.4474 25.4609 67.1333 25.7667 67.0355C25.8739 67.0012 25.9777 66.9938 26.0749 67.0046C26.4916 67.0506 26.6526 67.5256 26.6803 67.9439C28.9032 67.836 31.2419 69.1917 32.3853 70.2813C34.359 72.1621 35.0057 74.9727 35 76.5817C34.9991 76.8328 34.7878 77.0236 34.5367 77.0236C34.2813 77.0236 34.0705 76.8271 34.0459 76.5728C33.9178 75.2488 33.4963 72.6998 31.7249 71.0903C29.6967 69.2474 27.9191 68.9665 26.7876 68.9328L27.2979 74.4897Z" fill="#02A783"/>
<path d="M27.062 78.4003C28.1563 77.9329 28.3985 76.7371 28.3827 76.1976L29.2968 76.1641C30.3193 76.1266 31.4282 76.2132 32.0147 77.0517L33.8877 79.5134C34.4393 80.2385 34.6179 81.7183 33.76 81.4117L33.4702 81.2814C32.7784 82.3193 30.4891 84.539 27.2439 84.9345C25.691 85.1238 23.3929 84.9446 21.4319 83.8379C21.1916 83.7023 21.016 83.5641 21.0398 83.2893C21.0992 82.6047 22.0971 82.8687 22.7126 83.1742C23.7803 83.7041 25.4998 84.1534 27.5741 83.8108C28.5174 83.7005 30.8193 82.9511 32.4796 80.836L27.062 78.4003Z" fill="#02A783"/>
<path d="M23.6187 76.1976C23.5715 76.6922 23.7696 77.8251 24.9394 78.4003L24.2319 79.9284C24.1218 80.1981 23.7413 80.7734 23.0998 80.9172L19.1398 81.2814C18.2122 81.3667 16.8392 80.9086 17.5339 80.288L17.8573 80.0706C16.612 78.0493 16.9925 75.2492 17.3384 74.1019C18.0554 71.1533 20.656 69.3373 21.8666 68.7979C22.6968 68.9418 22.527 69.3973 22.3383 69.607C20.7912 70.2902 19.3981 72.1092 18.895 72.9332C17.461 75.8459 18.1717 78.5246 18.7063 79.4998L23.6187 76.1976Z" fill="#02A783"/>
<path d="M31.8418 73.2357C31.0498 71.8729 29.6306 70.9924 28.6537 70.5346C28.2609 70.3505 27.6606 70.1412 27.3847 70.476C26.9777 70.97 27.8994 71.3242 28.4776 71.5989C29.4824 72.0764 30.1674 72.7432 30.5909 73.3311C30.9437 73.8208 31.6848 74.467 31.9455 73.9228C32.0505 73.7034 31.964 73.446 31.8418 73.2357Z" fill="#02A783"/>
<path d="M25.9334 82.7703C27.8018 82.697 29.2869 82.0331 30.0363 81.4502C30.2633 81.2737 30.4915 80.9254 30.3571 80.6712C30.1276 80.2368 29.5854 80.5144 29.1598 80.7597C28.2154 81.304 27.2829 81.55 26.5502 81.6399C25.8221 81.7293 24.7501 82.2271 25.3449 82.6564C25.525 82.7864 25.7018 82.7794 25.9223 82.7708L25.9334 82.7703Z" fill="#02A783"/>
<path d="M20.2157 77.4281C19.8917 76.1343 20.3322 74.7049 20.7655 73.7914C20.9683 73.3637 21.182 72.624 20.7121 72.5664C20.3255 72.519 20.0953 72.8269 19.9289 73.179C19.7563 73.5442 19.5496 74.0493 19.3195 74.6413C19.0835 75.2485 19.0443 76.028 19.0749 76.6697C19.1049 77.2959 19.1657 78.1898 19.7912 78.1473C20.3195 78.1113 20.2943 77.6528 20.2157 77.4281Z" fill="#02A783"/>
<path d="M27.0031 77.3934C27.582 76.8253 27.589 75.8948 27.0186 75.318C26.4453 74.7383 25.509 74.7383 24.9357 75.318C24.3653 75.8948 24.3722 76.8253 24.9512 77.3934C25.5209 77.9525 26.4334 77.9525 27.0031 77.3934Z" fill="#02A783"/>
<rect x="14.5" y="107.5" width="23" height="23" rx="11.5" fill="#EFFCF6"/>
<rect x="14.5" y="107.5" width="23" height="23" rx="11.5" stroke="#02A783"/>
<path d="M27.2979 117.49C26.2413 116.735 25.1281 117.175 24.7036 117.49L23.3828 115.782C23.0809 115.35 23.3828 114.583 23.5715 114.253L25.1636 110.74C25.2961 110.447 25.4609 110.133 25.7667 110.036C25.8739 110.001 25.9777 109.994 26.0749 110.005C26.4916 110.051 26.6526 110.526 26.6803 110.944C28.9032 110.836 31.2419 112.192 32.3853 113.281C34.359 115.162 35.0057 117.973 35 119.582C34.9991 119.833 34.7878 120.024 34.5367 120.024C34.2813 120.024 34.0705 119.827 34.0459 119.573C33.9178 118.249 33.4963 115.7 31.7249 114.09C29.6967 112.247 27.9191 111.967 26.7876 111.933L27.2979 117.49Z" fill="#02A783"/>
<path d="M27.062 121.4C28.1563 120.933 28.3985 119.737 28.3827 119.198L29.2968 119.164C30.3193 119.127 31.4282 119.213 32.0147 120.052L33.8877 122.513C34.4393 123.238 34.6179 124.718 33.76 124.412L33.4702 124.281C32.7784 125.319 30.4891 127.539 27.2439 127.935C25.691 128.124 23.3929 127.945 21.4319 126.838C21.1916 126.702 21.016 126.564 21.0398 126.289C21.0992 125.605 22.0971 125.869 22.7126 126.174C23.7803 126.704 25.4998 127.153 27.5741 126.811C28.5174 126.7 30.8193 125.951 32.4796 123.836L27.062 121.4Z" fill="#02A783"/>
<path d="M23.6187 119.198C23.5715 119.692 23.7696 120.825 24.9394 121.4L24.2319 122.928C24.1218 123.198 23.7413 123.773 23.0998 123.917L19.1398 124.281C18.2122 124.367 16.8392 123.909 17.5339 123.288L17.8573 123.071C16.612 121.049 16.9925 118.249 17.3384 117.102C18.0554 114.153 20.656 112.337 21.8666 111.798C22.6968 111.942 22.527 112.397 22.3383 112.607C20.7912 113.29 19.3981 115.109 18.895 115.933C17.461 118.846 18.1717 121.525 18.7063 122.5L23.6187 119.198Z" fill="#02A783"/>
<path d="M31.8418 116.236C31.0498 114.873 29.6306 113.992 28.6537 113.535C28.2609 113.351 27.6606 113.141 27.3847 113.476C26.9777 113.97 27.8994 114.324 28.4776 114.599C29.4824 115.076 30.1674 115.743 30.5909 116.331C30.9437 116.821 31.6848 117.467 31.9455 116.923C32.0505 116.703 31.964 116.446 31.8418 116.236Z" fill="#02A783"/>
<path d="M25.9334 125.77C27.8018 125.697 29.2869 125.033 30.0363 124.45C30.2633 124.274 30.4915 123.925 30.3571 123.671C30.1276 123.237 29.5854 123.514 29.1598 123.76C28.2154 124.304 27.2829 124.55 26.5502 124.64C25.8221 124.729 24.7501 125.227 25.3449 125.656C25.525 125.786 25.7018 125.779 25.9223 125.771L25.9334 125.77Z" fill="#02A783"/>
<path d="M20.2157 120.428C19.8917 119.134 20.3322 117.705 20.7655 116.791C20.9683 116.364 21.182 115.624 20.7121 115.566C20.3255 115.519 20.0953 115.827 19.9289 116.179C19.7563 116.544 19.5496 117.049 19.3195 117.641C19.0835 118.248 19.0443 119.028 19.0749 119.67C19.1049 120.296 19.1657 121.19 19.7912 121.147C20.3195 121.111 20.2943 120.653 20.2157 120.428Z" fill="#02A783"/>
<path d="M27.0031 120.393C27.582 119.825 27.589 118.895 27.0186 118.318C26.4453 117.738 25.509 117.738 24.9357 118.318C24.3653 118.895 24.3722 119.825 24.9512 120.393C25.5209 120.953 26.4334 120.953 27.0031 120.393Z" fill="#02A783"/>
<rect x="14.5" y="195.5" width="23" height="23" rx="11.5" fill="#EFFCF6"/>
<rect x="14.5" y="195.5" width="23" height="23" rx="11.5" stroke="#02A783"/>
<path d="M27.2979 205.49C26.2413 204.735 25.1281 205.175 24.7036 205.49L23.3828 203.782C23.0809 203.35 23.3828 202.583 23.5715 202.253L25.1636 198.74C25.2961 198.447 25.4609 198.133 25.7667 198.036C25.8739 198.001 25.9777 197.994 26.0749 198.005C26.4916 198.051 26.6526 198.526 26.6803 198.944C28.9032 198.836 31.2419 200.192 32.3853 201.281C34.359 203.162 35.0057 205.973 35 207.582C34.9991 207.833 34.7878 208.024 34.5367 208.024C34.2813 208.024 34.0705 207.827 34.0459 207.573C33.9178 206.249 33.4963 203.7 31.7249 202.09C29.6967 200.247 27.9191 199.967 26.7876 199.933L27.2979 205.49Z" fill="#02A783"/>
<path d="M27.062 209.4C28.1563 208.933 28.3985 207.737 28.3827 207.198L29.2968 207.164C30.3193 207.127 31.4282 207.213 32.0147 208.052L33.8877 210.513C34.4393 211.238 34.6179 212.718 33.76 212.412L33.4702 212.281C32.7784 213.319 30.4891 215.539 27.2439 215.935C25.691 216.124 23.3929 215.945 21.4319 214.838C21.1916 214.702 21.016 214.564 21.0398 214.289C21.0992 213.605 22.0971 213.869 22.7126 214.174C23.7803 214.704 25.4998 215.153 27.5741 214.811C28.5174 214.7 30.8193 213.951 32.4796 211.836L27.062 209.4Z" fill="#02A783"/>
<path d="M23.6187 207.198C23.5715 207.692 23.7696 208.825 24.9394 209.4L24.2319 210.928C24.1218 211.198 23.7413 211.773 23.0998 211.917L19.1398 212.281C18.2122 212.367 16.8392 211.909 17.5339 211.288L17.8573 211.071C16.612 209.049 16.9925 206.249 17.3384 205.102C18.0554 202.153 20.656 200.337 21.8666 199.798C22.6968 199.942 22.527 200.397 22.3383 200.607C20.7912 201.29 19.3981 203.109 18.895 203.933C17.461 206.846 18.1717 209.525 18.7063 210.5L23.6187 207.198Z" fill="#02A783"/>
<path d="M31.8418 204.236C31.0498 202.873 29.6306 201.992 28.6537 201.535C28.2609 201.351 27.6606 201.141 27.3847 201.476C26.9777 201.97 27.8994 202.324 28.4776 202.599C29.4824 203.076 30.1674 203.743 30.5909 204.331C30.9437 204.821 31.6848 205.467 31.9455 204.923C32.0505 204.703 31.964 204.446 31.8418 204.236Z" fill="#02A783"/>
<path d="M25.9334 213.77C27.8018 213.697 29.2869 213.033 30.0363 212.45C30.2633 212.274 30.4915 211.925 30.3571 211.671C30.1276 211.237 29.5854 211.514 29.1598 211.76C28.2154 212.304 27.2829 212.55 26.5502 212.64C25.8221 212.729 24.7501 213.227 25.3449 213.656C25.525 213.786 25.7018 213.779 25.9223 213.771L25.9334 213.77Z" fill="#02A783"/>
<path d="M20.2157 208.428C19.8917 207.134 20.3322 205.705 20.7655 204.791C20.9683 204.364 21.182 203.624 20.7121 203.566C20.3255 203.519 20.0953 203.827 19.9289 204.179C19.7563 204.544 19.5496 205.049 19.3195 205.641C19.0835 206.248 19.0443 207.028 19.0749 207.67C19.1049 208.296 19.1657 209.19 19.7912 209.147C20.3195 209.111 20.2943 208.653 20.2157 208.428Z" fill="#02A783"/>
<path d="M27.0031 208.393C27.582 207.825 27.589 206.895 27.0186 206.318C26.4453 205.738 25.509 205.738 24.9357 206.318C24.3653 206.895 24.3722 207.825 24.9512 208.393C25.5209 208.953 26.4334 208.953 27.0031 208.393Z" fill="#02A783"/>
<rect x="14.5" y="152.5" width="23" height="23" rx="11.5" fill="#EBEFEE"/>
<rect x="14.5" y="152.5" width="23" height="23" rx="11.5" stroke="#A0A0A0"/>
<path d="M27.3372 162.818C26.2508 161.929 25.1063 162.448 24.6698 162.818L23.3118 160.807C23.0014 160.299 23.3118 159.396 23.5058 159.008L25.1489 154.856C25.2812 154.521 25.5578 154.049 25.9146 154.005C26.5557 153.926 26.6858 154.694 26.7374 155.338L27.3372 162.818Z" fill="#595959"/>
<path d="M27.0947 167.422C28.2199 166.872 28.4688 165.464 28.4527 164.829L29.2975 164.793C30.411 164.747 31.6061 164.883 32.1871 165.834L34.1367 168.769C34.6934 169.606 34.9125 171.348 33.9815 170.968L27.0947 167.422Z" fill="#595959"/>
<path d="M24.9123 167.422C23.7095 166.745 23.5058 165.411 23.5543 164.829L17.298 169.645C16.568 170.391 18.0482 170.909 19.0866 170.8L21.3237 170.564C22.4536 170.445 23.8034 170.291 24.1848 169.221L24.9123 167.422Z" fill="#595959"/>
<path d="M24.7805 166.075C25.4188 166.792 26.5397 166.792 27.178 166.075C27.7132 165.474 27.7199 164.569 27.1936 163.959C26.5536 163.218 25.4049 163.218 24.7649 163.959C24.2386 164.569 24.2453 165.474 24.7805 166.075Z" fill="#595959"/>
<g clip-path="url(#clip5_0_1)">
<path d="M304 124.953L308.635 127.75L307.405 122.478L311.5 118.93L306.108 118.473L304 113.5L301.892 118.473L296.5 118.93L300.595 122.478L299.365 127.75L304 124.953Z" fill="#666EB4"/>
</g>
<rect x="6" y="255" width="411" height="9" fill="white"/>
<path opacity="0.5" d="M0 4C0 1.79086 1.79086 0 4 0H421C423.209 0 425 1.79086 425 4V261C425 263.209 423.209 265 421 265H3.99999C1.79086 265 0 263.209 0 261V4Z" fill="#EBEFEE"/>
</g>
<defs>
<clipPath id="clip0_0_1">
<rect width="396" height="44" fill="white" transform="translate(12 10)"/>
</clipPath>
<clipPath id="clip1_0_1">
<rect width="396" height="44" fill="white" transform="translate(12 54)"/>
</clipPath>
<clipPath id="clip2_0_1">
<rect width="396" height="44" fill="white" transform="translate(12 98)"/>
</clipPath>
<clipPath id="clip3_0_1">
<rect width="396" height="44" fill="white" transform="translate(12 142)"/>
</clipPath>
<clipPath id="clip4_0_1">
<rect width="396" height="44" fill="white" transform="translate(12 186)"/>
</clipPath>
<clipPath id="clip5_0_1">
<rect width="18" height="18" fill="white" transform="translate(295 112)"/>
</clipPath>
</defs>
</svg>
