<svg width="425" height="266" viewBox="0 0 425 266" fill="none" xmlns="http://www.w3.org/2000/svg">
<rect width="425" height="266" fill="#F5F5F5"/>
<rect x="-16770" y="-3470" width="23840" height="13376" fill="#F8FAF9"/>
<rect width="425" height="265" rx="4" fill="white"/>
<g clip-path="url(#clip0_0_1)">
<path d="M26.9961 71.7051C26.9961 72.3965 26.9453 73.0156 26.8438 73.5625C26.7461 74.1094 26.5859 74.5723 26.3633 74.9512C26.1445 75.3301 25.8613 75.6191 25.5137 75.8184C25.166 76.0176 24.7441 76.1172 24.248 76.1172C23.7871 76.1172 23.3848 76.0176 23.041 75.8184C22.7012 75.6191 22.418 75.3301 22.1914 74.9512C21.9688 74.5723 21.8008 74.1094 21.6875 73.5625C21.5781 73.0156 21.5234 72.3965 21.5234 71.7051C21.5234 71.0137 21.5723 70.3945 21.6699 69.8477C21.7715 69.3008 21.9297 68.8398 22.1445 68.4648C22.3633 68.0859 22.6445 67.7969 22.9883 67.5977C23.3359 67.3984 23.7559 67.2988 24.248 67.2988C24.7129 67.2988 25.1172 67.3984 25.4609 67.5977C25.8047 67.793 26.0898 68.0801 26.3164 68.459C26.543 68.834 26.7129 69.2949 26.8262 69.8418C26.9395 70.3887 26.9961 71.0098 26.9961 71.7051ZM22.6074 71.7051C22.6074 72.291 22.6367 72.8027 22.6953 73.2402C22.7539 73.6777 22.8477 74.043 22.9766 74.3359C23.1055 74.625 23.2734 74.8438 23.4805 74.9922C23.6914 75.1367 23.9473 75.209 24.248 75.209C24.5488 75.209 24.8047 75.1367 25.0156 74.9922C25.2266 74.8477 25.3984 74.6309 25.5312 74.3418C25.668 74.0527 25.7656 73.6895 25.8242 73.252C25.8867 72.8105 25.918 72.2949 25.918 71.7051C25.918 71.1191 25.8867 70.6074 25.8242 70.1699C25.7656 69.7324 25.668 69.3691 25.5312 69.0801C25.3984 68.791 25.2266 68.5742 25.0156 68.4297C24.8047 68.2852 24.5488 68.2129 24.248 68.2129C23.9473 68.2129 23.6914 68.2852 23.4805 68.4297C23.2734 68.5742 23.1055 68.791 22.9766 69.0801C22.8477 69.3691 22.7539 69.7324 22.6953 70.1699C22.6367 70.6074 22.6074 71.1191 22.6074 71.7051ZM28.4199 75.3496C28.4199 75.2012 28.4395 75.0762 28.4785 74.9746C28.5176 74.8691 28.5703 74.7852 28.6367 74.7227C28.7031 74.6562 28.7812 74.6094 28.8711 74.582C28.9609 74.5508 29.0586 74.5352 29.1641 74.5352C29.2656 74.5352 29.3613 74.5508 29.4512 74.582C29.5449 74.6094 29.625 74.6562 29.6914 74.7227C29.7578 74.7852 29.8105 74.8691 29.8496 74.9746C29.8887 75.0762 29.9082 75.2012 29.9082 75.3496C29.9082 75.4941 29.8887 75.6191 29.8496 75.7246C29.8105 75.8262 29.7578 75.9102 29.6914 75.9766C29.625 76.043 29.5449 76.0918 29.4512 76.123C29.3613 76.1543 29.2656 76.1699 29.1641 76.1699C29.0586 76.1699 28.9609 76.1543 28.8711 76.123C28.7812 76.0918 28.7031 76.043 28.6367 75.9766C28.5703 75.9102 28.5176 75.8262 28.4785 75.7246C28.4395 75.6191 28.4199 75.4941 28.4199 75.3496ZM34.9473 76H33.916V70.6504C33.916 70.4824 33.916 70.3027 33.916 70.1113C33.9199 69.9199 33.9238 69.7305 33.9277 69.543C33.9355 69.3516 33.9414 69.1699 33.9453 68.998C33.9531 68.8223 33.959 68.668 33.9629 68.5352C33.8965 68.6055 33.8379 68.666 33.7871 68.7168C33.7363 68.7676 33.6836 68.8164 33.6289 68.8633C33.5781 68.9102 33.5234 68.9609 33.4648 69.0156C33.4062 69.0664 33.3359 69.127 33.2539 69.1973L32.3867 69.9062L31.8242 69.1855L34.0684 67.4336H34.9473V76ZM40.584 70.7441C40.9707 70.7441 41.3301 70.7988 41.6621 70.9082C41.998 71.0137 42.2891 71.1719 42.5352 71.3828C42.7852 71.5938 42.9805 71.8555 43.1211 72.168C43.2617 72.4805 43.332 72.8418 43.332 73.252C43.332 73.6973 43.2656 74.0977 43.1328 74.4531C43 74.8086 42.8027 75.1094 42.541 75.3555C42.2793 75.6016 41.9551 75.791 41.5684 75.9238C41.1855 76.0527 40.7441 76.1172 40.2441 76.1172C40.0449 76.1172 39.8477 76.1074 39.6523 76.0879C39.4609 76.0684 39.2754 76.0391 39.0957 76C38.9199 75.9648 38.752 75.918 38.5918 75.8594C38.4316 75.8008 38.2871 75.7324 38.1582 75.6543V74.6465C38.2871 74.7363 38.4375 74.8164 38.6094 74.8867C38.7852 74.957 38.9688 75.0156 39.1602 75.0625C39.3516 75.1094 39.543 75.1465 39.7344 75.1738C39.9297 75.1973 40.1094 75.209 40.2734 75.209C40.582 75.209 40.8574 75.1738 41.0996 75.1035C41.3418 75.0293 41.5469 74.916 41.7148 74.7637C41.8828 74.6113 42.0117 74.4199 42.1016 74.1895C42.1914 73.959 42.2363 73.6855 42.2363 73.3691C42.2363 72.8105 42.0645 72.3848 41.7207 72.0918C41.377 71.7949 40.877 71.6465 40.2207 71.6465C40.1152 71.6465 40 71.6523 39.875 71.6641C39.7539 71.6719 39.6309 71.6836 39.5059 71.6992C39.3848 71.7148 39.2676 71.7324 39.1543 71.752C39.0449 71.7676 38.9492 71.7832 38.8672 71.7988L38.3398 71.4648L38.6621 67.4336H42.7051V68.4062H39.5879L39.3594 70.8613C39.4844 70.8379 39.6484 70.8125 39.8516 70.7852C40.0586 70.7578 40.3027 70.7441 40.584 70.7441Z" fill="#595959"/>
</g>
<g clip-path="url(#clip1_0_1)">
<path d="M33.6055 147.705C33.6055 148.396 33.5547 149.016 33.4531 149.562C33.3555 150.109 33.1953 150.572 32.9727 150.951C32.7539 151.33 32.4707 151.619 32.123 151.818C31.7754 152.018 31.3535 152.117 30.8574 152.117C30.3965 152.117 29.9941 152.018 29.6504 151.818C29.3105 151.619 29.0273 151.33 28.8008 150.951C28.5781 150.572 28.4102 150.109 28.2969 149.562C28.1875 149.016 28.1328 148.396 28.1328 147.705C28.1328 147.014 28.1816 146.395 28.2793 145.848C28.3809 145.301 28.5391 144.84 28.7539 144.465C28.9727 144.086 29.2539 143.797 29.5977 143.598C29.9453 143.398 30.3652 143.299 30.8574 143.299C31.3223 143.299 31.7266 143.398 32.0703 143.598C32.4141 143.793 32.6992 144.08 32.9258 144.459C33.1523 144.834 33.3223 145.295 33.4355 145.842C33.5488 146.389 33.6055 147.01 33.6055 147.705ZM29.2168 147.705C29.2168 148.291 29.2461 148.803 29.3047 149.24C29.3633 149.678 29.457 150.043 29.5859 150.336C29.7148 150.625 29.8828 150.844 30.0898 150.992C30.3008 151.137 30.5566 151.209 30.8574 151.209C31.1582 151.209 31.4141 151.137 31.625 150.992C31.8359 150.848 32.0078 150.631 32.1406 150.342C32.2773 150.053 32.375 149.689 32.4336 149.252C32.4961 148.811 32.5273 148.295 32.5273 147.705C32.5273 147.119 32.4961 146.607 32.4336 146.17C32.375 145.732 32.2773 145.369 32.1406 145.08C32.0078 144.791 31.8359 144.574 31.625 144.43C31.4141 144.285 31.1582 144.213 30.8574 144.213C30.5566 144.213 30.3008 144.285 30.0898 144.43C29.8828 144.574 29.7148 144.791 29.5859 145.08C29.457 145.369 29.3633 145.732 29.3047 146.17C29.2461 146.607 29.2168 147.119 29.2168 147.705ZM35.0293 151.35C35.0293 151.201 35.0488 151.076 35.0879 150.975C35.127 150.869 35.1797 150.785 35.2461 150.723C35.3125 150.656 35.3906 150.609 35.4805 150.582C35.5703 150.551 35.668 150.535 35.7734 150.535C35.875 150.535 35.9707 150.551 36.0605 150.582C36.1543 150.609 36.2344 150.656 36.3008 150.723C36.3672 150.785 36.4199 150.869 36.459 150.975C36.498 151.076 36.5176 151.201 36.5176 151.35C36.5176 151.494 36.498 151.619 36.459 151.725C36.4199 151.826 36.3672 151.91 36.3008 151.977C36.2344 152.043 36.1543 152.092 36.0605 152.123C35.9707 152.154 35.875 152.17 35.7734 152.17C35.668 152.17 35.5703 152.154 35.4805 152.123C35.3906 152.092 35.3125 152.043 35.2461 151.977C35.1797 151.91 35.127 151.826 35.0879 151.725C35.0488 151.619 35.0293 151.494 35.0293 151.35ZM40.584 146.744C40.9707 146.744 41.3301 146.799 41.6621 146.908C41.998 147.014 42.2891 147.172 42.5352 147.383C42.7852 147.594 42.9805 147.855 43.1211 148.168C43.2617 148.48 43.332 148.842 43.332 149.252C43.332 149.697 43.2656 150.098 43.1328 150.453C43 150.809 42.8027 151.109 42.541 151.355C42.2793 151.602 41.9551 151.791 41.5684 151.924C41.1855 152.053 40.7441 152.117 40.2441 152.117C40.0449 152.117 39.8477 152.107 39.6523 152.088C39.4609 152.068 39.2754 152.039 39.0957 152C38.9199 151.965 38.752 151.918 38.5918 151.859C38.4316 151.801 38.2871 151.732 38.1582 151.654V150.646C38.2871 150.736 38.4375 150.816 38.6094 150.887C38.7852 150.957 38.9688 151.016 39.1602 151.062C39.3516 151.109 39.543 151.146 39.7344 151.174C39.9297 151.197 40.1094 151.209 40.2734 151.209C40.582 151.209 40.8574 151.174 41.0996 151.104C41.3418 151.029 41.5469 150.916 41.7148 150.764C41.8828 150.611 42.0117 150.42 42.1016 150.189C42.1914 149.959 42.2363 149.686 42.2363 149.369C42.2363 148.811 42.0645 148.385 41.7207 148.092C41.377 147.795 40.877 147.646 40.2207 147.646C40.1152 147.646 40 147.652 39.875 147.664C39.7539 147.672 39.6309 147.684 39.5059 147.699C39.3848 147.715 39.2676 147.732 39.1543 147.752C39.0449 147.768 38.9492 147.783 38.8672 147.799L38.3398 147.465L38.6621 143.434H42.7051V144.406H39.5879L39.3594 146.861C39.4844 146.838 39.6484 146.812 39.8516 146.785C40.0586 146.758 40.3027 146.744 40.584 146.744Z" fill="#595959"/>
</g>
<g clip-path="url(#clip2_0_1)">
<path d="M26.9961 109.705C26.9961 110.396 26.9453 111.016 26.8438 111.562C26.7461 112.109 26.5859 112.572 26.3633 112.951C26.1445 113.33 25.8613 113.619 25.5137 113.818C25.166 114.018 24.7441 114.117 24.248 114.117C23.7871 114.117 23.3848 114.018 23.041 113.818C22.7012 113.619 22.418 113.33 22.1914 112.951C21.9688 112.572 21.8008 112.109 21.6875 111.562C21.5781 111.016 21.5234 110.396 21.5234 109.705C21.5234 109.014 21.5723 108.395 21.6699 107.848C21.7715 107.301 21.9297 106.84 22.1445 106.465C22.3633 106.086 22.6445 105.797 22.9883 105.598C23.3359 105.398 23.7559 105.299 24.248 105.299C24.7129 105.299 25.1172 105.398 25.4609 105.598C25.8047 105.793 26.0898 106.08 26.3164 106.459C26.543 106.834 26.7129 107.295 26.8262 107.842C26.9395 108.389 26.9961 109.01 26.9961 109.705ZM22.6074 109.705C22.6074 110.291 22.6367 110.803 22.6953 111.24C22.7539 111.678 22.8477 112.043 22.9766 112.336C23.1055 112.625 23.2734 112.844 23.4805 112.992C23.6914 113.137 23.9473 113.209 24.248 113.209C24.5488 113.209 24.8047 113.137 25.0156 112.992C25.2266 112.848 25.3984 112.631 25.5312 112.342C25.668 112.053 25.7656 111.689 25.8242 111.252C25.8867 110.811 25.918 110.295 25.918 109.705C25.918 109.119 25.8867 108.607 25.8242 108.17C25.7656 107.732 25.668 107.369 25.5312 107.08C25.3984 106.791 25.2266 106.574 25.0156 106.43C24.8047 106.285 24.5488 106.213 24.248 106.213C23.9473 106.213 23.6914 106.285 23.4805 106.43C23.2734 106.574 23.1055 106.791 22.9766 107.08C22.8477 107.369 22.7539 107.732 22.6953 108.17C22.6367 108.607 22.6074 109.119 22.6074 109.705ZM28.4199 113.35C28.4199 113.201 28.4395 113.076 28.4785 112.975C28.5176 112.869 28.5703 112.785 28.6367 112.723C28.7031 112.656 28.7812 112.609 28.8711 112.582C28.9609 112.551 29.0586 112.535 29.1641 112.535C29.2656 112.535 29.3613 112.551 29.4512 112.582C29.5449 112.609 29.625 112.656 29.6914 112.723C29.7578 112.785 29.8105 112.869 29.8496 112.975C29.8887 113.076 29.9082 113.201 29.9082 113.35C29.9082 113.494 29.8887 113.619 29.8496 113.725C29.8105 113.826 29.7578 113.91 29.6914 113.977C29.625 114.043 29.5449 114.092 29.4512 114.123C29.3613 114.154 29.2656 114.17 29.1641 114.17C29.0586 114.17 28.9609 114.154 28.8711 114.123C28.7812 114.092 28.7031 114.043 28.6367 113.977C28.5703 113.91 28.5176 113.826 28.4785 113.725C28.4395 113.619 28.4199 113.494 28.4199 113.35ZM34.9473 114H33.916V108.65C33.916 108.482 33.916 108.303 33.916 108.111C33.9199 107.92 33.9238 107.73 33.9277 107.543C33.9355 107.352 33.9414 107.17 33.9453 106.998C33.9531 106.822 33.959 106.668 33.9629 106.535C33.8965 106.605 33.8379 106.666 33.7871 106.717C33.7363 106.768 33.6836 106.816 33.6289 106.863C33.5781 106.91 33.5234 106.961 33.4648 107.016C33.4062 107.066 33.3359 107.127 33.2539 107.197L32.3867 107.906L31.8242 107.186L34.0684 105.434H34.9473V114ZM43.4375 109.705C43.4375 110.396 43.3867 111.016 43.2852 111.562C43.1875 112.109 43.0273 112.572 42.8047 112.951C42.5859 113.33 42.3027 113.619 41.9551 113.818C41.6074 114.018 41.1855 114.117 40.6895 114.117C40.2285 114.117 39.8262 114.018 39.4824 113.818C39.1426 113.619 38.8594 113.33 38.6328 112.951C38.4102 112.572 38.2422 112.109 38.1289 111.562C38.0195 111.016 37.9648 110.396 37.9648 109.705C37.9648 109.014 38.0137 108.395 38.1113 107.848C38.2129 107.301 38.3711 106.84 38.5859 106.465C38.8047 106.086 39.0859 105.797 39.4297 105.598C39.7773 105.398 40.1973 105.299 40.6895 105.299C41.1543 105.299 41.5586 105.398 41.9023 105.598C42.2461 105.793 42.5312 106.08 42.7578 106.459C42.9844 106.834 43.1543 107.295 43.2676 107.842C43.3809 108.389 43.4375 109.01 43.4375 109.705ZM39.0488 109.705C39.0488 110.291 39.0781 110.803 39.1367 111.24C39.1953 111.678 39.2891 112.043 39.418 112.336C39.5469 112.625 39.7148 112.844 39.9219 112.992C40.1328 113.137 40.3887 113.209 40.6895 113.209C40.9902 113.209 41.2461 113.137 41.457 112.992C41.668 112.848 41.8398 112.631 41.9727 112.342C42.1094 112.053 42.207 111.689 42.2656 111.252C42.3281 110.811 42.3594 110.295 42.3594 109.705C42.3594 109.119 42.3281 108.607 42.2656 108.17C42.207 107.732 42.1094 107.369 41.9727 107.08C41.8398 106.791 41.668 106.574 41.457 106.43C41.2461 106.285 40.9902 106.213 40.6895 106.213C40.3887 106.213 40.1328 106.285 39.9219 106.43C39.7148 106.574 39.5469 106.791 39.418 107.08C39.2891 107.369 39.1953 107.732 39.1367 108.17C39.0781 108.607 39.0488 109.119 39.0488 109.705Z" fill="#595959"/>
</g>
<g clip-path="url(#clip3_0_1)">
<path d="M43.4375 185.705C43.4375 186.396 43.3867 187.016 43.2852 187.562C43.1875 188.109 43.0273 188.572 42.8047 188.951C42.5859 189.33 42.3027 189.619 41.9551 189.818C41.6074 190.018 41.1855 190.117 40.6895 190.117C40.2285 190.117 39.8262 190.018 39.4824 189.818C39.1426 189.619 38.8594 189.33 38.6328 188.951C38.4102 188.572 38.2422 188.109 38.1289 187.562C38.0195 187.016 37.9648 186.396 37.9648 185.705C37.9648 185.014 38.0137 184.395 38.1113 183.848C38.2129 183.301 38.3711 182.84 38.5859 182.465C38.8047 182.086 39.0859 181.797 39.4297 181.598C39.7773 181.398 40.1973 181.299 40.6895 181.299C41.1543 181.299 41.5586 181.398 41.9023 181.598C42.2461 181.793 42.5312 182.08 42.7578 182.459C42.9844 182.834 43.1543 183.295 43.2676 183.842C43.3809 184.389 43.4375 185.01 43.4375 185.705ZM39.0488 185.705C39.0488 186.291 39.0781 186.803 39.1367 187.24C39.1953 187.678 39.2891 188.043 39.418 188.336C39.5469 188.625 39.7148 188.844 39.9219 188.992C40.1328 189.137 40.3887 189.209 40.6895 189.209C40.9902 189.209 41.2461 189.137 41.457 188.992C41.668 188.848 41.8398 188.631 41.9727 188.342C42.1094 188.053 42.207 187.689 42.2656 187.252C42.3281 186.811 42.3594 186.295 42.3594 185.705C42.3594 185.119 42.3281 184.607 42.2656 184.17C42.207 183.732 42.1094 183.369 41.9727 183.08C41.8398 182.791 41.668 182.574 41.457 182.43C41.2461 182.285 40.9902 182.213 40.6895 182.213C40.3887 182.213 40.1328 182.285 39.9219 182.43C39.7148 182.574 39.5469 182.791 39.418 183.08C39.2891 183.369 39.1953 183.732 39.1367 184.17C39.0781 184.607 39.0488 185.119 39.0488 185.705Z" fill="#595959"/>
</g>
<g clip-path="url(#clip4_0_1)">
<rect x="51" y="71" width="354" height="1" fill="#EBEFEE"/>
<rect x="51" y="109" width="354" height="1" fill="#EBEFEE"/>
<rect x="51" y="147" width="354" height="1" fill="#EBEFEE"/>
<rect x="51" y="185" width="354" height="1" fill="#CED7D4"/>
<rect x="151" y="70" width="1" height="124" fill="#EBEFEE"/>
<rect x="252" y="70" width="1" height="124" fill="#EBEFEE"/>
<rect x="353" y="70" width="1" height="124" fill="#EBEFEE"/>
</g>
<path d="M135.824 216.279C135.457 216.279 135.16 216.227 134.934 216.121V215.213C135.211 215.291 135.5 215.33 135.801 215.33C136.191 215.33 136.484 215.211 136.68 214.973C136.875 214.738 136.973 214.398 136.973 213.953V205.434H138.057V213.865C138.057 214.639 137.863 215.234 137.477 215.652C137.094 216.07 136.543 216.279 135.824 216.279ZM141.168 207.566V211.709C141.168 212.229 141.283 212.615 141.514 212.869C141.748 213.119 142.109 213.244 142.598 213.244C143.258 213.244 143.738 213.061 144.039 212.693C144.34 212.326 144.49 211.734 144.49 210.918V207.566H145.551V214H144.684L144.531 213.15H144.479C144.287 213.459 144.016 213.697 143.664 213.865C143.312 214.033 142.904 214.117 142.439 214.117C141.666 214.117 141.082 213.932 140.688 213.561C140.297 213.189 140.102 212.596 140.102 211.779V207.566H141.168ZM148.645 214H147.59V204.883H148.645V214ZM158.688 214H153.344V213.086L155.395 210.854C155.688 210.537 155.949 210.248 156.18 209.986C156.41 209.725 156.605 209.469 156.766 209.219C156.93 208.969 157.055 208.719 157.141 208.469C157.227 208.215 157.27 207.939 157.27 207.643C157.27 207.412 157.236 207.209 157.17 207.033C157.104 206.857 157.008 206.709 156.883 206.588C156.762 206.463 156.617 206.369 156.449 206.307C156.281 206.244 156.094 206.213 155.887 206.213C155.516 206.213 155.18 206.289 154.879 206.441C154.582 206.59 154.299 206.781 154.029 207.016L153.432 206.318C153.588 206.178 153.756 206.047 153.936 205.926C154.115 205.801 154.309 205.693 154.516 205.604C154.723 205.514 154.941 205.443 155.172 205.393C155.402 205.338 155.645 205.311 155.898 205.311C156.273 205.311 156.611 205.363 156.912 205.469C157.217 205.574 157.475 205.727 157.686 205.926C157.896 206.121 158.059 206.361 158.172 206.646C158.289 206.928 158.348 207.246 158.348 207.602C158.348 207.934 158.295 208.25 158.189 208.551C158.088 208.852 157.945 209.148 157.762 209.441C157.582 209.73 157.365 210.021 157.111 210.314C156.861 210.607 156.59 210.912 156.297 211.229L154.65 212.98V213.027H158.688V214ZM162.701 205.299C163.029 205.299 163.338 205.342 163.627 205.428C163.92 205.514 164.176 205.643 164.395 205.814C164.617 205.986 164.793 206.201 164.922 206.459C165.051 206.717 165.115 207.018 165.115 207.361C165.115 207.623 165.076 207.859 164.998 208.07C164.92 208.281 164.812 208.473 164.676 208.645C164.539 208.812 164.377 208.965 164.189 209.102C164.002 209.234 163.799 209.355 163.58 209.465C163.807 209.586 164.027 209.721 164.242 209.869C164.461 210.018 164.654 210.186 164.822 210.373C164.994 210.557 165.131 210.764 165.232 210.994C165.338 211.225 165.391 211.482 165.391 211.768C165.391 212.127 165.324 212.453 165.191 212.746C165.062 213.035 164.879 213.281 164.641 213.484C164.406 213.688 164.123 213.844 163.791 213.953C163.463 214.062 163.1 214.117 162.701 214.117C162.271 214.117 161.889 214.064 161.553 213.959C161.221 213.854 160.939 213.703 160.709 213.508C160.482 213.309 160.309 213.066 160.188 212.781C160.07 212.496 160.012 212.174 160.012 211.814C160.012 211.521 160.055 211.258 160.141 211.023C160.23 210.789 160.35 210.578 160.498 210.391C160.646 210.203 160.822 210.037 161.025 209.893C161.229 209.748 161.443 209.621 161.67 209.512C161.479 209.391 161.299 209.26 161.131 209.119C160.963 208.975 160.816 208.814 160.691 208.639C160.57 208.463 160.473 208.27 160.398 208.059C160.328 207.844 160.293 207.607 160.293 207.35C160.293 207.01 160.357 206.713 160.486 206.459C160.619 206.201 160.797 205.986 161.02 205.814C161.242 205.643 161.498 205.514 161.787 205.428C162.08 205.342 162.385 205.299 162.701 205.299ZM161.061 211.826C161.061 212.033 161.092 212.225 161.154 212.4C161.217 212.572 161.314 212.721 161.447 212.846C161.58 212.967 161.748 213.062 161.951 213.133C162.154 213.199 162.396 213.232 162.678 213.232C162.951 213.232 163.191 213.199 163.398 213.133C163.609 213.062 163.785 212.965 163.926 212.84C164.066 212.711 164.172 212.557 164.242 212.377C164.312 212.197 164.348 211.998 164.348 211.779C164.348 211.576 164.309 211.393 164.23 211.229C164.156 211.064 164.047 210.912 163.902 210.771C163.762 210.631 163.592 210.498 163.393 210.373C163.193 210.248 162.971 210.125 162.725 210.004L162.549 209.922C162.057 210.156 161.686 210.426 161.436 210.73C161.186 211.031 161.061 211.396 161.061 211.826ZM162.689 206.189C162.275 206.189 161.945 206.293 161.699 206.5C161.457 206.707 161.336 207.008 161.336 207.402C161.336 207.625 161.369 207.816 161.436 207.977C161.506 208.137 161.602 208.279 161.723 208.404C161.844 208.529 161.988 208.643 162.156 208.744C162.328 208.842 162.514 208.938 162.713 209.031C162.9 208.945 163.076 208.852 163.24 208.75C163.408 208.648 163.553 208.533 163.674 208.404C163.799 208.275 163.896 208.129 163.967 207.965C164.037 207.801 164.072 207.613 164.072 207.402C164.072 207.008 163.949 206.707 163.703 206.5C163.457 206.293 163.119 206.189 162.689 206.189Z" fill="#595959"/>
<path d="M237.389 216.279C237.021 216.279 236.725 216.227 236.498 216.121V215.213C236.775 215.291 237.064 215.33 237.365 215.33C237.756 215.33 238.049 215.211 238.244 214.973C238.439 214.738 238.537 214.398 238.537 213.953V205.434H239.621V213.865C239.621 214.639 239.428 215.234 239.041 215.652C238.658 216.07 238.107 216.279 237.389 216.279ZM242.732 207.566V211.709C242.732 212.229 242.848 212.615 243.078 212.869C243.312 213.119 243.674 213.244 244.162 213.244C244.822 213.244 245.303 213.061 245.604 212.693C245.904 212.326 246.055 211.734 246.055 210.918V207.566H247.115V214H246.248L246.096 213.15H246.043C245.852 213.459 245.58 213.697 245.229 213.865C244.877 214.033 244.469 214.117 244.004 214.117C243.23 214.117 242.646 213.932 242.252 213.561C241.861 213.189 241.666 212.596 241.666 211.779V207.566H242.732ZM250.209 214H249.154V204.883H250.209V214ZM260.252 214H254.908V213.086L256.959 210.854C257.252 210.537 257.514 210.248 257.744 209.986C257.975 209.725 258.17 209.469 258.33 209.219C258.494 208.969 258.619 208.719 258.705 208.469C258.791 208.215 258.834 207.939 258.834 207.643C258.834 207.412 258.801 207.209 258.734 207.033C258.668 206.857 258.572 206.709 258.447 206.588C258.326 206.463 258.182 206.369 258.014 206.307C257.846 206.244 257.658 206.213 257.451 206.213C257.08 206.213 256.744 206.289 256.443 206.441C256.146 206.59 255.863 206.781 255.594 207.016L254.996 206.318C255.152 206.178 255.32 206.047 255.5 205.926C255.68 205.801 255.873 205.693 256.08 205.604C256.287 205.514 256.506 205.443 256.736 205.393C256.967 205.338 257.209 205.311 257.463 205.311C257.838 205.311 258.176 205.363 258.477 205.469C258.781 205.574 259.039 205.727 259.25 205.926C259.461 206.121 259.623 206.361 259.736 206.646C259.854 206.928 259.912 207.246 259.912 207.602C259.912 207.934 259.859 208.25 259.754 208.551C259.652 208.852 259.51 209.148 259.326 209.441C259.146 209.73 258.93 210.021 258.676 210.314C258.426 210.607 258.154 210.912 257.861 211.229L256.215 212.98V213.027H260.252V214ZM266.979 209.09C266.979 209.5 266.957 209.91 266.914 210.32C266.875 210.727 266.803 211.115 266.697 211.486C266.596 211.857 266.455 212.205 266.275 212.529C266.096 212.85 265.867 213.127 265.59 213.361C265.312 213.596 264.98 213.781 264.594 213.918C264.207 214.051 263.754 214.117 263.234 214.117C263.16 214.117 263.078 214.115 262.988 214.111C262.898 214.107 262.809 214.1 262.719 214.088C262.629 214.08 262.541 214.07 262.455 214.059C262.369 214.047 262.293 214.031 262.227 214.012V213.098C262.363 213.148 262.518 213.186 262.689 213.209C262.861 213.232 263.031 213.244 263.199 213.244C263.727 213.244 264.16 213.152 264.5 212.969C264.84 212.785 265.109 212.537 265.309 212.225C265.508 211.908 265.648 211.541 265.73 211.123C265.816 210.705 265.869 210.264 265.889 209.799H265.812C265.734 209.939 265.641 210.07 265.531 210.191C265.422 210.312 265.293 210.418 265.145 210.508C264.996 210.598 264.828 210.668 264.641 210.719C264.453 210.77 264.244 210.795 264.014 210.795C263.643 210.795 263.307 210.738 263.006 210.625C262.705 210.508 262.449 210.338 262.238 210.115C262.027 209.893 261.863 209.621 261.746 209.301C261.633 208.977 261.576 208.607 261.576 208.193C261.576 207.748 261.637 207.348 261.758 206.992C261.883 206.633 262.057 206.33 262.279 206.084C262.506 205.834 262.779 205.643 263.1 205.51C263.424 205.377 263.785 205.311 264.184 205.311C264.578 205.311 264.945 205.387 265.285 205.539C265.625 205.691 265.92 205.924 266.17 206.236C266.42 206.549 266.617 206.943 266.762 207.42C266.906 207.893 266.979 208.449 266.979 209.09ZM264.195 206.213C263.961 206.213 263.746 206.252 263.551 206.33C263.359 206.408 263.193 206.529 263.053 206.693C262.912 206.857 262.803 207.064 262.725 207.314C262.65 207.561 262.613 207.854 262.613 208.193C262.613 208.467 262.645 208.713 262.707 208.932C262.773 209.146 262.871 209.33 263 209.482C263.129 209.635 263.289 209.752 263.48 209.834C263.676 209.916 263.902 209.957 264.16 209.957C264.426 209.957 264.666 209.912 264.881 209.822C265.096 209.729 265.279 209.609 265.432 209.465C265.584 209.316 265.701 209.148 265.783 208.961C265.869 208.773 265.912 208.586 265.912 208.398C265.912 208.137 265.875 207.877 265.801 207.619C265.73 207.357 265.623 207.123 265.479 206.916C265.338 206.705 265.16 206.535 264.945 206.406C264.73 206.277 264.48 206.213 264.195 206.213Z" fill="#595959"/>
<path d="M339.389 216.279C339.021 216.279 338.725 216.227 338.498 216.121V215.213C338.775 215.291 339.064 215.33 339.365 215.33C339.756 215.33 340.049 215.211 340.244 214.973C340.439 214.738 340.537 214.398 340.537 213.953V205.434H341.621V213.865C341.621 214.639 341.428 215.234 341.041 215.652C340.658 216.07 340.107 216.279 339.389 216.279ZM344.732 207.566V211.709C344.732 212.229 344.848 212.615 345.078 212.869C345.312 213.119 345.674 213.244 346.162 213.244C346.822 213.244 347.303 213.061 347.604 212.693C347.904 212.326 348.055 211.734 348.055 210.918V207.566H349.115V214H348.248L348.096 213.15H348.043C347.852 213.459 347.58 213.697 347.229 213.865C346.877 214.033 346.469 214.117 346.004 214.117C345.23 214.117 344.646 213.932 344.252 213.561C343.861 213.189 343.666 212.596 343.666 211.779V207.566H344.732ZM352.209 214H351.154V204.883H352.209V214ZM361.977 207.438C361.977 207.723 361.932 207.982 361.842 208.217C361.752 208.451 361.625 208.654 361.461 208.826C361.301 208.998 361.107 209.141 360.881 209.254C360.654 209.363 360.402 209.441 360.125 209.488V209.523C360.816 209.609 361.342 209.83 361.701 210.186C362.061 210.537 362.24 210.996 362.24 211.562C362.24 211.938 362.176 212.281 362.047 212.594C361.922 212.906 361.73 213.176 361.473 213.402C361.215 213.629 360.889 213.805 360.494 213.93C360.1 214.055 359.633 214.117 359.094 214.117C358.668 214.117 358.266 214.084 357.887 214.018C357.512 213.951 357.158 213.83 356.826 213.654V212.658C357.166 212.838 357.533 212.977 357.928 213.074C358.326 213.172 358.707 213.221 359.07 213.221C359.43 213.221 359.74 213.182 360.002 213.104C360.264 213.025 360.479 212.914 360.646 212.77C360.818 212.625 360.943 212.447 361.021 212.236C361.104 212.025 361.145 211.789 361.145 211.527C361.145 211.262 361.092 211.035 360.986 210.848C360.885 210.656 360.738 210.5 360.547 210.379C360.355 210.254 360.121 210.162 359.844 210.104C359.57 210.045 359.26 210.016 358.912 210.016H358.133V209.131H358.912C359.229 209.131 359.51 209.092 359.756 209.014C360.002 208.936 360.207 208.824 360.371 208.68C360.539 208.535 360.666 208.363 360.752 208.164C360.838 207.965 360.881 207.746 360.881 207.508C360.881 207.305 360.846 207.123 360.775 206.963C360.705 206.803 360.605 206.668 360.477 206.559C360.348 206.445 360.193 206.359 360.014 206.301C359.834 206.242 359.635 206.213 359.416 206.213C358.998 206.213 358.629 206.279 358.309 206.412C357.992 206.541 357.689 206.711 357.4 206.922L356.861 206.189C357.01 206.068 357.174 205.955 357.354 205.85C357.537 205.744 357.736 205.652 357.951 205.574C358.166 205.492 358.395 205.428 358.637 205.381C358.883 205.334 359.143 205.311 359.416 205.311C359.838 205.311 360.207 205.363 360.523 205.469C360.844 205.574 361.111 205.723 361.326 205.914C361.541 206.102 361.703 206.326 361.812 206.588C361.922 206.846 361.977 207.129 361.977 207.438ZM369.002 209.705C369.002 210.396 368.951 211.016 368.85 211.562C368.752 212.109 368.592 212.572 368.369 212.951C368.15 213.33 367.867 213.619 367.52 213.818C367.172 214.018 366.75 214.117 366.254 214.117C365.793 214.117 365.391 214.018 365.047 213.818C364.707 213.619 364.424 213.33 364.197 212.951C363.975 212.572 363.807 212.109 363.693 211.562C363.584 211.016 363.529 210.396 363.529 209.705C363.529 209.014 363.578 208.395 363.676 207.848C363.777 207.301 363.936 206.84 364.15 206.465C364.369 206.086 364.65 205.797 364.994 205.598C365.342 205.398 365.762 205.299 366.254 205.299C366.719 205.299 367.123 205.398 367.467 205.598C367.811 205.793 368.096 206.08 368.322 206.459C368.549 206.834 368.719 207.295 368.832 207.842C368.945 208.389 369.002 209.01 369.002 209.705ZM364.613 209.705C364.613 210.291 364.643 210.803 364.701 211.24C364.76 211.678 364.854 212.043 364.982 212.336C365.111 212.625 365.279 212.844 365.486 212.992C365.697 213.137 365.953 213.209 366.254 213.209C366.555 213.209 366.811 213.137 367.021 212.992C367.232 212.848 367.404 212.631 367.537 212.342C367.674 212.053 367.771 211.689 367.83 211.252C367.893 210.811 367.924 210.295 367.924 209.705C367.924 209.119 367.893 208.607 367.83 208.17C367.771 207.732 367.674 207.369 367.537 207.08C367.404 206.791 367.232 206.574 367.021 206.43C366.811 206.285 366.555 206.213 366.254 206.213C365.953 206.213 365.697 206.285 365.486 206.43C365.279 206.574 365.111 206.791 364.982 207.08C364.854 207.369 364.76 207.732 364.701 208.17C364.643 208.607 364.613 209.119 364.613 209.705Z" fill="#595959"/>
<path d="M54 147.5L95.6562 105.907C98.2511 103.316 102.275 102.821 105.421 104.706L143.568 127.566C145.612 128.791 148.096 129.041 150.344 128.247L191.842 113.593C192.948 113.202 193.954 112.573 194.79 111.75L233.74 73.4053C237.186 70.0127 242.831 70.4295 245.741 74.2913L285.911 127.592C286.61 128.52 287.502 129.284 288.526 129.831L327.852 150.873C331.242 152.687 335.443 151.832 337.856 148.838L380.422 96" stroke="#666EB4" stroke-width="2" stroke-linecap="round"/>
<path d="M194.285 241.709C194.285 242.455 194.016 243.043 193.477 243.473C192.938 243.902 192.188 244.117 191.227 244.117C190.211 244.117 189.426 243.982 188.871 243.713V242.682C189.234 242.838 189.631 242.961 190.061 243.051C190.494 243.141 190.898 243.186 191.273 243.186C191.914 243.186 192.396 243.062 192.721 242.816C193.045 242.57 193.207 242.232 193.207 241.803C193.207 241.518 193.148 241.283 193.031 241.1C192.914 240.916 192.717 240.744 192.439 240.584C192.166 240.424 191.75 240.242 191.191 240.039C190.398 239.75 189.832 239.41 189.492 239.02C189.152 238.625 188.982 238.117 188.982 237.496C188.982 236.828 189.232 236.297 189.732 235.902C190.236 235.508 190.898 235.311 191.719 235.311C192.574 235.311 193.361 235.471 194.08 235.791L193.746 236.717C193.012 236.412 192.328 236.26 191.695 236.26C191.188 236.26 190.789 236.369 190.5 236.588C190.215 236.807 190.072 237.113 190.072 237.508C190.072 237.789 190.127 238.023 190.236 238.211C190.35 238.395 190.529 238.562 190.775 238.715C191.025 238.867 191.416 239.041 191.947 239.236C192.584 239.471 193.059 239.699 193.371 239.922C193.684 240.141 193.914 240.395 194.062 240.684C194.211 240.969 194.285 241.311 194.285 241.709ZM198.018 243.256C198.154 243.256 198.314 243.242 198.498 243.215C198.682 243.188 198.82 243.156 198.914 243.121V243.93C198.816 243.973 198.664 244.014 198.457 244.053C198.254 244.096 198.047 244.117 197.836 244.117C196.578 244.117 195.949 243.455 195.949 242.131V238.387H195.041V237.883L195.961 237.461L196.383 236.09H197.01V237.566H198.867V238.387H197.01V242.102C197.01 242.473 197.098 242.758 197.273 242.957C197.453 243.156 197.701 243.256 198.018 243.256ZM204.176 244L203.971 243.086H203.924C203.604 243.488 203.283 243.762 202.963 243.906C202.646 244.047 202.246 244.117 201.762 244.117C201.129 244.117 200.633 243.951 200.273 243.619C199.914 243.287 199.734 242.818 199.734 242.213C199.734 240.908 200.764 240.225 202.822 240.162L203.912 240.121V239.74C203.912 239.252 203.807 238.893 203.596 238.662C203.385 238.428 203.047 238.311 202.582 238.311C202.242 238.311 201.92 238.361 201.615 238.463C201.314 238.564 201.031 238.678 200.766 238.803L200.443 238.012C200.768 237.84 201.121 237.705 201.504 237.607C201.887 237.51 202.266 237.461 202.641 237.461C203.418 237.461 203.996 237.633 204.375 237.977C204.754 238.32 204.943 238.867 204.943 239.617V244H204.176ZM202.002 243.268C202.592 243.268 203.055 243.109 203.391 242.793C203.73 242.473 203.9 242.02 203.9 241.434V240.854L202.951 240.895C202.213 240.922 201.674 241.039 201.334 241.246C200.998 241.453 200.83 241.779 200.83 242.225C200.83 242.561 200.932 242.818 201.135 242.998C201.342 243.178 201.631 243.268 202.002 243.268ZM209.391 243.256C210.039 243.256 210.51 243.082 210.803 242.734C211.1 242.383 211.248 241.82 211.248 241.047V240.795C211.248 239.936 211.1 239.311 210.803 238.92C210.506 238.529 210.027 238.334 209.367 238.334C208.828 238.334 208.41 238.549 208.113 238.979C207.82 239.404 207.674 240.014 207.674 240.807C207.674 241.604 207.816 242.211 208.102 242.629C208.391 243.047 208.82 243.256 209.391 243.256ZM211.236 243.941L211.271 243.15H211.225C210.791 243.795 210.127 244.117 209.232 244.117C208.4 244.117 207.75 243.828 207.281 243.25C206.816 242.668 206.584 241.85 206.584 240.795C206.584 239.76 206.818 238.943 207.287 238.346C207.76 237.748 208.404 237.449 209.221 237.449C210.092 237.449 210.764 237.773 211.236 238.422H211.301L211.441 237.566H212.279V244.105C212.279 245.027 212.045 245.721 211.576 246.186C211.111 246.65 210.387 246.883 209.402 246.883C208.465 246.883 207.693 246.746 207.088 246.473V245.5C207.713 245.836 208.504 246.004 209.461 246.004C210.008 246.004 210.439 245.844 210.756 245.523C211.076 245.203 211.236 244.76 211.236 244.193V243.941ZM217.061 244.117C216.096 244.117 215.338 243.826 214.787 243.244C214.24 242.658 213.967 241.854 213.967 240.83C213.967 239.799 214.223 238.979 214.734 238.369C215.246 237.756 215.938 237.449 216.809 237.449C217.617 237.449 218.262 237.711 218.742 238.234C219.223 238.754 219.463 239.459 219.463 240.35V240.988H215.057C215.076 241.719 215.262 242.273 215.613 242.652C215.965 243.031 216.463 243.221 217.107 243.221C217.451 243.221 217.777 243.191 218.086 243.133C218.395 243.07 218.756 242.951 219.17 242.775V243.701C218.814 243.854 218.48 243.961 218.168 244.023C217.855 244.086 217.486 244.117 217.061 244.117ZM216.797 238.311C216.293 238.311 215.895 238.473 215.602 238.797C215.309 239.121 215.135 239.572 215.08 240.15H218.355C218.348 239.549 218.209 239.092 217.939 238.779C217.67 238.467 217.289 238.311 216.797 238.311ZM223.781 240.93V239.945H226.688V240.93H223.781ZM234.557 244H233.525V238.65C233.525 238.482 233.525 238.303 233.525 238.111C233.529 237.92 233.533 237.73 233.537 237.543C233.545 237.352 233.551 237.17 233.555 236.998C233.562 236.822 233.568 236.668 233.572 236.535C233.506 236.605 233.447 236.666 233.396 236.717C233.346 236.768 233.293 236.816 233.238 236.863C233.188 236.91 233.133 236.961 233.074 237.016C233.016 237.066 232.945 237.127 232.863 237.197L231.996 237.906L231.434 237.186L233.678 235.434H234.557V244Z" fill="#595959"/>
<path d="M26.6504 31.9531C26.6504 32.8281 26.3516 33.5 25.7539 33.9688C25.1562 34.4336 24.3145 34.666 23.2285 34.666H22.2441V38H21.166V29.4336H23.4336C25.5781 29.4336 26.6504 30.2734 26.6504 31.9531ZM22.2441 33.7402H23.1055C23.957 33.7402 24.5742 33.6035 24.957 33.3301C25.3398 33.0527 25.5312 32.6094 25.5312 32C25.5312 31.4492 25.3535 31.0371 24.998 30.7637C24.6426 30.4902 24.0879 30.3535 23.334 30.3535H22.2441V33.7402ZM33.875 34.7715C33.875 35.8223 33.6094 36.6426 33.0781 37.2324C32.5469 37.8223 31.8125 38.1172 30.875 38.1172C30.293 38.1172 29.7773 37.9824 29.3281 37.7129C28.8789 37.4395 28.5332 37.0488 28.291 36.541C28.0488 36.0332 27.9277 35.4434 27.9277 34.7715C27.9277 33.7246 28.1895 32.9102 28.7129 32.3281C29.2363 31.7422 29.9707 31.4492 30.916 31.4492C31.8223 31.4492 32.541 31.748 33.0723 32.3457C33.6074 32.9395 33.875 33.748 33.875 34.7715ZM29.0176 34.7715C29.0176 35.5801 29.1758 36.1953 29.4922 36.6172C29.8125 37.0352 30.2832 37.2441 30.9043 37.2441C31.5176 37.2441 31.9844 37.0352 32.3047 36.6172C32.625 36.1953 32.7852 35.5801 32.7852 34.7715C32.7852 33.9629 32.623 33.3555 32.2988 32.9492C31.9785 32.5391 31.5078 32.334 30.8867 32.334C29.6406 32.334 29.0176 33.1465 29.0176 34.7715ZM36.6055 38H35.5508V28.8828H36.6055V38ZM37.6367 31.5664H38.7676L40.1562 35.2285C40.4492 36.0254 40.6289 36.6094 40.6953 36.9805H40.7422C40.7773 36.8359 40.8574 36.5664 40.9824 36.1719C41.1074 35.7734 41.2129 35.4551 41.2988 35.2168L42.6055 31.5664H43.7422L40.9707 38.8906C40.7012 39.6016 40.3809 40.1113 40.0098 40.4199C39.6387 40.7285 39.1797 40.8828 38.6328 40.8828C38.3398 40.8828 38.0488 40.8496 37.7598 40.7832V39.9453C37.9551 39.9922 38.1895 40.0156 38.4629 40.0156C38.7988 40.0156 39.084 39.9219 39.3184 39.7344C39.5527 39.5508 39.7441 39.2656 39.8926 38.8789L40.2266 38.0234L37.6367 31.5664ZM46.9121 37.2559C47.0488 37.2559 47.209 37.2422 47.3926 37.2148C47.5762 37.1875 47.7148 37.1562 47.8086 37.1211V37.9297C47.7109 37.9727 47.5586 38.0137 47.3516 38.0527C47.1484 38.0957 46.9414 38.1172 46.7305 38.1172C45.4727 38.1172 44.8438 37.4551 44.8438 36.1309V32.3867H43.9355V31.8828L44.8555 31.4609L45.2773 30.0898H45.9043V31.5664H47.7617V32.3867H45.9043V36.1016C45.9043 36.4727 45.9922 36.7578 46.168 36.957C46.3477 37.1562 46.5957 37.2559 46.9121 37.2559ZM52.0977 31.4492C52.3828 31.4492 52.6348 31.4727 52.8535 31.5195L52.7246 32.4922C52.4863 32.4375 52.2539 32.4102 52.0273 32.4102C51.6875 32.4102 51.3711 32.5039 51.0781 32.6914C50.7891 32.8789 50.5625 33.1387 50.3984 33.4707C50.2344 33.7988 50.1523 34.1641 50.1523 34.5664V38H49.0977V31.5664H49.9648L50.082 32.7441H50.1289C50.375 32.3184 50.666 31.9961 51.002 31.7773C51.3379 31.5586 51.7031 31.4492 52.0977 31.4492ZM59.5273 34.7715C59.5273 35.8223 59.2617 36.6426 58.7305 37.2324C58.1992 37.8223 57.4648 38.1172 56.5273 38.1172C55.9453 38.1172 55.4297 37.9824 54.9805 37.7129C54.5312 37.4395 54.1855 37.0488 53.9434 36.541C53.7012 36.0332 53.5801 35.4434 53.5801 34.7715C53.5801 33.7246 53.8418 32.9102 54.3652 32.3281C54.8887 31.7422 55.623 31.4492 56.5684 31.4492C57.4746 31.4492 58.1934 31.748 58.7246 32.3457C59.2598 32.9395 59.5273 33.748 59.5273 34.7715ZM54.6699 34.7715C54.6699 35.5801 54.8281 36.1953 55.1445 36.6172C55.4648 37.0352 55.9355 37.2441 56.5566 37.2441C57.1699 37.2441 57.6367 37.0352 57.957 36.6172C58.2773 36.1953 58.4375 35.5801 58.4375 34.7715C58.4375 33.9629 58.2754 33.3555 57.9512 32.9492C57.6309 32.5391 57.1602 32.334 56.5391 32.334C55.293 32.334 54.6699 33.1465 54.6699 34.7715ZM64.25 38.1172C63.3867 38.1172 62.7227 37.8066 62.2578 37.1855H62.1875L62.2109 37.4258C62.2422 37.7305 62.2578 38.002 62.2578 38.2402V40.8828H61.2031V31.5664H62.0703L62.2109 32.4453H62.2578C62.5078 32.0938 62.7969 31.8398 63.125 31.6836C63.4531 31.5273 63.832 31.4492 64.2617 31.4492C65.0977 31.4492 65.7461 31.7402 66.207 32.3223C66.6719 32.9004 66.9043 33.7168 66.9043 34.7715C66.9043 35.8223 66.6719 36.6426 66.207 37.2324C65.7422 37.8223 65.0898 38.1172 64.25 38.1172ZM64.0742 32.334C63.4375 32.334 62.9766 32.5137 62.6914 32.873C62.4102 33.2324 62.2656 33.7969 62.2578 34.5664V34.7715C62.2578 35.6426 62.4023 36.2734 62.6914 36.6641C62.9805 37.0508 63.4492 37.2441 64.0977 37.2441C64.6367 37.2441 65.0566 37.0254 65.3574 36.5879C65.6621 36.1504 65.8145 35.541 65.8145 34.7598C65.8145 33.9746 65.6621 33.375 65.3574 32.9609C65.0566 32.543 64.6289 32.334 64.0742 32.334ZM72.9688 38V33.8867C72.9688 33.3633 72.8516 32.9746 72.6172 32.7207C72.3867 32.4629 72.0234 32.334 71.5273 32.334C70.875 32.334 70.3965 32.5156 70.0918 32.8789C69.791 33.2422 69.6406 33.8418 69.6406 34.6777V38H68.5859V28.8828H69.6406V31.5547C69.6406 31.9062 69.6211 32.207 69.582 32.457H69.6523C69.8438 32.1445 70.1152 31.9004 70.4668 31.7246C70.8184 31.5488 71.2148 31.4609 71.6562 31.4609C72.4375 31.4609 73.0254 31.6484 73.4199 32.0234C73.8145 32.3945 74.0117 32.9902 74.0117 33.8105V38H72.9688ZM77.0586 38H76.0039V31.5664H77.0586V38ZM75.9219 29.8262C75.9219 29.5918 75.9805 29.4219 76.0977 29.3164C76.2188 29.2109 76.3672 29.1582 76.543 29.1582C76.707 29.1582 76.8496 29.2109 76.9707 29.3164C77.0957 29.4219 77.1582 29.5918 77.1582 29.8262C77.1582 30.0566 77.0957 30.2266 76.9707 30.3359C76.8496 30.4453 76.707 30.5 76.543 30.5C76.3672 30.5 76.2188 30.4453 76.0977 30.3359C75.9805 30.2266 75.9219 30.0566 75.9219 29.8262ZM81.6758 38.1172C80.75 38.1172 80.0293 37.834 79.5137 37.2676C78.998 36.6973 78.7402 35.8809 78.7402 34.8184C78.7402 33.7402 79 32.9102 79.5195 32.3281C80.043 31.7422 80.7871 31.4492 81.752 31.4492C82.0645 31.4492 82.373 31.4824 82.6777 31.5488C82.9863 31.6113 83.2402 31.6934 83.4395 31.7949L83.1172 32.6738C82.5742 32.4707 82.1113 32.3691 81.7285 32.3691C81.0801 32.3691 80.6016 32.5742 80.293 32.9844C79.9844 33.3906 79.8301 33.998 79.8301 34.8066C79.8301 35.584 79.9844 36.1797 80.293 36.5938C80.6016 37.0039 81.0586 37.209 81.6641 37.209C82.2305 37.209 82.7871 37.084 83.334 36.834V37.7715C82.8887 38.002 82.3359 38.1172 81.6758 38.1172ZM90.7168 38.1172C89.752 38.1172 88.9941 37.8262 88.4434 37.2441C87.8965 36.6582 87.623 35.8535 87.623 34.8301C87.623 33.7988 87.8789 32.9785 88.3906 32.3691C88.9023 31.7559 89.5938 31.4492 90.4648 31.4492C91.2734 31.4492 91.918 31.7109 92.3984 32.2344C92.8789 32.7539 93.1191 33.459 93.1191 34.3496V34.9883H88.7129C88.7324 35.7188 88.918 36.2734 89.2695 36.6523C89.6211 37.0312 90.1191 37.2207 90.7637 37.2207C91.1074 37.2207 91.4336 37.1914 91.7422 37.1328C92.0508 37.0703 92.4121 36.9512 92.8262 36.7754V37.7012C92.4707 37.8535 92.1367 37.9609 91.8242 38.0234C91.5117 38.0859 91.1426 38.1172 90.7168 38.1172ZM90.4531 32.3105C89.9492 32.3105 89.5508 32.4727 89.2578 32.7969C88.9648 33.1211 88.791 33.5723 88.7363 34.1504H92.0117C92.0039 33.5488 91.8652 33.0918 91.5957 32.7793C91.3262 32.4668 90.9453 32.3105 90.4531 32.3105ZM97.7188 32.3867H96.0957V38H95.041V32.3867H93.916V31.8945L95.041 31.5312V31.1621C95.041 30.3809 95.2109 29.7949 95.5508 29.4043C95.8945 29.0137 96.4219 28.8184 97.1328 28.8184C97.543 28.8184 97.959 28.8906 98.3809 29.0352L98.0996 29.8613C97.7363 29.7441 97.418 29.6855 97.1445 29.6855C96.7891 29.6855 96.5254 29.8027 96.3535 30.0371C96.1816 30.2715 96.0957 30.6426 96.0957 31.1504V31.5664H97.7188V32.3867ZM101.855 32.3867H100.232V38H99.1777V32.3867H98.0527V31.8945L99.1777 31.5312V31.1621C99.1777 30.3809 99.3477 29.7949 99.6875 29.4043C100.031 29.0137 100.559 28.8184 101.27 28.8184C101.68 28.8184 102.096 28.8906 102.518 29.0352L102.236 29.8613C101.873 29.7441 101.555 29.6855 101.281 29.6855C100.926 29.6855 100.662 29.8027 100.49 30.0371C100.318 30.2715 100.232 30.6426 100.232 31.1504V31.5664H101.855V32.3867ZM104.082 38H103.027V31.5664H104.082V38ZM102.945 29.8262C102.945 29.5918 103.004 29.4219 103.121 29.3164C103.242 29.2109 103.391 29.1582 103.566 29.1582C103.73 29.1582 103.873 29.2109 103.994 29.3164C104.119 29.4219 104.182 29.5918 104.182 29.8262C104.182 30.0566 104.119 30.2266 103.994 30.3359C103.873 30.4453 103.73 30.5 103.566 30.5C103.391 30.5 103.242 30.4453 103.121 30.3359C103.004 30.2266 102.945 30.0566 102.945 29.8262ZM108.699 38.1172C107.773 38.1172 107.053 37.834 106.537 37.2676C106.021 36.6973 105.764 35.8809 105.764 34.8184C105.764 33.7402 106.023 32.9102 106.543 32.3281C107.066 31.7422 107.811 31.4492 108.775 31.4492C109.088 31.4492 109.396 31.4824 109.701 31.5488C110.01 31.6113 110.264 31.6934 110.463 31.7949L110.141 32.6738C109.598 32.4707 109.135 32.3691 108.752 32.3691C108.104 32.3691 107.625 32.5742 107.316 32.9844C107.008 33.3906 106.854 33.998 106.854 34.8066C106.854 35.584 107.008 36.1797 107.316 36.5938C107.625 37.0039 108.082 37.209 108.688 37.209C109.254 37.209 109.811 37.084 110.357 36.834V37.7715C109.912 38.002 109.359 38.1172 108.699 38.1172ZM112.941 38H111.887V31.5664H112.941V38ZM111.805 29.8262C111.805 29.5918 111.863 29.4219 111.98 29.3164C112.102 29.2109 112.25 29.1582 112.426 29.1582C112.59 29.1582 112.732 29.2109 112.854 29.3164C112.979 29.4219 113.041 29.5918 113.041 29.8262C113.041 30.0566 112.979 30.2266 112.854 30.3359C112.732 30.4453 112.59 30.5 112.426 30.5C112.25 30.5 112.102 30.4453 111.98 30.3359C111.863 30.2266 111.805 30.0566 111.805 29.8262ZM117.717 38.1172C116.752 38.1172 115.994 37.8262 115.443 37.2441C114.896 36.6582 114.623 35.8535 114.623 34.8301C114.623 33.7988 114.879 32.9785 115.391 32.3691C115.902 31.7559 116.594 31.4492 117.465 31.4492C118.273 31.4492 118.918 31.7109 119.398 32.2344C119.879 32.7539 120.119 33.459 120.119 34.3496V34.9883H115.713C115.732 35.7188 115.918 36.2734 116.27 36.6523C116.621 37.0312 117.119 37.2207 117.764 37.2207C118.107 37.2207 118.434 37.1914 118.742 37.1328C119.051 37.0703 119.412 36.9512 119.826 36.7754V37.7012C119.471 37.8535 119.137 37.9609 118.824 38.0234C118.512 38.0859 118.143 38.1172 117.717 38.1172ZM117.453 32.3105C116.949 32.3105 116.551 32.4727 116.258 32.7969C115.965 33.1211 115.791 33.5723 115.736 34.1504H119.012C119.004 33.5488 118.865 33.0918 118.596 32.7793C118.326 32.4668 117.945 32.3105 117.453 32.3105ZM126.137 38V33.8867C126.137 33.3633 126.02 32.9746 125.785 32.7207C125.555 32.4629 125.191 32.334 124.695 32.334C124.035 32.334 123.555 32.5176 123.254 32.8848C122.957 33.248 122.809 33.8418 122.809 34.666V38H121.754V31.5664H122.604L122.762 32.4453H122.82C123.02 32.1289 123.299 31.8848 123.658 31.7129C124.018 31.5371 124.414 31.4492 124.848 31.4492C125.637 31.4492 126.223 31.6406 126.605 32.0234C126.988 32.4062 127.18 33.002 127.18 33.8105V38H126.137ZM131.75 38.1172C130.824 38.1172 130.104 37.834 129.588 37.2676C129.072 36.6973 128.814 35.8809 128.814 34.8184C128.814 33.7402 129.074 32.9102 129.594 32.3281C130.117 31.7422 130.861 31.4492 131.826 31.4492C132.139 31.4492 132.447 31.4824 132.752 31.5488C133.061 31.6113 133.314 31.6934 133.514 31.7949L133.191 32.6738C132.648 32.4707 132.186 32.3691 131.803 32.3691C131.154 32.3691 130.676 32.5742 130.367 32.9844C130.059 33.3906 129.904 33.998 129.904 34.8066C129.904 35.584 130.059 36.1797 130.367 36.5938C130.676 37.0039 131.133 37.209 131.738 37.209C132.305 37.209 132.861 37.084 133.408 36.834V37.7715C132.963 38.002 132.41 38.1172 131.75 38.1172ZM133.93 31.5664H135.061L136.449 35.2285C136.742 36.0254 136.922 36.6094 136.988 36.9805H137.035C137.07 36.8359 137.15 36.5664 137.275 36.1719C137.4 35.7734 137.506 35.4551 137.592 35.2168L138.898 31.5664H140.035L137.264 38.8906C136.994 39.6016 136.674 40.1113 136.303 40.4199C135.932 40.7285 135.473 40.8828 134.926 40.8828C134.633 40.8828 134.342 40.8496 134.053 40.7832V39.9453C134.248 39.9922 134.482 40.0156 134.756 40.0156C135.092 40.0156 135.377 39.9219 135.611 39.7344C135.846 39.5508 136.037 39.2656 136.186 38.8789L136.52 38.0234L133.93 31.5664ZM143.973 33.9512C143.973 33.3926 144.006 32.8457 144.072 32.3105C144.143 31.7754 144.248 31.2578 144.389 30.7578C144.533 30.2578 144.713 29.7793 144.928 29.3223C145.146 28.8613 145.406 28.4277 145.707 28.0215H146.68C146.41 28.4473 146.17 28.8945 145.959 29.3633C145.748 29.832 145.57 30.3203 145.426 30.8281C145.281 31.3359 145.174 31.8535 145.104 32.3809C145.033 32.9043 144.998 33.4316 144.998 33.9629C144.998 35.0527 145.141 36.1133 145.426 37.1445C145.711 38.1719 146.133 39.1172 146.691 39.9805H145.707C145.406 39.5664 145.146 39.123 144.928 38.6504C144.713 38.1816 144.533 37.6914 144.389 37.1797C144.248 36.6641 144.143 36.1367 144.072 35.5977C144.006 35.0547 143.973 34.5059 143.973 33.9512ZM148.947 32.5801C148.947 33.0488 149.016 33.4004 149.152 33.6348C149.289 33.8691 149.51 33.9863 149.814 33.9863C150.412 33.9863 150.711 33.5176 150.711 32.5801C150.711 31.6426 150.412 31.1738 149.814 31.1738C149.51 31.1738 149.289 31.291 149.152 31.5254C149.016 31.7598 148.947 32.1113 148.947 32.5801ZM151.578 32.5801C151.578 32.916 151.543 33.2207 151.473 33.4941C151.406 33.7637 151.301 33.9922 151.156 34.1797C151.012 34.3672 150.828 34.5098 150.605 34.6074C150.383 34.7051 150.119 34.7539 149.814 34.7539C149.529 34.7539 149.279 34.7051 149.064 34.6074C148.85 34.5098 148.668 34.3672 148.52 34.1797C148.371 33.9922 148.26 33.7637 148.186 33.4941C148.115 33.2207 148.08 32.916 148.08 32.5801C148.08 32.2402 148.113 31.9355 148.18 31.666C148.246 31.3965 148.35 31.1699 148.49 30.9863C148.635 30.7988 148.816 30.6582 149.035 30.5645C149.254 30.4668 149.514 30.418 149.814 30.418C150.104 30.418 150.357 30.4668 150.576 30.5645C150.795 30.6582 150.979 30.7988 151.127 30.9863C151.279 31.1699 151.393 31.3965 151.467 31.666C151.541 31.9355 151.578 32.2402 151.578 32.5801ZM154.016 35.9434C154.016 36.4121 154.084 36.7637 154.221 36.998C154.357 37.2285 154.578 37.3438 154.883 37.3438C155.48 37.3438 155.779 36.877 155.779 35.9434C155.779 35.0059 155.48 34.5371 154.883 34.5371C154.578 34.5371 154.357 34.6543 154.221 34.8887C154.084 35.1191 154.016 35.4707 154.016 35.9434ZM156.641 35.9434C156.641 36.2832 156.607 36.5879 156.541 36.8574C156.475 37.123 156.369 37.3496 156.225 37.5371C156.08 37.7246 155.896 37.8691 155.674 37.9707C155.455 38.0684 155.191 38.1172 154.883 38.1172C154.598 38.1172 154.346 38.0684 154.127 37.9707C153.912 37.8691 153.732 37.7246 153.588 37.5371C153.443 37.3496 153.334 37.123 153.26 36.8574C153.186 36.5879 153.148 36.2832 153.148 35.9434C153.148 35.6035 153.182 35.2988 153.248 35.0293C153.318 34.7598 153.424 34.5332 153.564 34.3496C153.705 34.166 153.885 34.0254 154.104 33.9277C154.322 33.8301 154.582 33.7812 154.883 33.7812C155.176 33.7812 155.432 33.8301 155.65 33.9277C155.869 34.0254 156.051 34.166 156.195 34.3496C156.344 34.5332 156.455 34.7598 156.529 35.0293C156.604 35.2988 156.641 35.6035 156.641 35.9434ZM155.152 30.5352L150.529 38H149.592L154.227 30.5352H155.152ZM160.754 34.0508C160.754 34.6094 160.719 35.1562 160.648 35.6914C160.582 36.2266 160.477 36.7441 160.332 37.2441C160.191 37.7441 160.012 38.2227 159.793 38.6797C159.578 39.1406 159.32 39.5742 159.02 39.9805H158.047C158.316 39.5547 158.557 39.1074 158.768 38.6387C158.979 38.1699 159.156 37.6816 159.301 37.1738C159.445 36.666 159.553 36.1504 159.623 35.627C159.693 35.0996 159.729 34.5703 159.729 34.0391C159.729 32.9492 159.586 31.8906 159.301 30.8633C159.016 29.832 158.594 28.8848 158.035 28.0215H159.02C159.32 28.4355 159.578 28.8789 159.793 29.3516C160.012 29.8203 160.191 30.3125 160.332 30.8281C160.477 31.3398 160.582 31.8672 160.648 32.4102C160.719 32.9492 160.754 33.4961 160.754 34.0508Z" fill="#121212"/>
<path opacity="0.5" d="M0 5C0 2.79086 1.79086 1 4 1H421C423.209 1 425 2.79086 425 5V262C425 264.209 423.209 266 421 266H3.99999C1.79086 266 0 264.209 0 262V5Z" fill="#EBEFEE"/>
<defs>
<clipPath id="clip0_0_1">
<rect width="40" height="16" fill="white" transform="translate(4 62)"/>
</clipPath>
<clipPath id="clip1_0_1">
<rect width="40" height="16" fill="white" transform="translate(4 138)"/>
</clipPath>
<clipPath id="clip2_0_1">
<rect width="40" height="16" fill="white" transform="translate(4 100)"/>
</clipPath>
<clipPath id="clip3_0_1">
<rect width="40" height="16" fill="white" transform="translate(4 176)"/>
</clipPath>
<clipPath id="clip4_0_1">
<rect width="366" height="208" fill="white" transform="translate(51 16)"/>
</clipPath>
</defs>
</svg>
