<svg width="425" height="265" viewBox="0 0 425 265" fill="none" xmlns="http://www.w3.org/2000/svg">
<rect width="425" height="265" fill="#F5F5F5"/>
<rect x="-17235" y="-5016" width="23840" height="13376" fill="#F8FAF9"/>
<g style="mix-blend-mode:luminosity">
<g clip-path="url(#clip0_0_1)">
<rect width="425" height="265" rx="4" fill="white"/>
<path d="M43 177H411V178H43V177Z" fill="#CED7D4"/>
<path d="M87.2051 189.953C87.2051 190.828 86.9062 191.5 86.3086 191.969C85.7109 192.434 84.8691 192.666 83.7832 192.666H82.7988V196H81.7207V187.434H83.9883C86.1328 187.434 87.2051 188.273 87.2051 189.953ZM82.7988 191.74H83.6602C84.5117 191.74 85.1289 191.604 85.5117 191.33C85.8945 191.053 86.0859 190.609 86.0859 190C86.0859 189.449 85.9082 189.037 85.5527 188.764C85.1973 188.49 84.6426 188.354 83.8887 188.354H82.7988V191.74ZM91.8398 189.449C92.125 189.449 92.377 189.473 92.5957 189.52L92.4668 190.492C92.2285 190.438 91.9961 190.41 91.7695 190.41C91.4297 190.41 91.1133 190.504 90.8203 190.691C90.5312 190.879 90.3047 191.139 90.1406 191.471C89.9766 191.799 89.8945 192.164 89.8945 192.566V196H88.8398V189.566H89.707L89.8242 190.744H89.8711C90.1172 190.318 90.4082 189.996 90.7441 189.777C91.0801 189.559 91.4453 189.449 91.8398 189.449ZM96.416 196.117C95.4512 196.117 94.6934 195.826 94.1426 195.244C93.5957 194.658 93.3223 193.854 93.3223 192.83C93.3223 191.799 93.5781 190.979 94.0898 190.369C94.6016 189.756 95.293 189.449 96.1641 189.449C96.9727 189.449 97.6172 189.711 98.0977 190.234C98.5781 190.754 98.8184 191.459 98.8184 192.35V192.988H94.4121C94.4316 193.719 94.6172 194.273 94.9688 194.652C95.3203 195.031 95.8184 195.221 96.4629 195.221C96.8066 195.221 97.1328 195.191 97.4414 195.133C97.75 195.07 98.1113 194.951 98.5254 194.775V195.701C98.1699 195.854 97.8359 195.961 97.5234 196.023C97.2109 196.086 96.8418 196.117 96.416 196.117ZM96.1523 190.311C95.6484 190.311 95.25 190.473 94.957 190.797C94.6641 191.121 94.4902 191.572 94.4355 192.15H97.7109C97.7031 191.549 97.5645 191.092 97.2949 190.779C97.0254 190.467 96.6445 190.311 96.1523 190.311ZM100.02 192.93V191.945H102.926V192.93H100.02ZM105.756 196H104.678V187.434H109.465V188.383H105.756V191.418H109.236V192.361H105.756V196ZM111.82 196H110.766V189.566H111.82V196ZM110.684 187.826C110.684 187.592 110.742 187.422 110.859 187.316C110.98 187.211 111.129 187.158 111.305 187.158C111.469 187.158 111.611 187.211 111.732 187.316C111.857 187.422 111.92 187.592 111.92 187.826C111.92 188.057 111.857 188.227 111.732 188.336C111.611 188.445 111.469 188.5 111.305 188.5C111.129 188.5 110.98 188.445 110.859 188.336C110.742 188.227 110.684 188.057 110.684 187.826ZM114.914 196H113.859V186.883H114.914V196ZM119.104 195.256C119.24 195.256 119.4 195.242 119.584 195.215C119.768 195.188 119.906 195.156 120 195.121V195.93C119.902 195.973 119.75 196.014 119.543 196.053C119.34 196.096 119.133 196.117 118.922 196.117C117.664 196.117 117.035 195.455 117.035 194.131V190.387H116.127V189.883L117.047 189.461L117.469 188.09H118.096V189.566H119.953V190.387H118.096V194.102C118.096 194.473 118.184 194.758 118.359 194.957C118.539 195.156 118.787 195.256 119.104 195.256ZM124.025 196.117C123.061 196.117 122.303 195.826 121.752 195.244C121.205 194.658 120.932 193.854 120.932 192.83C120.932 191.799 121.188 190.979 121.699 190.369C122.211 189.756 122.902 189.449 123.773 189.449C124.582 189.449 125.227 189.711 125.707 190.234C126.188 190.754 126.428 191.459 126.428 192.35V192.988H122.021C122.041 193.719 122.227 194.273 122.578 194.652C122.93 195.031 123.428 195.221 124.072 195.221C124.416 195.221 124.742 195.191 125.051 195.133C125.359 195.07 125.721 194.951 126.135 194.775V195.701C125.779 195.854 125.445 195.961 125.133 196.023C124.82 196.086 124.451 196.117 124.025 196.117ZM123.762 190.311C123.258 190.311 122.859 190.473 122.566 190.797C122.273 191.121 122.1 191.572 122.045 192.15H125.32C125.312 191.549 125.174 191.092 124.904 190.779C124.635 190.467 124.254 190.311 123.762 190.311ZM131.062 189.449C131.348 189.449 131.6 189.473 131.818 189.52L131.689 190.492C131.451 190.438 131.219 190.41 130.992 190.41C130.652 190.41 130.336 190.504 130.043 190.691C129.754 190.879 129.527 191.139 129.363 191.471C129.199 191.799 129.117 192.164 129.117 192.566V196H128.062V189.566H128.93L129.047 190.744H129.094C129.34 190.318 129.631 189.996 129.967 189.777C130.303 189.559 130.668 189.449 131.062 189.449Z" fill="#595959"/>
<path d="M192.773 196H191.695V192.004H187.301V196H186.223V187.434H187.301V191.055H191.695V187.434H192.773V196ZM196.025 196H194.971V189.566H196.025V196ZM194.889 187.826C194.889 187.592 194.947 187.422 195.064 187.316C195.186 187.211 195.334 187.158 195.51 187.158C195.674 187.158 195.816 187.211 195.938 187.316C196.062 187.422 196.125 187.592 196.125 187.826C196.125 188.057 196.062 188.227 195.938 188.336C195.816 188.445 195.674 188.5 195.51 188.5C195.334 188.5 195.186 188.445 195.064 188.336C194.947 188.227 194.889 188.057 194.889 187.826ZM200.514 195.256C201.162 195.256 201.633 195.082 201.926 194.734C202.223 194.383 202.371 193.82 202.371 193.047V192.795C202.371 191.936 202.223 191.311 201.926 190.92C201.629 190.529 201.15 190.334 200.49 190.334C199.951 190.334 199.533 190.549 199.236 190.979C198.943 191.404 198.797 192.014 198.797 192.807C198.797 193.604 198.939 194.211 199.225 194.629C199.514 195.047 199.943 195.256 200.514 195.256ZM202.359 195.941L202.395 195.15H202.348C201.914 195.795 201.25 196.117 200.355 196.117C199.523 196.117 198.873 195.828 198.404 195.25C197.939 194.668 197.707 193.85 197.707 192.795C197.707 191.76 197.941 190.943 198.41 190.346C198.883 189.748 199.527 189.449 200.344 189.449C201.215 189.449 201.887 189.773 202.359 190.422H202.424L202.564 189.566H203.402V196.105C203.402 197.027 203.168 197.721 202.699 198.186C202.234 198.65 201.51 198.883 200.525 198.883C199.588 198.883 198.816 198.746 198.211 198.473V197.5C198.836 197.836 199.627 198.004 200.584 198.004C201.131 198.004 201.562 197.844 201.879 197.523C202.199 197.203 202.359 196.76 202.359 196.193V195.941ZM209.83 196V191.887C209.83 191.363 209.713 190.975 209.479 190.721C209.248 190.463 208.885 190.334 208.389 190.334C207.736 190.334 207.258 190.516 206.953 190.879C206.652 191.242 206.502 191.842 206.502 192.678V196H205.447V186.883H206.502V189.555C206.502 189.906 206.482 190.207 206.443 190.457H206.514C206.705 190.145 206.977 189.9 207.328 189.725C207.68 189.549 208.076 189.461 208.518 189.461C209.299 189.461 209.887 189.648 210.281 190.023C210.676 190.395 210.873 190.99 210.873 191.811V196H209.83ZM220.916 196H216.129V187.434H220.916V188.383H217.207V191.055H220.699V191.992H217.207V195.051H220.916V196ZM225.627 190.387H224.004V196H222.949V190.387H221.824V189.895L222.949 189.531V189.162C222.949 188.381 223.119 187.795 223.459 187.404C223.803 187.014 224.33 186.818 225.041 186.818C225.451 186.818 225.867 186.891 226.289 187.035L226.008 187.861C225.645 187.744 225.326 187.686 225.053 187.686C224.697 187.686 224.434 187.803 224.262 188.037C224.09 188.271 224.004 188.643 224.004 189.15V189.566H225.627V190.387ZM229.764 190.387H228.141V196H227.086V190.387H225.961V189.895L227.086 189.531V189.162C227.086 188.381 227.256 187.795 227.596 187.404C227.939 187.014 228.467 186.818 229.178 186.818C229.588 186.818 230.004 186.891 230.426 187.035L230.145 187.861C229.781 187.744 229.463 187.686 229.189 187.686C228.834 187.686 228.57 187.803 228.398 188.037C228.227 188.271 228.141 188.643 228.141 189.15V189.566H229.764V190.387ZM231.99 196H230.936V189.566H231.99V196ZM230.854 187.826C230.854 187.592 230.912 187.422 231.029 187.316C231.15 187.211 231.299 187.158 231.475 187.158C231.639 187.158 231.781 187.211 231.902 187.316C232.027 187.422 232.09 187.592 232.09 187.826C232.09 188.057 232.027 188.227 231.902 188.336C231.781 188.445 231.639 188.5 231.475 188.5C231.299 188.5 231.15 188.445 231.029 188.336C230.912 188.227 230.854 188.057 230.854 187.826ZM236.607 196.117C235.682 196.117 234.961 195.834 234.445 195.268C233.93 194.697 233.672 193.881 233.672 192.818C233.672 191.74 233.932 190.91 234.451 190.328C234.975 189.742 235.719 189.449 236.684 189.449C236.996 189.449 237.305 189.482 237.609 189.549C237.918 189.611 238.172 189.693 238.371 189.795L238.049 190.674C237.506 190.471 237.043 190.369 236.66 190.369C236.012 190.369 235.533 190.574 235.225 190.984C234.916 191.391 234.762 191.998 234.762 192.807C234.762 193.584 234.916 194.18 235.225 194.594C235.533 195.004 235.99 195.209 236.596 195.209C237.162 195.209 237.719 195.084 238.266 194.834V195.771C237.82 196.002 237.268 196.117 236.607 196.117ZM240.85 196H239.795V189.566H240.85V196ZM239.713 187.826C239.713 187.592 239.771 187.422 239.889 187.316C240.01 187.211 240.158 187.158 240.334 187.158C240.498 187.158 240.641 187.211 240.762 187.316C240.887 187.422 240.949 187.592 240.949 187.826C240.949 188.057 240.887 188.227 240.762 188.336C240.641 188.445 240.498 188.5 240.334 188.5C240.158 188.5 240.01 188.445 239.889 188.336C239.771 188.227 239.713 188.057 239.713 187.826ZM245.625 196.117C244.66 196.117 243.902 195.826 243.352 195.244C242.805 194.658 242.531 193.854 242.531 192.83C242.531 191.799 242.787 190.979 243.299 190.369C243.811 189.756 244.502 189.449 245.373 189.449C246.182 189.449 246.826 189.711 247.307 190.234C247.787 190.754 248.027 191.459 248.027 192.35V192.988H243.621C243.641 193.719 243.826 194.273 244.178 194.652C244.529 195.031 245.027 195.221 245.672 195.221C246.016 195.221 246.342 195.191 246.65 195.133C246.959 195.07 247.32 194.951 247.734 194.775V195.701C247.379 195.854 247.045 195.961 246.732 196.023C246.42 196.086 246.051 196.117 245.625 196.117ZM245.361 190.311C244.857 190.311 244.459 190.473 244.166 190.797C243.873 191.121 243.699 191.572 243.645 192.15H246.92C246.912 191.549 246.773 191.092 246.504 190.779C246.234 190.467 245.854 190.311 245.361 190.311ZM254.045 196V191.887C254.045 191.363 253.928 190.975 253.693 190.721C253.463 190.463 253.1 190.334 252.604 190.334C251.943 190.334 251.463 190.518 251.162 190.885C250.865 191.248 250.717 191.842 250.717 192.666V196H249.662V189.566H250.512L250.67 190.445H250.729C250.928 190.129 251.207 189.885 251.566 189.713C251.926 189.537 252.322 189.449 252.756 189.449C253.545 189.449 254.131 189.641 254.514 190.023C254.896 190.406 255.088 191.002 255.088 191.811V196H254.045ZM259.658 196.117C258.732 196.117 258.012 195.834 257.496 195.268C256.98 194.697 256.723 193.881 256.723 192.818C256.723 191.74 256.982 190.91 257.502 190.328C258.025 189.742 258.77 189.449 259.734 189.449C260.047 189.449 260.355 189.482 260.66 189.549C260.969 189.611 261.223 189.693 261.422 189.795L261.1 190.674C260.557 190.471 260.094 190.369 259.711 190.369C259.062 190.369 258.584 190.574 258.275 190.984C257.967 191.391 257.812 191.998 257.812 192.807C257.812 193.584 257.967 194.18 258.275 194.594C258.584 195.004 259.041 195.209 259.646 195.209C260.213 195.209 260.77 195.084 261.316 194.834V195.771C260.871 196.002 260.318 196.117 259.658 196.117ZM261.838 189.566H262.969L264.357 193.229C264.65 194.025 264.83 194.609 264.896 194.98H264.943C264.979 194.836 265.059 194.566 265.184 194.172C265.309 193.773 265.414 193.455 265.5 193.217L266.807 189.566H267.943L265.172 196.891C264.902 197.602 264.582 198.111 264.211 198.42C263.84 198.729 263.381 198.883 262.834 198.883C262.541 198.883 262.25 198.85 261.961 198.783V197.945C262.156 197.992 262.391 198.016 262.664 198.016C263 198.016 263.285 197.922 263.52 197.734C263.754 197.551 263.945 197.266 264.094 196.879L264.428 196.023L261.838 189.566Z" fill="#595959"/>
<path d="M337.105 196H336.027V192.004H331.633V196H330.555V187.434H331.633V191.055H336.027V187.434H337.105V196ZM344.236 196H339.449V187.434H344.236V188.383H340.527V191.055H344.02V191.992H340.527V195.051H344.236V196ZM351.613 189.953C351.613 190.828 351.314 191.5 350.717 191.969C350.119 192.434 349.277 192.666 348.191 192.666H347.207V196H346.129V187.434H348.396C350.541 187.434 351.613 188.273 351.613 189.953ZM347.207 191.74H348.068C348.92 191.74 349.537 191.604 349.92 191.33C350.303 191.053 350.494 190.609 350.494 190C350.494 189.449 350.316 189.037 349.961 188.764C349.605 188.49 349.051 188.354 348.297 188.354H347.207V191.74ZM358.475 196L357.443 193.346H354.045L353.025 196H351.936L355.281 187.398H356.254L359.594 196H358.475ZM357.121 192.391L356.16 189.795L355.75 188.512C355.633 188.98 355.51 189.408 355.381 189.795L354.408 192.391H357.121Z" fill="#595959"/>
<path d="M68.0001 207.6V205.794H71.3741V216H69.3581V207.6H68.0001ZM73.0884 208.482C73.135 207.549 73.4617 206.83 74.0684 206.326C74.6844 205.813 75.4917 205.556 76.4904 205.556C77.1717 205.556 77.755 205.677 78.2404 205.92C78.7257 206.153 79.0897 206.475 79.3324 206.886C79.5844 207.287 79.7104 207.745 79.7104 208.258C79.7104 208.846 79.5564 209.345 79.2484 209.756C78.9497 210.157 78.5904 210.428 78.1704 210.568V210.624C78.7117 210.792 79.1317 211.091 79.4304 211.52C79.7384 211.949 79.8924 212.5 79.8924 213.172C79.8924 213.732 79.7617 214.231 79.5004 214.67C79.2484 215.109 78.8704 215.454 78.3664 215.706C77.8717 215.949 77.2744 216.07 76.5744 216.07C75.5197 216.07 74.661 215.804 73.9984 215.272C73.3357 214.74 72.9857 213.956 72.9484 212.92H74.8524C74.871 213.377 75.025 213.746 75.3144 214.026C75.613 214.297 76.019 214.432 76.5324 214.432C77.0084 214.432 77.3724 214.301 77.6244 214.04C77.8857 213.769 78.0164 213.424 78.0164 213.004C78.0164 212.444 77.839 212.043 77.4844 211.8C77.1297 211.557 76.579 211.436 75.8324 211.436H75.4264V209.826H75.8324C77.1577 209.826 77.8204 209.383 77.8204 208.496C77.8204 208.095 77.699 207.782 77.4564 207.558C77.223 207.334 76.8824 207.222 76.4344 207.222C75.9957 207.222 75.655 207.343 75.4124 207.586C75.179 207.819 75.0437 208.118 75.0064 208.482H73.0884ZM82.2832 216.098C81.9286 216.098 81.6346 215.991 81.4012 215.776C81.1772 215.552 81.0652 215.277 81.0652 214.95C81.0652 214.623 81.1772 214.353 81.4012 214.138C81.6346 213.914 81.9286 213.802 82.2832 213.802C82.6286 213.802 82.9132 213.914 83.1372 214.138C83.3612 214.353 83.4732 214.623 83.4732 214.95C83.4732 215.277 83.3612 215.552 83.1372 215.776C82.9132 215.991 82.6286 216.098 82.2832 216.098ZM86.2859 210.596C85.3526 210.111 84.8859 209.359 84.8859 208.342C84.8859 207.838 85.0119 207.381 85.2639 206.97C85.5253 206.55 85.9126 206.219 86.4259 205.976C86.9486 205.724 87.5833 205.598 88.3299 205.598C89.0766 205.598 89.7066 205.724 90.2199 205.976C90.7426 206.219 91.1299 206.55 91.3819 206.97C91.6433 207.381 91.7739 207.838 91.7739 208.342C91.7739 208.855 91.6479 209.308 91.3959 209.7C91.1439 210.083 90.8079 210.381 90.3879 210.596C90.9013 210.82 91.3026 211.147 91.5919 211.576C91.8813 212.005 92.0259 212.514 92.0259 213.102C92.0259 213.737 91.8626 214.292 91.5359 214.768C91.2186 215.235 90.7799 215.594 90.2199 215.846C89.6599 216.098 89.0299 216.224 88.3299 216.224C87.6299 216.224 86.9999 216.098 86.4399 215.846C85.8893 215.594 85.4506 215.235 85.1239 214.768C84.8066 214.292 84.6479 213.737 84.6479 213.102C84.6479 212.514 84.7926 212.005 85.0819 211.576C85.3713 211.137 85.7726 210.811 86.2859 210.596ZM89.8699 208.622C89.8699 208.165 89.7299 207.81 89.4499 207.558C89.1793 207.306 88.8059 207.18 88.3299 207.18C87.8633 207.18 87.4899 207.306 87.2099 207.558C86.9393 207.81 86.8039 208.169 86.8039 208.636C86.8039 209.056 86.9439 209.392 87.2239 209.644C87.5133 209.896 87.8819 210.022 88.3299 210.022C88.7779 210.022 89.1466 209.896 89.4359 209.644C89.7253 209.383 89.8699 209.042 89.8699 208.622ZM88.3299 211.45C87.7979 211.45 87.3639 211.585 87.0279 211.856C86.7013 212.127 86.5379 212.514 86.5379 213.018C86.5379 213.485 86.6966 213.867 87.0139 214.166C87.3406 214.455 87.7793 214.6 88.3299 214.6C88.8806 214.6 89.3146 214.451 89.6319 214.152C89.9493 213.853 90.1079 213.475 90.1079 213.018C90.1079 212.523 89.9446 212.141 89.6179 211.87C89.2913 211.59 88.8619 211.45 88.3299 211.45ZM104.873 216V211.857C104.873 210.842 104.438 210.334 103.566 210.334C102.969 210.334 102.529 210.508 102.248 210.855C101.967 211.203 101.826 211.734 101.826 212.449V216H100.777V211.857C100.777 211.35 100.67 210.969 100.455 210.715C100.244 210.461 99.9121 210.334 99.459 210.334C98.8652 210.334 98.4297 210.516 98.1523 210.879C97.8789 211.242 97.7422 211.838 97.7422 212.666V216H96.6875V209.566H97.5371L97.6953 210.445H97.7539C97.9375 210.133 98.1953 209.889 98.5273 209.713C98.8633 209.537 99.2383 209.449 99.6523 209.449C100.66 209.449 101.316 209.809 101.621 210.527H101.68C101.887 210.184 102.168 209.918 102.523 209.73C102.883 209.543 103.289 209.449 103.742 209.449C104.469 209.449 105.012 209.637 105.371 210.012C105.734 210.387 105.916 210.986 105.916 211.811V216H104.873ZM116.1 216V211.857C116.1 210.842 115.664 210.334 114.793 210.334C114.195 210.334 113.756 210.508 113.475 210.855C113.193 211.203 113.053 211.734 113.053 212.449V216H112.004V211.857C112.004 211.35 111.896 210.969 111.682 210.715C111.471 210.461 111.139 210.334 110.686 210.334C110.092 210.334 109.656 210.516 109.379 210.879C109.105 211.242 108.969 211.838 108.969 212.666V216H107.914V209.566H108.764L108.922 210.445H108.98C109.164 210.133 109.422 209.889 109.754 209.713C110.09 209.537 110.465 209.449 110.879 209.449C111.887 209.449 112.543 209.809 112.848 210.527H112.906C113.113 210.184 113.395 209.918 113.75 209.73C114.109 209.543 114.516 209.449 114.969 209.449C115.695 209.449 116.238 209.637 116.598 210.012C116.961 210.387 117.143 210.986 117.143 211.811V216H116.1ZM125.838 216H124.76V212.004H120.365V216H119.287V207.434H120.365V211.055H124.76V207.434H125.838V216ZM132.922 216H127.578V215.086L129.629 212.854C129.922 212.537 130.184 212.248 130.414 211.986C130.645 211.725 130.84 211.469 131 211.219C131.164 210.969 131.289 210.719 131.375 210.469C131.461 210.215 131.504 209.939 131.504 209.643C131.504 209.412 131.471 209.209 131.404 209.033C131.338 208.857 131.242 208.709 131.117 208.588C130.996 208.463 130.852 208.369 130.684 208.307C130.516 208.244 130.328 208.213 130.121 208.213C129.75 208.213 129.414 208.289 129.113 208.441C128.816 208.59 128.533 208.781 128.264 209.016L127.666 208.318C127.822 208.178 127.99 208.047 128.17 207.926C128.35 207.801 128.543 207.693 128.75 207.604C128.957 207.514 129.176 207.443 129.406 207.393C129.637 207.338 129.879 207.311 130.133 207.311C130.508 207.311 130.846 207.363 131.146 207.469C131.451 207.574 131.709 207.727 131.92 207.926C132.131 208.121 132.293 208.361 132.406 208.646C132.523 208.928 132.582 209.246 132.582 209.602C132.582 209.934 132.529 210.25 132.424 210.551C132.322 210.852 132.18 211.148 131.996 211.441C131.816 211.73 131.6 212.021 131.346 212.314C131.096 212.607 130.824 212.912 130.531 213.229L128.885 214.98V215.027H132.922V216ZM142.268 211.705C142.268 213.076 141.92 214.154 141.225 214.939C140.533 215.725 139.564 216.117 138.318 216.117C137.057 216.117 136.08 215.732 135.389 214.963C134.701 214.189 134.357 213.1 134.357 211.693C134.357 210.299 134.699 209.219 135.383 208.453C136.07 207.684 137.053 207.299 138.33 207.299C139.572 207.299 140.539 207.689 141.23 208.471C141.922 209.248 142.268 210.326 142.268 211.705ZM135.494 211.705C135.494 212.838 135.734 213.701 136.215 214.295C136.695 214.889 137.396 215.186 138.318 215.186C139.236 215.186 139.934 214.893 140.41 214.307C140.887 213.721 141.125 212.854 141.125 211.705C141.125 210.561 140.889 209.699 140.416 209.121C139.943 208.539 139.248 208.248 138.33 208.248C137.4 208.248 136.695 208.543 136.215 209.133C135.734 209.719 135.494 210.576 135.494 211.705Z" fill="#121212"/>
<path d="M200.699 207.278L196.975 216H194.987L198.739 207.502H193.951V205.822H200.699V207.278ZM202.715 216.098C202.36 216.098 202.066 215.991 201.833 215.776C201.609 215.552 201.497 215.277 201.497 214.95C201.497 214.623 201.609 214.353 201.833 214.138C202.066 213.914 202.36 213.802 202.715 213.802C203.06 213.802 203.345 213.914 203.569 214.138C203.793 214.353 203.905 214.623 203.905 214.95C203.905 215.277 203.793 215.552 203.569 215.776C203.345 215.991 203.06 216.098 202.715 216.098ZM204.772 207.6V205.794H208.146V216H206.13V207.6H204.772ZM221.412 216V211.857C221.412 210.842 220.977 210.334 220.105 210.334C219.508 210.334 219.068 210.508 218.787 210.855C218.506 211.203 218.365 211.734 218.365 212.449V216H217.316V211.857C217.316 211.35 217.209 210.969 216.994 210.715C216.783 210.461 216.451 210.334 215.998 210.334C215.404 210.334 214.969 210.516 214.691 210.879C214.418 211.242 214.281 211.838 214.281 212.666V216H213.227V209.566H214.076L214.234 210.445H214.293C214.477 210.133 214.734 209.889 215.066 209.713C215.402 209.537 215.777 209.449 216.191 209.449C217.199 209.449 217.855 209.809 218.16 210.527H218.219C218.426 210.184 218.707 209.918 219.062 209.73C219.422 209.543 219.828 209.449 220.281 209.449C221.008 209.449 221.551 209.637 221.91 210.012C222.273 210.387 222.455 210.986 222.455 211.811V216H221.412ZM232.639 216V211.857C232.639 210.842 232.203 210.334 231.332 210.334C230.734 210.334 230.295 210.508 230.014 210.855C229.732 211.203 229.592 211.734 229.592 212.449V216H228.543V211.857C228.543 211.35 228.436 210.969 228.221 210.715C228.01 210.461 227.678 210.334 227.225 210.334C226.631 210.334 226.195 210.516 225.918 210.879C225.645 211.242 225.508 211.838 225.508 212.666V216H224.453V209.566H225.303L225.461 210.445H225.52C225.703 210.133 225.961 209.889 226.293 209.713C226.629 209.537 227.004 209.449 227.418 209.449C228.426 209.449 229.082 209.809 229.387 210.527H229.445C229.652 210.184 229.934 209.918 230.289 209.73C230.648 209.543 231.055 209.449 231.508 209.449C232.234 209.449 232.777 209.637 233.137 210.012C233.5 210.387 233.682 210.986 233.682 211.811V216H232.639ZM242.377 216H241.299V212.004H236.904V216H235.826V207.434H236.904V211.055H241.299V207.434H242.377V216ZM249.461 216H244.117V215.086L246.168 212.854C246.461 212.537 246.723 212.248 246.953 211.986C247.184 211.725 247.379 211.469 247.539 211.219C247.703 210.969 247.828 210.719 247.914 210.469C248 210.215 248.043 209.939 248.043 209.643C248.043 209.412 248.01 209.209 247.943 209.033C247.877 208.857 247.781 208.709 247.656 208.588C247.535 208.463 247.391 208.369 247.223 208.307C247.055 208.244 246.867 208.213 246.66 208.213C246.289 208.213 245.953 208.289 245.652 208.441C245.355 208.59 245.072 208.781 244.803 209.016L244.205 208.318C244.361 208.178 244.529 208.047 244.709 207.926C244.889 207.801 245.082 207.693 245.289 207.604C245.496 207.514 245.715 207.443 245.945 207.393C246.176 207.338 246.418 207.311 246.672 207.311C247.047 207.311 247.385 207.363 247.686 207.469C247.99 207.574 248.248 207.727 248.459 207.926C248.67 208.121 248.832 208.361 248.945 208.646C249.062 208.928 249.121 209.246 249.121 209.602C249.121 209.934 249.068 210.25 248.963 210.551C248.861 210.852 248.719 211.148 248.535 211.441C248.355 211.73 248.139 212.021 247.885 212.314C247.635 212.607 247.363 212.912 247.07 213.229L245.424 214.98V215.027H249.461V216ZM258.807 211.705C258.807 213.076 258.459 214.154 257.764 214.939C257.072 215.725 256.104 216.117 254.857 216.117C253.596 216.117 252.619 215.732 251.928 214.963C251.24 214.189 250.896 213.1 250.896 211.693C250.896 210.299 251.238 209.219 251.922 208.453C252.609 207.684 253.592 207.299 254.869 207.299C256.111 207.299 257.078 207.689 257.77 208.471C258.461 209.248 258.807 210.326 258.807 211.705ZM252.033 211.705C252.033 212.838 252.273 213.701 252.754 214.295C253.234 214.889 253.936 215.186 254.857 215.186C255.775 215.186 256.473 214.893 256.949 214.307C257.426 213.721 257.664 212.854 257.664 211.705C257.664 210.561 257.428 209.699 256.955 209.121C256.482 208.539 255.787 208.248 254.869 208.248C253.939 208.248 253.234 208.543 252.754 209.133C252.273 209.719 252.033 210.576 252.033 211.705Z" fill="#121212"/>
<path d="M305.82 208.482C305.866 207.549 306.193 206.83 306.8 206.326C307.416 205.813 308.223 205.556 309.222 205.556C309.903 205.556 310.486 205.677 310.972 205.92C311.457 206.153 311.821 206.475 312.064 206.886C312.316 207.287 312.442 207.745 312.442 208.258C312.442 208.846 312.288 209.345 311.98 209.756C311.681 210.157 311.322 210.428 310.902 210.568V210.624C311.443 210.792 311.863 211.091 312.162 211.52C312.47 211.949 312.624 212.5 312.624 213.172C312.624 213.732 312.493 214.231 312.232 214.67C311.98 215.109 311.602 215.454 311.098 215.706C310.603 215.949 310.006 216.07 309.306 216.07C308.251 216.07 307.392 215.804 306.73 215.272C306.067 214.74 305.717 213.956 305.68 212.92H307.584C307.602 213.377 307.756 213.746 308.046 214.026C308.344 214.297 308.75 214.432 309.264 214.432C309.74 214.432 310.104 214.301 310.356 214.04C310.617 213.769 310.748 213.424 310.748 213.004C310.748 212.444 310.57 212.043 310.216 211.8C309.861 211.557 309.31 211.436 308.564 211.436H308.158V209.826H308.564C309.889 209.826 310.552 209.383 310.552 208.496C310.552 208.095 310.43 207.782 310.188 207.558C309.954 207.334 309.614 207.222 309.166 207.222C308.727 207.222 308.386 207.343 308.144 207.586C307.91 207.819 307.775 208.118 307.738 208.482H305.82ZM320.419 207.278L316.695 216H314.707L318.459 207.502H313.671V205.822H320.419V207.278ZM322.435 216.098C322.08 216.098 321.786 215.991 321.553 215.776C321.329 215.552 321.217 215.277 321.217 214.95C321.217 214.623 321.329 214.353 321.553 214.138C321.786 213.914 322.08 213.802 322.435 213.802C322.78 213.802 323.065 213.914 323.289 214.138C323.513 214.353 323.625 214.623 323.625 214.95C323.625 215.277 323.513 215.552 323.289 215.776C323.065 215.991 322.78 216.098 322.435 216.098ZM326.997 213.13C327.072 213.541 327.24 213.858 327.501 214.082C327.772 214.297 328.131 214.404 328.579 214.404C329.158 214.404 329.578 214.166 329.839 213.69C330.101 213.205 330.231 212.393 330.231 211.254C330.017 211.553 329.713 211.786 329.321 211.954C328.939 212.122 328.523 212.206 328.075 212.206C327.478 212.206 326.937 212.085 326.451 211.842C325.975 211.59 325.597 211.221 325.317 210.736C325.037 210.241 324.897 209.644 324.897 208.944C324.897 207.908 325.205 207.087 325.821 206.48C326.437 205.864 327.277 205.556 328.341 205.556C329.667 205.556 330.6 205.981 331.141 206.83C331.692 207.679 331.967 208.958 331.967 210.666C331.967 211.879 331.86 212.873 331.645 213.648C331.44 214.423 331.081 215.011 330.567 215.412C330.063 215.813 329.373 216.014 328.495 216.014C327.805 216.014 327.217 215.883 326.731 215.622C326.246 215.351 325.873 215.001 325.611 214.572C325.359 214.133 325.215 213.653 325.177 213.13H326.997ZM328.481 210.61C328.967 210.61 329.349 210.461 329.629 210.162C329.909 209.863 330.049 209.462 330.049 208.958C330.049 208.407 329.9 207.983 329.601 207.684C329.312 207.376 328.915 207.222 328.411 207.222C327.907 207.222 327.506 207.381 327.207 207.698C326.918 208.006 326.773 208.417 326.773 208.93C326.773 209.425 326.913 209.831 327.193 210.148C327.483 210.456 327.912 210.61 328.481 210.61ZM344.823 216V211.857C344.823 210.842 344.388 210.334 343.517 210.334C342.919 210.334 342.479 210.508 342.198 210.855C341.917 211.203 341.776 211.734 341.776 212.449V216H340.728V211.857C340.728 211.35 340.62 210.969 340.405 210.715C340.194 210.461 339.862 210.334 339.409 210.334C338.815 210.334 338.38 210.516 338.103 210.879C337.829 211.242 337.692 211.838 337.692 212.666V216H336.638V209.566H337.487L337.646 210.445H337.704C337.888 210.133 338.146 209.889 338.478 209.713C338.813 209.537 339.188 209.449 339.603 209.449C340.61 209.449 341.267 209.809 341.571 210.527H341.63C341.837 210.184 342.118 209.918 342.474 209.73C342.833 209.543 343.239 209.449 343.692 209.449C344.419 209.449 344.962 209.637 345.321 210.012C345.685 210.387 345.866 210.986 345.866 211.811V216H344.823ZM356.05 216V211.857C356.05 210.842 355.614 210.334 354.743 210.334C354.146 210.334 353.706 210.508 353.425 210.855C353.144 211.203 353.003 211.734 353.003 212.449V216H351.954V211.857C351.954 211.35 351.847 210.969 351.632 210.715C351.421 210.461 351.089 210.334 350.636 210.334C350.042 210.334 349.606 210.516 349.329 210.879C349.056 211.242 348.919 211.838 348.919 212.666V216H347.864V209.566H348.714L348.872 210.445H348.931C349.114 210.133 349.372 209.889 349.704 209.713C350.04 209.537 350.415 209.449 350.829 209.449C351.837 209.449 352.493 209.809 352.798 210.527H352.856C353.063 210.184 353.345 209.918 353.7 209.73C354.06 209.543 354.466 209.449 354.919 209.449C355.646 209.449 356.188 209.637 356.548 210.012C356.911 210.387 357.093 210.986 357.093 211.811V216H356.05ZM365.788 216H364.71V212.004H360.315V216H359.237V207.434H360.315V211.055H364.71V207.434H365.788V216ZM372.872 216H367.528V215.086L369.579 212.854C369.872 212.537 370.134 212.248 370.364 211.986C370.595 211.725 370.79 211.469 370.95 211.219C371.114 210.969 371.239 210.719 371.325 210.469C371.411 210.215 371.454 209.939 371.454 209.643C371.454 209.412 371.421 209.209 371.354 209.033C371.288 208.857 371.192 208.709 371.067 208.588C370.946 208.463 370.802 208.369 370.634 208.307C370.466 208.244 370.278 208.213 370.071 208.213C369.7 208.213 369.364 208.289 369.063 208.441C368.767 208.59 368.483 208.781 368.214 209.016L367.616 208.318C367.772 208.178 367.94 208.047 368.12 207.926C368.3 207.801 368.493 207.693 368.7 207.604C368.907 207.514 369.126 207.443 369.356 207.393C369.587 207.338 369.829 207.311 370.083 207.311C370.458 207.311 370.796 207.363 371.097 207.469C371.401 207.574 371.659 207.727 371.87 207.926C372.081 208.121 372.243 208.361 372.356 208.646C372.474 208.928 372.532 209.246 372.532 209.602C372.532 209.934 372.479 210.25 372.374 210.551C372.272 210.852 372.13 211.148 371.946 211.441C371.767 211.73 371.55 212.021 371.296 212.314C371.046 212.607 370.774 212.912 370.481 213.229L368.835 214.98V215.027H372.872V216ZM382.218 211.705C382.218 213.076 381.87 214.154 381.175 214.939C380.483 215.725 379.515 216.117 378.269 216.117C377.007 216.117 376.03 215.732 375.339 214.963C374.651 214.189 374.308 213.1 374.308 211.693C374.308 210.299 374.649 209.219 375.333 208.453C376.021 207.684 377.003 207.299 378.28 207.299C379.522 207.299 380.489 207.689 381.181 208.471C381.872 209.248 382.218 210.326 382.218 211.705ZM375.444 211.705C375.444 212.838 375.685 213.701 376.165 214.295C376.646 214.889 377.347 215.186 378.269 215.186C379.187 215.186 379.884 214.893 380.36 214.307C380.837 213.721 381.075 212.854 381.075 211.705C381.075 210.561 380.839 209.699 380.366 209.121C379.894 208.539 379.198 208.248 378.28 208.248C377.351 208.248 376.646 208.543 376.165 209.133C375.685 209.719 375.444 210.576 375.444 211.705Z" fill="#121212"/>
<rect x="77.5" y="55.5" width="59" height="122" stroke="#CED7D4"/>
<rect x="78" y="143.281" width="58" height="33.7258" fill="#4CA2A8"/>
<line x1="78" y1="102.113" x2="136" y2="102.113" stroke="#B8B8B8"/>
<rect x="197.5" y="55.5" width="59" height="122" stroke="#CED7D4"/>
<rect x="198" y="84.2852" width="58" height="92.5429" fill="#E6B056"/>
<line x1="198" y1="78.3066" x2="256" y2="78.3066" stroke="#B8B8B8"/>
<rect x="317.5" y="55.5" width="59" height="122" stroke="#CED7D4"/>
<rect x="318" y="142.857" width="58" height="33.9714" fill="#4CA2A8"/>
<line x1="318" y1="78.3066" x2="376" y2="78.3066" stroke="#B8B8B8"/>
<path d="M80.752 248H79.384L75.268 241.772V248H73.9V239.648H75.268L79.384 245.864V239.648H80.752V248ZM88.3104 245.204H83.2584C83.2944 245.732 83.4864 246.164 83.8464 246.476C84.1944 246.8 84.6264 246.956 85.1424 246.956C85.8744 246.956 86.3904 246.656 86.7024 246.032H88.1784C87.9744 246.644 87.6144 247.148 87.0864 247.532C86.5584 247.916 85.9104 248.108 85.1424 248.108C84.5064 248.108 83.9424 247.976 83.4384 247.688C82.9344 247.4 82.5504 247.004 82.2624 246.488C81.9744 245.972 81.8424 245.372 81.8424 244.688C81.8424 244.016 81.9744 243.416 82.2504 242.9C82.5264 242.384 82.9104 241.988 83.4144 241.7C83.9184 241.424 84.4944 241.28 85.1424 241.28C85.7664 241.28 86.3184 241.424 86.8104 241.688C87.2904 241.964 87.6744 242.348 87.9504 242.84C88.2144 243.332 88.3584 243.896 88.3584 244.532C88.3584 244.784 88.3344 245.012 88.3104 245.204ZM86.9304 244.1C86.9184 243.596 86.7384 243.2 86.3904 242.888C86.0304 242.588 85.5984 242.432 85.0824 242.432C84.6024 242.432 84.2064 242.588 83.8704 242.888C83.5344 243.188 83.3304 243.596 83.2704 244.1H86.9304ZM92.2867 244.652L94.4227 248H92.8747L91.4467 245.756L90.1027 248H88.6747L90.8107 244.748L88.6747 241.388H90.2227L91.6507 243.632L92.9947 241.388H94.4227L92.2867 244.652ZM96.789 242.504V246.164C96.789 246.416 96.837 246.596 96.957 246.704C97.077 246.812 97.269 246.86 97.557 246.86H98.397V248H97.317C96.693 248 96.225 247.856 95.901 247.568C95.565 247.28 95.409 246.812 95.409 246.164V242.504H94.629V241.388H95.409V239.744H96.789V241.388H98.397V242.504H96.789ZM102.347 240.26C102.179 240.092 102.095 239.888 102.095 239.636C102.095 239.396 102.179 239.18 102.347 239.012C102.515 238.844 102.719 238.76 102.971 238.76C103.211 238.76 103.415 238.844 103.583 239.012C103.751 239.18 103.835 239.396 103.835 239.636C103.835 239.888 103.751 240.092 103.583 240.26C103.415 240.428 103.211 240.512 102.971 240.512C102.719 240.512 102.515 240.428 102.347 240.26ZM103.643 241.388V248H102.275V241.388H103.643ZM109.917 241.604C110.325 241.82 110.649 242.144 110.889 242.564C111.117 242.996 111.237 243.5 111.237 244.1V248H109.881V244.304C109.881 243.716 109.725 243.26 109.437 242.948C109.137 242.636 108.729 242.468 108.225 242.468C107.709 242.468 107.301 242.636 107.001 242.948C106.701 243.26 106.557 243.716 106.557 244.304V248H105.189V241.388H106.557V242.144C106.773 241.88 107.061 241.664 107.409 241.508C107.757 241.364 108.129 241.28 108.525 241.28C109.041 241.28 109.509 241.388 109.917 241.604ZM114.1 239.12V248H112.732V239.12H114.1ZM121.658 245.204H116.606C116.642 245.732 116.834 246.164 117.194 246.476C117.542 246.8 117.974 246.956 118.49 246.956C119.222 246.956 119.738 246.656 120.05 246.032H121.526C121.322 246.644 120.962 247.148 120.434 247.532C119.906 247.916 119.258 248.108 118.49 248.108C117.854 248.108 117.29 247.976 116.786 247.688C116.282 247.4 115.898 247.004 115.61 246.488C115.322 245.972 115.19 245.372 115.19 244.688C115.19 244.016 115.322 243.416 115.598 242.9C115.874 242.384 116.258 241.988 116.762 241.7C117.266 241.424 117.842 241.28 118.49 241.28C119.114 241.28 119.666 241.424 120.158 241.688C120.638 241.964 121.022 242.348 121.298 242.84C121.562 243.332 121.706 243.896 121.706 244.532C121.706 244.784 121.682 245.012 121.658 245.204ZM120.278 244.1C120.266 243.596 120.086 243.2 119.738 242.888C119.378 242.588 118.946 242.432 118.43 242.432C117.95 242.432 117.554 242.588 117.218 242.888C116.882 243.188 116.678 243.596 116.618 244.1H120.278ZM124.398 242.504V246.164C124.398 246.416 124.446 246.596 124.566 246.704C124.686 246.812 124.878 246.86 125.166 246.86H126.006V248H124.926C124.302 248 123.834 247.856 123.51 247.568C123.174 247.28 123.018 246.812 123.018 246.164V242.504H122.238V241.388H123.018V239.744H124.398V241.388H126.006V242.504H124.398ZM132.656 242.504H131.432V248H130.052V242.504H129.272V241.388H130.052V240.92C130.052 240.164 130.244 239.612 130.652 239.264C131.06 238.916 131.696 238.736 132.56 238.736V239.876C132.14 239.876 131.852 239.96 131.684 240.116C131.516 240.272 131.432 240.536 131.432 240.92V241.388H132.656V242.504ZM133.691 240.26C133.523 240.092 133.439 239.888 133.439 239.636C133.439 239.396 133.523 239.18 133.691 239.012C133.859 238.844 134.063 238.76 134.315 238.76C134.555 238.76 134.759 238.844 134.927 239.012C135.095 239.18 135.179 239.396 135.179 239.636C135.179 239.888 135.095 240.092 134.927 240.26C134.759 240.428 134.555 240.512 134.315 240.512C134.063 240.512 133.859 240.428 133.691 240.26ZM134.987 241.388V248H133.619V241.388H134.987ZM137.901 239.12V248H136.533V239.12H137.901ZM141.043 242.504V246.164C141.043 246.416 141.091 246.596 141.211 246.704C141.331 246.812 141.523 246.86 141.811 246.86H142.651V248H141.571C140.947 248 140.479 247.856 140.155 247.568C139.819 247.28 139.663 246.812 139.663 246.164V242.504H138.883V241.388H139.663V239.744H141.043V241.388H142.651V242.504H141.043ZM149.674 245.204H144.622C144.658 245.732 144.85 246.164 145.21 246.476C145.558 246.8 145.99 246.956 146.506 246.956C147.238 246.956 147.754 246.656 148.066 246.032H149.542C149.338 246.644 148.978 247.148 148.45 247.532C147.922 247.916 147.274 248.108 146.506 248.108C145.87 248.108 145.306 247.976 144.802 247.688C144.298 247.4 143.914 247.004 143.626 246.488C143.338 245.972 143.206 245.372 143.206 244.688C143.206 244.016 143.338 243.416 143.614 242.9C143.89 242.384 144.274 241.988 144.778 241.7C145.282 241.424 145.858 241.28 146.506 241.28C147.13 241.28 147.682 241.424 148.174 241.688C148.654 241.964 149.038 242.348 149.314 242.84C149.578 243.332 149.722 243.896 149.722 244.532C149.722 244.784 149.698 245.012 149.674 245.204ZM148.294 244.1C148.282 243.596 148.102 243.2 147.754 242.888C147.394 242.588 146.962 242.432 146.446 242.432C145.966 242.432 145.57 242.588 145.234 242.888C144.898 243.188 144.694 243.596 144.634 244.1H148.294ZM152.978 241.568C153.314 241.376 153.71 241.28 154.166 241.28V242.696H153.818C153.278 242.696 152.87 242.84 152.594 243.104C152.318 243.38 152.186 243.848 152.186 244.52V248H150.818V241.388H152.186V242.348C152.378 242.012 152.642 241.76 152.978 241.568ZM157.993 242.9C158.269 242.384 158.653 241.988 159.145 241.7C159.625 241.424 160.189 241.28 160.825 241.28C161.617 241.28 162.277 241.472 162.805 241.856C163.333 242.24 163.681 242.78 163.873 243.476H162.397C162.277 243.152 162.085 242.9 161.821 242.708C161.557 242.528 161.221 242.432 160.825 242.432C160.261 242.432 159.817 242.636 159.481 243.032C159.145 243.428 158.989 243.98 158.989 244.688C158.989 245.408 159.145 245.96 159.481 246.356C159.817 246.764 160.261 246.956 160.825 246.956C161.617 246.956 162.133 246.608 162.397 245.912H163.873C163.681 246.584 163.321 247.124 162.793 247.52C162.265 247.916 161.605 248.108 160.825 248.108C160.189 248.108 159.625 247.976 159.145 247.688C158.653 247.4 158.269 247.004 157.993 246.488C157.717 245.972 157.585 245.372 157.585 244.688C157.585 244.016 157.717 243.416 157.993 242.9ZM169.75 241.604C170.146 241.82 170.458 242.144 170.686 242.564C170.914 242.996 171.034 243.5 171.034 244.1V248H169.678V244.304C169.678 243.716 169.522 243.26 169.234 242.948C168.934 242.636 168.526 242.468 168.022 242.468C167.506 242.468 167.098 242.636 166.798 242.948C166.498 243.26 166.354 243.716 166.354 244.304V248H164.986V239.12H166.354V242.156C166.582 241.88 166.87 241.664 167.23 241.508C167.59 241.364 167.974 241.28 168.406 241.28C168.91 241.28 169.354 241.388 169.75 241.604ZM172.481 242.9C172.757 242.396 173.129 242 173.609 241.712C174.089 241.424 174.617 241.28 175.193 241.28C175.709 241.28 176.165 241.388 176.549 241.592C176.933 241.796 177.245 242.048 177.485 242.348V241.388H178.865V248H177.485V247.016C177.245 247.328 176.933 247.592 176.537 247.796C176.129 248.012 175.673 248.108 175.169 248.108C174.593 248.108 174.077 247.964 173.609 247.676C173.129 247.388 172.757 246.98 172.481 246.452C172.205 245.924 172.073 245.336 172.073 244.664C172.073 244.004 172.205 243.416 172.481 242.9ZM177.197 243.5C177.005 243.164 176.765 242.912 176.465 242.732C176.153 242.564 175.829 242.468 175.481 242.468C175.121 242.468 174.797 242.564 174.497 242.732C174.185 242.9 173.945 243.152 173.753 243.488C173.561 243.824 173.477 244.208 173.477 244.664C173.477 245.12 173.561 245.528 173.753 245.864C173.945 246.212 174.185 246.476 174.497 246.656C174.809 246.836 175.133 246.92 175.481 246.92C175.829 246.92 176.153 246.836 176.465 246.656C176.765 246.488 177.005 246.224 177.197 245.888C177.389 245.552 177.485 245.144 177.485 244.688C177.485 244.232 177.389 243.836 177.197 243.5ZM185.14 241.604C185.548 241.82 185.872 242.144 186.112 242.564C186.34 242.996 186.46 243.5 186.46 244.1V248H185.104V244.304C185.104 243.716 184.948 243.26 184.66 242.948C184.36 242.636 183.952 242.468 183.448 242.468C182.932 242.468 182.524 242.636 182.224 242.948C181.924 243.26 181.78 243.716 181.78 244.304V248H180.412V241.388H181.78V242.144C181.996 241.88 182.284 241.664 182.632 241.508C182.98 241.364 183.352 241.28 183.748 241.28C184.264 241.28 184.732 241.388 185.14 241.604ZM191.975 241.592C192.371 241.796 192.683 242.048 192.911 242.348V241.388H194.291V248.108C194.291 248.72 194.159 249.26 193.907 249.74C193.643 250.22 193.271 250.592 192.791 250.856C192.311 251.132 191.735 251.264 191.063 251.264C190.163 251.264 189.419 251.06 188.831 250.64C188.231 250.22 187.895 249.644 187.823 248.924H189.179C189.275 249.272 189.503 249.548 189.839 249.764C190.175 249.98 190.583 250.076 191.063 250.076C191.615 250.076 192.059 249.908 192.395 249.572C192.731 249.236 192.911 248.756 192.911 248.108V247.004C192.671 247.316 192.359 247.58 191.963 247.796C191.567 248.012 191.123 248.108 190.619 248.108C190.043 248.108 189.515 247.964 189.035 247.676C188.555 247.388 188.183 246.98 187.907 246.452C187.631 245.924 187.499 245.336 187.499 244.664C187.499 244.004 187.631 243.416 187.907 242.9C188.183 242.396 188.555 242 189.035 241.712C189.515 241.424 190.043 241.28 190.619 241.28C191.123 241.28 191.579 241.388 191.975 241.592ZM192.623 243.5C192.431 243.164 192.191 242.912 191.891 242.732C191.579 242.564 191.255 242.468 190.907 242.468C190.547 242.468 190.223 242.564 189.923 242.732C189.611 242.9 189.371 243.152 189.179 243.488C188.987 243.824 188.903 244.208 188.903 244.664C188.903 245.12 188.987 245.528 189.179 245.864C189.371 246.212 189.611 246.476 189.923 246.656C190.235 246.836 190.559 246.92 190.907 246.92C191.255 246.92 191.579 246.836 191.891 246.656C192.191 246.488 192.431 246.224 192.623 245.888C192.815 245.552 192.911 245.144 192.911 244.688C192.911 244.232 192.815 243.836 192.623 243.5ZM201.85 245.204H196.798C196.834 245.732 197.026 246.164 197.386 246.476C197.734 246.8 198.166 246.956 198.682 246.956C199.414 246.956 199.93 246.656 200.242 246.032H201.717C201.514 246.644 201.154 247.148 200.626 247.532C200.098 247.916 199.45 248.108 198.682 248.108C198.046 248.108 197.482 247.976 196.978 247.688C196.474 247.4 196.09 247.004 195.802 246.488C195.514 245.972 195.382 245.372 195.382 244.688C195.382 244.016 195.514 243.416 195.79 242.9C196.066 242.384 196.45 241.988 196.954 241.7C197.458 241.424 198.034 241.28 198.682 241.28C199.306 241.28 199.858 241.424 200.35 241.688C200.83 241.964 201.214 242.348 201.49 242.84C201.754 243.332 201.898 243.896 201.898 244.532C201.898 244.784 201.874 245.012 201.85 245.204ZM200.47 244.1C200.458 243.596 200.278 243.2 199.93 242.888C199.57 242.588 199.138 242.432 198.622 242.432C198.142 242.432 197.746 242.588 197.41 242.888C197.074 243.188 196.87 243.596 196.81 244.1H200.47ZM206.857 247.832C206.449 247.64 206.125 247.388 205.885 247.064C205.645 246.74 205.513 246.38 205.501 245.972H206.917C206.941 246.26 207.073 246.488 207.313 246.68C207.553 246.872 207.865 246.956 208.237 246.956C208.621 246.956 208.909 246.884 209.125 246.74C209.341 246.596 209.449 246.404 209.449 246.164C209.449 245.924 209.329 245.732 209.089 245.612C208.849 245.492 208.477 245.36 207.973 245.216C207.469 245.084 207.073 244.952 206.761 244.82C206.449 244.7 206.173 244.496 205.945 244.232C205.717 243.968 205.609 243.62 205.609 243.188C205.609 242.84 205.705 242.516 205.921 242.228C206.125 241.94 206.425 241.7 206.809 241.532C207.193 241.364 207.649 241.28 208.153 241.28C208.897 241.28 209.509 241.472 209.965 241.856C210.421 242.24 210.673 242.756 210.709 243.404H209.341C209.317 243.116 209.197 242.876 208.981 242.696C208.765 242.528 208.465 242.432 208.105 242.432C207.745 242.432 207.469 242.504 207.277 242.636C207.085 242.78 206.989 242.96 206.989 243.176C206.989 243.356 207.049 243.5 207.181 243.62C207.301 243.74 207.457 243.836 207.649 243.908C207.829 243.98 208.105 244.064 208.465 244.16C208.945 244.292 209.329 244.424 209.641 244.556C209.953 244.688 210.217 244.88 210.445 245.132C210.661 245.396 210.781 245.732 210.793 246.152C210.793 246.536 210.685 246.872 210.481 247.16C210.265 247.46 209.977 247.688 209.593 247.856C209.209 248.024 208.765 248.108 208.261 248.108C207.733 248.108 207.265 248.024 206.857 247.832ZM218.009 241.388V248H216.641V247.22C216.425 247.496 216.137 247.712 215.789 247.868C215.441 248.024 215.069 248.096 214.685 248.096C214.157 248.096 213.689 247.988 213.281 247.772C212.873 247.556 212.549 247.244 212.309 246.812C212.069 246.392 211.961 245.876 211.961 245.276V241.388H213.317V245.072C213.317 245.672 213.461 246.128 213.761 246.44C214.049 246.752 214.457 246.908 214.973 246.908C215.477 246.908 215.885 246.752 216.185 246.44C216.485 246.128 216.641 245.672 216.641 245.072V241.388H218.009ZM223.584 241.592C223.98 241.796 224.292 242.048 224.52 242.348V241.388H225.9V248.108C225.9 248.72 225.768 249.26 225.516 249.74C225.252 250.22 224.88 250.592 224.4 250.856C223.92 251.132 223.344 251.264 222.672 251.264C221.772 251.264 221.028 251.06 220.44 250.64C219.84 250.22 219.504 249.644 219.432 248.924H220.788C220.884 249.272 221.112 249.548 221.448 249.764C221.784 249.98 222.192 250.076 222.672 250.076C223.224 250.076 223.668 249.908 224.004 249.572C224.34 249.236 224.52 248.756 224.52 248.108V247.004C224.28 247.316 223.968 247.58 223.572 247.796C223.176 248.012 222.732 248.108 222.228 248.108C221.652 248.108 221.124 247.964 220.644 247.676C220.164 247.388 219.792 246.98 219.516 246.452C219.24 245.924 219.108 245.336 219.108 244.664C219.108 244.004 219.24 243.416 219.516 242.9C219.792 242.396 220.164 242 220.644 241.712C221.124 241.424 221.652 241.28 222.228 241.28C222.732 241.28 223.188 241.388 223.584 241.592ZM224.232 243.5C224.04 243.164 223.8 242.912 223.5 242.732C223.188 242.564 222.864 242.468 222.516 242.468C222.156 242.468 221.832 242.564 221.532 242.732C221.22 242.9 220.98 243.152 220.788 243.488C220.596 243.824 220.512 244.208 220.512 244.664C220.512 245.12 220.596 245.528 220.788 245.864C220.98 246.212 221.22 246.476 221.532 246.656C221.844 246.836 222.168 246.92 222.516 246.92C222.864 246.92 223.188 246.836 223.5 246.656C223.8 246.488 224.04 246.224 224.232 245.888C224.424 245.552 224.52 245.144 224.52 244.688C224.52 244.232 224.424 243.836 224.232 243.5ZM231.467 241.592C231.863 241.796 232.175 242.048 232.403 242.348V241.388H233.783V248.108C233.783 248.72 233.651 249.26 233.399 249.74C233.135 250.22 232.763 250.592 232.283 250.856C231.803 251.132 231.227 251.264 230.555 251.264C229.655 251.264 228.911 251.06 228.323 250.64C227.723 250.22 227.387 249.644 227.315 248.924H228.671C228.767 249.272 228.995 249.548 229.331 249.764C229.667 249.98 230.075 250.076 230.555 250.076C231.107 250.076 231.551 249.908 231.887 249.572C232.223 249.236 232.403 248.756 232.403 248.108V247.004C232.163 247.316 231.851 247.58 231.455 247.796C231.059 248.012 230.615 248.108 230.111 248.108C229.535 248.108 229.007 247.964 228.527 247.676C228.047 247.388 227.675 246.98 227.399 246.452C227.123 245.924 226.991 245.336 226.991 244.664C226.991 244.004 227.123 243.416 227.399 242.9C227.675 242.396 228.047 242 228.527 241.712C229.007 241.424 229.535 241.28 230.111 241.28C230.615 241.28 231.071 241.388 231.467 241.592ZM232.115 243.5C231.923 243.164 231.683 242.912 231.383 242.732C231.071 242.564 230.747 242.468 230.399 242.468C230.039 242.468 229.715 242.564 229.415 242.732C229.103 242.9 228.863 243.152 228.671 243.488C228.479 243.824 228.395 244.208 228.395 244.664C228.395 245.12 228.479 245.528 228.671 245.864C228.863 246.212 229.103 246.476 229.415 246.656C229.727 246.836 230.051 246.92 230.399 246.92C230.747 246.92 231.071 246.836 231.383 246.656C231.683 246.488 231.923 246.224 232.115 245.888C232.307 245.552 232.403 245.144 232.403 244.688C232.403 244.232 232.307 243.836 232.115 243.5ZM241.342 245.204H236.29C236.326 245.732 236.518 246.164 236.878 246.476C237.226 246.8 237.658 246.956 238.174 246.956C238.906 246.956 239.422 246.656 239.734 246.032H241.21C241.006 246.644 240.646 247.148 240.118 247.532C239.59 247.916 238.942 248.108 238.174 248.108C237.538 248.108 236.974 247.976 236.47 247.688C235.966 247.4 235.582 247.004 235.294 246.488C235.006 245.972 234.874 245.372 234.874 244.688C234.874 244.016 235.006 243.416 235.282 242.9C235.558 242.384 235.942 241.988 236.446 241.7C236.95 241.424 237.526 241.28 238.174 241.28C238.798 241.28 239.35 241.424 239.842 241.688C240.322 241.964 240.706 242.348 240.982 242.84C241.246 243.332 241.39 243.896 241.39 244.532C241.39 244.784 241.366 245.012 241.342 245.204ZM239.962 244.1C239.95 243.596 239.77 243.2 239.422 242.888C239.062 242.588 238.63 242.432 238.114 242.432C237.634 242.432 237.238 242.588 236.902 242.888C236.566 243.188 236.362 243.596 236.302 244.1H239.962ZM243.482 247.832C243.074 247.64 242.75 247.388 242.51 247.064C242.27 246.74 242.138 246.38 242.126 245.972H243.542C243.566 246.26 243.698 246.488 243.938 246.68C244.178 246.872 244.49 246.956 244.862 246.956C245.246 246.956 245.534 246.884 245.75 246.74C245.966 246.596 246.074 246.404 246.074 246.164C246.074 245.924 245.954 245.732 245.714 245.612C245.474 245.492 245.102 245.36 244.598 245.216C244.094 245.084 243.698 244.952 243.386 244.82C243.074 244.7 242.798 244.496 242.57 244.232C242.342 243.968 242.234 243.62 242.234 243.188C242.234 242.84 242.33 242.516 242.546 242.228C242.75 241.94 243.05 241.7 243.434 241.532C243.818 241.364 244.274 241.28 244.778 241.28C245.522 241.28 246.134 241.472 246.59 241.856C247.046 242.24 247.298 242.756 247.334 243.404H245.966C245.942 243.116 245.822 242.876 245.606 242.696C245.39 242.528 245.09 242.432 244.73 242.432C244.37 242.432 244.094 242.504 243.902 242.636C243.71 242.78 243.614 242.96 243.614 243.176C243.614 243.356 243.674 243.5 243.806 243.62C243.926 243.74 244.082 243.836 244.274 243.908C244.454 243.98 244.73 244.064 245.09 244.16C245.57 244.292 245.954 244.424 246.266 244.556C246.578 244.688 246.842 244.88 247.07 245.132C247.286 245.396 247.406 245.732 247.418 246.152C247.418 246.536 247.31 246.872 247.106 247.16C246.89 247.46 246.602 247.688 246.218 247.856C245.834 248.024 245.39 248.108 244.886 248.108C244.358 248.108 243.89 248.024 243.482 247.832ZM250.242 242.504V246.164C250.242 246.416 250.29 246.596 250.41 246.704C250.53 246.812 250.722 246.86 251.01 246.86H251.85V248H250.77C250.146 248 249.678 247.856 249.354 247.568C249.018 247.28 248.862 246.812 248.862 246.164V242.504H248.082V241.388H248.862V239.744H250.242V241.388H251.85V242.504H250.242ZM258.873 245.204H253.821C253.857 245.732 254.049 246.164 254.409 246.476C254.757 246.8 255.189 246.956 255.705 246.956C256.437 246.956 256.953 246.656 257.265 246.032H258.741C258.537 246.644 258.177 247.148 257.649 247.532C257.121 247.916 256.473 248.108 255.705 248.108C255.069 248.108 254.505 247.976 254.001 247.688C253.497 247.4 253.113 247.004 252.825 246.488C252.537 245.972 252.405 245.372 252.405 244.688C252.405 244.016 252.537 243.416 252.813 242.9C253.089 242.384 253.473 241.988 253.977 241.7C254.481 241.424 255.057 241.28 255.705 241.28C256.329 241.28 256.881 241.424 257.373 241.688C257.853 241.964 258.237 242.348 258.513 242.84C258.777 243.332 258.921 243.896 258.921 244.532C258.921 244.784 258.897 245.012 258.873 245.204ZM257.493 244.1C257.481 243.596 257.301 243.2 256.953 242.888C256.593 242.588 256.161 242.432 255.645 242.432C255.165 242.432 254.769 242.588 254.433 242.888C254.097 243.188 253.893 243.596 253.833 244.1H257.493ZM259.969 242.9C260.245 242.396 260.617 242 261.097 241.712C261.577 241.424 262.105 241.28 262.693 241.28C263.125 241.28 263.545 241.376 263.965 241.568C264.385 241.76 264.721 242 264.973 242.312V239.12H266.353V248H264.973V247.004C264.745 247.328 264.433 247.592 264.037 247.796C263.641 248.012 263.185 248.108 262.681 248.108C262.105 248.108 261.577 247.964 261.097 247.676C260.617 247.388 260.245 246.98 259.969 246.452C259.693 245.924 259.561 245.336 259.561 244.664C259.561 244.004 259.693 243.416 259.969 242.9ZM264.685 243.5C264.493 243.164 264.253 242.912 263.953 242.732C263.641 242.564 263.317 242.468 262.969 242.468C262.609 242.468 262.285 242.564 261.985 242.732C261.673 242.9 261.433 243.152 261.241 243.488C261.049 243.824 260.965 244.208 260.965 244.664C260.965 245.12 261.049 245.528 261.241 245.864C261.433 246.212 261.673 246.476 261.985 246.656C262.297 246.836 262.621 246.92 262.969 246.92C263.317 246.92 263.641 246.836 263.953 246.656C264.253 246.488 264.493 246.224 264.685 245.888C264.877 245.552 264.973 245.144 264.973 244.688C264.973 244.232 264.877 243.836 264.685 243.5ZM271.943 247.688C271.439 247.4 271.043 247.004 270.755 246.488C270.467 245.972 270.323 245.372 270.323 244.688C270.323 244.016 270.467 243.428 270.767 242.9C271.055 242.384 271.463 241.988 271.979 241.7C272.483 241.424 273.059 241.28 273.695 241.28C274.319 241.28 274.895 241.424 275.411 241.7C275.915 241.988 276.323 242.384 276.623 242.9C276.911 243.428 277.067 244.016 277.067 244.688C277.067 245.36 276.911 245.96 276.611 246.476C276.299 247.004 275.891 247.4 275.363 247.688C274.835 247.976 274.259 248.108 273.635 248.108C273.011 248.108 272.447 247.976 271.943 247.688ZM274.619 246.668C274.931 246.5 275.183 246.248 275.375 245.912C275.567 245.576 275.663 245.168 275.663 244.688C275.663 244.208 275.567 243.812 275.387 243.476C275.195 243.14 274.955 242.888 274.655 242.72C274.343 242.552 274.019 242.468 273.671 242.468C273.311 242.468 272.987 242.552 272.687 242.72C272.387 242.888 272.147 243.14 271.979 243.476C271.799 243.812 271.715 244.208 271.715 244.688C271.715 245.408 271.895 245.96 272.255 246.344C272.615 246.728 273.083 246.92 273.635 246.92C273.983 246.92 274.307 246.836 274.619 246.668ZM282.898 241.604C283.306 241.82 283.63 242.144 283.87 242.564C284.098 242.996 284.218 243.5 284.218 244.1V248H282.862V244.304C282.862 243.716 282.706 243.26 282.418 242.948C282.118 242.636 281.71 242.468 281.206 242.468C280.69 242.468 280.282 242.636 279.982 242.948C279.682 243.26 279.538 243.716 279.538 244.304V248H278.17V241.388H279.538V242.144C279.754 241.88 280.042 241.664 280.39 241.508C280.738 241.364 281.11 241.28 281.506 241.28C282.022 241.28 282.49 241.388 282.898 241.604ZM288.508 247.832C288.34 247.664 288.256 247.46 288.256 247.208C288.256 246.968 288.34 246.752 288.508 246.584C288.676 246.416 288.88 246.332 289.132 246.332C289.372 246.332 289.576 246.416 289.744 246.584C289.912 246.752 289.996 246.968 289.996 247.208C289.996 247.46 289.912 247.664 289.744 247.832C289.576 248 289.372 248.084 289.132 248.084C288.88 248.084 288.676 248 288.508 247.832ZM288.508 242.792C288.34 242.624 288.256 242.42 288.256 242.168C288.256 241.928 288.34 241.712 288.508 241.544C288.676 241.376 288.88 241.292 289.132 241.292C289.372 241.292 289.576 241.376 289.744 241.544C289.912 241.712 289.996 241.928 289.996 242.168C289.996 242.42 289.912 242.624 289.744 242.792C289.576 242.96 289.372 243.044 289.132 243.044C288.88 243.044 288.676 242.96 288.508 242.792ZM293.778 240.5V239.252H296.274V248H294.894V240.5H293.778ZM300.124 246.536C300.388 246.752 300.736 246.848 301.192 246.848C301.756 246.848 302.176 246.632 302.44 246.176C302.704 245.732 302.836 244.964 302.836 243.884C302.644 244.16 302.368 244.376 302.02 244.52C301.672 244.664 301.3 244.736 300.892 244.736C300.364 244.736 299.896 244.64 299.476 244.424C299.044 244.208 298.708 243.896 298.468 243.476C298.228 243.056 298.108 242.54 298.108 241.94C298.108 241.064 298.36 240.368 298.876 239.84C299.392 239.312 300.1 239.048 301.012 239.048C302.092 239.048 302.872 239.42 303.328 240.14C303.784 240.86 304.024 241.976 304.024 243.464C304.024 244.496 303.928 245.348 303.76 245.996C303.592 246.656 303.292 247.148 302.872 247.484C302.44 247.82 301.852 247.988 301.108 247.988C300.244 247.988 299.584 247.772 299.128 247.316C298.66 246.872 298.396 246.308 298.348 245.624H299.608C299.68 246.032 299.86 246.332 300.124 246.536ZM302.26 243.14C302.536 242.84 302.68 242.444 302.68 241.94C302.68 241.388 302.524 240.968 302.236 240.656C301.948 240.344 301.552 240.188 301.048 240.188C300.544 240.188 300.136 240.356 299.848 240.668C299.56 240.98 299.416 241.4 299.416 241.904C299.416 242.396 299.548 242.804 299.836 243.116C300.124 243.428 300.556 243.584 301.132 243.584C301.612 243.584 301.984 243.44 302.26 243.14ZM309.891 236.672L306.627 250.1H305.283L308.535 236.672H309.891ZM311.005 240.5V239.252H313.501V248H312.121V240.5H311.005ZM314.95 240.5V239.252H317.446V248H316.066V240.5H314.95ZM323.695 236.672L320.431 250.1H319.087L322.339 236.672H323.695ZM325.746 246.14C326.514 245.48 327.114 244.94 327.558 244.508C328.002 244.076 328.374 243.632 328.674 243.164C328.962 242.708 329.118 242.24 329.118 241.772C329.118 241.292 328.998 240.92 328.77 240.644C328.542 240.38 328.182 240.236 327.702 240.236C327.222 240.236 326.862 240.392 326.598 240.692C326.334 240.992 326.202 241.388 326.19 241.892H324.87C324.894 240.98 325.158 240.284 325.686 239.804C326.214 239.324 326.874 239.072 327.69 239.072C328.554 239.072 329.238 239.312 329.73 239.792C330.222 240.272 330.474 240.92 330.474 241.712C330.474 242.288 330.318 242.852 330.03 243.38C329.742 243.908 329.394 244.388 328.986 244.808C328.578 245.228 328.074 245.708 327.45 246.26L326.91 246.74H330.714V247.88H324.882V246.884L325.746 246.14ZM332.361 240.272C332.829 239.492 333.633 239.096 334.785 239.096C335.925 239.096 336.729 239.492 337.197 240.272C337.665 241.052 337.905 242.132 337.905 243.512C337.905 244.916 337.665 246.008 337.197 246.8C336.729 247.592 335.925 247.976 334.785 247.976C333.633 247.976 332.829 247.592 332.361 246.8C331.893 246.008 331.665 244.916 331.665 243.512C331.665 242.132 331.893 241.052 332.361 240.272ZM336.429 241.868C336.345 241.424 336.177 241.064 335.925 240.776C335.661 240.488 335.289 240.344 334.785 240.344C334.281 240.344 333.897 240.488 333.645 240.776C333.381 241.064 333.213 241.424 333.129 241.868C333.045 242.324 333.009 242.864 333.009 243.512C333.009 244.184 333.045 244.748 333.129 245.204C333.201 245.66 333.369 246.032 333.633 246.308C333.897 246.596 334.281 246.728 334.785 246.728C335.289 246.728 335.661 246.596 335.925 246.308C336.189 246.032 336.357 245.66 336.441 245.204C336.513 244.748 336.561 244.184 336.561 243.512C336.561 242.864 336.513 242.324 336.429 241.868ZM339.859 246.14C340.627 245.48 341.227 244.94 341.671 244.508C342.115 244.076 342.487 243.632 342.787 243.164C343.075 242.708 343.231 242.24 343.231 241.772C343.231 241.292 343.111 240.92 342.883 240.644C342.655 240.38 342.295 240.236 341.815 240.236C341.335 240.236 340.975 240.392 340.711 240.692C340.447 240.992 340.315 241.388 340.303 241.892H338.983C339.007 240.98 339.271 240.284 339.799 239.804C340.327 239.324 340.987 239.072 341.803 239.072C342.667 239.072 343.351 239.312 343.843 239.792C344.335 240.272 344.587 240.92 344.587 241.712C344.587 242.288 344.431 242.852 344.143 243.38C343.855 243.908 343.507 244.388 343.099 244.808C342.691 245.228 342.187 245.708 341.563 246.26L341.023 246.74H344.827V247.88H338.995V246.884L339.859 246.14ZM345.611 246.176V245.144L349.643 239.36H351.299V244.988H352.415V246.176H351.299V248H349.955V246.176H345.611ZM350.015 240.752L347.183 244.988H350.015V240.752Z" fill="#121212"/>
<path d="M22.2441 23H21.166V14.4336H25.9531V15.3828H22.2441V18.418H25.7246V19.3613H22.2441V23ZM28.3086 23H27.2539V16.5664H28.3086V23ZM27.1719 14.8262C27.1719 14.5918 27.2305 14.4219 27.3477 14.3164C27.4688 14.2109 27.6172 14.1582 27.793 14.1582C27.957 14.1582 28.0996 14.2109 28.2207 14.3164C28.3457 14.4219 28.4082 14.5918 28.4082 14.8262C28.4082 15.0566 28.3457 15.2266 28.2207 15.3359C28.0996 15.4453 27.957 15.5 27.793 15.5C27.6172 15.5 27.4688 15.4453 27.3477 15.3359C27.2305 15.2266 27.1719 15.0566 27.1719 14.8262ZM31.4023 23H30.3477V13.8828H31.4023V23ZM35.5918 22.2559C35.7285 22.2559 35.8887 22.2422 36.0723 22.2148C36.2559 22.1875 36.3945 22.1562 36.4883 22.1211V22.9297C36.3906 22.9727 36.2383 23.0137 36.0312 23.0527C35.8281 23.0957 35.6211 23.1172 35.4102 23.1172C34.1523 23.1172 33.5234 22.4551 33.5234 21.1309V17.3867H32.6152V16.8828L33.5352 16.4609L33.957 15.0898H34.584V16.5664H36.4414V17.3867H34.584V21.1016C34.584 21.4727 34.6719 21.7578 34.8477 21.957C35.0273 22.1562 35.2754 22.2559 35.5918 22.2559ZM40.5137 23.1172C39.5488 23.1172 38.791 22.8262 38.2402 22.2441C37.6934 21.6582 37.4199 20.8535 37.4199 19.8301C37.4199 18.7988 37.6758 17.9785 38.1875 17.3691C38.6992 16.7559 39.3906 16.4492 40.2617 16.4492C41.0703 16.4492 41.7148 16.7109 42.1953 17.2344C42.6758 17.7539 42.916 18.459 42.916 19.3496V19.9883H38.5098C38.5293 20.7188 38.7148 21.2734 39.0664 21.6523C39.418 22.0312 39.916 22.2207 40.5605 22.2207C40.9043 22.2207 41.2305 22.1914 41.5391 22.1328C41.8477 22.0703 42.209 21.9512 42.623 21.7754V22.7012C42.2676 22.8535 41.9336 22.9609 41.6211 23.0234C41.3086 23.0859 40.9395 23.1172 40.5137 23.1172ZM40.25 17.3105C39.7461 17.3105 39.3477 17.4727 39.0547 17.7969C38.7617 18.1211 38.5879 18.5723 38.5332 19.1504H41.8086C41.8008 18.5488 41.6621 18.0918 41.3926 17.7793C41.123 17.4668 40.7422 17.3105 40.25 17.3105ZM47.5508 16.4492C47.8359 16.4492 48.0879 16.4727 48.3066 16.5195L48.1777 17.4922C47.9395 17.4375 47.707 17.4102 47.4805 17.4102C47.1406 17.4102 46.8242 17.5039 46.5312 17.6914C46.2422 17.8789 46.0156 18.1387 45.8516 18.4707C45.6875 18.7988 45.6055 19.1641 45.6055 19.5664V23H44.5508V16.5664H45.418L45.5352 17.7441H45.582C45.8281 17.3184 46.1191 16.9961 46.4551 16.7773C46.791 16.5586 47.1562 16.4492 47.5508 16.4492ZM54.9043 23.1172C54.0684 23.1172 53.4199 22.8281 52.959 22.25C52.498 21.6719 52.2676 20.8535 52.2676 19.7949C52.2676 18.7441 52.498 17.9238 52.959 17.334C53.4238 16.7441 54.0762 16.4492 54.916 16.4492C55.7793 16.4492 56.4434 16.7656 56.9082 17.3984H56.9844C56.9727 17.3203 56.957 17.1641 56.9375 16.9297C56.918 16.6914 56.9082 16.5312 56.9082 16.4492V13.8828H57.9629V23H57.1133L56.9551 22.1387H56.9082C56.459 22.791 55.791 23.1172 54.9043 23.1172ZM55.0742 22.2441C55.7148 22.2441 56.1816 22.0703 56.4746 21.7227C56.7715 21.3711 56.9199 20.7969 56.9199 20V19.8066C56.9199 18.9121 56.7695 18.2754 56.4688 17.8965C56.1719 17.5137 55.7031 17.3223 55.0625 17.3223C54.5195 17.3223 54.0996 17.5391 53.8027 17.9727C53.5059 18.4023 53.3574 19.0176 53.3574 19.8184C53.3574 20.6152 53.5039 21.2188 53.7969 21.6289C54.0938 22.0391 54.5195 22.2441 55.0742 22.2441ZM61.0625 23H60.0078V16.5664H61.0625V23ZM59.9258 14.8262C59.9258 14.5918 59.9844 14.4219 60.1016 14.3164C60.2227 14.2109 60.3711 14.1582 60.5469 14.1582C60.7109 14.1582 60.8535 14.2109 60.9746 14.3164C61.0996 14.4219 61.1621 14.5918 61.1621 14.8262C61.1621 15.0566 61.0996 15.2266 60.9746 15.3359C60.8535 15.4453 60.7109 15.5 60.5469 15.5C60.3711 15.5 60.2227 15.4453 60.1016 15.3359C59.9844 15.2266 59.9258 15.0566 59.9258 14.8262ZM66.0664 17.3867H64.4434V23H63.3887V17.3867H62.2637V16.8945L63.3887 16.5312V16.1621C63.3887 15.3809 63.5586 14.7949 63.8984 14.4043C64.2422 14.0137 64.7695 13.8184 65.4805 13.8184C65.8906 13.8184 66.3066 13.8906 66.7285 14.0352L66.4473 14.8613C66.084 14.7441 65.7656 14.6855 65.4922 14.6855C65.1367 14.6855 64.873 14.8027 64.7012 15.0371C64.5293 15.2715 64.4434 15.6426 64.4434 16.1504V16.5664H66.0664V17.3867ZM70.2031 17.3867H68.5801V23H67.5254V17.3867H66.4004V16.8945L67.5254 16.5312V16.1621C67.5254 15.3809 67.6953 14.7949 68.0352 14.4043C68.3789 14.0137 68.9062 13.8184 69.6172 13.8184C70.0273 13.8184 70.4434 13.8906 70.8652 14.0352L70.584 14.8613C70.2207 14.7441 69.9023 14.6855 69.6289 14.6855C69.2734 14.6855 69.0098 14.8027 68.8379 15.0371C68.666 15.2715 68.5801 15.6426 68.5801 16.1504V16.5664H70.2031V17.3867ZM74.1113 23.1172C73.1465 23.1172 72.3887 22.8262 71.8379 22.2441C71.291 21.6582 71.0176 20.8535 71.0176 19.8301C71.0176 18.7988 71.2734 17.9785 71.7852 17.3691C72.2969 16.7559 72.9883 16.4492 73.8594 16.4492C74.668 16.4492 75.3125 16.7109 75.793 17.2344C76.2734 17.7539 76.5137 18.459 76.5137 19.3496V19.9883H72.1074C72.127 20.7188 72.3125 21.2734 72.6641 21.6523C73.0156 22.0312 73.5137 22.2207 74.1582 22.2207C74.502 22.2207 74.8281 22.1914 75.1367 22.1328C75.4453 22.0703 75.8066 21.9512 76.2207 21.7754V22.7012C75.8652 22.8535 75.5312 22.9609 75.2188 23.0234C74.9062 23.0859 74.5371 23.1172 74.1113 23.1172ZM73.8477 17.3105C73.3438 17.3105 72.9453 17.4727 72.6523 17.7969C72.3594 18.1211 72.1855 18.5723 72.1309 19.1504H75.4062C75.3984 18.5488 75.2598 18.0918 74.9902 17.7793C74.7207 17.4668 74.3398 17.3105 73.8477 17.3105ZM81.1484 16.4492C81.4336 16.4492 81.6855 16.4727 81.9043 16.5195L81.7754 17.4922C81.5371 17.4375 81.3047 17.4102 81.0781 17.4102C80.7383 17.4102 80.4219 17.5039 80.1289 17.6914C79.8398 17.8789 79.6133 18.1387 79.4492 18.4707C79.2852 18.7988 79.2031 19.1641 79.2031 19.5664V23H78.1484V16.5664H79.0156L79.1328 17.7441H79.1797C79.4258 17.3184 79.7168 16.9961 80.0527 16.7773C80.3887 16.5586 80.7539 16.4492 81.1484 16.4492ZM85.7246 23.1172C84.7598 23.1172 84.002 22.8262 83.4512 22.2441C82.9043 21.6582 82.6309 20.8535 82.6309 19.8301C82.6309 18.7988 82.8867 17.9785 83.3984 17.3691C83.9102 16.7559 84.6016 16.4492 85.4727 16.4492C86.2812 16.4492 86.9258 16.7109 87.4062 17.2344C87.8867 17.7539 88.127 18.459 88.127 19.3496V19.9883H83.7207C83.7402 20.7188 83.9258 21.2734 84.2773 21.6523C84.6289 22.0312 85.127 22.2207 85.7715 22.2207C86.1152 22.2207 86.4414 22.1914 86.75 22.1328C87.0586 22.0703 87.4199 21.9512 87.834 21.7754V22.7012C87.4785 22.8535 87.1445 22.9609 86.832 23.0234C86.5195 23.0859 86.1504 23.1172 85.7246 23.1172ZM85.4609 17.3105C84.957 17.3105 84.5586 17.4727 84.2656 17.7969C83.9727 18.1211 83.7988 18.5723 83.7441 19.1504H87.0195C87.0117 18.5488 86.873 18.0918 86.6035 17.7793C86.334 17.4668 85.9531 17.3105 85.4609 17.3105ZM94.1445 23V18.8867C94.1445 18.3633 94.0273 17.9746 93.793 17.7207C93.5625 17.4629 93.1992 17.334 92.7031 17.334C92.043 17.334 91.5625 17.5176 91.2617 17.8848C90.9648 18.248 90.8164 18.8418 90.8164 19.666V23H89.7617V16.5664H90.6113L90.7695 17.4453H90.8281C91.0273 17.1289 91.3066 16.8848 91.666 16.7129C92.0254 16.5371 92.4219 16.4492 92.8555 16.4492C93.6445 16.4492 94.2305 16.6406 94.6133 17.0234C94.9961 17.4062 95.1875 18.002 95.1875 18.8105V23H94.1445ZM99.3301 22.2559C99.4668 22.2559 99.627 22.2422 99.8105 22.2148C99.9941 22.1875 100.133 22.1562 100.227 22.1211V22.9297C100.129 22.9727 99.9766 23.0137 99.7695 23.0527C99.5664 23.0957 99.3594 23.1172 99.1484 23.1172C97.8906 23.1172 97.2617 22.4551 97.2617 21.1309V17.3867H96.3535V16.8828L97.2734 16.4609L97.6953 15.0898H98.3223V16.5664H100.18V17.3867H98.3223V21.1016C98.3223 21.4727 98.4102 21.7578 98.5859 21.957C98.7656 22.1562 99.0137 22.2559 99.3301 22.2559ZM102.57 23H101.516V16.5664H102.57V23ZM101.434 14.8262C101.434 14.5918 101.492 14.4219 101.609 14.3164C101.73 14.2109 101.879 14.1582 102.055 14.1582C102.219 14.1582 102.361 14.2109 102.482 14.3164C102.607 14.4219 102.67 14.5918 102.67 14.8262C102.67 15.0566 102.607 15.2266 102.482 15.3359C102.361 15.4453 102.219 15.5 102.055 15.5C101.879 15.5 101.73 15.4453 101.609 15.3359C101.492 15.2266 101.434 15.0566 101.434 14.8262ZM108.582 23L108.377 22.0859H108.33C108.01 22.4883 107.689 22.7617 107.369 22.9062C107.053 23.0469 106.652 23.1172 106.168 23.1172C105.535 23.1172 105.039 22.9512 104.68 22.6191C104.32 22.2871 104.141 21.8184 104.141 21.2129C104.141 19.9082 105.17 19.2246 107.229 19.1621L108.318 19.1211V18.7402C108.318 18.252 108.213 17.8926 108.002 17.6621C107.791 17.4277 107.453 17.3105 106.988 17.3105C106.648 17.3105 106.326 17.3613 106.021 17.4629C105.721 17.5645 105.438 17.6777 105.172 17.8027L104.85 17.0117C105.174 16.8398 105.527 16.7051 105.91 16.6074C106.293 16.5098 106.672 16.4609 107.047 16.4609C107.824 16.4609 108.402 16.6328 108.781 16.9766C109.16 17.3203 109.35 17.8672 109.35 18.6172V23H108.582ZM106.408 22.2676C106.998 22.2676 107.461 22.1094 107.797 21.793C108.137 21.4727 108.307 21.0195 108.307 20.4336V19.8535L107.357 19.8945C106.619 19.9219 106.08 20.0391 105.74 20.2461C105.404 20.4531 105.236 20.7793 105.236 21.2246C105.236 21.5605 105.338 21.8184 105.541 21.998C105.748 22.1777 106.037 22.2676 106.408 22.2676ZM112.402 23H111.348V13.8828H112.402V23ZM120.605 23.1172C119.742 23.1172 119.078 22.8066 118.613 22.1855H118.543L118.566 22.4258C118.598 22.7305 118.613 23.002 118.613 23.2402V25.8828H117.559V16.5664H118.426L118.566 17.4453H118.613C118.863 17.0938 119.152 16.8398 119.48 16.6836C119.809 16.5273 120.188 16.4492 120.617 16.4492C121.453 16.4492 122.102 16.7402 122.562 17.3223C123.027 17.9004 123.26 18.7168 123.26 19.7715C123.26 20.8223 123.027 21.6426 122.562 22.2324C122.098 22.8223 121.445 23.1172 120.605 23.1172ZM120.43 17.334C119.793 17.334 119.332 17.5137 119.047 17.873C118.766 18.2324 118.621 18.7969 118.613 19.5664V19.7715C118.613 20.6426 118.758 21.2734 119.047 21.6641C119.336 22.0508 119.805 22.2441 120.453 22.2441C120.992 22.2441 121.412 22.0254 121.713 21.5879C122.018 21.1504 122.17 20.541 122.17 19.7598C122.17 18.9746 122.018 18.375 121.713 17.9609C121.412 17.543 120.984 17.334 120.43 17.334ZM127.941 16.4492C128.227 16.4492 128.479 16.4727 128.697 16.5195L128.568 17.4922C128.33 17.4375 128.098 17.4102 127.871 17.4102C127.531 17.4102 127.215 17.5039 126.922 17.6914C126.633 17.8789 126.406 18.1387 126.242 18.4707C126.078 18.7988 125.996 19.1641 125.996 19.5664V23H124.941V16.5664H125.809L125.926 17.7441H125.973C126.219 17.3184 126.51 16.9961 126.846 16.7773C127.182 16.5586 127.547 16.4492 127.941 16.4492ZM132.518 23.1172C131.553 23.1172 130.795 22.8262 130.244 22.2441C129.697 21.6582 129.424 20.8535 129.424 19.8301C129.424 18.7988 129.68 17.9785 130.191 17.3691C130.703 16.7559 131.395 16.4492 132.266 16.4492C133.074 16.4492 133.719 16.7109 134.199 17.2344C134.68 17.7539 134.92 18.459 134.92 19.3496V19.9883H130.514C130.533 20.7188 130.719 21.2734 131.07 21.6523C131.422 22.0312 131.92 22.2207 132.564 22.2207C132.908 22.2207 133.234 22.1914 133.543 22.1328C133.852 22.0703 134.213 21.9512 134.627 21.7754V22.7012C134.271 22.8535 133.938 22.9609 133.625 23.0234C133.312 23.0859 132.943 23.1172 132.518 23.1172ZM132.254 17.3105C131.75 17.3105 131.352 17.4727 131.059 17.7969C130.766 18.1211 130.592 18.5723 130.537 19.1504H133.812C133.805 18.5488 133.666 18.0918 133.396 17.7793C133.127 17.4668 132.746 17.3105 132.254 17.3105ZM140.744 21.2246C140.744 21.8262 140.52 22.293 140.07 22.625C139.621 22.9531 138.99 23.1172 138.178 23.1172C137.33 23.1172 136.656 22.9824 136.156 22.7129V21.752C136.863 22.0957 137.545 22.2676 138.201 22.2676C138.732 22.2676 139.119 22.1816 139.361 22.0098C139.604 21.8379 139.725 21.6074 139.725 21.3184C139.725 21.0645 139.607 20.8496 139.373 20.6738C139.143 20.498 138.73 20.2969 138.137 20.0703C137.531 19.8359 137.105 19.6367 136.859 19.4727C136.613 19.3047 136.432 19.1172 136.314 18.9102C136.201 18.7031 136.145 18.4512 136.145 18.1543C136.145 17.627 136.359 17.2109 136.789 16.9062C137.219 16.6016 137.809 16.4492 138.559 16.4492C139.289 16.4492 139.973 16.5938 140.609 16.8828L140.252 17.7207C139.6 17.4473 139.012 17.3105 138.488 17.3105C138.051 17.3105 137.719 17.3809 137.492 17.5215C137.266 17.6582 137.152 17.8477 137.152 18.0898C137.152 18.3242 137.25 18.5195 137.445 18.6758C137.641 18.8281 138.096 19.041 138.811 19.3145C139.346 19.5137 139.74 19.6992 139.994 19.8711C140.252 20.043 140.441 20.2363 140.562 20.4512C140.684 20.666 140.744 20.9238 140.744 21.2246ZM146.498 21.2246C146.498 21.8262 146.273 22.293 145.824 22.625C145.375 22.9531 144.744 23.1172 143.932 23.1172C143.084 23.1172 142.41 22.9824 141.91 22.7129V21.752C142.617 22.0957 143.299 22.2676 143.955 22.2676C144.486 22.2676 144.873 22.1816 145.115 22.0098C145.357 21.8379 145.479 21.6074 145.479 21.3184C145.479 21.0645 145.361 20.8496 145.127 20.6738C144.896 20.498 144.484 20.2969 143.891 20.0703C143.285 19.8359 142.859 19.6367 142.613 19.4727C142.367 19.3047 142.186 19.1172 142.068 18.9102C141.955 18.7031 141.898 18.4512 141.898 18.1543C141.898 17.627 142.113 17.2109 142.543 16.9062C142.973 16.6016 143.562 16.4492 144.312 16.4492C145.043 16.4492 145.727 16.5938 146.363 16.8828L146.006 17.7207C145.354 17.4473 144.766 17.3105 144.242 17.3105C143.805 17.3105 143.473 17.3809 143.246 17.5215C143.02 17.6582 142.906 17.8477 142.906 18.0898C142.906 18.3242 143.004 18.5195 143.199 18.6758C143.395 18.8281 143.85 19.041 144.564 19.3145C145.1 19.5137 145.494 19.6992 145.748 19.8711C146.006 20.043 146.195 20.2363 146.316 20.4512C146.438 20.666 146.498 20.9238 146.498 21.2246ZM149.059 16.5664V20.709C149.059 21.2285 149.174 21.6152 149.404 21.8691C149.639 22.1191 150 22.2441 150.488 22.2441C151.148 22.2441 151.629 22.0605 151.93 21.6934C152.23 21.3262 152.381 20.7344 152.381 19.918V16.5664H153.441V23H152.574L152.422 22.1504H152.369C152.178 22.459 151.906 22.6973 151.555 22.8652C151.203 23.0332 150.795 23.1172 150.33 23.1172C149.557 23.1172 148.973 22.9316 148.578 22.5605C148.188 22.1895 147.992 21.5957 147.992 20.7793V16.5664H149.059ZM158.48 16.4492C158.766 16.4492 159.018 16.4727 159.236 16.5195L159.107 17.4922C158.869 17.4375 158.637 17.4102 158.41 17.4102C158.07 17.4102 157.754 17.5039 157.461 17.6914C157.172 17.8789 156.945 18.1387 156.781 18.4707C156.617 18.7988 156.535 19.1641 156.535 19.5664V23H155.48V16.5664H156.348L156.465 17.7441H156.512C156.758 17.3184 157.049 16.9961 157.385 16.7773C157.721 16.5586 158.086 16.4492 158.48 16.4492ZM163.057 23.1172C162.092 23.1172 161.334 22.8262 160.783 22.2441C160.236 21.6582 159.963 20.8535 159.963 19.8301C159.963 18.7988 160.219 17.9785 160.73 17.3691C161.242 16.7559 161.934 16.4492 162.805 16.4492C163.613 16.4492 164.258 16.7109 164.738 17.2344C165.219 17.7539 165.459 18.459 165.459 19.3496V19.9883H161.053C161.072 20.7188 161.258 21.2734 161.609 21.6523C161.961 22.0312 162.459 22.2207 163.104 22.2207C163.447 22.2207 163.773 22.1914 164.082 22.1328C164.391 22.0703 164.752 21.9512 165.166 21.7754V22.7012C164.811 22.8535 164.477 22.9609 164.164 23.0234C163.852 23.0859 163.482 23.1172 163.057 23.1172ZM162.793 17.3105C162.289 17.3105 161.891 17.4727 161.598 17.7969C161.305 18.1211 161.131 18.5723 161.076 19.1504H164.352C164.344 18.5488 164.205 18.0918 163.936 17.7793C163.666 17.4668 163.285 17.3105 162.793 17.3105ZM172.812 24.9863H170.486V13.0156H172.812V13.8535H171.453V24.1484H172.812V24.9863ZM182.674 23V18.8574C182.674 17.8418 182.238 17.334 181.367 17.334C180.77 17.334 180.33 17.5078 180.049 17.8555C179.768 18.2031 179.627 18.7344 179.627 19.4492V23H178.578V18.8574C178.578 18.3496 178.471 17.9688 178.256 17.7148C178.045 17.4609 177.713 17.334 177.26 17.334C176.666 17.334 176.23 17.5156 175.953 17.8789C175.68 18.2422 175.543 18.8379 175.543 19.666V23H174.488V16.5664H175.338L175.496 17.4453H175.555C175.738 17.1328 175.996 16.8887 176.328 16.7129C176.664 16.5371 177.039 16.4492 177.453 16.4492C178.461 16.4492 179.117 16.8086 179.422 17.5273H179.48C179.688 17.1836 179.969 16.918 180.324 16.7305C180.684 16.543 181.09 16.4492 181.543 16.4492C182.27 16.4492 182.812 16.6367 183.172 17.0117C183.535 17.3867 183.717 17.9863 183.717 18.8105V23H182.674ZM193.9 23V18.8574C193.9 17.8418 193.465 17.334 192.594 17.334C191.996 17.334 191.557 17.5078 191.275 17.8555C190.994 18.2031 190.854 18.7344 190.854 19.4492V23H189.805V18.8574C189.805 18.3496 189.697 17.9688 189.482 17.7148C189.271 17.4609 188.939 17.334 188.486 17.334C187.893 17.334 187.457 17.5156 187.18 17.8789C186.906 18.2422 186.77 18.8379 186.77 19.666V23H185.715V16.5664H186.564L186.723 17.4453H186.781C186.965 17.1328 187.223 16.8887 187.555 16.7129C187.891 16.5371 188.266 16.4492 188.68 16.4492C189.688 16.4492 190.344 16.8086 190.648 17.5273H190.707C190.914 17.1836 191.195 16.918 191.551 16.7305C191.91 16.543 192.316 16.4492 192.77 16.4492C193.496 16.4492 194.039 16.6367 194.398 17.0117C194.762 17.3867 194.943 17.9863 194.943 18.8105V23H193.9ZM203.639 23H202.561V19.0039H198.166V23H197.088V14.4336H198.166V18.0547H202.561V14.4336H203.639V23ZM210.723 23H205.379V22.0859L207.43 19.8535C207.723 19.5371 207.984 19.248 208.215 18.9863C208.445 18.7246 208.641 18.4688 208.801 18.2188C208.965 17.9688 209.09 17.7188 209.176 17.4688C209.262 17.2148 209.305 16.9395 209.305 16.6426C209.305 16.4121 209.271 16.209 209.205 16.0332C209.139 15.8574 209.043 15.709 208.918 15.5879C208.797 15.4629 208.652 15.3691 208.484 15.3066C208.316 15.2441 208.129 15.2129 207.922 15.2129C207.551 15.2129 207.215 15.2891 206.914 15.4414C206.617 15.5898 206.334 15.7812 206.064 16.0156L205.467 15.3184C205.623 15.1777 205.791 15.0469 205.971 14.9258C206.15 14.8008 206.344 14.6934 206.551 14.6035C206.758 14.5137 206.977 14.4434 207.207 14.3926C207.438 14.3379 207.68 14.3105 207.934 14.3105C208.309 14.3105 208.646 14.3633 208.947 14.4688C209.252 14.5742 209.51 14.7266 209.721 14.9258C209.932 15.1211 210.094 15.3613 210.207 15.6465C210.324 15.9277 210.383 16.2461 210.383 16.6016C210.383 16.9336 210.33 17.25 210.225 17.5508C210.123 17.8516 209.98 18.1484 209.797 18.4414C209.617 18.7305 209.4 19.0215 209.146 19.3145C208.896 19.6074 208.625 19.9121 208.332 20.2285L206.686 21.9805V22.0273H210.723V23ZM220.068 18.7051C220.068 20.0762 219.721 21.1543 219.025 21.9395C218.334 22.7246 217.365 23.1172 216.119 23.1172C214.857 23.1172 213.881 22.7324 213.189 21.9629C212.502 21.1895 212.158 20.0996 212.158 18.6934C212.158 17.2988 212.5 16.2188 213.184 15.4531C213.871 14.6836 214.854 14.2988 216.131 14.2988C217.373 14.2988 218.34 14.6895 219.031 15.4707C219.723 16.248 220.068 17.3262 220.068 18.7051ZM213.295 18.7051C213.295 19.8379 213.535 20.7012 214.016 21.2949C214.496 21.8887 215.197 22.1855 216.119 22.1855C217.037 22.1855 217.734 21.8926 218.211 21.3066C218.688 20.7207 218.926 19.8535 218.926 18.7051C218.926 17.5605 218.689 16.6992 218.217 16.1211C217.744 15.5391 217.049 15.248 216.131 15.248C215.201 15.248 214.496 15.543 214.016 16.1328C213.535 16.7188 213.295 17.5762 213.295 18.7051ZM228.828 18.6348C228.828 20.0488 228.441 21.1309 227.668 21.8809C226.898 22.627 225.793 23 224.352 23H221.967V14.4336H224.604C225.936 14.4336 226.973 14.8008 227.715 15.5352C228.457 16.2656 228.828 17.2988 228.828 18.6348ZM227.691 18.6699C227.691 17.5801 227.422 16.7559 226.883 16.1973C226.348 15.6348 225.537 15.3535 224.451 15.3535H223.045V22.0742H224.211C226.531 22.0742 227.691 20.9395 227.691 18.6699ZM230.211 24.1484H231.564V13.8594H230.211V13.0215H232.543V24.9863H230.211V24.1484ZM236.568 14.252L236.65 14.3809C236.596 14.5957 236.529 14.8223 236.451 15.0605C236.377 15.2949 236.293 15.5352 236.199 15.7812C236.109 16.0234 236.014 16.2637 235.912 16.502C235.814 16.7402 235.717 16.9688 235.619 17.1875H234.816C234.871 16.9531 234.926 16.707 234.98 16.4492C235.039 16.1914 235.094 15.9336 235.145 15.6758C235.199 15.418 235.248 15.168 235.291 14.9258C235.334 14.6836 235.371 14.459 235.402 14.252H236.568ZM238.824 14.252L238.906 14.3809C238.852 14.5957 238.785 14.8223 238.707 15.0605C238.633 15.2949 238.549 15.5352 238.455 15.7812C238.365 16.0234 238.27 16.2637 238.168 16.502C238.07 16.7402 237.973 16.9688 237.875 17.1875H237.072C237.127 16.9531 237.182 16.707 237.236 16.4492C237.295 16.1914 237.35 15.9336 237.4 15.6758C237.455 15.418 237.504 15.168 237.547 14.9258C237.59 14.6836 237.627 14.459 237.658 14.252H238.824Z" fill="#121212"/>
<g clip-path="url(#clip1_0_1)">
<path d="M21.4277 60L24.7266 52.4062H20.3086V51.4336H25.8164V52.2832L22.5645 60H21.4277ZM32.4375 55.7051C32.4375 56.3965 32.3867 57.0156 32.2852 57.5625C32.1875 58.1094 32.0273 58.5723 31.8047 58.9512C31.5859 59.3301 31.3027 59.6191 30.9551 59.8184C30.6074 60.0176 30.1855 60.1172 29.6895 60.1172C29.2285 60.1172 28.8262 60.0176 28.4824 59.8184C28.1426 59.6191 27.8594 59.3301 27.6328 58.9512C27.4102 58.5723 27.2422 58.1094 27.1289 57.5625C27.0195 57.0156 26.9648 56.3965 26.9648 55.7051C26.9648 55.0137 27.0137 54.3945 27.1113 53.8477C27.2129 53.3008 27.3711 52.8398 27.5859 52.4648C27.8047 52.0859 28.0859 51.7969 28.4297 51.5977C28.7773 51.3984 29.1973 51.2988 29.6895 51.2988C30.1543 51.2988 30.5586 51.3984 30.9023 51.5977C31.2461 51.793 31.5312 52.0801 31.7578 52.459C31.9844 52.834 32.1543 53.2949 32.2676 53.8418C32.3809 54.3887 32.4375 55.0098 32.4375 55.7051ZM28.0488 55.7051C28.0488 56.291 28.0781 56.8027 28.1367 57.2402C28.1953 57.6777 28.2891 58.043 28.418 58.3359C28.5469 58.625 28.7148 58.8438 28.9219 58.9922C29.1328 59.1367 29.3887 59.209 29.6895 59.209C29.9902 59.209 30.2461 59.1367 30.457 58.9922C30.668 58.8477 30.8398 58.6309 30.9727 58.3418C31.1094 58.0527 31.207 57.6895 31.2656 57.252C31.3281 56.8105 31.3594 56.2949 31.3594 55.7051C31.3594 55.1191 31.3281 54.6074 31.2656 54.1699C31.207 53.7324 31.1094 53.3691 30.9727 53.0801C30.8398 52.791 30.668 52.5742 30.457 52.4297C30.2461 52.2852 29.9902 52.2129 29.6895 52.2129C29.3887 52.2129 29.1328 52.2852 28.9219 52.4297C28.7148 52.5742 28.5469 52.791 28.418 53.0801C28.2891 53.3691 28.1953 53.7324 28.1367 54.1699C28.0781 54.6074 28.0488 55.1191 28.0488 55.7051Z" fill="#595959"/>
</g>
<g clip-path="url(#clip2_0_1)">
<path d="M25.6875 141H20.3438V140.086L22.3945 137.854C22.6875 137.537 22.9492 137.248 23.1797 136.986C23.4102 136.725 23.6055 136.469 23.7656 136.219C23.9297 135.969 24.0547 135.719 24.1406 135.469C24.2266 135.215 24.2695 134.939 24.2695 134.643C24.2695 134.412 24.2363 134.209 24.1699 134.033C24.1035 133.857 24.0078 133.709 23.8828 133.588C23.7617 133.463 23.6172 133.369 23.4492 133.307C23.2812 133.244 23.0938 133.213 22.8867 133.213C22.5156 133.213 22.1797 133.289 21.8789 133.441C21.582 133.59 21.2988 133.781 21.0293 134.016L20.4316 133.318C20.5879 133.178 20.7559 133.047 20.9355 132.926C21.1152 132.801 21.3086 132.693 21.5156 132.604C21.7227 132.514 21.9414 132.443 22.1719 132.393C22.4023 132.338 22.6445 132.311 22.8984 132.311C23.2734 132.311 23.6113 132.363 23.9121 132.469C24.2168 132.574 24.4746 132.727 24.6855 132.926C24.8965 133.121 25.0586 133.361 25.1719 133.646C25.2891 133.928 25.3477 134.246 25.3477 134.602C25.3477 134.934 25.2949 135.25 25.1895 135.551C25.0879 135.852 24.9453 136.148 24.7617 136.441C24.582 136.73 24.3652 137.021 24.1113 137.314C23.8613 137.607 23.5898 137.912 23.2969 138.229L21.6504 139.98V140.027H25.6875V141ZM32.4375 136.705C32.4375 137.396 32.3867 138.016 32.2852 138.562C32.1875 139.109 32.0273 139.572 31.8047 139.951C31.5859 140.33 31.3027 140.619 30.9551 140.818C30.6074 141.018 30.1855 141.117 29.6895 141.117C29.2285 141.117 28.8262 141.018 28.4824 140.818C28.1426 140.619 27.8594 140.33 27.6328 139.951C27.4102 139.572 27.2422 139.109 27.1289 138.562C27.0195 138.016 26.9648 137.396 26.9648 136.705C26.9648 136.014 27.0137 135.395 27.1113 134.848C27.2129 134.301 27.3711 133.84 27.5859 133.465C27.8047 133.086 28.0859 132.797 28.4297 132.598C28.7773 132.398 29.1973 132.299 29.6895 132.299C30.1543 132.299 30.5586 132.398 30.9023 132.598C31.2461 132.793 31.5312 133.08 31.7578 133.459C31.9844 133.834 32.1543 134.295 32.2676 134.842C32.3809 135.389 32.4375 136.01 32.4375 136.705ZM28.0488 136.705C28.0488 137.291 28.0781 137.803 28.1367 138.24C28.1953 138.678 28.2891 139.043 28.418 139.336C28.5469 139.625 28.7148 139.844 28.9219 139.992C29.1328 140.137 29.3887 140.209 29.6895 140.209C29.9902 140.209 30.2461 140.137 30.457 139.992C30.668 139.848 30.8398 139.631 30.9727 139.342C31.1094 139.053 31.207 138.689 31.2656 138.252C31.3281 137.811 31.3594 137.295 31.3594 136.705C31.3594 136.119 31.3281 135.607 31.2656 135.17C31.207 134.732 31.1094 134.369 30.9727 134.08C30.8398 133.791 30.668 133.574 30.457 133.43C30.2461 133.285 29.9902 133.213 29.6895 133.213C29.3887 133.213 29.1328 133.285 28.9219 133.43C28.7148 133.574 28.5469 133.791 28.418 134.08C28.2891 134.369 28.1953 134.732 28.1367 135.17C28.0781 135.607 28.0488 136.119 28.0488 136.705Z" fill="#595959"/>
</g>
<g clip-path="url(#clip3_0_1)">
<path d="M22.9746 95.7441C23.3613 95.7441 23.7207 95.7988 24.0527 95.9082C24.3887 96.0137 24.6797 96.1719 24.9258 96.3828C25.1758 96.5938 25.3711 96.8555 25.5117 97.168C25.6523 97.4805 25.7227 97.8418 25.7227 98.252C25.7227 98.6973 25.6562 99.0977 25.5234 99.4531C25.3906 99.8086 25.1934 100.109 24.9316 100.355C24.6699 100.602 24.3457 100.791 23.959 100.924C23.5762 101.053 23.1348 101.117 22.6348 101.117C22.4355 101.117 22.2383 101.107 22.043 101.088C21.8516 101.068 21.666 101.039 21.4863 101C21.3105 100.965 21.1426 100.918 20.9824 100.859C20.8223 100.801 20.6777 100.732 20.5488 100.654V99.6465C20.6777 99.7363 20.8281 99.8164 21 99.8867C21.1758 99.957 21.3594 100.016 21.5508 100.062C21.7422 100.109 21.9336 100.146 22.125 100.174C22.3203 100.197 22.5 100.209 22.6641 100.209C22.9727 100.209 23.248 100.174 23.4902 100.104C23.7324 100.029 23.9375 99.916 24.1055 99.7637C24.2734 99.6113 24.4023 99.4199 24.4922 99.1895C24.582 98.959 24.627 98.6855 24.627 98.3691C24.627 97.8105 24.4551 97.3848 24.1113 97.0918C23.7676 96.7949 23.2676 96.6465 22.6113 96.6465C22.5059 96.6465 22.3906 96.6523 22.2656 96.6641C22.1445 96.6719 22.0215 96.6836 21.8965 96.6992C21.7754 96.7148 21.6582 96.7324 21.5449 96.752C21.4355 96.7676 21.3398 96.7832 21.2578 96.7988L20.7305 96.4648L21.0527 92.4336H25.0957V93.4062H21.9785L21.75 95.8613C21.875 95.8379 22.0391 95.8125 22.2422 95.7852C22.4492 95.7578 22.6934 95.7441 22.9746 95.7441ZM32.4375 96.7051C32.4375 97.3965 32.3867 98.0156 32.2852 98.5625C32.1875 99.1094 32.0273 99.5723 31.8047 99.9512C31.5859 100.33 31.3027 100.619 30.9551 100.818C30.6074 101.018 30.1855 101.117 29.6895 101.117C29.2285 101.117 28.8262 101.018 28.4824 100.818C28.1426 100.619 27.8594 100.33 27.6328 99.9512C27.4102 99.5723 27.2422 99.1094 27.1289 98.5625C27.0195 98.0156 26.9648 97.3965 26.9648 96.7051C26.9648 96.0137 27.0137 95.3945 27.1113 94.8477C27.2129 94.3008 27.3711 93.8398 27.5859 93.4648C27.8047 93.0859 28.0859 92.7969 28.4297 92.5977C28.7773 92.3984 29.1973 92.2988 29.6895 92.2988C30.1543 92.2988 30.5586 92.3984 30.9023 92.5977C31.2461 92.793 31.5312 93.0801 31.7578 93.459C31.9844 93.834 32.1543 94.2949 32.2676 94.8418C32.3809 95.3887 32.4375 96.0098 32.4375 96.7051ZM28.0488 96.7051C28.0488 97.291 28.0781 97.8027 28.1367 98.2402C28.1953 98.6777 28.2891 99.043 28.418 99.3359C28.5469 99.625 28.7148 99.8438 28.9219 99.9922C29.1328 100.137 29.3887 100.209 29.6895 100.209C29.9902 100.209 30.2461 100.137 30.457 99.9922C30.668 99.8477 30.8398 99.6309 30.9727 99.3418C31.1094 99.0527 31.207 98.6895 31.2656 98.252C31.3281 97.8105 31.3594 97.2949 31.3594 96.7051C31.3594 96.1191 31.3281 95.6074 31.2656 95.1699C31.207 94.7324 31.1094 94.3691 30.9727 94.0801C30.8398 93.791 30.668 93.5742 30.457 93.4297C30.2461 93.2852 29.9902 93.2129 29.6895 93.2129C29.3887 93.2129 29.1328 93.2852 28.9219 93.4297C28.7148 93.5742 28.5469 93.791 28.418 94.0801C28.2891 94.3691 28.1953 94.7324 28.1367 95.1699C28.0781 95.6074 28.0488 96.1191 28.0488 96.7051Z" fill="#595959"/>
</g>
<g clip-path="url(#clip4_0_1)">
<path d="M32.4375 177.705C32.4375 178.396 32.3867 179.016 32.2852 179.562C32.1875 180.109 32.0273 180.572 31.8047 180.951C31.5859 181.33 31.3027 181.619 30.9551 181.818C30.6074 182.018 30.1855 182.117 29.6895 182.117C29.2285 182.117 28.8262 182.018 28.4824 181.818C28.1426 181.619 27.8594 181.33 27.6328 180.951C27.4102 180.572 27.2422 180.109 27.1289 179.562C27.0195 179.016 26.9648 178.396 26.9648 177.705C26.9648 177.014 27.0137 176.395 27.1113 175.848C27.2129 175.301 27.3711 174.84 27.5859 174.465C27.8047 174.086 28.0859 173.797 28.4297 173.598C28.7773 173.398 29.1973 173.299 29.6895 173.299C30.1543 173.299 30.5586 173.398 30.9023 173.598C31.2461 173.793 31.5312 174.08 31.7578 174.459C31.9844 174.834 32.1543 175.295 32.2676 175.842C32.3809 176.389 32.4375 177.01 32.4375 177.705ZM28.0488 177.705C28.0488 178.291 28.0781 178.803 28.1367 179.24C28.1953 179.678 28.2891 180.043 28.418 180.336C28.5469 180.625 28.7148 180.844 28.9219 180.992C29.1328 181.137 29.3887 181.209 29.6895 181.209C29.9902 181.209 30.2461 181.137 30.457 180.992C30.668 180.848 30.8398 180.631 30.9727 180.342C31.1094 180.053 31.207 179.689 31.2656 179.252C31.3281 178.811 31.3594 178.295 31.3594 177.705C31.3594 177.119 31.3281 176.607 31.2656 176.17C31.207 175.732 31.1094 175.369 30.9727 175.08C30.8398 174.791 30.668 174.574 30.457 174.43C30.2461 174.285 29.9902 174.213 29.6895 174.213C29.3887 174.213 29.1328 174.285 28.9219 174.43C28.7148 174.574 28.5469 174.791 28.418 175.08C28.2891 175.369 28.1953 175.732 28.1367 176.17C28.0781 176.607 28.0488 177.119 28.0488 177.705Z" fill="#595959"/>
</g>
<path d="M326.155 244H325.051V245.5H326.155V244Z" fill="#C21A2C"/>
<path d="M326.155 239.5H325.051V242.5H326.155V239.5Z" fill="#C21A2C"/>
<path opacity="0.5" d="M0 4C0 1.79086 1.79086 0 4 0H421C423.209 0 425 1.79086 425 4V261C425 263.209 423.209 265 421 265H3.99999C1.79086 265 0 263.209 0 261V4Z" fill="#EBEFEE"/>
</g>
</g>
<defs>
<clipPath id="clip0_0_1">
<rect width="425" height="265" rx="4" fill="white"/>
</clipPath>
<clipPath id="clip1_0_1">
<rect width="40" height="16" fill="white" transform="translate(-7 46)"/>
</clipPath>
<clipPath id="clip2_0_1">
<rect width="40" height="16" fill="white" transform="translate(-7 127)"/>
</clipPath>
<clipPath id="clip3_0_1">
<rect width="40" height="16" fill="white" transform="translate(-7 87)"/>
</clipPath>
<clipPath id="clip4_0_1">
<rect width="40" height="16" fill="white" transform="translate(-7 168)"/>
</clipPath>
</defs>
</svg>
