<svg width="425" height="265" viewBox="0 0 425 265" fill="none" xmlns="http://www.w3.org/2000/svg">
<rect width="425" height="265" fill="#F5F5F5"/>
<rect x="-16619" y="-5031" width="23840" height="13376" fill="#F8FAF9"/>
<g style="mix-blend-mode:luminosity">
<g clip-path="url(#clip0_0_1)">
<rect width="425" height="265" rx="4" fill="white"/>
<path d="M29.838 25.568C29.6 26.016 29.222 26.366 28.718 26.646C28.2 26.926 27.542 27.052 26.744 27.052H24.98V31H23.384V21.27H26.744C27.486 21.27 28.116 21.41 28.634 21.662C29.152 21.914 29.544 22.264 29.796 22.698C30.048 23.146 30.188 23.636 30.188 24.168C30.188 24.672 30.062 25.134 29.838 25.568ZM28.102 25.344C28.396 25.064 28.55 24.672 28.55 24.168C28.55 23.104 27.948 22.572 26.744 22.572H24.98V25.75H26.744C27.346 25.75 27.794 25.624 28.102 25.344ZM31.5442 21.97C31.3482 21.774 31.2502 21.536 31.2502 21.242C31.2502 20.962 31.3482 20.71 31.5442 20.514C31.7402 20.318 31.9782 20.22 32.2722 20.22C32.5522 20.22 32.7902 20.318 32.9862 20.514C33.1822 20.71 33.2802 20.962 33.2802 21.242C33.2802 21.536 33.1822 21.774 32.9862 21.97C32.7902 22.166 32.5522 22.264 32.2722 22.264C31.9782 22.264 31.7402 22.166 31.5442 21.97ZM33.0562 23.286V31H31.4602V23.286H33.0562ZM40.4176 23.538C40.8936 23.79 41.2716 24.168 41.5516 24.658C41.8176 25.162 41.9576 25.75 41.9576 26.45V31H40.3756V26.688C40.3756 26.002 40.1936 25.47 39.8576 25.106C39.5076 24.742 39.0316 24.546 38.4436 24.546C37.8416 24.546 37.3656 24.742 37.0156 25.106C36.6656 25.47 36.4976 26.002 36.4976 26.688V31H34.9016V23.286H36.4976V24.168C36.7496 23.86 37.0856 23.608 37.4916 23.426C37.8976 23.258 38.3316 23.16 38.7936 23.16C39.3956 23.16 39.9416 23.286 40.4176 23.538ZM46.7954 27.15L50.3514 31H48.1954L45.3394 27.682V31H43.7434V20.64H45.3394V26.66L48.1394 23.286H50.3514L46.7954 27.15ZM61.086 25.568C60.848 26.016 60.47 26.366 59.966 26.646C59.448 26.926 58.79 27.052 57.992 27.052H56.228V31H54.632V21.27H57.992C58.734 21.27 59.364 21.41 59.882 21.662C60.4 21.914 60.792 22.264 61.044 22.698C61.296 23.146 61.436 23.636 61.436 24.168C61.436 24.672 61.31 25.134 61.086 25.568ZM59.35 25.344C59.644 25.064 59.798 24.672 59.798 24.168C59.798 23.104 59.196 22.572 57.992 22.572H56.228V25.75H57.992C58.594 25.75 59.042 25.624 59.35 25.344ZM64.0802 30.636C63.4922 30.3 63.0302 29.838 62.6942 29.236C62.3582 28.634 62.1902 27.934 62.1902 27.136C62.1902 26.352 62.3582 25.666 62.7082 25.05C63.0442 24.448 63.5202 23.986 64.1222 23.65C64.7102 23.328 65.3822 23.16 66.1242 23.16C66.8522 23.16 67.5242 23.328 68.1262 23.65C68.7142 23.986 69.1902 24.448 69.5402 25.05C69.8762 25.666 70.0582 26.352 70.0582 27.136C70.0582 27.92 69.8762 28.62 69.5262 29.222C69.1622 29.838 68.6862 30.3 68.0702 30.636C67.4542 30.972 66.7822 31.126 66.0542 31.126C65.3262 31.126 64.6682 30.972 64.0802 30.636ZM67.2022 29.446C67.5662 29.25 67.8602 28.956 68.0842 28.564C68.3082 28.172 68.4202 27.696 68.4202 27.136C68.4202 26.576 68.3082 26.114 68.0982 25.722C67.8742 25.33 67.5942 25.036 67.2442 24.84C66.8802 24.644 66.5022 24.546 66.0962 24.546C65.6762 24.546 65.2982 24.644 64.9482 24.84C64.5982 25.036 64.3182 25.33 64.1222 25.722C63.9122 26.114 63.8142 26.576 63.8142 27.136C63.8142 27.976 64.0242 28.62 64.4442 29.068C64.8642 29.516 65.4102 29.74 66.0542 29.74C66.4602 29.74 66.8382 29.642 67.2022 29.446ZM76.9019 23.538C77.3779 23.79 77.7559 24.168 78.0359 24.658C78.3019 25.162 78.4419 25.75 78.4419 26.45V31H76.8599V26.688C76.8599 26.002 76.6779 25.47 76.3419 25.106C75.9919 24.742 75.5159 24.546 74.9279 24.546C74.3259 24.546 73.8499 24.742 73.4999 25.106C73.1499 25.47 72.9819 26.002 72.9819 26.688V31H71.3859V23.286H72.9819V24.168C73.2339 23.86 73.5699 23.608 73.9759 23.426C74.3819 23.258 74.8159 23.16 75.2779 23.16C75.8799 23.16 76.4259 23.286 76.9019 23.538ZM80.1717 25.05C80.4937 24.462 80.9277 24 81.4877 23.664C82.0477 23.328 82.6637 23.16 83.3497 23.16C83.8537 23.16 84.3437 23.272 84.8337 23.496C85.3237 23.72 85.7157 24 86.0097 24.364V20.64H87.6197V31H86.0097V29.838C85.7437 30.216 85.3797 30.524 84.9177 30.762C84.4557 31.014 83.9237 31.126 83.3357 31.126C82.6637 31.126 82.0477 30.958 81.4877 30.622C80.9277 30.286 80.4937 29.81 80.1717 29.194C79.8497 28.578 79.6957 27.892 79.6957 27.108C79.6957 26.338 79.8497 25.652 80.1717 25.05ZM85.6737 25.75C85.4497 25.358 85.1697 25.064 84.8197 24.854C84.4557 24.658 84.0777 24.546 83.6717 24.546C83.2517 24.546 82.8737 24.658 82.5237 24.854C82.1597 25.05 81.8797 25.344 81.6557 25.736C81.4317 26.128 81.3337 26.576 81.3337 27.108C81.3337 27.64 81.4317 28.116 81.6557 28.508C81.8797 28.914 82.1597 29.222 82.5237 29.432C82.8877 29.642 83.2657 29.74 83.6717 29.74C84.0777 29.74 84.4557 29.642 84.8197 29.432C85.1697 29.236 85.4497 28.928 85.6737 28.536C85.8977 28.144 86.0097 27.668 86.0097 27.136C86.0097 26.604 85.8977 26.142 85.6737 25.75Z" fill="#121212"/>
<path d="M27.6289 72L26.4258 68.9033H22.4609L21.2715 72H20L23.9033 61.9648H25.0381L28.9346 72H27.6289ZM26.0498 67.7891L24.9287 64.7607L24.4502 63.2637C24.3135 63.8105 24.1699 64.3096 24.0195 64.7607L22.8848 67.7891H26.0498ZM31.9219 68.165L29.3311 64.4941H30.7324L32.667 67.3242L34.5811 64.4941H35.9688L33.3779 68.165L36.1123 72H34.7109L32.667 69.0059L30.5957 72H29.208L31.9219 68.165ZM42.0049 62.9697C40.9294 62.9697 40.084 63.3298 39.4688 64.0498C38.8535 64.7699 38.5459 65.7542 38.5459 67.0029C38.5459 68.2926 38.8444 69.2884 39.4414 69.9902C40.0384 70.6875 40.8883 71.0361 41.9912 71.0361C42.7021 71.0361 43.502 70.904 44.3906 70.6396V71.7334C43.9668 71.8883 43.5589 71.9932 43.167 72.0479C42.7751 72.1071 42.3239 72.1367 41.8135 72.1367C40.3415 72.1367 39.2067 71.6901 38.4092 70.7969C37.6162 69.8991 37.2197 68.6299 37.2197 66.9893C37.2197 65.9593 37.4089 65.057 37.7871 64.2822C38.1699 63.5075 38.7236 62.9105 39.4482 62.4912C40.1774 62.0719 41.0342 61.8623 42.0186 61.8623C43.0758 61.8623 43.9964 62.0583 44.7803 62.4502L44.2744 63.5166C43.4769 63.152 42.7204 62.9697 42.0049 62.9697ZM52.9219 68.2334C52.9219 69.4593 52.612 70.4163 51.9922 71.1045C51.3724 71.7926 50.5156 72.1367 49.4219 72.1367C48.7428 72.1367 48.1413 71.9795 47.6172 71.665C47.0931 71.346 46.6898 70.8903 46.4072 70.2979C46.1247 69.7054 45.9834 69.0173 45.9834 68.2334C45.9834 67.012 46.2887 66.0618 46.8994 65.3828C47.5101 64.6992 48.3669 64.3574 49.4697 64.3574C50.527 64.3574 51.3656 64.7061 51.9854 65.4033C52.6097 66.096 52.9219 67.0394 52.9219 68.2334ZM47.2549 68.2334C47.2549 69.1768 47.4395 69.8945 47.8086 70.3867C48.1823 70.8743 48.7314 71.1182 49.4561 71.1182C50.1715 71.1182 50.7161 70.8743 51.0898 70.3867C51.4635 69.8945 51.6504 69.1768 51.6504 68.2334C51.6504 67.29 51.4613 66.5814 51.083 66.1074C50.7093 65.6289 50.1602 65.3896 49.4355 65.3896C47.9818 65.3896 47.2549 66.3376 47.2549 68.2334ZM61.7061 72.1367C60.5804 72.1367 59.6963 71.7972 59.0537 71.1182C58.4157 70.4346 58.0967 69.4958 58.0967 68.3018C58.0967 67.0986 58.3952 66.1416 58.9922 65.4307C59.5892 64.7152 60.3958 64.3574 61.4121 64.3574C62.3555 64.3574 63.1074 64.6628 63.668 65.2734C64.2285 65.8796 64.5088 66.7021 64.5088 67.7412V68.4863H59.3682C59.391 69.3385 59.6074 69.9857 60.0176 70.4277C60.4277 70.8698 61.0088 71.0908 61.7607 71.0908C62.1618 71.0908 62.5423 71.0566 62.9023 70.9883C63.2624 70.9154 63.6839 70.7764 64.167 70.5713V71.6514C63.7523 71.8291 63.3626 71.9544 62.998 72.0273C62.6335 72.1003 62.2028 72.1367 61.7061 72.1367ZM61.3984 65.3623C60.8105 65.3623 60.3457 65.5514 60.0039 65.9297C59.6621 66.3079 59.4593 66.8343 59.3955 67.5088H63.2168C63.2077 66.807 63.0459 66.2738 62.7314 65.9092C62.417 65.5446 61.9727 65.3623 61.3984 65.3623ZM69.875 65.4512H67.9814V72H66.751V65.4512H65.4385V64.877L66.751 64.4531V64.0225C66.751 63.111 66.9492 62.4274 67.3457 61.9717C67.7467 61.516 68.362 61.2881 69.1914 61.2881C69.6699 61.2881 70.1553 61.3724 70.6475 61.541L70.3193 62.5049C69.8955 62.3682 69.5241 62.2998 69.2051 62.2998C68.7904 62.2998 68.4827 62.4365 68.2822 62.71C68.0817 62.9834 67.9814 63.4163 67.9814 64.0088V64.4941H69.875V65.4512ZM74.7012 65.4512H72.8076V72H71.5771V65.4512H70.2646V64.877L71.5771 64.4531V64.0225C71.5771 63.111 71.7754 62.4274 72.1719 61.9717C72.5729 61.516 73.1882 61.2881 74.0176 61.2881C74.4961 61.2881 74.9814 61.3724 75.4736 61.541L75.1455 62.5049C74.7217 62.3682 74.3503 62.2998 74.0312 62.2998C73.6165 62.2998 73.3089 62.4365 73.1084 62.71C72.9079 62.9834 72.8076 63.4163 72.8076 64.0088V64.4941H74.7012V65.4512ZM77.2988 72H76.0684V64.4941H77.2988V72ZM75.9727 62.4639C75.9727 62.1904 76.041 61.9922 76.1777 61.8691C76.319 61.7461 76.4922 61.6846 76.6973 61.6846C76.8887 61.6846 77.055 61.7461 77.1963 61.8691C77.3421 61.9922 77.415 62.1904 77.415 62.4639C77.415 62.7327 77.3421 62.931 77.1963 63.0586C77.055 63.1862 76.8887 63.25 76.6973 63.25C76.4922 63.25 76.319 63.1862 76.1777 63.0586C76.041 62.931 75.9727 62.7327 75.9727 62.4639ZM82.6855 72.1367C81.6055 72.1367 80.7646 71.8063 80.1631 71.1455C79.5615 70.4801 79.2607 69.5277 79.2607 68.2881C79.2607 67.0303 79.5638 66.0618 80.1699 65.3828C80.7806 64.6992 81.6488 64.3574 82.7744 64.3574C83.139 64.3574 83.499 64.3962 83.8545 64.4736C84.2145 64.5465 84.5107 64.6423 84.7432 64.7607L84.3672 65.7861C83.7337 65.5492 83.1937 65.4307 82.7471 65.4307C81.9906 65.4307 81.4323 65.6699 81.0723 66.1484C80.7122 66.6224 80.5322 67.3311 80.5322 68.2744C80.5322 69.1813 80.7122 69.8763 81.0723 70.3594C81.4323 70.8379 81.9655 71.0771 82.6719 71.0771C83.3327 71.0771 83.9821 70.9313 84.6201 70.6396V71.7334C84.1006 72.0023 83.4557 72.1367 82.6855 72.1367ZM87.6348 72H86.4043V64.4941H87.6348V72ZM86.3086 62.4639C86.3086 62.1904 86.377 61.9922 86.5137 61.8691C86.6549 61.7461 86.8281 61.6846 87.0332 61.6846C87.2246 61.6846 87.391 61.7461 87.5322 61.8691C87.6781 61.9922 87.751 62.1904 87.751 62.4639C87.751 62.7327 87.6781 62.931 87.5322 63.0586C87.391 63.1862 87.2246 63.25 87.0332 63.25C86.8281 63.25 86.6549 63.1862 86.5137 63.0586C86.377 62.931 86.3086 62.7327 86.3086 62.4639ZM93.2061 72.1367C92.0804 72.1367 91.1963 71.7972 90.5537 71.1182C89.9157 70.4346 89.5967 69.4958 89.5967 68.3018C89.5967 67.0986 89.8952 66.1416 90.4922 65.4307C91.0892 64.7152 91.8958 64.3574 92.9121 64.3574C93.8555 64.3574 94.6074 64.6628 95.168 65.2734C95.7285 65.8796 96.0088 66.7021 96.0088 67.7412V68.4863H90.8682C90.891 69.3385 91.1074 69.9857 91.5176 70.4277C91.9277 70.8698 92.5088 71.0908 93.2607 71.0908C93.6618 71.0908 94.0423 71.0566 94.4023 70.9883C94.7624 70.9154 95.1839 70.7764 95.667 70.5713V71.6514C95.2523 71.8291 94.8626 71.9544 94.498 72.0273C94.1335 72.1003 93.7028 72.1367 93.2061 72.1367ZM92.8984 65.3623C92.3105 65.3623 91.8457 65.5514 91.5039 65.9297C91.1621 66.3079 90.9593 66.8343 90.8955 67.5088H94.7168C94.7077 66.807 94.5459 66.2738 94.2314 65.9092C93.917 65.5446 93.4727 65.3623 92.8984 65.3623ZM103.029 72V67.2012C103.029 66.5905 102.893 66.137 102.619 65.8408C102.35 65.54 101.926 65.3896 101.348 65.3896C100.577 65.3896 100.017 65.6038 99.666 66.0322C99.3197 66.4561 99.1465 67.1488 99.1465 68.1104V72H97.916V64.4941H98.9072L99.0918 65.5195H99.1602C99.3926 65.1504 99.7184 64.8656 100.138 64.665C100.557 64.46 101.02 64.3574 101.525 64.3574C102.446 64.3574 103.13 64.5807 103.576 65.0273C104.023 65.474 104.246 66.1689 104.246 67.1123V72H103.029ZM109.578 72.1367C108.498 72.1367 107.657 71.8063 107.056 71.1455C106.454 70.4801 106.153 69.5277 106.153 68.2881C106.153 67.0303 106.456 66.0618 107.062 65.3828C107.673 64.6992 108.541 64.3574 109.667 64.3574C110.032 64.3574 110.392 64.3962 110.747 64.4736C111.107 64.5465 111.403 64.6423 111.636 64.7607L111.26 65.7861C110.626 65.5492 110.086 65.4307 109.64 65.4307C108.883 65.4307 108.325 65.6699 107.965 66.1484C107.605 66.6224 107.425 67.3311 107.425 68.2744C107.425 69.1813 107.605 69.8763 107.965 70.3594C108.325 70.8379 108.858 71.0771 109.564 71.0771C110.225 71.0771 110.875 70.9313 111.513 70.6396V71.7334C110.993 72.0023 110.348 72.1367 109.578 72.1367ZM112.121 64.4941H113.44L115.061 68.7666C115.402 69.6963 115.612 70.3776 115.689 70.8105H115.744C115.785 70.6419 115.879 70.3275 116.024 69.8672C116.17 69.4023 116.293 69.0309 116.394 68.7529L117.918 64.4941H119.244L116.011 73.0391C115.696 73.8685 115.323 74.4632 114.89 74.8232C114.457 75.1833 113.921 75.3633 113.283 75.3633C112.941 75.3633 112.602 75.3245 112.265 75.2471V74.2695C112.493 74.3242 112.766 74.3516 113.085 74.3516C113.477 74.3516 113.81 74.2422 114.083 74.0234C114.356 73.8092 114.58 73.4766 114.753 73.0254L115.143 72.0273L112.121 64.4941Z" fill="#595959"/>
<path d="M32.957 224H31.6973L27.1094 216.887H27.0625L27.0918 217.361C27.1387 218.072 27.1621 218.689 27.1621 219.213V224H26.166V215.434H27.4141L27.6777 215.85L30.4902 220.197L31.9844 222.523H32.0312C32.0234 222.43 32.0078 222.096 31.9844 221.521C31.9609 220.943 31.9492 220.525 31.9492 220.268V215.434H32.957V224ZM37.873 224.117C36.9082 224.117 36.1504 223.826 35.5996 223.244C35.0527 222.658 34.7793 221.854 34.7793 220.83C34.7793 219.799 35.0352 218.979 35.5469 218.369C36.0586 217.756 36.75 217.449 37.6211 217.449C38.4297 217.449 39.0742 217.711 39.5547 218.234C40.0352 218.754 40.2754 219.459 40.2754 220.35V220.988H35.8691C35.8887 221.719 36.0742 222.273 36.4258 222.652C36.7773 223.031 37.2754 223.221 37.9199 223.221C38.2637 223.221 38.5898 223.191 38.8984 223.133C39.207 223.07 39.5684 222.951 39.9824 222.775V223.701C39.627 223.854 39.293 223.961 38.9805 224.023C38.668 224.086 38.2988 224.117 37.873 224.117ZM37.6094 218.311C37.1055 218.311 36.707 218.473 36.4141 218.797C36.1211 219.121 35.9473 219.572 35.8926 220.15H39.168C39.1602 219.549 39.0215 219.092 38.752 218.779C38.4824 218.467 38.1016 218.311 37.6094 218.311ZM43.3164 220.713L41.0957 217.566H42.2969L43.9551 219.992L45.5957 217.566H46.7852L44.5645 220.713L46.9082 224H45.707L43.9551 221.434L42.1797 224H40.9902L43.3164 220.713ZM50.2949 223.256C50.4316 223.256 50.5918 223.242 50.7754 223.215C50.959 223.188 51.0977 223.156 51.1914 223.121V223.93C51.0938 223.973 50.9414 224.014 50.7344 224.053C50.5312 224.096 50.3242 224.117 50.1133 224.117C48.8555 224.117 48.2266 223.455 48.2266 222.131V218.387H47.3184V217.883L48.2383 217.461L48.6602 216.09H49.2871V217.566H51.1445V218.387H49.2871V222.102C49.2871 222.473 49.375 222.758 49.5508 222.957C49.7305 223.156 49.9785 223.256 50.2949 223.256ZM61.1875 220.771C61.1875 221.822 60.9219 222.643 60.3906 223.232C59.8594 223.822 59.125 224.117 58.1875 224.117C57.6055 224.117 57.0898 223.982 56.6406 223.713C56.1914 223.439 55.8457 223.049 55.6035 222.541C55.3613 222.033 55.2402 221.443 55.2402 220.771C55.2402 219.725 55.502 218.91 56.0254 218.328C56.5488 217.742 57.2832 217.449 58.2285 217.449C59.1348 217.449 59.8535 217.748 60.3848 218.346C60.9199 218.939 61.1875 219.748 61.1875 220.771ZM56.3301 220.771C56.3301 221.58 56.4883 222.195 56.8047 222.617C57.125 223.035 57.5957 223.244 58.2168 223.244C58.8301 223.244 59.2969 223.035 59.6172 222.617C59.9375 222.195 60.0977 221.58 60.0977 220.771C60.0977 219.963 59.9355 219.355 59.6113 218.949C59.291 218.539 58.8203 218.334 58.1992 218.334C56.9531 218.334 56.3301 219.146 56.3301 220.771ZM65.8281 218.387H64.2051V224H63.1504V218.387H62.0254V217.895L63.1504 217.531V217.162C63.1504 216.381 63.3203 215.795 63.6602 215.404C64.0039 215.014 64.5312 214.818 65.2422 214.818C65.6523 214.818 66.0684 214.891 66.4902 215.035L66.209 215.861C65.8457 215.744 65.5273 215.686 65.2539 215.686C64.8984 215.686 64.6348 215.803 64.4629 216.037C64.291 216.271 64.2051 216.643 64.2051 217.15V217.566H65.8281V218.387ZM69.9648 218.387H68.3418V224H67.2871V218.387H66.1621V217.895L67.2871 217.531V217.162C67.2871 216.381 67.457 215.795 67.7969 215.404C68.1406 215.014 68.668 214.818 69.3789 214.818C69.7891 214.818 70.2051 214.891 70.627 215.035L70.3457 215.861C69.9824 215.744 69.6641 215.686 69.3906 215.686C69.0352 215.686 68.7715 215.803 68.5996 216.037C68.4277 216.271 68.3418 216.643 68.3418 217.15V217.566H69.9648V218.387ZM72.1914 224H71.1367V214.883H72.1914V224ZM75.2852 224H74.2305V217.566H75.2852V224ZM74.1484 215.826C74.1484 215.592 74.207 215.422 74.3242 215.316C74.4453 215.211 74.5938 215.158 74.7695 215.158C74.9336 215.158 75.0762 215.211 75.1973 215.316C75.3223 215.422 75.3848 215.592 75.3848 215.826C75.3848 216.057 75.3223 216.227 75.1973 216.336C75.0762 216.445 74.9336 216.5 74.7695 216.5C74.5938 216.5 74.4453 216.445 74.3242 216.336C74.207 216.227 74.1484 216.057 74.1484 215.826ZM81.707 224V219.887C81.707 219.363 81.5898 218.975 81.3555 218.721C81.125 218.463 80.7617 218.334 80.2656 218.334C79.6055 218.334 79.125 218.518 78.8242 218.885C78.5273 219.248 78.3789 219.842 78.3789 220.666V224H77.3242V217.566H78.1738L78.332 218.445H78.3906C78.5898 218.129 78.8691 217.885 79.2285 217.713C79.5879 217.537 79.9844 217.449 80.418 217.449C81.207 217.449 81.793 217.641 82.1758 218.023C82.5586 218.406 82.75 219.002 82.75 219.811V224H81.707ZM87.4785 224.117C86.5137 224.117 85.7559 223.826 85.2051 223.244C84.6582 222.658 84.3848 221.854 84.3848 220.83C84.3848 219.799 84.6406 218.979 85.1523 218.369C85.6641 217.756 86.3555 217.449 87.2266 217.449C88.0352 217.449 88.6797 217.711 89.1602 218.234C89.6406 218.754 89.8809 219.459 89.8809 220.35V220.988H85.4746C85.4941 221.719 85.6797 222.273 86.0312 222.652C86.3828 223.031 86.8809 223.221 87.5254 223.221C87.8691 223.221 88.1953 223.191 88.5039 223.133C88.8125 223.07 89.1738 222.951 89.5879 222.775V223.701C89.2324 223.854 88.8984 223.961 88.5859 224.023C88.2734 224.086 87.9043 224.117 87.4785 224.117ZM87.2148 218.311C86.7109 218.311 86.3125 218.473 86.0195 218.797C85.7266 219.121 85.5527 219.572 85.498 220.15H88.7734C88.7656 219.549 88.627 219.092 88.3574 218.779C88.0879 218.467 87.707 218.311 87.2148 218.311ZM102.338 224H101.248L99.5781 218.387C99.332 217.551 99.1875 216.986 99.1445 216.693C99.082 217.143 98.9453 217.719 98.7344 218.422L97.1172 224H96.0273L93.7598 215.434H94.8848L96.2148 220.666C96.3945 221.35 96.5312 222.029 96.625 222.705C96.7109 222.064 96.8633 221.363 97.082 220.602L98.5938 215.434H99.707L101.283 220.643C101.486 221.318 101.643 222.006 101.752 222.705C101.814 222.166 101.953 221.482 102.168 220.654L103.492 215.434H104.617L102.338 224ZM113.506 224H112.416L110.746 218.387C110.5 217.551 110.355 216.986 110.312 216.693C110.25 217.143 110.113 217.719 109.902 218.422L108.285 224H107.195L104.928 215.434H106.053L107.383 220.666C107.562 221.35 107.699 222.029 107.793 222.705C107.879 222.064 108.031 221.363 108.25 220.602L109.762 215.434H110.875L112.451 220.643C112.654 221.318 112.811 222.006 112.92 222.705C112.982 222.166 113.121 221.482 113.336 220.654L114.66 215.434H115.785L113.506 224ZM124.275 222.225C124.275 222.826 124.051 223.293 123.602 223.625C123.152 223.953 122.521 224.117 121.709 224.117C120.861 224.117 120.188 223.982 119.688 223.713V222.752C120.395 223.096 121.076 223.268 121.732 223.268C122.264 223.268 122.65 223.182 122.893 223.01C123.135 222.838 123.256 222.607 123.256 222.318C123.256 222.064 123.139 221.85 122.904 221.674C122.674 221.498 122.262 221.297 121.668 221.07C121.062 220.836 120.637 220.637 120.391 220.473C120.145 220.305 119.963 220.117 119.846 219.91C119.732 219.703 119.676 219.451 119.676 219.154C119.676 218.627 119.891 218.211 120.32 217.906C120.75 217.602 121.34 217.449 122.09 217.449C122.82 217.449 123.504 217.594 124.141 217.883L123.783 218.721C123.131 218.447 122.543 218.311 122.02 218.311C121.582 218.311 121.25 218.381 121.023 218.521C120.797 218.658 120.684 218.848 120.684 219.09C120.684 219.324 120.781 219.52 120.977 219.676C121.172 219.828 121.627 220.041 122.342 220.314C122.877 220.514 123.271 220.699 123.525 220.871C123.783 221.043 123.973 221.236 124.094 221.451C124.215 221.666 124.275 221.924 124.275 222.225ZM126.836 217.566V221.709C126.836 222.229 126.951 222.615 127.182 222.869C127.416 223.119 127.777 223.244 128.266 223.244C128.926 223.244 129.406 223.061 129.707 222.693C130.008 222.326 130.158 221.734 130.158 220.918V217.566H131.219V224H130.352L130.199 223.15H130.146C129.955 223.459 129.684 223.697 129.332 223.865C128.98 224.033 128.572 224.117 128.107 224.117C127.334 224.117 126.75 223.932 126.355 223.561C125.965 223.189 125.77 222.596 125.77 221.779V217.566H126.836ZM135.707 223.256C136.355 223.256 136.826 223.082 137.119 222.734C137.416 222.383 137.564 221.82 137.564 221.047V220.795C137.564 219.936 137.416 219.311 137.119 218.92C136.822 218.529 136.344 218.334 135.684 218.334C135.145 218.334 134.727 218.549 134.43 218.979C134.137 219.404 133.99 220.014 133.99 220.807C133.99 221.604 134.133 222.211 134.418 222.629C134.707 223.047 135.137 223.256 135.707 223.256ZM137.553 223.941L137.588 223.15H137.541C137.107 223.795 136.443 224.117 135.549 224.117C134.717 224.117 134.066 223.828 133.598 223.25C133.133 222.668 132.9 221.85 132.9 220.795C132.9 219.76 133.135 218.943 133.604 218.346C134.076 217.748 134.721 217.449 135.537 217.449C136.408 217.449 137.08 217.773 137.553 218.422H137.617L137.758 217.566H138.596V224.105C138.596 225.027 138.361 225.721 137.893 226.186C137.428 226.65 136.703 226.883 135.719 226.883C134.781 226.883 134.01 226.746 133.404 226.473V225.5C134.029 225.836 134.82 226.004 135.777 226.004C136.324 226.004 136.756 225.844 137.072 225.523C137.393 225.203 137.553 224.76 137.553 224.193V223.941ZM143.09 223.256C143.738 223.256 144.209 223.082 144.502 222.734C144.799 222.383 144.947 221.82 144.947 221.047V220.795C144.947 219.936 144.799 219.311 144.502 218.92C144.205 218.529 143.727 218.334 143.066 218.334C142.527 218.334 142.109 218.549 141.812 218.979C141.52 219.404 141.373 220.014 141.373 220.807C141.373 221.604 141.516 222.211 141.801 222.629C142.09 223.047 142.52 223.256 143.09 223.256ZM144.936 223.941L144.971 223.15H144.924C144.49 223.795 143.826 224.117 142.932 224.117C142.1 224.117 141.449 223.828 140.98 223.25C140.516 222.668 140.283 221.85 140.283 220.795C140.283 219.76 140.518 218.943 140.986 218.346C141.459 217.748 142.104 217.449 142.92 217.449C143.791 217.449 144.463 217.773 144.936 218.422H145L145.141 217.566H145.979V224.105C145.979 225.027 145.744 225.721 145.275 226.186C144.811 226.65 144.086 226.883 143.102 226.883C142.164 226.883 141.393 226.746 140.787 226.473V225.5C141.412 225.836 142.203 226.004 143.16 226.004C143.707 226.004 144.139 225.844 144.455 225.523C144.775 225.203 144.936 224.76 144.936 224.193V223.941ZM150.76 224.117C149.795 224.117 149.037 223.826 148.486 223.244C147.939 222.658 147.666 221.854 147.666 220.83C147.666 219.799 147.922 218.979 148.434 218.369C148.945 217.756 149.637 217.449 150.508 217.449C151.316 217.449 151.961 217.711 152.441 218.234C152.922 218.754 153.162 219.459 153.162 220.35V220.988H148.756C148.775 221.719 148.961 222.273 149.312 222.652C149.664 223.031 150.162 223.221 150.807 223.221C151.15 223.221 151.477 223.191 151.785 223.133C152.094 223.07 152.455 222.951 152.869 222.775V223.701C152.514 223.854 152.18 223.961 151.867 224.023C151.555 224.086 151.186 224.117 150.76 224.117ZM150.496 218.311C149.992 218.311 149.594 218.473 149.301 218.797C149.008 219.121 148.834 219.572 148.779 220.15H152.055C152.047 219.549 151.908 219.092 151.639 218.779C151.369 218.467 150.988 218.311 150.496 218.311ZM158.986 222.225C158.986 222.826 158.762 223.293 158.312 223.625C157.863 223.953 157.232 224.117 156.42 224.117C155.572 224.117 154.898 223.982 154.398 223.713V222.752C155.105 223.096 155.787 223.268 156.443 223.268C156.975 223.268 157.361 223.182 157.604 223.01C157.846 222.838 157.967 222.607 157.967 222.318C157.967 222.064 157.85 221.85 157.615 221.674C157.385 221.498 156.973 221.297 156.379 221.07C155.773 220.836 155.348 220.637 155.102 220.473C154.855 220.305 154.674 220.117 154.557 219.91C154.443 219.703 154.387 219.451 154.387 219.154C154.387 218.627 154.602 218.211 155.031 217.906C155.461 217.602 156.051 217.449 156.801 217.449C157.531 217.449 158.215 217.594 158.852 217.883L158.494 218.721C157.842 218.447 157.254 218.311 156.73 218.311C156.293 218.311 155.961 218.381 155.734 218.521C155.508 218.658 155.395 218.848 155.395 219.09C155.395 219.324 155.492 219.52 155.688 219.676C155.883 219.828 156.338 220.041 157.053 220.314C157.588 220.514 157.982 220.699 158.236 220.871C158.494 221.043 158.684 221.236 158.805 221.451C158.926 221.666 158.986 221.924 158.986 222.225ZM162.701 223.256C162.838 223.256 162.998 223.242 163.182 223.215C163.365 223.188 163.504 223.156 163.598 223.121V223.93C163.5 223.973 163.348 224.014 163.141 224.053C162.938 224.096 162.73 224.117 162.52 224.117C161.262 224.117 160.633 223.455 160.633 222.131V218.387H159.725V217.883L160.645 217.461L161.066 216.09H161.693V217.566H163.551V218.387H161.693V222.102C161.693 222.473 161.781 222.758 161.957 222.957C162.137 223.156 162.385 223.256 162.701 223.256ZM167.623 224.117C166.658 224.117 165.9 223.826 165.35 223.244C164.803 222.658 164.529 221.854 164.529 220.83C164.529 219.799 164.785 218.979 165.297 218.369C165.809 217.756 166.5 217.449 167.371 217.449C168.18 217.449 168.824 217.711 169.305 218.234C169.785 218.754 170.025 219.459 170.025 220.35V220.988H165.619C165.639 221.719 165.824 222.273 166.176 222.652C166.527 223.031 167.025 223.221 167.67 223.221C168.014 223.221 168.34 223.191 168.648 223.133C168.957 223.07 169.318 222.951 169.732 222.775V223.701C169.377 223.854 169.043 223.961 168.73 224.023C168.418 224.086 168.049 224.117 167.623 224.117ZM167.359 218.311C166.855 218.311 166.457 218.473 166.164 218.797C165.871 219.121 165.697 219.572 165.643 220.15H168.918C168.91 219.549 168.771 219.092 168.502 218.779C168.232 218.467 167.852 218.311 167.359 218.311ZM173.939 224.117C173.104 224.117 172.455 223.828 171.994 223.25C171.533 222.672 171.303 221.854 171.303 220.795C171.303 219.744 171.533 218.924 171.994 218.334C172.459 217.744 173.111 217.449 173.951 217.449C174.814 217.449 175.479 217.766 175.943 218.398H176.02C176.008 218.32 175.992 218.164 175.973 217.93C175.953 217.691 175.943 217.531 175.943 217.449V214.883H176.998V224H176.148L175.99 223.139H175.943C175.494 223.791 174.826 224.117 173.939 224.117ZM174.109 223.244C174.75 223.244 175.217 223.07 175.51 222.723C175.807 222.371 175.955 221.797 175.955 221V220.807C175.955 219.912 175.805 219.275 175.504 218.896C175.207 218.514 174.738 218.322 174.098 218.322C173.555 218.322 173.135 218.539 172.838 218.973C172.541 219.402 172.393 220.018 172.393 220.818C172.393 221.615 172.539 222.219 172.832 222.629C173.129 223.039 173.555 223.244 174.109 223.244ZM187.75 220.771C187.75 221.822 187.484 222.643 186.953 223.232C186.422 223.822 185.688 224.117 184.75 224.117C184.168 224.117 183.652 223.982 183.203 223.713C182.754 223.439 182.408 223.049 182.166 222.541C181.924 222.033 181.803 221.443 181.803 220.771C181.803 219.725 182.064 218.91 182.588 218.328C183.111 217.742 183.846 217.449 184.791 217.449C185.697 217.449 186.416 217.748 186.947 218.346C187.482 218.939 187.75 219.748 187.75 220.771ZM182.893 220.771C182.893 221.58 183.051 222.195 183.367 222.617C183.688 223.035 184.158 223.244 184.779 223.244C185.393 223.244 185.859 223.035 186.18 222.617C186.5 222.195 186.66 221.58 186.66 220.771C186.66 219.963 186.498 219.355 186.174 218.949C185.854 218.539 185.383 218.334 184.762 218.334C183.516 218.334 182.893 219.146 182.893 220.771ZM193.809 224V219.887C193.809 219.363 193.691 218.975 193.457 218.721C193.227 218.463 192.863 218.334 192.367 218.334C191.707 218.334 191.227 218.518 190.926 218.885C190.629 219.248 190.48 219.842 190.48 220.666V224H189.426V217.566H190.275L190.434 218.445H190.492C190.691 218.129 190.971 217.885 191.33 217.713C191.689 217.537 192.086 217.449 192.52 217.449C193.309 217.449 193.895 217.641 194.277 218.023C194.66 218.406 194.852 219.002 194.852 219.811V224H193.809ZM199.967 223.35C199.967 223.201 199.986 223.076 200.025 222.975C200.064 222.869 200.117 222.785 200.184 222.723C200.25 222.656 200.328 222.609 200.418 222.582C200.508 222.551 200.605 222.535 200.711 222.535C200.812 222.535 200.908 222.551 200.998 222.582C201.092 222.609 201.172 222.656 201.238 222.723C201.305 222.785 201.357 222.869 201.396 222.975C201.436 223.076 201.455 223.201 201.455 223.35C201.455 223.494 201.436 223.619 201.396 223.725C201.357 223.826 201.305 223.91 201.238 223.977C201.172 224.043 201.092 224.092 200.998 224.123C200.908 224.154 200.812 224.17 200.711 224.17C200.605 224.17 200.508 224.154 200.418 224.123C200.328 224.092 200.25 224.043 200.184 223.977C200.117 223.91 200.064 223.826 200.025 223.725C199.986 223.619 199.967 223.494 199.967 223.35ZM199.967 218.217C199.967 218.064 199.986 217.938 200.025 217.836C200.064 217.73 200.117 217.646 200.184 217.584C200.25 217.518 200.328 217.471 200.418 217.443C200.508 217.416 200.605 217.402 200.711 217.402C200.812 217.402 200.908 217.416 200.998 217.443C201.092 217.471 201.172 217.518 201.238 217.584C201.305 217.646 201.357 217.73 201.396 217.836C201.436 217.938 201.455 218.064 201.455 218.217C201.455 218.361 201.436 218.484 201.396 218.586C201.357 218.688 201.305 218.771 201.238 218.838C201.172 218.904 201.092 218.953 200.998 218.984C200.908 219.016 200.812 219.031 200.711 219.031C200.605 219.031 200.508 219.016 200.418 218.984C200.328 218.953 200.25 218.904 200.184 218.838C200.117 218.771 200.064 218.688 200.025 218.586C199.986 218.484 199.967 218.361 199.967 218.217ZM31.5693 236.344C31.5693 236.676 31.5169 236.979 31.4121 237.253C31.3073 237.526 31.1592 237.763 30.9678 237.964C30.7809 238.164 30.5553 238.331 30.291 238.463C30.0267 238.59 29.7327 238.682 29.4092 238.736V238.777C30.2158 238.878 30.8288 239.135 31.248 239.55C31.6673 239.96 31.877 240.495 31.877 241.156C31.877 241.594 31.8018 241.995 31.6514 242.359C31.5055 242.724 31.2822 243.038 30.9814 243.303C30.6807 243.567 30.3001 243.772 29.8398 243.918C29.3796 244.064 28.835 244.137 28.2061 244.137C27.7093 244.137 27.2399 244.098 26.7979 244.021C26.3604 243.943 25.9479 243.802 25.5605 243.597V242.435C25.957 242.644 26.3854 242.806 26.8457 242.92C27.3105 243.034 27.7549 243.091 28.1787 243.091C28.598 243.091 28.9603 243.045 29.2656 242.954C29.571 242.863 29.8216 242.733 30.0176 242.564C30.2181 242.396 30.3639 242.188 30.4551 241.942C30.5508 241.696 30.5986 241.421 30.5986 241.115C30.5986 240.805 30.5371 240.541 30.4141 240.322C30.2956 240.099 30.1247 239.917 29.9014 239.775C29.6781 239.63 29.4046 239.522 29.0811 239.454C28.762 239.386 28.3997 239.352 27.9941 239.352H27.085V238.319H27.9941C28.3633 238.319 28.6914 238.274 28.9785 238.183C29.2656 238.091 29.5049 237.962 29.6963 237.793C29.8923 237.624 30.0404 237.424 30.1406 237.191C30.2409 236.959 30.291 236.704 30.291 236.426C30.291 236.189 30.25 235.977 30.168 235.79C30.0859 235.603 29.9697 235.446 29.8193 235.318C29.6689 235.186 29.4889 235.086 29.2793 235.018C29.0697 234.949 28.8372 234.915 28.582 234.915C28.0944 234.915 27.6637 234.993 27.29 235.147C26.9209 235.298 26.5677 235.496 26.2305 235.742L25.6016 234.888C25.7747 234.746 25.9661 234.614 26.1758 234.491C26.39 234.368 26.6224 234.261 26.873 234.17C27.1237 234.074 27.3903 233.999 27.6729 233.944C27.96 233.89 28.263 233.862 28.582 233.862C29.0742 233.862 29.5049 233.924 29.874 234.047C30.2477 234.17 30.5599 234.343 30.8105 234.566C31.0612 234.785 31.2503 235.047 31.3779 235.353C31.5055 235.653 31.5693 235.984 31.5693 236.344ZM39.7656 238.989C39.7656 239.796 39.7064 240.518 39.5879 241.156C39.474 241.794 39.2871 242.334 39.0273 242.776C38.7721 243.218 38.4417 243.556 38.0361 243.788C37.6305 244.021 37.1383 244.137 36.5596 244.137C36.0218 244.137 35.5524 244.021 35.1514 243.788C34.7549 243.556 34.4245 243.218 34.1602 242.776C33.9004 242.334 33.7044 241.794 33.5723 241.156C33.4447 240.518 33.3809 239.796 33.3809 238.989C33.3809 238.183 33.4378 237.46 33.5518 236.822C33.6702 236.184 33.8548 235.646 34.1055 235.209C34.3607 234.767 34.6888 234.43 35.0898 234.197C35.4954 233.965 35.9854 233.849 36.5596 233.849C37.1019 233.849 37.5736 233.965 37.9746 234.197C38.3757 234.425 38.7083 234.76 38.9727 235.202C39.237 235.64 39.4352 236.177 39.5674 236.815C39.6995 237.453 39.7656 238.178 39.7656 238.989ZM34.6455 238.989C34.6455 239.673 34.6797 240.27 34.748 240.78C34.8164 241.291 34.9258 241.717 35.0762 242.059C35.2266 242.396 35.4225 242.651 35.6641 242.824C35.9102 242.993 36.2087 243.077 36.5596 243.077C36.9105 243.077 37.209 242.993 37.4551 242.824C37.7012 242.656 37.9017 242.403 38.0566 242.065C38.2161 241.728 38.3301 241.304 38.3984 240.794C38.4714 240.279 38.5078 239.677 38.5078 238.989C38.5078 238.306 38.4714 237.709 38.3984 237.198C38.3301 236.688 38.2161 236.264 38.0566 235.927C37.9017 235.59 37.7012 235.337 37.4551 235.168C37.209 234.999 36.9105 234.915 36.5596 234.915C36.2087 234.915 35.9102 234.999 35.6641 235.168C35.4225 235.337 35.2266 235.59 35.0762 235.927C34.9258 236.264 34.8164 236.688 34.748 237.198C34.6797 237.709 34.6455 238.306 34.6455 238.989ZM45.8428 232.345L42.1719 246.317H41.0098L44.6943 232.345H45.8428ZM53.4922 238.989C53.4922 239.796 53.4329 240.518 53.3145 241.156C53.2005 241.794 53.0137 242.334 52.7539 242.776C52.4987 243.218 52.1683 243.556 51.7627 243.788C51.3571 244.021 50.8649 244.137 50.2861 244.137C49.7484 244.137 49.279 244.021 48.8779 243.788C48.4814 243.556 48.151 243.218 47.8867 242.776C47.627 242.334 47.431 241.794 47.2988 241.156C47.1712 240.518 47.1074 239.796 47.1074 238.989C47.1074 238.183 47.1644 237.46 47.2783 236.822C47.3968 236.184 47.5814 235.646 47.832 235.209C48.0872 234.767 48.4154 234.43 48.8164 234.197C49.222 233.965 49.7119 233.849 50.2861 233.849C50.8285 233.849 51.3001 233.965 51.7012 234.197C52.1022 234.425 52.4349 234.76 52.6992 235.202C52.9635 235.64 53.1618 236.177 53.2939 236.815C53.4261 237.453 53.4922 238.178 53.4922 238.989ZM48.3721 238.989C48.3721 239.673 48.4062 240.27 48.4746 240.78C48.543 241.291 48.6523 241.717 48.8027 242.059C48.9531 242.396 49.1491 242.651 49.3906 242.824C49.6367 242.993 49.9352 243.077 50.2861 243.077C50.637 243.077 50.9355 242.993 51.1816 242.824C51.4277 242.656 51.6283 242.403 51.7832 242.065C51.9427 241.728 52.0566 241.304 52.125 240.794C52.1979 240.279 52.2344 239.677 52.2344 238.989C52.2344 238.306 52.1979 237.709 52.125 237.198C52.0566 236.688 51.9427 236.264 51.7832 235.927C51.6283 235.59 51.4277 235.337 51.1816 235.168C50.9355 234.999 50.637 234.915 50.2861 234.915C49.9352 234.915 49.6367 234.999 49.3906 235.168C49.1491 235.337 48.9531 235.59 48.8027 235.927C48.6523 236.264 48.543 236.688 48.4746 237.198C48.4062 237.709 48.3721 238.306 48.3721 238.989ZM56.0693 244L59.918 235.141H54.7637V234.006H61.1895V234.997L57.3955 244H56.0693ZM67.2803 232.345L63.6094 246.317H62.4473L66.1318 232.345H67.2803ZM74.7656 244H68.5312V242.934L70.9238 240.329C71.2656 239.96 71.571 239.623 71.8398 239.317C72.1087 239.012 72.3366 238.714 72.5234 238.422C72.7148 238.13 72.8607 237.839 72.9609 237.547C73.0612 237.251 73.1113 236.929 73.1113 236.583C73.1113 236.314 73.0726 236.077 72.9951 235.872C72.9176 235.667 72.806 235.494 72.6602 235.353C72.5189 235.207 72.3503 235.097 72.1543 235.024C71.9583 234.951 71.7396 234.915 71.498 234.915C71.0651 234.915 70.6732 235.004 70.3223 235.182C69.9759 235.355 69.6455 235.578 69.3311 235.852L68.6338 235.038C68.8161 234.874 69.012 234.721 69.2217 234.58C69.4313 234.434 69.6569 234.309 69.8984 234.204C70.14 234.099 70.3952 234.017 70.6641 233.958C70.9329 233.894 71.2155 233.862 71.5117 233.862C71.9492 233.862 72.3434 233.924 72.6943 234.047C73.0498 234.17 73.3506 234.348 73.5967 234.58C73.8428 234.808 74.0319 235.088 74.1641 235.421C74.3008 235.749 74.3691 236.12 74.3691 236.535C74.3691 236.923 74.3076 237.292 74.1846 237.643C74.0661 237.993 73.8997 238.34 73.6855 238.682C73.4759 239.019 73.223 239.358 72.9268 239.7C72.6351 240.042 72.3184 240.397 71.9766 240.767L70.0557 242.811V242.865H74.7656V244ZM82.6406 238.989C82.6406 239.796 82.5814 240.518 82.4629 241.156C82.349 241.794 82.1621 242.334 81.9023 242.776C81.6471 243.218 81.3167 243.556 80.9111 243.788C80.5055 244.021 80.0133 244.137 79.4346 244.137C78.8968 244.137 78.4274 244.021 78.0264 243.788C77.6299 243.556 77.2995 243.218 77.0352 242.776C76.7754 242.334 76.5794 241.794 76.4473 241.156C76.3197 240.518 76.2559 239.796 76.2559 238.989C76.2559 238.183 76.3128 237.46 76.4268 236.822C76.5452 236.184 76.7298 235.646 76.9805 235.209C77.2357 234.767 77.5638 234.43 77.9648 234.197C78.3704 233.965 78.8604 233.849 79.4346 233.849C79.9769 233.849 80.4486 233.965 80.8496 234.197C81.2507 234.425 81.5833 234.76 81.8477 235.202C82.112 235.64 82.3102 236.177 82.4424 236.815C82.5745 237.453 82.6406 238.178 82.6406 238.989ZM77.5205 238.989C77.5205 239.673 77.5547 240.27 77.623 240.78C77.6914 241.291 77.8008 241.717 77.9512 242.059C78.1016 242.396 78.2975 242.651 78.5391 242.824C78.7852 242.993 79.0837 243.077 79.4346 243.077C79.7855 243.077 80.084 242.993 80.3301 242.824C80.5762 242.656 80.7767 242.403 80.9316 242.065C81.0911 241.728 81.2051 241.304 81.2734 240.794C81.3464 240.279 81.3828 239.677 81.3828 238.989C81.3828 238.306 81.3464 237.709 81.2734 237.198C81.2051 236.688 81.0911 236.264 80.9316 235.927C80.7767 235.59 80.5762 235.337 80.3301 235.168C80.084 234.999 79.7855 234.915 79.4346 234.915C79.0837 234.915 78.7852 234.999 78.5391 235.168C78.2975 235.337 78.1016 235.59 77.9512 235.927C77.8008 236.264 77.6914 236.688 77.623 237.198C77.5547 237.709 77.5205 238.306 77.5205 238.989ZM90.1875 244H83.9531V242.934L86.3457 240.329C86.6875 239.96 86.9928 239.623 87.2617 239.317C87.5306 239.012 87.7585 238.714 87.9453 238.422C88.1367 238.13 88.2826 237.839 88.3828 237.547C88.4831 237.251 88.5332 236.929 88.5332 236.583C88.5332 236.314 88.4945 236.077 88.417 235.872C88.3395 235.667 88.2279 235.494 88.082 235.353C87.9408 235.207 87.7721 235.097 87.5762 235.024C87.3802 234.951 87.1615 234.915 86.9199 234.915C86.487 234.915 86.0951 235.004 85.7441 235.182C85.3978 235.355 85.0674 235.578 84.7529 235.852L84.0557 235.038C84.238 234.874 84.4339 234.721 84.6436 234.58C84.8532 234.434 85.0788 234.309 85.3203 234.204C85.5618 234.099 85.8171 234.017 86.0859 233.958C86.3548 233.894 86.6374 233.862 86.9336 233.862C87.3711 233.862 87.7653 233.924 88.1162 234.047C88.4717 234.17 88.7725 234.348 89.0186 234.58C89.2646 234.808 89.4538 235.088 89.5859 235.421C89.7227 235.749 89.791 236.12 89.791 236.535C89.791 236.923 89.7295 237.292 89.6064 237.643C89.488 237.993 89.3216 238.34 89.1074 238.682C88.8978 239.019 88.6449 239.358 88.3486 239.7C88.057 240.042 87.7402 240.397 87.3984 240.767L85.4775 242.811V242.865H90.1875V244ZM97.5771 236.344C97.5771 236.676 97.5247 236.979 97.4199 237.253C97.3151 237.526 97.167 237.763 96.9756 237.964C96.7887 238.164 96.5632 238.331 96.2988 238.463C96.0345 238.59 95.7406 238.682 95.417 238.736V238.777C96.2236 238.878 96.8366 239.135 97.2559 239.55C97.6751 239.96 97.8848 240.495 97.8848 241.156C97.8848 241.594 97.8096 241.995 97.6592 242.359C97.5133 242.724 97.29 243.038 96.9893 243.303C96.6885 243.567 96.3079 243.772 95.8477 243.918C95.3874 244.064 94.8428 244.137 94.2139 244.137C93.7171 244.137 93.2477 244.098 92.8057 244.021C92.3682 243.943 91.9557 243.802 91.5684 243.597V242.435C91.9648 242.644 92.3932 242.806 92.8535 242.92C93.3184 243.034 93.7627 243.091 94.1865 243.091C94.6058 243.091 94.9681 243.045 95.2734 242.954C95.5788 242.863 95.8294 242.733 96.0254 242.564C96.2259 242.396 96.3717 242.188 96.4629 241.942C96.5586 241.696 96.6064 241.421 96.6064 241.115C96.6064 240.805 96.5449 240.541 96.4219 240.322C96.3034 240.099 96.1325 239.917 95.9092 239.775C95.6859 239.63 95.4124 239.522 95.0889 239.454C94.7699 239.386 94.4076 239.352 94.002 239.352H93.0928V238.319H94.002C94.3711 238.319 94.6992 238.274 94.9863 238.183C95.2734 238.091 95.5127 237.962 95.7041 237.793C95.9001 237.624 96.0482 237.424 96.1484 237.191C96.2487 236.959 96.2988 236.704 96.2988 236.426C96.2988 236.189 96.2578 235.977 96.1758 235.79C96.0938 235.603 95.9775 235.446 95.8271 235.318C95.6768 235.186 95.4967 235.086 95.2871 235.018C95.0775 234.949 94.8451 234.915 94.5898 234.915C94.1022 234.915 93.6715 234.993 93.2979 235.147C92.9287 235.298 92.5755 235.496 92.2383 235.742L91.6094 234.888C91.7826 234.746 91.974 234.614 92.1836 234.491C92.3978 234.368 92.6302 234.261 92.8809 234.17C93.1315 234.074 93.3981 233.999 93.6807 233.944C93.9678 233.89 94.2708 233.862 94.5898 233.862C95.082 233.862 95.5127 233.924 95.8818 234.047C96.2555 234.17 96.5677 234.343 96.8184 234.566C97.069 234.785 97.2581 235.047 97.3857 235.353C97.5133 235.653 97.5771 235.984 97.5771 236.344Z" fill="#121212"/>
<path d="M277.166 224V215.434H278.244V223.039H281.988V224H277.166ZM287.285 224L287.08 223.086H287.033C286.713 223.488 286.393 223.762 286.072 223.906C285.756 224.047 285.355 224.117 284.871 224.117C284.238 224.117 283.742 223.951 283.383 223.619C283.023 223.287 282.844 222.818 282.844 222.213C282.844 220.908 283.873 220.225 285.932 220.162L287.021 220.121V219.74C287.021 219.252 286.916 218.893 286.705 218.662C286.494 218.428 286.156 218.311 285.691 218.311C285.352 218.311 285.029 218.361 284.725 218.463C284.424 218.564 284.141 218.678 283.875 218.803L283.553 218.012C283.877 217.84 284.23 217.705 284.613 217.607C284.996 217.51 285.375 217.461 285.75 217.461C286.527 217.461 287.105 217.633 287.484 217.977C287.863 218.32 288.053 218.867 288.053 219.617V224H287.285ZM285.111 223.268C285.701 223.268 286.164 223.109 286.5 222.793C286.84 222.473 287.01 222.02 287.01 221.434V220.854L286.061 220.895C285.322 220.922 284.783 221.039 284.443 221.246C284.107 221.453 283.939 221.779 283.939 222.225C283.939 222.561 284.041 222.818 284.244 222.998C284.451 223.178 284.74 223.268 285.111 223.268ZM294.24 222.225C294.24 222.826 294.016 223.293 293.566 223.625C293.117 223.953 292.486 224.117 291.674 224.117C290.826 224.117 290.152 223.982 289.652 223.713V222.752C290.359 223.096 291.041 223.268 291.697 223.268C292.229 223.268 292.615 223.182 292.857 223.01C293.1 222.838 293.221 222.607 293.221 222.318C293.221 222.064 293.104 221.85 292.869 221.674C292.639 221.498 292.227 221.297 291.633 221.07C291.027 220.836 290.602 220.637 290.355 220.473C290.109 220.305 289.928 220.117 289.811 219.91C289.697 219.703 289.641 219.451 289.641 219.154C289.641 218.627 289.855 218.211 290.285 217.906C290.715 217.602 291.305 217.449 292.055 217.449C292.785 217.449 293.469 217.594 294.105 217.883L293.748 218.721C293.096 218.447 292.508 218.311 291.984 218.311C291.547 218.311 291.215 218.381 290.988 218.521C290.762 218.658 290.648 218.848 290.648 219.09C290.648 219.324 290.746 219.52 290.941 219.676C291.137 219.828 291.592 220.041 292.307 220.314C292.842 220.514 293.236 220.699 293.49 220.871C293.748 221.043 293.938 221.236 294.059 221.451C294.18 221.666 294.24 221.924 294.24 222.225ZM297.955 223.256C298.092 223.256 298.252 223.242 298.436 223.215C298.619 223.188 298.758 223.156 298.852 223.121V223.93C298.754 223.973 298.602 224.014 298.395 224.053C298.191 224.096 297.984 224.117 297.773 224.117C296.516 224.117 295.887 223.455 295.887 222.131V218.387H294.979V217.883L295.898 217.461L296.32 216.09H296.947V217.566H298.805V218.387H296.947V222.102C296.947 222.473 297.035 222.758 297.211 222.957C297.391 223.156 297.639 223.256 297.955 223.256ZM310.963 224H309.873L308.203 218.387C307.957 217.551 307.812 216.986 307.77 216.693C307.707 217.143 307.57 217.719 307.359 218.422L305.742 224H304.652L302.385 215.434H303.51L304.84 220.666C305.02 221.35 305.156 222.029 305.25 222.705C305.336 222.064 305.488 221.363 305.707 220.602L307.219 215.434H308.332L309.908 220.643C310.111 221.318 310.268 222.006 310.377 222.705C310.439 222.166 310.578 221.482 310.793 220.654L312.117 215.434H313.242L310.963 224ZM322.131 224H321.041L319.371 218.387C319.125 217.551 318.98 216.986 318.938 216.693C318.875 217.143 318.738 217.719 318.527 218.422L316.91 224H315.82L313.553 215.434H314.678L316.008 220.666C316.188 221.35 316.324 222.029 316.418 222.705C316.504 222.064 316.656 221.363 316.875 220.602L318.387 215.434H319.5L321.076 220.643C321.279 221.318 321.436 222.006 321.545 222.705C321.607 222.166 321.746 221.482 321.961 220.654L323.285 215.434H324.41L322.131 224ZM331.447 224.117C330.482 224.117 329.725 223.826 329.174 223.244C328.627 222.658 328.354 221.854 328.354 220.83C328.354 219.799 328.609 218.979 329.121 218.369C329.633 217.756 330.324 217.449 331.195 217.449C332.004 217.449 332.648 217.711 333.129 218.234C333.609 218.754 333.85 219.459 333.85 220.35V220.988H329.443C329.463 221.719 329.648 222.273 330 222.652C330.352 223.031 330.85 223.221 331.494 223.221C331.838 223.221 332.164 223.191 332.473 223.133C332.781 223.07 333.143 222.951 333.557 222.775V223.701C333.201 223.854 332.867 223.961 332.555 224.023C332.242 224.086 331.873 224.117 331.447 224.117ZM331.184 218.311C330.68 218.311 330.281 218.473 329.988 218.797C329.695 219.121 329.521 219.572 329.467 220.15H332.742C332.734 219.549 332.596 219.092 332.326 218.779C332.057 218.467 331.676 218.311 331.184 218.311ZM336.891 220.713L334.67 217.566H335.871L337.529 219.992L339.17 217.566H340.359L338.139 220.713L340.482 224H339.281L337.529 221.434L335.754 224H334.564L336.891 220.713ZM344.338 224.117C343.373 224.117 342.615 223.826 342.064 223.244C341.518 222.658 341.244 221.854 341.244 220.83C341.244 219.799 341.5 218.979 342.012 218.369C342.523 217.756 343.215 217.449 344.086 217.449C344.895 217.449 345.539 217.711 346.02 218.234C346.5 218.754 346.74 219.459 346.74 220.35V220.988H342.334C342.354 221.719 342.539 222.273 342.891 222.652C343.242 223.031 343.74 223.221 344.385 223.221C344.729 223.221 345.055 223.191 345.363 223.133C345.672 223.07 346.033 222.951 346.447 222.775V223.701C346.092 223.854 345.758 223.961 345.445 224.023C345.133 224.086 344.764 224.117 344.338 224.117ZM344.074 218.311C343.57 218.311 343.172 218.473 342.879 218.797C342.586 219.121 342.412 219.572 342.357 220.15H345.633C345.625 219.549 345.486 219.092 345.217 218.779C344.947 218.467 344.566 218.311 344.074 218.311ZM350.953 224.117C350.027 224.117 349.307 223.834 348.791 223.268C348.275 222.697 348.018 221.881 348.018 220.818C348.018 219.74 348.277 218.91 348.797 218.328C349.32 217.742 350.064 217.449 351.029 217.449C351.342 217.449 351.65 217.482 351.955 217.549C352.264 217.611 352.518 217.693 352.717 217.795L352.395 218.674C351.852 218.471 351.389 218.369 351.006 218.369C350.357 218.369 349.879 218.574 349.57 218.984C349.262 219.391 349.107 219.998 349.107 220.807C349.107 221.584 349.262 222.18 349.57 222.594C349.879 223.004 350.336 223.209 350.941 223.209C351.508 223.209 352.064 223.084 352.611 222.834V223.771C352.166 224.002 351.613 224.117 350.953 224.117ZM355.137 217.566V221.709C355.137 222.229 355.252 222.615 355.482 222.869C355.717 223.119 356.078 223.244 356.566 223.244C357.227 223.244 357.707 223.061 358.008 222.693C358.309 222.326 358.459 221.734 358.459 220.918V217.566H359.52V224H358.652L358.5 223.15H358.447C358.256 223.459 357.984 223.697 357.633 223.865C357.281 224.033 356.873 224.117 356.408 224.117C355.635 224.117 355.051 223.932 354.656 223.561C354.266 223.189 354.07 222.596 354.07 221.779V217.566H355.137ZM363.709 223.256C363.846 223.256 364.006 223.242 364.189 223.215C364.373 223.188 364.512 223.156 364.605 223.121V223.93C364.508 223.973 364.355 224.014 364.148 224.053C363.945 224.096 363.738 224.117 363.527 224.117C362.27 224.117 361.641 223.455 361.641 222.131V218.387H360.732V217.883L361.652 217.461L362.074 216.09H362.701V217.566H364.559V218.387H362.701V222.102C362.701 222.473 362.789 222.758 362.965 222.957C363.145 223.156 363.393 223.256 363.709 223.256ZM368.631 224.117C367.666 224.117 366.908 223.826 366.357 223.244C365.811 222.658 365.537 221.854 365.537 220.83C365.537 219.799 365.793 218.979 366.305 218.369C366.816 217.756 367.508 217.449 368.379 217.449C369.188 217.449 369.832 217.711 370.312 218.234C370.793 218.754 371.033 219.459 371.033 220.35V220.988H366.627C366.646 221.719 366.832 222.273 367.184 222.652C367.535 223.031 368.033 223.221 368.678 223.221C369.021 223.221 369.348 223.191 369.656 223.133C369.965 223.07 370.326 222.951 370.74 222.775V223.701C370.385 223.854 370.051 223.961 369.738 224.023C369.426 224.086 369.057 224.117 368.631 224.117ZM368.367 218.311C367.863 218.311 367.465 218.473 367.172 218.797C366.879 219.121 366.705 219.572 366.65 220.15H369.926C369.918 219.549 369.779 219.092 369.51 218.779C369.24 218.467 368.859 218.311 368.367 218.311ZM374.947 224.117C374.111 224.117 373.463 223.828 373.002 223.25C372.541 222.672 372.311 221.854 372.311 220.795C372.311 219.744 372.541 218.924 373.002 218.334C373.467 217.744 374.119 217.449 374.959 217.449C375.822 217.449 376.486 217.766 376.951 218.398H377.027C377.016 218.32 377 218.164 376.98 217.93C376.961 217.691 376.951 217.531 376.951 217.449V214.883H378.006V224H377.156L376.998 223.139H376.951C376.502 223.791 375.834 224.117 374.947 224.117ZM375.117 223.244C375.758 223.244 376.225 223.07 376.518 222.723C376.814 222.371 376.963 221.797 376.963 221V220.807C376.963 219.912 376.812 219.275 376.512 218.896C376.215 218.514 375.746 218.322 375.105 218.322C374.562 218.322 374.143 218.539 373.846 218.973C373.549 219.402 373.4 220.018 373.4 220.818C373.4 221.615 373.547 222.219 373.84 222.629C374.137 223.039 374.562 223.244 375.117 223.244ZM388.758 220.771C388.758 221.822 388.492 222.643 387.961 223.232C387.43 223.822 386.695 224.117 385.758 224.117C385.176 224.117 384.66 223.982 384.211 223.713C383.762 223.439 383.416 223.049 383.174 222.541C382.932 222.033 382.811 221.443 382.811 220.771C382.811 219.725 383.072 218.91 383.596 218.328C384.119 217.742 384.854 217.449 385.799 217.449C386.705 217.449 387.424 217.748 387.955 218.346C388.49 218.939 388.758 219.748 388.758 220.771ZM383.9 220.771C383.9 221.58 384.059 222.195 384.375 222.617C384.695 223.035 385.166 223.244 385.787 223.244C386.4 223.244 386.867 223.035 387.188 222.617C387.508 222.195 387.668 221.58 387.668 220.771C387.668 219.963 387.506 219.355 387.182 218.949C386.861 218.539 386.391 218.334 385.77 218.334C384.523 218.334 383.9 219.146 383.9 220.771ZM394.816 224V219.887C394.816 219.363 394.699 218.975 394.465 218.721C394.234 218.463 393.871 218.334 393.375 218.334C392.715 218.334 392.234 218.518 391.934 218.885C391.637 219.248 391.488 219.842 391.488 220.666V224H390.434V217.566H391.283L391.441 218.445H391.5C391.699 218.129 391.979 217.885 392.338 217.713C392.697 217.537 393.094 217.449 393.527 217.449C394.316 217.449 394.902 217.641 395.285 218.023C395.668 218.406 395.859 219.002 395.859 219.811V224H394.816ZM400.975 223.35C400.975 223.201 400.994 223.076 401.033 222.975C401.072 222.869 401.125 222.785 401.191 222.723C401.258 222.656 401.336 222.609 401.426 222.582C401.516 222.551 401.613 222.535 401.719 222.535C401.82 222.535 401.916 222.551 402.006 222.582C402.1 222.609 402.18 222.656 402.246 222.723C402.312 222.785 402.365 222.869 402.404 222.975C402.443 223.076 402.463 223.201 402.463 223.35C402.463 223.494 402.443 223.619 402.404 223.725C402.365 223.826 402.312 223.91 402.246 223.977C402.18 224.043 402.1 224.092 402.006 224.123C401.916 224.154 401.82 224.17 401.719 224.17C401.613 224.17 401.516 224.154 401.426 224.123C401.336 224.092 401.258 224.043 401.191 223.977C401.125 223.91 401.072 223.826 401.033 223.725C400.994 223.619 400.975 223.494 400.975 223.35ZM400.975 218.217C400.975 218.064 400.994 217.938 401.033 217.836C401.072 217.73 401.125 217.646 401.191 217.584C401.258 217.518 401.336 217.471 401.426 217.443C401.516 217.416 401.613 217.402 401.719 217.402C401.82 217.402 401.916 217.416 402.006 217.443C402.1 217.471 402.18 217.518 402.246 217.584C402.312 217.646 402.365 217.73 402.404 217.836C402.443 217.938 402.463 218.064 402.463 218.217C402.463 218.361 402.443 218.484 402.404 218.586C402.365 218.688 402.312 218.771 402.246 218.838C402.18 218.904 402.1 218.953 402.006 218.984C401.916 219.016 401.82 219.031 401.719 219.031C401.613 219.031 401.516 219.016 401.426 218.984C401.336 218.953 401.258 218.904 401.191 218.838C401.125 218.771 401.072 218.688 401.033 218.586C400.994 218.484 400.975 218.361 400.975 218.217ZM283.055 238.989C283.055 239.796 282.995 240.518 282.877 241.156C282.763 241.794 282.576 242.334 282.316 242.776C282.061 243.218 281.731 243.556 281.325 243.788C280.92 244.021 280.427 244.137 279.849 244.137C279.311 244.137 278.841 244.021 278.44 243.788C278.044 243.556 277.714 243.218 277.449 242.776C277.189 242.334 276.993 241.794 276.861 241.156C276.734 240.518 276.67 239.796 276.67 238.989C276.67 238.183 276.727 237.46 276.841 236.822C276.959 236.184 277.144 235.646 277.395 235.209C277.65 234.767 277.978 234.43 278.379 234.197C278.785 233.965 279.274 233.849 279.849 233.849C280.391 233.849 280.863 233.965 281.264 234.197C281.665 234.425 281.997 234.76 282.262 235.202C282.526 235.64 282.724 236.177 282.856 236.815C282.989 237.453 283.055 238.178 283.055 238.989ZM277.935 238.989C277.935 239.673 277.969 240.27 278.037 240.78C278.105 241.291 278.215 241.717 278.365 242.059C278.516 242.396 278.712 242.651 278.953 242.824C279.199 242.993 279.498 243.077 279.849 243.077C280.2 243.077 280.498 242.993 280.744 242.824C280.99 242.656 281.191 242.403 281.346 242.065C281.505 241.728 281.619 241.304 281.688 240.794C281.76 240.279 281.797 239.677 281.797 238.989C281.797 238.306 281.76 237.709 281.688 237.198C281.619 236.688 281.505 236.264 281.346 235.927C281.191 235.59 280.99 235.337 280.744 235.168C280.498 234.999 280.2 234.915 279.849 234.915C279.498 234.915 279.199 234.999 278.953 235.168C278.712 235.337 278.516 235.59 278.365 235.927C278.215 236.264 278.105 236.688 278.037 237.198C277.969 237.709 277.935 238.306 277.935 238.989ZM290.602 244H284.367V242.934L286.76 240.329C287.102 239.96 287.407 239.623 287.676 239.317C287.945 239.012 288.173 238.714 288.359 238.422C288.551 238.13 288.697 237.839 288.797 237.547C288.897 237.251 288.947 236.929 288.947 236.583C288.947 236.314 288.909 236.077 288.831 235.872C288.754 235.667 288.642 235.494 288.496 235.353C288.355 235.207 288.186 235.097 287.99 235.024C287.794 234.951 287.576 234.915 287.334 234.915C286.901 234.915 286.509 235.004 286.158 235.182C285.812 235.355 285.481 235.578 285.167 235.852L284.47 235.038C284.652 234.874 284.848 234.721 285.058 234.58C285.267 234.434 285.493 234.309 285.734 234.204C285.976 234.099 286.231 234.017 286.5 233.958C286.769 233.894 287.051 233.862 287.348 233.862C287.785 233.862 288.179 233.924 288.53 234.047C288.886 234.17 289.187 234.348 289.433 234.58C289.679 234.808 289.868 235.088 290 235.421C290.137 235.749 290.205 236.12 290.205 236.535C290.205 236.923 290.144 237.292 290.021 237.643C289.902 237.993 289.736 238.34 289.521 238.682C289.312 239.019 289.059 239.358 288.763 239.7C288.471 240.042 288.154 240.397 287.812 240.767L285.892 242.811V242.865H290.602V244ZM296.843 232.345L293.172 246.317H292.01L295.694 232.345H296.843ZM304.492 238.989C304.492 239.796 304.433 240.518 304.314 241.156C304.201 241.794 304.014 242.334 303.754 242.776C303.499 243.218 303.168 243.556 302.763 243.788C302.357 244.021 301.865 244.137 301.286 244.137C300.748 244.137 300.279 244.021 299.878 243.788C299.481 243.556 299.151 243.218 298.887 242.776C298.627 242.334 298.431 241.794 298.299 241.156C298.171 240.518 298.107 239.796 298.107 238.989C298.107 238.183 298.164 237.46 298.278 236.822C298.397 236.184 298.581 235.646 298.832 235.209C299.087 234.767 299.415 234.43 299.816 234.197C300.222 233.965 300.712 233.849 301.286 233.849C301.828 233.849 302.3 233.965 302.701 234.197C303.102 234.425 303.435 234.76 303.699 235.202C303.964 235.64 304.162 236.177 304.294 236.815C304.426 237.453 304.492 238.178 304.492 238.989ZM299.372 238.989C299.372 239.673 299.406 240.27 299.475 240.78C299.543 241.291 299.652 241.717 299.803 242.059C299.953 242.396 300.149 242.651 300.391 242.824C300.637 242.993 300.935 243.077 301.286 243.077C301.637 243.077 301.936 242.993 302.182 242.824C302.428 242.656 302.628 242.403 302.783 242.065C302.943 241.728 303.057 241.304 303.125 240.794C303.198 240.279 303.234 239.677 303.234 238.989C303.234 238.306 303.198 237.709 303.125 237.198C303.057 236.688 302.943 236.264 302.783 235.927C302.628 235.59 302.428 235.337 302.182 235.168C301.936 234.999 301.637 234.915 301.286 234.915C300.935 234.915 300.637 234.999 300.391 235.168C300.149 235.337 299.953 235.59 299.803 235.927C299.652 236.264 299.543 236.688 299.475 237.198C299.406 237.709 299.372 238.306 299.372 238.989ZM308.874 237.868C309.325 237.868 309.744 237.932 310.132 238.06C310.524 238.183 310.863 238.367 311.15 238.613C311.442 238.859 311.67 239.165 311.834 239.529C311.998 239.894 312.08 240.315 312.08 240.794C312.08 241.313 312.003 241.781 311.848 242.195C311.693 242.61 311.463 242.961 311.157 243.248C310.852 243.535 310.474 243.756 310.022 243.911C309.576 244.062 309.061 244.137 308.478 244.137C308.245 244.137 308.015 244.125 307.787 244.103C307.564 244.08 307.347 244.046 307.138 244C306.933 243.959 306.737 243.904 306.55 243.836C306.363 243.768 306.194 243.688 306.044 243.597V242.421C306.194 242.526 306.37 242.619 306.57 242.701C306.775 242.783 306.99 242.852 307.213 242.906C307.436 242.961 307.66 243.004 307.883 243.036C308.111 243.063 308.32 243.077 308.512 243.077C308.872 243.077 309.193 243.036 309.476 242.954C309.758 242.868 309.997 242.735 310.193 242.558C310.389 242.38 310.54 242.157 310.645 241.888C310.749 241.619 310.802 241.3 310.802 240.931C310.802 240.279 310.601 239.782 310.2 239.44C309.799 239.094 309.216 238.921 308.45 238.921C308.327 238.921 308.193 238.928 308.047 238.941C307.906 238.951 307.762 238.964 307.616 238.982C307.475 239.001 307.338 239.021 307.206 239.044C307.078 239.062 306.967 239.08 306.871 239.099L306.256 238.709L306.632 234.006H311.349V235.141H307.712L307.445 238.005C307.591 237.978 307.783 237.948 308.02 237.916C308.261 237.884 308.546 237.868 308.874 237.868ZM318.28 232.345L314.609 246.317H313.447L317.132 232.345H318.28ZM325.766 244H319.531V242.934L321.924 240.329C322.266 239.96 322.571 239.623 322.84 239.317C323.109 239.012 323.337 238.714 323.523 238.422C323.715 238.13 323.861 237.839 323.961 237.547C324.061 237.251 324.111 236.929 324.111 236.583C324.111 236.314 324.073 236.077 323.995 235.872C323.918 235.667 323.806 235.494 323.66 235.353C323.519 235.207 323.35 235.097 323.154 235.024C322.958 234.951 322.74 234.915 322.498 234.915C322.065 234.915 321.673 235.004 321.322 235.182C320.976 235.355 320.646 235.578 320.331 235.852L319.634 235.038C319.816 234.874 320.012 234.721 320.222 234.58C320.431 234.434 320.657 234.309 320.898 234.204C321.14 234.099 321.395 234.017 321.664 233.958C321.933 233.894 322.215 233.862 322.512 233.862C322.949 233.862 323.343 233.924 323.694 234.047C324.05 234.17 324.351 234.348 324.597 234.58C324.843 234.808 325.032 235.088 325.164 235.421C325.301 235.749 325.369 236.12 325.369 236.535C325.369 236.923 325.308 237.292 325.185 237.643C325.066 237.993 324.9 238.34 324.686 238.682C324.476 239.019 324.223 239.358 323.927 239.7C323.635 240.042 323.318 240.397 322.977 240.767L321.056 242.811V242.865H325.766V244ZM333.641 238.989C333.641 239.796 333.581 240.518 333.463 241.156C333.349 241.794 333.162 242.334 332.902 242.776C332.647 243.218 332.317 243.556 331.911 243.788C331.506 244.021 331.013 244.137 330.435 244.137C329.897 244.137 329.427 244.021 329.026 243.788C328.63 243.556 328.299 243.218 328.035 242.776C327.775 242.334 327.579 241.794 327.447 241.156C327.32 240.518 327.256 239.796 327.256 238.989C327.256 238.183 327.313 237.46 327.427 236.822C327.545 236.184 327.73 235.646 327.98 235.209C328.236 234.767 328.564 234.43 328.965 234.197C329.37 233.965 329.86 233.849 330.435 233.849C330.977 233.849 331.449 233.965 331.85 234.197C332.251 234.425 332.583 234.76 332.848 235.202C333.112 235.64 333.31 236.177 333.442 236.815C333.575 237.453 333.641 238.178 333.641 238.989ZM328.521 238.989C328.521 239.673 328.555 240.27 328.623 240.78C328.691 241.291 328.801 241.717 328.951 242.059C329.102 242.396 329.298 242.651 329.539 242.824C329.785 242.993 330.084 243.077 330.435 243.077C330.785 243.077 331.084 242.993 331.33 242.824C331.576 242.656 331.777 242.403 331.932 242.065C332.091 241.728 332.205 241.304 332.273 240.794C332.346 240.279 332.383 239.677 332.383 238.989C332.383 238.306 332.346 237.709 332.273 237.198C332.205 236.688 332.091 236.264 331.932 235.927C331.777 235.59 331.576 235.337 331.33 235.168C331.084 234.999 330.785 234.915 330.435 234.915C330.084 234.915 329.785 234.999 329.539 235.168C329.298 235.337 329.102 235.59 328.951 235.927C328.801 236.264 328.691 236.688 328.623 237.198C328.555 237.709 328.521 238.306 328.521 238.989ZM341.188 244H334.953V242.934L337.346 240.329C337.688 239.96 337.993 239.623 338.262 239.317C338.531 239.012 338.758 238.714 338.945 238.422C339.137 238.13 339.283 237.839 339.383 237.547C339.483 237.251 339.533 236.929 339.533 236.583C339.533 236.314 339.494 236.077 339.417 235.872C339.34 235.667 339.228 235.494 339.082 235.353C338.941 235.207 338.772 235.097 338.576 235.024C338.38 234.951 338.161 234.915 337.92 234.915C337.487 234.915 337.095 235.004 336.744 235.182C336.398 235.355 336.067 235.578 335.753 235.852L335.056 235.038C335.238 234.874 335.434 234.721 335.644 234.58C335.853 234.434 336.079 234.309 336.32 234.204C336.562 234.099 336.817 234.017 337.086 233.958C337.355 233.894 337.637 233.862 337.934 233.862C338.371 233.862 338.765 233.924 339.116 234.047C339.472 234.17 339.772 234.348 340.019 234.58C340.265 234.808 340.454 235.088 340.586 235.421C340.723 235.749 340.791 236.12 340.791 236.535C340.791 236.923 340.729 237.292 340.606 237.643C340.488 237.993 340.322 238.34 340.107 238.682C339.898 239.019 339.645 239.358 339.349 239.7C339.057 240.042 338.74 240.397 338.398 240.767L336.478 242.811V242.865H341.188V244ZM348.577 236.344C348.577 236.676 348.525 236.979 348.42 237.253C348.315 237.526 348.167 237.763 347.976 237.964C347.789 238.164 347.563 238.331 347.299 238.463C347.035 238.59 346.741 238.682 346.417 238.736V238.777C347.224 238.878 347.837 239.135 348.256 239.55C348.675 239.96 348.885 240.495 348.885 241.156C348.885 241.594 348.81 241.995 348.659 242.359C348.513 242.724 348.29 243.038 347.989 243.303C347.688 243.567 347.308 243.772 346.848 243.918C346.387 244.064 345.843 244.137 345.214 244.137C344.717 244.137 344.248 244.098 343.806 244.021C343.368 243.943 342.956 243.802 342.568 243.597V242.435C342.965 242.644 343.393 242.806 343.854 242.92C344.318 243.034 344.763 243.091 345.187 243.091C345.606 243.091 345.968 243.045 346.273 242.954C346.579 242.863 346.829 242.733 347.025 242.564C347.226 242.396 347.372 242.188 347.463 241.942C347.559 241.696 347.606 241.421 347.606 241.115C347.606 240.805 347.545 240.541 347.422 240.322C347.303 240.099 347.132 239.917 346.909 239.775C346.686 239.63 346.412 239.522 346.089 239.454C345.77 239.386 345.408 239.352 345.002 239.352H344.093V238.319H345.002C345.371 238.319 345.699 238.274 345.986 238.183C346.273 238.091 346.513 237.962 346.704 237.793C346.9 237.624 347.048 237.424 347.148 237.191C347.249 236.959 347.299 236.704 347.299 236.426C347.299 236.189 347.258 235.977 347.176 235.79C347.094 235.603 346.978 235.446 346.827 235.318C346.677 235.186 346.497 235.086 346.287 235.018C346.077 234.949 345.845 234.915 345.59 234.915C345.102 234.915 344.672 234.993 344.298 235.147C343.929 235.298 343.576 235.496 343.238 235.742L342.609 234.888C342.783 234.746 342.974 234.614 343.184 234.491C343.398 234.368 343.63 234.261 343.881 234.17C344.132 234.074 344.398 233.999 344.681 233.944C344.968 233.89 345.271 233.862 345.59 233.862C346.082 233.862 346.513 233.924 346.882 234.047C347.256 234.17 347.568 234.343 347.818 234.566C348.069 234.785 348.258 235.047 348.386 235.353C348.513 235.653 348.577 235.984 348.577 236.344Z" fill="#121212"/>
<rect x="20.5" y="90.5" width="335" height="24" stroke="#CED7D4"/>
<rect x="21" y="91" width="260" height="23" fill="#4CA2A8"/>
<path d="M262.768 75.824C261.702 75.2693 261.168 74.4107 261.168 73.248C261.168 72.672 261.312 72.1493 261.6 71.68C261.899 71.2 262.342 70.8213 262.928 70.544C263.526 70.256 264.251 70.112 265.104 70.112C265.958 70.112 266.678 70.256 267.264 70.544C267.862 70.8213 268.304 71.2 268.592 71.68C268.891 72.1493 269.04 72.672 269.04 73.248C269.04 73.8347 268.896 74.352 268.608 74.8C268.32 75.2373 267.936 75.5787 267.456 75.824C268.043 76.08 268.502 76.4533 268.832 76.944C269.163 77.4347 269.328 78.016 269.328 78.688C269.328 79.4133 269.142 80.048 268.768 80.592C268.406 81.1253 267.904 81.536 267.264 81.824C266.624 82.112 265.904 82.256 265.104 82.256C264.304 82.256 263.584 82.112 262.944 81.824C262.315 81.536 261.814 81.1253 261.44 80.592C261.078 80.048 260.896 79.4133 260.896 78.688C260.896 78.016 261.062 77.4347 261.392 76.944C261.723 76.4427 262.182 76.0693 262.768 75.824ZM266.864 73.568C266.864 73.0453 266.704 72.64 266.384 72.352C266.075 72.064 265.648 71.92 265.104 71.92C264.571 71.92 264.144 72.064 263.824 72.352C263.515 72.64 263.36 73.0507 263.36 73.584C263.36 74.064 263.52 74.448 263.84 74.736C264.171 75.024 264.592 75.168 265.104 75.168C265.616 75.168 266.038 75.024 266.368 74.736C266.699 74.4373 266.864 74.048 266.864 73.568ZM265.104 76.8C264.496 76.8 264 76.9547 263.616 77.264C263.243 77.5733 263.056 78.016 263.056 78.592C263.056 79.1253 263.238 79.5627 263.6 79.904C263.974 80.2347 264.475 80.4 265.104 80.4C265.734 80.4 266.23 80.2293 266.592 79.888C266.955 79.5467 267.136 79.1147 267.136 78.592C267.136 78.0267 266.95 77.5893 266.576 77.28C266.203 76.96 265.712 76.8 265.104 76.8ZM276.896 73.248C276.789 72.8 276.602 72.464 276.336 72.24C276.08 72.016 275.706 71.904 275.216 71.904C274.48 71.904 273.936 72.2027 273.584 72.8C273.242 73.3867 273.066 74.3467 273.056 75.68C273.312 75.2533 273.685 74.9227 274.176 74.688C274.666 74.4427 275.2 74.32 275.776 74.32C276.469 74.32 277.082 74.4693 277.616 74.768C278.149 75.0667 278.565 75.504 278.864 76.08C279.162 76.6453 279.312 77.328 279.312 78.128C279.312 78.8853 279.157 79.5627 278.848 80.16C278.549 80.7467 278.106 81.2053 277.52 81.536C276.933 81.8667 276.234 82.032 275.424 82.032C274.314 82.032 273.44 81.7867 272.8 81.296C272.17 80.8053 271.728 80.1227 271.472 79.248C271.226 78.3627 271.104 77.2747 271.104 75.984C271.104 74.032 271.44 72.56 272.112 71.568C272.784 70.5653 273.845 70.064 275.296 70.064C276.416 70.064 277.285 70.368 277.904 70.976C278.522 71.584 278.88 72.3413 278.976 73.248H276.896ZM275.264 76.16C274.698 76.16 274.224 76.3253 273.84 76.656C273.456 76.9867 273.264 77.4667 273.264 78.096C273.264 78.7253 273.44 79.2213 273.792 79.584C274.154 79.9467 274.661 80.128 275.312 80.128C275.888 80.128 276.341 79.952 276.672 79.6C277.013 79.248 277.184 78.7733 277.184 78.176C277.184 77.5573 277.018 77.0667 276.688 76.704C276.368 76.3413 275.893 76.16 275.264 76.16ZM282.08 82.112C281.675 82.112 281.339 81.9893 281.072 81.744C280.816 81.488 280.688 81.1733 280.688 80.8C280.688 80.4267 280.816 80.1173 281.072 79.872C281.339 79.616 281.675 79.488 282.08 79.488C282.475 79.488 282.8 79.616 283.056 79.872C283.312 80.1173 283.44 80.4267 283.44 80.8C283.44 81.1733 283.312 81.488 283.056 81.744C282.8 81.9893 282.475 82.112 282.08 82.112ZM284.738 76.016C284.738 74.1707 285.069 72.7253 285.73 71.68C286.402 70.6347 287.512 70.112 289.058 70.112C290.605 70.112 291.709 70.6347 292.37 71.68C293.042 72.7253 293.378 74.1707 293.378 76.016C293.378 77.872 293.042 79.328 292.37 80.384C291.709 81.44 290.605 81.968 289.058 81.968C287.512 81.968 286.402 81.44 285.73 80.384C285.069 79.328 284.738 77.872 284.738 76.016ZM291.17 76.016C291.17 75.2267 291.117 74.5653 291.01 74.032C290.914 73.488 290.712 73.0453 290.402 72.704C290.104 72.3627 289.656 72.192 289.058 72.192C288.461 72.192 288.008 72.3627 287.698 72.704C287.4 73.0453 287.197 73.488 287.09 74.032C286.994 74.5653 286.946 75.2267 286.946 76.016C286.946 76.8267 286.994 77.5093 287.09 78.064C287.186 78.608 287.389 79.0507 287.698 79.392C288.008 79.7227 288.461 79.888 289.058 79.888C289.656 79.888 290.109 79.7227 290.418 79.392C290.728 79.0507 290.93 78.608 291.026 78.064C291.122 77.5093 291.17 76.8267 291.17 76.016ZM294.576 73.2C294.576 72.3893 294.811 71.7547 295.28 71.296C295.76 70.8373 296.373 70.608 297.12 70.608C297.867 70.608 298.475 70.8373 298.944 71.296C299.424 71.7547 299.664 72.3893 299.664 73.2C299.664 74.0213 299.424 74.6613 298.944 75.12C298.475 75.5787 297.867 75.808 297.12 75.808C296.373 75.808 295.76 75.5787 295.28 75.12C294.811 74.6613 294.576 74.0213 294.576 73.2ZM304.848 70.8L298.56 82H296.384L302.656 70.8H304.848ZM297.104 71.952C296.517 71.952 296.224 72.368 296.224 73.2C296.224 74.0427 296.517 74.464 297.104 74.464C297.392 74.464 297.616 74.3627 297.776 74.16C297.936 73.9467 298.016 73.6267 298.016 73.2C298.016 72.368 297.712 71.952 297.104 71.952ZM301.6 79.584C301.6 78.7627 301.835 78.128 302.304 77.68C302.784 77.2213 303.397 76.992 304.144 76.992C304.891 76.992 305.493 77.2213 305.952 77.68C306.421 78.128 306.656 78.7627 306.656 79.584C306.656 80.4053 306.421 81.0453 305.952 81.504C305.493 81.9627 304.891 82.192 304.144 82.192C303.387 82.192 302.773 81.9627 302.304 81.504C301.835 81.0453 301.6 80.4053 301.6 79.584ZM304.128 78.336C303.52 78.336 303.216 78.752 303.216 79.584C303.216 80.4267 303.52 80.848 304.128 80.848C304.725 80.848 305.024 80.4267 305.024 79.584C305.024 78.752 304.725 78.336 304.128 78.336Z" fill="#595959"/>
<rect width="383" height="1" transform="translate(23 201)" fill="#CED7D4"/>
<path d="M28.944 161.872C29.728 162.264 30.33 162.838 30.75 163.58C31.17 164.322 31.394 165.19 31.394 166.17C31.394 167.164 31.17 168.018 30.75 168.746C30.33 169.474 29.728 170.034 28.944 170.426C28.16 170.818 27.264 171 26.228 171H23.05V161.27H26.228C27.264 161.27 28.16 161.48 28.944 161.872ZM28.846 168.774C29.448 168.158 29.756 167.29 29.756 166.17C29.756 165.05 29.448 164.168 28.846 163.524C28.23 162.894 27.362 162.572 26.228 162.572H24.646V169.698H26.228C27.362 169.698 28.23 169.39 28.846 168.774ZM39.7398 167.738H33.8458C33.8878 168.354 34.1118 168.858 34.5318 169.222C34.9378 169.6 35.4418 169.782 36.0438 169.782C36.8978 169.782 37.4998 169.432 37.8638 168.704H39.5858C39.3478 169.418 38.9278 170.006 38.3118 170.454C37.6958 170.902 36.9398 171.126 36.0438 171.126C35.3018 171.126 34.6438 170.972 34.0558 170.636C33.4678 170.3 33.0198 169.838 32.6838 169.236C32.3478 168.634 32.1938 167.934 32.1938 167.136C32.1938 166.352 32.3478 165.652 32.6698 165.05C32.9918 164.448 33.4398 163.986 34.0278 163.65C34.6158 163.328 35.2878 163.16 36.0438 163.16C36.7718 163.16 37.4158 163.328 37.9898 163.636C38.5498 163.958 38.9978 164.406 39.3198 164.98C39.6278 165.554 39.7958 166.212 39.7958 166.954C39.7958 167.248 39.7678 167.514 39.7398 167.738ZM38.1298 166.45C38.1158 165.862 37.9058 165.4 37.4998 165.036C37.0798 164.686 36.5758 164.504 35.9738 164.504C35.4138 164.504 34.9518 164.686 34.5598 165.036C34.1678 165.386 33.9298 165.862 33.8598 166.45H38.1298ZM41.0604 165.05C41.3824 164.448 41.8304 163.986 42.4044 163.65C42.9644 163.328 43.6224 163.16 44.3644 163.16C45.2884 163.16 46.0584 163.384 46.6744 163.832C47.2904 164.28 47.6964 164.91 47.9204 165.722H46.1984C46.0584 165.344 45.8344 165.05 45.5264 164.826C45.2184 164.616 44.8264 164.504 44.3644 164.504C43.7064 164.504 43.1884 164.742 42.7964 165.204C42.4044 165.666 42.2224 166.31 42.2224 167.136C42.2224 167.976 42.4044 168.62 42.7964 169.082C43.1884 169.558 43.7064 169.782 44.3644 169.782C45.2884 169.782 45.8904 169.376 46.1984 168.564H47.9204C47.6964 169.348 47.2764 169.978 46.6604 170.44C46.0444 170.902 45.2744 171.126 44.3644 171.126C43.6224 171.126 42.9644 170.972 42.4044 170.636C41.8304 170.3 41.3824 169.838 41.0604 169.236C40.7384 168.634 40.5844 167.934 40.5844 167.136C40.5844 166.352 40.7384 165.652 41.0604 165.05ZM51.7809 163.496C52.1729 163.272 52.6349 163.16 53.1669 163.16V164.812H52.7609C52.1309 164.812 51.6549 164.98 51.3329 165.288C51.0109 165.61 50.8569 166.156 50.8569 166.94V171H49.2609V163.286H50.8569V164.406C51.0809 164.014 51.3889 163.72 51.7809 163.496ZM61.398 167.738H55.504C55.546 168.354 55.77 168.858 56.19 169.222C56.596 169.6 57.1 169.782 57.702 169.782C58.556 169.782 59.158 169.432 59.522 168.704H61.244C61.006 169.418 60.586 170.006 59.97 170.454C59.354 170.902 58.598 171.126 57.702 171.126C56.96 171.126 56.302 170.972 55.714 170.636C55.126 170.3 54.678 169.838 54.342 169.236C54.006 168.634 53.852 167.934 53.852 167.136C53.852 166.352 54.006 165.652 54.328 165.05C54.65 164.448 55.098 163.986 55.686 163.65C56.274 163.328 56.946 163.16 57.702 163.16C58.43 163.16 59.074 163.328 59.648 163.636C60.208 163.958 60.656 164.406 60.978 164.98C61.286 165.554 61.454 166.212 61.454 166.954C61.454 167.248 61.426 167.514 61.398 167.738ZM59.788 166.45C59.774 165.862 59.564 165.4 59.158 165.036C58.738 164.686 58.234 164.504 57.632 164.504C57.072 164.504 56.61 164.686 56.218 165.036C55.826 165.386 55.588 165.862 55.518 166.45H59.788ZM73.7366 163.538C74.2126 163.79 74.5906 164.168 74.8706 164.658C75.1506 165.162 75.2906 165.75 75.2906 166.45V171H73.7086V166.688C73.7086 166.002 73.5266 165.47 73.1906 165.106C72.8406 164.742 72.3646 164.546 71.7766 164.546C71.1746 164.546 70.6986 164.742 70.3486 165.106C69.9986 165.47 69.8306 166.002 69.8306 166.688V171H68.2486V166.688C68.2486 166.002 68.0666 165.47 67.7306 165.106C67.3806 164.742 66.9046 164.546 66.3166 164.546C65.7146 164.546 65.2386 164.742 64.8886 165.106C64.5386 165.47 64.3706 166.002 64.3706 166.688V171H62.7746V163.286H64.3706V164.168C64.6226 163.86 64.9586 163.608 65.3646 163.426C65.7566 163.258 66.1906 163.16 66.6526 163.16C67.2686 163.16 67.8146 163.3 68.3046 163.552C68.7806 163.818 69.1586 164.196 69.4246 164.686C69.6486 164.224 70.0126 163.86 70.5166 163.58C71.0066 163.3 71.5386 163.16 72.1126 163.16C72.7146 163.16 73.2606 163.286 73.7366 163.538ZM84.0855 167.738H78.1915C78.2335 168.354 78.4575 168.858 78.8775 169.222C79.2835 169.6 79.7875 169.782 80.3895 169.782C81.2435 169.782 81.8455 169.432 82.2095 168.704H83.9315C83.6935 169.418 83.2735 170.006 82.6575 170.454C82.0415 170.902 81.2855 171.126 80.3895 171.126C79.6475 171.126 78.9895 170.972 78.4015 170.636C77.8135 170.3 77.3655 169.838 77.0295 169.236C76.6935 168.634 76.5395 167.934 76.5395 167.136C76.5395 166.352 76.6935 165.652 77.0155 165.05C77.3375 164.448 77.7855 163.986 78.3735 163.65C78.9615 163.328 79.6335 163.16 80.3895 163.16C81.1175 163.16 81.7615 163.328 82.3355 163.636C82.8955 163.958 83.3435 164.406 83.6655 164.98C83.9735 165.554 84.1415 166.212 84.1415 166.954C84.1415 167.248 84.1135 167.514 84.0855 167.738ZM82.4755 166.45C82.4615 165.862 82.2515 165.4 81.8455 165.036C81.4255 164.686 80.9215 164.504 80.3195 164.504C79.7595 164.504 79.2975 164.686 78.9055 165.036C78.5135 165.386 78.2755 165.862 78.2055 166.45H82.4755ZM90.9781 163.538C91.4541 163.79 91.8321 164.168 92.1121 164.658C92.3781 165.162 92.5181 165.75 92.5181 166.45V171H90.9361V166.688C90.9361 166.002 90.7541 165.47 90.4181 165.106C90.0681 164.742 89.5921 164.546 89.0041 164.546C88.4021 164.546 87.9261 164.742 87.5761 165.106C87.2261 165.47 87.0581 166.002 87.0581 166.688V171H85.4621V163.286H87.0581V164.168C87.3101 163.86 87.6461 163.608 88.0521 163.426C88.4581 163.258 88.8921 163.16 89.3541 163.16C89.9561 163.16 90.5021 163.286 90.9781 163.538ZM96.1659 164.588V168.858C96.1659 169.152 96.2219 169.362 96.3619 169.488C96.5019 169.614 96.7259 169.67 97.0619 169.67H98.0419V171H96.7819C96.0539 171 95.5079 170.832 95.1299 170.496C94.7379 170.16 94.5559 169.614 94.5559 168.858V164.588H93.6459V163.286H94.5559V161.368H96.1659V163.286H98.0419V164.588H96.1659ZM103.812 170.804C103.336 170.58 102.958 170.286 102.678 169.908C102.398 169.53 102.244 169.11 102.23 168.634H103.882C103.91 168.97 104.064 169.236 104.344 169.46C104.624 169.684 104.988 169.782 105.422 169.782C105.87 169.782 106.206 169.698 106.458 169.53C106.71 169.362 106.836 169.138 106.836 168.858C106.836 168.578 106.696 168.354 106.416 168.214C106.136 168.074 105.702 167.92 105.114 167.752C104.526 167.598 104.064 167.444 103.7 167.29C103.336 167.15 103.014 166.912 102.748 166.604C102.482 166.296 102.356 165.89 102.356 165.386C102.356 164.98 102.468 164.602 102.72 164.266C102.958 163.93 103.308 163.65 103.756 163.454C104.204 163.258 104.736 163.16 105.324 163.16C106.192 163.16 106.906 163.384 107.438 163.832C107.97 164.28 108.264 164.882 108.306 165.638H106.71C106.682 165.302 106.542 165.022 106.29 164.812C106.038 164.616 105.688 164.504 105.268 164.504C104.848 164.504 104.526 164.588 104.302 164.742C104.078 164.91 103.966 165.12 103.966 165.372C103.966 165.582 104.036 165.75 104.19 165.89C104.33 166.03 104.512 166.142 104.736 166.226C104.946 166.31 105.268 166.408 105.688 166.52C106.248 166.674 106.696 166.828 107.06 166.982C107.424 167.136 107.732 167.36 107.998 167.654C108.25 167.962 108.39 168.354 108.404 168.844C108.404 169.292 108.278 169.684 108.04 170.02C107.788 170.37 107.452 170.636 107.004 170.832C106.556 171.028 106.038 171.126 105.45 171.126C104.834 171.126 104.288 171.028 103.812 170.804ZM109.962 161.97C109.766 161.774 109.668 161.536 109.668 161.242C109.668 160.962 109.766 160.71 109.962 160.514C110.158 160.318 110.396 160.22 110.69 160.22C110.97 160.22 111.208 160.318 111.404 160.514C111.6 160.71 111.698 160.962 111.698 161.242C111.698 161.536 111.6 161.774 111.404 161.97C111.208 162.166 110.97 162.264 110.69 162.264C110.396 162.264 110.158 162.166 109.962 161.97ZM111.474 163.286V171H109.878V163.286H111.474ZM118.836 163.538C119.312 163.79 119.69 164.168 119.97 164.658C120.236 165.162 120.376 165.75 120.376 166.45V171H118.794V166.688C118.794 166.002 118.612 165.47 118.276 165.106C117.926 164.742 117.45 164.546 116.862 164.546C116.26 164.546 115.784 164.742 115.434 165.106C115.084 165.47 114.916 166.002 114.916 166.688V171H113.32V163.286H114.916V164.168C115.168 163.86 115.504 163.608 115.91 163.426C116.316 163.258 116.75 163.16 117.212 163.16C117.814 163.16 118.36 163.286 118.836 163.538ZM122.105 165.05C122.427 164.448 122.875 163.986 123.449 163.65C124.009 163.328 124.667 163.16 125.409 163.16C126.333 163.16 127.103 163.384 127.719 163.832C128.335 164.28 128.741 164.91 128.965 165.722H127.243C127.103 165.344 126.879 165.05 126.571 164.826C126.263 164.616 125.871 164.504 125.409 164.504C124.751 164.504 124.233 164.742 123.841 165.204C123.449 165.666 123.267 166.31 123.267 167.136C123.267 167.976 123.449 168.62 123.841 169.082C124.233 169.558 124.751 169.782 125.409 169.782C126.333 169.782 126.935 169.376 127.243 168.564H128.965C128.741 169.348 128.321 169.978 127.705 170.44C127.089 170.902 126.319 171.126 125.409 171.126C124.667 171.126 124.009 170.972 123.449 170.636C122.875 170.3 122.427 169.838 122.105 169.236C121.783 168.634 121.629 167.934 121.629 167.136C121.629 166.352 121.783 165.652 122.105 165.05ZM137.32 167.738H131.426C131.468 168.354 131.692 168.858 132.112 169.222C132.518 169.6 133.022 169.782 133.624 169.782C134.478 169.782 135.08 169.432 135.444 168.704H137.166C136.928 169.418 136.508 170.006 135.892 170.454C135.276 170.902 134.52 171.126 133.624 171.126C132.882 171.126 132.224 170.972 131.636 170.636C131.048 170.3 130.6 169.838 130.264 169.236C129.928 168.634 129.774 167.934 129.774 167.136C129.774 166.352 129.928 165.652 130.25 165.05C130.572 164.448 131.02 163.986 131.608 163.65C132.196 163.328 132.868 163.16 133.624 163.16C134.352 163.16 134.996 163.328 135.57 163.636C136.13 163.958 136.578 164.406 136.9 164.98C137.208 165.554 137.376 166.212 137.376 166.954C137.376 167.248 137.348 167.514 137.32 167.738ZM135.71 166.45C135.696 165.862 135.486 165.4 135.08 165.036C134.66 164.686 134.156 164.504 133.554 164.504C132.994 164.504 132.532 164.686 132.14 165.036C131.748 165.386 131.51 165.862 131.44 166.45H135.71ZM143.679 160.64V171H142.083V160.64H143.679ZM145.469 165.05C145.791 164.462 146.225 164 146.785 163.664C147.345 163.328 147.961 163.16 148.633 163.16C149.235 163.16 149.767 163.286 150.215 163.524C150.663 163.762 151.027 164.056 151.307 164.406V163.286H152.917V171H151.307V169.852C151.027 170.216 150.663 170.524 150.201 170.762C149.725 171.014 149.193 171.126 148.605 171.126C147.933 171.126 147.331 170.958 146.785 170.622C146.225 170.286 145.791 169.81 145.469 169.194C145.147 168.578 144.993 167.892 144.993 167.108C144.993 166.338 145.147 165.652 145.469 165.05ZM150.971 165.75C150.747 165.358 150.467 165.064 150.117 164.854C149.753 164.658 149.375 164.546 148.969 164.546C148.549 164.546 148.171 164.658 147.821 164.854C147.457 165.05 147.177 165.344 146.953 165.736C146.729 166.128 146.631 166.576 146.631 167.108C146.631 167.64 146.729 168.116 146.953 168.508C147.177 168.914 147.457 169.222 147.821 169.432C148.185 169.642 148.563 169.74 148.969 169.74C149.375 169.74 149.753 169.642 150.117 169.432C150.467 169.236 150.747 168.928 150.971 168.536C151.195 168.144 151.307 167.668 151.307 167.136C151.307 166.604 151.195 166.142 150.971 165.75ZM155.925 170.804C155.449 170.58 155.071 170.286 154.791 169.908C154.511 169.53 154.357 169.11 154.343 168.634H155.995C156.023 168.97 156.177 169.236 156.457 169.46C156.737 169.684 157.101 169.782 157.535 169.782C157.983 169.782 158.319 169.698 158.571 169.53C158.823 169.362 158.949 169.138 158.949 168.858C158.949 168.578 158.809 168.354 158.529 168.214C158.249 168.074 157.815 167.92 157.227 167.752C156.639 167.598 156.177 167.444 155.813 167.29C155.449 167.15 155.127 166.912 154.861 166.604C154.595 166.296 154.469 165.89 154.469 165.386C154.469 164.98 154.581 164.602 154.833 164.266C155.071 163.93 155.421 163.65 155.869 163.454C156.317 163.258 156.849 163.16 157.437 163.16C158.305 163.16 159.019 163.384 159.551 163.832C160.083 164.28 160.377 164.882 160.419 165.638H158.823C158.795 165.302 158.655 165.022 158.403 164.812C158.151 164.616 157.801 164.504 157.381 164.504C156.961 164.504 156.639 164.588 156.415 164.742C156.191 164.91 156.079 165.12 156.079 165.372C156.079 165.582 156.149 165.75 156.303 165.89C156.443 166.03 156.625 166.142 156.849 166.226C157.059 166.31 157.381 166.408 157.801 166.52C158.361 166.674 158.809 166.828 159.173 166.982C159.537 167.136 159.845 167.36 160.111 167.654C160.363 167.962 160.503 168.354 160.517 168.844C160.517 169.292 160.391 169.684 160.153 170.02C159.901 170.37 159.565 170.636 159.117 170.832C158.669 171.028 158.151 171.126 157.563 171.126C156.947 171.126 156.401 171.028 155.925 170.804ZM163.853 164.588V168.858C163.853 169.152 163.909 169.362 164.049 169.488C164.189 169.614 164.413 169.67 164.749 169.67H165.729V171H164.469C163.741 171 163.195 170.832 162.817 170.496C162.425 170.16 162.243 169.614 162.243 168.858V164.588H161.333V163.286H162.243V161.368H163.853V163.286H165.729V164.588H163.853ZM171.709 170.636C171.121 170.3 170.659 169.838 170.323 169.236C169.987 168.634 169.819 167.934 169.819 167.136C169.819 166.352 169.987 165.666 170.337 165.05C170.673 164.448 171.149 163.986 171.751 163.65C172.339 163.328 173.011 163.16 173.753 163.16C174.481 163.16 175.153 163.328 175.755 163.65C176.343 163.986 176.819 164.448 177.169 165.05C177.505 165.666 177.687 166.352 177.687 167.136C177.687 167.92 177.505 168.62 177.155 169.222C176.791 169.838 176.315 170.3 175.699 170.636C175.083 170.972 174.411 171.126 173.683 171.126C172.955 171.126 172.297 170.972 171.709 170.636ZM174.831 169.446C175.195 169.25 175.489 168.956 175.713 168.564C175.937 168.172 176.049 167.696 176.049 167.136C176.049 166.576 175.937 166.114 175.727 165.722C175.503 165.33 175.223 165.036 174.873 164.84C174.509 164.644 174.131 164.546 173.725 164.546C173.305 164.546 172.927 164.644 172.577 164.84C172.227 165.036 171.947 165.33 171.751 165.722C171.541 166.114 171.443 166.576 171.443 167.136C171.443 167.976 171.653 168.62 172.073 169.068C172.493 169.516 173.039 169.74 173.683 169.74C174.089 169.74 174.467 169.642 174.831 169.446ZM182.249 164.588H180.821V171H179.211V164.588H178.301V163.286H179.211V162.74C179.211 161.858 179.435 161.214 179.911 160.808C180.387 160.402 181.129 160.192 182.137 160.192V161.522C181.647 161.522 181.311 161.62 181.115 161.802C180.919 161.984 180.821 162.292 180.821 162.74V163.286H182.249V164.588ZM186.647 164.588H185.219V171H183.609V164.588H182.699V163.286H183.609V162.74C183.609 161.858 183.833 161.214 184.309 160.808C184.785 160.402 185.527 160.192 186.535 160.192V161.522C186.045 161.522 185.709 161.62 185.513 161.802C185.317 161.984 185.219 162.292 185.219 162.74V163.286H186.647V164.588ZM189.408 160.64V171H187.812V160.64H189.408ZM191.337 161.97C191.141 161.774 191.043 161.536 191.043 161.242C191.043 160.962 191.141 160.71 191.337 160.514C191.533 160.318 191.771 160.22 192.065 160.22C192.345 160.22 192.583 160.318 192.779 160.514C192.975 160.71 193.073 160.962 193.073 161.242C193.073 161.536 192.975 161.774 192.779 161.97C192.583 162.166 192.345 162.264 192.065 162.264C191.771 162.264 191.533 162.166 191.337 161.97ZM192.849 163.286V171H191.253V163.286H192.849ZM200.211 163.538C200.687 163.79 201.065 164.168 201.345 164.658C201.611 165.162 201.751 165.75 201.751 166.45V171H200.169V166.688C200.169 166.002 199.987 165.47 199.651 165.106C199.301 164.742 198.825 164.546 198.237 164.546C197.635 164.546 197.159 164.742 196.809 165.106C196.459 165.47 196.291 166.002 196.291 166.688V171H194.695V163.286H196.291V164.168C196.543 163.86 196.879 163.608 197.285 163.426C197.691 163.258 198.125 163.16 198.587 163.16C199.189 163.16 199.735 163.286 200.211 163.538ZM210.55 167.738H204.656C204.698 168.354 204.922 168.858 205.342 169.222C205.748 169.6 206.252 169.782 206.854 169.782C207.708 169.782 208.31 169.432 208.674 168.704H210.396C210.158 169.418 209.738 170.006 209.122 170.454C208.506 170.902 207.75 171.126 206.854 171.126C206.112 171.126 205.454 170.972 204.866 170.636C204.278 170.3 203.83 169.838 203.494 169.236C203.158 168.634 203.004 167.934 203.004 167.136C203.004 166.352 203.158 165.652 203.48 165.05C203.802 164.448 204.25 163.986 204.838 163.65C205.426 163.328 206.098 163.16 206.854 163.16C207.582 163.16 208.226 163.328 208.8 163.636C209.36 163.958 209.808 164.406 210.13 164.98C210.438 165.554 210.606 166.212 210.606 166.954C210.606 167.248 210.578 167.514 210.55 167.738ZM208.94 166.45C208.926 165.862 208.716 165.4 208.31 165.036C207.89 164.686 207.386 164.504 206.784 164.504C206.224 164.504 205.762 164.686 205.37 165.036C204.978 165.386 204.74 165.862 204.67 166.45H208.94ZM227.984 161.27L225.1 171H223.294L221.25 163.636L219.08 171L217.288 171.014L214.53 161.27H216.224L218.24 169.194L220.424 161.27H222.216L224.246 169.152L226.276 161.27H227.984ZM241.72 161.27L238.836 171H237.03L234.986 163.636L232.816 171L231.024 171.014L228.266 161.27H229.96L231.976 169.194L234.16 161.27H235.952L237.982 169.152L240.012 161.27H241.72Z" fill="#121212"/>
<path d="M366.177 166.68V169.04H357.697V166.68H366.177ZM369.378 171.84C370.658 170.773 371.678 169.887 372.438 169.18C373.198 168.46 373.831 167.713 374.338 166.94C374.844 166.167 375.098 165.407 375.098 164.66C375.098 163.98 374.938 163.447 374.618 163.06C374.298 162.673 373.804 162.48 373.138 162.48C372.471 162.48 371.958 162.707 371.598 163.16C371.238 163.6 371.051 164.207 371.038 164.98H368.318C368.371 163.38 368.844 162.167 369.738 161.34C370.644 160.513 371.791 160.1 373.178 160.1C374.698 160.1 375.864 160.507 376.678 161.32C377.491 162.12 377.898 163.18 377.898 164.5C377.898 165.54 377.618 166.533 377.058 167.48C376.498 168.427 375.858 169.253 375.138 169.96C374.418 170.653 373.478 171.493 372.318 172.48H378.218V174.8H368.338V172.72L369.378 171.84ZM381.042 175.14C380.535 175.14 380.115 174.987 379.782 174.68C379.462 174.36 379.302 173.967 379.302 173.5C379.302 173.033 379.462 172.647 379.782 172.34C380.115 172.02 380.535 171.86 381.042 171.86C381.535 171.86 381.942 172.02 382.262 172.34C382.582 172.647 382.742 173.033 382.742 173.5C382.742 173.967 382.582 174.36 382.262 174.68C381.942 174.987 381.535 175.14 381.042 175.14ZM383.837 163V160.42H388.657V175H385.777V163H383.837Z" fill="#121212"/>
<path d="M395.94 168.677C395.94 169.224 396.02 169.634 396.18 169.907C396.339 170.181 396.597 170.317 396.952 170.317C397.649 170.317 397.998 169.771 397.998 168.677C397.998 167.583 397.649 167.036 396.952 167.036C396.597 167.036 396.339 167.173 396.18 167.446C396.02 167.72 395.94 168.13 395.94 168.677ZM399.01 168.677C399.01 169.069 398.969 169.424 398.887 169.743C398.809 170.058 398.686 170.324 398.518 170.543C398.349 170.762 398.135 170.928 397.875 171.042C397.615 171.156 397.308 171.213 396.952 171.213C396.619 171.213 396.328 171.156 396.077 171.042C395.826 170.928 395.615 170.762 395.441 170.543C395.268 170.324 395.138 170.058 395.052 169.743C394.97 169.424 394.929 169.069 394.929 168.677C394.929 168.28 394.967 167.925 395.045 167.61C395.122 167.296 395.243 167.032 395.407 166.817C395.576 166.599 395.788 166.435 396.043 166.325C396.298 166.211 396.601 166.154 396.952 166.154C397.289 166.154 397.586 166.211 397.841 166.325C398.096 166.435 398.31 166.599 398.483 166.817C398.661 167.032 398.793 167.296 398.88 167.61C398.966 167.925 399.01 168.28 399.01 168.677ZM401.854 172.601C401.854 173.147 401.933 173.558 402.093 173.831C402.252 174.1 402.51 174.234 402.865 174.234C403.562 174.234 403.911 173.69 403.911 172.601C403.911 171.507 403.562 170.96 402.865 170.96C402.51 170.96 402.252 171.097 402.093 171.37C401.933 171.639 401.854 172.049 401.854 172.601ZM404.916 172.601C404.916 172.997 404.877 173.353 404.8 173.667C404.722 173.977 404.599 174.241 404.431 174.46C404.262 174.679 404.048 174.847 403.788 174.966C403.533 175.08 403.225 175.137 402.865 175.137C402.533 175.137 402.239 175.08 401.983 174.966C401.733 174.847 401.523 174.679 401.354 174.46C401.186 174.241 401.058 173.977 400.972 173.667C400.885 173.353 400.842 172.997 400.842 172.601C400.842 172.204 400.881 171.849 400.958 171.534C401.04 171.22 401.163 170.955 401.327 170.741C401.491 170.527 401.701 170.363 401.956 170.249C402.211 170.135 402.514 170.078 402.865 170.078C403.207 170.078 403.506 170.135 403.761 170.249C404.016 170.363 404.228 170.527 404.396 170.741C404.57 170.955 404.7 171.22 404.786 171.534C404.873 171.849 404.916 172.204 404.916 172.601ZM403.18 166.291L397.786 175H396.692L402.1 166.291H403.18Z" fill="#595959"/>
<rect x="316" y="156" width="34" height="20" rx="4" fill="#FEFBE6"/>
<path d="M336 170.5L337.718 168.783L334.057 165.122L331.057 168.122L325.5 162.557L326.558 161.5L331.057 166L334.057 163L338.782 167.717L340.5 166V170.5H336Z" fill="#E87516"/>
<path d="M392.383 108.25H377.617L385 95.4979L392.383 108.25Z" fill="#FEEAEE" stroke="#E16E75"/>
<path d="M386.34 105H384.834V106.5H386.34V105Z" fill="#C21A2C"/>
<path d="M386.34 100.5H384.834V103.5H386.34V100.5Z" fill="#C21A2C"/>
<path opacity="0.5" d="M0 4C0 1.79086 1.79086 0 4 0H421C423.209 0 425 1.79086 425 4V261C425 263.209 423.209 265 421 265H3.99999C1.79086 265 0 263.209 0 261V4Z" fill="#EBEFEE"/>
</g>
</g>
<defs>
<clipPath id="clip0_0_1">
<rect width="425" height="265" rx="4" fill="white"/>
</clipPath>
</defs>
</svg>
