<svg width="425" height="265" viewBox="0 0 425 265" fill="none" xmlns="http://www.w3.org/2000/svg">
<rect width="425" height="265" fill="#F5F5F5"/>
<rect x="-17227" y="-7097" width="23840" height="13376" fill="#F8FAF9"/>
<g style="mix-blend-mode:luminosity">
<rect width="425" height="265" rx="4" fill="white"/>
<path d="M12 64H411V65H12V64Z" fill="#CED7D4"/>
<path d="M15.632 34.27V40.472C15.632 41.214 15.814 41.774 16.206 42.138C16.598 42.516 17.13 42.698 17.83 42.698C18.53 42.698 19.062 42.516 19.454 42.138C19.846 41.774 20.042 41.214 20.042 40.472V34.27H21.638V40.444C21.638 41.242 21.456 41.914 21.12 42.46C20.77 43.02 20.308 43.426 19.734 43.692C19.146 43.972 18.516 44.098 17.816 44.098C17.116 44.098 16.472 43.972 15.898 43.692C15.324 43.426 14.876 43.02 14.54 42.46C14.204 41.914 14.036 41.242 14.036 40.444V34.27H15.632ZM28.982 36.538C29.458 36.79 29.836 37.168 30.116 37.658C30.382 38.162 30.522 38.75 30.522 39.45V44H28.94V39.688C28.94 39.002 28.758 38.47 28.422 38.106C28.072 37.742 27.596 37.546 27.008 37.546C26.406 37.546 25.93 37.742 25.58 38.106C25.23 38.47 25.062 39.002 25.062 39.688V44H23.466V36.286H25.062V37.168C25.314 36.86 25.65 36.608 26.056 36.426C26.462 36.258 26.896 36.16 27.358 36.16C27.96 36.16 28.506 36.286 28.982 36.538ZM32.3918 34.97C32.1958 34.774 32.0978 34.536 32.0978 34.242C32.0978 33.962 32.1958 33.71 32.3918 33.514C32.5878 33.318 32.8258 33.22 33.1198 33.22C33.3998 33.22 33.6378 33.318 33.8338 33.514C34.0298 33.71 34.1278 33.962 34.1278 34.242C34.1278 34.536 34.0298 34.774 33.8338 34.97C33.6378 35.166 33.3998 35.264 33.1198 35.264C32.8258 35.264 32.5878 35.166 32.3918 34.97ZM33.9038 36.286V44H32.3078V36.286H33.9038ZM37.6112 37.588V41.858C37.6112 42.152 37.6672 42.362 37.8072 42.488C37.9472 42.614 38.1712 42.67 38.5072 42.67H39.4872V44H38.2272C37.4992 44 36.9532 43.832 36.5752 43.496C36.1832 43.16 36.0012 42.614 36.0012 41.858V37.588H35.0912V36.286H36.0012V34.368H37.6112V36.286H39.4872V37.588H37.6112ZM41.8702 43.804C41.3942 43.58 41.0162 43.286 40.7362 42.908C40.4562 42.53 40.3022 42.11 40.2882 41.634H41.9402C41.9682 41.97 42.1222 42.236 42.4022 42.46C42.6822 42.684 43.0462 42.782 43.4802 42.782C43.9282 42.782 44.2642 42.698 44.5162 42.53C44.7682 42.362 44.8942 42.138 44.8942 41.858C44.8942 41.578 44.7542 41.354 44.4742 41.214C44.1942 41.074 43.7602 40.92 43.1722 40.752C42.5842 40.598 42.1222 40.444 41.7582 40.29C41.3942 40.15 41.0722 39.912 40.8062 39.604C40.5402 39.296 40.4142 38.89 40.4142 38.386C40.4142 37.98 40.5262 37.602 40.7782 37.266C41.0162 36.93 41.3662 36.65 41.8142 36.454C42.2622 36.258 42.7942 36.16 43.3822 36.16C44.2502 36.16 44.9642 36.384 45.4962 36.832C46.0282 37.28 46.3222 37.882 46.3642 38.638H44.7682C44.7402 38.302 44.6002 38.022 44.3482 37.812C44.0962 37.616 43.7462 37.504 43.3262 37.504C42.9062 37.504 42.5842 37.588 42.3602 37.742C42.1362 37.91 42.0242 38.12 42.0242 38.372C42.0242 38.582 42.0942 38.75 42.2482 38.89C42.3882 39.03 42.5702 39.142 42.7942 39.226C43.0042 39.31 43.3262 39.408 43.7462 39.52C44.3062 39.674 44.7542 39.828 45.1182 39.982C45.4822 40.136 45.7902 40.36 46.0562 40.654C46.3082 40.962 46.4482 41.354 46.4622 41.844C46.4622 42.292 46.3362 42.684 46.0982 43.02C45.8462 43.37 45.5102 43.636 45.0622 43.832C44.6142 44.028 44.0962 44.126 43.5082 44.126C42.8922 44.126 42.3462 44.028 41.8702 43.804Z" fill="#121212"/>
<path d="M264.646 42.712H267.936V44H263.05V34.27H264.646V42.712ZM268.965 38.05C269.287 37.462 269.721 37 270.281 36.664C270.841 36.328 271.457 36.16 272.129 36.16C272.731 36.16 273.263 36.286 273.711 36.524C274.159 36.762 274.523 37.056 274.803 37.406V36.286H276.413V44H274.803V42.852C274.523 43.216 274.159 43.524 273.697 43.762C273.221 44.014 272.689 44.126 272.101 44.126C271.429 44.126 270.827 43.958 270.281 43.622C269.721 43.286 269.287 42.81 268.965 42.194C268.643 41.578 268.489 40.892 268.489 40.108C268.489 39.338 268.643 38.652 268.965 38.05ZM274.467 38.75C274.243 38.358 273.963 38.064 273.613 37.854C273.249 37.658 272.871 37.546 272.465 37.546C272.045 37.546 271.667 37.658 271.317 37.854C270.953 38.05 270.673 38.344 270.449 38.736C270.225 39.128 270.127 39.576 270.127 40.108C270.127 40.64 270.225 41.116 270.449 41.508C270.673 41.914 270.953 42.222 271.317 42.432C271.681 42.642 272.059 42.74 272.465 42.74C272.871 42.74 273.249 42.642 273.613 42.432C273.963 42.236 274.243 41.928 274.467 41.536C274.691 41.144 274.803 40.668 274.803 40.136C274.803 39.604 274.691 39.142 274.467 38.75ZM279.421 43.804C278.945 43.58 278.567 43.286 278.287 42.908C278.007 42.53 277.853 42.11 277.839 41.634H279.491C279.519 41.97 279.673 42.236 279.953 42.46C280.233 42.684 280.597 42.782 281.031 42.782C281.479 42.782 281.815 42.698 282.067 42.53C282.319 42.362 282.445 42.138 282.445 41.858C282.445 41.578 282.305 41.354 282.025 41.214C281.745 41.074 281.311 40.92 280.723 40.752C280.135 40.598 279.673 40.444 279.309 40.29C278.945 40.15 278.623 39.912 278.357 39.604C278.091 39.296 277.965 38.89 277.965 38.386C277.965 37.98 278.077 37.602 278.329 37.266C278.567 36.93 278.917 36.65 279.365 36.454C279.813 36.258 280.345 36.16 280.933 36.16C281.801 36.16 282.515 36.384 283.047 36.832C283.579 37.28 283.873 37.882 283.915 38.638H282.319C282.291 38.302 282.151 38.022 281.899 37.812C281.647 37.616 281.297 37.504 280.877 37.504C280.457 37.504 280.135 37.588 279.911 37.742C279.687 37.91 279.575 38.12 279.575 38.372C279.575 38.582 279.645 38.75 279.799 38.89C279.939 39.03 280.121 39.142 280.345 39.226C280.555 39.31 280.877 39.408 281.297 39.52C281.857 39.674 282.305 39.828 282.669 39.982C283.033 40.136 283.341 40.36 283.607 40.654C283.859 40.962 283.999 41.354 284.013 41.844C284.013 42.292 283.887 42.684 283.649 43.02C283.397 43.37 283.061 43.636 282.613 43.832C282.165 44.028 281.647 44.126 281.059 44.126C280.443 44.126 279.897 44.028 279.421 43.804ZM287.35 37.588V41.858C287.35 42.152 287.406 42.362 287.546 42.488C287.686 42.614 287.91 42.67 288.246 42.67H289.226V44H287.966C287.238 44 286.692 43.832 286.314 43.496C285.922 43.16 285.74 42.614 285.74 41.858V37.588H284.83V36.286H285.74V34.368H287.35V36.286H289.226V37.588H287.35ZM299.727 34.872C300.511 35.264 301.113 35.838 301.533 36.58C301.953 37.322 302.177 38.19 302.177 39.17C302.177 40.164 301.953 41.018 301.533 41.746C301.113 42.474 300.511 43.034 299.727 43.426C298.943 43.818 298.047 44 297.011 44H293.833V34.27H297.011C298.047 34.27 298.943 34.48 299.727 34.872ZM299.629 41.774C300.231 41.158 300.539 40.29 300.539 39.17C300.539 38.05 300.231 37.168 299.629 36.524C299.013 35.894 298.145 35.572 297.011 35.572H295.429V42.698H297.011C298.145 42.698 299.013 42.39 299.629 41.774ZM305.105 42.712H308.395V44H303.509V34.27H305.105V42.712ZM311.076 35.558V38.414H314.436V39.716H311.076V42.698H314.856V44H309.48V34.256H314.856V35.558H311.076ZM330.206 34.27V44H328.61V37.336L325.642 44H324.536L321.554 37.336V44H319.958V34.27H321.68L325.096 41.9L328.498 34.27H330.206ZM331.998 38.05C332.32 37.462 332.754 37 333.314 36.664C333.874 36.328 334.49 36.16 335.162 36.16C335.764 36.16 336.296 36.286 336.744 36.524C337.192 36.762 337.556 37.056 337.836 37.406V36.286H339.446V44H337.836V42.852C337.556 43.216 337.192 43.524 336.73 43.762C336.254 44.014 335.722 44.126 335.134 44.126C334.462 44.126 333.86 43.958 333.314 43.622C332.754 43.286 332.32 42.81 331.998 42.194C331.676 41.578 331.522 40.892 331.522 40.108C331.522 39.338 331.676 38.652 331.998 38.05ZM337.5 38.75C337.276 38.358 336.996 38.064 336.646 37.854C336.282 37.658 335.904 37.546 335.498 37.546C335.078 37.546 334.7 37.658 334.35 37.854C333.986 38.05 333.706 38.344 333.482 38.736C333.258 39.128 333.16 39.576 333.16 40.108C333.16 40.64 333.258 41.116 333.482 41.508C333.706 41.914 333.986 42.222 334.35 42.432C334.714 42.642 335.092 42.74 335.498 42.74C335.904 42.74 336.282 42.642 336.646 42.432C336.996 42.236 337.276 41.928 337.5 41.536C337.724 41.144 337.836 40.668 337.836 40.136C337.836 39.604 337.724 39.142 337.5 38.75ZM343.994 36.524C344.456 36.286 344.988 36.16 345.576 36.16C346.248 36.16 346.85 36.328 347.41 36.664C347.97 37 348.404 37.462 348.726 38.05C349.034 38.652 349.202 39.338 349.202 40.108C349.202 40.892 349.034 41.578 348.726 42.194C348.404 42.81 347.97 43.286 347.41 43.622C346.85 43.958 346.248 44.126 345.576 44.126C344.988 44.126 344.456 44.014 344.008 43.776C343.546 43.538 343.168 43.244 342.888 42.88V47.668H341.292V36.286H342.888V37.42C343.154 37.07 343.518 36.776 343.994 36.524ZM347.242 38.736C347.018 38.344 346.738 38.05 346.374 37.854C346.01 37.658 345.632 37.546 345.226 37.546C344.82 37.546 344.442 37.658 344.078 37.854C343.714 38.064 343.434 38.358 343.21 38.75C342.986 39.142 342.888 39.604 342.888 40.136C342.888 40.668 342.986 41.144 343.21 41.536C343.434 41.928 343.714 42.236 344.078 42.432C344.442 42.642 344.82 42.74 345.226 42.74C345.632 42.74 346.01 42.642 346.374 42.432C346.738 42.222 347.018 41.914 347.242 41.508C347.466 41.116 347.578 40.64 347.578 40.108C347.578 39.576 347.466 39.128 347.242 38.736ZM353.232 36.524C353.694 36.286 354.226 36.16 354.814 36.16C355.486 36.16 356.088 36.328 356.648 36.664C357.208 37 357.642 37.462 357.964 38.05C358.272 38.652 358.44 39.338 358.44 40.108C358.44 40.892 358.272 41.578 357.964 42.194C357.642 42.81 357.208 43.286 356.648 43.622C356.088 43.958 355.486 44.126 354.814 44.126C354.226 44.126 353.694 44.014 353.246 43.776C352.784 43.538 352.406 43.244 352.126 42.88V47.668H350.53V36.286H352.126V37.42C352.392 37.07 352.756 36.776 353.232 36.524ZM356.48 38.736C356.256 38.344 355.976 38.05 355.612 37.854C355.248 37.658 354.87 37.546 354.464 37.546C354.058 37.546 353.68 37.658 353.316 37.854C352.952 38.064 352.672 38.358 352.448 38.75C352.224 39.142 352.126 39.604 352.126 40.136C352.126 40.668 352.224 41.144 352.448 41.536C352.672 41.928 352.952 42.236 353.316 42.432C353.68 42.642 354.058 42.74 354.464 42.74C354.87 42.74 355.248 42.642 355.612 42.432C355.976 42.222 356.256 41.914 356.48 41.508C356.704 41.116 356.816 40.64 356.816 40.108C356.816 39.576 356.704 39.128 356.48 38.736ZM359.853 34.97C359.657 34.774 359.559 34.536 359.559 34.242C359.559 33.962 359.657 33.71 359.853 33.514C360.049 33.318 360.287 33.22 360.581 33.22C360.861 33.22 361.099 33.318 361.295 33.514C361.491 33.71 361.589 33.962 361.589 34.242C361.589 34.536 361.491 34.774 361.295 34.97C361.099 35.166 360.861 35.264 360.581 35.264C360.287 35.264 360.049 35.166 359.853 34.97ZM361.365 36.286V44H359.769V36.286H361.365ZM368.726 36.538C369.202 36.79 369.58 37.168 369.86 37.658C370.126 38.162 370.266 38.75 370.266 39.45V44H368.684V39.688C368.684 39.002 368.502 38.47 368.166 38.106C367.816 37.742 367.34 37.546 366.752 37.546C366.15 37.546 365.674 37.742 365.324 38.106C364.974 38.47 364.806 39.002 364.806 39.688V44H363.21V36.286H364.806V37.168C365.058 36.86 365.394 36.608 365.8 36.426C366.206 36.258 366.64 36.16 367.102 36.16C367.704 36.16 368.25 36.286 368.726 36.538ZM376.742 36.524C377.204 36.762 377.568 37.056 377.834 37.406V36.286H379.444V44.126C379.444 44.84 379.29 45.47 378.996 46.03C378.688 46.59 378.254 47.024 377.694 47.332C377.134 47.654 376.462 47.808 375.678 47.808C374.628 47.808 373.76 47.57 373.074 47.08C372.374 46.59 371.982 45.918 371.898 45.078H373.48C373.592 45.484 373.858 45.806 374.25 46.058C374.642 46.31 375.118 46.422 375.678 46.422C376.322 46.422 376.84 46.226 377.232 45.834C377.624 45.442 377.834 44.882 377.834 44.126V42.838C377.554 43.202 377.19 43.51 376.728 43.762C376.266 44.014 375.748 44.126 375.16 44.126C374.488 44.126 373.872 43.958 373.312 43.622C372.752 43.286 372.318 42.81 371.996 42.194C371.674 41.578 371.52 40.892 371.52 40.108C371.52 39.338 371.674 38.652 371.996 38.05C372.318 37.462 372.752 37 373.312 36.664C373.872 36.328 374.488 36.16 375.16 36.16C375.748 36.16 376.28 36.286 376.742 36.524ZM377.498 38.75C377.274 38.358 376.994 38.064 376.644 37.854C376.28 37.658 375.902 37.546 375.496 37.546C375.076 37.546 374.698 37.658 374.348 37.854C373.984 38.05 373.704 38.344 373.48 38.736C373.256 39.128 373.158 39.576 373.158 40.108C373.158 40.64 373.256 41.116 373.48 41.508C373.704 41.914 373.984 42.222 374.348 42.432C374.712 42.642 375.09 42.74 375.496 42.74C375.902 42.74 376.28 42.642 376.644 42.432C376.994 42.236 377.274 41.928 377.498 41.536C377.722 41.144 377.834 40.668 377.834 40.136C377.834 39.604 377.722 39.142 377.498 38.75Z" fill="#121212"/>
<path d="M114.916 42.012H110.842L110.142 44H108.476L111.962 34.256H113.81L117.296 44H115.616L114.916 42.012ZM114.468 40.71L112.886 36.188L111.29 40.71H114.468ZM118.506 38.05C118.828 37.448 119.276 36.986 119.85 36.65C120.41 36.328 121.068 36.16 121.81 36.16C122.734 36.16 123.504 36.384 124.12 36.832C124.736 37.28 125.142 37.91 125.366 38.722H123.644C123.504 38.344 123.28 38.05 122.972 37.826C122.664 37.616 122.272 37.504 121.81 37.504C121.152 37.504 120.634 37.742 120.242 38.204C119.85 38.666 119.668 39.31 119.668 40.136C119.668 40.976 119.85 41.62 120.242 42.082C120.634 42.558 121.152 42.782 121.81 42.782C122.734 42.782 123.336 42.376 123.644 41.564H125.366C125.142 42.348 124.722 42.978 124.106 43.44C123.49 43.902 122.72 44.126 121.81 44.126C121.068 44.126 120.41 43.972 119.85 43.636C119.276 43.3 118.828 42.838 118.506 42.236C118.184 41.634 118.03 40.934 118.03 40.136C118.03 39.352 118.184 38.652 118.506 38.05ZM128.568 37.588V41.858C128.568 42.152 128.624 42.362 128.764 42.488C128.904 42.614 129.128 42.67 129.464 42.67H130.444V44H129.184C128.456 44 127.91 43.832 127.532 43.496C127.14 43.16 126.958 42.614 126.958 41.858V37.588H126.048V36.286H126.958V34.368H128.568V36.286H130.444V37.588H128.568ZM138.651 36.286V44H137.055V43.09C136.803 43.412 136.467 43.664 136.061 43.846C135.655 44.028 135.221 44.112 134.773 44.112C134.157 44.112 133.611 43.986 133.135 43.734C132.659 43.482 132.281 43.118 132.001 42.614C131.721 42.124 131.595 41.522 131.595 40.822V36.286H133.177V40.584C133.177 41.284 133.345 41.816 133.695 42.18C134.031 42.544 134.507 42.726 135.109 42.726C135.697 42.726 136.173 42.544 136.523 42.18C136.873 41.816 137.055 41.284 137.055 40.584V36.286H138.651ZM140.451 38.05C140.773 37.462 141.207 37 141.767 36.664C142.327 36.328 142.943 36.16 143.615 36.16C144.217 36.16 144.749 36.286 145.197 36.524C145.645 36.762 146.009 37.056 146.289 37.406V36.286H147.899V44H146.289V42.852C146.009 43.216 145.645 43.524 145.183 43.762C144.707 44.014 144.175 44.126 143.587 44.126C142.915 44.126 142.313 43.958 141.767 43.622C141.207 43.286 140.773 42.81 140.451 42.194C140.129 41.578 139.975 40.892 139.975 40.108C139.975 39.338 140.129 38.652 140.451 38.05ZM145.953 38.75C145.729 38.358 145.449 38.064 145.099 37.854C144.735 37.658 144.357 37.546 143.951 37.546C143.531 37.546 143.153 37.658 142.803 37.854C142.439 38.05 142.159 38.344 141.935 38.736C141.711 39.128 141.613 39.576 141.613 40.108C141.613 40.64 141.711 41.116 141.935 41.508C142.159 41.914 142.439 42.222 142.803 42.432C143.167 42.642 143.545 42.74 143.951 42.74C144.357 42.74 144.735 42.642 145.099 42.432C145.449 42.236 145.729 41.928 145.953 41.536C146.177 41.144 146.289 40.668 146.289 40.136C146.289 39.604 146.177 39.142 145.953 38.75ZM151.341 33.64V44H149.745V33.64H151.341ZM163.111 39.828C163.475 40.29 163.657 40.808 163.657 41.382C163.657 41.886 163.517 42.334 163.265 42.726C163.013 43.118 162.635 43.44 162.159 43.664C161.669 43.888 161.109 44 160.465 44H156.573V34.27H160.283C160.941 34.27 161.515 34.382 161.991 34.606C162.467 34.83 162.817 35.138 163.069 35.516C163.307 35.894 163.433 36.314 163.433 36.776C163.433 37.336 163.279 37.812 162.985 38.176C162.677 38.554 162.285 38.834 161.781 39.002C162.299 39.1 162.747 39.38 163.111 39.828ZM158.169 38.358H160.143C160.661 38.358 161.067 38.246 161.361 38.008C161.655 37.77 161.809 37.42 161.809 36.972C161.809 36.538 161.655 36.202 161.361 35.95C161.067 35.698 160.661 35.572 160.143 35.572H158.169V38.358ZM161.599 42.306C161.907 42.054 162.061 41.69 162.061 41.214C162.061 40.738 161.893 40.36 161.571 40.08C161.235 39.8 160.801 39.66 160.269 39.66H158.169V42.698H160.325C160.857 42.698 161.291 42.572 161.599 42.306ZM172.128 36.286V44H170.532V43.09C170.28 43.412 169.944 43.664 169.538 43.846C169.132 44.028 168.698 44.112 168.25 44.112C167.634 44.112 167.088 43.986 166.612 43.734C166.136 43.482 165.758 43.118 165.478 42.614C165.198 42.124 165.072 41.522 165.072 40.822V36.286H166.654V40.584C166.654 41.284 166.822 41.816 167.172 42.18C167.508 42.544 167.984 42.726 168.586 42.726C169.174 42.726 169.65 42.544 170 42.18C170.35 41.816 170.532 41.284 170.532 40.584V36.286H172.128ZM176.504 36.496C176.896 36.272 177.358 36.16 177.89 36.16V37.812H177.484C176.854 37.812 176.378 37.98 176.056 38.288C175.734 38.61 175.58 39.156 175.58 39.94V44H173.984V36.286H175.58V37.406C175.804 37.014 176.112 36.72 176.504 36.496ZM184.623 36.538C185.099 36.79 185.477 37.168 185.757 37.658C186.023 38.162 186.163 38.75 186.163 39.45V44H184.581V39.688C184.581 39.002 184.399 38.47 184.063 38.106C183.713 37.742 183.237 37.546 182.649 37.546C182.047 37.546 181.571 37.742 181.221 38.106C180.871 38.47 180.703 39.002 180.703 39.688V44H179.107V36.286H180.703V37.168C180.955 36.86 181.291 36.608 181.697 36.426C182.103 36.258 182.537 36.16 182.999 36.16C183.601 36.16 184.147 36.286 184.623 36.538ZM194.962 40.738H189.068C189.11 41.354 189.334 41.858 189.754 42.222C190.16 42.6 190.664 42.782 191.266 42.782C192.12 42.782 192.722 42.432 193.086 41.704H194.808C194.57 42.418 194.15 43.006 193.534 43.454C192.918 43.902 192.162 44.126 191.266 44.126C190.524 44.126 189.866 43.972 189.278 43.636C188.69 43.3 188.242 42.838 187.906 42.236C187.57 41.634 187.416 40.934 187.416 40.136C187.416 39.352 187.57 38.652 187.892 38.05C188.214 37.448 188.662 36.986 189.25 36.65C189.838 36.328 190.51 36.16 191.266 36.16C191.994 36.16 192.638 36.328 193.212 36.636C193.772 36.958 194.22 37.406 194.542 37.98C194.85 38.554 195.018 39.212 195.018 39.954C195.018 40.248 194.99 40.514 194.962 40.738ZM193.352 39.45C193.338 38.862 193.128 38.4 192.722 38.036C192.302 37.686 191.798 37.504 191.196 37.504C190.636 37.504 190.174 37.686 189.782 38.036C189.39 38.386 189.152 38.862 189.082 39.45H193.352ZM198.859 36.496C199.251 36.272 199.713 36.16 200.245 36.16V37.812H199.839C199.209 37.812 198.733 37.98 198.411 38.288C198.089 38.61 197.935 39.156 197.935 39.94V44H196.339V36.286H197.935V37.406C198.159 37.014 198.467 36.72 198.859 36.496ZM215.097 34.27V44H213.501V37.336L210.533 44H209.427L206.445 37.336V44H204.849V34.27H206.571L209.987 41.9L213.389 34.27H215.097ZM218.317 43.636C217.729 43.3 217.267 42.838 216.931 42.236C216.595 41.634 216.427 40.934 216.427 40.136C216.427 39.352 216.595 38.666 216.945 38.05C217.281 37.448 217.757 36.986 218.359 36.65C218.947 36.328 219.619 36.16 220.361 36.16C221.089 36.16 221.761 36.328 222.363 36.65C222.951 36.986 223.427 37.448 223.777 38.05C224.113 38.666 224.295 39.352 224.295 40.136C224.295 40.92 224.113 41.62 223.763 42.222C223.399 42.838 222.923 43.3 222.307 43.636C221.691 43.972 221.019 44.126 220.291 44.126C219.563 44.126 218.905 43.972 218.317 43.636ZM221.439 42.446C221.803 42.25 222.097 41.956 222.321 41.564C222.545 41.172 222.657 40.696 222.657 40.136C222.657 39.576 222.545 39.114 222.335 38.722C222.111 38.33 221.831 38.036 221.481 37.84C221.117 37.644 220.739 37.546 220.333 37.546C219.913 37.546 219.535 37.644 219.185 37.84C218.835 38.036 218.555 38.33 218.359 38.722C218.149 39.114 218.051 39.576 218.051 40.136C218.051 40.976 218.261 41.62 218.681 42.068C219.101 42.516 219.647 42.74 220.291 42.74C220.697 42.74 221.075 42.642 221.439 42.446ZM225.566 38.05C225.888 37.462 226.322 37 226.882 36.664C227.442 36.328 228.058 36.16 228.744 36.16C229.248 36.16 229.738 36.272 230.228 36.496C230.718 36.72 231.11 37 231.404 37.364V33.64H233.014V44H231.404V42.838C231.138 43.216 230.774 43.524 230.312 43.762C229.85 44.014 229.318 44.126 228.73 44.126C228.058 44.126 227.442 43.958 226.882 43.622C226.322 43.286 225.888 42.81 225.566 42.194C225.244 41.578 225.09 40.892 225.09 40.108C225.09 39.338 225.244 38.652 225.566 38.05ZM231.068 38.75C230.844 38.358 230.564 38.064 230.214 37.854C229.85 37.658 229.472 37.546 229.066 37.546C228.646 37.546 228.268 37.658 227.918 37.854C227.554 38.05 227.274 38.344 227.05 38.736C226.826 39.128 226.728 39.576 226.728 40.108C226.728 40.64 226.826 41.116 227.05 41.508C227.274 41.914 227.554 42.222 227.918 42.432C228.282 42.642 228.66 42.74 229.066 42.74C229.472 42.74 229.85 42.642 230.214 42.432C230.564 42.236 230.844 41.928 231.068 41.536C231.292 41.144 231.404 40.668 231.404 40.136C231.404 39.604 231.292 39.142 231.068 38.75ZM241.875 40.738H235.981C236.023 41.354 236.247 41.858 236.667 42.222C237.073 42.6 237.577 42.782 238.179 42.782C239.033 42.782 239.635 42.432 239.999 41.704H241.721C241.483 42.418 241.063 43.006 240.447 43.454C239.831 43.902 239.075 44.126 238.179 44.126C237.437 44.126 236.779 43.972 236.191 43.636C235.603 43.3 235.155 42.838 234.819 42.236C234.483 41.634 234.329 40.934 234.329 40.136C234.329 39.352 234.483 38.652 234.805 38.05C235.127 37.448 235.575 36.986 236.163 36.65C236.751 36.328 237.423 36.16 238.179 36.16C238.907 36.16 239.551 36.328 240.125 36.636C240.685 36.958 241.133 37.406 241.455 37.98C241.763 38.554 241.931 39.212 241.931 39.954C241.931 40.248 241.903 40.514 241.875 40.738ZM240.265 39.45C240.251 38.862 240.041 38.4 239.635 38.036C239.215 37.686 238.711 37.504 238.109 37.504C237.549 37.504 237.087 37.686 236.695 38.036C236.303 38.386 236.065 38.862 235.995 39.45H240.265Z" fill="#121212"/>
<rect x="12" y="108" width="401" height="1" fill="#CED7D4"/>
<path d="M57.9619 82.0059V88.4727C57.9619 89.612 57.6178 90.5075 56.9297 91.1592C56.2415 91.8109 55.2868 92.1367 54.0654 92.1367C52.8577 92.1367 51.9212 91.8086 51.2559 91.1523C50.5905 90.4915 50.2578 89.5892 50.2578 88.4453V82.0059H51.5225V88.4863C51.5225 89.3021 51.7389 89.9333 52.1719 90.3799C52.6094 90.8265 53.2656 91.0498 54.1406 91.0498C54.9655 91.0498 55.599 90.8288 56.041 90.3867C56.4876 89.9447 56.7109 89.3066 56.7109 88.4727V82.0059H57.9619ZM65.543 92V87.2012C65.543 86.5905 65.4062 86.137 65.1328 85.8408C64.8639 85.54 64.4401 85.3896 63.8613 85.3896C63.0911 85.3896 62.5306 85.6038 62.1797 86.0322C61.8333 86.4561 61.6602 87.1488 61.6602 88.1104V92H60.4297V84.4941H61.4209L61.6055 85.5195H61.6738C61.9062 85.1504 62.2321 84.8656 62.6514 84.665C63.0706 84.46 63.5332 84.3574 64.0391 84.3574C64.9596 84.3574 65.6432 84.5807 66.0898 85.0273C66.5365 85.474 66.7598 86.1689 66.7598 87.1123V92H65.543ZM70.3145 92H69.084V84.4941H70.3145V92ZM68.9883 82.4639C68.9883 82.1904 69.0566 81.9922 69.1934 81.8691C69.3346 81.7461 69.5078 81.6846 69.7129 81.6846C69.9043 81.6846 70.0706 81.7461 70.2119 81.8691C70.3577 81.9922 70.4307 82.1904 70.4307 82.4639C70.4307 82.7327 70.3577 82.931 70.2119 83.0586C70.0706 83.1862 69.9043 83.25 69.7129 83.25C69.5078 83.25 69.3346 83.1862 69.1934 83.0586C69.0566 82.931 68.9883 82.7327 68.9883 82.4639ZM75.2021 91.1318C75.3617 91.1318 75.5485 91.1159 75.7627 91.084C75.9769 91.0521 76.1387 91.0156 76.248 90.9746V91.918C76.1341 91.9681 75.9564 92.016 75.7148 92.0615C75.4779 92.1117 75.2363 92.1367 74.9902 92.1367C73.5228 92.1367 72.7891 91.3643 72.7891 89.8193V85.4512H71.7295V84.8633L72.8027 84.3711L73.2949 82.7715H74.0264V84.4941H76.1934V85.4512H74.0264V89.7852C74.0264 90.2181 74.1289 90.5508 74.334 90.7832C74.5436 91.0156 74.833 91.1318 75.2021 91.1318ZM85.0596 92H83.8564V85.7588C83.8564 85.5628 83.8564 85.3532 83.8564 85.1299C83.861 84.9066 83.8656 84.6855 83.8701 84.4668C83.8792 84.2435 83.8861 84.0316 83.8906 83.8311C83.8997 83.626 83.9066 83.446 83.9111 83.291C83.8337 83.373 83.7653 83.4437 83.7061 83.5029C83.6468 83.5622 83.5853 83.6191 83.5215 83.6738C83.4622 83.7285 83.3984 83.7878 83.3301 83.8516C83.2617 83.9108 83.1797 83.9814 83.084 84.0635L82.0723 84.8906L81.416 84.0498L84.0342 82.0059H85.0596V92Z" fill="#595959"/>
<rect x="12" y="152" width="401" height="1" fill="#CED7D4"/>
<path d="M57.9619 126.006V132.473C57.9619 133.612 57.6178 134.507 56.9297 135.159C56.2415 135.811 55.2868 136.137 54.0654 136.137C52.8577 136.137 51.9212 135.809 51.2559 135.152C50.5905 134.492 50.2578 133.589 50.2578 132.445V126.006H51.5225V132.486C51.5225 133.302 51.7389 133.933 52.1719 134.38C52.6094 134.826 53.2656 135.05 54.1406 135.05C54.9655 135.05 55.599 134.829 56.041 134.387C56.4876 133.945 56.7109 133.307 56.7109 132.473V126.006H57.9619ZM65.543 136V131.201C65.543 130.59 65.4062 130.137 65.1328 129.841C64.8639 129.54 64.4401 129.39 63.8613 129.39C63.0911 129.39 62.5306 129.604 62.1797 130.032C61.8333 130.456 61.6602 131.149 61.6602 132.11V136H60.4297V128.494H61.4209L61.6055 129.52H61.6738C61.9062 129.15 62.2321 128.866 62.6514 128.665C63.0706 128.46 63.5332 128.357 64.0391 128.357C64.9596 128.357 65.6432 128.581 66.0898 129.027C66.5365 129.474 66.7598 130.169 66.7598 131.112V136H65.543ZM70.3145 136H69.084V128.494H70.3145V136ZM68.9883 126.464C68.9883 126.19 69.0566 125.992 69.1934 125.869C69.3346 125.746 69.5078 125.685 69.7129 125.685C69.9043 125.685 70.0706 125.746 70.2119 125.869C70.3577 125.992 70.4307 126.19 70.4307 126.464C70.4307 126.733 70.3577 126.931 70.2119 127.059C70.0706 127.186 69.9043 127.25 69.7129 127.25C69.5078 127.25 69.3346 127.186 69.1934 127.059C69.0566 126.931 68.9883 126.733 68.9883 126.464ZM75.2021 135.132C75.3617 135.132 75.5485 135.116 75.7627 135.084C75.9769 135.052 76.1387 135.016 76.248 134.975V135.918C76.1341 135.968 75.9564 136.016 75.7148 136.062C75.4779 136.112 75.2363 136.137 74.9902 136.137C73.5228 136.137 72.7891 135.364 72.7891 133.819V129.451H71.7295V128.863L72.8027 128.371L73.2949 126.771H74.0264V128.494H76.1934V129.451H74.0264V133.785C74.0264 134.218 74.1289 134.551 74.334 134.783C74.5436 135.016 74.833 135.132 75.2021 135.132ZM87.0898 136H80.8555V134.934L83.248 132.329C83.5898 131.96 83.8952 131.623 84.1641 131.317C84.4329 131.012 84.6608 130.714 84.8477 130.422C85.0391 130.13 85.1849 129.839 85.2852 129.547C85.3854 129.251 85.4355 128.929 85.4355 128.583C85.4355 128.314 85.3968 128.077 85.3193 127.872C85.2419 127.667 85.1302 127.494 84.9844 127.353C84.8431 127.207 84.6745 127.097 84.4785 127.024C84.2826 126.951 84.0638 126.915 83.8223 126.915C83.3893 126.915 82.9974 127.004 82.6465 127.182C82.3001 127.355 81.9697 127.578 81.6553 127.852L80.958 127.038C81.1403 126.874 81.3363 126.721 81.5459 126.58C81.7555 126.434 81.9811 126.309 82.2227 126.204C82.4642 126.099 82.7194 126.017 82.9883 125.958C83.2572 125.894 83.5397 125.862 83.8359 125.862C84.2734 125.862 84.6676 125.924 85.0186 126.047C85.374 126.17 85.6748 126.348 85.9209 126.58C86.167 126.808 86.3561 127.088 86.4883 127.421C86.625 127.749 86.6934 128.12 86.6934 128.535C86.6934 128.923 86.6318 129.292 86.5088 129.643C86.3903 129.993 86.224 130.34 86.0098 130.682C85.8001 131.019 85.5472 131.358 85.251 131.7C84.9593 132.042 84.6426 132.397 84.3008 132.767L82.3799 134.811V134.865H87.0898V136Z" fill="#595959"/>
<rect x="12" y="196" width="401" height="1" fill="#CED7D4"/>
<path d="M57.9619 170.006V176.473C57.9619 177.612 57.6178 178.507 56.9297 179.159C56.2415 179.811 55.2868 180.137 54.0654 180.137C52.8577 180.137 51.9212 179.809 51.2559 179.152C50.5905 178.492 50.2578 177.589 50.2578 176.445V170.006H51.5225V176.486C51.5225 177.302 51.7389 177.933 52.1719 178.38C52.6094 178.826 53.2656 179.05 54.1406 179.05C54.9655 179.05 55.599 178.829 56.041 178.387C56.4876 177.945 56.7109 177.307 56.7109 176.473V170.006H57.9619ZM65.543 180V175.201C65.543 174.59 65.4062 174.137 65.1328 173.841C64.8639 173.54 64.4401 173.39 63.8613 173.39C63.0911 173.39 62.5306 173.604 62.1797 174.032C61.8333 174.456 61.6602 175.149 61.6602 176.11V180H60.4297V172.494H61.4209L61.6055 173.52H61.6738C61.9062 173.15 62.2321 172.866 62.6514 172.665C63.0706 172.46 63.5332 172.357 64.0391 172.357C64.9596 172.357 65.6432 172.581 66.0898 173.027C66.5365 173.474 66.7598 174.169 66.7598 175.112V180H65.543ZM70.3145 180H69.084V172.494H70.3145V180ZM68.9883 170.464C68.9883 170.19 69.0566 169.992 69.1934 169.869C69.3346 169.746 69.5078 169.685 69.7129 169.685C69.9043 169.685 70.0706 169.746 70.2119 169.869C70.3577 169.992 70.4307 170.19 70.4307 170.464C70.4307 170.733 70.3577 170.931 70.2119 171.059C70.0706 171.186 69.9043 171.25 69.7129 171.25C69.5078 171.25 69.3346 171.186 69.1934 171.059C69.0566 170.931 68.9883 170.733 68.9883 170.464ZM75.2021 179.132C75.3617 179.132 75.5485 179.116 75.7627 179.084C75.9769 179.052 76.1387 179.016 76.248 178.975V179.918C76.1341 179.968 75.9564 180.016 75.7148 180.062C75.4779 180.112 75.2363 180.137 74.9902 180.137C73.5228 180.137 72.7891 179.364 72.7891 177.819V173.451H71.7295V172.863L72.8027 172.371L73.2949 170.771H74.0264V172.494H76.1934V173.451H74.0264V177.785C74.0264 178.218 74.1289 178.551 74.334 178.783C74.5436 179.016 74.833 179.132 75.2021 179.132ZM86.7686 172.344C86.7686 172.676 86.7161 172.979 86.6113 173.253C86.5065 173.526 86.3584 173.763 86.167 173.964C85.9801 174.164 85.7546 174.331 85.4902 174.463C85.2259 174.59 84.932 174.682 84.6084 174.736V174.777C85.415 174.878 86.028 175.135 86.4473 175.55C86.8665 175.96 87.0762 176.495 87.0762 177.156C87.0762 177.594 87.001 177.995 86.8506 178.359C86.7048 178.724 86.4814 179.038 86.1807 179.303C85.8799 179.567 85.4993 179.772 85.0391 179.918C84.5788 180.064 84.0342 180.137 83.4053 180.137C82.9085 180.137 82.4391 180.098 81.9971 180.021C81.5596 179.943 81.1471 179.802 80.7598 179.597V178.435C81.1562 178.644 81.5846 178.806 82.0449 178.92C82.5098 179.034 82.9541 179.091 83.3779 179.091C83.7972 179.091 84.1595 179.045 84.4648 178.954C84.7702 178.863 85.0208 178.733 85.2168 178.564C85.4173 178.396 85.5632 178.188 85.6543 177.942C85.75 177.696 85.7979 177.421 85.7979 177.115C85.7979 176.805 85.7363 176.541 85.6133 176.322C85.4948 176.099 85.3239 175.917 85.1006 175.775C84.8773 175.63 84.6038 175.522 84.2803 175.454C83.9613 175.386 83.599 175.352 83.1934 175.352H82.2842V174.319H83.1934C83.5625 174.319 83.8906 174.274 84.1777 174.183C84.4648 174.091 84.7041 173.962 84.8955 173.793C85.0915 173.624 85.2396 173.424 85.3398 173.191C85.4401 172.959 85.4902 172.704 85.4902 172.426C85.4902 172.189 85.4492 171.977 85.3672 171.79C85.2852 171.603 85.1689 171.446 85.0186 171.318C84.8682 171.186 84.6882 171.086 84.4785 171.018C84.2689 170.949 84.0365 170.915 83.7812 170.915C83.2936 170.915 82.863 170.993 82.4893 171.147C82.1201 171.298 81.7669 171.496 81.4297 171.742L80.8008 170.888C80.974 170.746 81.1654 170.614 81.375 170.491C81.5892 170.368 81.8216 170.261 82.0723 170.17C82.3229 170.074 82.5895 169.999 82.8721 169.944C83.1592 169.89 83.4622 169.862 83.7812 169.862C84.2734 169.862 84.7041 169.924 85.0732 170.047C85.4469 170.17 85.7591 170.343 86.0098 170.566C86.2604 170.785 86.4495 171.047 86.5771 171.353C86.7048 171.653 86.7686 171.984 86.7686 172.344Z" fill="#595959"/>
<rect x="12" y="240" width="401" height="1" fill="#CED7D4"/>
<path d="M57.9619 214.006V220.473C57.9619 221.612 57.6178 222.507 56.9297 223.159C56.2415 223.811 55.2868 224.137 54.0654 224.137C52.8577 224.137 51.9212 223.809 51.2559 223.152C50.5905 222.492 50.2578 221.589 50.2578 220.445V214.006H51.5225V220.486C51.5225 221.302 51.7389 221.933 52.1719 222.38C52.6094 222.826 53.2656 223.05 54.1406 223.05C54.9655 223.05 55.599 222.829 56.041 222.387C56.4876 221.945 56.7109 221.307 56.7109 220.473V214.006H57.9619ZM65.543 224V219.201C65.543 218.59 65.4062 218.137 65.1328 217.841C64.8639 217.54 64.4401 217.39 63.8613 217.39C63.0911 217.39 62.5306 217.604 62.1797 218.032C61.8333 218.456 61.6602 219.149 61.6602 220.11V224H60.4297V216.494H61.4209L61.6055 217.52H61.6738C61.9062 217.15 62.2321 216.866 62.6514 216.665C63.0706 216.46 63.5332 216.357 64.0391 216.357C64.9596 216.357 65.6432 216.581 66.0898 217.027C66.5365 217.474 66.7598 218.169 66.7598 219.112V224H65.543ZM70.3145 224H69.084V216.494H70.3145V224ZM68.9883 214.464C68.9883 214.19 69.0566 213.992 69.1934 213.869C69.3346 213.746 69.5078 213.685 69.7129 213.685C69.9043 213.685 70.0706 213.746 70.2119 213.869C70.3577 213.992 70.4307 214.19 70.4307 214.464C70.4307 214.733 70.3577 214.931 70.2119 215.059C70.0706 215.186 69.9043 215.25 69.7129 215.25C69.5078 215.25 69.3346 215.186 69.1934 215.059C69.0566 214.931 68.9883 214.733 68.9883 214.464ZM75.2021 223.132C75.3617 223.132 75.5485 223.116 75.7627 223.084C75.9769 223.052 76.1387 223.016 76.248 222.975V223.918C76.1341 223.968 75.9564 224.016 75.7148 224.062C75.4779 224.112 75.2363 224.137 74.9902 224.137C73.5228 224.137 72.7891 223.364 72.7891 221.819V217.451H71.7295V216.863L72.8027 216.371L73.2949 214.771H74.0264V216.494H76.1934V217.451H74.0264V221.785C74.0264 222.218 74.1289 222.551 74.334 222.783C74.5436 223.016 74.833 223.132 75.2021 223.132ZM87.6299 221.758H86.1738V224H84.9707V221.758H80.3564V220.671L84.8887 213.951H86.1738V220.623H87.6299V221.758ZM84.9707 220.623V218.189C84.9707 217.934 84.973 217.668 84.9775 217.39C84.9867 217.107 84.9958 216.834 85.0049 216.569C85.014 216.3 85.0231 216.05 85.0322 215.817C85.0459 215.585 85.055 215.391 85.0596 215.236H84.998C84.9661 215.327 84.9251 215.43 84.875 215.544C84.8294 215.653 84.777 215.765 84.7178 215.879C84.6631 215.988 84.6061 216.095 84.5469 216.2C84.4876 216.305 84.4329 216.394 84.3828 216.467L81.5732 220.623H84.9707Z" fill="#595959"/>
<rect x="141" y="209" width="32" height="20" rx="4" fill="#EFFCF6"/>
<path d="M155.539 224L154.508 221.346H151.109L150.09 224H149L152.346 215.398H153.318L156.658 224H155.539ZM154.186 220.391L153.225 217.795L152.814 216.512C152.697 216.98 152.574 217.408 152.445 217.795L151.473 220.391H154.186ZM157.842 215.434H160.285C161.434 215.434 162.262 215.605 162.77 215.949C163.281 216.289 163.537 216.824 163.537 217.555C163.537 218.062 163.398 218.482 163.121 218.814C162.844 219.143 162.439 219.355 161.908 219.453V219.512C162.568 219.625 163.053 219.854 163.361 220.197C163.674 220.541 163.83 220.996 163.83 221.562C163.83 222.328 163.568 222.926 163.045 223.355C162.521 223.785 161.791 224 160.854 224H157.842V215.434ZM158.92 219.078H160.502C161.174 219.078 161.662 218.971 161.967 218.756C162.271 218.541 162.424 218.182 162.424 217.678C162.424 217.209 162.256 216.871 161.92 216.664C161.588 216.457 161.061 216.354 160.338 216.354H158.92V219.078ZM158.92 219.98V223.086H160.648C161.336 223.086 161.846 222.953 162.178 222.688C162.51 222.422 162.676 222.02 162.676 221.48C162.676 220.969 162.5 220.592 162.148 220.35C161.797 220.104 161.27 219.98 160.566 219.98H158.92Z" fill="#02A783"/>
<rect x="141" y="78" width="40" height="20" rx="4" fill="#EFFCF6"/>
<path d="M155.539 93L154.508 90.3457H151.109L150.09 93H149L152.346 84.3984H153.318L156.658 93H155.539ZM154.186 89.3906L153.225 86.7949L152.814 85.5117C152.697 85.9805 152.574 86.4082 152.445 86.7949L151.473 89.3906H154.186ZM157.842 84.4336H160.285C161.434 84.4336 162.262 84.6055 162.77 84.9492C163.281 85.2891 163.537 85.8242 163.537 86.5547C163.537 87.0625 163.398 87.4824 163.121 87.8145C162.844 88.1426 162.439 88.3555 161.908 88.4531V88.5117C162.568 88.625 163.053 88.8535 163.361 89.1973C163.674 89.541 163.83 89.9961 163.83 90.5625C163.83 91.3281 163.568 91.9258 163.045 92.3555C162.521 92.7852 161.791 93 160.854 93H157.842V84.4336ZM158.92 88.0781H160.502C161.174 88.0781 161.662 87.9707 161.967 87.7559C162.271 87.541 162.424 87.1816 162.424 86.6777C162.424 86.209 162.256 85.8711 161.92 85.6641C161.588 85.457 161.061 85.3535 160.338 85.3535H158.92V88.0781ZM158.92 88.9805V92.0859H160.648C161.336 92.0859 161.846 91.9531 162.178 91.6875C162.51 91.4219 162.676 91.0195 162.676 90.4805C162.676 89.9688 162.5 89.5918 162.148 89.3496C161.797 89.1035 161.27 88.9805 160.566 88.9805H158.92ZM169.314 85.2598C168.393 85.2598 167.668 85.5684 167.141 86.1855C166.613 86.8027 166.35 87.6465 166.35 88.7168C166.35 89.8223 166.605 90.6758 167.117 91.2773C167.629 91.875 168.357 92.1738 169.303 92.1738C169.912 92.1738 170.598 92.0605 171.359 91.834V92.7715C170.996 92.9043 170.646 92.9941 170.311 93.041C169.975 93.0918 169.588 93.1172 169.15 93.1172C167.889 93.1172 166.916 92.7344 166.232 91.9688C165.553 91.1992 165.213 90.1113 165.213 88.7051C165.213 87.8223 165.375 87.0488 165.699 86.3848C166.027 85.7207 166.502 85.209 167.123 84.8496C167.748 84.4902 168.482 84.3105 169.326 84.3105C170.232 84.3105 171.021 84.4785 171.693 84.8145L171.26 85.7285C170.576 85.416 169.928 85.2598 169.314 85.2598Z" fill="#02A783"/>
<rect x="141" y="120" width="46" height="20" rx="4" fill="#EFFCF6"/>
<path d="M155.539 135L154.508 132.346H151.109L150.09 135H149L152.346 126.398H153.318L156.658 135H155.539ZM154.186 131.391L153.225 128.795L152.814 127.512C152.697 127.98 152.574 128.408 152.445 128.795L151.473 131.391H154.186ZM157.842 126.434H160.285C161.434 126.434 162.262 126.605 162.77 126.949C163.281 127.289 163.537 127.824 163.537 128.555C163.537 129.062 163.398 129.482 163.121 129.814C162.844 130.143 162.439 130.355 161.908 130.453V130.512C162.568 130.625 163.053 130.854 163.361 131.197C163.674 131.541 163.83 131.996 163.83 132.562C163.83 133.328 163.568 133.926 163.045 134.355C162.521 134.785 161.791 135 160.854 135H157.842V126.434ZM158.92 130.078H160.502C161.174 130.078 161.662 129.971 161.967 129.756C162.271 129.541 162.424 129.182 162.424 128.678C162.424 128.209 162.256 127.871 161.92 127.664C161.588 127.457 161.061 127.354 160.338 127.354H158.92V130.078ZM158.92 130.98V134.086H160.648C161.336 134.086 161.846 133.953 162.178 133.688C162.51 133.422 162.676 133.02 162.676 132.48C162.676 131.969 162.5 131.592 162.148 131.35C161.797 131.104 161.27 130.98 160.566 130.98H158.92ZM170.504 130.09C170.504 130.5 170.482 130.91 170.439 131.32C170.4 131.727 170.328 132.115 170.223 132.486C170.121 132.857 169.98 133.205 169.801 133.529C169.621 133.85 169.393 134.127 169.115 134.361C168.838 134.596 168.506 134.781 168.119 134.918C167.732 135.051 167.279 135.117 166.76 135.117C166.686 135.117 166.604 135.115 166.514 135.111C166.424 135.107 166.334 135.1 166.244 135.088C166.154 135.08 166.066 135.07 165.98 135.059C165.895 135.047 165.818 135.031 165.752 135.012V134.098C165.889 134.148 166.043 134.186 166.215 134.209C166.387 134.232 166.557 134.244 166.725 134.244C167.252 134.244 167.686 134.152 168.025 133.969C168.365 133.785 168.635 133.537 168.834 133.225C169.033 132.908 169.174 132.541 169.256 132.123C169.342 131.705 169.395 131.264 169.414 130.799H169.338C169.26 130.939 169.166 131.07 169.057 131.191C168.947 131.312 168.818 131.418 168.67 131.508C168.521 131.598 168.354 131.668 168.166 131.719C167.979 131.77 167.77 131.795 167.539 131.795C167.168 131.795 166.832 131.738 166.531 131.625C166.23 131.508 165.975 131.338 165.764 131.115C165.553 130.893 165.389 130.621 165.271 130.301C165.158 129.977 165.102 129.607 165.102 129.193C165.102 128.748 165.162 128.348 165.283 127.992C165.408 127.633 165.582 127.33 165.805 127.084C166.031 126.834 166.305 126.643 166.625 126.51C166.949 126.377 167.311 126.311 167.709 126.311C168.104 126.311 168.471 126.387 168.811 126.539C169.15 126.691 169.445 126.924 169.695 127.236C169.945 127.549 170.143 127.943 170.287 128.42C170.432 128.893 170.504 129.449 170.504 130.09ZM167.721 127.213C167.486 127.213 167.271 127.252 167.076 127.33C166.885 127.408 166.719 127.529 166.578 127.693C166.438 127.857 166.328 128.064 166.25 128.314C166.176 128.561 166.139 128.854 166.139 129.193C166.139 129.467 166.17 129.713 166.232 129.932C166.299 130.146 166.396 130.33 166.525 130.482C166.654 130.635 166.814 130.752 167.006 130.834C167.201 130.916 167.428 130.957 167.686 130.957C167.951 130.957 168.191 130.912 168.406 130.822C168.621 130.729 168.805 130.609 168.957 130.465C169.109 130.316 169.227 130.148 169.309 129.961C169.395 129.773 169.438 129.586 169.438 129.398C169.438 129.137 169.4 128.877 169.326 128.619C169.256 128.357 169.148 128.123 169.004 127.916C168.863 127.705 168.686 127.535 168.471 127.406C168.256 127.277 168.006 127.213 167.721 127.213ZM175.924 127.26C175.002 127.26 174.277 127.568 173.75 128.186C173.223 128.803 172.959 129.646 172.959 130.717C172.959 131.822 173.215 132.676 173.727 133.277C174.238 133.875 174.967 134.174 175.912 134.174C176.521 134.174 177.207 134.061 177.969 133.834V134.771C177.605 134.904 177.256 134.994 176.92 135.041C176.584 135.092 176.197 135.117 175.76 135.117C174.498 135.117 173.525 134.734 172.842 133.969C172.162 133.199 171.822 132.111 171.822 130.705C171.822 129.822 171.984 129.049 172.309 128.385C172.637 127.721 173.111 127.209 173.732 126.85C174.357 126.49 175.092 126.311 175.936 126.311C176.842 126.311 177.631 126.479 178.303 126.814L177.869 127.729C177.186 127.416 176.537 127.26 175.924 127.26Z" fill="#02A783"/>
<rect x="141" y="165" width="24" height="20" rx="4" fill="#EBEFEE"/>
<path d="M150.166 171.434H152.609C153.758 171.434 154.586 171.605 155.094 171.949C155.605 172.289 155.861 172.824 155.861 173.555C155.861 174.062 155.723 174.482 155.445 174.814C155.168 175.143 154.764 175.355 154.232 175.453V175.512C154.893 175.625 155.377 175.854 155.686 176.197C155.998 176.541 156.154 176.996 156.154 177.562C156.154 178.328 155.893 178.926 155.369 179.355C154.846 179.785 154.115 180 153.178 180H150.166V171.434ZM151.244 175.078H152.826C153.498 175.078 153.986 174.971 154.291 174.756C154.596 174.541 154.748 174.182 154.748 173.678C154.748 173.209 154.58 172.871 154.244 172.664C153.912 172.457 153.385 172.354 152.662 172.354H151.244V175.078ZM151.244 175.98V179.086H152.973C153.66 179.086 154.17 178.953 154.502 178.688C154.834 178.422 155 178.02 155 177.48C155 176.969 154.824 176.592 154.473 176.35C154.121 176.104 153.594 175.98 152.891 175.98H151.244Z" fill="#595959"/>
<path d="M290.97 82.284C291.586 81.808 292.37 81.556 293.322 81.556C293.966 81.556 294.54 81.682 295.016 81.906C295.492 82.144 295.842 82.466 296.094 82.858C296.332 83.264 296.458 83.712 296.458 84.216C296.458 84.804 296.304 85.294 295.996 85.7C295.688 86.12 295.31 86.386 294.89 86.526V86.582C295.436 86.75 295.87 87.058 296.178 87.506C296.486 87.954 296.64 88.514 296.64 89.2C296.64 89.76 296.514 90.25 296.262 90.67C296.01 91.104 295.632 91.44 295.142 91.692C294.638 91.944 294.05 92.056 293.364 92.056C292.356 92.056 291.516 91.804 290.872 91.286C290.228 90.768 289.878 90.026 289.836 89.046H291.376C291.404 89.55 291.6 89.956 291.95 90.264C292.286 90.572 292.762 90.726 293.35 90.726C293.91 90.726 294.358 90.572 294.666 90.264C294.974 89.956 295.128 89.55 295.128 89.046C295.128 88.402 294.918 87.94 294.498 87.66C294.078 87.38 293.448 87.24 292.594 87.24H292.23V85.924H292.608C293.364 85.924 293.938 85.798 294.33 85.546C294.722 85.308 294.932 84.93 294.932 84.398C294.932 83.95 294.778 83.6 294.498 83.334C294.204 83.068 293.798 82.928 293.266 82.928C292.734 82.928 292.328 83.068 292.048 83.334C291.754 83.6 291.586 83.922 291.53 84.314H289.976C290.032 83.446 290.354 82.774 290.97 82.284ZM298.879 82.984C299.425 82.074 300.363 81.612 301.707 81.612C303.037 81.612 303.975 82.074 304.521 82.984C305.067 83.894 305.347 85.154 305.347 86.764C305.347 88.402 305.067 89.676 304.521 90.6C303.975 91.524 303.037 91.972 301.707 91.972C300.363 91.972 299.425 91.524 298.879 90.6C298.333 89.676 298.067 88.402 298.067 86.764C298.067 85.154 298.333 83.894 298.879 82.984ZM303.625 84.846C303.527 84.328 303.331 83.908 303.037 83.572C302.729 83.236 302.295 83.068 301.707 83.068C301.119 83.068 300.671 83.236 300.377 83.572C300.069 83.908 299.873 84.328 299.775 84.846C299.677 85.378 299.635 86.008 299.635 86.764C299.635 87.548 299.677 88.206 299.775 88.738C299.859 89.27 300.055 89.704 300.363 90.026C300.671 90.362 301.119 90.516 301.707 90.516C302.295 90.516 302.729 90.362 303.037 90.026C303.345 89.704 303.541 89.27 303.639 88.738C303.723 88.206 303.779 87.548 303.779 86.764C303.779 86.008 303.723 85.378 303.625 84.846ZM312.917 86.26V87.604H307.163V86.26H312.917ZM320.241 82.27V89.284C320.241 90.152 319.975 90.838 319.443 91.342C318.911 91.846 318.225 92.098 317.371 92.098C316.503 92.098 315.817 91.846 315.285 91.342C314.753 90.838 314.501 90.152 314.501 89.284H316.111C316.111 89.718 316.223 90.054 316.433 90.306C316.643 90.558 316.951 90.684 317.371 90.684C317.777 90.684 318.085 90.558 318.309 90.306C318.519 90.054 318.631 89.704 318.631 89.284V82.27H320.241ZM322.531 86.05C322.853 85.462 323.287 85 323.847 84.664C324.407 84.328 325.023 84.16 325.695 84.16C326.297 84.16 326.829 84.286 327.277 84.524C327.725 84.762 328.089 85.056 328.369 85.406V84.286H329.979V92H328.369V90.852C328.089 91.216 327.725 91.524 327.263 91.762C326.787 92.014 326.255 92.126 325.667 92.126C324.995 92.126 324.393 91.958 323.847 91.622C323.287 91.286 322.853 90.81 322.531 90.194C322.209 89.578 322.055 88.892 322.055 88.108C322.055 87.338 322.209 86.652 322.531 86.05ZM328.033 86.75C327.809 86.358 327.529 86.064 327.179 85.854C326.815 85.658 326.437 85.546 326.031 85.546C325.611 85.546 325.233 85.658 324.883 85.854C324.519 86.05 324.239 86.344 324.015 86.736C323.791 87.128 323.693 87.576 323.693 88.108C323.693 88.64 323.791 89.116 324.015 89.508C324.239 89.914 324.519 90.222 324.883 90.432C325.247 90.642 325.625 90.74 326.031 90.74C326.437 90.74 326.815 90.642 327.179 90.432C327.529 90.236 327.809 89.928 328.033 89.536C328.257 89.144 328.369 88.668 328.369 88.136C328.369 87.604 328.257 87.142 328.033 86.75ZM337.341 84.538C337.817 84.79 338.195 85.168 338.475 85.658C338.741 86.162 338.881 86.75 338.881 87.45V92H337.299V87.688C337.299 87.002 337.117 86.47 336.781 86.106C336.431 85.742 335.955 85.546 335.367 85.546C334.765 85.546 334.289 85.742 333.939 86.106C333.589 86.47 333.421 87.002 333.421 87.688V92H331.825V84.286H333.421V85.168C333.673 84.86 334.009 84.608 334.415 84.426C334.821 84.258 335.255 84.16 335.717 84.16C336.319 84.16 336.865 84.286 337.341 84.538ZM346.589 86.26V87.604H340.835V86.26H346.589ZM349.279 89.83C350.175 89.06 350.875 88.43 351.393 87.926C351.911 87.422 352.345 86.904 352.695 86.358C353.031 85.826 353.213 85.28 353.213 84.734C353.213 84.174 353.073 83.74 352.807 83.418C352.541 83.11 352.121 82.942 351.561 82.942C351.001 82.942 350.581 83.124 350.273 83.474C349.965 83.824 349.811 84.286 349.797 84.874H348.257C348.285 83.81 348.593 82.998 349.209 82.438C349.825 81.878 350.595 81.584 351.547 81.584C352.555 81.584 353.353 81.864 353.927 82.424C354.501 82.984 354.795 83.74 354.795 84.664C354.795 85.336 354.613 85.994 354.277 86.61C353.941 87.226 353.535 87.786 353.059 88.276C352.583 88.766 351.995 89.326 351.267 89.97L350.637 90.53H355.075V91.86H348.271V90.698L349.279 89.83ZM357.039 82.984C357.585 82.074 358.523 81.612 359.867 81.612C361.197 81.612 362.135 82.074 362.681 82.984C363.227 83.894 363.507 85.154 363.507 86.764C363.507 88.402 363.227 89.676 362.681 90.6C362.135 91.524 361.197 91.972 359.867 91.972C358.523 91.972 357.585 91.524 357.039 90.6C356.493 89.676 356.227 88.402 356.227 86.764C356.227 85.154 356.493 83.894 357.039 82.984ZM361.785 84.846C361.687 84.328 361.491 83.908 361.197 83.572C360.889 83.236 360.455 83.068 359.867 83.068C359.279 83.068 358.831 83.236 358.537 83.572C358.229 83.908 358.033 84.328 357.935 84.846C357.837 85.378 357.795 86.008 357.795 86.764C357.795 87.548 357.837 88.206 357.935 88.738C358.019 89.27 358.215 89.704 358.523 90.026C358.831 90.362 359.279 90.516 359.867 90.516C360.455 90.516 360.889 90.362 361.197 90.026C361.505 89.704 361.701 89.27 361.799 88.738C361.883 88.206 361.939 87.548 361.939 86.764C361.939 86.008 361.883 85.378 361.785 84.846ZM365.827 89.83C366.723 89.06 367.423 88.43 367.941 87.926C368.459 87.422 368.893 86.904 369.243 86.358C369.579 85.826 369.761 85.28 369.761 84.734C369.761 84.174 369.621 83.74 369.355 83.418C369.089 83.11 368.669 82.942 368.109 82.942C367.549 82.942 367.129 83.124 366.821 83.474C366.513 83.824 366.359 84.286 366.345 84.874H364.805C364.833 83.81 365.141 82.998 365.757 82.438C366.373 81.878 367.143 81.584 368.095 81.584C369.103 81.584 369.901 81.864 370.475 82.424C371.049 82.984 371.343 83.74 371.343 84.664C371.343 85.336 371.161 85.994 370.825 86.61C370.489 87.226 370.083 87.786 369.607 88.276C369.131 88.766 368.543 89.326 367.815 89.97L367.185 90.53H371.623V91.86H364.819V90.698L365.827 89.83ZM372.58 89.872V88.668L377.284 81.92H379.216V88.486H380.518V89.872H379.216V92H377.648V89.872H372.58ZM377.718 83.544L374.414 88.486H377.718V83.544Z" fill="#121212"/>
<path d="M290.97 126.284C291.586 125.808 292.37 125.556 293.322 125.556C293.966 125.556 294.54 125.682 295.016 125.906C295.492 126.144 295.842 126.466 296.094 126.858C296.332 127.264 296.458 127.712 296.458 128.216C296.458 128.804 296.304 129.294 295.996 129.7C295.688 130.12 295.31 130.386 294.89 130.526V130.582C295.436 130.75 295.87 131.058 296.178 131.506C296.486 131.954 296.64 132.514 296.64 133.2C296.64 133.76 296.514 134.25 296.262 134.67C296.01 135.104 295.632 135.44 295.142 135.692C294.638 135.944 294.05 136.056 293.364 136.056C292.356 136.056 291.516 135.804 290.872 135.286C290.228 134.768 289.878 134.026 289.836 133.046H291.376C291.404 133.55 291.6 133.956 291.95 134.264C292.286 134.572 292.762 134.726 293.35 134.726C293.91 134.726 294.358 134.572 294.666 134.264C294.974 133.956 295.128 133.55 295.128 133.046C295.128 132.402 294.918 131.94 294.498 131.66C294.078 131.38 293.448 131.24 292.594 131.24H292.23V129.924H292.608C293.364 129.924 293.938 129.798 294.33 129.546C294.722 129.308 294.932 128.93 294.932 128.398C294.932 127.95 294.778 127.6 294.498 127.334C294.204 127.068 293.798 126.928 293.266 126.928C292.734 126.928 292.328 127.068 292.048 127.334C291.754 127.6 291.586 127.922 291.53 128.314H289.976C290.032 127.446 290.354 126.774 290.97 126.284ZM298.879 126.984C299.425 126.074 300.363 125.612 301.707 125.612C303.037 125.612 303.975 126.074 304.521 126.984C305.067 127.894 305.347 129.154 305.347 130.764C305.347 132.402 305.067 133.676 304.521 134.6C303.975 135.524 303.037 135.972 301.707 135.972C300.363 135.972 299.425 135.524 298.879 134.6C298.333 133.676 298.067 132.402 298.067 130.764C298.067 129.154 298.333 127.894 298.879 126.984ZM303.625 128.846C303.527 128.328 303.331 127.908 303.037 127.572C302.729 127.236 302.295 127.068 301.707 127.068C301.119 127.068 300.671 127.236 300.377 127.572C300.069 127.908 299.873 128.328 299.775 128.846C299.677 129.378 299.635 130.008 299.635 130.764C299.635 131.548 299.677 132.206 299.775 132.738C299.859 133.27 300.055 133.704 300.363 134.026C300.671 134.362 301.119 134.516 301.707 134.516C302.295 134.516 302.729 134.362 303.037 134.026C303.345 133.704 303.541 133.27 303.639 132.738C303.723 132.206 303.779 131.548 303.779 130.764C303.779 130.008 303.723 129.378 303.625 128.846ZM312.917 130.26V131.604H307.163V130.26H312.917ZM320.241 126.27V133.284C320.241 134.152 319.975 134.838 319.443 135.342C318.911 135.846 318.225 136.098 317.371 136.098C316.503 136.098 315.817 135.846 315.285 135.342C314.753 134.838 314.501 134.152 314.501 133.284H316.111C316.111 133.718 316.223 134.054 316.433 134.306C316.643 134.558 316.951 134.684 317.371 134.684C317.777 134.684 318.085 134.558 318.309 134.306C318.519 134.054 318.631 133.704 318.631 133.284V126.27H320.241ZM322.531 130.05C322.853 129.462 323.287 129 323.847 128.664C324.407 128.328 325.023 128.16 325.695 128.16C326.297 128.16 326.829 128.286 327.277 128.524C327.725 128.762 328.089 129.056 328.369 129.406V128.286H329.979V136H328.369V134.852C328.089 135.216 327.725 135.524 327.263 135.762C326.787 136.014 326.255 136.126 325.667 136.126C324.995 136.126 324.393 135.958 323.847 135.622C323.287 135.286 322.853 134.81 322.531 134.194C322.209 133.578 322.055 132.892 322.055 132.108C322.055 131.338 322.209 130.652 322.531 130.05ZM328.033 130.75C327.809 130.358 327.529 130.064 327.179 129.854C326.815 129.658 326.437 129.546 326.031 129.546C325.611 129.546 325.233 129.658 324.883 129.854C324.519 130.05 324.239 130.344 324.015 130.736C323.791 131.128 323.693 131.576 323.693 132.108C323.693 132.64 323.791 133.116 324.015 133.508C324.239 133.914 324.519 134.222 324.883 134.432C325.247 134.642 325.625 134.74 326.031 134.74C326.437 134.74 326.815 134.642 327.179 134.432C327.529 134.236 327.809 133.928 328.033 133.536C328.257 133.144 328.369 132.668 328.369 132.136C328.369 131.604 328.257 131.142 328.033 130.75ZM337.341 128.538C337.817 128.79 338.195 129.168 338.475 129.658C338.741 130.162 338.881 130.75 338.881 131.45V136H337.299V131.688C337.299 131.002 337.117 130.47 336.781 130.106C336.431 129.742 335.955 129.546 335.367 129.546C334.765 129.546 334.289 129.742 333.939 130.106C333.589 130.47 333.421 131.002 333.421 131.688V136H331.825V128.286H333.421V129.168C333.673 128.86 334.009 128.608 334.415 128.426C334.821 128.258 335.255 128.16 335.717 128.16C336.319 128.16 336.865 128.286 337.341 128.538ZM346.589 130.26V131.604H340.835V130.26H346.589ZM349.279 133.83C350.175 133.06 350.875 132.43 351.393 131.926C351.911 131.422 352.345 130.904 352.695 130.358C353.031 129.826 353.213 129.28 353.213 128.734C353.213 128.174 353.073 127.74 352.807 127.418C352.541 127.11 352.121 126.942 351.561 126.942C351.001 126.942 350.581 127.124 350.273 127.474C349.965 127.824 349.811 128.286 349.797 128.874H348.257C348.285 127.81 348.593 126.998 349.209 126.438C349.825 125.878 350.595 125.584 351.547 125.584C352.555 125.584 353.353 125.864 353.927 126.424C354.501 126.984 354.795 127.74 354.795 128.664C354.795 129.336 354.613 129.994 354.277 130.61C353.941 131.226 353.535 131.786 353.059 132.276C352.583 132.766 351.995 133.326 351.267 133.97L350.637 134.53H355.075V135.86H348.271V134.698L349.279 133.83ZM357.039 126.984C357.585 126.074 358.523 125.612 359.867 125.612C361.197 125.612 362.135 126.074 362.681 126.984C363.227 127.894 363.507 129.154 363.507 130.764C363.507 132.402 363.227 133.676 362.681 134.6C362.135 135.524 361.197 135.972 359.867 135.972C358.523 135.972 357.585 135.524 357.039 134.6C356.493 133.676 356.227 132.402 356.227 130.764C356.227 129.154 356.493 127.894 357.039 126.984ZM361.785 128.846C361.687 128.328 361.491 127.908 361.197 127.572C360.889 127.236 360.455 127.068 359.867 127.068C359.279 127.068 358.831 127.236 358.537 127.572C358.229 127.908 358.033 128.328 357.935 128.846C357.837 129.378 357.795 130.008 357.795 130.764C357.795 131.548 357.837 132.206 357.935 132.738C358.019 133.27 358.215 133.704 358.523 134.026C358.831 134.362 359.279 134.516 359.867 134.516C360.455 134.516 360.889 134.362 361.197 134.026C361.505 133.704 361.701 133.27 361.799 132.738C361.883 132.206 361.939 131.548 361.939 130.764C361.939 130.008 361.883 129.378 361.785 128.846ZM365.827 133.83C366.723 133.06 367.423 132.43 367.941 131.926C368.459 131.422 368.893 130.904 369.243 130.358C369.579 129.826 369.761 129.28 369.761 128.734C369.761 128.174 369.621 127.74 369.355 127.418C369.089 127.11 368.669 126.942 368.109 126.942C367.549 126.942 367.129 127.124 366.821 127.474C366.513 127.824 366.359 128.286 366.345 128.874H364.805C364.833 127.81 365.141 126.998 365.757 126.438C366.373 125.878 367.143 125.584 368.095 125.584C369.103 125.584 369.901 125.864 370.475 126.424C371.049 126.984 371.343 127.74 371.343 128.664C371.343 129.336 371.161 129.994 370.825 130.61C370.489 131.226 370.083 131.786 369.607 132.276C369.131 132.766 368.543 133.326 367.815 133.97L367.185 134.53H371.623V135.86H364.819V134.698L365.827 133.83ZM372.58 133.872V132.668L377.284 125.92H379.216V132.486H380.518V133.872H379.216V136H377.648V133.872H372.58ZM377.718 127.544L374.414 132.486H377.718V127.544Z" fill="#121212"/>
<path d="M290.97 170.284C291.586 169.808 292.37 169.556 293.322 169.556C293.966 169.556 294.54 169.682 295.016 169.906C295.492 170.144 295.842 170.466 296.094 170.858C296.332 171.264 296.458 171.712 296.458 172.216C296.458 172.804 296.304 173.294 295.996 173.7C295.688 174.12 295.31 174.386 294.89 174.526V174.582C295.436 174.75 295.87 175.058 296.178 175.506C296.486 175.954 296.64 176.514 296.64 177.2C296.64 177.76 296.514 178.25 296.262 178.67C296.01 179.104 295.632 179.44 295.142 179.692C294.638 179.944 294.05 180.056 293.364 180.056C292.356 180.056 291.516 179.804 290.872 179.286C290.228 178.768 289.878 178.026 289.836 177.046H291.376C291.404 177.55 291.6 177.956 291.95 178.264C292.286 178.572 292.762 178.726 293.35 178.726C293.91 178.726 294.358 178.572 294.666 178.264C294.974 177.956 295.128 177.55 295.128 177.046C295.128 176.402 294.918 175.94 294.498 175.66C294.078 175.38 293.448 175.24 292.594 175.24H292.23V173.924H292.608C293.364 173.924 293.938 173.798 294.33 173.546C294.722 173.308 294.932 172.93 294.932 172.398C294.932 171.95 294.778 171.6 294.498 171.334C294.204 171.068 293.798 170.928 293.266 170.928C292.734 170.928 292.328 171.068 292.048 171.334C291.754 171.6 291.586 171.922 291.53 172.314H289.976C290.032 171.446 290.354 170.774 290.97 170.284ZM298.879 170.984C299.425 170.074 300.363 169.612 301.707 169.612C303.037 169.612 303.975 170.074 304.521 170.984C305.067 171.894 305.347 173.154 305.347 174.764C305.347 176.402 305.067 177.676 304.521 178.6C303.975 179.524 303.037 179.972 301.707 179.972C300.363 179.972 299.425 179.524 298.879 178.6C298.333 177.676 298.067 176.402 298.067 174.764C298.067 173.154 298.333 171.894 298.879 170.984ZM303.625 172.846C303.527 172.328 303.331 171.908 303.037 171.572C302.729 171.236 302.295 171.068 301.707 171.068C301.119 171.068 300.671 171.236 300.377 171.572C300.069 171.908 299.873 172.328 299.775 172.846C299.677 173.378 299.635 174.008 299.635 174.764C299.635 175.548 299.677 176.206 299.775 176.738C299.859 177.27 300.055 177.704 300.363 178.026C300.671 178.362 301.119 178.516 301.707 178.516C302.295 178.516 302.729 178.362 303.037 178.026C303.345 177.704 303.541 177.27 303.639 176.738C303.723 176.206 303.779 175.548 303.779 174.764C303.779 174.008 303.723 173.378 303.625 172.846ZM312.917 174.26V175.604H307.163V174.26H312.917ZM320.241 170.27V177.284C320.241 178.152 319.975 178.838 319.443 179.342C318.911 179.846 318.225 180.098 317.371 180.098C316.503 180.098 315.817 179.846 315.285 179.342C314.753 178.838 314.501 178.152 314.501 177.284H316.111C316.111 177.718 316.223 178.054 316.433 178.306C316.643 178.558 316.951 178.684 317.371 178.684C317.777 178.684 318.085 178.558 318.309 178.306C318.519 178.054 318.631 177.704 318.631 177.284V170.27H320.241ZM322.531 174.05C322.853 173.462 323.287 173 323.847 172.664C324.407 172.328 325.023 172.16 325.695 172.16C326.297 172.16 326.829 172.286 327.277 172.524C327.725 172.762 328.089 173.056 328.369 173.406V172.286H329.979V180H328.369V178.852C328.089 179.216 327.725 179.524 327.263 179.762C326.787 180.014 326.255 180.126 325.667 180.126C324.995 180.126 324.393 179.958 323.847 179.622C323.287 179.286 322.853 178.81 322.531 178.194C322.209 177.578 322.055 176.892 322.055 176.108C322.055 175.338 322.209 174.652 322.531 174.05ZM328.033 174.75C327.809 174.358 327.529 174.064 327.179 173.854C326.815 173.658 326.437 173.546 326.031 173.546C325.611 173.546 325.233 173.658 324.883 173.854C324.519 174.05 324.239 174.344 324.015 174.736C323.791 175.128 323.693 175.576 323.693 176.108C323.693 176.64 323.791 177.116 324.015 177.508C324.239 177.914 324.519 178.222 324.883 178.432C325.247 178.642 325.625 178.74 326.031 178.74C326.437 178.74 326.815 178.642 327.179 178.432C327.529 178.236 327.809 177.928 328.033 177.536C328.257 177.144 328.369 176.668 328.369 176.136C328.369 175.604 328.257 175.142 328.033 174.75ZM337.341 172.538C337.817 172.79 338.195 173.168 338.475 173.658C338.741 174.162 338.881 174.75 338.881 175.45V180H337.299V175.688C337.299 175.002 337.117 174.47 336.781 174.106C336.431 173.742 335.955 173.546 335.367 173.546C334.765 173.546 334.289 173.742 333.939 174.106C333.589 174.47 333.421 175.002 333.421 175.688V180H331.825V172.286H333.421V173.168C333.673 172.86 334.009 172.608 334.415 172.426C334.821 172.258 335.255 172.16 335.717 172.16C336.319 172.16 336.865 172.286 337.341 172.538ZM346.589 174.26V175.604H340.835V174.26H346.589ZM349.279 177.83C350.175 177.06 350.875 176.43 351.393 175.926C351.911 175.422 352.345 174.904 352.695 174.358C353.031 173.826 353.213 173.28 353.213 172.734C353.213 172.174 353.073 171.74 352.807 171.418C352.541 171.11 352.121 170.942 351.561 170.942C351.001 170.942 350.581 171.124 350.273 171.474C349.965 171.824 349.811 172.286 349.797 172.874H348.257C348.285 171.81 348.593 170.998 349.209 170.438C349.825 169.878 350.595 169.584 351.547 169.584C352.555 169.584 353.353 169.864 353.927 170.424C354.501 170.984 354.795 171.74 354.795 172.664C354.795 173.336 354.613 173.994 354.277 174.61C353.941 175.226 353.535 175.786 353.059 176.276C352.583 176.766 351.995 177.326 351.267 177.97L350.637 178.53H355.075V179.86H348.271V178.698L349.279 177.83ZM357.039 170.984C357.585 170.074 358.523 169.612 359.867 169.612C361.197 169.612 362.135 170.074 362.681 170.984C363.227 171.894 363.507 173.154 363.507 174.764C363.507 176.402 363.227 177.676 362.681 178.6C362.135 179.524 361.197 179.972 359.867 179.972C358.523 179.972 357.585 179.524 357.039 178.6C356.493 177.676 356.227 176.402 356.227 174.764C356.227 173.154 356.493 171.894 357.039 170.984ZM361.785 172.846C361.687 172.328 361.491 171.908 361.197 171.572C360.889 171.236 360.455 171.068 359.867 171.068C359.279 171.068 358.831 171.236 358.537 171.572C358.229 171.908 358.033 172.328 357.935 172.846C357.837 173.378 357.795 174.008 357.795 174.764C357.795 175.548 357.837 176.206 357.935 176.738C358.019 177.27 358.215 177.704 358.523 178.026C358.831 178.362 359.279 178.516 359.867 178.516C360.455 178.516 360.889 178.362 361.197 178.026C361.505 177.704 361.701 177.27 361.799 176.738C361.883 176.206 361.939 175.548 361.939 174.764C361.939 174.008 361.883 173.378 361.785 172.846ZM365.827 177.83C366.723 177.06 367.423 176.43 367.941 175.926C368.459 175.422 368.893 174.904 369.243 174.358C369.579 173.826 369.761 173.28 369.761 172.734C369.761 172.174 369.621 171.74 369.355 171.418C369.089 171.11 368.669 170.942 368.109 170.942C367.549 170.942 367.129 171.124 366.821 171.474C366.513 171.824 366.359 172.286 366.345 172.874H364.805C364.833 171.81 365.141 170.998 365.757 170.438C366.373 169.878 367.143 169.584 368.095 169.584C369.103 169.584 369.901 169.864 370.475 170.424C371.049 170.984 371.343 171.74 371.343 172.664C371.343 173.336 371.161 173.994 370.825 174.61C370.489 175.226 370.083 175.786 369.607 176.276C369.131 176.766 368.543 177.326 367.815 177.97L367.185 178.53H371.623V179.86H364.819V178.698L365.827 177.83ZM372.58 177.872V176.668L377.284 169.92H379.216V176.486H380.518V177.872H379.216V180H377.648V177.872H372.58ZM377.718 171.544L374.414 176.486H377.718V171.544Z" fill="#121212"/>
<path d="M370.442 224H368.846L364.044 216.734V224H362.448V214.256H364.044L368.846 221.508V214.256H370.442V224ZM378.154 222.012H374.08L373.38 224H371.714L375.2 214.256H377.048L380.534 224H378.854L378.154 222.012ZM377.706 220.71L376.124 216.188L374.528 220.71H377.706Z" fill="#121212"/>
<rect x="14.5" y="117.5" width="23" height="23" rx="11.5" fill="#EFFCF6"/>
<rect x="14.5" y="117.5" width="23" height="23" rx="11.5" stroke="#02A783"/>
<path d="M27.2979 127.49C26.2413 126.735 25.1281 127.175 24.7036 127.49L23.3828 125.782C23.0809 125.35 23.3828 124.583 23.5715 124.253L25.1636 120.74C25.2961 120.447 25.4609 120.133 25.7667 120.036C25.8739 120.001 25.9777 119.994 26.0749 120.005C26.4916 120.051 26.6526 120.526 26.6803 120.944C28.9032 120.836 31.2419 122.192 32.3853 123.281C34.359 125.162 35.0057 127.973 35 129.582C34.9991 129.833 34.7878 130.024 34.5367 130.024C34.2813 130.024 34.0705 129.827 34.0459 129.573C33.9178 128.249 33.4963 125.7 31.7249 124.09C29.6967 122.247 27.9191 121.967 26.7876 121.933L27.2979 127.49Z" fill="#02A783"/>
<path d="M27.062 131.4C28.1563 130.933 28.3985 129.737 28.3827 129.198L29.2968 129.164C30.3193 129.127 31.4282 129.213 32.0147 130.052L33.8877 132.513C34.4393 133.238 34.6179 134.718 33.76 134.412L33.4702 134.281C32.7784 135.319 30.4891 137.539 27.2439 137.935C25.691 138.124 23.3929 137.945 21.4319 136.838C21.1916 136.702 21.016 136.564 21.0398 136.289C21.0992 135.605 22.0971 135.869 22.7126 136.174C23.7803 136.704 25.4998 137.153 27.5741 136.811C28.5174 136.7 30.8193 135.951 32.4796 133.836L27.062 131.4Z" fill="#02A783"/>
<path d="M23.6187 129.198C23.5715 129.692 23.7696 130.825 24.9394 131.4L24.2319 132.928C24.1218 133.198 23.7413 133.773 23.0998 133.917L19.1398 134.281C18.2122 134.367 16.8392 133.909 17.5339 133.288L17.8573 133.071C16.612 131.049 16.9925 128.249 17.3384 127.102C18.0554 124.153 20.656 122.337 21.8666 121.798C22.6968 121.942 22.527 122.397 22.3383 122.607C20.7912 123.29 19.3981 125.109 18.895 125.933C17.461 128.846 18.1717 131.525 18.7063 132.5L23.6187 129.198Z" fill="#02A783"/>
<path d="M31.8418 126.236C31.0498 124.873 29.6306 123.992 28.6537 123.535C28.2609 123.351 27.6606 123.141 27.3847 123.476C26.9777 123.97 27.8994 124.324 28.4776 124.599C29.4824 125.076 30.1674 125.743 30.5909 126.331C30.9437 126.821 31.6848 127.467 31.9455 126.923C32.0505 126.703 31.964 126.446 31.8418 126.236Z" fill="#02A783"/>
<path d="M25.9334 135.77C27.8018 135.697 29.2869 135.033 30.0363 134.45C30.2633 134.274 30.4915 133.925 30.3571 133.671C30.1276 133.237 29.5854 133.514 29.1598 133.76C28.2154 134.304 27.2829 134.55 26.5502 134.64C25.8221 134.729 24.7501 135.227 25.3449 135.656C25.525 135.786 25.7018 135.779 25.9223 135.771L25.9334 135.77Z" fill="#02A783"/>
<path d="M20.2157 130.428C19.8917 129.134 20.3322 127.705 20.7655 126.791C20.9683 126.364 21.182 125.624 20.7121 125.566C20.3255 125.519 20.0953 125.827 19.9289 126.179C19.7563 126.544 19.5496 127.049 19.3195 127.641C19.0835 128.248 19.0443 129.028 19.0749 129.67C19.1049 130.296 19.1657 131.19 19.7912 131.147C20.3195 131.111 20.2943 130.653 20.2157 130.428Z" fill="#02A783"/>
<path d="M27.0031 130.393C27.582 129.825 27.589 128.895 27.0186 128.318C26.4453 127.738 25.509 127.738 24.9357 128.318C24.3653 128.895 24.3722 129.825 24.9512 130.393C25.5209 130.953 26.4334 130.953 27.0031 130.393Z" fill="#02A783"/>
<rect x="14.5" y="75.5" width="23" height="23" rx="11.5" fill="#EFFCF6"/>
<rect x="14.5" y="75.5" width="23" height="23" rx="11.5" stroke="#02A783"/>
<path d="M27.2979 85.4897C26.2413 84.7346 25.1281 85.1751 24.7036 85.4897L23.3828 83.7815C23.0809 83.35 23.3828 82.5829 23.5715 82.2533L25.1636 78.7398C25.2961 78.4474 25.4609 78.1333 25.7667 78.0355C25.8739 78.0012 25.9777 77.9938 26.0749 78.0046C26.4916 78.0506 26.6526 78.5256 26.6803 78.9439C28.9032 78.836 31.2419 80.1917 32.3853 81.2813C34.359 83.1621 35.0057 85.9727 35 87.5817C34.9991 87.8328 34.7878 88.0236 34.5367 88.0236C34.2813 88.0236 34.0705 87.8271 34.0459 87.5728C33.9178 86.2488 33.4963 83.6998 31.7249 82.0903C29.6967 80.2474 27.9191 79.9665 26.7876 79.9328L27.2979 85.4897Z" fill="#02A783"/>
<path d="M27.062 89.4003C28.1563 88.9329 28.3985 87.7371 28.3827 87.1976L29.2968 87.1641C30.3193 87.1266 31.4282 87.2132 32.0147 88.0517L33.8877 90.5134C34.4393 91.2385 34.6179 92.7183 33.76 92.4117L33.4702 92.2814C32.7784 93.3193 30.4891 95.539 27.2439 95.9345C25.691 96.1238 23.3929 95.9446 21.4319 94.8379C21.1916 94.7023 21.016 94.5641 21.0398 94.2893C21.0992 93.6047 22.0971 93.8687 22.7126 94.1742C23.7803 94.7041 25.4998 95.1534 27.5741 94.8108C28.5174 94.7005 30.8193 93.9511 32.4796 91.836L27.062 89.4003Z" fill="#02A783"/>
<path d="M23.6187 87.1976C23.5715 87.6922 23.7696 88.8251 24.9394 89.4003L24.2319 90.9284C24.1218 91.1981 23.7413 91.7734 23.0998 91.9172L19.1398 92.2814C18.2122 92.3667 16.8392 91.9086 17.5339 91.288L17.8573 91.0706C16.612 89.0493 16.9925 86.2492 17.3384 85.1019C18.0554 82.1533 20.656 80.3373 21.8666 79.7979C22.6968 79.9418 22.527 80.3973 22.3383 80.607C20.7912 81.2902 19.3981 83.1092 18.895 83.9332C17.461 86.8459 18.1717 89.5246 18.7063 90.4998L23.6187 87.1976Z" fill="#02A783"/>
<path d="M31.8418 84.2357C31.0498 82.8729 29.6306 81.9924 28.6537 81.5346C28.2609 81.3505 27.6606 81.1412 27.3847 81.476C26.9777 81.97 27.8994 82.3242 28.4776 82.5989C29.4824 83.0764 30.1674 83.7432 30.5909 84.3311C30.9437 84.8208 31.6848 85.467 31.9455 84.9228C32.0505 84.7034 31.964 84.446 31.8418 84.2357Z" fill="#02A783"/>
<path d="M25.9334 93.7703C27.8018 93.697 29.2869 93.0331 30.0363 92.4502C30.2633 92.2737 30.4915 91.9254 30.3571 91.6712C30.1276 91.2368 29.5854 91.5144 29.1598 91.7597C28.2154 92.304 27.2829 92.55 26.5502 92.6399C25.8221 92.7293 24.7501 93.2271 25.3449 93.6564C25.525 93.7864 25.7018 93.7794 25.9223 93.7708L25.9334 93.7703Z" fill="#02A783"/>
<path d="M20.2157 88.4281C19.8917 87.1343 20.3322 85.7049 20.7655 84.7914C20.9683 84.3637 21.182 83.624 20.7121 83.5664C20.3255 83.519 20.0953 83.8269 19.9289 84.179C19.7563 84.5442 19.5496 85.0493 19.3195 85.6413C19.0835 86.2485 19.0443 87.028 19.0749 87.6697C19.1049 88.2959 19.1657 89.1898 19.7912 89.1473C20.3195 89.1113 20.2943 88.6528 20.2157 88.4281Z" fill="#02A783"/>
<path d="M27.0031 88.3934C27.582 87.8253 27.589 86.8948 27.0186 86.318C26.4453 85.7383 25.509 85.7383 24.9357 86.318C24.3653 86.8948 24.3722 87.8253 24.9512 88.3934C25.5209 88.9525 26.4334 88.9525 27.0031 88.3934Z" fill="#02A783"/>
<rect x="14.5" y="205.5" width="23" height="23" rx="11.5" fill="#EFFCF6"/>
<rect x="14.5" y="205.5" width="23" height="23" rx="11.5" stroke="#02A783"/>
<path d="M27.2979 215.49C26.2413 214.735 25.1281 215.175 24.7036 215.49L23.3828 213.782C23.0809 213.35 23.3828 212.583 23.5715 212.253L25.1636 208.74C25.2961 208.447 25.4609 208.133 25.7667 208.036C25.8739 208.001 25.9777 207.994 26.0749 208.005C26.4916 208.051 26.6526 208.526 26.6803 208.944C28.9032 208.836 31.2419 210.192 32.3853 211.281C34.359 213.162 35.0057 215.973 35 217.582C34.9991 217.833 34.7878 218.024 34.5367 218.024C34.2813 218.024 34.0705 217.827 34.0459 217.573C33.9178 216.249 33.4963 213.7 31.7249 212.09C29.6967 210.247 27.9191 209.967 26.7876 209.933L27.2979 215.49Z" fill="#02A783"/>
<path d="M27.062 219.4C28.1563 218.933 28.3985 217.737 28.3827 217.198L29.2968 217.164C30.3193 217.127 31.4282 217.213 32.0147 218.052L33.8877 220.513C34.4393 221.238 34.6179 222.718 33.76 222.412L33.4702 222.281C32.7784 223.319 30.4891 225.539 27.2439 225.935C25.691 226.124 23.3929 225.945 21.4319 224.838C21.1916 224.702 21.016 224.564 21.0398 224.289C21.0992 223.605 22.0971 223.869 22.7126 224.174C23.7803 224.704 25.4998 225.153 27.5741 224.811C28.5174 224.7 30.8193 223.951 32.4796 221.836L27.062 219.4Z" fill="#02A783"/>
<path d="M23.6187 217.198C23.5715 217.692 23.7696 218.825 24.9394 219.4L24.2319 220.928C24.1218 221.198 23.7413 221.773 23.0998 221.917L19.1398 222.281C18.2122 222.367 16.8392 221.909 17.5339 221.288L17.8573 221.071C16.612 219.049 16.9925 216.249 17.3384 215.102C18.0554 212.153 20.656 210.337 21.8666 209.798C22.6968 209.942 22.527 210.397 22.3383 210.607C20.7912 211.29 19.3981 213.109 18.895 213.933C17.461 216.846 18.1717 219.525 18.7063 220.5L23.6187 217.198Z" fill="#02A783"/>
<path d="M31.8418 214.236C31.0498 212.873 29.6306 211.992 28.6537 211.535C28.2609 211.351 27.6606 211.141 27.3847 211.476C26.9777 211.97 27.8994 212.324 28.4776 212.599C29.4824 213.076 30.1674 213.743 30.5909 214.331C30.9437 214.821 31.6848 215.467 31.9455 214.923C32.0505 214.703 31.964 214.446 31.8418 214.236Z" fill="#02A783"/>
<path d="M25.9334 223.77C27.8018 223.697 29.2869 223.033 30.0363 222.45C30.2633 222.274 30.4915 221.925 30.3571 221.671C30.1276 221.237 29.5854 221.514 29.1598 221.76C28.2154 222.304 27.2829 222.55 26.5502 222.64C25.8221 222.729 24.7501 223.227 25.3449 223.656C25.525 223.786 25.7018 223.779 25.9223 223.771L25.9334 223.77Z" fill="#02A783"/>
<path d="M20.2157 218.428C19.8917 217.134 20.3322 215.705 20.7655 214.791C20.9683 214.364 21.182 213.624 20.7121 213.566C20.3255 213.519 20.0953 213.827 19.9289 214.179C19.7563 214.544 19.5496 215.049 19.3195 215.641C19.0835 216.248 19.0443 217.028 19.0749 217.67C19.1049 218.296 19.1657 219.19 19.7912 219.147C20.3195 219.111 20.2943 218.653 20.2157 218.428Z" fill="#02A783"/>
<path d="M27.0031 218.393C27.582 217.825 27.589 216.895 27.0186 216.318C26.4453 215.738 25.509 215.738 24.9357 216.318C24.3653 216.895 24.3722 217.825 24.9512 218.393C25.5209 218.953 26.4334 218.953 27.0031 218.393Z" fill="#02A783"/>
<rect x="14.5" y="162.5" width="23" height="23" rx="11.5" fill="#EBEFEE"/>
<rect x="14.5" y="162.5" width="23" height="23" rx="11.5" stroke="#A0A0A0"/>
<path d="M27.3372 172.818C26.2508 171.929 25.1063 172.448 24.6698 172.818L23.3118 170.807C23.0014 170.299 23.3118 169.396 23.5058 169.008L25.1489 164.856C25.2812 164.521 25.5578 164.049 25.9146 164.005C26.5557 163.926 26.6858 164.694 26.7374 165.338L27.3372 172.818Z" fill="#595959"/>
<path d="M27.0947 177.422C28.2199 176.872 28.4688 175.464 28.4527 174.829L29.2975 174.793C30.411 174.747 31.6061 174.883 32.1871 175.834L34.1367 178.769C34.6934 179.606 34.9125 181.348 33.9815 180.968L27.0947 177.422Z" fill="#595959"/>
<path d="M24.9123 177.422C23.7095 176.745 23.5058 175.411 23.5543 174.829L17.298 179.645C16.568 180.391 18.0482 180.909 19.0866 180.8L21.3237 180.564C22.4536 180.445 23.8034 180.291 24.1848 179.221L24.9123 177.422Z" fill="#595959"/>
<path d="M24.7805 176.075C25.4188 176.792 26.5397 176.792 27.178 176.075C27.7132 175.474 27.7199 174.569 27.1936 173.959C26.5536 173.218 25.4049 173.218 24.7649 173.959C24.2386 174.569 24.2453 175.474 24.7805 176.075Z" fill="#595959"/>
<path d="M411.383 91.25H396.617L404 78.4979L411.383 91.25Z" fill="#FEEAEE" stroke="#E16E75"/>
<path d="M404.573 88H403.07V89.5H404.573V88Z" fill="#C21A2C"/>
<path d="M404.573 83.5H403.07V86.5H404.573V83.5Z" fill="#C21A2C"/>
<path opacity="0.5" d="M0 4C0 1.79086 1.79086 0 4 0H421C423.209 0 425 1.79086 425 4V261C425 263.209 423.209 265 421 265H3.99999C1.79086 265 0 263.209 0 261V4Z" fill="#EBEFEE"/>
</g>
</svg>
