<svg width="882" height="265" viewBox="0 0 882 265" fill="none" xmlns="http://www.w3.org/2000/svg">
<rect width="882" height="265" fill="#F5F5F5"/>
<rect x="-16002" y="-7105" width="23840" height="13376" fill="#F8FAF9"/>
<g style="mix-blend-mode:luminosity">
<rect width="882" height="265" rx="4" fill="white"/>
<rect x="88" y="31" width="767" height="1" fill="#EBEFEE"/>
<rect x="88" y="97" width="767" height="1" fill="#EBEFEE"/>
<rect x="88" y="163" width="767" height="1" fill="#EBEFEE"/>
<rect x="88" y="220" width="767" height="1" fill="#CED7D4"/>
<rect x="122" y="183" width="24" height="37" fill="#DD887C"/>
<rect x="197" y="69" width="24" height="151" fill="#4CA2A8"/>
<rect x="272" y="82" width="24" height="138" fill="#4CA2A8"/>
<rect x="347" y="145" width="24" height="75" fill="#E6B056"/>
<rect x="422" y="69" width="24" height="151" fill="#4CA2A8"/>
<rect x="497" y="88" width="24" height="132" fill="#4CA2A8"/>
<rect x="572" y="156" width="24" height="64" fill="#E6B056"/>
<rect x="647" y="206" width="24" height="14" fill="#DD887C"/>
<rect x="722" y="88" width="24" height="132" fill="#4CA2A8"/>
<rect x="797" y="51" width="24" height="169" fill="#4CA2A8"/>
<path d="M115.477 237.477H118.436V241.678C117.982 241.822 117.521 241.932 117.053 242.006C116.584 242.08 116.041 242.117 115.424 242.117C114.119 242.117 113.109 241.73 112.395 240.957C111.68 240.184 111.322 239.104 111.322 237.717C111.322 236.822 111.5 236.041 111.855 235.373C112.211 234.705 112.723 234.195 113.391 233.844C114.062 233.488 114.854 233.311 115.764 233.311C116.678 233.311 117.529 233.479 118.318 233.814L117.908 234.752C117.154 234.424 116.418 234.26 115.699 234.26C114.68 234.26 113.883 234.568 113.309 235.186C112.734 235.803 112.447 236.646 112.447 237.717C112.447 238.85 112.723 239.711 113.273 240.301C113.824 240.891 114.625 241.186 115.676 241.186C116.25 241.186 116.811 241.117 117.357 240.98V238.438H115.477V237.477ZM124.219 237.477H127.178V241.678C126.725 241.822 126.264 241.932 125.795 242.006C125.326 242.08 124.783 242.117 124.166 242.117C122.861 242.117 121.852 241.73 121.137 240.957C120.422 240.184 120.064 239.104 120.064 237.717C120.064 236.822 120.242 236.041 120.598 235.373C120.953 234.705 121.465 234.195 122.133 233.844C122.805 233.488 123.596 233.311 124.506 233.311C125.42 233.311 126.271 233.479 127.061 233.814L126.65 234.752C125.896 234.424 125.16 234.26 124.441 234.26C123.422 234.26 122.625 234.568 122.051 235.186C121.477 235.803 121.189 236.646 121.189 237.717C121.189 238.85 121.465 239.711 122.016 240.301C122.566 240.891 123.367 241.186 124.418 241.186C124.992 241.186 125.553 241.117 126.1 240.98V238.438H124.219V237.477ZM133.031 243.898H128.051V243.078H133.031V243.898ZM135.445 242L133.008 235.566H134.139L135.504 239.357C135.773 240.119 135.945 240.688 136.02 241.062H136.066C136.078 241.012 136.092 240.955 136.107 240.893C136.127 240.826 136.148 240.756 136.172 240.682C136.195 240.604 136.34 240.162 136.605 239.357L137.977 235.566H139.102L136.658 242H135.445ZM141.176 242H140.121V235.566H141.176V242ZM140.039 233.826C140.039 233.592 140.098 233.422 140.215 233.316C140.336 233.211 140.484 233.158 140.66 233.158C140.824 233.158 140.967 233.211 141.088 233.316C141.213 233.422 141.275 233.592 141.275 233.826C141.275 234.057 141.213 234.227 141.088 234.336C140.967 234.445 140.824 234.5 140.66 234.5C140.484 234.5 140.336 234.445 140.215 234.336C140.098 234.227 140.039 234.057 140.039 233.826ZM146.262 235.461C147.109 235.461 147.764 235.754 148.225 236.34C148.686 236.922 148.916 237.736 148.916 238.783C148.916 239.846 148.682 240.668 148.213 241.25C147.744 241.828 147.094 242.117 146.262 242.117C145.828 242.117 145.441 242.039 145.102 241.883C144.762 241.727 144.484 241.494 144.27 241.186H144.188C144.066 241.654 143.994 241.926 143.971 242H143.215V232.883H144.27V235.098C144.27 235.539 144.25 235.98 144.211 236.422H144.27C144.703 235.781 145.367 235.461 146.262 235.461ZM146.086 236.334C145.438 236.334 144.973 236.518 144.691 236.885C144.41 237.252 144.27 237.873 144.27 238.748V238.795C144.27 239.674 144.412 240.303 144.697 240.682C144.986 241.057 145.457 241.244 146.109 241.244C146.688 241.244 147.117 241.033 147.398 240.611C147.684 240.186 147.826 239.572 147.826 238.771C147.826 237.959 147.684 237.35 147.398 236.943C147.113 236.537 146.676 236.334 146.086 236.334ZM154.787 240.225C154.787 240.826 154.562 241.293 154.113 241.625C153.664 241.953 153.033 242.117 152.221 242.117C151.373 242.117 150.699 241.982 150.199 241.713V240.752C150.906 241.096 151.588 241.268 152.244 241.268C152.775 241.268 153.162 241.182 153.404 241.01C153.646 240.838 153.768 240.607 153.768 240.318C153.768 240.064 153.65 239.85 153.416 239.674C153.186 239.498 152.773 239.297 152.18 239.07C151.574 238.836 151.148 238.637 150.902 238.473C150.656 238.305 150.475 238.117 150.357 237.91C150.244 237.703 150.188 237.451 150.188 237.154C150.188 236.627 150.402 236.211 150.832 235.906C151.262 235.602 151.852 235.449 152.602 235.449C153.332 235.449 154.016 235.594 154.652 235.883L154.295 236.721C153.643 236.447 153.055 236.311 152.531 236.311C152.094 236.311 151.762 236.381 151.535 236.521C151.309 236.658 151.195 236.848 151.195 237.09C151.195 237.324 151.293 237.52 151.488 237.676C151.684 237.828 152.139 238.041 152.854 238.314C153.389 238.514 153.783 238.699 154.037 238.871C154.295 239.043 154.484 239.236 154.605 239.451C154.727 239.666 154.787 239.924 154.787 240.225ZM156.193 241.35C156.193 241.201 156.213 241.076 156.252 240.975C156.291 240.869 156.344 240.785 156.41 240.723C156.477 240.656 156.555 240.609 156.645 240.582C156.734 240.551 156.832 240.535 156.938 240.535C157.039 240.535 157.135 240.551 157.225 240.582C157.318 240.609 157.398 240.656 157.465 240.723C157.531 240.785 157.584 240.869 157.623 240.975C157.662 241.076 157.682 241.201 157.682 241.35C157.682 241.494 157.662 241.619 157.623 241.725C157.584 241.826 157.531 241.91 157.465 241.977C157.398 242.043 157.318 242.092 157.225 242.123C157.135 242.154 157.039 242.17 156.938 242.17C156.832 242.17 156.734 242.154 156.645 242.123C156.555 242.092 156.477 242.043 156.41 241.977C156.344 241.91 156.291 241.826 156.252 241.725C156.213 241.619 156.193 241.494 156.193 241.35ZM159.416 241.35C159.416 241.201 159.436 241.076 159.475 240.975C159.514 240.869 159.566 240.785 159.633 240.723C159.699 240.656 159.777 240.609 159.867 240.582C159.957 240.551 160.055 240.535 160.16 240.535C160.262 240.535 160.357 240.551 160.447 240.582C160.541 240.609 160.621 240.656 160.688 240.723C160.754 240.785 160.807 240.869 160.846 240.975C160.885 241.076 160.904 241.201 160.904 241.35C160.904 241.494 160.885 241.619 160.846 241.725C160.807 241.826 160.754 241.91 160.688 241.977C160.621 242.043 160.541 242.092 160.447 242.123C160.357 242.154 160.262 242.17 160.16 242.17C160.055 242.17 159.957 242.154 159.867 242.123C159.777 242.092 159.699 242.043 159.633 241.977C159.566 241.91 159.514 241.826 159.475 241.725C159.436 241.619 159.416 241.494 159.416 241.35ZM162.639 241.35C162.639 241.201 162.658 241.076 162.697 240.975C162.736 240.869 162.789 240.785 162.855 240.723C162.922 240.656 163 240.609 163.09 240.582C163.18 240.551 163.277 240.535 163.383 240.535C163.484 240.535 163.58 240.551 163.67 240.582C163.764 240.609 163.844 240.656 163.91 240.723C163.977 240.785 164.029 240.869 164.068 240.975C164.107 241.076 164.127 241.201 164.127 241.35C164.127 241.494 164.107 241.619 164.068 241.725C164.029 241.826 163.977 241.91 163.91 241.977C163.844 242.043 163.764 242.092 163.67 242.123C163.58 242.154 163.484 242.17 163.383 242.17C163.277 242.17 163.18 242.154 163.09 242.123C163 242.092 162.922 242.043 162.855 241.977C162.789 241.91 162.736 241.826 162.697 241.725C162.658 241.619 162.639 241.494 162.639 241.35Z" fill="#595959"/>
<path d="M200.73 242H197.637V241.379L198.645 241.15V234.295L197.637 234.055V233.434H200.73V234.055L199.723 234.295V241.15L200.73 241.379V242ZM206.625 242V237.887C206.625 237.363 206.508 236.975 206.273 236.721C206.043 236.463 205.68 236.334 205.184 236.334C204.523 236.334 204.043 236.518 203.742 236.885C203.445 237.248 203.297 237.842 203.297 238.666V242H202.242V235.566H203.092L203.25 236.445H203.309C203.508 236.129 203.787 235.885 204.146 235.713C204.506 235.537 204.902 235.449 205.336 235.449C206.125 235.449 206.711 235.641 207.094 236.023C207.477 236.406 207.668 237.002 207.668 237.811V242H206.625ZM210.715 242H209.66V232.883H210.715V242ZM215.49 242.117C214.525 242.117 213.768 241.826 213.217 241.244C212.67 240.658 212.396 239.854 212.396 238.83C212.396 237.799 212.652 236.979 213.164 236.369C213.676 235.756 214.367 235.449 215.238 235.449C216.047 235.449 216.691 235.711 217.172 236.234C217.652 236.754 217.893 237.459 217.893 238.35V238.988H213.486C213.506 239.719 213.691 240.273 214.043 240.652C214.395 241.031 214.893 241.221 215.537 241.221C215.881 241.221 216.207 241.191 216.516 241.133C216.824 241.07 217.186 240.951 217.6 240.775V241.701C217.244 241.854 216.91 241.961 216.598 242.023C216.285 242.086 215.916 242.117 215.49 242.117ZM215.227 236.311C214.723 236.311 214.324 236.473 214.031 236.797C213.738 237.121 213.564 237.572 213.51 238.15H216.785C216.777 237.549 216.639 237.092 216.369 236.779C216.1 236.467 215.719 236.311 215.227 236.311ZM221.678 241.256C221.814 241.256 221.975 241.242 222.158 241.215C222.342 241.188 222.48 241.156 222.574 241.121V241.93C222.477 241.973 222.324 242.014 222.117 242.053C221.914 242.096 221.707 242.117 221.496 242.117C220.238 242.117 219.609 241.455 219.609 240.131V236.387H218.701V235.883L219.621 235.461L220.043 234.09H220.67V235.566H222.527V236.387H220.67V240.102C220.67 240.473 220.758 240.758 220.934 240.957C221.113 241.156 221.361 241.256 221.678 241.256Z" fill="#595959"/>
<path d="M270.053 242L267.229 234.488H267.182C267.24 235.113 267.27 235.885 267.27 236.803V242H266.273V233.434H267.867L270.51 240.453H270.557L273.246 233.434H274.828V242H273.762V236.732C273.762 236.146 273.789 235.402 273.844 234.5H273.797L270.938 242H270.053ZM278.068 242H277.014V235.566H278.068V242ZM276.932 233.826C276.932 233.592 276.99 233.422 277.107 233.316C277.229 233.211 277.377 233.158 277.553 233.158C277.717 233.158 277.859 233.211 277.98 233.316C278.105 233.422 278.168 233.592 278.168 233.826C278.168 234.057 278.105 234.227 277.98 234.336C277.859 234.445 277.717 234.5 277.553 234.5C277.377 234.5 277.229 234.445 277.107 234.336C276.99 234.227 276.932 234.057 276.932 233.826ZM284.49 242V237.887C284.49 237.363 284.373 236.975 284.139 236.721C283.908 236.463 283.545 236.334 283.049 236.334C282.389 236.334 281.908 236.518 281.607 236.885C281.311 237.248 281.162 237.842 281.162 238.666V242H280.107V235.566H280.957L281.115 236.445H281.174C281.373 236.129 281.652 235.885 282.012 235.713C282.371 235.537 282.768 235.449 283.201 235.449C283.99 235.449 284.576 235.641 284.959 236.023C285.342 236.406 285.533 237.002 285.533 237.811V242H284.49ZM291.463 243.898H286.482V243.078H291.463V243.898ZM298.049 238.771C298.049 239.822 297.783 240.643 297.252 241.232C296.721 241.822 295.986 242.117 295.049 242.117C294.467 242.117 293.951 241.982 293.502 241.713C293.053 241.439 292.707 241.049 292.465 240.541C292.223 240.033 292.102 239.443 292.102 238.771C292.102 237.725 292.363 236.91 292.887 236.328C293.41 235.742 294.145 235.449 295.09 235.449C295.996 235.449 296.715 235.748 297.246 236.346C297.781 236.939 298.049 237.748 298.049 238.771ZM293.191 238.771C293.191 239.58 293.35 240.195 293.666 240.617C293.986 241.035 294.457 241.244 295.078 241.244C295.691 241.244 296.158 241.035 296.479 240.617C296.799 240.195 296.959 239.58 296.959 238.771C296.959 237.963 296.797 237.355 296.473 236.949C296.152 236.539 295.682 236.334 295.061 236.334C293.814 236.334 293.191 237.146 293.191 238.771ZM300.779 242H299.725V235.566H300.779V242ZM299.643 233.826C299.643 233.592 299.701 233.422 299.818 233.316C299.939 233.211 300.088 233.158 300.264 233.158C300.428 233.158 300.57 233.211 300.691 233.316C300.816 233.422 300.879 233.592 300.879 233.826C300.879 234.057 300.816 234.227 300.691 234.336C300.57 234.445 300.428 234.5 300.264 234.5C300.088 234.5 299.939 234.445 299.818 234.336C299.701 234.227 299.643 234.057 299.643 233.826ZM303.873 242H302.818V232.883H303.873V242Z" fill="#595959"/>
<path d="M333.941 235.953C333.941 236.828 333.643 237.5 333.045 237.969C332.447 238.434 331.605 238.666 330.52 238.666H329.535V242H328.457V233.434H330.725C332.869 233.434 333.941 234.273 333.941 235.953ZM329.535 237.74H330.396C331.248 237.74 331.865 237.604 332.248 237.33C332.631 237.053 332.822 236.609 332.822 236C332.822 235.449 332.645 235.037 332.289 234.764C331.934 234.49 331.379 234.354 330.625 234.354H329.535V237.74ZM338.436 242H337.352V234.383H334.674V233.434H341.096V234.383H338.436V242ZM346.193 243.898H341.213V243.078H346.193V243.898ZM352.709 242L351.678 239.346H348.279L347.26 242H346.17L349.516 233.398H350.488L353.828 242H352.709ZM351.355 238.391L350.395 235.795L349.984 234.512C349.867 234.98 349.744 235.408 349.615 235.795L348.643 238.391H351.355ZM355.92 242H354.865V235.566H355.92V242ZM354.783 233.826C354.783 233.592 354.842 233.422 354.959 233.316C355.08 233.211 355.229 233.158 355.404 233.158C355.568 233.158 355.711 233.211 355.832 233.316C355.957 233.422 356.02 233.592 356.02 233.826C356.02 234.057 355.957 234.227 355.832 234.336C355.711 234.445 355.568 234.5 355.404 234.5C355.229 234.5 355.08 234.445 354.959 234.336C354.842 234.227 354.783 234.057 354.783 233.826ZM360.959 235.449C361.244 235.449 361.496 235.473 361.715 235.52L361.586 236.492C361.348 236.438 361.115 236.41 360.889 236.41C360.549 236.41 360.232 236.504 359.939 236.691C359.65 236.879 359.424 237.139 359.26 237.471C359.096 237.799 359.014 238.164 359.014 238.566V242H357.959V235.566H358.826L358.943 236.744H358.99C359.236 236.318 359.527 235.996 359.863 235.777C360.199 235.559 360.564 235.449 360.959 235.449ZM365.881 236.387H364.258V242H363.203V236.387H362.078V235.895L363.203 235.531V235.162C363.203 234.381 363.373 233.795 363.713 233.404C364.057 233.014 364.584 232.818 365.295 232.818C365.705 232.818 366.121 232.891 366.543 233.035L366.262 233.861C365.898 233.744 365.58 233.686 365.307 233.686C364.951 233.686 364.688 233.803 364.516 234.037C364.344 234.271 364.258 234.643 364.258 235.15V235.566H365.881V236.387ZM368.107 242H367.053V232.883H368.107V242ZM375.736 238.771C375.736 239.822 375.471 240.643 374.939 241.232C374.408 241.822 373.674 242.117 372.736 242.117C372.154 242.117 371.639 241.982 371.189 241.713C370.74 241.439 370.395 241.049 370.152 240.541C369.91 240.033 369.789 239.443 369.789 238.771C369.789 237.725 370.051 236.91 370.574 236.328C371.098 235.742 371.832 235.449 372.777 235.449C373.684 235.449 374.402 235.748 374.934 236.346C375.469 236.939 375.736 237.748 375.736 238.771ZM370.879 238.771C370.879 239.58 371.037 240.195 371.354 240.617C371.674 241.035 372.145 241.244 372.766 241.244C373.379 241.244 373.846 241.035 374.166 240.617C374.486 240.195 374.646 239.58 374.646 238.771C374.646 237.963 374.484 237.355 374.16 236.949C373.84 236.539 373.369 236.334 372.748 236.334C371.502 236.334 370.879 237.146 370.879 238.771ZM382.551 242L381.449 238.379C381.348 238.078 381.199 237.51 381.004 236.674H380.957C380.793 237.436 380.648 238.008 380.523 238.391L379.369 242H378.174L376.41 235.566H377.5C377.906 237.148 378.215 238.352 378.426 239.176C378.641 240 378.768 240.582 378.807 240.922H378.854L378.936 240.559C379.057 240 379.174 239.545 379.287 239.193L380.43 235.566H381.578L382.686 239.193C382.725 239.33 382.766 239.477 382.809 239.633C382.855 239.785 382.898 239.938 382.938 240.09C382.977 240.238 383.012 240.385 383.043 240.529C383.074 240.67 383.098 240.797 383.113 240.91H383.166C383.201 240.613 383.344 239.977 383.594 239L384.496 235.566H385.574L383.787 242H382.551Z" fill="#595959"/>
<path d="M416.656 235.953C416.656 236.828 416.357 237.5 415.76 237.969C415.162 238.434 414.32 238.666 413.234 238.666H412.25V242H411.172V233.434H413.439C415.584 233.434 416.656 234.273 416.656 235.953ZM412.25 237.74H413.111C413.963 237.74 414.58 237.604 414.963 237.33C415.346 237.053 415.537 236.609 415.537 236C415.537 235.449 415.359 235.037 415.004 234.764C414.648 234.49 414.094 234.354 413.34 234.354H412.25V237.74ZM421.15 242H420.066V234.383H417.389V233.434H423.811V234.383H421.15V242ZM428.908 243.898H423.928V243.078H428.908V243.898ZM431.322 242L428.885 235.566H430.016L431.381 239.357C431.65 240.119 431.822 240.688 431.896 241.062H431.943C431.955 241.012 431.969 240.955 431.984 240.893C432.004 240.826 432.025 240.756 432.049 240.682C432.072 240.604 432.217 240.162 432.482 239.357L433.854 235.566H434.979L432.535 242H431.322ZM437.053 242H435.998V235.566H437.053V242ZM435.916 233.826C435.916 233.592 435.975 233.422 436.092 233.316C436.213 233.211 436.361 233.158 436.537 233.158C436.701 233.158 436.844 233.211 436.965 233.316C437.09 233.422 437.152 233.592 437.152 233.826C437.152 234.057 437.09 234.227 436.965 234.336C436.844 234.445 436.701 234.5 436.537 234.5C436.361 234.5 436.213 234.445 436.092 234.336C435.975 234.227 435.916 234.057 435.916 233.826ZM442.139 235.461C442.986 235.461 443.641 235.754 444.102 236.34C444.562 236.922 444.793 237.736 444.793 238.783C444.793 239.846 444.559 240.668 444.09 241.25C443.621 241.828 442.971 242.117 442.139 242.117C441.705 242.117 441.318 242.039 440.979 241.883C440.639 241.727 440.361 241.494 440.146 241.186H440.064C439.943 241.654 439.871 241.926 439.848 242H439.092V232.883H440.146V235.098C440.146 235.539 440.127 235.98 440.088 236.422H440.146C440.58 235.781 441.244 235.461 442.139 235.461ZM441.963 236.334C441.314 236.334 440.85 236.518 440.568 236.885C440.287 237.252 440.146 237.873 440.146 238.748V238.795C440.146 239.674 440.289 240.303 440.574 240.682C440.863 241.057 441.334 241.244 441.986 241.244C442.564 241.244 442.994 241.033 443.275 240.611C443.561 240.186 443.703 239.572 443.703 238.771C443.703 237.959 443.561 237.35 443.275 236.943C442.99 236.537 442.553 236.334 441.963 236.334ZM450.664 240.225C450.664 240.826 450.439 241.293 449.99 241.625C449.541 241.953 448.91 242.117 448.098 242.117C447.25 242.117 446.576 241.982 446.076 241.713V240.752C446.783 241.096 447.465 241.268 448.121 241.268C448.652 241.268 449.039 241.182 449.281 241.01C449.523 240.838 449.645 240.607 449.645 240.318C449.645 240.064 449.527 239.85 449.293 239.674C449.062 239.498 448.65 239.297 448.057 239.07C447.451 238.836 447.025 238.637 446.779 238.473C446.533 238.305 446.352 238.117 446.234 237.91C446.121 237.703 446.064 237.451 446.064 237.154C446.064 236.627 446.279 236.211 446.709 235.906C447.139 235.602 447.729 235.449 448.479 235.449C449.209 235.449 449.893 235.594 450.529 235.883L450.172 236.721C449.52 236.447 448.932 236.311 448.408 236.311C447.971 236.311 447.639 236.381 447.412 236.521C447.186 236.658 447.072 236.848 447.072 237.09C447.072 237.324 447.17 237.52 447.365 237.676C447.561 237.828 448.016 238.041 448.73 238.314C449.266 238.514 449.66 238.699 449.914 238.871C450.172 239.043 450.361 239.236 450.482 239.451C450.604 239.666 450.664 239.924 450.664 240.225ZM455.188 241.35C455.188 241.201 455.207 241.076 455.246 240.975C455.285 240.869 455.338 240.785 455.404 240.723C455.471 240.656 455.549 240.609 455.639 240.582C455.729 240.551 455.826 240.535 455.932 240.535C456.033 240.535 456.129 240.551 456.219 240.582C456.312 240.609 456.393 240.656 456.459 240.723C456.525 240.785 456.578 240.869 456.617 240.975C456.656 241.076 456.676 241.201 456.676 241.35C456.676 241.494 456.656 241.619 456.617 241.725C456.578 241.826 456.525 241.91 456.459 241.977C456.393 242.043 456.312 242.092 456.219 242.123C456.129 242.154 456.033 242.17 455.932 242.17C455.826 242.17 455.729 242.154 455.639 242.123C455.549 242.092 455.471 242.043 455.404 241.977C455.338 241.91 455.285 241.826 455.246 241.725C455.207 241.619 455.188 241.494 455.188 241.35ZM458.41 241.35C458.41 241.201 458.43 241.076 458.469 240.975C458.508 240.869 458.561 240.785 458.627 240.723C458.693 240.656 458.771 240.609 458.861 240.582C458.951 240.551 459.049 240.535 459.154 240.535C459.256 240.535 459.352 240.551 459.441 240.582C459.535 240.609 459.615 240.656 459.682 240.723C459.748 240.785 459.801 240.869 459.84 240.975C459.879 241.076 459.898 241.201 459.898 241.35C459.898 241.494 459.879 241.619 459.84 241.725C459.801 241.826 459.748 241.91 459.682 241.977C459.615 242.043 459.535 242.092 459.441 242.123C459.352 242.154 459.256 242.17 459.154 242.17C459.049 242.17 458.951 242.154 458.861 242.123C458.771 242.092 458.693 242.043 458.627 241.977C458.561 241.91 458.508 241.826 458.469 241.725C458.43 241.619 458.41 241.494 458.41 241.35ZM461.633 241.35C461.633 241.201 461.652 241.076 461.691 240.975C461.73 240.869 461.783 240.785 461.85 240.723C461.916 240.656 461.994 240.609 462.084 240.582C462.174 240.551 462.271 240.535 462.377 240.535C462.479 240.535 462.574 240.551 462.664 240.582C462.758 240.609 462.838 240.656 462.904 240.723C462.971 240.785 463.023 240.869 463.062 240.975C463.102 241.076 463.121 241.201 463.121 241.35C463.121 241.494 463.102 241.619 463.062 241.725C463.023 241.826 462.971 241.91 462.904 241.977C462.838 242.043 462.758 242.092 462.664 242.123C462.574 242.154 462.479 242.17 462.377 242.17C462.271 242.17 462.174 242.154 462.084 242.123C461.994 242.092 461.916 242.043 461.85 241.977C461.783 241.91 461.73 241.826 461.691 241.725C461.652 241.619 461.633 241.494 461.633 241.35Z" fill="#595959"/>
<path d="M488.762 239.709C488.762 240.455 488.492 241.043 487.953 241.473C487.414 241.902 486.664 242.117 485.703 242.117C484.688 242.117 483.902 241.982 483.348 241.713V240.682C483.711 240.838 484.107 240.961 484.537 241.051C484.971 241.141 485.375 241.186 485.75 241.186C486.391 241.186 486.873 241.062 487.197 240.816C487.521 240.57 487.684 240.232 487.684 239.803C487.684 239.518 487.625 239.283 487.508 239.1C487.391 238.916 487.193 238.744 486.916 238.584C486.643 238.424 486.227 238.242 485.668 238.039C484.875 237.75 484.309 237.41 483.969 237.02C483.629 236.625 483.459 236.117 483.459 235.496C483.459 234.828 483.709 234.297 484.209 233.902C484.713 233.508 485.375 233.311 486.195 233.311C487.051 233.311 487.838 233.471 488.557 233.791L488.223 234.717C487.488 234.412 486.805 234.26 486.172 234.26C485.664 234.26 485.266 234.369 484.977 234.588C484.691 234.807 484.549 235.113 484.549 235.508C484.549 235.789 484.604 236.023 484.713 236.211C484.826 236.395 485.006 236.562 485.252 236.715C485.502 236.867 485.893 237.041 486.424 237.236C487.061 237.471 487.535 237.699 487.848 237.922C488.16 238.141 488.391 238.395 488.539 238.684C488.688 238.969 488.762 239.311 488.762 239.709ZM489.336 235.566H490.467L491.855 239.229C492.148 240.025 492.328 240.609 492.395 240.98H492.441C492.477 240.836 492.557 240.566 492.682 240.172C492.807 239.773 492.912 239.455 492.998 239.217L494.305 235.566H495.441L492.67 242.891C492.4 243.602 492.08 244.111 491.709 244.42C491.338 244.729 490.879 244.883 490.332 244.883C490.039 244.883 489.748 244.85 489.459 244.783V243.945C489.654 243.992 489.889 244.016 490.162 244.016C490.498 244.016 490.783 243.922 491.018 243.734C491.252 243.551 491.443 243.266 491.592 242.879L491.926 242.023L489.336 235.566ZM500.844 242V237.887C500.844 237.363 500.727 236.975 500.492 236.721C500.262 236.463 499.898 236.334 499.402 236.334C498.742 236.334 498.262 236.518 497.961 236.885C497.664 237.248 497.516 237.842 497.516 238.666V242H496.461V235.566H497.311L497.469 236.445H497.527C497.727 236.129 498.006 235.885 498.365 235.713C498.725 235.537 499.121 235.449 499.555 235.449C500.344 235.449 500.93 235.641 501.312 236.023C501.695 236.406 501.887 237.002 501.887 237.811V242H500.844ZM506.029 241.256C506.166 241.256 506.326 241.242 506.51 241.215C506.693 241.188 506.832 241.156 506.926 241.121V241.93C506.828 241.973 506.676 242.014 506.469 242.053C506.266 242.096 506.059 242.117 505.848 242.117C504.59 242.117 503.961 241.455 503.961 240.131V236.387H503.053V235.883L503.973 235.461L504.395 234.09H505.021V235.566H506.879V236.387H505.021V240.102C505.021 240.473 505.109 240.758 505.285 240.957C505.465 241.156 505.713 241.256 506.029 241.256ZM512.598 242V237.887C512.598 237.363 512.48 236.975 512.246 236.721C512.016 236.463 511.652 236.334 511.156 236.334C510.504 236.334 510.025 236.516 509.721 236.879C509.42 237.242 509.27 237.842 509.27 238.678V242H508.215V232.883H509.27V235.555C509.27 235.906 509.25 236.207 509.211 236.457H509.281C509.473 236.145 509.744 235.9 510.096 235.725C510.447 235.549 510.844 235.461 511.285 235.461C512.066 235.461 512.654 235.648 513.049 236.023C513.443 236.395 513.641 236.99 513.641 237.811V242H512.598ZM519.57 243.898H514.59V243.078H519.57V243.898ZM526.156 238.771C526.156 239.822 525.891 240.643 525.359 241.232C524.828 241.822 524.094 242.117 523.156 242.117C522.574 242.117 522.059 241.982 521.609 241.713C521.16 241.439 520.814 241.049 520.572 240.541C520.33 240.033 520.209 239.443 520.209 238.771C520.209 237.725 520.471 236.91 520.994 236.328C521.518 235.742 522.252 235.449 523.197 235.449C524.104 235.449 524.822 235.748 525.354 236.346C525.889 236.939 526.156 237.748 526.156 238.771ZM521.299 238.771C521.299 239.58 521.457 240.195 521.773 240.617C522.094 241.035 522.564 241.244 523.186 241.244C523.799 241.244 524.266 241.035 524.586 240.617C524.906 240.195 525.066 239.58 525.066 238.771C525.066 237.963 524.904 237.355 524.58 236.949C524.26 236.539 523.789 236.334 523.168 236.334C521.922 236.334 521.299 237.146 521.299 238.771ZM528.887 242H527.832V235.566H528.887V242ZM527.75 233.826C527.75 233.592 527.809 233.422 527.926 233.316C528.047 233.211 528.195 233.158 528.371 233.158C528.535 233.158 528.678 233.211 528.799 233.316C528.924 233.422 528.986 233.592 528.986 233.826C528.986 234.057 528.924 234.227 528.799 234.336C528.678 234.445 528.535 234.5 528.371 234.5C528.195 234.5 528.047 234.445 527.926 234.336C527.809 234.227 527.75 234.057 527.75 233.826ZM531.98 242H530.926V232.883H531.98V242Z" fill="#595959"/>
<path d="M572.191 233.434H573.322L575.25 238.93C575.496 239.625 575.676 240.248 575.789 240.799C575.887 240.307 576.068 239.676 576.334 238.906L578.25 233.434H579.393L576.334 242H575.25L572.191 233.434ZM583.037 242.117C582.072 242.117 581.314 241.826 580.764 241.244C580.217 240.658 579.943 239.854 579.943 238.83C579.943 237.799 580.199 236.979 580.711 236.369C581.223 235.756 581.914 235.449 582.785 235.449C583.594 235.449 584.238 235.711 584.719 236.234C585.199 236.754 585.439 237.459 585.439 238.35V238.988H581.033C581.053 239.719 581.238 240.273 581.59 240.652C581.941 241.031 582.439 241.221 583.084 241.221C583.428 241.221 583.754 241.191 584.062 241.133C584.371 241.07 584.732 240.951 585.146 240.775V241.701C584.791 241.854 584.457 241.961 584.145 242.023C583.832 242.086 583.463 242.117 583.037 242.117ZM582.773 236.311C582.27 236.311 581.871 236.473 581.578 236.797C581.285 237.121 581.111 237.572 581.057 238.15H584.332C584.324 237.549 584.186 237.092 583.916 236.779C583.646 236.467 583.266 236.311 582.773 236.311ZM591.457 242V237.887C591.457 237.363 591.34 236.975 591.105 236.721C590.875 236.463 590.512 236.334 590.016 236.334C589.355 236.334 588.875 236.518 588.574 236.885C588.277 237.248 588.129 237.842 588.129 238.666V242H587.074V235.566H587.924L588.082 236.445H588.141C588.34 236.129 588.619 235.885 588.979 235.713C589.338 235.537 589.734 235.449 590.168 235.449C590.957 235.449 591.543 235.641 591.926 236.023C592.309 236.406 592.5 237.002 592.5 237.811V242H591.457ZM596.643 241.256C596.779 241.256 596.939 241.242 597.123 241.215C597.307 241.188 597.445 241.156 597.539 241.121V241.93C597.441 241.973 597.289 242.014 597.082 242.053C596.879 242.096 596.672 242.117 596.461 242.117C595.203 242.117 594.574 241.455 594.574 240.131V236.387H593.666V235.883L594.586 235.461L595.008 234.09H595.635V235.566H597.492V236.387H595.635V240.102C595.635 240.473 595.723 240.758 595.898 240.957C596.078 241.156 596.326 241.256 596.643 241.256Z" fill="#595959"/>
<path d="M651.602 242L650.57 239.346H647.172L646.152 242H645.062L648.408 233.398H649.381L652.721 242H651.602ZM650.248 238.391L649.287 235.795L648.877 234.512C648.76 234.98 648.637 235.408 648.508 235.795L647.535 238.391H650.248ZM655.281 238.713L653.061 235.566H654.262L655.92 237.992L657.561 235.566H658.75L656.529 238.713L658.873 242H657.672L655.92 239.434L654.145 242H652.955L655.281 238.713ZM663.924 234.26C663.002 234.26 662.277 234.568 661.75 235.186C661.223 235.803 660.959 236.646 660.959 237.717C660.959 238.822 661.215 239.676 661.727 240.277C662.238 240.875 662.967 241.174 663.912 241.174C664.521 241.174 665.207 241.061 665.969 240.834V241.771C665.605 241.904 665.256 241.994 664.92 242.041C664.584 242.092 664.197 242.117 663.76 242.117C662.498 242.117 661.525 241.734 660.842 240.969C660.162 240.199 659.822 239.111 659.822 237.705C659.822 236.822 659.984 236.049 660.309 235.385C660.637 234.721 661.111 234.209 661.732 233.85C662.357 233.49 663.092 233.311 663.936 233.311C664.842 233.311 665.631 233.479 666.303 233.814L665.869 234.729C665.186 234.416 664.537 234.26 663.924 234.26ZM673.281 238.771C673.281 239.822 673.016 240.643 672.484 241.232C671.953 241.822 671.219 242.117 670.281 242.117C669.699 242.117 669.184 241.982 668.734 241.713C668.285 241.439 667.939 241.049 667.697 240.541C667.455 240.033 667.334 239.443 667.334 238.771C667.334 237.725 667.596 236.91 668.119 236.328C668.643 235.742 669.377 235.449 670.322 235.449C671.229 235.449 671.947 235.748 672.479 236.346C673.014 236.939 673.281 237.748 673.281 238.771ZM668.424 238.771C668.424 239.58 668.582 240.195 668.898 240.617C669.219 241.035 669.689 241.244 670.311 241.244C670.924 241.244 671.391 241.035 671.711 240.617C672.031 240.195 672.191 239.58 672.191 238.771C672.191 237.963 672.029 237.355 671.705 236.949C671.385 236.539 670.914 236.334 670.293 236.334C669.047 236.334 668.424 237.146 668.424 238.771Z" fill="#595959"/>
<path d="M723.105 234.26C722.184 234.26 721.459 234.568 720.932 235.186C720.404 235.803 720.141 236.646 720.141 237.717C720.141 238.822 720.396 239.676 720.908 240.277C721.42 240.875 722.148 241.174 723.094 241.174C723.703 241.174 724.389 241.061 725.15 240.834V241.771C724.787 241.904 724.438 241.994 724.102 242.041C723.766 242.092 723.379 242.117 722.941 242.117C721.68 242.117 720.707 241.734 720.023 240.969C719.344 240.199 719.004 239.111 719.004 237.705C719.004 236.822 719.166 236.049 719.49 235.385C719.818 234.721 720.293 234.209 720.914 233.85C721.539 233.49 722.273 233.311 723.117 233.311C724.023 233.311 724.812 233.479 725.484 233.814L725.051 234.729C724.367 234.416 723.719 234.26 723.105 234.26ZM732.463 238.771C732.463 239.822 732.197 240.643 731.666 241.232C731.135 241.822 730.4 242.117 729.463 242.117C728.881 242.117 728.365 241.982 727.916 241.713C727.467 241.439 727.121 241.049 726.879 240.541C726.637 240.033 726.516 239.443 726.516 238.771C726.516 237.725 726.777 236.91 727.301 236.328C727.824 235.742 728.559 235.449 729.504 235.449C730.41 235.449 731.129 235.748 731.66 236.346C732.195 236.939 732.463 237.748 732.463 238.771ZM727.605 238.771C727.605 239.58 727.764 240.195 728.08 240.617C728.4 241.035 728.871 241.244 729.492 241.244C730.105 241.244 730.572 241.035 730.893 240.617C731.213 240.195 731.373 239.58 731.373 238.771C731.373 237.963 731.211 237.355 730.887 236.949C730.566 236.539 730.096 236.334 729.475 236.334C728.229 236.334 727.605 237.146 727.605 238.771ZM742.324 242V237.857C742.324 236.842 741.889 236.334 741.018 236.334C740.42 236.334 739.98 236.508 739.699 236.855C739.418 237.203 739.277 237.734 739.277 238.449V242H738.229V237.857C738.229 237.35 738.121 236.969 737.906 236.715C737.695 236.461 737.363 236.334 736.91 236.334C736.316 236.334 735.881 236.516 735.604 236.879C735.33 237.242 735.193 237.838 735.193 238.666V242H734.139V235.566H734.988L735.146 236.445H735.205C735.389 236.133 735.646 235.889 735.979 235.713C736.314 235.537 736.689 235.449 737.104 235.449C738.111 235.449 738.768 235.809 739.072 236.527H739.131C739.338 236.184 739.619 235.918 739.975 235.73C740.334 235.543 740.74 235.449 741.193 235.449C741.92 235.449 742.463 235.637 742.822 236.012C743.186 236.387 743.367 236.986 743.367 237.811V242H742.324ZM748.412 235.461C749.26 235.461 749.914 235.754 750.375 236.34C750.836 236.922 751.066 237.736 751.066 238.783C751.066 239.846 750.832 240.668 750.363 241.25C749.895 241.828 749.244 242.117 748.412 242.117C747.979 242.117 747.592 242.039 747.252 241.883C746.912 241.727 746.635 241.494 746.42 241.186H746.338C746.217 241.654 746.145 241.926 746.121 242H745.365V232.883H746.42V235.098C746.42 235.539 746.4 235.98 746.361 236.422H746.42C746.854 235.781 747.518 235.461 748.412 235.461ZM748.236 236.334C747.588 236.334 747.123 236.518 746.842 236.885C746.561 237.252 746.42 237.873 746.42 238.748V238.795C746.42 239.674 746.562 240.303 746.848 240.682C747.137 241.057 747.607 241.244 748.26 241.244C748.838 241.244 749.268 241.033 749.549 240.611C749.834 240.186 749.977 239.572 749.977 238.771C749.977 237.959 749.834 237.35 749.549 236.943C749.264 236.537 748.826 236.334 748.236 236.334Z" fill="#595959"/>
<path d="M798.484 242H797.406V233.434H802.193V234.383H798.484V237.418H801.965V238.361H798.484V242ZM804.49 235.566V239.709C804.49 240.229 804.605 240.615 804.836 240.869C805.07 241.119 805.432 241.244 805.92 241.244C806.58 241.244 807.061 241.061 807.361 240.693C807.662 240.326 807.812 239.734 807.812 238.918V235.566H808.873V242H808.006L807.854 241.15H807.801C807.609 241.459 807.338 241.697 806.986 241.865C806.635 242.033 806.227 242.117 805.762 242.117C804.988 242.117 804.404 241.932 804.01 241.561C803.619 241.189 803.424 240.596 803.424 239.779V235.566H804.49ZM813.648 242.117C812.684 242.117 811.926 241.826 811.375 241.244C810.828 240.658 810.555 239.854 810.555 238.83C810.555 237.799 810.811 236.979 811.322 236.369C811.834 235.756 812.525 235.449 813.396 235.449C814.205 235.449 814.85 235.711 815.33 236.234C815.811 236.754 816.051 237.459 816.051 238.35V238.988H811.645C811.664 239.719 811.85 240.273 812.201 240.652C812.553 241.031 813.051 241.221 813.695 241.221C814.039 241.221 814.365 241.191 814.674 241.133C814.982 241.07 815.344 240.951 815.758 240.775V241.701C815.402 241.854 815.068 241.961 814.756 242.023C814.443 242.086 814.074 242.117 813.648 242.117ZM813.385 236.311C812.881 236.311 812.482 236.473 812.189 236.797C811.896 237.121 811.723 237.572 811.668 238.15H814.943C814.936 237.549 814.797 237.092 814.527 236.779C814.258 236.467 813.877 236.311 813.385 236.311ZM818.74 242H817.686V232.883H818.74V242Z" fill="#595959"/>
<g clip-path="url(#clip0_0_1)">
<path d="M30.8125 99.709C30.8125 100.455 30.543 101.043 30.0039 101.473C29.4648 101.902 28.7148 102.117 27.7539 102.117C26.7383 102.117 25.9531 101.982 25.3984 101.713V100.682C25.7617 100.838 26.1582 100.961 26.5879 101.051C27.0215 101.141 27.4258 101.186 27.8008 101.186C28.4414 101.186 28.9238 101.062 29.248 100.816C29.5723 100.57 29.7344 100.232 29.7344 99.8027C29.7344 99.5176 29.6758 99.2832 29.5586 99.0996C29.4414 98.916 29.2441 98.7441 28.9668 98.584C28.6934 98.4238 28.2773 98.2422 27.7188 98.0391C26.9258 97.75 26.3594 97.4102 26.0195 97.0195C25.6797 96.625 25.5098 96.1172 25.5098 95.4961C25.5098 94.8281 25.7598 94.2969 26.2598 93.9023C26.7637 93.5078 27.4258 93.3105 28.2461 93.3105C29.1016 93.3105 29.8887 93.4707 30.6074 93.791L30.2734 94.7168C29.5391 94.4121 28.8555 94.2598 28.2227 94.2598C27.7148 94.2598 27.3164 94.3691 27.0273 94.5879C26.7422 94.8066 26.5996 95.1133 26.5996 95.5078C26.5996 95.7891 26.6543 96.0234 26.7637 96.2109C26.877 96.3945 27.0566 96.5625 27.3027 96.7148C27.5527 96.8672 27.9434 97.041 28.4746 97.2363C29.1113 97.4707 29.5859 97.6992 29.8984 97.9219C30.2109 98.1406 30.4414 98.3945 30.5898 98.6836C30.7383 98.9688 30.8125 99.3105 30.8125 99.709ZM34.9727 102.117C34.0469 102.117 33.3262 101.834 32.8105 101.268C32.2949 100.697 32.0371 99.8809 32.0371 98.8184C32.0371 97.7402 32.2969 96.9102 32.8164 96.3281C33.3398 95.7422 34.084 95.4492 35.0488 95.4492C35.3613 95.4492 35.6699 95.4824 35.9746 95.5488C36.2832 95.6113 36.5371 95.6934 36.7363 95.7949L36.4141 96.6738C35.8711 96.4707 35.4082 96.3691 35.0254 96.3691C34.377 96.3691 33.8984 96.5742 33.5898 96.9844C33.2812 97.3906 33.127 97.998 33.127 98.8066C33.127 99.584 33.2812 100.18 33.5898 100.594C33.8984 101.004 34.3555 101.209 34.9609 101.209C35.5273 101.209 36.084 101.084 36.6309 100.834V101.771C36.1855 102.002 35.6328 102.117 34.9727 102.117ZM42.543 102V97.8867C42.543 97.3633 42.4258 96.9746 42.1914 96.7207C41.9609 96.4629 41.5977 96.334 41.1016 96.334C40.4492 96.334 39.9707 96.5156 39.666 96.8789C39.3652 97.2422 39.2148 97.8418 39.2148 98.6777V102H38.1602V92.8828H39.2148V95.5547C39.2148 95.9062 39.1953 96.207 39.1562 96.457H39.2266C39.418 96.1445 39.6895 95.9004 40.041 95.7246C40.3926 95.5488 40.7891 95.4609 41.2305 95.4609C42.0117 95.4609 42.5996 95.6484 42.9941 96.0234C43.3887 96.3945 43.5859 96.9902 43.5859 97.8105V102H42.543ZM48.3145 102.117C47.3496 102.117 46.5918 101.826 46.041 101.244C45.4941 100.658 45.2207 99.8535 45.2207 98.8301C45.2207 97.7988 45.4766 96.9785 45.9883 96.3691C46.5 95.7559 47.1914 95.4492 48.0625 95.4492C48.8711 95.4492 49.5156 95.7109 49.9961 96.2344C50.4766 96.7539 50.7168 97.459 50.7168 98.3496V98.9883H46.3105C46.3301 99.7188 46.5156 100.273 46.8672 100.652C47.2188 101.031 47.7168 101.221 48.3613 101.221C48.7051 101.221 49.0312 101.191 49.3398 101.133C49.6484 101.07 50.0098 100.951 50.4238 100.775V101.701C50.0684 101.854 49.7344 101.961 49.4219 102.023C49.1094 102.086 48.7402 102.117 48.3145 102.117ZM48.0508 96.3105C47.5469 96.3105 47.1484 96.4727 46.8555 96.7969C46.5625 97.1211 46.3887 97.5723 46.334 98.1504H49.6094C49.6016 97.5488 49.4629 97.0918 49.1934 96.7793C48.9238 96.4668 48.543 96.3105 48.0508 96.3105ZM54.6309 102.117C53.7949 102.117 53.1465 101.828 52.6855 101.25C52.2246 100.672 51.9941 99.8535 51.9941 98.7949C51.9941 97.7441 52.2246 96.9238 52.6855 96.334C53.1504 95.7441 53.8027 95.4492 54.6426 95.4492C55.5059 95.4492 56.1699 95.7656 56.6348 96.3984H56.7109C56.6992 96.3203 56.6836 96.1641 56.6641 95.9297C56.6445 95.6914 56.6348 95.5312 56.6348 95.4492V92.8828H57.6895V102H56.8398L56.6816 101.139H56.6348C56.1855 101.791 55.5176 102.117 54.6309 102.117ZM54.8008 101.244C55.4414 101.244 55.9082 101.07 56.2012 100.723C56.498 100.371 56.6465 99.7969 56.6465 99V98.8066C56.6465 97.9121 56.4961 97.2754 56.1953 96.8965C55.8984 96.5137 55.4297 96.3223 54.7891 96.3223C54.2461 96.3223 53.8262 96.5391 53.5293 96.9727C53.2324 97.4023 53.084 98.0176 53.084 98.8184C53.084 99.6152 53.2305 100.219 53.5234 100.629C53.8203 101.039 54.2461 101.244 54.8008 101.244ZM60.7305 95.5664V99.709C60.7305 100.229 60.8457 100.615 61.0762 100.869C61.3105 101.119 61.6719 101.244 62.1602 101.244C62.8203 101.244 63.3008 101.061 63.6016 100.693C63.9023 100.326 64.0527 99.7344 64.0527 98.918V95.5664H65.1133V102H64.2461L64.0938 101.15H64.041C63.8496 101.459 63.5781 101.697 63.2266 101.865C62.875 102.033 62.4668 102.117 62.002 102.117C61.2285 102.117 60.6445 101.932 60.25 101.561C59.8594 101.189 59.6641 100.596 59.6641 99.7793V95.5664H60.7305ZM68.207 102H67.1523V92.8828H68.207V102ZM72.9824 102.117C72.0176 102.117 71.2598 101.826 70.709 101.244C70.1621 100.658 69.8887 99.8535 69.8887 98.8301C69.8887 97.7988 70.1445 96.9785 70.6562 96.3691C71.168 95.7559 71.8594 95.4492 72.7305 95.4492C73.5391 95.4492 74.1836 95.7109 74.6641 96.2344C75.1445 96.7539 75.3848 97.459 75.3848 98.3496V98.9883H70.9785C70.998 99.7188 71.1836 100.273 71.5352 100.652C71.8867 101.031 72.3848 101.221 73.0293 101.221C73.373 101.221 73.6992 101.191 74.0078 101.133C74.3164 101.07 74.6777 100.951 75.0918 100.775V101.701C74.7363 101.854 74.4023 101.961 74.0898 102.023C73.7773 102.086 73.4082 102.117 72.9824 102.117ZM72.7188 96.3105C72.2148 96.3105 71.8164 96.4727 71.5234 96.7969C71.2305 97.1211 71.0566 97.5723 71.002 98.1504H74.2773C74.2695 97.5488 74.1309 97.0918 73.8613 96.7793C73.5918 96.4668 73.2109 96.3105 72.7188 96.3105Z" fill="#595959"/>
</g>
<g clip-path="url(#clip1_0_1)">
<path d="M20.6953 35L19.6641 32.3457H16.2656L15.2461 35H14.1562L17.502 26.3984H18.4746L21.8145 35H20.6953ZM19.3418 31.3906L18.3809 28.7949L17.9707 27.5117C17.8535 27.9805 17.7305 28.4082 17.6016 28.7949L16.6289 31.3906H19.3418ZM25.4297 35.1172C24.5039 35.1172 23.7832 34.834 23.2676 34.2676C22.752 33.6973 22.4941 32.8809 22.4941 31.8184C22.4941 30.7402 22.7539 29.9102 23.2734 29.3281C23.7969 28.7422 24.541 28.4492 25.5059 28.4492C25.8184 28.4492 26.127 28.4824 26.4316 28.5488C26.7402 28.6113 26.9941 28.6934 27.1934 28.7949L26.8711 29.6738C26.3281 29.4707 25.8652 29.3691 25.4824 29.3691C24.834 29.3691 24.3555 29.5742 24.0469 29.9844C23.7383 30.3906 23.584 30.998 23.584 31.8066C23.584 32.584 23.7383 33.1797 24.0469 33.5938C24.3555 34.0039 24.8125 34.209 25.418 34.209C25.9844 34.209 26.541 34.084 27.0879 33.834V34.7715C26.6426 35.002 26.0898 35.1172 25.4297 35.1172ZM31.1953 35.1172C30.2695 35.1172 29.5488 34.834 29.0332 34.2676C28.5176 33.6973 28.2598 32.8809 28.2598 31.8184C28.2598 30.7402 28.5195 29.9102 29.0391 29.3281C29.5625 28.7422 30.3066 28.4492 31.2715 28.4492C31.584 28.4492 31.8926 28.4824 32.1973 28.5488C32.5059 28.6113 32.7598 28.6934 32.959 28.7949L32.6367 29.6738C32.0938 29.4707 31.6309 29.3691 31.248 29.3691C30.5996 29.3691 30.1211 29.5742 29.8125 29.9844C29.5039 30.3906 29.3496 30.998 29.3496 31.8066C29.3496 32.584 29.5039 33.1797 29.8125 33.5938C30.1211 34.0039 30.5781 34.209 31.1836 34.209C31.75 34.209 32.3066 34.084 32.8535 33.834V34.7715C32.4082 35.002 31.8555 35.1172 31.1953 35.1172ZM37.1191 35.1172C36.1543 35.1172 35.3965 34.8262 34.8457 34.2441C34.2988 33.6582 34.0254 32.8535 34.0254 31.8301C34.0254 30.7988 34.2812 29.9785 34.793 29.3691C35.3047 28.7559 35.9961 28.4492 36.8672 28.4492C37.6758 28.4492 38.3203 28.7109 38.8008 29.2344C39.2812 29.7539 39.5215 30.459 39.5215 31.3496V31.9883H35.1152C35.1348 32.7188 35.3203 33.2734 35.6719 33.6523C36.0234 34.0312 36.5215 34.2207 37.166 34.2207C37.5098 34.2207 37.8359 34.1914 38.1445 34.1328C38.4531 34.0703 38.8145 33.9512 39.2285 33.7754V34.7012C38.873 34.8535 38.5391 34.9609 38.2266 35.0234C37.9141 35.0859 37.5449 35.1172 37.1191 35.1172ZM36.8555 29.3105C36.3516 29.3105 35.9531 29.4727 35.6602 29.7969C35.3672 30.1211 35.1934 30.5723 35.1387 31.1504H38.4141C38.4062 30.5488 38.2676 30.0918 37.998 29.7793C37.7285 29.4668 37.3477 29.3105 36.8555 29.3105ZM44.2031 35.1172C43.3398 35.1172 42.6758 34.8066 42.2109 34.1855H42.1406L42.1641 34.4258C42.1953 34.7305 42.2109 35.002 42.2109 35.2402V37.8828H41.1562V28.5664H42.0234L42.1641 29.4453H42.2109C42.4609 29.0938 42.75 28.8398 43.0781 28.6836C43.4062 28.5273 43.7852 28.4492 44.2148 28.4492C45.0508 28.4492 45.6992 28.7402 46.1602 29.3223C46.625 29.9004 46.8574 30.7168 46.8574 31.7715C46.8574 32.8223 46.625 33.6426 46.1602 34.2324C45.6953 34.8223 45.043 35.1172 44.2031 35.1172ZM44.0273 29.334C43.3906 29.334 42.9297 29.5137 42.6445 29.873C42.3633 30.2324 42.2188 30.7969 42.2109 31.5664V31.7715C42.2109 32.6426 42.3555 33.2734 42.6445 33.6641C42.9336 34.0508 43.4023 34.2441 44.0508 34.2441C44.5898 34.2441 45.0098 34.0254 45.3105 33.5879C45.6152 33.1504 45.7676 32.541 45.7676 31.7598C45.7676 30.9746 45.6152 30.375 45.3105 29.9609C45.0098 29.543 44.582 29.334 44.0273 29.334ZM50.6895 34.2559C50.8262 34.2559 50.9863 34.2422 51.1699 34.2148C51.3535 34.1875 51.4922 34.1562 51.5859 34.1211V34.9297C51.4883 34.9727 51.3359 35.0137 51.1289 35.0527C50.9258 35.0957 50.7188 35.1172 50.5078 35.1172C49.25 35.1172 48.6211 34.4551 48.6211 33.1309V29.3867H47.7129V28.8828L48.6328 28.4609L49.0547 27.0898H49.6816V28.5664H51.5391V29.3867H49.6816V33.1016C49.6816 33.4727 49.7695 33.7578 49.9453 33.957C50.125 34.1562 50.373 34.2559 50.6895 34.2559ZM56.8477 35L56.6426 34.0859H56.5957C56.2754 34.4883 55.9551 34.7617 55.6348 34.9062C55.3184 35.0469 54.918 35.1172 54.4336 35.1172C53.8008 35.1172 53.3047 34.9512 52.9453 34.6191C52.5859 34.2871 52.4062 33.8184 52.4062 33.2129C52.4062 31.9082 53.4355 31.2246 55.4941 31.1621L56.584 31.1211V30.7402C56.584 30.252 56.4785 29.8926 56.2676 29.6621C56.0566 29.4277 55.7188 29.3105 55.2539 29.3105C54.9141 29.3105 54.5918 29.3613 54.2871 29.4629C53.9863 29.5645 53.7031 29.6777 53.4375 29.8027L53.1152 29.0117C53.4395 28.8398 53.793 28.7051 54.1758 28.6074C54.5586 28.5098 54.9375 28.4609 55.3125 28.4609C56.0898 28.4609 56.668 28.6328 57.0469 28.9766C57.4258 29.3203 57.6152 29.8672 57.6152 30.6172V35H56.8477ZM54.6738 34.2676C55.2637 34.2676 55.7266 34.1094 56.0625 33.793C56.4023 33.4727 56.5723 33.0195 56.5723 32.4336V31.8535L55.623 31.8945C54.8848 31.9219 54.3457 32.0391 54.0059 32.2461C53.6699 32.4531 53.502 32.7793 53.502 33.2246C53.502 33.5605 53.6035 33.8184 53.8066 33.998C54.0137 34.1777 54.3027 34.2676 54.6738 34.2676ZM62.6602 28.4609C63.5078 28.4609 64.1621 28.7539 64.623 29.3398C65.084 29.9219 65.3145 30.7363 65.3145 31.7832C65.3145 32.8457 65.0801 33.668 64.6113 34.25C64.1426 34.8281 63.4922 35.1172 62.6602 35.1172C62.2266 35.1172 61.8398 35.0391 61.5 34.8828C61.1602 34.7266 60.8828 34.4941 60.668 34.1855H60.5859C60.4648 34.6543 60.3926 34.9258 60.3691 35H59.6133V25.8828H60.668V28.0977C60.668 28.5391 60.6484 28.9805 60.6094 29.4219H60.668C61.1016 28.7812 61.7656 28.4609 62.6602 28.4609ZM62.4844 29.334C61.8359 29.334 61.3711 29.5176 61.0898 29.8848C60.8086 30.252 60.668 30.873 60.668 31.748V31.7949C60.668 32.6738 60.8105 33.3027 61.0957 33.6816C61.3848 34.0566 61.8555 34.2441 62.5078 34.2441C63.0859 34.2441 63.5156 34.0332 63.7969 33.6113C64.082 33.1855 64.2246 32.5723 64.2246 31.7715C64.2246 30.959 64.082 30.3496 63.7969 29.9434C63.5117 29.5371 63.0742 29.334 62.4844 29.334ZM68.0508 35H66.9961V25.8828H68.0508V35ZM72.8262 35.1172C71.8613 35.1172 71.1035 34.8262 70.5527 34.2441C70.0059 33.6582 69.7324 32.8535 69.7324 31.8301C69.7324 30.7988 69.9883 29.9785 70.5 29.3691C71.0117 28.7559 71.7031 28.4492 72.5742 28.4492C73.3828 28.4492 74.0273 28.7109 74.5078 29.2344C74.9883 29.7539 75.2285 30.459 75.2285 31.3496V31.9883H70.8223C70.8418 32.7188 71.0273 33.2734 71.3789 33.6523C71.7305 34.0312 72.2285 34.2207 72.873 34.2207C73.2168 34.2207 73.543 34.1914 73.8516 34.1328C74.1602 34.0703 74.5215 33.9512 74.9355 33.7754V34.7012C74.5801 34.8535 74.2461 34.9609 73.9336 35.0234C73.6211 35.0859 73.252 35.1172 72.8262 35.1172ZM72.5625 29.3105C72.0586 29.3105 71.6602 29.4727 71.3672 29.7969C71.0742 30.1211 70.9004 30.5723 70.8457 31.1504H74.1211C74.1133 30.5488 73.9746 30.0918 73.7051 29.7793C73.4355 29.4668 73.0547 29.3105 72.5625 29.3105ZM80.4902 25.0098L77.3438 36.9863H76.3477L79.5059 25.0098H80.4902ZM40.7227 53L37.8984 45.4883H37.8516C37.9102 46.1133 37.9395 46.8848 37.9395 47.8027V53H36.9434V44.4336H38.5371L41.1797 51.4531H41.2266L43.916 44.4336H45.498V53H44.4316V47.7324C44.4316 47.1465 44.459 46.4023 44.5137 45.5H44.4668L41.6074 53H40.7227ZM53.2734 49.7715C53.2734 50.8223 53.0078 51.6426 52.4766 52.2324C51.9453 52.8223 51.2109 53.1172 50.2734 53.1172C49.6914 53.1172 49.1758 52.9824 48.7266 52.7129C48.2773 52.4395 47.9316 52.0488 47.6895 51.541C47.4473 51.0332 47.3262 50.4434 47.3262 49.7715C47.3262 48.7246 47.5879 47.9102 48.1113 47.3281C48.6348 46.7422 49.3691 46.4492 50.3145 46.4492C51.2207 46.4492 51.9395 46.748 52.4707 47.3457C53.0059 47.9395 53.2734 48.748 53.2734 49.7715ZM48.416 49.7715C48.416 50.5801 48.5742 51.1953 48.8906 51.6172C49.2109 52.0352 49.6816 52.2441 50.3027 52.2441C50.916 52.2441 51.3828 52.0352 51.7031 51.6172C52.0234 51.1953 52.1836 50.5801 52.1836 49.7715C52.1836 48.9629 52.0215 48.3555 51.6973 47.9492C51.377 47.5391 50.9062 47.334 50.2852 47.334C49.0391 47.334 48.416 48.1465 48.416 49.7715ZM59.332 53V48.8867C59.332 48.3633 59.2148 47.9746 58.9805 47.7207C58.75 47.4629 58.3867 47.334 57.8906 47.334C57.2305 47.334 56.75 47.5176 56.4492 47.8848C56.1523 48.248 56.0039 48.8418 56.0039 49.666V53H54.9492V46.5664H55.7988L55.957 47.4453H56.0156C56.2148 47.1289 56.4941 46.8848 56.8535 46.7129C57.2129 46.5371 57.6094 46.4492 58.043 46.4492C58.832 46.4492 59.418 46.6406 59.8008 47.0234C60.1836 47.4062 60.375 48.002 60.375 48.8105V53H59.332ZM63.4219 53H62.3672V46.5664H63.4219V53ZM62.2852 44.8262C62.2852 44.5918 62.3438 44.4219 62.4609 44.3164C62.582 44.2109 62.7305 44.1582 62.9062 44.1582C63.0703 44.1582 63.2129 44.2109 63.334 44.3164C63.459 44.4219 63.5215 44.5918 63.5215 44.8262C63.5215 45.0566 63.459 45.2266 63.334 45.3359C63.2129 45.4453 63.0703 45.5 62.9062 45.5C62.7305 45.5 62.582 45.4453 62.4609 45.3359C62.3438 45.2266 62.2852 45.0566 62.2852 44.8262ZM67.6113 52.2559C67.748 52.2559 67.9082 52.2422 68.0918 52.2148C68.2754 52.1875 68.4141 52.1562 68.5078 52.1211V52.9297C68.4102 52.9727 68.2578 53.0137 68.0508 53.0527C67.8477 53.0957 67.6406 53.1172 67.4297 53.1172C66.1719 53.1172 65.543 52.4551 65.543 51.1309V47.3867H64.6348V46.8828L65.5547 46.4609L65.9766 45.0898H66.6035V46.5664H68.4609V47.3867H66.6035V51.1016C66.6035 51.4727 66.6914 51.7578 66.8672 51.957C67.0469 52.1562 67.2949 52.2559 67.6113 52.2559ZM75.3867 49.7715C75.3867 50.8223 75.1211 51.6426 74.5898 52.2324C74.0586 52.8223 73.3242 53.1172 72.3867 53.1172C71.8047 53.1172 71.2891 52.9824 70.8398 52.7129C70.3906 52.4395 70.0449 52.0488 69.8027 51.541C69.5605 51.0332 69.4395 50.4434 69.4395 49.7715C69.4395 48.7246 69.7012 47.9102 70.2246 47.3281C70.748 46.7422 71.4824 46.4492 72.4277 46.4492C73.334 46.4492 74.0527 46.748 74.584 47.3457C75.1191 47.9395 75.3867 48.748 75.3867 49.7715ZM70.5293 49.7715C70.5293 50.5801 70.6875 51.1953 71.0039 51.6172C71.3242 52.0352 71.7949 52.2441 72.416 52.2441C73.0293 52.2441 73.4961 52.0352 73.8164 51.6172C74.1367 51.1953 74.2969 50.5801 74.2969 49.7715C74.2969 48.9629 74.1348 48.3555 73.8105 47.9492C73.4902 47.5391 73.0195 47.334 72.3984 47.334C71.1523 47.334 70.5293 48.1465 70.5293 49.7715ZM80.0625 46.4492C80.3477 46.4492 80.5996 46.4727 80.8184 46.5195L80.6895 47.4922C80.4512 47.4375 80.2188 47.4102 79.9922 47.4102C79.6523 47.4102 79.3359 47.5039 79.043 47.6914C78.7539 47.8789 78.5273 48.1387 78.3633 48.4707C78.1992 48.7988 78.1172 49.1641 78.1172 49.5664V53H77.0625V46.5664H77.9297L78.0469 47.7441H78.0938C78.3398 47.3184 78.6309 46.9961 78.9668 46.7773C79.3027 46.5586 79.668 46.4492 80.0625 46.4492Z" fill="#595959"/>
</g>
<g clip-path="url(#clip2_0_1)">
<path d="M24.9648 167H21.8711V166.379L22.8789 166.15V159.295L21.8711 159.055V158.434H24.9648V159.055L23.957 159.295V166.15L24.9648 166.379V167ZM30.8594 167V162.887C30.8594 162.363 30.7422 161.975 30.5078 161.721C30.2773 161.463 29.9141 161.334 29.418 161.334C28.7578 161.334 28.2773 161.518 27.9766 161.885C27.6797 162.248 27.5312 162.842 27.5312 163.666V167H26.4766V160.566H27.3262L27.4844 161.445H27.543C27.7422 161.129 28.0215 160.885 28.3809 160.713C28.7402 160.537 29.1367 160.449 29.5703 160.449C30.3594 160.449 30.9453 160.641 31.3281 161.023C31.7109 161.406 31.9023 162.002 31.9023 162.811V167H30.8594ZM36.0449 166.256C36.1816 166.256 36.3418 166.242 36.5254 166.215C36.709 166.188 36.8477 166.156 36.9414 166.121V166.93C36.8438 166.973 36.6914 167.014 36.4844 167.053C36.2812 167.096 36.0742 167.117 35.8633 167.117C34.6055 167.117 33.9766 166.455 33.9766 165.131V161.387H33.0684V160.883L33.9883 160.461L34.4102 159.09H35.0371V160.566H36.8945V161.387H35.0371V165.102C35.0371 165.473 35.125 165.758 35.3008 165.957C35.4805 166.156 35.7285 166.256 36.0449 166.256ZM40.9668 167.117C40.002 167.117 39.2441 166.826 38.6934 166.244C38.1465 165.658 37.873 164.854 37.873 163.83C37.873 162.799 38.1289 161.979 38.6406 161.369C39.1523 160.756 39.8438 160.449 40.7148 160.449C41.5234 160.449 42.168 160.711 42.6484 161.234C43.1289 161.754 43.3691 162.459 43.3691 163.35V163.988H38.9629C38.9824 164.719 39.168 165.273 39.5195 165.652C39.8711 166.031 40.3691 166.221 41.0137 166.221C41.3574 166.221 41.6836 166.191 41.9922 166.133C42.3008 166.07 42.6621 165.951 43.0762 165.775V166.701C42.7207 166.854 42.3867 166.961 42.0742 167.023C41.7617 167.086 41.3926 167.117 40.9668 167.117ZM40.7031 161.311C40.1992 161.311 39.8008 161.473 39.5078 161.797C39.2148 162.121 39.041 162.572 38.9863 163.15H42.2617C42.2539 162.549 42.1152 162.092 41.8457 161.779C41.5762 161.467 41.1953 161.311 40.7031 161.311ZM48.0039 160.449C48.2891 160.449 48.541 160.473 48.7598 160.52L48.6309 161.492C48.3926 161.438 48.1602 161.41 47.9336 161.41C47.5938 161.41 47.2773 161.504 46.9844 161.691C46.6953 161.879 46.4688 162.139 46.3047 162.471C46.1406 162.799 46.0586 163.164 46.0586 163.566V167H45.0039V160.566H45.8711L45.9883 161.744H46.0352C46.2812 161.318 46.5723 160.996 46.9082 160.777C47.2441 160.559 47.6094 160.449 48.0039 160.449ZM51.3789 167L48.9414 160.566H50.0723L51.4375 164.357C51.707 165.119 51.8789 165.688 51.9531 166.062H52C52.0117 166.012 52.0254 165.955 52.041 165.893C52.0605 165.826 52.082 165.756 52.1055 165.682C52.1289 165.604 52.2734 165.162 52.5391 164.357L53.9102 160.566H55.0352L52.5918 167H51.3789ZM58.791 167.117C57.8262 167.117 57.0684 166.826 56.5176 166.244C55.9707 165.658 55.6973 164.854 55.6973 163.83C55.6973 162.799 55.9531 161.979 56.4648 161.369C56.9766 160.756 57.668 160.449 58.5391 160.449C59.3477 160.449 59.9922 160.711 60.4727 161.234C60.9531 161.754 61.1934 162.459 61.1934 163.35V163.988H56.7871C56.8066 164.719 56.9922 165.273 57.3438 165.652C57.6953 166.031 58.1934 166.221 58.8379 166.221C59.1816 166.221 59.5078 166.191 59.8164 166.133C60.125 166.07 60.4863 165.951 60.9004 165.775V166.701C60.5449 166.854 60.2109 166.961 59.8984 167.023C59.5859 167.086 59.2168 167.117 58.791 167.117ZM58.5273 161.311C58.0234 161.311 57.625 161.473 57.332 161.797C57.0391 162.121 56.8652 162.572 56.8105 163.15H60.0859C60.0781 162.549 59.9395 162.092 59.6699 161.779C59.4004 161.467 59.0195 161.311 58.5273 161.311ZM67.2109 167V162.887C67.2109 162.363 67.0938 161.975 66.8594 161.721C66.6289 161.463 66.2656 161.334 65.7695 161.334C65.1094 161.334 64.6289 161.518 64.3281 161.885C64.0312 162.248 63.8828 162.842 63.8828 163.666V167H62.8281V160.566H63.6777L63.8359 161.445H63.8945C64.0938 161.129 64.373 160.885 64.7324 160.713C65.0918 160.537 65.4883 160.449 65.9219 160.449C66.7109 160.449 67.2969 160.641 67.6797 161.023C68.0625 161.406 68.2539 162.002 68.2539 162.811V167H67.2109ZM72.9824 167.117C72.0176 167.117 71.2598 166.826 70.709 166.244C70.1621 165.658 69.8887 164.854 69.8887 163.83C69.8887 162.799 70.1445 161.979 70.6562 161.369C71.168 160.756 71.8594 160.449 72.7305 160.449C73.5391 160.449 74.1836 160.711 74.6641 161.234C75.1445 161.754 75.3848 162.459 75.3848 163.35V163.988H70.9785C70.998 164.719 71.1836 165.273 71.5352 165.652C71.8867 166.031 72.3848 166.221 73.0293 166.221C73.373 166.221 73.6992 166.191 74.0078 166.133C74.3164 166.07 74.6777 165.951 75.0918 165.775V166.701C74.7363 166.854 74.4023 166.961 74.0898 167.023C73.7773 167.086 73.4082 167.117 72.9824 167.117ZM72.7188 161.311C72.2148 161.311 71.8164 161.473 71.5234 161.797C71.2305 162.121 71.0566 162.572 71.002 163.15H74.2773C74.2695 162.549 74.1309 162.092 73.8613 161.779C73.5918 161.467 73.2109 161.311 72.7188 161.311Z" fill="#595959"/>
</g>
<path opacity="0.5" d="M0 4C0 1.79086 1.79086 0 4 0H878C880.209 0 882 1.79086 882 4V261C882 263.209 880.209 265 878 265H3.99999C1.79085 265 0 263.209 0 261V4Z" fill="#EBEFEE"/>
</g>
<defs>
<clipPath id="clip0_0_1">
<rect width="65" height="16" fill="white" transform="translate(11 88)"/>
</clipPath>
<clipPath id="clip1_0_1">
<rect width="67" height="36" fill="white" transform="translate(14 21)"/>
</clipPath>
<clipPath id="clip2_0_1">
<rect width="62" height="16" fill="white" transform="translate(14 153)"/>
</clipPath>
</defs>
</svg>
