<svg width="425" height="265" viewBox="0 0 425 265" fill="none" xmlns="http://www.w3.org/2000/svg">
<rect width="425" height="265" fill="#F5F5F5"/>
<rect x="-16619" y="-4687" width="23840" height="13376" fill="#F8FAF9"/>
<g style="mix-blend-mode:luminosity">
<rect width="425" height="265" rx="4" fill="white"/>
<path d="M32.504 31.568C32.266 32.016 31.888 32.366 31.384 32.646C30.866 32.926 30.208 33.052 29.41 33.052H27.646V37H26.05V27.27H29.41C30.152 27.27 30.782 27.41 31.3 27.662C31.818 27.914 32.21 28.264 32.462 28.698C32.714 29.146 32.854 29.636 32.854 30.168C32.854 30.672 32.728 31.134 32.504 31.568ZM30.768 31.344C31.062 31.064 31.216 30.672 31.216 30.168C31.216 29.104 30.614 28.572 29.41 28.572H27.646V31.75H29.41C30.012 31.75 30.46 31.624 30.768 31.344ZM34.2102 27.97C34.0142 27.774 33.9162 27.536 33.9162 27.242C33.9162 26.962 34.0142 26.71 34.2102 26.514C34.4062 26.318 34.6442 26.22 34.9382 26.22C35.2182 26.22 35.4562 26.318 35.6522 26.514C35.8482 26.71 35.9462 26.962 35.9462 27.242C35.9462 27.536 35.8482 27.774 35.6522 27.97C35.4562 28.166 35.2182 28.264 34.9382 28.264C34.6442 28.264 34.4062 28.166 34.2102 27.97ZM35.7222 29.286V37H34.1262V29.286H35.7222ZM43.0836 29.538C43.5596 29.79 43.9376 30.168 44.2176 30.658C44.4836 31.162 44.6236 31.75 44.6236 32.45V37H43.0416V32.688C43.0416 32.002 42.8596 31.47 42.5236 31.106C42.1736 30.742 41.6976 30.546 41.1096 30.546C40.5076 30.546 40.0316 30.742 39.6816 31.106C39.3316 31.47 39.1636 32.002 39.1636 32.688V37H37.5676V29.286H39.1636V30.168C39.4156 29.86 39.7516 29.608 40.1576 29.426C40.5636 29.258 40.9976 29.16 41.4596 29.16C42.0616 29.16 42.6076 29.286 43.0836 29.538ZM49.4614 33.15L53.0174 37H50.8614L48.0054 33.682V37H46.4094V26.64H48.0054V32.66L50.8054 29.286H53.0174L49.4614 33.15ZM63.752 31.568C63.514 32.016 63.136 32.366 62.632 32.646C62.114 32.926 61.456 33.052 60.658 33.052H58.894V37H57.298V27.27H60.658C61.4 27.27 62.03 27.41 62.548 27.662C63.066 27.914 63.458 28.264 63.71 28.698C63.962 29.146 64.102 29.636 64.102 30.168C64.102 30.672 63.976 31.134 63.752 31.568ZM62.016 31.344C62.31 31.064 62.464 30.672 62.464 30.168C62.464 29.104 61.862 28.572 60.658 28.572H58.894V31.75H60.658C61.26 31.75 61.708 31.624 62.016 31.344ZM66.7462 36.636C66.1582 36.3 65.6962 35.838 65.3602 35.236C65.0242 34.634 64.8562 33.934 64.8562 33.136C64.8562 32.352 65.0242 31.666 65.3742 31.05C65.7102 30.448 66.1862 29.986 66.7882 29.65C67.3762 29.328 68.0482 29.16 68.7902 29.16C69.5182 29.16 70.1902 29.328 70.7922 29.65C71.3802 29.986 71.8562 30.448 72.2062 31.05C72.5422 31.666 72.7242 32.352 72.7242 33.136C72.7242 33.92 72.5422 34.62 72.1922 35.222C71.8282 35.838 71.3522 36.3 70.7362 36.636C70.1202 36.972 69.4482 37.126 68.7202 37.126C67.9922 37.126 67.3342 36.972 66.7462 36.636ZM69.8682 35.446C70.2322 35.25 70.5262 34.956 70.7502 34.564C70.9742 34.172 71.0862 33.696 71.0862 33.136C71.0862 32.576 70.9742 32.114 70.7642 31.722C70.5402 31.33 70.2602 31.036 69.9102 30.84C69.5462 30.644 69.1682 30.546 68.7622 30.546C68.3422 30.546 67.9642 30.644 67.6142 30.84C67.2642 31.036 66.9842 31.33 66.7882 31.722C66.5782 32.114 66.4802 32.576 66.4802 33.136C66.4802 33.976 66.6902 34.62 67.1102 35.068C67.5302 35.516 68.0762 35.74 68.7202 35.74C69.1262 35.74 69.5042 35.642 69.8682 35.446ZM79.568 29.538C80.044 29.79 80.422 30.168 80.702 30.658C80.968 31.162 81.108 31.75 81.108 32.45V37H79.526V32.688C79.526 32.002 79.344 31.47 79.008 31.106C78.658 30.742 78.182 30.546 77.594 30.546C76.992 30.546 76.516 30.742 76.166 31.106C75.816 31.47 75.648 32.002 75.648 32.688V37H74.052V29.286H75.648V30.168C75.9 29.86 76.236 29.608 76.642 29.426C77.048 29.258 77.482 29.16 77.944 29.16C78.546 29.16 79.092 29.286 79.568 29.538ZM82.8378 31.05C83.1598 30.462 83.5938 30 84.1538 29.664C84.7138 29.328 85.3298 29.16 86.0158 29.16C86.5198 29.16 87.0098 29.272 87.4998 29.496C87.9898 29.72 88.3818 30 88.6758 30.364V26.64H90.2858V37H88.6758V35.838C88.4098 36.216 88.0458 36.524 87.5838 36.762C87.1218 37.014 86.5898 37.126 86.0018 37.126C85.3298 37.126 84.7138 36.958 84.1538 36.622C83.5938 36.286 83.1598 35.81 82.8378 35.194C82.5158 34.578 82.3618 33.892 82.3618 33.108C82.3618 32.338 82.5158 31.652 82.8378 31.05ZM88.3398 31.75C88.1158 31.358 87.8358 31.064 87.4858 30.854C87.1218 30.658 86.7438 30.546 86.3378 30.546C85.9178 30.546 85.5397 30.658 85.1898 30.854C84.8258 31.05 84.5458 31.344 84.3218 31.736C84.0978 32.128 83.9998 32.576 83.9998 33.108C83.9998 33.64 84.0978 34.116 84.3218 34.508C84.5458 34.914 84.8258 35.222 85.1898 35.432C85.5538 35.642 85.9318 35.74 86.3378 35.74C86.7438 35.74 87.1218 35.642 87.4858 35.432C87.8358 35.236 88.1158 34.928 88.3398 34.536C88.5638 34.144 88.6758 33.668 88.6758 33.136C88.6758 32.604 88.5638 32.142 88.3398 31.75ZM97.1148 28.558V31.414H100.475V32.716H97.1148V35.698H100.895V37H95.5188V27.256H100.895V28.558H97.1148ZM108.127 29.538C108.603 29.79 108.981 30.168 109.261 30.658C109.527 31.162 109.667 31.75 109.667 32.45V37H108.085V32.688C108.085 32.002 107.903 31.47 107.567 31.106C107.217 30.742 106.741 30.546 106.153 30.546C105.551 30.546 105.075 30.742 104.725 31.106C104.375 31.47 104.207 32.002 104.207 32.688V37H102.611V29.286H104.207V30.168C104.459 29.86 104.795 29.608 105.201 29.426C105.607 29.258 106.041 29.16 106.503 29.16C107.105 29.16 107.651 29.286 108.127 29.538ZM118.466 33.738H112.572C112.614 34.354 112.838 34.858 113.258 35.222C113.664 35.6 114.168 35.782 114.77 35.782C115.624 35.782 116.226 35.432 116.59 34.704H118.312C118.074 35.418 117.654 36.006 117.038 36.454C116.422 36.902 115.666 37.126 114.77 37.126C114.028 37.126 113.37 36.972 112.782 36.636C112.194 36.3 111.746 35.838 111.41 35.236C111.074 34.634 110.92 33.934 110.92 33.136C110.92 32.352 111.074 31.652 111.396 31.05C111.718 30.448 112.166 29.986 112.754 29.65C113.342 29.328 114.014 29.16 114.77 29.16C115.498 29.16 116.142 29.328 116.716 29.636C117.276 29.958 117.724 30.406 118.046 30.98C118.354 31.554 118.522 32.212 118.522 32.954C118.522 33.248 118.494 33.514 118.466 33.738ZM116.856 32.45C116.842 31.862 116.632 31.4 116.226 31.036C115.806 30.686 115.302 30.504 114.7 30.504C114.14 30.504 113.678 30.686 113.286 31.036C112.894 31.386 112.656 31.862 112.586 32.45H116.856ZM122.363 29.496C122.755 29.272 123.217 29.16 123.749 29.16V30.812H123.343C122.713 30.812 122.237 30.98 121.915 31.288C121.593 31.61 121.439 32.156 121.439 32.94V37H119.843V29.286H121.439V30.406C121.663 30.014 121.971 29.72 122.363 29.496ZM129.656 29.524C130.118 29.762 130.482 30.056 130.748 30.406V29.286H132.358V37.126C132.358 37.84 132.204 38.47 131.91 39.03C131.602 39.59 131.168 40.024 130.608 40.332C130.048 40.654 129.376 40.808 128.592 40.808C127.542 40.808 126.674 40.57 125.988 40.08C125.288 39.59 124.896 38.918 124.812 38.078H126.394C126.506 38.484 126.772 38.806 127.164 39.058C127.556 39.31 128.032 39.422 128.592 39.422C129.236 39.422 129.754 39.226 130.146 38.834C130.538 38.442 130.748 37.882 130.748 37.126V35.838C130.468 36.202 130.104 36.51 129.642 36.762C129.18 37.014 128.662 37.126 128.074 37.126C127.402 37.126 126.786 36.958 126.226 36.622C125.666 36.286 125.232 35.81 124.91 35.194C124.588 34.578 124.434 33.892 124.434 33.108C124.434 32.338 124.588 31.652 124.91 31.05C125.232 30.462 125.666 30 126.226 29.664C126.786 29.328 127.402 29.16 128.074 29.16C128.662 29.16 129.194 29.286 129.656 29.524ZM130.412 31.75C130.188 31.358 129.908 31.064 129.558 30.854C129.194 30.658 128.816 30.546 128.41 30.546C127.99 30.546 127.612 30.658 127.262 30.854C126.898 31.05 126.618 31.344 126.394 31.736C126.17 32.128 126.072 32.576 126.072 33.108C126.072 33.64 126.17 34.116 126.394 34.508C126.618 34.914 126.898 35.222 127.262 35.432C127.626 35.642 128.004 35.74 128.41 35.74C128.816 35.74 129.194 35.642 129.558 35.432C129.908 35.236 130.188 34.928 130.412 34.536C130.636 34.144 130.748 33.668 130.748 33.136C130.748 32.604 130.636 32.142 130.412 31.75ZM141.148 29.286L136.416 40.626H134.764L136.332 36.874L133.294 29.286H135.072L137.242 35.166L139.496 29.286H141.148ZM151.411 31.26V32.604H145.657V31.26H151.411ZM163.102 27.27V28.572H160.512V37H158.916V28.572H156.312V27.27H163.102ZM165.224 27.284C165.84 26.808 166.624 26.556 167.576 26.556C168.22 26.556 168.794 26.682 169.27 26.906C169.746 27.144 170.096 27.466 170.348 27.858C170.586 28.264 170.712 28.712 170.712 29.216C170.712 29.804 170.558 30.294 170.25 30.7C169.942 31.12 169.564 31.386 169.144 31.526V31.582C169.69 31.75 170.124 32.058 170.432 32.506C170.74 32.954 170.894 33.514 170.894 34.2C170.894 34.76 170.768 35.25 170.516 35.67C170.264 36.104 169.886 36.44 169.396 36.692C168.892 36.944 168.304 37.056 167.618 37.056C166.61 37.056 165.77 36.804 165.126 36.286C164.482 35.768 164.132 35.026 164.09 34.046H165.63C165.658 34.55 165.854 34.956 166.204 35.264C166.54 35.572 167.016 35.726 167.604 35.726C168.164 35.726 168.612 35.572 168.92 35.264C169.228 34.956 169.382 34.55 169.382 34.046C169.382 33.402 169.172 32.94 168.752 32.66C168.332 32.38 167.702 32.24 166.848 32.24H166.484V30.924H166.862C167.618 30.924 168.192 30.798 168.584 30.546C168.976 30.308 169.186 29.93 169.186 29.398C169.186 28.95 169.032 28.6 168.752 28.334C168.458 28.068 168.052 27.928 167.52 27.928C166.988 27.928 166.582 28.068 166.302 28.334C166.008 28.6 165.84 28.922 165.784 29.314H164.23C164.286 28.446 164.608 27.774 165.224 27.284ZM181.056 37.56V39.044H173.244V37.56H181.056ZM184.052 27.984C184.598 27.074 185.536 26.612 186.88 26.612C188.21 26.612 189.148 27.074 189.694 27.984C190.24 28.894 190.52 30.154 190.52 31.764C190.52 33.402 190.24 34.676 189.694 35.6C189.148 36.524 188.21 36.972 186.88 36.972C185.536 36.972 184.598 36.524 184.052 35.6C183.506 34.676 183.24 33.402 183.24 31.764C183.24 30.154 183.506 28.894 184.052 27.984ZM188.798 29.846C188.7 29.328 188.504 28.908 188.21 28.572C187.902 28.236 187.468 28.068 186.88 28.068C186.292 28.068 185.844 28.236 185.55 28.572C185.242 28.908 185.046 29.328 184.948 29.846C184.85 30.378 184.808 31.008 184.808 31.764C184.808 32.548 184.85 33.206 184.948 33.738C185.032 34.27 185.228 34.704 185.536 35.026C185.844 35.362 186.292 35.516 186.88 35.516C187.468 35.516 187.902 35.362 188.21 35.026C188.518 34.704 188.714 34.27 188.812 33.738C188.896 33.206 188.952 32.548 188.952 31.764C188.952 31.008 188.896 30.378 188.798 29.846ZM191.749 28.25V26.794H194.661V37H193.051V28.25H191.749Z" fill="#121212"/>
<path d="M228.494 215.762C227.962 215.538 227.556 215.202 227.262 214.782C226.954 214.362 226.814 213.872 226.814 213.312H228.522C228.55 213.732 228.718 214.082 229.012 214.348C229.306 214.628 229.726 214.754 230.258 214.754C230.804 214.754 231.238 214.628 231.546 214.362C231.854 214.096 232.008 213.746 232.008 213.326C232.008 213.004 231.91 212.738 231.714 212.528C231.518 212.332 231.28 212.164 231 212.052C230.72 211.94 230.328 211.828 229.824 211.688C229.18 211.52 228.662 211.352 228.27 211.184C227.878 211.016 227.542 210.736 227.262 210.372C226.982 210.008 226.842 209.532 226.842 208.916C226.842 208.356 226.982 207.866 227.262 207.446C227.542 207.026 227.934 206.704 228.438 206.48C228.942 206.256 229.516 206.144 230.188 206.144C231.126 206.144 231.896 206.382 232.498 206.858C233.1 207.334 233.436 207.978 233.506 208.79H231.742C231.714 208.44 231.546 208.132 231.238 207.88C230.93 207.628 230.524 207.502 230.02 207.502C229.558 207.502 229.18 207.628 228.9 207.852C228.606 208.09 228.466 208.426 228.466 208.86C228.466 209.168 228.55 209.406 228.732 209.602C228.914 209.798 229.152 209.938 229.432 210.05C229.712 210.162 230.09 210.288 230.58 210.414C231.224 210.596 231.742 210.778 232.148 210.946C232.554 211.128 232.904 211.408 233.184 211.772C233.464 212.136 233.618 212.626 233.618 213.242C233.618 213.746 233.478 214.208 233.212 214.642C232.946 215.09 232.554 215.44 232.05 215.706C231.546 215.972 230.944 216.098 230.258 216.098C229.6 216.098 229.012 215.986 228.494 215.762ZM242.195 208.286L237.463 219.626H235.811L237.379 215.874L234.341 208.286H236.119L238.289 214.166L240.543 208.286H242.195ZM248.666 208.538C249.142 208.79 249.52 209.168 249.8 209.658C250.066 210.162 250.206 210.75 250.206 211.45V216H248.624V211.688C248.624 211.002 248.442 210.47 248.106 210.106C247.756 209.742 247.28 209.546 246.692 209.546C246.09 209.546 245.614 209.742 245.264 210.106C244.914 210.47 244.746 211.002 244.746 211.688V216H243.15V208.286H244.746V209.168C244.998 208.86 245.334 208.608 245.74 208.426C246.146 208.258 246.58 208.16 247.042 208.16C247.644 208.16 248.19 208.286 248.666 208.538ZM253.853 209.588V213.858C253.853 214.152 253.909 214.362 254.049 214.488C254.189 214.614 254.413 214.67 254.749 214.67H255.729V216H254.469C253.741 216 253.195 215.832 252.817 215.496C252.425 215.16 252.243 214.614 252.243 213.858V209.588H251.333V208.286H252.243V206.368H253.853V208.286H255.729V209.588H253.853ZM262.508 208.538C262.97 208.79 263.334 209.168 263.6 209.658C263.866 210.162 264.006 210.75 264.006 211.45V216H262.424V211.688C262.424 211.002 262.242 210.47 261.906 210.106C261.556 209.742 261.08 209.546 260.492 209.546C259.89 209.546 259.414 209.742 259.064 210.106C258.714 210.47 258.546 211.002 258.546 211.688V216H256.95V205.64H258.546V209.182C258.812 208.86 259.148 208.608 259.568 208.426C259.988 208.258 260.436 208.16 260.94 208.16C261.528 208.16 262.046 208.286 262.508 208.538ZM272.806 212.738H266.912C266.954 213.354 267.178 213.858 267.598 214.222C268.004 214.6 268.508 214.782 269.11 214.782C269.964 214.782 270.566 214.432 270.93 213.704H272.652C272.414 214.418 271.994 215.006 271.378 215.454C270.762 215.902 270.006 216.126 269.11 216.126C268.368 216.126 267.71 215.972 267.122 215.636C266.534 215.3 266.086 214.838 265.75 214.236C265.414 213.634 265.26 212.934 265.26 212.136C265.26 211.352 265.414 210.652 265.736 210.05C266.058 209.448 266.506 208.986 267.094 208.65C267.682 208.328 268.354 208.16 269.11 208.16C269.838 208.16 270.482 208.328 271.056 208.636C271.616 208.958 272.064 209.406 272.386 209.98C272.694 210.554 272.862 211.212 272.862 211.954C272.862 212.248 272.834 212.514 272.806 212.738ZM271.196 211.45C271.182 210.862 270.972 210.4 270.566 210.036C270.146 209.686 269.642 209.504 269.04 209.504C268.48 209.504 268.018 209.686 267.626 210.036C267.234 210.386 266.996 210.862 266.926 211.45H271.196ZM276.045 209.588V213.858C276.045 214.152 276.101 214.362 276.241 214.488C276.381 214.614 276.605 214.67 276.941 214.67H277.921V216H276.661C275.933 216 275.387 215.832 275.009 215.496C274.617 215.16 274.435 214.614 274.435 213.858V209.588H273.525V208.286H274.435V206.368H276.045V208.286H277.921V209.588H276.045ZM279.226 206.97C279.03 206.774 278.932 206.536 278.932 206.242C278.932 205.962 279.03 205.71 279.226 205.514C279.422 205.318 279.66 205.22 279.954 205.22C280.234 205.22 280.472 205.318 280.668 205.514C280.864 205.71 280.962 205.962 280.962 206.242C280.962 206.536 280.864 206.774 280.668 206.97C280.472 207.166 280.234 207.264 279.954 207.264C279.66 207.264 279.422 207.166 279.226 206.97ZM280.738 208.286V216H279.142V208.286H280.738ZM282.527 210.05C282.849 209.448 283.297 208.986 283.871 208.65C284.431 208.328 285.089 208.16 285.831 208.16C286.755 208.16 287.525 208.384 288.141 208.832C288.757 209.28 289.163 209.91 289.387 210.722H287.665C287.525 210.344 287.301 210.05 286.993 209.826C286.685 209.616 286.293 209.504 285.831 209.504C285.173 209.504 284.655 209.742 284.263 210.204C283.871 210.666 283.689 211.31 283.689 212.136C283.689 212.976 283.871 213.62 284.263 214.082C284.655 214.558 285.173 214.782 285.831 214.782C286.755 214.782 287.357 214.376 287.665 213.564H289.387C289.163 214.348 288.743 214.978 288.127 215.44C287.511 215.902 286.741 216.126 285.831 216.126C285.089 216.126 284.431 215.972 283.871 215.636C283.297 215.3 282.849 214.838 282.527 214.236C282.205 213.634 282.051 212.934 282.051 212.136C282.051 211.352 282.205 210.652 282.527 210.05ZM295.71 205.64V216H294.114V205.64H295.71ZM304.542 208.286V216H302.946V215.09C302.694 215.412 302.358 215.664 301.952 215.846C301.546 216.028 301.112 216.112 300.664 216.112C300.048 216.112 299.502 215.986 299.026 215.734C298.55 215.482 298.172 215.118 297.892 214.614C297.612 214.124 297.486 213.522 297.486 212.822V208.286H299.068V212.584C299.068 213.284 299.236 213.816 299.586 214.18C299.922 214.544 300.398 214.726 301 214.726C301.588 214.726 302.064 214.544 302.414 214.18C302.764 213.816 302.946 213.284 302.946 212.584V208.286H304.542ZM309.1 208.524C309.576 208.286 310.094 208.16 310.682 208.16C311.354 208.16 311.97 208.328 312.53 208.65C313.076 208.986 313.51 209.448 313.832 210.05C314.14 210.652 314.308 211.338 314.308 212.108C314.308 212.892 314.14 213.578 313.832 214.194C313.51 214.81 313.076 215.286 312.516 215.622C311.956 215.958 311.354 216.126 310.682 216.126C310.08 216.126 309.548 216.014 309.086 215.776C308.624 215.552 308.26 215.244 307.994 214.88V216H306.398V205.64H307.994V209.434C308.26 209.07 308.624 208.762 309.1 208.524ZM312.348 210.736C312.124 210.344 311.844 210.05 311.48 209.854C311.116 209.658 310.738 209.546 310.332 209.546C309.926 209.546 309.548 209.658 309.184 209.854C308.82 210.064 308.54 210.358 308.316 210.75C308.092 211.142 307.994 211.604 307.994 212.136C307.994 212.668 308.092 213.144 308.316 213.536C308.54 213.928 308.82 214.236 309.184 214.432C309.548 214.642 309.926 214.74 310.332 214.74C310.738 214.74 311.116 214.642 311.48 214.432C311.844 214.222 312.124 213.914 312.348 213.508C312.572 213.116 312.684 212.64 312.684 212.108C312.684 211.576 312.572 211.128 312.348 210.736ZM322.65 212.738H316.756C316.798 213.354 317.022 213.858 317.442 214.222C317.848 214.6 318.352 214.782 318.954 214.782C319.808 214.782 320.41 214.432 320.774 213.704H322.496C322.258 214.418 321.838 215.006 321.222 215.454C320.606 215.902 319.85 216.126 318.954 216.126C318.212 216.126 317.554 215.972 316.966 215.636C316.378 215.3 315.93 214.838 315.594 214.236C315.258 213.634 315.104 212.934 315.104 212.136C315.104 211.352 315.258 210.652 315.58 210.05C315.902 209.448 316.35 208.986 316.938 208.65C317.526 208.328 318.198 208.16 318.954 208.16C319.682 208.16 320.326 208.328 320.9 208.636C321.46 208.958 321.908 209.406 322.23 209.98C322.538 210.554 322.706 211.212 322.706 211.954C322.706 212.248 322.678 212.514 322.65 212.738ZM321.04 211.45C321.026 210.862 320.816 210.4 320.41 210.036C319.99 209.686 319.486 209.504 318.884 209.504C318.324 209.504 317.862 209.686 317.47 210.036C317.078 210.386 316.84 210.862 316.77 211.45H321.04ZM328.785 215.636C328.197 215.3 327.735 214.838 327.399 214.236C327.063 213.634 326.895 212.934 326.895 212.136C326.895 211.352 327.063 210.666 327.413 210.05C327.749 209.448 328.225 208.986 328.827 208.65C329.415 208.328 330.087 208.16 330.829 208.16C331.557 208.16 332.229 208.328 332.831 208.65C333.419 208.986 333.895 209.448 334.245 210.05C334.581 210.666 334.763 211.352 334.763 212.136C334.763 212.92 334.581 213.62 334.231 214.222C333.867 214.838 333.391 215.3 332.775 215.636C332.159 215.972 331.487 216.126 330.759 216.126C330.031 216.126 329.373 215.972 328.785 215.636ZM331.907 214.446C332.271 214.25 332.565 213.956 332.789 213.564C333.013 213.172 333.125 212.696 333.125 212.136C333.125 211.576 333.013 211.114 332.803 210.722C332.579 210.33 332.299 210.036 331.949 209.84C331.585 209.644 331.207 209.546 330.801 209.546C330.381 209.546 330.003 209.644 329.653 209.84C329.303 210.036 329.023 210.33 328.827 210.722C328.617 211.114 328.519 211.576 328.519 212.136C328.519 212.976 328.729 213.62 329.149 214.068C329.569 214.516 330.115 214.74 330.759 214.74C331.165 214.74 331.543 214.642 331.907 214.446ZM336.175 206.97C335.979 206.774 335.881 206.536 335.881 206.242C335.881 205.962 335.979 205.71 336.175 205.514C336.371 205.318 336.609 205.22 336.903 205.22C337.183 205.22 337.421 205.318 337.617 205.514C337.813 205.71 337.911 205.962 337.911 206.242C337.911 206.536 337.813 206.774 337.617 206.97C337.421 207.166 337.183 207.264 336.903 207.264C336.609 207.264 336.371 207.166 336.175 206.97ZM337.687 208.286V216H336.091V208.286H337.687ZM341.128 205.64V216H339.532V205.64H341.128ZM347.957 205.64V216H346.361V205.64H347.957ZM356.816 212.738H350.922C350.964 213.354 351.188 213.858 351.608 214.222C352.014 214.6 352.518 214.782 353.12 214.782C353.974 214.782 354.576 214.432 354.94 213.704H356.662C356.424 214.418 356.004 215.006 355.388 215.454C354.772 215.902 354.016 216.126 353.12 216.126C352.378 216.126 351.72 215.972 351.132 215.636C350.544 215.3 350.096 214.838 349.76 214.236C349.424 213.634 349.27 212.934 349.27 212.136C349.27 211.352 349.424 210.652 349.746 210.05C350.068 209.448 350.516 208.986 351.104 208.65C351.692 208.328 352.364 208.16 353.12 208.16C353.848 208.16 354.492 208.328 355.066 208.636C355.626 208.958 356.074 209.406 356.396 209.98C356.704 210.554 356.872 211.212 356.872 211.954C356.872 212.248 356.844 212.514 356.816 212.738ZM355.206 211.45C355.192 210.862 354.982 210.4 354.576 210.036C354.156 209.686 353.652 209.504 353.05 209.504C352.49 209.504 352.028 209.686 351.636 210.036C351.244 210.386 351.006 210.862 350.936 211.45H355.206ZM358.137 210.05C358.459 209.462 358.893 209 359.453 208.664C360.013 208.328 360.629 208.16 361.301 208.16C361.903 208.16 362.435 208.286 362.883 208.524C363.331 208.762 363.695 209.056 363.975 209.406V208.286H365.585V216H363.975V214.852C363.695 215.216 363.331 215.524 362.869 215.762C362.393 216.014 361.861 216.126 361.273 216.126C360.601 216.126 359.999 215.958 359.453 215.622C358.893 215.286 358.459 214.81 358.137 214.194C357.815 213.578 357.661 212.892 357.661 212.108C357.661 211.338 357.815 210.652 358.137 210.05ZM363.639 210.75C363.415 210.358 363.135 210.064 362.785 209.854C362.421 209.658 362.043 209.546 361.637 209.546C361.217 209.546 360.839 209.658 360.489 209.854C360.125 210.05 359.845 210.344 359.621 210.736C359.397 211.128 359.299 211.576 359.299 212.108C359.299 212.64 359.397 213.116 359.621 213.508C359.845 213.914 360.125 214.222 360.489 214.432C360.853 214.642 361.231 214.74 361.637 214.74C362.043 214.74 362.421 214.642 362.785 214.432C363.135 214.236 363.415 213.928 363.639 213.536C363.863 213.144 363.975 212.668 363.975 212.136C363.975 211.604 363.863 211.142 363.639 210.75ZM370.483 212.15L374.039 216H371.883L369.027 212.682V216H367.431V205.64H369.027V211.66L371.827 208.286H374.039L370.483 212.15ZM374.877 210.05C375.199 209.462 375.633 209 376.193 208.664C376.753 208.328 377.369 208.16 378.041 208.16C378.643 208.16 379.175 208.286 379.623 208.524C380.071 208.762 380.435 209.056 380.715 209.406V208.286H382.325V216H380.715V214.852C380.435 215.216 380.071 215.524 379.609 215.762C379.133 216.014 378.601 216.126 378.013 216.126C377.341 216.126 376.739 215.958 376.193 215.622C375.633 215.286 375.199 214.81 374.877 214.194C374.555 213.578 374.401 212.892 374.401 212.108C374.401 211.338 374.555 210.652 374.877 210.05ZM380.379 210.75C380.155 210.358 379.875 210.064 379.525 209.854C379.161 209.658 378.783 209.546 378.377 209.546C377.957 209.546 377.579 209.658 377.229 209.854C376.865 210.05 376.585 210.344 376.361 210.736C376.137 211.128 376.039 211.576 376.039 212.108C376.039 212.64 376.137 213.116 376.361 213.508C376.585 213.914 376.865 214.222 377.229 214.432C377.593 214.642 377.971 214.74 378.377 214.74C378.783 214.74 379.161 214.642 379.525 214.432C379.875 214.236 380.155 213.928 380.379 213.536C380.603 213.144 380.715 212.668 380.715 212.136C380.715 211.604 380.603 211.142 380.379 210.75ZM388.861 208.524C389.323 208.762 389.687 209.056 389.953 209.406V208.286H391.563V216.126C391.563 216.84 391.409 217.47 391.115 218.03C390.807 218.59 390.373 219.024 389.813 219.332C389.253 219.654 388.581 219.808 387.797 219.808C386.747 219.808 385.879 219.57 385.193 219.08C384.493 218.59 384.101 217.918 384.017 217.078H385.599C385.711 217.484 385.977 217.806 386.369 218.058C386.761 218.31 387.237 218.422 387.797 218.422C388.441 218.422 388.959 218.226 389.351 217.834C389.743 217.442 389.953 216.882 389.953 216.126V214.838C389.673 215.202 389.309 215.51 388.847 215.762C388.385 216.014 387.867 216.126 387.279 216.126C386.607 216.126 385.991 215.958 385.431 215.622C384.871 215.286 384.437 214.81 384.115 214.194C383.793 213.578 383.639 212.892 383.639 212.108C383.639 211.338 383.793 210.652 384.115 210.05C384.437 209.462 384.871 209 385.431 208.664C385.991 208.328 386.607 208.16 387.279 208.16C387.867 208.16 388.399 208.286 388.861 208.524ZM389.617 210.75C389.393 210.358 389.113 210.064 388.763 209.854C388.399 209.658 388.021 209.546 387.615 209.546C387.195 209.546 386.817 209.658 386.467 209.854C386.103 210.05 385.823 210.344 385.599 210.736C385.375 211.128 385.277 211.576 385.277 212.108C385.277 212.64 385.375 213.116 385.599 213.508C385.823 213.914 386.103 214.222 386.467 214.432C386.831 214.642 387.209 214.74 387.615 214.74C388.021 214.74 388.399 214.642 388.763 214.432C389.113 214.236 389.393 213.928 389.617 213.536C389.841 213.144 389.953 212.668 389.953 212.136C389.953 211.604 389.841 211.142 389.617 210.75ZM400.423 212.738H394.529C394.571 213.354 394.795 213.858 395.215 214.222C395.621 214.6 396.125 214.782 396.727 214.782C397.581 214.782 398.183 214.432 398.547 213.704H400.269C400.031 214.418 399.611 215.006 398.995 215.454C398.379 215.902 397.623 216.126 396.727 216.126C395.985 216.126 395.327 215.972 394.739 215.636C394.151 215.3 393.703 214.838 393.367 214.236C393.031 213.634 392.877 212.934 392.877 212.136C392.877 211.352 393.031 210.652 393.353 210.05C393.675 209.448 394.123 208.986 394.711 208.65C395.299 208.328 395.971 208.16 396.727 208.16C397.455 208.16 398.099 208.328 398.673 208.636C399.233 208.958 399.681 209.406 400.003 209.98C400.311 210.554 400.479 211.212 400.479 211.954C400.479 212.248 400.451 212.514 400.423 212.738ZM398.813 211.45C398.799 210.862 398.589 210.4 398.183 210.036C397.763 209.686 397.259 209.504 396.657 209.504C396.097 209.504 395.635 209.686 395.243 210.036C394.851 210.386 394.613 210.862 394.543 211.45H398.813Z" fill="#121212"/>
<rect width="385" height="1" transform="translate(21 116)" fill="#CED7D4"/>
<rect width="385" height="1" transform="translate(21 116)" fill="#CED7D4"/>
<rect width="385" height="1" transform="translate(21 179)" fill="#CED7D4"/>
<rect width="385" height="1" transform="translate(21 179)" fill="#CED7D4"/>
<path d="M31.9453 92H26.3604V82.0059H31.9453V83.1133H27.6182V86.2305H31.6924V87.3242H27.6182V90.8926H31.9453V92ZM35.6367 92L32.793 84.4941H34.1123L35.7051 88.917C36.0195 89.8057 36.2201 90.4688 36.3066 90.9062H36.3613C36.375 90.847 36.391 90.7809 36.4092 90.708C36.432 90.6305 36.457 90.5485 36.4844 90.4619C36.5117 90.3708 36.6803 89.8558 36.9902 88.917L38.5898 84.4941H39.9023L37.0518 92H35.6367ZM44.2842 92.1367C43.1585 92.1367 42.2744 91.7972 41.6318 91.1182C40.9938 90.4346 40.6748 89.4958 40.6748 88.3018C40.6748 87.0986 40.9733 86.1416 41.5703 85.4307C42.1673 84.7152 42.974 84.3574 43.9902 84.3574C44.9336 84.3574 45.6855 84.6628 46.2461 85.2734C46.8066 85.8796 47.0869 86.7021 47.0869 87.7412V88.4863H41.9463C41.9691 89.3385 42.1855 89.9857 42.5957 90.4277C43.0059 90.8698 43.5869 91.0908 44.3389 91.0908C44.7399 91.0908 45.1204 91.0566 45.4805 90.9883C45.8405 90.9154 46.262 90.7764 46.7451 90.5713V91.6514C46.3304 91.8291 45.9408 91.9544 45.5762 92.0273C45.2116 92.1003 44.7809 92.1367 44.2842 92.1367ZM43.9766 85.3623C43.3887 85.3623 42.9238 85.5514 42.582 85.9297C42.2402 86.3079 42.0374 86.8343 41.9736 87.5088H45.7949C45.7858 86.807 45.624 86.2738 45.3096 85.9092C44.9951 85.5446 44.5508 85.3623 43.9766 85.3623ZM54.1074 92V87.2012C54.1074 86.5905 53.9707 86.137 53.6973 85.8408C53.4284 85.54 53.0046 85.3896 52.4258 85.3896C51.6556 85.3896 51.0951 85.6038 50.7441 86.0322C50.3978 86.4561 50.2246 87.1488 50.2246 88.1104V92H48.9941V84.4941H49.9854L50.1699 85.5195H50.2383C50.4707 85.1504 50.7965 84.8656 51.2158 84.665C51.6351 84.46 52.0977 84.3574 52.6035 84.3574C53.5241 84.3574 54.2077 84.5807 54.6543 85.0273C55.1009 85.474 55.3242 86.1689 55.3242 87.1123V92H54.1074ZM60.1572 91.1318C60.3167 91.1318 60.5036 91.1159 60.7178 91.084C60.932 91.0521 61.0938 91.0156 61.2031 90.9746V91.918C61.0892 91.9681 60.9115 92.016 60.6699 92.0615C60.4329 92.1117 60.1914 92.1367 59.9453 92.1367C58.4779 92.1367 57.7441 91.3643 57.7441 89.8193V85.4512H56.6846V84.8633L57.7578 84.3711L58.25 82.7715H58.9814V84.4941H61.1484V85.4512H58.9814V89.7852C58.9814 90.2181 59.084 90.5508 59.2891 90.7832C59.4987 91.0156 59.7881 91.1318 60.1572 91.1318ZM68.8525 91.1318C69.012 91.1318 69.1989 91.1159 69.4131 91.084C69.6273 91.0521 69.7891 91.0156 69.8984 90.9746V91.918C69.7845 91.9681 69.6068 92.016 69.3652 92.0615C69.1283 92.1117 68.8867 92.1367 68.6406 92.1367C67.1732 92.1367 66.4395 91.3643 66.4395 89.8193V85.4512H65.3799V84.8633L66.4531 84.3711L66.9453 82.7715H67.6768V84.4941H69.8438V85.4512H67.6768V89.7852C67.6768 90.2181 67.7793 90.5508 67.9844 90.7832C68.194 91.0156 68.4834 91.1318 68.8525 91.1318ZM72.6328 92H71.4023V84.4941H72.6328V92ZM71.3066 82.4639C71.3066 82.1904 71.375 81.9922 71.5117 81.8691C71.653 81.7461 71.8262 81.6846 72.0312 81.6846C72.2227 81.6846 72.389 81.7461 72.5303 81.8691C72.6761 81.9922 72.749 82.1904 72.749 82.4639C72.749 82.7327 72.6761 82.931 72.5303 83.0586C72.389 83.1862 72.2227 83.25 72.0312 83.25C71.8262 83.25 71.653 83.1862 71.5117 83.0586C71.375 82.931 71.3066 82.7327 71.3066 82.4639ZM84.5615 92V87.167C84.5615 85.9821 84.0534 85.3896 83.0371 85.3896C82.3398 85.3896 81.8271 85.5924 81.499 85.998C81.1709 86.4036 81.0068 87.0234 81.0068 87.8574V92H79.7832V87.167C79.7832 86.5745 79.6579 86.1302 79.4072 85.834C79.1611 85.5378 78.7738 85.3896 78.2451 85.3896C77.5524 85.3896 77.0443 85.6016 76.7207 86.0254C76.4017 86.4492 76.2422 87.1442 76.2422 88.1104V92H75.0117V84.4941H76.0029L76.1875 85.5195H76.2559C76.4701 85.1549 76.7708 84.8701 77.1582 84.665C77.5501 84.46 77.9876 84.3574 78.4707 84.3574C79.6465 84.3574 80.4121 84.7767 80.7676 85.6152H80.8359C81.0775 85.2142 81.4056 84.9043 81.8203 84.6855C82.2396 84.4668 82.7135 84.3574 83.2422 84.3574C84.0898 84.3574 84.7233 84.5762 85.1426 85.0137C85.5664 85.4512 85.7783 86.1507 85.7783 87.1123V92H84.5615ZM91.3018 92.1367C90.1761 92.1367 89.292 91.7972 88.6494 91.1182C88.0114 90.4346 87.6924 89.4958 87.6924 88.3018C87.6924 87.0986 87.9909 86.1416 88.5879 85.4307C89.1849 84.7152 89.9915 84.3574 91.0078 84.3574C91.9512 84.3574 92.7031 84.6628 93.2637 85.2734C93.8242 85.8796 94.1045 86.7021 94.1045 87.7412V88.4863H88.9639C88.9867 89.3385 89.2031 89.9857 89.6133 90.4277C90.0234 90.8698 90.6045 91.0908 91.3564 91.0908C91.7575 91.0908 92.138 91.0566 92.498 90.9883C92.8581 90.9154 93.2796 90.7764 93.7627 90.5713V91.6514C93.348 91.8291 92.9583 91.9544 92.5938 92.0273C92.2292 92.1003 91.7985 92.1367 91.3018 92.1367ZM90.9941 85.3623C90.4062 85.3623 89.9414 85.5514 89.5996 85.9297C89.2578 86.3079 89.055 86.8343 88.9912 87.5088H92.8125C92.8034 86.807 92.6416 86.2738 92.3271 85.9092C92.0127 85.5446 91.5684 85.3623 90.9941 85.3623ZM99.6553 91.2412C99.6553 91.068 99.6781 90.9222 99.7236 90.8037C99.7692 90.6807 99.8307 90.5827 99.9082 90.5098C99.9857 90.4323 100.077 90.3776 100.182 90.3457C100.286 90.3092 100.4 90.291 100.523 90.291C100.642 90.291 100.754 90.3092 100.858 90.3457C100.968 90.3776 101.061 90.4323 101.139 90.5098C101.216 90.5827 101.278 90.6807 101.323 90.8037C101.369 90.9222 101.392 91.068 101.392 91.2412C101.392 91.4098 101.369 91.5557 101.323 91.6787C101.278 91.7972 101.216 91.8952 101.139 91.9727C101.061 92.0501 100.968 92.1071 100.858 92.1436C100.754 92.18 100.642 92.1982 100.523 92.1982C100.4 92.1982 100.286 92.18 100.182 92.1436C100.077 92.1071 99.9857 92.0501 99.9082 91.9727C99.8307 91.8952 99.7692 91.7972 99.7236 91.6787C99.6781 91.5557 99.6553 91.4098 99.6553 91.2412ZM99.6553 85.2529C99.6553 85.0752 99.6781 84.9271 99.7236 84.8086C99.7692 84.6855 99.8307 84.5876 99.9082 84.5146C99.9857 84.4372 100.077 84.3825 100.182 84.3506C100.286 84.3187 100.4 84.3027 100.523 84.3027C100.642 84.3027 100.754 84.3187 100.858 84.3506C100.968 84.3825 101.061 84.4372 101.139 84.5146C101.216 84.5876 101.278 84.6855 101.323 84.8086C101.369 84.9271 101.392 85.0752 101.392 85.2529C101.392 85.4215 101.369 85.5651 101.323 85.6836C101.278 85.8021 101.216 85.9001 101.139 85.9775C101.061 86.055 100.968 86.112 100.858 86.1484C100.754 86.1849 100.642 86.2031 100.523 86.2031C100.4 86.2031 100.286 86.1849 100.182 86.1484C100.077 86.112 99.9857 86.055 99.9082 85.9775C99.8307 85.9001 99.7692 85.8021 99.7236 85.6836C99.6781 85.5651 99.6553 85.4215 99.6553 85.2529ZM31.9453 152H26.3604V142.006H31.9453V143.113H27.6182V146.23H31.6924V147.324H27.6182V150.893H31.9453V152ZM35.6367 152L32.793 144.494H34.1123L35.7051 148.917C36.0195 149.806 36.2201 150.469 36.3066 150.906H36.3613C36.375 150.847 36.391 150.781 36.4092 150.708C36.432 150.631 36.457 150.549 36.4844 150.462C36.5117 150.371 36.6803 149.856 36.9902 148.917L38.5898 144.494H39.9023L37.0518 152H35.6367ZM44.2842 152.137C43.1585 152.137 42.2744 151.797 41.6318 151.118C40.9938 150.435 40.6748 149.496 40.6748 148.302C40.6748 147.099 40.9733 146.142 41.5703 145.431C42.1673 144.715 42.974 144.357 43.9902 144.357C44.9336 144.357 45.6855 144.663 46.2461 145.273C46.8066 145.88 47.0869 146.702 47.0869 147.741V148.486H41.9463C41.9691 149.339 42.1855 149.986 42.5957 150.428C43.0059 150.87 43.5869 151.091 44.3389 151.091C44.7399 151.091 45.1204 151.057 45.4805 150.988C45.8405 150.915 46.262 150.776 46.7451 150.571V151.651C46.3304 151.829 45.9408 151.954 45.5762 152.027C45.2116 152.1 44.7809 152.137 44.2842 152.137ZM43.9766 145.362C43.3887 145.362 42.9238 145.551 42.582 145.93C42.2402 146.308 42.0374 146.834 41.9736 147.509H45.7949C45.7858 146.807 45.624 146.274 45.3096 145.909C44.9951 145.545 44.5508 145.362 43.9766 145.362ZM54.1074 152V147.201C54.1074 146.59 53.9707 146.137 53.6973 145.841C53.4284 145.54 53.0046 145.39 52.4258 145.39C51.6556 145.39 51.0951 145.604 50.7441 146.032C50.3978 146.456 50.2246 147.149 50.2246 148.11V152H48.9941V144.494H49.9854L50.1699 145.52H50.2383C50.4707 145.15 50.7965 144.866 51.2158 144.665C51.6351 144.46 52.0977 144.357 52.6035 144.357C53.5241 144.357 54.2077 144.581 54.6543 145.027C55.1009 145.474 55.3242 146.169 55.3242 147.112V152H54.1074ZM60.1572 151.132C60.3167 151.132 60.5036 151.116 60.7178 151.084C60.932 151.052 61.0938 151.016 61.2031 150.975V151.918C61.0892 151.968 60.9115 152.016 60.6699 152.062C60.4329 152.112 60.1914 152.137 59.9453 152.137C58.4779 152.137 57.7441 151.364 57.7441 149.819V145.451H56.6846V144.863L57.7578 144.371L58.25 142.771H58.9814V144.494H61.1484V145.451H58.9814V149.785C58.9814 150.218 59.084 150.551 59.2891 150.783C59.4987 151.016 59.7881 151.132 60.1572 151.132ZM68.8525 151.132C69.012 151.132 69.1989 151.116 69.4131 151.084C69.6273 151.052 69.7891 151.016 69.8984 150.975V151.918C69.7845 151.968 69.6068 152.016 69.3652 152.062C69.1283 152.112 68.8867 152.137 68.6406 152.137C67.1732 152.137 66.4395 151.364 66.4395 149.819V145.451H65.3799V144.863L66.4531 144.371L66.9453 142.771H67.6768V144.494H69.8438V145.451H67.6768V149.785C67.6768 150.218 67.7793 150.551 67.9844 150.783C68.194 151.016 68.4834 151.132 68.8525 151.132ZM70.2266 144.494H71.5459L73.166 148.767C73.5078 149.696 73.7174 150.378 73.7949 150.811H73.8496C73.8906 150.642 73.984 150.327 74.1299 149.867C74.2757 149.402 74.3988 149.031 74.499 148.753L76.0234 144.494H77.3496L74.1162 153.039C73.8018 153.868 73.4281 154.463 72.9951 154.823C72.5622 155.183 72.0267 155.363 71.3887 155.363C71.0469 155.363 70.7074 155.325 70.3701 155.247V154.27C70.598 154.324 70.8714 154.352 71.1904 154.352C71.5824 154.352 71.915 154.242 72.1885 154.023C72.4619 153.809 72.6852 153.477 72.8584 153.025L73.248 152.027L70.2266 144.494ZM82.0938 152.137C81.0866 152.137 80.3118 151.774 79.7695 151.05H79.6875L79.7148 151.33C79.7513 151.686 79.7695 152.002 79.7695 152.28V155.363H78.5391V144.494H79.5508L79.7148 145.52H79.7695C80.0612 145.109 80.3984 144.813 80.7812 144.631C81.1641 144.449 81.6061 144.357 82.1074 144.357C83.0827 144.357 83.8392 144.697 84.377 145.376C84.9193 146.05 85.1904 147.003 85.1904 148.233C85.1904 149.459 84.9193 150.416 84.377 151.104C83.8346 151.793 83.0736 152.137 82.0938 152.137ZM81.8887 145.39C81.1458 145.39 80.6081 145.599 80.2754 146.019C79.9473 146.438 79.7786 147.096 79.7695 147.994V148.233C79.7695 149.25 79.9382 149.986 80.2754 150.441C80.6126 150.893 81.1595 151.118 81.916 151.118C82.5449 151.118 83.0348 150.863 83.3857 150.353C83.7412 149.842 83.9189 149.131 83.9189 148.22C83.9189 147.304 83.7412 146.604 83.3857 146.121C83.0348 145.633 82.5358 145.39 81.8887 145.39ZM90.3447 152.137C89.2191 152.137 88.335 151.797 87.6924 151.118C87.0544 150.435 86.7354 149.496 86.7354 148.302C86.7354 147.099 87.0339 146.142 87.6309 145.431C88.2279 144.715 89.0345 144.357 90.0508 144.357C90.9941 144.357 91.7461 144.663 92.3066 145.273C92.8672 145.88 93.1475 146.702 93.1475 147.741V148.486H88.0068C88.0296 149.339 88.2461 149.986 88.6562 150.428C89.0664 150.87 89.6475 151.091 90.3994 151.091C90.8005 151.091 91.181 151.057 91.541 150.988C91.901 150.915 92.3226 150.776 92.8057 150.571V151.651C92.391 151.829 92.0013 151.954 91.6367 152.027C91.2721 152.1 90.8415 152.137 90.3447 152.137ZM90.0371 145.362C89.4492 145.362 88.9844 145.551 88.6426 145.93C88.3008 146.308 88.098 146.834 88.0342 147.509H91.8555C91.8464 146.807 91.6846 146.274 91.3701 145.909C91.0557 145.545 90.6113 145.362 90.0371 145.362ZM95.0615 151.241C95.0615 151.068 95.0843 150.922 95.1299 150.804C95.1755 150.681 95.237 150.583 95.3145 150.51C95.3919 150.432 95.4831 150.378 95.5879 150.346C95.6927 150.309 95.8066 150.291 95.9297 150.291C96.0482 150.291 96.1598 150.309 96.2646 150.346C96.374 150.378 96.4674 150.432 96.5449 150.51C96.6224 150.583 96.6839 150.681 96.7295 150.804C96.7751 150.922 96.7979 151.068 96.7979 151.241C96.7979 151.41 96.7751 151.556 96.7295 151.679C96.6839 151.797 96.6224 151.895 96.5449 151.973C96.4674 152.05 96.374 152.107 96.2646 152.144C96.1598 152.18 96.0482 152.198 95.9297 152.198C95.8066 152.198 95.6927 152.18 95.5879 152.144C95.4831 152.107 95.3919 152.05 95.3145 151.973C95.237 151.895 95.1755 151.797 95.1299 151.679C95.0843 151.556 95.0615 151.41 95.0615 151.241ZM95.0615 145.253C95.0615 145.075 95.0843 144.927 95.1299 144.809C95.1755 144.686 95.237 144.588 95.3145 144.515C95.3919 144.437 95.4831 144.382 95.5879 144.351C95.6927 144.319 95.8066 144.303 95.9297 144.303C96.0482 144.303 96.1598 144.319 96.2646 144.351C96.374 144.382 96.4674 144.437 96.5449 144.515C96.6224 144.588 96.6839 144.686 96.7295 144.809C96.7751 144.927 96.7979 145.075 96.7979 145.253C96.7979 145.422 96.7751 145.565 96.7295 145.684C96.6839 145.802 96.6224 145.9 96.5449 145.978C96.4674 146.055 96.374 146.112 96.2646 146.148C96.1598 146.185 96.0482 146.203 95.9297 146.203C95.8066 146.203 95.6927 146.185 95.5879 146.148C95.4831 146.112 95.3919 146.055 95.3145 145.978C95.237 145.9 95.1755 145.802 95.1299 145.684C95.0843 145.565 95.0615 145.422 95.0615 145.253ZM30.6396 202.97C29.5641 202.97 28.7188 203.33 28.1035 204.05C27.4883 204.77 27.1807 205.754 27.1807 207.003C27.1807 208.293 27.4792 209.288 28.0762 209.99C28.6732 210.688 29.5231 211.036 30.626 211.036C31.3369 211.036 32.1367 210.904 33.0254 210.64V211.733C32.6016 211.888 32.1937 211.993 31.8018 212.048C31.4098 212.107 30.9587 212.137 30.4482 212.137C28.9762 212.137 27.8415 211.69 27.0439 210.797C26.251 209.899 25.8545 208.63 25.8545 206.989C25.8545 205.959 26.0436 205.057 26.4219 204.282C26.8047 203.507 27.3584 202.91 28.083 202.491C28.8122 202.072 29.6689 201.862 30.6533 201.862C31.7106 201.862 32.6312 202.058 33.415 202.45L32.9092 203.517C32.1117 203.152 31.3551 202.97 30.6396 202.97ZM39.6699 212L39.4307 210.934H39.376C39.0023 211.403 38.6286 211.722 38.2549 211.891C37.8857 212.055 37.4186 212.137 36.8535 212.137C36.1152 212.137 35.5365 211.943 35.1172 211.556C34.6979 211.168 34.4883 210.621 34.4883 209.915C34.4883 208.393 35.6891 207.595 38.0908 207.522L39.3623 207.475V207.03C39.3623 206.461 39.2393 206.041 38.9932 205.772C38.7471 205.499 38.3529 205.362 37.8105 205.362C37.4141 205.362 37.0381 205.422 36.6826 205.54C36.3317 205.659 36.0013 205.791 35.6914 205.937L35.3154 205.014C35.6937 204.813 36.1061 204.656 36.5527 204.542C36.9993 204.428 37.4414 204.371 37.8789 204.371C38.7858 204.371 39.4603 204.572 39.9023 204.973C40.3444 205.374 40.5654 206.012 40.5654 206.887V212H39.6699ZM37.1338 211.146C37.8219 211.146 38.362 210.961 38.7539 210.592C39.1504 210.218 39.3486 209.689 39.3486 209.006V208.329L38.2412 208.377C37.3799 208.409 36.751 208.546 36.3545 208.787C35.9626 209.029 35.7666 209.409 35.7666 209.929C35.7666 210.321 35.8851 210.621 36.1221 210.831C36.3636 211.041 36.7008 211.146 37.1338 211.146ZM47.7842 209.929C47.7842 210.631 47.5221 211.175 46.998 211.562C46.474 211.945 45.738 212.137 44.79 212.137C43.8011 212.137 43.015 211.979 42.4316 211.665V210.544C43.2565 210.945 44.0518 211.146 44.8174 211.146C45.4372 211.146 45.8883 211.045 46.1709 210.845C46.4535 210.644 46.5947 210.375 46.5947 210.038C46.5947 209.742 46.458 209.491 46.1846 209.286C45.9157 209.081 45.4349 208.846 44.7422 208.582C44.0358 208.309 43.5391 208.076 43.252 207.885C42.9648 207.689 42.7529 207.47 42.6162 207.229C42.484 206.987 42.418 206.693 42.418 206.347C42.418 205.731 42.6686 205.246 43.1699 204.891C43.6712 204.535 44.3594 204.357 45.2344 204.357C46.0866 204.357 46.8841 204.526 47.627 204.863L47.21 205.841C46.4489 205.522 45.763 205.362 45.1523 205.362C44.6419 205.362 44.2546 205.444 43.9902 205.608C43.7259 205.768 43.5938 205.989 43.5938 206.271C43.5938 206.545 43.7077 206.773 43.9355 206.955C44.1634 207.133 44.6943 207.381 45.5283 207.7C46.1527 207.933 46.613 208.149 46.9092 208.35C47.21 208.55 47.431 208.776 47.5723 209.026C47.7135 209.277 47.7842 209.578 47.7842 209.929ZM52.8018 212.137C51.6761 212.137 50.792 211.797 50.1494 211.118C49.5114 210.435 49.1924 209.496 49.1924 208.302C49.1924 207.099 49.4909 206.142 50.0879 205.431C50.6849 204.715 51.4915 204.357 52.5078 204.357C53.4512 204.357 54.2031 204.663 54.7637 205.273C55.3242 205.88 55.6045 206.702 55.6045 207.741V208.486H50.4639C50.4867 209.339 50.7031 209.986 51.1133 210.428C51.5234 210.87 52.1045 211.091 52.8564 211.091C53.2575 211.091 53.638 211.057 53.998 210.988C54.3581 210.915 54.7796 210.776 55.2627 210.571V211.651C54.848 211.829 54.4583 211.954 54.0938 212.027C53.7292 212.1 53.2985 212.137 52.8018 212.137ZM52.4941 205.362C51.9062 205.362 51.4414 205.551 51.0996 205.93C50.7578 206.308 50.555 206.834 50.4912 207.509H54.3125C54.3034 206.807 54.1416 206.274 53.8271 205.909C53.5127 205.545 53.0684 205.362 52.4941 205.362ZM63.6572 211.132C63.8167 211.132 64.0036 211.116 64.2178 211.084C64.432 211.052 64.5938 211.016 64.7031 210.975V211.918C64.5892 211.968 64.4115 212.016 64.1699 212.062C63.9329 212.112 63.6914 212.137 63.4453 212.137C61.9779 212.137 61.2441 211.364 61.2441 209.819V205.451H60.1846V204.863L61.2578 204.371L61.75 202.771H62.4814V204.494H64.6484V205.451H62.4814V209.785C62.4814 210.218 62.584 210.551 62.7891 210.783C62.9987 211.016 63.2881 211.132 63.6572 211.132ZM67.4375 212H66.207V204.494H67.4375V212ZM66.1113 202.464C66.1113 202.19 66.1797 201.992 66.3164 201.869C66.4577 201.746 66.6309 201.685 66.8359 201.685C67.0273 201.685 67.1937 201.746 67.335 201.869C67.4808 201.992 67.5537 202.19 67.5537 202.464C67.5537 202.733 67.4808 202.931 67.335 203.059C67.1937 203.186 67.0273 203.25 66.8359 203.25C66.6309 203.25 66.4577 203.186 66.3164 203.059C66.1797 202.931 66.1113 202.733 66.1113 202.464ZM72.3252 211.132C72.4847 211.132 72.6715 211.116 72.8857 211.084C73.0999 211.052 73.2617 211.016 73.3711 210.975V211.918C73.2572 211.968 73.0794 212.016 72.8379 212.062C72.6009 212.112 72.3594 212.137 72.1133 212.137C70.6458 212.137 69.9121 211.364 69.9121 209.819V205.451H68.8525V204.863L69.9258 204.371L70.418 202.771H71.1494V204.494H73.3164V205.451H71.1494V209.785C71.1494 210.218 71.252 210.551 71.457 210.783C71.6667 211.016 71.9561 211.132 72.3252 211.132ZM76.1055 212H74.875V201.363H76.1055V212ZM81.6768 212.137C80.5511 212.137 79.667 211.797 79.0244 211.118C78.3864 210.435 78.0674 209.496 78.0674 208.302C78.0674 207.099 78.3659 206.142 78.9629 205.431C79.5599 204.715 80.3665 204.357 81.3828 204.357C82.3262 204.357 83.0781 204.663 83.6387 205.273C84.1992 205.88 84.4795 206.702 84.4795 207.741V208.486H79.3389C79.3617 209.339 79.5781 209.986 79.9883 210.428C80.3984 210.87 80.9795 211.091 81.7314 211.091C82.1325 211.091 82.513 211.057 82.873 210.988C83.2331 210.915 83.6546 210.776 84.1377 210.571V211.651C83.723 211.829 83.3333 211.954 82.9688 212.027C82.6042 212.1 82.1735 212.137 81.6768 212.137ZM81.3691 205.362C80.7812 205.362 80.3164 205.551 79.9746 205.93C79.6328 206.308 79.43 206.834 79.3662 207.509H83.1875C83.1784 206.807 83.0166 206.274 82.7021 205.909C82.3877 205.545 81.9434 205.362 81.3691 205.362Z" fill="#595959"/>
<path d="M311.189 140.558V143.414H314.549V144.716H311.189V147.698H314.969V149H309.593V139.256H314.969V140.558H311.189ZM316.629 143.05C316.951 142.462 317.385 142 317.945 141.664C318.505 141.328 319.121 141.16 319.793 141.16C320.395 141.16 320.927 141.286 321.375 141.524C321.823 141.762 322.187 142.056 322.467 142.406V141.286H324.077V149H322.467V147.852C322.187 148.216 321.823 148.524 321.361 148.762C320.885 149.014 320.353 149.126 319.765 149.126C319.093 149.126 318.491 148.958 317.945 148.622C317.385 148.286 316.951 147.81 316.629 147.194C316.307 146.578 316.153 145.892 316.153 145.108C316.153 144.338 316.307 143.652 316.629 143.05ZM322.131 143.75C321.907 143.358 321.627 143.064 321.277 142.854C320.913 142.658 320.535 142.546 320.129 142.546C319.709 142.546 319.331 142.658 318.981 142.854C318.617 143.05 318.337 143.344 318.113 143.736C317.889 144.128 317.791 144.576 317.791 145.108C317.791 145.64 317.889 146.116 318.113 146.508C318.337 146.914 318.617 147.222 318.981 147.432C319.345 147.642 319.723 147.74 320.129 147.74C320.535 147.74 320.913 147.642 321.277 147.432C321.627 147.236 321.907 146.928 322.131 146.536C322.355 146.144 322.467 145.668 322.467 145.136C322.467 144.604 322.355 144.142 322.131 143.75ZM328.443 141.496C328.835 141.272 329.297 141.16 329.829 141.16V142.812H329.423C328.793 142.812 328.317 142.98 327.995 143.288C327.673 143.61 327.519 144.156 327.519 144.94V149H325.923V141.286H327.519V142.406C327.743 142.014 328.051 141.72 328.443 141.496ZM332.642 138.64V149H331.046V138.64H332.642ZM341.432 141.286L336.7 152.626H335.048L336.616 148.874L333.578 141.286H335.356L337.526 147.166L339.78 141.286H341.432ZM356.133 141.286L353.739 149H352.059L350.505 143.302L348.951 149H347.271L344.863 141.286H346.487L348.097 147.488L349.735 141.286H351.401L352.969 147.46L354.565 141.286H356.133ZM357.019 143.05C357.341 142.462 357.775 142 358.335 141.664C358.895 141.328 359.511 141.16 360.183 141.16C360.785 141.16 361.317 141.286 361.765 141.524C362.213 141.762 362.577 142.056 362.857 142.406V141.286H364.467V149H362.857V147.852C362.577 148.216 362.213 148.524 361.751 148.762C361.275 149.014 360.743 149.126 360.155 149.126C359.483 149.126 358.881 148.958 358.335 148.622C357.775 148.286 357.341 147.81 357.019 147.194C356.697 146.578 356.543 145.892 356.543 145.108C356.543 144.338 356.697 143.652 357.019 143.05ZM362.521 143.75C362.297 143.358 362.017 143.064 361.667 142.854C361.303 142.658 360.925 142.546 360.519 142.546C360.099 142.546 359.721 142.658 359.371 142.854C359.007 143.05 358.727 143.344 358.503 143.736C358.279 144.128 358.181 144.576 358.181 145.108C358.181 145.64 358.279 146.116 358.503 146.508C358.727 146.914 359.007 147.222 359.371 147.432C359.735 147.642 360.113 147.74 360.519 147.74C360.925 147.74 361.303 147.642 361.667 147.432C362.017 147.236 362.297 146.928 362.521 146.536C362.745 146.144 362.857 145.668 362.857 145.136C362.857 144.604 362.745 144.142 362.521 143.75ZM368.834 141.496C369.226 141.272 369.688 141.16 370.22 141.16V142.812H369.814C369.184 142.812 368.708 142.98 368.386 143.288C368.064 143.61 367.91 144.156 367.91 144.94V149H366.314V141.286H367.91V142.406C368.134 142.014 368.442 141.72 368.834 141.496ZM376.953 141.538C377.429 141.79 377.807 142.168 378.087 142.658C378.353 143.162 378.493 143.75 378.493 144.45V149H376.911V144.688C376.911 144.002 376.729 143.47 376.393 143.106C376.043 142.742 375.567 142.546 374.979 142.546C374.377 142.546 373.901 142.742 373.551 143.106C373.201 143.47 373.033 144.002 373.033 144.688V149H371.437V141.286H373.033V142.168C373.285 141.86 373.621 141.608 374.027 141.426C374.433 141.258 374.867 141.16 375.329 141.16C375.931 141.16 376.477 141.286 376.953 141.538ZM380.363 139.97C380.167 139.774 380.069 139.536 380.069 139.242C380.069 138.962 380.167 138.71 380.363 138.514C380.559 138.318 380.797 138.22 381.091 138.22C381.371 138.22 381.609 138.318 381.805 138.514C382.001 138.71 382.099 138.962 382.099 139.242C382.099 139.536 382.001 139.774 381.805 139.97C381.609 140.166 381.371 140.264 381.091 140.264C380.797 140.264 380.559 140.166 380.363 139.97ZM381.875 141.286V149H380.279V141.286H381.875ZM389.236 141.538C389.712 141.79 390.09 142.168 390.37 142.658C390.636 143.162 390.776 143.75 390.776 144.45V149H389.194V144.688C389.194 144.002 389.012 143.47 388.676 143.106C388.326 142.742 387.85 142.546 387.262 142.546C386.66 142.546 386.184 142.742 385.834 143.106C385.484 143.47 385.316 144.002 385.316 144.688V149H383.72V141.286H385.316V142.168C385.568 141.86 385.904 141.608 386.31 141.426C386.716 141.258 387.15 141.16 387.612 141.16C388.214 141.16 388.76 141.286 389.236 141.538ZM397.252 141.524C397.714 141.762 398.078 142.056 398.344 142.406V141.286H399.954V149.126C399.954 149.84 399.8 150.47 399.506 151.03C399.198 151.59 398.764 152.024 398.204 152.332C397.644 152.654 396.972 152.808 396.188 152.808C395.138 152.808 394.27 152.57 393.584 152.08C392.884 151.59 392.492 150.918 392.408 150.078H393.99C394.102 150.484 394.368 150.806 394.76 151.058C395.152 151.31 395.628 151.422 396.188 151.422C396.832 151.422 397.35 151.226 397.742 150.834C398.134 150.442 398.344 149.882 398.344 149.126V147.838C398.064 148.202 397.7 148.51 397.238 148.762C396.776 149.014 396.258 149.126 395.67 149.126C394.998 149.126 394.382 148.958 393.822 148.622C393.262 148.286 392.828 147.81 392.506 147.194C392.184 146.578 392.03 145.892 392.03 145.108C392.03 144.338 392.184 143.652 392.506 143.05C392.828 142.462 393.262 142 393.822 141.664C394.382 141.328 394.998 141.16 395.67 141.16C396.258 141.16 396.79 141.286 397.252 141.524ZM398.008 143.75C397.784 143.358 397.504 143.064 397.154 142.854C396.79 142.658 396.412 142.546 396.006 142.546C395.586 142.546 395.208 142.658 394.858 142.854C394.494 143.05 394.214 143.344 393.99 143.736C393.766 144.128 393.668 144.576 393.668 145.108C393.668 145.64 393.766 146.116 393.99 146.508C394.214 146.914 394.494 147.222 394.858 147.432C395.222 147.642 395.6 147.74 396.006 147.74C396.412 147.74 396.79 147.642 397.154 147.432C397.504 147.236 397.784 146.928 398.008 146.536C398.232 146.144 398.344 145.668 398.344 145.136C398.344 144.604 398.232 144.142 398.008 143.75Z" fill="#121212"/>
<path d="M281.365 87.83C282.261 87.06 282.961 86.43 283.479 85.926C283.997 85.422 284.431 84.904 284.781 84.358C285.117 83.826 285.299 83.28 285.299 82.734C285.299 82.174 285.159 81.74 284.893 81.418C284.627 81.11 284.207 80.942 283.647 80.942C283.087 80.942 282.667 81.124 282.359 81.474C282.051 81.824 281.897 82.286 281.883 82.874H280.343C280.371 81.81 280.679 80.998 281.295 80.438C281.911 79.878 282.681 79.584 283.633 79.584C284.641 79.584 285.439 79.864 286.013 80.424C286.587 80.984 286.881 81.74 286.881 82.664C286.881 83.336 286.699 83.994 286.363 84.61C286.027 85.226 285.621 85.786 285.145 86.276C284.669 86.766 284.081 87.326 283.353 87.97L282.723 88.53H287.161V89.86H280.357V88.698L281.365 87.83ZM293.241 81.194C292.961 80.984 292.583 80.872 292.107 80.872C291.365 80.872 290.819 81.166 290.455 81.726C290.091 82.286 289.895 83.224 289.881 84.526C290.119 84.12 290.469 83.798 290.945 83.574C291.407 83.35 291.911 83.238 292.457 83.238C293.073 83.238 293.605 83.378 294.081 83.644C294.557 83.91 294.921 84.288 295.187 84.792C295.453 85.296 295.593 85.898 295.593 86.598C295.593 87.256 295.453 87.844 295.201 88.348C294.949 88.866 294.571 89.272 294.067 89.566C293.563 89.86 292.947 90 292.247 90C291.281 90 290.525 89.79 289.979 89.37C289.433 88.95 289.055 88.348 288.831 87.564C288.607 86.794 288.509 85.828 288.509 84.666C288.509 81.25 289.713 79.542 292.121 79.542C293.045 79.542 293.787 79.794 294.319 80.298C294.851 80.802 295.173 81.432 295.271 82.16H293.801C293.689 81.74 293.507 81.418 293.241 81.194ZM290.651 85.1C290.259 85.436 290.063 85.926 290.063 86.57C290.063 87.214 290.245 87.732 290.609 88.11C290.973 88.488 291.491 88.67 292.163 88.67C292.751 88.67 293.213 88.488 293.549 88.124C293.885 87.76 294.067 87.284 294.067 86.668C294.067 86.038 293.899 85.534 293.563 85.156C293.227 84.778 292.751 84.582 292.107 84.582C291.533 84.582 291.043 84.764 290.651 85.1ZM302.435 76.784L298.627 92.45H297.059L300.853 76.784H302.435ZM304.798 80.984C305.344 80.074 306.282 79.612 307.626 79.612C308.956 79.612 309.894 80.074 310.44 80.984C310.986 81.894 311.266 83.154 311.266 84.764C311.266 86.402 310.986 87.676 310.44 88.6C309.894 89.524 308.956 89.972 307.626 89.972C306.282 89.972 305.344 89.524 304.798 88.6C304.252 87.676 303.986 86.402 303.986 84.764C303.986 83.154 304.252 81.894 304.798 80.984ZM309.544 82.846C309.446 82.328 309.25 81.908 308.956 81.572C308.648 81.236 308.214 81.068 307.626 81.068C307.038 81.068 306.59 81.236 306.296 81.572C305.988 81.908 305.792 82.328 305.694 82.846C305.596 83.378 305.554 84.008 305.554 84.764C305.554 85.548 305.596 86.206 305.694 86.738C305.778 87.27 305.974 87.704 306.282 88.026C306.59 88.362 307.038 88.516 307.626 88.516C308.214 88.516 308.648 88.362 308.956 88.026C309.264 87.704 309.46 87.27 309.558 86.738C309.642 86.206 309.698 85.548 309.698 84.764C309.698 84.008 309.642 83.378 309.544 82.846ZM317.633 81.194C317.353 80.984 316.975 80.872 316.499 80.872C315.757 80.872 315.211 81.166 314.847 81.726C314.483 82.286 314.287 83.224 314.273 84.526C314.511 84.12 314.861 83.798 315.337 83.574C315.799 83.35 316.303 83.238 316.849 83.238C317.465 83.238 317.997 83.378 318.473 83.644C318.949 83.91 319.313 84.288 319.579 84.792C319.845 85.296 319.985 85.898 319.985 86.598C319.985 87.256 319.845 87.844 319.593 88.348C319.341 88.866 318.963 89.272 318.459 89.566C317.955 89.86 317.339 90 316.639 90C315.673 90 314.917 89.79 314.371 89.37C313.825 88.95 313.447 88.348 313.223 87.564C312.999 86.794 312.901 85.828 312.901 84.666C312.901 81.25 314.105 79.542 316.513 79.542C317.437 79.542 318.179 79.794 318.711 80.298C319.243 80.802 319.565 81.432 319.663 82.16H318.193C318.081 81.74 317.899 81.418 317.633 81.194ZM315.043 85.1C314.651 85.436 314.455 85.926 314.455 86.57C314.455 87.214 314.637 87.732 315.001 88.11C315.365 88.488 315.883 88.67 316.555 88.67C317.143 88.67 317.605 88.488 317.941 88.124C318.277 87.76 318.459 87.284 318.459 86.668C318.459 86.038 318.291 85.534 317.955 85.156C317.619 84.778 317.143 84.582 316.499 84.582C315.925 84.582 315.435 84.764 315.043 85.1ZM326.828 76.784L323.02 92.45H321.452L325.246 76.784H326.828ZM329.261 87.83C330.157 87.06 330.857 86.43 331.375 85.926C331.893 85.422 332.327 84.904 332.677 84.358C333.013 83.826 333.195 83.28 333.195 82.734C333.195 82.174 333.055 81.74 332.789 81.418C332.523 81.11 332.103 80.942 331.543 80.942C330.983 80.942 330.563 81.124 330.255 81.474C329.947 81.824 329.793 82.286 329.779 82.874H328.239C328.267 81.81 328.575 80.998 329.191 80.438C329.807 79.878 330.577 79.584 331.529 79.584C332.537 79.584 333.335 79.864 333.909 80.424C334.483 80.984 334.777 81.74 334.777 82.664C334.777 83.336 334.595 83.994 334.259 84.61C333.923 85.226 333.517 85.786 333.041 86.276C332.565 86.766 331.977 87.326 331.249 87.97L330.619 88.53H335.057V89.86H328.253V88.698L329.261 87.83ZM337.021 80.984C337.567 80.074 338.505 79.612 339.849 79.612C341.179 79.612 342.117 80.074 342.663 80.984C343.209 81.894 343.489 83.154 343.489 84.764C343.489 86.402 343.209 87.676 342.663 88.6C342.117 89.524 341.179 89.972 339.849 89.972C338.505 89.972 337.567 89.524 337.021 88.6C336.475 87.676 336.209 86.402 336.209 84.764C336.209 83.154 336.475 81.894 337.021 80.984ZM341.767 82.846C341.669 82.328 341.473 81.908 341.179 81.572C340.871 81.236 340.437 81.068 339.849 81.068C339.261 81.068 338.813 81.236 338.519 81.572C338.211 81.908 338.015 82.328 337.917 82.846C337.819 83.378 337.777 84.008 337.777 84.764C337.777 85.548 337.819 86.206 337.917 86.738C338.001 87.27 338.197 87.704 338.505 88.026C338.813 88.362 339.261 88.516 339.849 88.516C340.437 88.516 340.871 88.362 341.179 88.026C341.487 87.704 341.683 87.27 341.781 86.738C341.865 86.206 341.921 85.548 341.921 84.764C341.921 84.008 341.865 83.378 341.767 82.846ZM345.81 87.83C346.706 87.06 347.406 86.43 347.924 85.926C348.442 85.422 348.876 84.904 349.226 84.358C349.562 83.826 349.744 83.28 349.744 82.734C349.744 82.174 349.604 81.74 349.338 81.418C349.072 81.11 348.652 80.942 348.092 80.942C347.532 80.942 347.112 81.124 346.804 81.474C346.496 81.824 346.342 82.286 346.328 82.874H344.788C344.816 81.81 345.124 80.998 345.74 80.438C346.356 79.878 347.126 79.584 348.078 79.584C349.086 79.584 349.884 79.864 350.458 80.424C351.032 80.984 351.326 81.74 351.326 82.664C351.326 83.336 351.144 83.994 350.808 84.61C350.472 85.226 350.066 85.786 349.59 86.276C349.114 86.766 348.526 87.326 347.798 87.97L347.168 88.53H351.606V89.86H344.802V88.698L345.81 87.83ZM353.724 80.284C354.34 79.808 355.124 79.556 356.076 79.556C356.72 79.556 357.294 79.682 357.77 79.906C358.246 80.144 358.596 80.466 358.848 80.858C359.086 81.264 359.212 81.712 359.212 82.216C359.212 82.804 359.058 83.294 358.75 83.7C358.442 84.12 358.064 84.386 357.644 84.526V84.582C358.19 84.75 358.624 85.058 358.932 85.506C359.24 85.954 359.394 86.514 359.394 87.2C359.394 87.76 359.268 88.25 359.016 88.67C358.764 89.104 358.386 89.44 357.896 89.692C357.392 89.944 356.804 90.056 356.118 90.056C355.11 90.056 354.27 89.804 353.626 89.286C352.982 88.768 352.632 88.026 352.59 87.046H354.13C354.158 87.55 354.354 87.956 354.704 88.264C355.04 88.572 355.516 88.726 356.104 88.726C356.664 88.726 357.112 88.572 357.42 88.264C357.728 87.956 357.882 87.55 357.882 87.046C357.882 86.402 357.672 85.94 357.252 85.66C356.832 85.38 356.202 85.24 355.348 85.24H354.984V83.924H355.362C356.118 83.924 356.692 83.798 357.084 83.546C357.476 83.308 357.686 82.93 357.686 82.398C357.686 81.95 357.532 81.6 357.252 81.334C356.958 81.068 356.552 80.928 356.02 80.928C355.488 80.928 355.082 81.068 354.802 81.334C354.508 81.6 354.34 81.922 354.284 82.314H352.73C352.786 81.446 353.108 80.774 353.724 80.284ZM367.384 81.25V79.794H370.296V90H368.686V81.25H367.384ZM373.05 80.984C373.596 80.074 374.534 79.612 375.878 79.612C377.208 79.612 378.146 80.074 378.692 80.984C379.238 81.894 379.518 83.154 379.518 84.764C379.518 86.402 379.238 87.676 378.692 88.6C378.146 89.524 377.208 89.972 375.878 89.972C374.534 89.972 373.596 89.524 373.05 88.6C372.504 87.676 372.238 86.402 372.238 84.764C372.238 83.154 372.504 81.894 373.05 80.984ZM377.796 82.846C377.698 82.328 377.502 81.908 377.208 81.572C376.9 81.236 376.466 81.068 375.878 81.068C375.29 81.068 374.842 81.236 374.548 81.572C374.24 81.908 374.044 82.328 373.946 82.846C373.848 83.378 373.806 84.008 373.806 84.764C373.806 85.548 373.848 86.206 373.946 86.738C374.03 87.27 374.226 87.704 374.534 88.026C374.842 88.362 375.29 88.516 375.878 88.516C376.466 88.516 376.9 88.362 377.208 88.026C377.516 87.704 377.712 87.27 377.81 86.738C377.894 86.206 377.95 85.548 377.95 84.764C377.95 84.008 377.894 83.378 377.796 82.846ZM381.083 89.804C380.887 89.608 380.789 89.37 380.789 89.076C380.789 88.796 380.887 88.544 381.083 88.348C381.279 88.152 381.517 88.054 381.811 88.054C382.091 88.054 382.329 88.152 382.525 88.348C382.721 88.544 382.819 88.796 382.819 89.076C382.819 89.37 382.721 89.608 382.525 89.804C382.329 90 382.091 90.098 381.811 90.098C381.517 90.098 381.279 90 381.083 89.804ZM381.083 83.924C380.887 83.728 380.789 83.49 380.789 83.196C380.789 82.916 380.887 82.664 381.083 82.468C381.279 82.272 381.517 82.174 381.811 82.174C382.091 82.174 382.329 82.272 382.525 82.468C382.721 82.664 382.819 82.916 382.819 83.196C382.819 83.49 382.721 83.728 382.525 83.924C382.329 84.12 382.091 84.218 381.811 84.218C381.517 84.218 381.279 84.12 381.083 83.924ZM383.943 87.872V86.668L388.647 79.92H390.579V86.486H391.881V87.872H390.579V90H389.011V87.872H383.943ZM389.081 81.544L385.777 86.486H389.081V81.544ZM395.543 88.292C395.851 88.544 396.257 88.656 396.789 88.656C397.447 88.656 397.937 88.404 398.245 87.872C398.553 87.354 398.707 86.458 398.707 85.198C398.483 85.52 398.161 85.772 397.755 85.94C397.349 86.108 396.915 86.192 396.439 86.192C395.823 86.192 395.277 86.08 394.787 85.828C394.283 85.576 393.891 85.212 393.611 84.722C393.331 84.232 393.191 83.63 393.191 82.93C393.191 81.908 393.485 81.096 394.087 80.48C394.689 79.864 395.515 79.556 396.579 79.556C397.839 79.556 398.749 79.99 399.281 80.83C399.813 81.67 400.093 82.972 400.093 84.708C400.093 85.912 399.981 86.906 399.785 87.662C399.589 88.432 399.239 89.006 398.749 89.398C398.245 89.79 397.559 89.986 396.691 89.986C395.683 89.986 394.913 89.734 394.381 89.202C393.835 88.684 393.527 88.026 393.471 87.228H394.941C395.025 87.704 395.235 88.054 395.543 88.292ZM398.035 84.33C398.357 83.98 398.525 83.518 398.525 82.93C398.525 82.286 398.343 81.796 398.007 81.432C397.671 81.068 397.209 80.886 396.621 80.886C396.033 80.886 395.557 81.082 395.221 81.446C394.885 81.81 394.717 82.3 394.717 82.888C394.717 83.462 394.871 83.938 395.207 84.302C395.543 84.666 396.047 84.848 396.719 84.848C397.279 84.848 397.713 84.68 398.035 84.33Z" fill="#121212"/>
<path d="M287.64 29.9697C286.564 29.9697 285.719 30.3298 285.104 31.0498C284.488 31.7699 284.181 32.7542 284.181 34.0029C284.181 35.2926 284.479 36.2884 285.076 36.9902C285.673 37.6875 286.523 38.0361 287.626 38.0361C288.337 38.0361 289.137 37.904 290.025 37.6396V38.7334C289.602 38.8883 289.194 38.9932 288.802 39.0479C288.41 39.1071 287.959 39.1367 287.448 39.1367C285.976 39.1367 284.841 38.6901 284.044 37.7969C283.251 36.8991 282.854 35.6299 282.854 33.9893C282.854 32.9593 283.044 32.057 283.422 31.2822C283.805 30.5075 284.358 29.9105 285.083 29.4912C285.812 29.0719 286.669 28.8623 287.653 28.8623C288.711 28.8623 289.631 29.0583 290.415 29.4502L289.909 30.5166C289.112 30.152 288.355 29.9697 287.64 29.9697ZM296.77 39L296.531 37.9336H296.476C296.102 38.403 295.729 38.722 295.355 38.8906C294.986 39.0547 294.519 39.1367 293.954 39.1367C293.215 39.1367 292.636 38.943 292.217 38.5557C291.798 38.1683 291.588 37.6214 291.588 36.915C291.588 35.3929 292.789 34.5954 295.191 34.5225L296.462 34.4746V34.0303C296.462 33.4606 296.339 33.0413 296.093 32.7725C295.847 32.499 295.453 32.3623 294.911 32.3623C294.514 32.3623 294.138 32.4215 293.783 32.54C293.432 32.6585 293.101 32.7907 292.791 32.9365L292.415 32.0137C292.794 31.8132 293.206 31.6559 293.653 31.542C294.099 31.4281 294.541 31.3711 294.979 31.3711C295.886 31.3711 296.56 31.5716 297.002 31.9727C297.444 32.3737 297.665 33.0117 297.665 33.8867V39H296.77ZM294.234 38.1455C294.922 38.1455 295.462 37.9609 295.854 37.5918C296.25 37.2181 296.449 36.6895 296.449 36.0059V35.3291L295.341 35.377C294.48 35.4089 293.851 35.5456 293.454 35.7871C293.063 36.0286 292.867 36.4092 292.867 36.9287C292.867 37.3206 292.985 37.6214 293.222 37.8311C293.464 38.0407 293.801 38.1455 294.234 38.1455ZM304.984 36.9287C304.984 37.6305 304.722 38.1751 304.198 38.5625C303.674 38.9453 302.938 39.1367 301.99 39.1367C301.001 39.1367 300.215 38.9795 299.632 38.665V37.5439C300.457 37.945 301.252 38.1455 302.017 38.1455C302.637 38.1455 303.088 38.0452 303.371 37.8447C303.653 37.6442 303.795 37.3753 303.795 37.0381C303.795 36.7419 303.658 36.4912 303.385 36.2861C303.116 36.0811 302.635 35.8464 301.942 35.582C301.236 35.3086 300.739 35.0762 300.452 34.8848C300.165 34.6888 299.953 34.4701 299.816 34.2285C299.684 33.987 299.618 33.693 299.618 33.3467C299.618 32.7314 299.869 32.2461 300.37 31.8906C300.871 31.5352 301.559 31.3574 302.434 31.3574C303.287 31.3574 304.084 31.526 304.827 31.8633L304.41 32.8408C303.649 32.5218 302.963 32.3623 302.352 32.3623C301.842 32.3623 301.455 32.4443 301.19 32.6084C300.926 32.7679 300.794 32.9889 300.794 33.2715C300.794 33.5449 300.908 33.7728 301.136 33.9551C301.363 34.1328 301.894 34.3812 302.728 34.7002C303.353 34.9326 303.813 35.1491 304.109 35.3496C304.41 35.5501 304.631 35.7757 304.772 36.0264C304.914 36.277 304.984 36.5778 304.984 36.9287ZM310.102 39.1367C308.976 39.1367 308.092 38.7972 307.449 38.1182C306.811 37.4346 306.492 36.4958 306.492 35.3018C306.492 34.0986 306.791 33.1416 307.388 32.4307C307.985 31.7152 308.792 31.3574 309.808 31.3574C310.751 31.3574 311.503 31.6628 312.064 32.2734C312.624 32.8796 312.904 33.7021 312.904 34.7412V35.4863H307.764C307.787 36.3385 308.003 36.9857 308.413 37.4277C308.823 37.8698 309.404 38.0908 310.156 38.0908C310.557 38.0908 310.938 38.0566 311.298 37.9883C311.658 37.9154 312.08 37.7764 312.563 37.5713V38.6514C312.148 38.8291 311.758 38.9544 311.394 39.0273C311.029 39.1003 310.599 39.1367 310.102 39.1367ZM309.794 32.3623C309.206 32.3623 308.741 32.5514 308.4 32.9297C308.058 33.3079 307.855 33.8343 307.791 34.5088H311.612C311.603 33.807 311.442 33.2738 311.127 32.9092C310.813 32.5446 310.368 32.3623 309.794 32.3623ZM321.629 39H318.02V38.2754L319.195 38.0088V30.0107L318.02 29.7305V29.0059H321.629V29.7305L320.453 30.0107V38.0088L321.629 38.2754V39ZM331.668 33.9072C331.668 35.557 331.217 36.8193 330.315 37.6943C329.417 38.5648 328.127 39 326.446 39H323.663V29.0059H326.74C328.294 29.0059 329.504 29.4342 330.37 30.291C331.235 31.1432 331.668 32.3486 331.668 33.9072ZM330.342 33.9482C330.342 32.6768 330.028 31.7152 329.399 31.0635C328.774 30.4072 327.829 30.0791 326.562 30.0791H324.921V37.9199H326.282C328.989 37.9199 330.342 36.596 330.342 33.9482ZM345.036 38.2412C345.036 38.068 345.059 37.9222 345.104 37.8037C345.15 37.6807 345.212 37.5827 345.289 37.5098C345.367 37.4323 345.458 37.3776 345.562 37.3457C345.667 37.3092 345.781 37.291 345.904 37.291C346.023 37.291 346.134 37.3092 346.239 37.3457C346.349 37.3776 346.442 37.4323 346.52 37.5098C346.597 37.5827 346.659 37.6807 346.704 37.8037C346.75 37.9222 346.772 38.068 346.772 38.2412C346.772 38.4098 346.75 38.5557 346.704 38.6787C346.659 38.7972 346.597 38.8952 346.52 38.9727C346.442 39.0501 346.349 39.1071 346.239 39.1436C346.134 39.18 346.023 39.1982 345.904 39.1982C345.781 39.1982 345.667 39.18 345.562 39.1436C345.458 39.1071 345.367 39.0501 345.289 38.9727C345.212 38.8952 345.15 38.7972 345.104 38.6787C345.059 38.5557 345.036 38.4098 345.036 38.2412ZM345.036 32.2529C345.036 32.0752 345.059 31.9271 345.104 31.8086C345.15 31.6855 345.212 31.5876 345.289 31.5146C345.367 31.4372 345.458 31.3825 345.562 31.3506C345.667 31.3187 345.781 31.3027 345.904 31.3027C346.023 31.3027 346.134 31.3187 346.239 31.3506C346.349 31.3825 346.442 31.4372 346.52 31.5146C346.597 31.5876 346.659 31.6855 346.704 31.8086C346.75 31.9271 346.772 32.0752 346.772 32.2529C346.772 32.4215 346.75 32.5651 346.704 32.6836C346.659 32.8021 346.597 32.9001 346.52 32.9775C346.442 33.055 346.349 33.112 346.239 33.1484C346.134 33.1849 346.023 33.2031 345.904 33.2031C345.781 33.2031 345.667 33.1849 345.562 33.1484C345.458 33.112 345.367 33.055 345.289 32.9775C345.212 32.9001 345.15 32.8021 345.104 32.6836C345.059 32.5651 345.036 32.4215 345.036 32.2529Z" fill="#595959"/>
<path d="M362.72 32.508C362.776 31.772 363.06 31.196 363.572 30.78C364.084 30.364 364.748 30.156 365.564 30.156C366.108 30.156 366.576 30.256 366.968 30.456C367.368 30.648 367.668 30.912 367.868 31.248C368.076 31.584 368.18 31.964 368.18 32.388C368.18 32.884 368.036 33.312 367.748 33.672C367.468 34.032 367.1 34.264 366.644 34.368V34.428C367.164 34.556 367.576 34.808 367.88 35.184C368.184 35.56 368.336 36.052 368.336 36.66C368.336 37.116 368.232 37.528 368.024 37.896C367.816 38.256 367.504 38.54 367.088 38.748C366.672 38.956 366.172 39.06 365.588 39.06C364.74 39.06 364.044 38.84 363.5 38.4C362.956 37.952 362.652 37.32 362.588 36.504H363.644C363.7 36.984 363.896 37.376 364.232 37.68C364.568 37.984 365.016 38.136 365.576 38.136C366.136 38.136 366.56 37.992 366.848 37.704C367.144 37.408 367.292 37.028 367.292 36.564C367.292 35.964 367.092 35.532 366.692 35.268C366.292 35.004 365.688 34.872 364.88 34.872H364.604V33.96H364.892C365.628 33.952 366.184 33.832 366.56 33.6C366.936 33.36 367.124 32.992 367.124 32.496C367.124 32.072 366.984 31.732 366.704 31.476C366.432 31.22 366.04 31.092 365.528 31.092C365.032 31.092 364.632 31.22 364.328 31.476C364.024 31.732 363.844 32.076 363.788 32.508H362.72ZM369.546 37.068V36.24L373.758 30.408H375.066V36.12H376.266V37.068H375.066V39H373.986V37.068H369.546ZM374.034 31.548L370.806 36.12H374.034V31.548ZM378.941 34.488C378.493 34.312 378.149 34.056 377.909 33.72C377.669 33.384 377.549 32.976 377.549 32.496C377.549 32.064 377.657 31.676 377.873 31.332C378.089 30.98 378.409 30.704 378.833 30.504C379.265 30.296 379.785 30.192 380.393 30.192C381.001 30.192 381.517 30.296 381.941 30.504C382.373 30.704 382.697 30.98 382.913 31.332C383.137 31.676 383.249 32.064 383.249 32.496C383.249 32.96 383.125 33.368 382.877 33.72C382.629 34.064 382.289 34.32 381.857 34.488C382.353 34.64 382.745 34.908 383.033 35.292C383.329 35.668 383.477 36.124 383.477 36.66C383.477 37.18 383.349 37.636 383.093 38.028C382.837 38.412 382.473 38.712 382.001 38.928C381.537 39.136 381.001 39.24 380.393 39.24C379.785 39.24 379.249 39.136 378.785 38.928C378.329 38.712 377.973 38.412 377.717 38.028C377.461 37.636 377.333 37.18 377.333 36.66C377.333 36.124 377.477 35.664 377.765 35.28C378.053 34.896 378.445 34.632 378.941 34.488ZM382.193 32.628C382.193 32.14 382.033 31.764 381.713 31.5C381.393 31.236 380.953 31.104 380.393 31.104C379.841 31.104 379.405 31.236 379.085 31.5C378.765 31.764 378.605 32.144 378.605 32.64C378.605 33.088 378.769 33.448 379.097 33.72C379.433 33.992 379.865 34.128 380.393 34.128C380.929 34.128 381.361 33.992 381.689 33.72C382.025 33.44 382.193 33.076 382.193 32.628ZM380.393 34.968C379.801 34.968 379.317 35.108 378.941 35.388C378.565 35.66 378.377 36.072 378.377 36.624C378.377 37.136 378.557 37.548 378.917 37.86C379.285 38.172 379.777 38.328 380.393 38.328C381.009 38.328 381.497 38.172 381.857 37.86C382.217 37.548 382.397 37.136 382.397 36.624C382.397 36.088 382.213 35.68 381.845 35.4C381.477 35.112 380.993 34.968 380.393 34.968ZM390.46 31.272H386.248V34.008C386.432 33.752 386.704 33.544 387.064 33.384C387.424 33.216 387.812 33.132 388.228 33.132C388.892 33.132 389.432 33.272 389.848 33.552C390.264 33.824 390.56 34.18 390.736 34.62C390.92 35.052 391.012 35.512 391.012 36C391.012 36.576 390.904 37.092 390.688 37.548C390.472 38.004 390.14 38.364 389.692 38.628C389.252 38.892 388.704 39.024 388.048 39.024C387.208 39.024 386.528 38.808 386.008 38.376C385.488 37.944 385.172 37.368 385.06 36.648H386.128C386.232 37.104 386.452 37.46 386.788 37.716C387.124 37.972 387.548 38.1 388.06 38.1C388.692 38.1 389.168 37.912 389.488 37.536C389.808 37.152 389.968 36.648 389.968 36.024C389.968 35.4 389.808 34.92 389.488 34.584C389.168 34.24 388.696 34.068 388.072 34.068C387.648 34.068 387.276 34.172 386.956 34.38C386.644 34.58 386.416 34.856 386.272 35.208H385.24V30.312H390.46V31.272ZM397.299 32.388C397.123 31.5 396.575 31.056 395.655 31.056C394.943 31.056 394.411 31.332 394.059 31.884C393.707 32.428 393.535 33.328 393.543 34.584C393.727 34.168 394.031 33.844 394.455 33.612C394.887 33.372 395.367 33.252 395.895 33.252C396.719 33.252 397.375 33.508 397.863 34.02C398.359 34.532 398.607 35.24 398.607 36.144C398.607 36.688 398.499 37.176 398.283 37.608C398.075 38.04 397.755 38.384 397.323 38.64C396.899 38.896 396.383 39.024 395.775 39.024C394.951 39.024 394.307 38.84 393.843 38.472C393.379 38.104 393.055 37.596 392.871 36.948C392.687 36.3 392.595 35.5 392.595 34.548C392.595 31.612 393.619 30.144 395.667 30.144C396.451 30.144 397.067 30.356 397.515 30.78C397.963 31.204 398.227 31.74 398.307 32.388H397.299ZM395.667 34.176C395.323 34.176 394.999 34.248 394.695 34.392C394.391 34.528 394.143 34.74 393.951 35.028C393.767 35.308 393.675 35.652 393.675 36.06C393.675 36.668 393.851 37.164 394.203 37.548C394.555 37.924 395.059 38.112 395.715 38.112C396.275 38.112 396.719 37.94 397.047 37.596C397.383 37.244 397.551 36.772 397.551 36.18C397.551 35.556 397.391 35.068 397.071 34.716C396.751 34.356 396.283 34.176 395.667 34.176Z" fill="#02A783"/>
<path d="M362 40.8H399.339V41.4H362V40.8Z" fill="#02A783"/>
<rect x="242" y="24" width="25" height="20" rx="4" fill="#FEEAEE"/>
<path d="M257.717 39H256.639V35.0039H252.244V39H251.166V30.4336H252.244V34.0547H256.639V30.4336H257.717V39Z" fill="#C21A2C"/>
<path opacity="0.5" d="M0 4C0 1.79086 1.79086 0 4 0H421C423.209 0 425 1.79086 425 4V261C425 263.209 423.209 265 421 265H3.99999C1.79086 265 0 263.209 0 261V4Z" fill="#EBEFEE"/>
</g>
</svg>
