<svg width="273" height="91" viewBox="0 0 273 91" fill="none" xmlns="http://www.w3.org/2000/svg">
<rect width="273" height="91" fill="#F5F5F5"/>
<rect x="-8213" y="-6238" width="23840" height="13376" fill="#F8FAF9"/>
<g style="mix-blend-mode:luminosity">
<g clip-path="url(#clip0_0_1)">
<path d="M0 0H273V87C273 89.2091 271.209 91 269 91H4C1.79086 91 0 89.2091 0 87V0Z" fill="white"/>
<rect x="193" y="17" width="60" height="60" rx="12" fill="#EBEFEE"/>
<path d="M223 36L214 40V46C214 51.55 217.84 56.74 223 58C228.16 56.74 232 51.55 232 46V40L223 36ZM223 46.99H230C229.47 51.11 226.72 54.78 223 55.93V47H216V41.3L223 38.19V46.99Z" fill="#595959"/>
<path d="M21.152 36.8V32.672H28.864V56H24.256V36.8H21.152ZM34.1978 50.944C36.2458 49.2373 37.8778 47.8187 39.0938 46.688C40.3098 45.536 41.3231 44.3413 42.1338 43.104C42.9444 41.8667 43.3498 40.6507 43.3498 39.456C43.3498 38.368 43.0938 37.5147 42.5818 36.896C42.0698 36.2773 41.2804 35.968 40.2138 35.968C39.1471 35.968 38.3258 36.3307 37.7498 37.056C37.1738 37.76 36.8751 38.7307 36.8538 39.968H32.5018C32.5871 37.408 33.3444 35.4667 34.7738 34.144C36.2244 32.8213 38.0591 32.16 40.2778 32.16C42.7098 32.16 44.5764 32.8107 45.8778 34.112C47.1791 35.392 47.8298 37.088 47.8298 39.2C47.8298 40.864 47.3818 42.4533 46.4858 43.968C45.5898 45.4827 44.5658 46.8053 43.4138 47.936C42.2618 49.0453 40.7578 50.3893 38.9018 51.968H48.3418V55.68H32.5338V52.352L34.1978 50.944ZM63.1768 25.696L54.5368 61.792H50.1528L58.7928 25.696H63.1768ZM65.1833 36.8V32.672H72.8953V56H68.2873V36.8H65.1833ZM76.821 44.032C76.821 40.3413 77.4823 37.4507 78.805 35.36C80.149 33.2693 82.3677 32.224 85.461 32.224C88.5543 32.224 90.7623 33.2693 92.085 35.36C93.429 37.4507 94.101 40.3413 94.101 44.032C94.101 47.744 93.429 50.656 92.085 52.768C90.7623 54.88 88.5543 55.936 85.461 55.936C82.3677 55.936 80.149 54.88 78.805 52.768C77.4823 50.656 76.821 47.744 76.821 44.032ZM89.685 44.032C89.685 42.4533 89.5783 41.1307 89.365 40.064C89.173 38.976 88.7677 38.0907 88.149 37.408C87.5517 36.7253 86.6557 36.384 85.461 36.384C84.2663 36.384 83.3597 36.7253 82.741 37.408C82.1437 38.0907 81.7383 38.976 81.525 40.064C81.333 41.1307 81.237 42.4533 81.237 44.032C81.237 45.6533 81.333 47.0187 81.525 48.128C81.717 49.216 82.1223 50.1013 82.741 50.784C83.3597 51.4453 84.2663 51.776 85.461 51.776C86.6557 51.776 87.5623 51.4453 88.181 50.784C88.7997 50.1013 89.205 49.216 89.397 48.128C89.589 47.0187 89.685 45.6533 89.685 44.032Z" fill="#121212"/>
<path opacity="0.5" d="M0 0H273V88C273 89.6569 271.657 91 270 91H3C1.34315 91 0 89.6569 0 88V0Z" fill="#EBEFEE"/>
</g>
</g>
<defs>
<clipPath id="clip0_0_1">
<path d="M0 0H273V87C273 89.2091 271.209 91 269 91H4C1.79086 91 0 89.2091 0 87V0Z" fill="white"/>
</clipPath>
</defs>
</svg>
