<svg width="425" height="265" viewBox="0 0 425 265" fill="none" xmlns="http://www.w3.org/2000/svg">
<rect width="425" height="265" fill="#F5F5F5"/>
<rect x="-17019" y="-4331" width="23840" height="13376" fill="#F8FAF9"/>
<g style="mix-blend-mode:luminosity">
<g clip-path="url(#clip0_0_1)">
<rect width="425" height="265" rx="4" fill="white"/>
<rect x="63.25" y="52.25" width="341.5" height="0.5" stroke="#EBEFEE" stroke-width="0.5"/>
<rect x="63.25" y="93.25" width="341.5" height="0.5" stroke="#EBEFEE" stroke-width="0.5"/>
<rect x="63.25" y="134.25" width="341.5" height="0.5" stroke="#EBEFEE" stroke-width="0.5"/>
<rect x="63" y="175" width="342" height="1" fill="#CED7D4"/>
<rect x="134" y="135" width="24" height="6" fill="#4CA2A8"/>
<rect x="217" y="73" width="24" height="12" fill="#4CA2A8"/>
<rect x="134" y="152" width="24" height="23" fill="#DD887C"/>
<rect x="134" y="140" width="24" height="12" fill="#E6B056"/>
<rect x="301" y="147" width="24" height="28" fill="#DD887C"/>
<rect x="301" y="133" width="24" height="14" fill="#E6B056"/>
<rect x="301" y="100" width="24" height="33" fill="#4CA2A8"/>
<rect x="217" y="116" width="24" height="59" fill="#DD887C"/>
<rect x="217" y="85" width="24" height="31" fill="#E6B056"/>
<path d="M129.969 194L128.938 191.346H125.539L124.52 194H123.43L126.775 185.398H127.748L131.088 194H129.969ZM128.615 190.391L127.654 187.795L127.244 186.512C127.127 186.98 127.004 187.408 126.875 187.795L125.902 190.391H128.615ZM135.172 194.117C134.309 194.117 133.645 193.807 133.18 193.186H133.109L133.133 193.426C133.164 193.73 133.18 194.002 133.18 194.24V196.883H132.125V187.566H132.992L133.133 188.445H133.18C133.43 188.094 133.719 187.84 134.047 187.684C134.375 187.527 134.754 187.449 135.184 187.449C136.02 187.449 136.668 187.74 137.129 188.322C137.594 188.9 137.826 189.717 137.826 190.771C137.826 191.822 137.594 192.643 137.129 193.232C136.664 193.822 136.012 194.117 135.172 194.117ZM134.996 188.334C134.359 188.334 133.898 188.514 133.613 188.873C133.332 189.232 133.188 189.797 133.18 190.566V190.771C133.18 191.643 133.324 192.273 133.613 192.664C133.902 193.051 134.371 193.244 135.02 193.244C135.559 193.244 135.979 193.025 136.279 192.588C136.584 192.15 136.736 191.541 136.736 190.76C136.736 189.975 136.584 189.375 136.279 188.961C135.979 188.543 135.551 188.334 134.996 188.334ZM142.508 187.449C142.793 187.449 143.045 187.473 143.264 187.52L143.135 188.492C142.896 188.438 142.664 188.41 142.438 188.41C142.098 188.41 141.781 188.504 141.488 188.691C141.199 188.879 140.973 189.139 140.809 189.471C140.645 189.799 140.562 190.164 140.562 190.566V194H139.508V187.566H140.375L140.492 188.744H140.539C140.785 188.318 141.076 187.996 141.412 187.777C141.748 187.559 142.113 187.449 142.508 187.449ZM152.469 194H147.125V193.086L149.176 190.854C149.469 190.537 149.73 190.248 149.961 189.986C150.191 189.725 150.387 189.469 150.547 189.219C150.711 188.969 150.836 188.719 150.922 188.469C151.008 188.215 151.051 187.939 151.051 187.643C151.051 187.412 151.018 187.209 150.951 187.033C150.885 186.857 150.789 186.709 150.664 186.588C150.543 186.463 150.398 186.369 150.23 186.307C150.062 186.244 149.875 186.213 149.668 186.213C149.297 186.213 148.961 186.289 148.66 186.441C148.363 186.59 148.08 186.781 147.811 187.016L147.213 186.318C147.369 186.178 147.537 186.047 147.717 185.926C147.896 185.801 148.09 185.693 148.297 185.604C148.504 185.514 148.723 185.443 148.953 185.393C149.184 185.338 149.426 185.311 149.68 185.311C150.055 185.311 150.393 185.363 150.693 185.469C150.998 185.574 151.256 185.727 151.467 185.926C151.678 186.121 151.84 186.361 151.953 186.646C152.07 186.928 152.129 187.246 152.129 187.602C152.129 187.934 152.076 188.25 151.971 188.551C151.869 188.852 151.727 189.148 151.543 189.441C151.363 189.73 151.146 190.021 150.893 190.314C150.643 190.607 150.371 190.912 150.078 191.229L148.432 192.98V193.027H152.469V194ZM159.219 189.705C159.219 190.396 159.168 191.016 159.066 191.562C158.969 192.109 158.809 192.572 158.586 192.951C158.367 193.33 158.084 193.619 157.736 193.818C157.389 194.018 156.967 194.117 156.471 194.117C156.01 194.117 155.607 194.018 155.264 193.818C154.924 193.619 154.641 193.33 154.414 192.951C154.191 192.572 154.023 192.109 153.91 191.562C153.801 191.016 153.746 190.396 153.746 189.705C153.746 189.014 153.795 188.395 153.893 187.848C153.994 187.301 154.152 186.84 154.367 186.465C154.586 186.086 154.867 185.797 155.211 185.598C155.559 185.398 155.979 185.299 156.471 185.299C156.936 185.299 157.34 185.398 157.684 185.598C158.027 185.793 158.312 186.08 158.539 186.459C158.766 186.834 158.936 187.295 159.049 187.842C159.162 188.389 159.219 189.01 159.219 189.705ZM154.83 189.705C154.83 190.291 154.859 190.803 154.918 191.24C154.977 191.678 155.07 192.043 155.199 192.336C155.328 192.625 155.496 192.844 155.703 192.992C155.914 193.137 156.17 193.209 156.471 193.209C156.771 193.209 157.027 193.137 157.238 192.992C157.449 192.848 157.621 192.631 157.754 192.342C157.891 192.053 157.988 191.689 158.047 191.252C158.109 190.811 158.141 190.295 158.141 189.705C158.141 189.119 158.109 188.607 158.047 188.17C157.988 187.732 157.891 187.369 157.754 187.08C157.621 186.791 157.449 186.574 157.238 186.43C157.027 186.285 156.771 186.213 156.471 186.213C156.17 186.213 155.914 186.285 155.703 186.43C155.496 186.574 155.328 186.791 155.199 187.08C155.07 187.369 154.977 187.732 154.918 188.17C154.859 188.607 154.83 189.119 154.83 189.705ZM165.688 194H160.344V193.086L162.395 190.854C162.688 190.537 162.949 190.248 163.18 189.986C163.41 189.725 163.605 189.469 163.766 189.219C163.93 188.969 164.055 188.719 164.141 188.469C164.227 188.215 164.27 187.939 164.27 187.643C164.27 187.412 164.236 187.209 164.17 187.033C164.104 186.857 164.008 186.709 163.883 186.588C163.762 186.463 163.617 186.369 163.449 186.307C163.281 186.244 163.094 186.213 162.887 186.213C162.516 186.213 162.18 186.289 161.879 186.441C161.582 186.59 161.299 186.781 161.029 187.016L160.432 186.318C160.588 186.178 160.756 186.047 160.936 185.926C161.115 185.801 161.309 185.693 161.516 185.604C161.723 185.514 161.941 185.443 162.172 185.393C162.402 185.338 162.645 185.311 162.898 185.311C163.273 185.311 163.611 185.363 163.912 185.469C164.217 185.574 164.475 185.727 164.686 185.926C164.896 186.121 165.059 186.361 165.172 186.646C165.289 186.928 165.348 187.246 165.348 187.602C165.348 187.934 165.295 188.25 165.189 188.551C165.088 188.852 164.945 189.148 164.762 189.441C164.582 189.73 164.365 190.021 164.111 190.314C163.861 190.607 163.59 190.912 163.297 191.229L161.65 192.98V193.027H165.688V194ZM172.021 187.438C172.021 187.723 171.977 187.982 171.887 188.217C171.797 188.451 171.67 188.654 171.506 188.826C171.346 188.998 171.152 189.141 170.926 189.254C170.699 189.363 170.447 189.441 170.17 189.488V189.523C170.861 189.609 171.387 189.83 171.746 190.186C172.105 190.537 172.285 190.996 172.285 191.562C172.285 191.938 172.221 192.281 172.092 192.594C171.967 192.906 171.775 193.176 171.518 193.402C171.26 193.629 170.934 193.805 170.539 193.93C170.145 194.055 169.678 194.117 169.139 194.117C168.713 194.117 168.311 194.084 167.932 194.018C167.557 193.951 167.203 193.83 166.871 193.654V192.658C167.211 192.838 167.578 192.977 167.973 193.074C168.371 193.172 168.752 193.221 169.115 193.221C169.475 193.221 169.785 193.182 170.047 193.104C170.309 193.025 170.523 192.914 170.691 192.77C170.863 192.625 170.988 192.447 171.066 192.236C171.148 192.025 171.189 191.789 171.189 191.527C171.189 191.262 171.137 191.035 171.031 190.848C170.93 190.656 170.783 190.5 170.592 190.379C170.4 190.254 170.166 190.162 169.889 190.104C169.615 190.045 169.305 190.016 168.957 190.016H168.178V189.131H168.957C169.273 189.131 169.555 189.092 169.801 189.014C170.047 188.936 170.252 188.824 170.416 188.68C170.584 188.535 170.711 188.363 170.797 188.164C170.883 187.965 170.926 187.746 170.926 187.508C170.926 187.305 170.891 187.123 170.82 186.963C170.75 186.803 170.65 186.668 170.521 186.559C170.393 186.445 170.238 186.359 170.059 186.301C169.879 186.242 169.68 186.213 169.461 186.213C169.043 186.213 168.674 186.279 168.354 186.412C168.037 186.541 167.734 186.711 167.445 186.922L166.906 186.189C167.055 186.068 167.219 185.955 167.398 185.85C167.582 185.744 167.781 185.652 167.996 185.574C168.211 185.492 168.439 185.428 168.682 185.381C168.928 185.334 169.188 185.311 169.461 185.311C169.883 185.311 170.252 185.363 170.568 185.469C170.889 185.574 171.156 185.723 171.371 185.914C171.586 186.102 171.748 186.326 171.857 186.588C171.967 186.846 172.021 187.129 172.021 187.438Z" fill="#595959"/>
<path d="M211.297 194L208.473 186.488H208.426C208.484 187.113 208.514 187.885 208.514 188.803V194H207.518V185.434H209.111L211.754 192.453H211.801L214.49 185.434H216.072V194H215.006V188.732C215.006 188.146 215.033 187.402 215.088 186.5H215.041L212.182 194H211.297ZM222.23 194L222.025 193.086H221.979C221.658 193.488 221.338 193.762 221.018 193.906C220.701 194.047 220.301 194.117 219.816 194.117C219.184 194.117 218.688 193.951 218.328 193.619C217.969 193.287 217.789 192.818 217.789 192.213C217.789 190.908 218.818 190.225 220.877 190.162L221.967 190.121V189.74C221.967 189.252 221.861 188.893 221.65 188.662C221.439 188.428 221.102 188.311 220.637 188.311C220.297 188.311 219.975 188.361 219.67 188.463C219.369 188.564 219.086 188.678 218.82 188.803L218.498 188.012C218.822 187.84 219.176 187.705 219.559 187.607C219.941 187.51 220.32 187.461 220.695 187.461C221.473 187.461 222.051 187.633 222.43 187.977C222.809 188.32 222.998 188.867 222.998 189.617V194H222.23ZM220.057 193.268C220.646 193.268 221.109 193.109 221.445 192.793C221.785 192.473 221.955 192.02 221.955 191.434V190.854L221.006 190.895C220.268 190.922 219.729 191.039 219.389 191.246C219.053 191.453 218.885 191.779 218.885 192.225C218.885 192.561 218.986 192.818 219.189 192.998C219.396 193.178 219.686 193.268 220.057 193.268ZM223.988 187.566H225.119L226.508 191.229C226.801 192.025 226.98 192.609 227.047 192.98H227.094C227.129 192.836 227.209 192.566 227.334 192.172C227.459 191.773 227.564 191.455 227.65 191.217L228.957 187.566H230.094L227.322 194.891C227.053 195.602 226.732 196.111 226.361 196.42C225.99 196.729 225.531 196.883 224.984 196.883C224.691 196.883 224.4 196.85 224.111 196.783V195.945C224.307 195.992 224.541 196.016 224.814 196.016C225.15 196.016 225.436 195.922 225.67 195.734C225.904 195.551 226.096 195.266 226.244 194.879L226.578 194.023L223.988 187.566ZM239.117 194H233.773V193.086L235.824 190.854C236.117 190.537 236.379 190.248 236.609 189.986C236.84 189.725 237.035 189.469 237.195 189.219C237.359 188.969 237.484 188.719 237.57 188.469C237.656 188.215 237.699 187.939 237.699 187.643C237.699 187.412 237.666 187.209 237.6 187.033C237.533 186.857 237.438 186.709 237.312 186.588C237.191 186.463 237.047 186.369 236.879 186.307C236.711 186.244 236.523 186.213 236.316 186.213C235.945 186.213 235.609 186.289 235.309 186.441C235.012 186.59 234.729 186.781 234.459 187.016L233.861 186.318C234.018 186.178 234.186 186.047 234.365 185.926C234.545 185.801 234.738 185.693 234.945 185.604C235.152 185.514 235.371 185.443 235.602 185.393C235.832 185.338 236.074 185.311 236.328 185.311C236.703 185.311 237.041 185.363 237.342 185.469C237.646 185.574 237.904 185.727 238.115 185.926C238.326 186.121 238.488 186.361 238.602 186.646C238.719 186.928 238.777 187.246 238.777 187.602C238.777 187.934 238.725 188.25 238.619 188.551C238.518 188.852 238.375 189.148 238.191 189.441C238.012 189.73 237.795 190.021 237.541 190.314C237.291 190.607 237.02 190.912 236.727 191.229L235.08 192.98V193.027H239.117V194ZM245.867 189.705C245.867 190.396 245.816 191.016 245.715 191.562C245.617 192.109 245.457 192.572 245.234 192.951C245.016 193.33 244.732 193.619 244.385 193.818C244.037 194.018 243.615 194.117 243.119 194.117C242.658 194.117 242.256 194.018 241.912 193.818C241.572 193.619 241.289 193.33 241.062 192.951C240.84 192.572 240.672 192.109 240.559 191.562C240.449 191.016 240.395 190.396 240.395 189.705C240.395 189.014 240.443 188.395 240.541 187.848C240.643 187.301 240.801 186.84 241.016 186.465C241.234 186.086 241.516 185.797 241.859 185.598C242.207 185.398 242.627 185.299 243.119 185.299C243.584 185.299 243.988 185.398 244.332 185.598C244.676 185.793 244.961 186.08 245.188 186.459C245.414 186.834 245.584 187.295 245.697 187.842C245.811 188.389 245.867 189.01 245.867 189.705ZM241.479 189.705C241.479 190.291 241.508 190.803 241.566 191.24C241.625 191.678 241.719 192.043 241.848 192.336C241.977 192.625 242.145 192.844 242.352 192.992C242.562 193.137 242.818 193.209 243.119 193.209C243.42 193.209 243.676 193.137 243.887 192.992C244.098 192.848 244.27 192.631 244.402 192.342C244.539 192.053 244.637 191.689 244.695 191.252C244.758 190.811 244.789 190.295 244.789 189.705C244.789 189.119 244.758 188.607 244.695 188.17C244.637 187.732 244.539 187.369 244.402 187.08C244.27 186.791 244.098 186.574 243.887 186.43C243.676 186.285 243.42 186.213 243.119 186.213C242.818 186.213 242.562 186.285 242.352 186.43C242.145 186.574 241.977 186.791 241.848 187.08C241.719 187.369 241.625 187.732 241.566 188.17C241.508 188.607 241.479 189.119 241.479 189.705ZM252.336 194H246.992V193.086L249.043 190.854C249.336 190.537 249.598 190.248 249.828 189.986C250.059 189.725 250.254 189.469 250.414 189.219C250.578 188.969 250.703 188.719 250.789 188.469C250.875 188.215 250.918 187.939 250.918 187.643C250.918 187.412 250.885 187.209 250.818 187.033C250.752 186.857 250.656 186.709 250.531 186.588C250.41 186.463 250.266 186.369 250.098 186.307C249.93 186.244 249.742 186.213 249.535 186.213C249.164 186.213 248.828 186.289 248.527 186.441C248.23 186.59 247.947 186.781 247.678 187.016L247.08 186.318C247.236 186.178 247.404 186.047 247.584 185.926C247.764 185.801 247.957 185.693 248.164 185.604C248.371 185.514 248.59 185.443 248.82 185.393C249.051 185.338 249.293 185.311 249.547 185.311C249.922 185.311 250.26 185.363 250.561 185.469C250.865 185.574 251.123 185.727 251.334 185.926C251.545 186.121 251.707 186.361 251.82 186.646C251.938 186.928 251.996 187.246 251.996 187.602C251.996 187.934 251.943 188.25 251.838 188.551C251.736 188.852 251.594 189.148 251.41 189.441C251.23 189.73 251.014 190.021 250.76 190.314C250.51 190.607 250.238 190.912 249.945 191.229L248.299 192.98V193.027H252.336V194ZM258.67 187.438C258.67 187.723 258.625 187.982 258.535 188.217C258.445 188.451 258.318 188.654 258.154 188.826C257.994 188.998 257.801 189.141 257.574 189.254C257.348 189.363 257.096 189.441 256.818 189.488V189.523C257.51 189.609 258.035 189.83 258.395 190.186C258.754 190.537 258.934 190.996 258.934 191.562C258.934 191.938 258.869 192.281 258.74 192.594C258.615 192.906 258.424 193.176 258.166 193.402C257.908 193.629 257.582 193.805 257.188 193.93C256.793 194.055 256.326 194.117 255.787 194.117C255.361 194.117 254.959 194.084 254.58 194.018C254.205 193.951 253.852 193.83 253.52 193.654V192.658C253.859 192.838 254.227 192.977 254.621 193.074C255.02 193.172 255.4 193.221 255.764 193.221C256.123 193.221 256.434 193.182 256.695 193.104C256.957 193.025 257.172 192.914 257.34 192.77C257.512 192.625 257.637 192.447 257.715 192.236C257.797 192.025 257.838 191.789 257.838 191.527C257.838 191.262 257.785 191.035 257.68 190.848C257.578 190.656 257.432 190.5 257.24 190.379C257.049 190.254 256.814 190.162 256.537 190.104C256.264 190.045 255.953 190.016 255.605 190.016H254.826V189.131H255.605C255.922 189.131 256.203 189.092 256.449 189.014C256.695 188.936 256.9 188.824 257.064 188.68C257.232 188.535 257.359 188.363 257.445 188.164C257.531 187.965 257.574 187.746 257.574 187.508C257.574 187.305 257.539 187.123 257.469 186.963C257.398 186.803 257.299 186.668 257.17 186.559C257.041 186.445 256.887 186.359 256.707 186.301C256.527 186.242 256.328 186.213 256.109 186.213C255.691 186.213 255.322 186.279 255.002 186.412C254.686 186.541 254.383 186.711 254.094 186.922L253.555 186.189C253.703 186.068 253.867 185.955 254.047 185.85C254.23 185.744 254.43 185.652 254.645 185.574C254.859 185.492 255.088 185.428 255.33 185.381C255.576 185.334 255.836 185.311 256.109 185.311C256.531 185.311 256.9 185.363 257.217 185.469C257.537 185.574 257.805 185.723 258.02 185.914C258.234 186.102 258.396 186.326 258.506 186.588C258.615 186.846 258.67 187.129 258.67 187.438Z" fill="#595959"/>
<path d="M293.117 196.279C292.75 196.279 292.453 196.227 292.227 196.121V195.213C292.504 195.291 292.793 195.33 293.094 195.33C293.484 195.33 293.777 195.211 293.973 194.973C294.168 194.738 294.266 194.398 294.266 193.953V185.434H295.35V193.865C295.35 194.639 295.156 195.234 294.77 195.652C294.387 196.07 293.836 196.279 293.117 196.279ZM298.461 187.566V191.709C298.461 192.229 298.576 192.615 298.807 192.869C299.041 193.119 299.402 193.244 299.891 193.244C300.551 193.244 301.031 193.061 301.332 192.693C301.633 192.326 301.783 191.734 301.783 190.918V187.566H302.844V194H301.977L301.824 193.15H301.771C301.58 193.459 301.309 193.697 300.957 193.865C300.605 194.033 300.197 194.117 299.732 194.117C298.959 194.117 298.375 193.932 297.98 193.561C297.59 193.189 297.395 192.596 297.395 191.779V187.566H298.461ZM309.266 194V189.887C309.266 189.363 309.148 188.975 308.914 188.721C308.684 188.463 308.32 188.334 307.824 188.334C307.164 188.334 306.684 188.518 306.383 188.885C306.086 189.248 305.938 189.842 305.938 190.666V194H304.883V187.566H305.732L305.891 188.445H305.949C306.148 188.129 306.428 187.885 306.787 187.713C307.146 187.537 307.543 187.449 307.977 187.449C308.766 187.449 309.352 187.641 309.734 188.023C310.117 188.406 310.309 189.002 310.309 189.811V194H309.266ZM320.305 194H314.961V193.086L317.012 190.854C317.305 190.537 317.566 190.248 317.797 189.986C318.027 189.725 318.223 189.469 318.383 189.219C318.547 188.969 318.672 188.719 318.758 188.469C318.844 188.215 318.887 187.939 318.887 187.643C318.887 187.412 318.854 187.209 318.787 187.033C318.721 186.857 318.625 186.709 318.5 186.588C318.379 186.463 318.234 186.369 318.066 186.307C317.898 186.244 317.711 186.213 317.504 186.213C317.133 186.213 316.797 186.289 316.496 186.441C316.199 186.59 315.916 186.781 315.646 187.016L315.049 186.318C315.205 186.178 315.373 186.047 315.553 185.926C315.732 185.801 315.926 185.693 316.133 185.604C316.34 185.514 316.559 185.443 316.789 185.393C317.02 185.338 317.262 185.311 317.516 185.311C317.891 185.311 318.229 185.363 318.529 185.469C318.834 185.574 319.092 185.727 319.303 185.926C319.514 186.121 319.676 186.361 319.789 186.646C319.906 186.928 319.965 187.246 319.965 187.602C319.965 187.934 319.912 188.25 319.807 188.551C319.705 188.852 319.562 189.148 319.379 189.441C319.199 189.73 318.982 190.021 318.729 190.314C318.479 190.607 318.207 190.912 317.914 191.229L316.268 192.98V193.027H320.305V194ZM327.055 189.705C327.055 190.396 327.004 191.016 326.902 191.562C326.805 192.109 326.645 192.572 326.422 192.951C326.203 193.33 325.92 193.619 325.572 193.818C325.225 194.018 324.803 194.117 324.307 194.117C323.846 194.117 323.443 194.018 323.1 193.818C322.76 193.619 322.477 193.33 322.25 192.951C322.027 192.572 321.859 192.109 321.746 191.562C321.637 191.016 321.582 190.396 321.582 189.705C321.582 189.014 321.631 188.395 321.729 187.848C321.83 187.301 321.988 186.84 322.203 186.465C322.422 186.086 322.703 185.797 323.047 185.598C323.395 185.398 323.814 185.299 324.307 185.299C324.771 185.299 325.176 185.398 325.52 185.598C325.863 185.793 326.148 186.08 326.375 186.459C326.602 186.834 326.771 187.295 326.885 187.842C326.998 188.389 327.055 189.01 327.055 189.705ZM322.666 189.705C322.666 190.291 322.695 190.803 322.754 191.24C322.812 191.678 322.906 192.043 323.035 192.336C323.164 192.625 323.332 192.844 323.539 192.992C323.75 193.137 324.006 193.209 324.307 193.209C324.607 193.209 324.863 193.137 325.074 192.992C325.285 192.848 325.457 192.631 325.59 192.342C325.727 192.053 325.824 191.689 325.883 191.252C325.945 190.811 325.977 190.295 325.977 189.705C325.977 189.119 325.945 188.607 325.883 188.17C325.824 187.732 325.727 187.369 325.59 187.08C325.457 186.791 325.285 186.574 325.074 186.43C324.863 186.285 324.607 186.213 324.307 186.213C324.006 186.213 323.75 186.285 323.539 186.43C323.332 186.574 323.164 186.791 323.035 187.08C322.906 187.369 322.812 187.732 322.754 188.17C322.695 188.607 322.666 189.119 322.666 189.705ZM333.523 194H328.18V193.086L330.23 190.854C330.523 190.537 330.785 190.248 331.016 189.986C331.246 189.725 331.441 189.469 331.602 189.219C331.766 188.969 331.891 188.719 331.977 188.469C332.062 188.215 332.105 187.939 332.105 187.643C332.105 187.412 332.072 187.209 332.006 187.033C331.939 186.857 331.844 186.709 331.719 186.588C331.598 186.463 331.453 186.369 331.285 186.307C331.117 186.244 330.93 186.213 330.723 186.213C330.352 186.213 330.016 186.289 329.715 186.441C329.418 186.59 329.135 186.781 328.865 187.016L328.268 186.318C328.424 186.178 328.592 186.047 328.771 185.926C328.951 185.801 329.145 185.693 329.352 185.604C329.559 185.514 329.777 185.443 330.008 185.393C330.238 185.338 330.48 185.311 330.734 185.311C331.109 185.311 331.447 185.363 331.748 185.469C332.053 185.574 332.311 185.727 332.521 185.926C332.732 186.121 332.895 186.361 333.008 186.646C333.125 186.928 333.184 187.246 333.184 187.602C333.184 187.934 333.131 188.25 333.025 188.551C332.924 188.852 332.781 189.148 332.598 189.441C332.418 189.73 332.201 190.021 331.947 190.314C331.697 190.607 331.426 190.912 331.133 191.229L329.486 192.98V193.027H333.523V194ZM339.857 187.438C339.857 187.723 339.812 187.982 339.723 188.217C339.633 188.451 339.506 188.654 339.342 188.826C339.182 188.998 338.988 189.141 338.762 189.254C338.535 189.363 338.283 189.441 338.006 189.488V189.523C338.697 189.609 339.223 189.83 339.582 190.186C339.941 190.537 340.121 190.996 340.121 191.562C340.121 191.938 340.057 192.281 339.928 192.594C339.803 192.906 339.611 193.176 339.354 193.402C339.096 193.629 338.77 193.805 338.375 193.93C337.98 194.055 337.514 194.117 336.975 194.117C336.549 194.117 336.146 194.084 335.768 194.018C335.393 193.951 335.039 193.83 334.707 193.654V192.658C335.047 192.838 335.414 192.977 335.809 193.074C336.207 193.172 336.588 193.221 336.951 193.221C337.311 193.221 337.621 193.182 337.883 193.104C338.145 193.025 338.359 192.914 338.527 192.77C338.699 192.625 338.824 192.447 338.902 192.236C338.984 192.025 339.025 191.789 339.025 191.527C339.025 191.262 338.973 191.035 338.867 190.848C338.766 190.656 338.619 190.5 338.428 190.379C338.236 190.254 338.002 190.162 337.725 190.104C337.451 190.045 337.141 190.016 336.793 190.016H336.014V189.131H336.793C337.109 189.131 337.391 189.092 337.637 189.014C337.883 188.936 338.088 188.824 338.252 188.68C338.42 188.535 338.547 188.363 338.633 188.164C338.719 187.965 338.762 187.746 338.762 187.508C338.762 187.305 338.727 187.123 338.656 186.963C338.586 186.803 338.486 186.668 338.357 186.559C338.229 186.445 338.074 186.359 337.895 186.301C337.715 186.242 337.516 186.213 337.297 186.213C336.879 186.213 336.51 186.279 336.189 186.412C335.873 186.541 335.57 186.711 335.281 186.922L334.742 186.189C334.891 186.068 335.055 185.955 335.234 185.85C335.418 185.744 335.617 185.652 335.832 185.574C336.047 185.492 336.275 185.428 336.518 185.381C336.764 185.334 337.023 185.311 337.297 185.311C337.719 185.311 338.088 185.363 338.404 185.469C338.725 185.574 338.992 185.723 339.207 185.914C339.422 186.102 339.584 186.326 339.693 186.588C339.803 186.846 339.857 187.129 339.857 187.438Z" fill="#595959"/>
<circle cx="112" cy="227" r="4" fill="#DD887C"/>
<path d="M131.66 222.66V231H130.292V227.352H126.368V231H125V222.66H126.368V226.236H130.292V222.66H131.66ZM133.283 223.26C133.115 223.092 133.031 222.888 133.031 222.636C133.031 222.396 133.115 222.18 133.283 222.012C133.451 221.844 133.655 221.76 133.907 221.76C134.147 221.76 134.351 221.844 134.519 222.012C134.687 222.18 134.771 222.396 134.771 222.636C134.771 222.888 134.687 223.092 134.519 223.26C134.351 223.428 134.147 223.512 133.907 223.512C133.655 223.512 133.451 223.428 133.283 223.26ZM134.579 224.388V231H133.211V224.388H134.579ZM140.145 224.592C140.541 224.796 140.853 225.048 141.081 225.348V224.388H142.461V231.108C142.461 231.72 142.329 232.26 142.077 232.74C141.813 233.22 141.441 233.592 140.961 233.856C140.481 234.132 139.905 234.264 139.233 234.264C138.333 234.264 137.589 234.06 137.001 233.64C136.401 233.22 136.065 232.644 135.993 231.924H137.349C137.445 232.272 137.673 232.548 138.009 232.764C138.345 232.98 138.753 233.076 139.233 233.076C139.785 233.076 140.229 232.908 140.565 232.572C140.901 232.236 141.081 231.756 141.081 231.108V230.004C140.841 230.316 140.529 230.58 140.133 230.796C139.737 231.012 139.293 231.108 138.789 231.108C138.213 231.108 137.685 230.964 137.205 230.676C136.725 230.388 136.353 229.98 136.077 229.452C135.801 228.924 135.669 228.336 135.669 227.664C135.669 227.004 135.801 226.416 136.077 225.9C136.353 225.396 136.725 225 137.205 224.712C137.685 224.424 138.213 224.28 138.789 224.28C139.293 224.28 139.749 224.388 140.145 224.592ZM140.793 226.5C140.601 226.164 140.361 225.912 140.061 225.732C139.749 225.564 139.425 225.468 139.077 225.468C138.717 225.468 138.393 225.564 138.093 225.732C137.781 225.9 137.541 226.152 137.349 226.488C137.157 226.824 137.073 227.208 137.073 227.664C137.073 228.12 137.157 228.528 137.349 228.864C137.541 229.212 137.781 229.476 138.093 229.656C138.405 229.836 138.729 229.92 139.077 229.92C139.425 229.92 139.749 229.836 140.061 229.656C140.361 229.488 140.601 229.224 140.793 228.888C140.985 228.552 141.081 228.144 141.081 227.688C141.081 227.232 140.985 226.836 140.793 226.5ZM148.771 224.604C149.167 224.82 149.479 225.144 149.707 225.564C149.935 225.996 150.055 226.5 150.055 227.1V231H148.699V227.304C148.699 226.716 148.543 226.26 148.255 225.948C147.955 225.636 147.547 225.468 147.043 225.468C146.527 225.468 146.119 225.636 145.819 225.948C145.519 226.26 145.375 226.716 145.375 227.304V231H144.007V222.12H145.375V225.156C145.603 224.88 145.891 224.664 146.251 224.508C146.611 224.364 146.995 224.28 147.427 224.28C147.931 224.28 148.375 224.388 148.771 224.604Z" fill="#121212"/>
<circle cx="187" cy="227" r="4" fill="#E6B056"/>
<path d="M209.036 222.66V231H207.668V225.288L205.124 231H204.176L201.62 225.288V231H200.252V222.66H201.728L204.656 229.2L207.572 222.66H209.036ZM216.596 228.204H211.544C211.58 228.732 211.772 229.164 212.132 229.476C212.48 229.8 212.912 229.956 213.428 229.956C214.16 229.956 214.676 229.656 214.988 229.032H216.464C216.26 229.644 215.9 230.148 215.372 230.532C214.844 230.916 214.196 231.108 213.428 231.108C212.792 231.108 212.228 230.976 211.724 230.688C211.22 230.4 210.836 230.004 210.548 229.488C210.26 228.972 210.128 228.372 210.128 227.688C210.128 227.016 210.26 226.416 210.536 225.9C210.812 225.384 211.196 224.988 211.7 224.7C212.204 224.424 212.78 224.28 213.428 224.28C214.052 224.28 214.604 224.424 215.096 224.688C215.576 224.964 215.96 225.348 216.236 225.84C216.5 226.332 216.644 226.896 216.644 227.532C216.644 227.784 216.62 228.012 216.596 228.204ZM215.216 227.1C215.204 226.596 215.024 226.2 214.676 225.888C214.316 225.588 213.884 225.432 213.368 225.432C212.888 225.432 212.492 225.588 212.156 225.888C211.82 226.188 211.616 226.596 211.556 227.1H215.216ZM217.692 225.9C217.968 225.396 218.34 225 218.82 224.712C219.3 224.424 219.828 224.28 220.416 224.28C220.848 224.28 221.268 224.376 221.688 224.568C222.108 224.76 222.444 225 222.696 225.312V222.12H224.076V231H222.696V230.004C222.468 230.328 222.156 230.592 221.76 230.796C221.364 231.012 220.908 231.108 220.404 231.108C219.828 231.108 219.3 230.964 218.82 230.676C218.34 230.388 217.968 229.98 217.692 229.452C217.416 228.924 217.284 228.336 217.284 227.664C217.284 227.004 217.416 226.416 217.692 225.9ZM222.408 226.5C222.216 226.164 221.976 225.912 221.676 225.732C221.364 225.564 221.04 225.468 220.692 225.468C220.332 225.468 220.008 225.564 219.708 225.732C219.396 225.9 219.156 226.152 218.964 226.488C218.772 226.824 218.688 227.208 218.688 227.664C218.688 228.12 218.772 228.528 218.964 228.864C219.156 229.212 219.396 229.476 219.708 229.656C220.02 229.836 220.344 229.92 220.692 229.92C221.04 229.92 221.364 229.836 221.676 229.656C221.976 229.488 222.216 229.224 222.408 228.888C222.6 228.552 222.696 228.144 222.696 227.688C222.696 227.232 222.6 226.836 222.408 226.5ZM225.695 223.26C225.527 223.092 225.443 222.888 225.443 222.636C225.443 222.396 225.527 222.18 225.695 222.012C225.863 221.844 226.067 221.76 226.319 221.76C226.559 221.76 226.763 221.844 226.931 222.012C227.099 222.18 227.183 222.396 227.183 222.636C227.183 222.888 227.099 223.092 226.931 223.26C226.763 223.428 226.559 223.512 226.319 223.512C226.067 223.512 225.863 223.428 225.695 223.26ZM226.991 224.388V231H225.623V224.388H226.991ZM234.525 224.388V231H233.157V230.22C232.941 230.496 232.653 230.712 232.305 230.868C231.957 231.024 231.585 231.096 231.201 231.096C230.673 231.096 230.205 230.988 229.797 230.772C229.389 230.556 229.065 230.244 228.825 229.812C228.585 229.392 228.477 228.876 228.477 228.276V224.388H229.833V228.072C229.833 228.672 229.977 229.128 230.277 229.44C230.565 229.752 230.973 229.908 231.489 229.908C231.993 229.908 232.401 229.752 232.701 229.44C233.001 229.128 233.157 228.672 233.157 228.072V224.388H234.525ZM245.476 224.604C245.884 224.82 246.208 225.144 246.448 225.564C246.688 225.996 246.808 226.5 246.808 227.1V231H245.452V227.304C245.452 226.716 245.296 226.26 245.008 225.948C244.708 225.636 244.3 225.468 243.796 225.468C243.28 225.468 242.872 225.636 242.572 225.948C242.272 226.26 242.128 226.716 242.128 227.304V231H240.772V227.304C240.772 226.716 240.616 226.26 240.328 225.948C240.028 225.636 239.62 225.468 239.116 225.468C238.6 225.468 238.192 225.636 237.892 225.948C237.592 226.26 237.448 226.716 237.448 227.304V231H236.08V224.388H237.448V225.144C237.664 224.88 237.952 224.664 238.3 224.508C238.636 224.364 239.008 224.28 239.404 224.28C239.932 224.28 240.4 224.4 240.82 224.616C241.228 224.844 241.552 225.168 241.78 225.588C241.972 225.192 242.284 224.88 242.716 224.64C243.136 224.4 243.592 224.28 244.084 224.28C244.6 224.28 245.068 224.388 245.476 224.604Z" fill="#121212"/>
<circle cx="284" cy="227" r="4" fill="#4CA2A8"/>
<path d="M298.575 229.896H301.395V231H297.207V222.66H298.575V229.896ZM303.465 230.688C302.961 230.4 302.565 230.004 302.277 229.488C301.989 228.972 301.845 228.372 301.845 227.688C301.845 227.016 301.989 226.428 302.289 225.9C302.577 225.384 302.985 224.988 303.501 224.7C304.005 224.424 304.581 224.28 305.217 224.28C305.841 224.28 306.417 224.424 306.933 224.7C307.437 224.988 307.845 225.384 308.145 225.9C308.433 226.428 308.589 227.016 308.589 227.688C308.589 228.36 308.433 228.96 308.133 229.476C307.821 230.004 307.413 230.4 306.885 230.688C306.357 230.976 305.781 231.108 305.157 231.108C304.533 231.108 303.969 230.976 303.465 230.688ZM306.141 229.668C306.453 229.5 306.705 229.248 306.897 228.912C307.089 228.576 307.185 228.168 307.185 227.688C307.185 227.208 307.089 226.812 306.909 226.476C306.717 226.14 306.477 225.888 306.177 225.72C305.865 225.552 305.541 225.468 305.193 225.468C304.833 225.468 304.509 225.552 304.209 225.72C303.909 225.888 303.669 226.14 303.501 226.476C303.321 226.812 303.237 227.208 303.237 227.688C303.237 228.408 303.417 228.96 303.777 229.344C304.137 229.728 304.605 229.92 305.157 229.92C305.505 229.92 305.829 229.836 306.141 229.668ZM318.571 224.388L316.519 231H315.079L313.747 226.116L312.415 231H310.975L308.911 224.388H310.303L311.683 229.704L313.087 224.388H314.515L315.859 229.68L317.227 224.388H318.571Z" fill="#121212"/>
<g clip-path="url(#clip1_0_1)">
<path d="M31.9746 51.7441C32.3613 51.7441 32.7207 51.7988 33.0527 51.9082C33.3887 52.0137 33.6797 52.1719 33.9258 52.3828C34.1758 52.5938 34.3711 52.8555 34.5117 53.168C34.6523 53.4805 34.7227 53.8418 34.7227 54.252C34.7227 54.6973 34.6562 55.0977 34.5234 55.4531C34.3906 55.8086 34.1934 56.1094 33.9316 56.3555C33.6699 56.6016 33.3457 56.791 32.959 56.9238C32.5762 57.0527 32.1348 57.1172 31.6348 57.1172C31.4355 57.1172 31.2383 57.1074 31.043 57.0879C30.8516 57.0684 30.666 57.0391 30.4863 57C30.3105 56.9648 30.1426 56.918 29.9824 56.8594C29.8223 56.8008 29.6777 56.7324 29.5488 56.6543V55.6465C29.6777 55.7363 29.8281 55.8164 30 55.8867C30.1758 55.957 30.3594 56.0156 30.5508 56.0625C30.7422 56.1094 30.9336 56.1465 31.125 56.1738C31.3203 56.1973 31.5 56.209 31.6641 56.209C31.9727 56.209 32.248 56.1738 32.4902 56.1035C32.7324 56.0293 32.9375 55.916 33.1055 55.7637C33.2734 55.6113 33.4023 55.4199 33.4922 55.1895C33.582 54.959 33.627 54.6855 33.627 54.3691C33.627 53.8105 33.4551 53.3848 33.1113 53.0918C32.7676 52.7949 32.2676 52.6465 31.6113 52.6465C31.5059 52.6465 31.3906 52.6523 31.2656 52.6641C31.1445 52.6719 31.0215 52.6836 30.8965 52.6992C30.7754 52.7148 30.6582 52.7324 30.5449 52.752C30.4355 52.7676 30.3398 52.7832 30.2578 52.7988L29.7305 52.4648L30.0527 48.4336H34.0957V49.4062H30.9785L30.75 51.8613C30.875 51.8379 31.0391 51.8125 31.2422 51.7852C31.4492 51.7578 31.6934 51.7441 31.9746 51.7441ZM41.4375 52.7051C41.4375 53.3965 41.3867 54.0156 41.2852 54.5625C41.1875 55.1094 41.0273 55.5723 40.8047 55.9512C40.5859 56.3301 40.3027 56.6191 39.9551 56.8184C39.6074 57.0176 39.1855 57.1172 38.6895 57.1172C38.2285 57.1172 37.8262 57.0176 37.4824 56.8184C37.1426 56.6191 36.8594 56.3301 36.6328 55.9512C36.4102 55.5723 36.2422 55.1094 36.1289 54.5625C36.0195 54.0156 35.9648 53.3965 35.9648 52.7051C35.9648 52.0137 36.0137 51.3945 36.1113 50.8477C36.2129 50.3008 36.3711 49.8398 36.5859 49.4648C36.8047 49.0859 37.0859 48.7969 37.4297 48.5977C37.7773 48.3984 38.1973 48.2988 38.6895 48.2988C39.1543 48.2988 39.5586 48.3984 39.9023 48.5977C40.2461 48.793 40.5312 49.0801 40.7578 49.459C40.9844 49.834 41.1543 50.2949 41.2676 50.8418C41.3809 51.3887 41.4375 52.0098 41.4375 52.7051ZM37.0488 52.7051C37.0488 53.291 37.0781 53.8027 37.1367 54.2402C37.1953 54.6777 37.2891 55.043 37.418 55.3359C37.5469 55.625 37.7148 55.8438 37.9219 55.9922C38.1328 56.1367 38.3887 56.209 38.6895 56.209C38.9902 56.209 39.2461 56.1367 39.457 55.9922C39.668 55.8477 39.8398 55.6309 39.9727 55.3418C40.1094 55.0527 40.207 54.6895 40.2656 54.252C40.3281 53.8105 40.3594 53.2949 40.3594 52.7051C40.3594 52.1191 40.3281 51.6074 40.2656 51.1699C40.207 50.7324 40.1094 50.3691 39.9727 50.0801C39.8398 49.791 39.668 49.5742 39.457 49.4297C39.2461 49.2852 38.9902 49.2129 38.6895 49.2129C38.3887 49.2129 38.1328 49.2852 37.9219 49.4297C37.7148 49.5742 37.5469 49.791 37.418 50.0801C37.2891 50.3691 37.1953 50.7324 37.1367 51.1699C37.0781 51.6074 37.0488 52.1191 37.0488 52.7051Z" fill="#595959"/>
</g>
<g clip-path="url(#clip2_0_1)">
<path d="M32.9473 138H31.916V132.65C31.916 132.482 31.916 132.303 31.916 132.111C31.9199 131.92 31.9238 131.73 31.9277 131.543C31.9355 131.352 31.9414 131.17 31.9453 130.998C31.9531 130.822 31.959 130.668 31.9629 130.535C31.8965 130.605 31.8379 130.666 31.7871 130.717C31.7363 130.768 31.6836 130.816 31.6289 130.863C31.5781 130.91 31.5234 130.961 31.4648 131.016C31.4062 131.066 31.3359 131.127 31.2539 131.197L30.3867 131.906L29.8242 131.186L32.0684 129.434H32.9473V138ZM41.4375 133.705C41.4375 134.396 41.3867 135.016 41.2852 135.562C41.1875 136.109 41.0273 136.572 40.8047 136.951C40.5859 137.33 40.3027 137.619 39.9551 137.818C39.6074 138.018 39.1855 138.117 38.6895 138.117C38.2285 138.117 37.8262 138.018 37.4824 137.818C37.1426 137.619 36.8594 137.33 36.6328 136.951C36.4102 136.572 36.2422 136.109 36.1289 135.562C36.0195 135.016 35.9648 134.396 35.9648 133.705C35.9648 133.014 36.0137 132.395 36.1113 131.848C36.2129 131.301 36.3711 130.84 36.5859 130.465C36.8047 130.086 37.0859 129.797 37.4297 129.598C37.7773 129.398 38.1973 129.299 38.6895 129.299C39.1543 129.299 39.5586 129.398 39.9023 129.598C40.2461 129.793 40.5312 130.08 40.7578 130.459C40.9844 130.834 41.1543 131.295 41.2676 131.842C41.3809 132.389 41.4375 133.01 41.4375 133.705ZM37.0488 133.705C37.0488 134.291 37.0781 134.803 37.1367 135.24C37.1953 135.678 37.2891 136.043 37.418 136.336C37.5469 136.625 37.7148 136.844 37.9219 136.992C38.1328 137.137 38.3887 137.209 38.6895 137.209C38.9902 137.209 39.2461 137.137 39.457 136.992C39.668 136.848 39.8398 136.631 39.9727 136.342C40.1094 136.053 40.207 135.689 40.2656 135.252C40.3281 134.811 40.3594 134.295 40.3594 133.705C40.3594 133.119 40.3281 132.607 40.2656 132.17C40.207 131.732 40.1094 131.369 39.9727 131.08C39.8398 130.791 39.668 130.574 39.457 130.43C39.2461 130.285 38.9902 130.213 38.6895 130.213C38.3887 130.213 38.1328 130.285 37.9219 130.43C37.7148 130.574 37.5469 130.791 37.418 131.08C37.2891 131.369 37.1953 131.732 37.1367 132.17C37.0781 132.607 37.0488 133.119 37.0488 133.705Z" fill="#595959"/>
</g>
<g clip-path="url(#clip3_0_1)">
<path d="M34.4121 91.4375C34.4121 91.7227 34.3672 91.9824 34.2773 92.2168C34.1875 92.4512 34.0605 92.6543 33.8965 92.8262C33.7363 92.998 33.543 93.1406 33.3164 93.2539C33.0898 93.3633 32.8379 93.4414 32.5605 93.4883V93.5234C33.252 93.6094 33.7773 93.8301 34.1367 94.1855C34.4961 94.5371 34.6758 94.9961 34.6758 95.5625C34.6758 95.9375 34.6113 96.2812 34.4824 96.5938C34.3574 96.9062 34.166 97.1758 33.9082 97.4023C33.6504 97.6289 33.3242 97.8047 32.9297 97.9297C32.5352 98.0547 32.0684 98.1172 31.5293 98.1172C31.1035 98.1172 30.7012 98.084 30.3223 98.0176C29.9473 97.9512 29.5938 97.8301 29.2617 97.6543V96.6582C29.6016 96.8379 29.9688 96.9766 30.3633 97.0742C30.7617 97.1719 31.1426 97.2207 31.5059 97.2207C31.8652 97.2207 32.1758 97.1816 32.4375 97.1035C32.6992 97.0254 32.9141 96.9141 33.082 96.7695C33.2539 96.625 33.3789 96.4473 33.457 96.2363C33.5391 96.0254 33.5801 95.7891 33.5801 95.5273C33.5801 95.2617 33.5273 95.0352 33.4219 94.8477C33.3203 94.6562 33.1738 94.5 32.9824 94.3789C32.791 94.2539 32.5566 94.1621 32.2793 94.1035C32.0059 94.0449 31.6953 94.0156 31.3477 94.0156H30.5684V93.1309H31.3477C31.6641 93.1309 31.9453 93.0918 32.1914 93.0137C32.4375 92.9355 32.6426 92.8242 32.8066 92.6797C32.9746 92.5352 33.1016 92.3633 33.1875 92.1641C33.2734 91.9648 33.3164 91.7461 33.3164 91.5078C33.3164 91.3047 33.2812 91.123 33.2109 90.9629C33.1406 90.8027 33.041 90.668 32.9121 90.5586C32.7832 90.4453 32.6289 90.3594 32.4492 90.3008C32.2695 90.2422 32.0703 90.2129 31.8516 90.2129C31.4336 90.2129 31.0645 90.2793 30.7441 90.4121C30.4277 90.541 30.125 90.7109 29.8359 90.9219L29.2969 90.1895C29.4453 90.0684 29.6094 89.9551 29.7891 89.8496C29.9727 89.7441 30.1719 89.6523 30.3867 89.5742C30.6016 89.4922 30.8301 89.4277 31.0723 89.3809C31.3184 89.334 31.5781 89.3105 31.8516 89.3105C32.2734 89.3105 32.6426 89.3633 32.959 89.4688C33.2793 89.5742 33.5469 89.7227 33.7617 89.9141C33.9766 90.1016 34.1387 90.3262 34.248 90.5879C34.3574 90.8457 34.4121 91.1289 34.4121 91.4375ZM41.4375 93.7051C41.4375 94.3965 41.3867 95.0156 41.2852 95.5625C41.1875 96.1094 41.0273 96.5723 40.8047 96.9512C40.5859 97.3301 40.3027 97.6191 39.9551 97.8184C39.6074 98.0176 39.1855 98.1172 38.6895 98.1172C38.2285 98.1172 37.8262 98.0176 37.4824 97.8184C37.1426 97.6191 36.8594 97.3301 36.6328 96.9512C36.4102 96.5723 36.2422 96.1094 36.1289 95.5625C36.0195 95.0156 35.9648 94.3965 35.9648 93.7051C35.9648 93.0137 36.0137 92.3945 36.1113 91.8477C36.2129 91.3008 36.3711 90.8398 36.5859 90.4648C36.8047 90.0859 37.0859 89.7969 37.4297 89.5977C37.7773 89.3984 38.1973 89.2988 38.6895 89.2988C39.1543 89.2988 39.5586 89.3984 39.9023 89.5977C40.2461 89.793 40.5312 90.0801 40.7578 90.459C40.9844 90.834 41.1543 91.2949 41.2676 91.8418C41.3809 92.3887 41.4375 93.0098 41.4375 93.7051ZM37.0488 93.7051C37.0488 94.291 37.0781 94.8027 37.1367 95.2402C37.1953 95.6777 37.2891 96.043 37.418 96.3359C37.5469 96.625 37.7148 96.8438 37.9219 96.9922C38.1328 97.1367 38.3887 97.209 38.6895 97.209C38.9902 97.209 39.2461 97.1367 39.457 96.9922C39.668 96.8477 39.8398 96.6309 39.9727 96.3418C40.1094 96.0527 40.207 95.6895 40.2656 95.252C40.3281 94.8105 40.3594 94.2949 40.3594 93.7051C40.3594 93.1191 40.3281 92.6074 40.2656 92.1699C40.207 91.7324 40.1094 91.3691 39.9727 91.0801C39.8398 90.791 39.668 90.5742 39.457 90.4297C39.2461 90.2852 38.9902 90.2129 38.6895 90.2129C38.3887 90.2129 38.1328 90.2852 37.9219 90.4297C37.7148 90.5742 37.5469 90.791 37.418 91.0801C37.2891 91.3691 37.1953 91.7324 37.1367 92.1699C37.0781 92.6074 37.0488 93.1191 37.0488 93.7051Z" fill="#595959"/>
</g>
<g clip-path="url(#clip4_0_1)">
<path d="M41.4375 174.705C41.4375 175.396 41.3867 176.016 41.2852 176.562C41.1875 177.109 41.0273 177.572 40.8047 177.951C40.5859 178.33 40.3027 178.619 39.9551 178.818C39.6074 179.018 39.1855 179.117 38.6895 179.117C38.2285 179.117 37.8262 179.018 37.4824 178.818C37.1426 178.619 36.8594 178.33 36.6328 177.951C36.4102 177.572 36.2422 177.109 36.1289 176.562C36.0195 176.016 35.9648 175.396 35.9648 174.705C35.9648 174.014 36.0137 173.395 36.1113 172.848C36.2129 172.301 36.3711 171.84 36.5859 171.465C36.8047 171.086 37.0859 170.797 37.4297 170.598C37.7773 170.398 38.1973 170.299 38.6895 170.299C39.1543 170.299 39.5586 170.398 39.9023 170.598C40.2461 170.793 40.5312 171.08 40.7578 171.459C40.9844 171.834 41.1543 172.295 41.2676 172.842C41.3809 173.389 41.4375 174.01 41.4375 174.705ZM37.0488 174.705C37.0488 175.291 37.0781 175.803 37.1367 176.24C37.1953 176.678 37.2891 177.043 37.418 177.336C37.5469 177.625 37.7148 177.844 37.9219 177.992C38.1328 178.137 38.3887 178.209 38.6895 178.209C38.9902 178.209 39.2461 178.137 39.457 177.992C39.668 177.848 39.8398 177.631 39.9727 177.342C40.1094 177.053 40.207 176.689 40.2656 176.252C40.3281 175.811 40.3594 175.295 40.3594 174.705C40.3594 174.119 40.3281 173.607 40.2656 173.17C40.207 172.732 40.1094 172.369 39.9727 172.08C39.8398 171.791 39.668 171.574 39.457 171.43C39.2461 171.285 38.9902 171.213 38.6895 171.213C38.3887 171.213 38.1328 171.285 37.9219 171.43C37.7148 171.574 37.5469 171.791 37.418 172.08C37.2891 172.369 37.1953 172.732 37.1367 173.17C37.0781 173.607 37.0488 174.119 37.0488 174.705Z" fill="#595959"/>
</g>
<path opacity="0.5" d="M0 4C0 1.79086 1.79086 0 4 0H421C423.209 0 425 1.79086 425 4V261C425 263.209 423.209 265 421 265H3.99999C1.79086 265 0 263.209 0 261V4Z" fill="#EBEFEE"/>
</g>
</g>
<defs>
<clipPath id="clip0_0_1">
<rect width="425" height="265" rx="4" fill="white"/>
</clipPath>
<clipPath id="clip1_0_1">
<rect width="40" height="16" fill="white" transform="translate(2 43)"/>
</clipPath>
<clipPath id="clip2_0_1">
<rect width="40" height="16" fill="white" transform="translate(2 124)"/>
</clipPath>
<clipPath id="clip3_0_1">
<rect width="40" height="16" fill="white" transform="translate(2 84)"/>
</clipPath>
<clipPath id="clip4_0_1">
<rect width="40" height="16" fill="white" transform="translate(2 165)"/>
</clipPath>
</defs>
</svg>
