<svg width="425" height="265" viewBox="0 0 425 265" fill="none" xmlns="http://www.w3.org/2000/svg">
<rect width="425" height="265" fill="#F5F5F5"/>
<rect x="-16008" y="-4687" width="23840" height="13376" fill="#F8FAF9"/>
<g style="mix-blend-mode:luminosity">
<rect width="425" height="265" rx="4" fill="white"/>
<circle cx="148.5" cy="236" r="4" fill="#666EB4"/>
<path d="M163.056 239.544C162.408 239.184 161.892 238.668 161.508 238.02C161.124 237.372 160.944 236.628 160.944 235.812C160.944 234.996 161.124 234.264 161.508 233.616C161.892 232.968 162.408 232.464 163.056 232.104C163.704 231.744 164.424 231.552 165.204 231.552C165.984 231.552 166.704 231.744 167.352 232.104C168 232.464 168.516 232.968 168.9 233.616C169.272 234.264 169.464 234.996 169.464 235.812C169.464 236.628 169.272 237.372 168.9 238.02C168.516 238.668 168 239.184 167.352 239.544C166.704 239.904 165.984 240.084 165.204 240.084C164.424 240.084 163.704 239.904 163.056 239.544ZM166.68 238.524C167.112 238.272 167.448 237.912 167.688 237.444C167.928 236.976 168.06 236.436 168.06 235.812C168.06 235.2 167.928 234.66 167.688 234.192C167.448 233.736 167.112 233.376 166.68 233.124C166.248 232.884 165.756 232.752 165.204 232.752C164.652 232.752 164.16 232.884 163.728 233.124C163.296 233.376 162.948 233.736 162.708 234.192C162.468 234.66 162.348 235.2 162.348 235.812C162.348 236.436 162.468 236.976 162.708 237.444C162.948 237.912 163.296 238.272 163.728 238.524C164.16 238.776 164.652 238.896 165.204 238.896C165.756 238.896 166.248 238.776 166.68 238.524ZM172.876 233.592C173.272 233.388 173.728 233.28 174.232 233.28C174.808 233.28 175.324 233.424 175.804 233.712C176.284 234 176.656 234.396 176.932 234.9C177.196 235.416 177.34 236.004 177.34 236.664C177.34 237.336 177.196 237.924 176.932 238.452C176.656 238.98 176.284 239.388 175.804 239.676C175.324 239.964 174.808 240.108 174.232 240.108C173.728 240.108 173.272 240.012 172.888 239.808C172.492 239.604 172.168 239.352 171.928 239.04V243.144H170.56V233.388H171.928V234.36C172.156 234.06 172.468 233.808 172.876 233.592ZM175.66 235.488C175.468 235.152 175.228 234.9 174.916 234.732C174.604 234.564 174.28 234.468 173.932 234.468C173.584 234.468 173.26 234.564 172.948 234.732C172.636 234.912 172.396 235.164 172.204 235.5C172.012 235.836 171.928 236.232 171.928 236.688C171.928 237.144 172.012 237.552 172.204 237.888C172.396 238.224 172.636 238.488 172.948 238.656C173.26 238.836 173.584 238.92 173.932 238.92C174.28 238.92 174.604 238.836 174.916 238.656C175.228 238.476 175.468 238.212 175.66 237.864C175.852 237.528 175.948 237.12 175.948 236.664C175.948 236.208 175.852 235.824 175.66 235.488ZM184.455 237.204H179.403C179.439 237.732 179.631 238.164 179.991 238.476C180.339 238.8 180.771 238.956 181.287 238.956C182.019 238.956 182.535 238.656 182.847 238.032H184.323C184.119 238.644 183.759 239.148 183.231 239.532C182.703 239.916 182.055 240.108 181.287 240.108C180.651 240.108 180.087 239.976 179.583 239.688C179.079 239.4 178.695 239.004 178.407 238.488C178.119 237.972 177.987 237.372 177.987 236.688C177.987 236.016 178.119 235.416 178.395 234.9C178.671 234.384 179.055 233.988 179.559 233.7C180.063 233.424 180.639 233.28 181.287 233.28C181.911 233.28 182.463 233.424 182.955 233.688C183.435 233.964 183.819 234.348 184.095 234.84C184.359 235.332 184.503 235.896 184.503 236.532C184.503 236.784 184.479 237.012 184.455 237.204ZM183.075 236.1C183.063 235.596 182.883 235.2 182.535 234.888C182.175 234.588 181.743 234.432 181.227 234.432C180.747 234.432 180.351 234.588 180.015 234.888C179.679 235.188 179.475 235.596 179.415 236.1H183.075ZM190.327 233.604C190.735 233.82 191.059 234.144 191.299 234.564C191.527 234.996 191.647 235.5 191.647 236.1V240H190.291V236.304C190.291 235.716 190.135 235.26 189.847 234.948C189.547 234.636 189.139 234.468 188.635 234.468C188.119 234.468 187.711 234.636 187.411 234.948C187.111 235.26 186.967 235.716 186.967 236.304V240H185.599V233.388H186.967V234.144C187.183 233.88 187.471 233.664 187.819 233.508C188.167 233.364 188.539 233.28 188.935 233.28C189.451 233.28 189.919 233.388 190.327 233.604Z" fill="#121212"/>
<circle cx="229" cy="236" r="4" fill="#4CA2A8"/>
<path d="M242.008 233.616C242.392 232.968 242.908 232.464 243.556 232.104C244.204 231.744 244.924 231.552 245.704 231.552C246.592 231.552 247.372 231.78 248.068 232.212C248.764 232.644 249.268 233.268 249.58 234.06H247.936C247.72 233.628 247.42 233.292 247.036 233.076C246.652 232.86 246.208 232.752 245.704 232.752C245.152 232.752 244.66 232.884 244.228 233.124C243.796 233.376 243.448 233.736 243.208 234.192C242.968 234.66 242.848 235.2 242.848 235.812C242.848 236.436 242.968 236.976 243.208 237.432C243.448 237.9 243.796 238.26 244.228 238.512C244.66 238.764 245.152 238.884 245.704 238.884C246.208 238.884 246.652 238.776 247.036 238.56C247.42 238.344 247.72 238.02 247.936 237.576H249.58C249.268 238.38 248.764 238.992 248.068 239.424C247.372 239.856 246.592 240.072 245.704 240.072C244.912 240.072 244.204 239.892 243.556 239.532C242.908 239.172 242.392 238.656 242.008 238.008C241.624 237.36 241.444 236.628 241.444 235.812C241.444 234.996 241.624 234.264 242.008 233.616ZM252.299 231.12V240H250.931V231.12H252.299ZM255.021 239.688C254.517 239.4 254.121 239.004 253.833 238.488C253.545 237.972 253.401 237.372 253.401 236.688C253.401 236.016 253.545 235.428 253.845 234.9C254.133 234.384 254.541 233.988 255.057 233.7C255.561 233.424 256.137 233.28 256.773 233.28C257.397 233.28 257.973 233.424 258.489 233.7C258.993 233.988 259.401 234.384 259.701 234.9C259.989 235.428 260.145 236.016 260.145 236.688C260.145 237.36 259.989 237.96 259.689 238.476C259.377 239.004 258.969 239.4 258.441 239.688C257.913 239.976 257.337 240.108 256.713 240.108C256.089 240.108 255.525 239.976 255.021 239.688ZM257.697 238.668C258.009 238.5 258.261 238.248 258.453 237.912C258.645 237.576 258.741 237.168 258.741 236.688C258.741 236.208 258.645 235.812 258.465 235.476C258.273 235.14 258.033 234.888 257.733 234.72C257.421 234.552 257.097 234.468 256.749 234.468C256.389 234.468 256.065 234.552 255.765 234.72C255.465 234.888 255.225 235.14 255.057 235.476C254.877 235.812 254.793 236.208 254.793 236.688C254.793 237.408 254.973 237.96 255.333 238.344C255.693 238.728 256.161 238.92 256.713 238.92C257.061 238.92 257.385 238.836 257.697 238.668ZM262.244 239.832C261.836 239.64 261.512 239.388 261.272 239.064C261.032 238.74 260.9 238.38 260.888 237.972H262.304C262.328 238.26 262.46 238.488 262.7 238.68C262.94 238.872 263.252 238.956 263.624 238.956C264.008 238.956 264.296 238.884 264.512 238.74C264.728 238.596 264.836 238.404 264.836 238.164C264.836 237.924 264.716 237.732 264.476 237.612C264.236 237.492 263.864 237.36 263.36 237.216C262.856 237.084 262.46 236.952 262.148 236.82C261.836 236.7 261.56 236.496 261.332 236.232C261.104 235.968 260.996 235.62 260.996 235.188C260.996 234.84 261.092 234.516 261.308 234.228C261.512 233.94 261.812 233.7 262.196 233.532C262.58 233.364 263.036 233.28 263.54 233.28C264.284 233.28 264.896 233.472 265.352 233.856C265.808 234.24 266.06 234.756 266.096 235.404H264.728C264.704 235.116 264.584 234.876 264.368 234.696C264.152 234.528 263.852 234.432 263.492 234.432C263.132 234.432 262.856 234.504 262.664 234.636C262.472 234.78 262.376 234.96 262.376 235.176C262.376 235.356 262.436 235.5 262.568 235.62C262.688 235.74 262.844 235.836 263.036 235.908C263.216 235.98 263.492 236.064 263.852 236.16C264.332 236.292 264.716 236.424 265.028 236.556C265.34 236.688 265.604 236.88 265.832 237.132C266.048 237.396 266.168 237.732 266.18 238.152C266.18 238.536 266.072 238.872 265.868 239.16C265.652 239.46 265.364 239.688 264.98 239.856C264.596 240.024 264.152 240.108 263.648 240.108C263.12 240.108 262.652 240.024 262.244 239.832ZM273.42 237.204H268.368C268.404 237.732 268.596 238.164 268.956 238.476C269.304 238.8 269.736 238.956 270.252 238.956C270.984 238.956 271.5 238.656 271.812 238.032H273.288C273.084 238.644 272.724 239.148 272.196 239.532C271.668 239.916 271.02 240.108 270.252 240.108C269.616 240.108 269.052 239.976 268.548 239.688C268.044 239.4 267.66 239.004 267.372 238.488C267.084 237.972 266.952 237.372 266.952 236.688C266.952 236.016 267.084 235.416 267.36 234.9C267.636 234.384 268.02 233.988 268.524 233.7C269.028 233.424 269.604 233.28 270.252 233.28C270.876 233.28 271.428 233.424 271.92 233.688C272.4 233.964 272.784 234.348 273.06 234.84C273.324 235.332 273.468 235.896 273.468 236.532C273.468 236.784 273.444 237.012 273.42 237.204ZM272.04 236.1C272.028 235.596 271.848 235.2 271.5 234.888C271.14 234.588 270.708 234.432 270.192 234.432C269.712 234.432 269.316 234.588 268.98 234.888C268.644 235.188 268.44 235.596 268.38 236.1H272.04ZM274.516 234.9C274.792 234.396 275.164 234 275.644 233.712C276.124 233.424 276.652 233.28 277.24 233.28C277.672 233.28 278.092 233.376 278.512 233.568C278.932 233.76 279.268 234 279.52 234.312V231.12H280.9V240H279.52V239.004C279.292 239.328 278.98 239.592 278.584 239.796C278.188 240.012 277.732 240.108 277.228 240.108C276.652 240.108 276.124 239.964 275.644 239.676C275.164 239.388 274.792 238.98 274.516 238.452C274.24 237.924 274.108 237.336 274.108 236.664C274.108 236.004 274.24 235.416 274.516 234.9ZM279.232 235.5C279.04 235.164 278.8 234.912 278.5 234.732C278.188 234.564 277.864 234.468 277.516 234.468C277.156 234.468 276.832 234.564 276.532 234.732C276.22 234.9 275.98 235.152 275.788 235.488C275.596 235.824 275.512 236.208 275.512 236.664C275.512 237.12 275.596 237.528 275.788 237.864C275.98 238.212 276.22 238.476 276.532 238.656C276.844 238.836 277.168 238.92 277.516 238.92C277.864 238.92 278.188 238.836 278.5 238.656C278.8 238.488 279.04 238.224 279.232 237.888C279.424 237.552 279.52 237.144 279.52 236.688C279.52 236.232 279.424 235.836 279.232 235.5Z" fill="#121212"/>
<path d="M129 114.5C129 160.616 166.384 198 212.5 198C258.616 198 296 160.616 296 114.5C296 68.3842 258.616 31 212.5 31C166.384 31 129 68.3842 129 114.5ZM262.6 114.5C262.6 142.169 240.169 164.6 212.5 164.6C184.831 164.6 162.4 142.169 162.4 114.5C162.4 86.8305 184.831 64.4 212.5 64.4C240.169 64.4 262.6 86.8305 262.6 114.5Z" fill="#666EB4"/>
<path d="M212.5 198C228.254 198 243.687 193.543 257.015 185.144C270.344 176.746 281.025 164.748 287.824 150.536C294.623 136.325 297.263 120.48 295.438 104.832C293.614 89.1836 287.401 74.3708 277.515 62.1043L251.509 83.0626C257.44 90.4225 261.169 99.3102 262.263 108.699C263.358 118.088 261.774 127.595 257.694 136.122C253.615 144.649 247.206 151.847 239.209 156.887C231.212 161.926 221.952 164.6 212.5 164.6L212.5 198Z" fill="#4CA2A8"/>
<path d="M198.164 111.112C198.244 109.512 198.804 108.28 199.844 107.416C200.9 106.536 202.284 106.096 203.996 106.096C205.164 106.096 206.164 106.304 206.996 106.72C207.828 107.12 208.452 107.672 208.868 108.376C209.3 109.064 209.516 109.848 209.516 110.728C209.516 111.736 209.252 112.592 208.724 113.296C208.212 113.984 207.596 114.448 206.876 114.688V114.784C207.804 115.072 208.524 115.584 209.036 116.32C209.564 117.056 209.828 118 209.828 119.152C209.828 120.112 209.604 120.968 209.156 121.72C208.724 122.472 208.076 123.064 207.212 123.496C206.364 123.912 205.34 124.12 204.14 124.12C202.332 124.12 200.86 123.664 199.724 122.752C198.588 121.84 197.988 120.496 197.924 118.72H201.188C201.22 119.504 201.484 120.136 201.98 120.616C202.492 121.08 203.188 121.312 204.068 121.312C204.884 121.312 205.508 121.088 205.94 120.64C206.388 120.176 206.612 119.584 206.612 118.864C206.612 117.904 206.308 117.216 205.7 116.8C205.092 116.384 204.148 116.176 202.868 116.176H202.172V113.416H202.868C205.14 113.416 206.276 112.656 206.276 111.136C206.276 110.448 206.068 109.912 205.652 109.528C205.252 109.144 204.668 108.952 203.9 108.952C203.148 108.952 202.564 109.16 202.148 109.576C201.748 109.976 201.516 110.488 201.452 111.112H198.164ZM223.743 109.408H215.967V113.512C216.303 113.096 216.783 112.76 217.407 112.504C218.031 112.232 218.695 112.096 219.399 112.096C220.679 112.096 221.727 112.376 222.543 112.936C223.359 113.496 223.951 114.216 224.319 115.096C224.687 115.96 224.871 116.888 224.871 117.88C224.871 119.72 224.343 121.2 223.287 122.32C222.247 123.44 220.759 124 218.823 124C216.999 124 215.543 123.544 214.455 122.632C213.367 121.72 212.751 120.528 212.607 119.056H215.871C216.015 119.696 216.335 120.208 216.831 120.592C217.343 120.976 217.991 121.168 218.775 121.168C219.719 121.168 220.431 120.872 220.911 120.28C221.391 119.688 221.631 118.904 221.631 117.928C221.631 116.936 221.383 116.184 220.887 115.672C220.407 115.144 219.695 114.88 218.751 114.88C218.079 114.88 217.519 115.048 217.071 115.384C216.623 115.72 216.303 116.168 216.111 116.728H212.895V106.456H223.743V109.408Z" fill="#121212"/>
<path opacity="0.5" d="M0 4C0 1.79086 1.79086 0 4 0H421C423.209 0 425 1.79086 425 4V261C425 263.209 423.209 265 421 265H3.99999C1.79086 265 0 263.209 0 261V4Z" fill="#EBEFEE"/>
</g>
</svg>
