<svg width="273" height="91" viewBox="0 0 273 91" fill="none" xmlns="http://www.w3.org/2000/svg">
<rect width="273" height="91" fill="#F5F5F5"/>
<rect x="-8518" y="-6087" width="23840" height="13376" fill="#F8FAF9"/>
<g style="mix-blend-mode:luminosity">
<g clip-path="url(#clip0_0_1)">
<path d="M0 0H273V87C273 89.2091 271.209 91 269 91H4C1.79086 91 0 89.2091 0 87V0Z" fill="white"/>
<rect x="193" y="17" width="60" height="60" rx="12" fill="#EBEFEE"/>
<path d="M217 37L217.01 43L221 47L217.01 51.01L217 57H229V51L225 47L229 43.01V37H217ZM227 51.5V55H219V51.5L223 47.5L227 51.5Z" fill="#595959"/>
<path d="M23.104 50.944C25.152 49.2373 26.784 47.8187 28 46.688C29.216 45.536 30.2293 44.3413 31.04 43.104C31.8507 41.8667 32.256 40.6507 32.256 39.456C32.256 38.368 32 37.5147 31.488 36.896C30.976 36.2773 30.1867 35.968 29.12 35.968C28.0533 35.968 27.232 36.3307 26.656 37.056C26.08 37.76 25.7813 38.7307 25.76 39.968H21.408C21.4933 37.408 22.2507 35.4667 23.68 34.144C25.1307 32.8213 26.9653 32.16 29.184 32.16C31.616 32.16 33.4827 32.8107 34.784 34.112C36.0853 35.392 36.736 37.088 36.736 39.2C36.736 40.864 36.288 42.4533 35.392 43.968C34.496 45.4827 33.472 46.8053 32.32 47.936C31.168 49.0453 29.664 50.3893 27.808 51.968H37.248V55.68H21.44V52.352L23.104 50.944ZM39.027 36.8V32.672H46.739V56H42.131V36.8H39.027ZM62.7608 38.496C62.5474 37.6 62.1741 36.928 61.6408 36.48C61.1288 36.032 60.3821 35.808 59.4008 35.808C57.9288 35.808 56.8408 36.4053 56.1368 37.6C55.4541 38.7733 55.1021 40.6933 55.0808 43.36C55.5928 42.5067 56.3394 41.8453 57.3208 41.376C58.3021 40.8853 59.3688 40.64 60.5208 40.64C61.9074 40.64 63.1341 40.9387 64.2008 41.536C65.2674 42.1333 66.0994 43.008 66.6968 44.16C67.2941 45.2907 67.5928 46.656 67.5928 48.256C67.5928 49.7707 67.2834 51.1253 66.6648 52.32C66.0674 53.4933 65.1821 54.4107 64.0088 55.072C62.8354 55.7333 61.4381 56.064 59.8168 56.064C57.5981 56.064 55.8488 55.5733 54.5688 54.592C53.3101 53.6107 52.4248 52.2453 51.9128 50.496C51.4221 48.7253 51.1768 46.5493 51.1768 43.968C51.1768 40.064 51.8488 37.12 53.1927 35.136C54.5368 33.1307 56.6594 32.128 59.5608 32.128C61.8008 32.128 63.5394 32.736 64.7768 33.952C66.0141 35.168 66.7288 36.6827 66.9208 38.496H62.7608ZM59.4968 44.32C58.3661 44.32 57.4168 44.6507 56.6488 45.312C55.8808 45.9733 55.4968 46.9333 55.4968 48.192C55.4968 49.4507 55.8488 50.4427 56.5528 51.168C57.2781 51.8933 58.2914 52.256 59.5928 52.256C60.7448 52.256 61.6514 51.904 62.3128 51.2C62.9954 50.496 63.3368 49.5467 63.3368 48.352C63.3368 47.1147 63.0061 46.1333 62.3448 45.408C61.7048 44.6827 60.7554 44.32 59.4968 44.32ZM70.6975 38.816C70.8042 36.6827 71.5508 35.04 72.9375 33.888C74.3455 32.7147 76.1908 32.128 78.4735 32.128C80.0308 32.128 81.3642 32.4053 82.4735 32.96C83.5828 33.4933 84.4148 34.2293 84.9695 35.168C85.5455 36.0853 85.8335 37.1307 85.8335 38.304C85.8335 39.648 85.4815 40.7893 84.7775 41.728C84.0948 42.6453 83.2735 43.264 82.3135 43.584V43.712C83.5508 44.096 84.5108 44.7787 85.1935 45.76C85.8975 46.7413 86.2495 48 86.2495 49.536C86.2495 50.816 85.9508 51.9573 85.3535 52.96C84.7775 53.9627 83.9135 54.752 82.7615 55.328C81.6308 55.8827 80.2655 56.16 78.6655 56.16C76.2548 56.16 74.2922 55.552 72.7775 54.336C71.2628 53.12 70.4628 51.328 70.3775 48.96H74.7295C74.7722 50.0053 75.1242 50.848 75.7855 51.488C76.4682 52.1067 77.3962 52.416 78.5695 52.416C79.6575 52.416 80.4895 52.1173 81.0655 51.52C81.6628 50.9013 81.9615 50.112 81.9615 49.152C81.9615 47.872 81.5562 46.9547 80.7455 46.4C79.9348 45.8453 78.6762 45.568 76.9695 45.568H76.0415V41.888H76.9695C79.9988 41.888 81.5135 40.8747 81.5135 38.848C81.5135 37.9307 81.2362 37.216 80.6815 36.704C80.1482 36.192 79.3695 35.936 78.3455 35.936C77.3428 35.936 76.5642 36.2133 76.0095 36.768C75.4762 37.3013 75.1668 37.984 75.0815 38.816H70.6975Z" fill="#121212"/>
<path opacity="0.5" d="M0 0H273V88C273 89.6569 271.657 91 270 91H3C1.34315 91 0 89.6569 0 88V0Z" fill="#EBEFEE"/>
</g>
</g>
<defs>
<clipPath id="clip0_0_1">
<path d="M0 0H273V87C273 89.2091 271.209 91 269 91H4C1.79086 91 0 89.2091 0 87V0Z" fill="white"/>
</clipPath>
</defs>
</svg>
