<svg width="883" height="265" viewBox="0 0 883 265" fill="none" xmlns="http://www.w3.org/2000/svg">
<rect width="883" height="265" fill="#F5F5F5"/>
<rect x="-16009" y="-6064" width="23840" height="13376" fill="#F8FAF9"/>
<g style="mix-blend-mode:luminosity">
<rect width="882" height="265" rx="4" fill="white"/>
<line x1="192" y1="137.5" x2="197" y2="137.5" stroke="black"/>
<path d="M77.476 239.14C78.244 238.48 78.844 237.94 79.288 237.508C79.732 237.076 80.104 236.632 80.404 236.164C80.692 235.708 80.848 235.24 80.848 234.772C80.848 234.292 80.728 233.92 80.5 233.644C80.272 233.38 79.912 233.236 79.432 233.236C78.952 233.236 78.592 233.392 78.328 233.692C78.064 233.992 77.932 234.388 77.92 234.892H76.6C76.624 233.98 76.888 233.284 77.416 232.804C77.944 232.324 78.604 232.072 79.42 232.072C80.284 232.072 80.968 232.312 81.46 232.792C81.952 233.272 82.204 233.92 82.204 234.712C82.204 235.288 82.048 235.852 81.76 236.38C81.472 236.908 81.124 237.388 80.716 237.808C80.308 238.228 79.804 238.708 79.18 239.26L78.64 239.74H82.444V240.88H76.612V239.884L77.476 239.14ZM84.0918 233.272C84.5598 232.492 85.3638 232.096 86.5158 232.096C87.6558 232.096 88.4598 232.492 88.9278 233.272C89.3958 234.052 89.6358 235.132 89.6358 236.512C89.6358 237.916 89.3958 239.008 88.9278 239.8C88.4598 240.592 87.6558 240.976 86.5158 240.976C85.3638 240.976 84.5598 240.592 84.0918 239.8C83.6238 239.008 83.3958 237.916 83.3958 236.512C83.3958 235.132 83.6238 234.052 84.0918 233.272ZM88.1598 234.868C88.0758 234.424 87.9078 234.064 87.6558 233.776C87.3918 233.488 87.0198 233.344 86.5158 233.344C86.0118 233.344 85.6278 233.488 85.3758 233.776C85.1118 234.064 84.9438 234.424 84.8598 234.868C84.7758 235.324 84.7398 235.864 84.7398 236.512C84.7398 237.184 84.7758 237.748 84.8598 238.204C84.9318 238.66 85.0998 239.032 85.3638 239.308C85.6278 239.596 86.0118 239.728 86.5158 239.728C87.0198 239.728 87.3918 239.596 87.6558 239.308C87.9198 239.032 88.0878 238.66 88.1718 238.204C88.2438 237.748 88.2918 237.184 88.2918 236.512C88.2918 235.864 88.2438 235.324 88.1598 234.868ZM91.5893 239.14C92.3573 238.48 92.9573 237.94 93.4013 237.508C93.8453 237.076 94.2173 236.632 94.5173 236.164C94.8053 235.708 94.9613 235.24 94.9613 234.772C94.9613 234.292 94.8413 233.92 94.6133 233.644C94.3853 233.38 94.0253 233.236 93.5453 233.236C93.0653 233.236 92.7053 233.392 92.4413 233.692C92.1773 233.992 92.0453 234.388 92.0333 234.892H90.7133C90.7373 233.98 91.0013 233.284 91.5293 232.804C92.0573 232.324 92.7173 232.072 93.5333 232.072C94.3973 232.072 95.0813 232.312 95.5733 232.792C96.0653 233.272 96.3173 233.92 96.3173 234.712C96.3173 235.288 96.1613 235.852 95.8733 236.38C95.5853 236.908 95.2373 237.388 94.8293 237.808C94.4213 238.228 93.9173 238.708 93.2933 239.26L92.7533 239.74H96.5573V240.88H90.7253V239.884L91.5893 239.14ZM98.2651 239.14C99.0331 238.48 99.6331 237.94 100.077 237.508C100.521 237.076 100.893 236.632 101.193 236.164C101.481 235.708 101.637 235.24 101.637 234.772C101.637 234.292 101.517 233.92 101.289 233.644C101.061 233.38 100.701 233.236 100.221 233.236C99.7411 233.236 99.3811 233.392 99.1171 233.692C98.8531 233.992 98.7211 234.388 98.7091 234.892H97.3891C97.4131 233.98 97.6771 233.284 98.2051 232.804C98.7331 232.324 99.3931 232.072 100.209 232.072C101.073 232.072 101.757 232.312 102.249 232.792C102.741 233.272 102.993 233.92 102.993 234.712C102.993 235.288 102.837 235.852 102.549 236.38C102.261 236.908 101.913 237.388 101.505 237.808C101.097 238.228 100.593 238.708 99.9691 239.26L99.4291 239.74H103.233V240.88H97.4011V239.884L98.2651 239.14ZM109.441 236.08V237.232H104.509V236.08H109.441ZM110.774 233.5V232.252H113.27V241H111.89V233.5H110.774ZM115.656 239.14C116.424 238.48 117.024 237.94 117.468 237.508C117.912 237.076 118.284 236.632 118.584 236.164C118.872 235.708 119.028 235.24 119.028 234.772C119.028 234.292 118.908 233.92 118.68 233.644C118.452 233.38 118.092 233.236 117.612 233.236C117.132 233.236 116.772 233.392 116.508 233.692C116.244 233.992 116.112 234.388 116.1 234.892H114.78C114.804 233.98 115.068 233.284 115.596 232.804C116.124 232.324 116.784 232.072 117.6 232.072C118.464 232.072 119.148 232.312 119.64 232.792C120.132 233.272 120.384 233.92 120.384 234.712C120.384 235.288 120.228 235.852 119.94 236.38C119.652 236.908 119.304 237.388 118.896 237.808C118.488 238.228 117.984 238.708 117.36 239.26L116.82 239.74H120.624V240.88H114.792V239.884L115.656 239.14ZM126.831 236.08V237.232H121.899V236.08H126.831ZM129.173 232.672C129.701 232.264 130.373 232.048 131.189 232.048C131.741 232.048 132.233 232.156 132.641 232.348C133.049 232.552 133.349 232.828 133.565 233.164C133.769 233.512 133.877 233.896 133.877 234.328C133.877 234.832 133.745 235.252 133.481 235.6C133.217 235.96 132.893 236.188 132.533 236.308V236.356C133.001 236.5 133.373 236.764 133.637 237.148C133.901 237.532 134.033 238.012 134.033 238.6C134.033 239.08 133.925 239.5 133.709 239.86C133.493 240.232 133.169 240.52 132.749 240.736C132.317 240.952 131.813 241.048 131.225 241.048C130.361 241.048 129.641 240.832 129.089 240.388C128.537 239.944 128.237 239.308 128.201 238.468H129.521C129.545 238.9 129.713 239.248 130.013 239.512C130.301 239.776 130.709 239.908 131.213 239.908C131.693 239.908 132.077 239.776 132.341 239.512C132.605 239.248 132.737 238.9 132.737 238.468C132.737 237.916 132.557 237.52 132.197 237.28C131.837 237.04 131.297 236.92 130.565 236.92H130.253V235.792H130.577C131.225 235.792 131.717 235.684 132.053 235.468C132.389 235.264 132.569 234.94 132.569 234.484C132.569 234.1 132.437 233.8 132.197 233.572C131.945 233.344 131.597 233.224 131.141 233.224C130.685 233.224 130.337 233.344 130.097 233.572C129.845 233.8 129.701 234.076 129.653 234.412H128.321C128.369 233.668 128.645 233.092 129.173 232.672ZM135.916 233.272C136.384 232.492 137.188 232.096 138.34 232.096C139.48 232.096 140.284 232.492 140.752 233.272C141.22 234.052 141.46 235.132 141.46 236.512C141.46 237.916 141.22 239.008 140.752 239.8C140.284 240.592 139.48 240.976 138.34 240.976C137.188 240.976 136.384 240.592 135.916 239.8C135.448 239.008 135.22 237.916 135.22 236.512C135.22 235.132 135.448 234.052 135.916 233.272ZM139.984 234.868C139.9 234.424 139.732 234.064 139.48 233.776C139.216 233.488 138.844 233.344 138.34 233.344C137.836 233.344 137.452 233.488 137.2 233.776C136.936 234.064 136.768 234.424 136.684 234.868C136.6 235.324 136.564 235.864 136.564 236.512C136.564 237.184 136.6 237.748 136.684 238.204C136.756 238.66 136.924 239.032 137.188 239.308C137.452 239.596 137.836 239.728 138.34 239.728C138.844 239.728 139.216 239.596 139.48 239.308C139.744 239.032 139.912 238.66 139.996 238.204C140.068 237.748 140.116 237.184 140.116 236.512C140.116 235.864 140.068 235.324 139.984 234.868ZM149.088 233.272C149.556 232.492 150.36 232.096 151.512 232.096C152.652 232.096 153.456 232.492 153.924 233.272C154.392 234.052 154.632 235.132 154.632 236.512C154.632 237.916 154.392 239.008 153.924 239.8C153.456 240.592 152.652 240.976 151.512 240.976C150.36 240.976 149.556 240.592 149.088 239.8C148.62 239.008 148.392 237.916 148.392 236.512C148.392 235.132 148.62 234.052 149.088 233.272ZM153.156 234.868C153.072 234.424 152.904 234.064 152.652 233.776C152.388 233.488 152.016 233.344 151.512 233.344C151.008 233.344 150.624 233.488 150.372 233.776C150.108 234.064 149.94 234.424 149.856 234.868C149.772 235.324 149.736 235.864 149.736 236.512C149.736 237.184 149.772 237.748 149.856 238.204C149.928 238.66 150.096 239.032 150.36 239.308C150.624 239.596 151.008 239.728 151.512 239.728C152.016 239.728 152.388 239.596 152.652 239.308C152.916 239.032 153.084 238.66 153.168 238.204C153.24 237.748 153.288 237.184 153.288 236.512C153.288 235.864 153.24 235.324 153.156 234.868ZM161.373 233.308L158.037 241H156.657L160.029 233.452H155.589V232.288H161.373V233.308ZM162.402 240.832C162.234 240.664 162.15 240.46 162.15 240.208C162.15 239.968 162.234 239.752 162.402 239.584C162.57 239.416 162.774 239.332 163.026 239.332C163.266 239.332 163.47 239.416 163.638 239.584C163.806 239.752 163.89 239.968 163.89 240.208C163.89 240.46 163.806 240.664 163.638 240.832C163.47 241 163.266 241.084 163.026 241.084C162.774 241.084 162.57 241 162.402 240.832ZM162.402 235.792C162.234 235.624 162.15 235.42 162.15 235.168C162.15 234.928 162.234 234.712 162.402 234.544C162.57 234.376 162.774 234.292 163.026 234.292C163.266 234.292 163.47 234.376 163.638 234.544C163.806 234.712 163.89 234.928 163.89 235.168C163.89 235.42 163.806 235.624 163.638 235.792C163.47 235.96 163.266 236.044 163.026 236.044C162.774 236.044 162.57 235.96 162.402 235.792ZM165.742 239.14C166.51 238.48 167.11 237.94 167.554 237.508C167.998 237.076 168.37 236.632 168.67 236.164C168.958 235.708 169.114 235.24 169.114 234.772C169.114 234.292 168.994 233.92 168.766 233.644C168.538 233.38 168.178 233.236 167.698 233.236C167.218 233.236 166.858 233.392 166.594 233.692C166.33 233.992 166.198 234.388 166.186 234.892H164.866C164.89 233.98 165.154 233.284 165.682 232.804C166.21 232.324 166.87 232.072 167.686 232.072C168.55 232.072 169.234 232.312 169.726 232.792C170.218 233.272 170.47 233.92 170.47 234.712C170.47 235.288 170.314 235.852 170.026 236.38C169.738 236.908 169.39 237.388 168.982 237.808C168.574 238.228 168.07 238.708 167.446 239.26L166.906 239.74H170.71V240.88H164.878V239.884L165.742 239.14ZM172.357 233.272C172.825 232.492 173.629 232.096 174.781 232.096C175.921 232.096 176.725 232.492 177.193 233.272C177.661 234.052 177.901 235.132 177.901 236.512C177.901 237.916 177.661 239.008 177.193 239.8C176.725 240.592 175.921 240.976 174.781 240.976C173.629 240.976 172.825 240.592 172.357 239.8C171.889 239.008 171.661 237.916 171.661 236.512C171.661 235.132 171.889 234.052 172.357 233.272ZM176.425 234.868C176.341 234.424 176.173 234.064 175.921 233.776C175.657 233.488 175.285 233.344 174.781 233.344C174.277 233.344 173.893 233.488 173.641 233.776C173.377 234.064 173.209 234.424 173.125 234.868C173.041 235.324 173.005 235.864 173.005 236.512C173.005 237.184 173.041 237.748 173.125 238.204C173.197 238.66 173.365 239.032 173.629 239.308C173.893 239.596 174.277 239.728 174.781 239.728C175.285 239.728 175.657 239.596 175.921 239.308C176.185 239.032 176.353 238.66 176.437 238.204C176.509 237.748 176.557 237.184 176.557 236.512C176.557 235.864 176.509 235.324 176.425 234.868ZM187.222 236.08V237.232H182.29V236.08H187.222ZM196.811 239.296H193.319L192.719 241H191.291L194.279 232.648H195.863L198.851 241H197.411L196.811 239.296ZM196.427 238.18L195.071 234.304L193.703 238.18H196.427ZM205.888 234.388V241H204.52V240.22C204.304 240.496 204.016 240.712 203.668 240.868C203.32 241.024 202.948 241.096 202.564 241.096C202.036 241.096 201.568 240.988 201.16 240.772C200.752 240.556 200.428 240.244 200.188 239.812C199.948 239.392 199.84 238.876 199.84 238.276V234.388H201.196V238.072C201.196 238.672 201.34 239.128 201.64 239.44C201.928 239.752 202.336 239.908 202.852 239.908C203.356 239.908 203.764 239.752 204.064 239.44C204.364 239.128 204.52 238.672 204.52 238.072V234.388H205.888ZM208.439 240.832C208.031 240.64 207.707 240.388 207.467 240.064C207.227 239.74 207.095 239.38 207.083 238.972H208.499C208.523 239.26 208.655 239.488 208.895 239.68C209.135 239.872 209.447 239.956 209.819 239.956C210.203 239.956 210.491 239.884 210.707 239.74C210.923 239.596 211.031 239.404 211.031 239.164C211.031 238.924 210.911 238.732 210.671 238.612C210.431 238.492 210.059 238.36 209.555 238.216C209.051 238.084 208.655 237.952 208.343 237.82C208.031 237.7 207.755 237.496 207.527 237.232C207.299 236.968 207.191 236.62 207.191 236.188C207.191 235.84 207.287 235.516 207.503 235.228C207.707 234.94 208.007 234.7 208.391 234.532C208.775 234.364 209.231 234.28 209.735 234.28C210.479 234.28 211.091 234.472 211.547 234.856C212.003 235.24 212.255 235.756 212.291 236.404H210.923C210.899 236.116 210.779 235.876 210.563 235.696C210.347 235.528 210.047 235.432 209.687 235.432C209.327 235.432 209.051 235.504 208.859 235.636C208.667 235.78 208.571 235.96 208.571 236.176C208.571 236.356 208.631 236.5 208.763 236.62C208.883 236.74 209.039 236.836 209.231 236.908C209.411 236.98 209.687 237.064 210.047 237.16C210.527 237.292 210.911 237.424 211.223 237.556C211.535 237.688 211.799 237.88 212.027 238.132C212.243 238.396 212.363 238.732 212.375 239.152C212.375 239.536 212.267 239.872 212.063 240.16C211.847 240.46 211.559 240.688 211.175 240.856C210.791 241.024 210.347 241.108 209.843 241.108C209.315 241.108 208.847 241.024 208.439 240.832ZM215.199 235.504V239.164C215.199 239.416 215.247 239.596 215.367 239.704C215.487 239.812 215.679 239.86 215.967 239.86H216.807V241H215.727C215.103 241 214.635 240.856 214.311 240.568C213.975 240.28 213.819 239.812 213.819 239.164V235.504H213.039V234.388H213.819V232.744H215.199V234.388H216.807V235.504H215.199ZM219.978 234.568C220.314 234.376 220.71 234.28 221.166 234.28V235.696H220.818C220.278 235.696 219.87 235.84 219.594 236.104C219.318 236.38 219.186 236.848 219.186 237.52V241H217.818V234.388H219.186V235.348C219.378 235.012 219.642 234.76 219.978 234.568ZM222.125 235.9C222.401 235.396 222.773 235 223.253 234.712C223.733 234.424 224.261 234.28 224.837 234.28C225.353 234.28 225.809 234.388 226.193 234.592C226.577 234.796 226.889 235.048 227.129 235.348V234.388H228.509V241H227.129V240.016C226.889 240.328 226.577 240.592 226.181 240.796C225.773 241.012 225.317 241.108 224.813 241.108C224.237 241.108 223.721 240.964 223.253 240.676C222.773 240.388 222.401 239.98 222.125 239.452C221.849 238.924 221.717 238.336 221.717 237.664C221.717 237.004 221.849 236.416 222.125 235.9ZM226.841 236.5C226.649 236.164 226.409 235.912 226.109 235.732C225.797 235.564 225.473 235.468 225.125 235.468C224.765 235.468 224.441 235.564 224.141 235.732C223.829 235.9 223.589 236.152 223.397 236.488C223.205 236.824 223.121 237.208 223.121 237.664C223.121 238.12 223.205 238.528 223.397 238.864C223.589 239.212 223.829 239.476 224.141 239.656C224.453 239.836 224.777 239.92 225.125 239.92C225.473 239.92 225.797 239.836 226.109 239.656C226.409 239.488 226.649 239.224 226.841 238.888C227.033 238.552 227.129 238.144 227.129 237.688C227.129 237.232 227.033 236.836 226.841 236.5ZM231.424 232.12V241H230.056V232.12H231.424ZM233.042 233.26C232.874 233.092 232.79 232.888 232.79 232.636C232.79 232.396 232.874 232.18 233.042 232.012C233.21 231.844 233.414 231.76 233.666 231.76C233.906 231.76 234.11 231.844 234.278 232.012C234.446 232.18 234.53 232.396 234.53 232.636C234.53 232.888 234.446 233.092 234.278 233.26C234.11 233.428 233.906 233.512 233.666 233.512C233.414 233.512 233.21 233.428 233.042 233.26ZM234.338 234.388V241H232.97V234.388H234.338ZM235.836 235.9C236.112 235.396 236.484 235 236.964 234.712C237.444 234.424 237.972 234.28 238.548 234.28C239.064 234.28 239.52 234.388 239.904 234.592C240.288 234.796 240.6 235.048 240.84 235.348V234.388H242.22V241H240.84V240.016C240.6 240.328 240.288 240.592 239.892 240.796C239.484 241.012 239.028 241.108 238.524 241.108C237.948 241.108 237.432 240.964 236.964 240.676C236.484 240.388 236.112 239.98 235.836 239.452C235.56 238.924 235.428 238.336 235.428 237.664C235.428 237.004 235.56 236.416 235.836 235.9ZM240.552 236.5C240.36 236.164 240.12 235.912 239.82 235.732C239.508 235.564 239.184 235.468 238.836 235.468C238.476 235.468 238.152 235.564 237.852 235.732C237.54 235.9 237.3 236.152 237.108 236.488C236.916 236.824 236.832 237.208 236.832 237.664C236.832 238.12 236.916 238.528 237.108 238.864C237.3 239.212 237.54 239.476 237.852 239.656C238.164 239.836 238.488 239.92 238.836 239.92C239.184 239.92 239.508 239.836 239.82 239.656C240.12 239.488 240.36 239.224 240.552 238.888C240.744 238.552 240.84 238.144 240.84 237.688C240.84 237.232 240.744 236.836 240.552 236.5ZM251.074 229.672L247.81 243.1H246.466L249.718 229.672H251.074ZM261.02 237.424C261.332 237.82 261.488 238.264 261.488 238.756C261.488 239.188 261.368 239.572 261.152 239.908C260.936 240.244 260.612 240.52 260.204 240.712C259.784 240.904 259.304 241 258.752 241H255.416V232.66H258.596C259.16 232.66 259.652 232.756 260.06 232.948C260.468 233.14 260.768 233.404 260.984 233.728C261.188 234.052 261.296 234.412 261.296 234.808C261.296 235.288 261.164 235.696 260.912 236.008C260.648 236.332 260.312 236.572 259.88 236.716C260.324 236.8 260.708 237.04 261.02 237.424ZM256.784 236.164H258.476C258.92 236.164 259.268 236.068 259.52 235.864C259.772 235.66 259.904 235.36 259.904 234.976C259.904 234.604 259.772 234.316 259.52 234.1C259.268 233.884 258.92 233.776 258.476 233.776H256.784V236.164ZM259.724 239.548C259.988 239.332 260.12 239.02 260.12 238.612C260.12 238.204 259.976 237.88 259.7 237.64C259.412 237.4 259.04 237.28 258.584 237.28H256.784V239.884H258.632C259.088 239.884 259.46 239.776 259.724 239.548ZM264.884 234.568C265.22 234.376 265.616 234.28 266.072 234.28V235.696H265.724C265.184 235.696 264.776 235.84 264.5 236.104C264.224 236.38 264.092 236.848 264.092 237.52V241H262.724V234.388H264.092V235.348C264.284 235.012 264.548 234.76 264.884 234.568ZM267.152 233.26C266.984 233.092 266.9 232.888 266.9 232.636C266.9 232.396 266.984 232.18 267.152 232.012C267.32 231.844 267.524 231.76 267.776 231.76C268.016 231.76 268.22 231.844 268.388 232.012C268.556 232.18 268.64 232.396 268.64 232.636C268.64 232.888 268.556 233.092 268.388 233.26C268.22 233.428 268.016 233.512 267.776 233.512C267.524 233.512 267.32 233.428 267.152 233.26ZM268.448 234.388V241H267.08V234.388H268.448ZM270.99 240.832C270.582 240.64 270.258 240.388 270.018 240.064C269.778 239.74 269.646 239.38 269.634 238.972H271.05C271.074 239.26 271.206 239.488 271.446 239.68C271.686 239.872 271.998 239.956 272.37 239.956C272.754 239.956 273.042 239.884 273.258 239.74C273.474 239.596 273.582 239.404 273.582 239.164C273.582 238.924 273.462 238.732 273.222 238.612C272.982 238.492 272.61 238.36 272.106 238.216C271.602 238.084 271.206 237.952 270.894 237.82C270.582 237.7 270.306 237.496 270.078 237.232C269.85 236.968 269.742 236.62 269.742 236.188C269.742 235.84 269.838 235.516 270.054 235.228C270.258 234.94 270.558 234.7 270.942 234.532C271.326 234.364 271.782 234.28 272.286 234.28C273.03 234.28 273.642 234.472 274.098 234.856C274.554 235.24 274.806 235.756 274.842 236.404H273.474C273.45 236.116 273.33 235.876 273.114 235.696C272.898 235.528 272.598 235.432 272.238 235.432C271.878 235.432 271.602 235.504 271.41 235.636C271.218 235.78 271.122 235.96 271.122 236.176C271.122 236.356 271.182 236.5 271.314 236.62C271.434 236.74 271.59 236.836 271.782 236.908C271.962 236.98 272.238 237.064 272.598 237.16C273.078 237.292 273.462 237.424 273.774 237.556C274.086 237.688 274.35 237.88 274.578 238.132C274.794 238.396 274.914 238.732 274.926 239.152C274.926 239.536 274.818 239.872 274.614 240.16C274.398 240.46 274.11 240.688 273.726 240.856C273.342 241.024 272.898 241.108 272.394 241.108C271.866 241.108 271.398 241.024 270.99 240.832ZM278.47 234.592C278.878 234.388 279.322 234.28 279.826 234.28C280.402 234.28 280.93 234.424 281.41 234.7C281.878 234.988 282.25 235.384 282.526 235.9C282.79 236.416 282.934 237.004 282.934 237.664C282.934 238.336 282.79 238.924 282.526 239.452C282.25 239.98 281.878 240.388 281.398 240.676C280.918 240.964 280.402 241.108 279.826 241.108C279.31 241.108 278.854 241.012 278.458 240.808C278.062 240.616 277.75 240.352 277.522 240.04V241H276.154V232.12H277.522V235.372C277.75 235.06 278.062 234.796 278.47 234.592ZM281.254 236.488C281.062 236.152 280.822 235.9 280.51 235.732C280.198 235.564 279.874 235.468 279.526 235.468C279.178 235.468 278.854 235.564 278.542 235.732C278.23 235.912 277.99 236.164 277.798 236.5C277.606 236.836 277.522 237.232 277.522 237.688C277.522 238.144 277.606 238.552 277.798 238.888C277.99 239.224 278.23 239.488 278.542 239.656C278.854 239.836 279.178 239.92 279.526 239.92C279.874 239.92 280.198 239.836 280.51 239.656C280.822 239.476 281.062 239.212 281.254 238.864C281.446 238.528 281.542 238.12 281.542 237.664C281.542 237.208 281.446 236.824 281.254 236.488ZM283.989 235.9C284.265 235.396 284.637 235 285.117 234.712C285.597 234.424 286.125 234.28 286.701 234.28C287.217 234.28 287.673 234.388 288.057 234.592C288.441 234.796 288.753 235.048 288.993 235.348V234.388H290.373V241H288.993V240.016C288.753 240.328 288.441 240.592 288.045 240.796C287.637 241.012 287.181 241.108 286.677 241.108C286.101 241.108 285.585 240.964 285.117 240.676C284.637 240.388 284.265 239.98 283.989 239.452C283.713 238.924 283.581 238.336 283.581 237.664C283.581 237.004 283.713 236.416 283.989 235.9ZM288.705 236.5C288.513 236.164 288.273 235.912 287.973 235.732C287.661 235.564 287.337 235.468 286.989 235.468C286.629 235.468 286.305 235.564 286.005 235.732C285.693 235.9 285.453 236.152 285.261 236.488C285.069 236.824 284.985 237.208 284.985 237.664C284.985 238.12 285.069 238.528 285.261 238.864C285.453 239.212 285.693 239.476 286.005 239.656C286.317 239.836 286.641 239.92 286.989 239.92C287.337 239.92 287.661 239.836 287.973 239.656C288.273 239.488 288.513 239.224 288.705 238.888C288.897 238.552 288.993 238.144 288.993 237.688C288.993 237.232 288.897 236.836 288.705 236.5ZM296.648 234.604C297.056 234.82 297.38 235.144 297.62 235.564C297.848 235.996 297.968 236.5 297.968 237.1V241H296.612V237.304C296.612 236.716 296.456 236.26 296.168 235.948C295.868 235.636 295.46 235.468 294.956 235.468C294.44 235.468 294.032 235.636 293.732 235.948C293.432 236.26 293.288 236.716 293.288 237.304V241H291.92V234.388H293.288V235.144C293.504 234.88 293.792 234.664 294.14 234.508C294.488 234.364 294.86 234.28 295.256 234.28C295.772 234.28 296.24 234.388 296.648 234.604ZM305.475 238.204H300.423C300.459 238.732 300.651 239.164 301.011 239.476C301.359 239.8 301.791 239.956 302.307 239.956C303.039 239.956 303.555 239.656 303.867 239.032H305.342C305.139 239.644 304.779 240.148 304.251 240.532C303.723 240.916 303.075 241.108 302.307 241.108C301.671 241.108 301.107 240.976 300.603 240.688C300.099 240.4 299.715 240.004 299.427 239.488C299.139 238.972 299.007 238.372 299.007 237.688C299.007 237.016 299.139 236.416 299.415 235.9C299.691 235.384 300.075 234.988 300.579 234.7C301.083 234.424 301.659 234.28 302.307 234.28C302.931 234.28 303.483 234.424 303.975 234.688C304.455 234.964 304.839 235.348 305.115 235.84C305.379 236.332 305.523 236.896 305.523 237.532C305.523 237.784 305.499 238.012 305.475 238.204ZM304.095 237.1C304.083 236.596 303.903 236.2 303.555 235.888C303.195 235.588 302.763 235.432 302.247 235.432C301.767 235.432 301.371 235.588 301.035 235.888C300.699 236.188 300.495 236.596 300.435 237.1H304.095Z" fill="#121212"/>
<path d="M304.166 103H303.135V97.6504C303.135 97.4824 303.135 97.3027 303.135 97.1113C303.139 96.9199 303.143 96.7305 303.146 96.543C303.154 96.3516 303.16 96.1699 303.164 95.998C303.172 95.8223 303.178 95.668 303.182 95.5352C303.115 95.6055 303.057 95.666 303.006 95.7168C302.955 95.7676 302.902 95.8164 302.848 95.8633C302.797 95.9102 302.742 95.9609 302.684 96.0156C302.625 96.0664 302.555 96.127 302.473 96.1973L301.605 96.9062L301.043 96.1855L303.287 94.4336H304.166V103ZM312.656 98.7051C312.656 99.3965 312.605 100.016 312.504 100.562C312.406 101.109 312.246 101.572 312.023 101.951C311.805 102.33 311.521 102.619 311.174 102.818C310.826 103.018 310.404 103.117 309.908 103.117C309.447 103.117 309.045 103.018 308.701 102.818C308.361 102.619 308.078 102.33 307.852 101.951C307.629 101.572 307.461 101.109 307.348 100.562C307.238 100.016 307.184 99.3965 307.184 98.7051C307.184 98.0137 307.232 97.3945 307.33 96.8477C307.432 96.3008 307.59 95.8398 307.805 95.4648C308.023 95.0859 308.305 94.7969 308.648 94.5977C308.996 94.3984 309.416 94.2988 309.908 94.2988C310.373 94.2988 310.777 94.3984 311.121 94.5977C311.465 94.793 311.75 95.0801 311.977 95.459C312.203 95.834 312.373 96.2949 312.486 96.8418C312.6 97.3887 312.656 98.0098 312.656 98.7051ZM308.268 98.7051C308.268 99.291 308.297 99.8027 308.355 100.24C308.414 100.678 308.508 101.043 308.637 101.336C308.766 101.625 308.934 101.844 309.141 101.992C309.352 102.137 309.607 102.209 309.908 102.209C310.209 102.209 310.465 102.137 310.676 101.992C310.887 101.848 311.059 101.631 311.191 101.342C311.328 101.053 311.426 100.689 311.484 100.252C311.547 99.8105 311.578 99.2949 311.578 98.7051C311.578 98.1191 311.547 97.6074 311.484 97.1699C311.426 96.7324 311.328 96.3691 311.191 96.0801C311.059 95.791 310.887 95.5742 310.676 95.4297C310.465 95.2852 310.209 95.2129 309.908 95.2129C309.607 95.2129 309.352 95.2852 309.141 95.4297C308.934 95.5742 308.766 95.791 308.637 96.0801C308.508 96.3691 308.414 96.7324 308.355 97.1699C308.297 97.6074 308.268 98.1191 308.268 98.7051ZM319.266 98.7051C319.266 99.3965 319.215 100.016 319.113 100.562C319.016 101.109 318.855 101.572 318.633 101.951C318.414 102.33 318.131 102.619 317.783 102.818C317.436 103.018 317.014 103.117 316.518 103.117C316.057 103.117 315.654 103.018 315.311 102.818C314.971 102.619 314.688 102.33 314.461 101.951C314.238 101.572 314.07 101.109 313.957 100.562C313.848 100.016 313.793 99.3965 313.793 98.7051C313.793 98.0137 313.842 97.3945 313.939 96.8477C314.041 96.3008 314.199 95.8398 314.414 95.4648C314.633 95.0859 314.914 94.7969 315.258 94.5977C315.605 94.3984 316.025 94.2988 316.518 94.2988C316.982 94.2988 317.387 94.3984 317.73 94.5977C318.074 94.793 318.359 95.0801 318.586 95.459C318.812 95.834 318.982 96.2949 319.096 96.8418C319.209 97.3887 319.266 98.0098 319.266 98.7051ZM314.877 98.7051C314.877 99.291 314.906 99.8027 314.965 100.24C315.023 100.678 315.117 101.043 315.246 101.336C315.375 101.625 315.543 101.844 315.75 101.992C315.961 102.137 316.217 102.209 316.518 102.209C316.818 102.209 317.074 102.137 317.285 101.992C317.496 101.848 317.668 101.631 317.801 101.342C317.938 101.053 318.035 100.689 318.094 100.252C318.156 99.8105 318.188 99.2949 318.188 98.7051C318.188 98.1191 318.156 97.6074 318.094 97.1699C318.035 96.7324 317.938 96.3691 317.801 96.0801C317.668 95.791 317.496 95.5742 317.285 95.4297C317.074 95.2852 316.818 95.2129 316.518 95.2129C316.217 95.2129 315.961 95.2852 315.75 95.4297C315.543 95.5742 315.375 95.791 315.246 96.0801C315.117 96.3691 315.023 96.7324 314.965 97.1699C314.906 97.6074 314.877 98.1191 314.877 98.7051Z" fill="#595959"/>
<path d="M190.193 15.7441C190.58 15.7441 190.939 15.7988 191.271 15.9082C191.607 16.0137 191.898 16.1719 192.145 16.3828C192.395 16.5938 192.59 16.8555 192.73 17.168C192.871 17.4805 192.941 17.8418 192.941 18.252C192.941 18.6973 192.875 19.0977 192.742 19.4531C192.609 19.8086 192.412 20.1094 192.15 20.3555C191.889 20.6016 191.564 20.791 191.178 20.9238C190.795 21.0527 190.354 21.1172 189.854 21.1172C189.654 21.1172 189.457 21.1074 189.262 21.0879C189.07 21.0684 188.885 21.0391 188.705 21C188.529 20.9648 188.361 20.918 188.201 20.8594C188.041 20.8008 187.896 20.7324 187.768 20.6543V19.6465C187.896 19.7363 188.047 19.8164 188.219 19.8867C188.395 19.957 188.578 20.0156 188.77 20.0625C188.961 20.1094 189.152 20.1465 189.344 20.1738C189.539 20.1973 189.719 20.209 189.883 20.209C190.191 20.209 190.467 20.1738 190.709 20.1035C190.951 20.0293 191.156 19.916 191.324 19.7637C191.492 19.6113 191.621 19.4199 191.711 19.1895C191.801 18.959 191.846 18.6855 191.846 18.3691C191.846 17.8105 191.674 17.3848 191.33 17.0918C190.986 16.7949 190.486 16.6465 189.83 16.6465C189.725 16.6465 189.609 16.6523 189.484 16.6641C189.363 16.6719 189.24 16.6836 189.115 16.6992C188.994 16.7148 188.877 16.7324 188.764 16.752C188.654 16.7676 188.559 16.7832 188.477 16.7988L187.949 16.4648L188.271 12.4336H192.314V13.4062H189.197L188.969 15.8613C189.094 15.8379 189.258 15.8125 189.461 15.7852C189.668 15.7578 189.912 15.7441 190.193 15.7441ZM199.656 16.7051C199.656 17.3965 199.605 18.0156 199.504 18.5625C199.406 19.1094 199.246 19.5723 199.023 19.9512C198.805 20.3301 198.521 20.6191 198.174 20.8184C197.826 21.0176 197.404 21.1172 196.908 21.1172C196.447 21.1172 196.045 21.0176 195.701 20.8184C195.361 20.6191 195.078 20.3301 194.852 19.9512C194.629 19.5723 194.461 19.1094 194.348 18.5625C194.238 18.0156 194.184 17.3965 194.184 16.7051C194.184 16.0137 194.232 15.3945 194.33 14.8477C194.432 14.3008 194.59 13.8398 194.805 13.4648C195.023 13.0859 195.305 12.7969 195.648 12.5977C195.996 12.3984 196.416 12.2988 196.908 12.2988C197.373 12.2988 197.777 12.3984 198.121 12.5977C198.465 12.793 198.75 13.0801 198.977 13.459C199.203 13.834 199.373 14.2949 199.486 14.8418C199.6 15.3887 199.656 16.0098 199.656 16.7051ZM195.268 16.7051C195.268 17.291 195.297 17.8027 195.355 18.2402C195.414 18.6777 195.508 19.043 195.637 19.3359C195.766 19.625 195.934 19.8438 196.141 19.9922C196.352 20.1367 196.607 20.209 196.908 20.209C197.209 20.209 197.465 20.1367 197.676 19.9922C197.887 19.8477 198.059 19.6309 198.191 19.3418C198.328 19.0527 198.426 18.6895 198.484 18.252C198.547 17.8105 198.578 17.2949 198.578 16.7051C198.578 16.1191 198.547 15.6074 198.484 15.1699C198.426 14.7324 198.328 14.3691 198.191 14.0801C198.059 13.791 197.887 13.5742 197.676 13.4297C197.465 13.2852 197.209 13.2129 196.908 13.2129C196.607 13.2129 196.352 13.2852 196.141 13.4297C195.934 13.5742 195.766 13.791 195.637 14.0801C195.508 14.3691 195.414 14.7324 195.355 15.1699C195.297 15.6074 195.268 16.1191 195.268 16.7051Z" fill="#595959"/>
<path d="M76.0469 136.705C76.0469 137.396 75.9961 138.016 75.8945 138.562C75.7969 139.109 75.6367 139.572 75.4141 139.951C75.1953 140.33 74.9121 140.619 74.5645 140.818C74.2168 141.018 73.7949 141.117 73.2988 141.117C72.8379 141.117 72.4355 141.018 72.0918 140.818C71.752 140.619 71.4688 140.33 71.2422 139.951C71.0195 139.572 70.8516 139.109 70.7383 138.562C70.6289 138.016 70.5742 137.396 70.5742 136.705C70.5742 136.014 70.623 135.395 70.7207 134.848C70.8223 134.301 70.9805 133.84 71.1953 133.465C71.4141 133.086 71.6953 132.797 72.0391 132.598C72.3867 132.398 72.8066 132.299 73.2988 132.299C73.7637 132.299 74.168 132.398 74.5117 132.598C74.8555 132.793 75.1406 133.08 75.3672 133.459C75.5938 133.834 75.7637 134.295 75.877 134.842C75.9902 135.389 76.0469 136.01 76.0469 136.705ZM71.6582 136.705C71.6582 137.291 71.6875 137.803 71.7461 138.24C71.8047 138.678 71.8984 139.043 72.0273 139.336C72.1562 139.625 72.3242 139.844 72.5312 139.992C72.7422 140.137 72.998 140.209 73.2988 140.209C73.5996 140.209 73.8555 140.137 74.0664 139.992C74.2773 139.848 74.4492 139.631 74.582 139.342C74.7188 139.053 74.8164 138.689 74.875 138.252C74.9375 137.811 74.9688 137.295 74.9688 136.705C74.9688 136.119 74.9375 135.607 74.875 135.17C74.8164 134.732 74.7188 134.369 74.582 134.08C74.4492 133.791 74.2773 133.574 74.0664 133.43C73.8555 133.285 73.5996 133.213 73.2988 133.213C72.998 133.213 72.7422 133.285 72.5312 133.43C72.3242 133.574 72.1562 133.791 72.0273 134.08C71.8984 134.369 71.8047 134.732 71.7461 135.17C71.6875 135.607 71.6582 136.119 71.6582 136.705Z" fill="#595959"/>
<line x1="194.5" y1="25.9531" x2="194.5" y2="30.9531" stroke="#595959"/>
<line x1="298.523" y1="100.061" x2="293.855" y2="101.852" stroke="#595959"/>
<line x1="86.5098" y1="136.99" x2="81.5098" y2="136.99" stroke="#595959"/>
<mask id="path-11-inside-1_0_1" fill="white">
<path d="M301 138.5C301 109.989 289.674 82.6462 269.514 62.486C249.354 42.3259 222.011 31 193.5 31C164.989 31 137.646 42.3259 117.486 62.486C97.3259 82.6462 86 109.989 86 138.5L109.554 138.5C109.554 116.236 118.399 94.8844 134.142 79.1415C149.884 63.3987 171.236 54.5545 193.5 54.5545C215.764 54.5545 237.116 63.3987 252.858 79.1416C268.601 94.8844 277.446 116.236 277.446 138.5H301Z"/>
</mask>
<path d="M301 138.5C301 109.989 289.674 82.6462 269.514 62.486C249.354 42.3259 222.011 31 193.5 31C164.989 31 137.646 42.3259 117.486 62.486C97.3259 82.6462 86 109.989 86 138.5L109.554 138.5C109.554 116.236 118.399 94.8844 134.142 79.1415C149.884 63.3987 171.236 54.5545 193.5 54.5545C215.764 54.5545 237.116 63.3987 252.858 79.1416C268.601 94.8844 277.446 116.236 277.446 138.5H301Z" stroke="#CED7D4" stroke-width="2" mask="url(#path-11-inside-1_0_1)"/>
<path d="M274.128 67.399C259.678 51.0129 240.579 39.4184 219.373 34.1601C198.168 28.9018 175.864 30.2293 155.433 37.9658C135.001 45.7023 117.411 59.4805 105.007 77.465C92.603 95.4495 85.9729 116.787 86.0001 138.634L109.64 138.604C109.619 121.562 114.791 104.917 124.467 90.8871C134.144 76.8575 147.865 66.1092 163.804 60.0741C179.743 54.0389 197.142 53.0033 213.684 57.1053C230.226 61.2072 245.125 70.252 256.397 83.0347L274.128 67.399Z" fill="#4CA2A8"/>
<rect x="137" y="170" width="109" height="40" fill="#EBEFEE"/>
<path d="M167.956 189.824C166.89 189.269 166.356 188.411 166.356 187.248C166.356 186.672 166.5 186.149 166.788 185.68C167.087 185.2 167.53 184.821 168.116 184.544C168.714 184.256 169.439 184.112 170.292 184.112C171.146 184.112 171.866 184.256 172.452 184.544C173.05 184.821 173.492 185.2 173.78 185.68C174.079 186.149 174.228 186.672 174.228 187.248C174.228 187.835 174.084 188.352 173.796 188.8C173.508 189.237 173.124 189.579 172.644 189.824C173.231 190.08 173.69 190.453 174.02 190.944C174.351 191.435 174.516 192.016 174.516 192.688C174.516 193.413 174.33 194.048 173.956 194.592C173.594 195.125 173.092 195.536 172.452 195.824C171.812 196.112 171.092 196.256 170.292 196.256C169.492 196.256 168.772 196.112 168.132 195.824C167.503 195.536 167.002 195.125 166.628 194.592C166.266 194.048 166.084 193.413 166.084 192.688C166.084 192.016 166.25 191.435 166.58 190.944C166.911 190.443 167.37 190.069 167.956 189.824ZM172.052 187.568C172.052 187.045 171.892 186.64 171.572 186.352C171.263 186.064 170.836 185.92 170.292 185.92C169.759 185.92 169.332 186.064 169.012 186.352C168.703 186.64 168.548 187.051 168.548 187.584C168.548 188.064 168.708 188.448 169.028 188.736C169.359 189.024 169.78 189.168 170.292 189.168C170.804 189.168 171.226 189.024 171.556 188.736C171.887 188.437 172.052 188.048 172.052 187.568ZM170.292 190.8C169.684 190.8 169.188 190.955 168.804 191.264C168.431 191.573 168.244 192.016 168.244 192.592C168.244 193.125 168.426 193.563 168.788 193.904C169.162 194.235 169.663 194.4 170.292 194.4C170.922 194.4 171.418 194.229 171.78 193.888C172.143 193.547 172.324 193.115 172.324 192.592C172.324 192.027 172.138 191.589 171.764 191.28C171.391 190.96 170.9 190.8 170.292 190.8ZM176.74 193.472C177.764 192.619 178.58 191.909 179.188 191.344C179.796 190.768 180.302 190.171 180.708 189.552C181.113 188.933 181.316 188.325 181.316 187.728C181.316 187.184 181.188 186.757 180.932 186.448C180.676 186.139 180.281 185.984 179.748 185.984C179.214 185.984 178.804 186.165 178.516 186.528C178.228 186.88 178.078 187.365 178.068 187.984H175.892C175.934 186.704 176.313 185.733 177.028 185.072C177.753 184.411 178.67 184.08 179.78 184.08C180.996 184.08 181.929 184.405 182.58 185.056C183.23 185.696 183.556 186.544 183.556 187.6C183.556 188.432 183.332 189.227 182.884 189.984C182.436 190.741 181.924 191.403 181.348 191.968C180.772 192.523 180.02 193.195 179.092 193.984H183.812V195.84H175.908V194.176L176.74 193.472ZM186.221 196.112C185.816 196.112 185.48 195.989 185.213 195.744C184.957 195.488 184.829 195.173 184.829 194.8C184.829 194.427 184.957 194.117 185.213 193.872C185.48 193.616 185.816 193.488 186.221 193.488C186.616 193.488 186.941 193.616 187.197 193.872C187.453 194.117 187.581 194.427 187.581 194.8C187.581 195.173 187.453 195.488 187.197 195.744C186.941 195.989 186.616 196.112 186.221 196.112ZM194.927 187.248C194.821 186.8 194.634 186.464 194.367 186.24C194.111 186.016 193.738 185.904 193.247 185.904C192.511 185.904 191.967 186.203 191.615 186.8C191.274 187.387 191.098 188.347 191.087 189.68C191.343 189.253 191.717 188.923 192.207 188.688C192.698 188.443 193.231 188.32 193.807 188.32C194.501 188.32 195.114 188.469 195.647 188.768C196.181 189.067 196.597 189.504 196.895 190.08C197.194 190.645 197.343 191.328 197.343 192.128C197.343 192.885 197.189 193.563 196.879 194.16C196.581 194.747 196.138 195.205 195.551 195.536C194.965 195.867 194.266 196.032 193.455 196.032C192.346 196.032 191.471 195.787 190.831 195.296C190.202 194.805 189.759 194.123 189.503 193.248C189.258 192.363 189.135 191.275 189.135 189.984C189.135 188.032 189.471 186.56 190.143 185.568C190.815 184.565 191.877 184.064 193.327 184.064C194.447 184.064 195.317 184.368 195.935 184.976C196.554 185.584 196.911 186.341 197.007 187.248H194.927ZM193.295 190.16C192.73 190.16 192.255 190.325 191.871 190.656C191.487 190.987 191.295 191.467 191.295 192.096C191.295 192.725 191.471 193.221 191.823 193.584C192.186 193.947 192.693 194.128 193.343 194.128C193.919 194.128 194.373 193.952 194.703 193.6C195.045 193.248 195.215 192.773 195.215 192.176C195.215 191.557 195.05 191.067 194.719 190.704C194.399 190.341 193.925 190.16 193.295 190.16ZM202.17 187.2C202.17 186.389 202.405 185.755 202.874 185.296C203.354 184.837 203.967 184.608 204.714 184.608C205.461 184.608 206.069 184.837 206.538 185.296C207.018 185.755 207.258 186.389 207.258 187.2C207.258 188.021 207.018 188.661 206.538 189.12C206.069 189.579 205.461 189.808 204.714 189.808C203.967 189.808 203.354 189.579 202.874 189.12C202.405 188.661 202.17 188.021 202.17 187.2ZM212.442 184.8L206.154 196H203.978L210.25 184.8H212.442ZM204.698 185.952C204.111 185.952 203.818 186.368 203.818 187.2C203.818 188.043 204.111 188.464 204.698 188.464C204.986 188.464 205.21 188.363 205.37 188.16C205.53 187.947 205.61 187.627 205.61 187.2C205.61 186.368 205.306 185.952 204.698 185.952ZM209.194 193.584C209.194 192.763 209.429 192.128 209.898 191.68C210.378 191.221 210.991 190.992 211.738 190.992C212.485 190.992 213.087 191.221 213.546 191.68C214.015 192.128 214.25 192.763 214.25 193.584C214.25 194.405 214.015 195.045 213.546 195.504C213.087 195.963 212.485 196.192 211.738 196.192C210.981 196.192 210.367 195.963 209.898 195.504C209.429 195.045 209.194 194.405 209.194 193.584ZM211.722 192.336C211.114 192.336 210.81 192.752 210.81 193.584C210.81 194.427 211.114 194.848 211.722 194.848C212.319 194.848 212.618 194.427 212.618 193.584C212.618 192.752 212.319 192.336 211.722 192.336Z" fill="#121212"/>
<circle cx="193" cy="128" r="10" fill="#EBEFEE"/>
<path d="M274.252 67.4731L187.661 138.853L182.38 131.564L274.252 67.4731Z" fill="#121212"/>
<circle cx="193" cy="128" r="7" fill="white"/>
<path d="M180.65 154.953C180.65 155.828 180.352 156.5 179.754 156.969C179.156 157.434 178.314 157.666 177.229 157.666H176.244V161H175.166V152.434H177.434C179.578 152.434 180.65 153.273 180.65 154.953ZM176.244 156.74H177.105C177.957 156.74 178.574 156.604 178.957 156.33C179.34 156.053 179.531 155.609 179.531 155C179.531 154.449 179.354 154.037 178.998 153.764C178.643 153.49 178.088 153.354 177.334 153.354H176.244V156.74ZM187.875 157.771C187.875 158.822 187.609 159.643 187.078 160.232C186.547 160.822 185.812 161.117 184.875 161.117C184.293 161.117 183.777 160.982 183.328 160.713C182.879 160.439 182.533 160.049 182.291 159.541C182.049 159.033 181.928 158.443 181.928 157.771C181.928 156.725 182.189 155.91 182.713 155.328C183.236 154.742 183.971 154.449 184.916 154.449C185.822 154.449 186.541 154.748 187.072 155.346C187.607 155.939 187.875 156.748 187.875 157.771ZM183.018 157.771C183.018 158.58 183.176 159.195 183.492 159.617C183.812 160.035 184.283 160.244 184.904 160.244C185.518 160.244 185.984 160.035 186.305 159.617C186.625 159.195 186.785 158.58 186.785 157.771C186.785 156.963 186.623 156.355 186.299 155.949C185.979 155.539 185.508 155.334 184.887 155.334C183.641 155.334 183.018 156.146 183.018 157.771ZM194.689 161L193.588 157.379C193.486 157.078 193.338 156.51 193.143 155.674H193.096C192.932 156.436 192.787 157.008 192.662 157.391L191.508 161H190.312L188.549 154.566H189.639C190.045 156.148 190.354 157.352 190.564 158.176C190.779 159 190.906 159.582 190.945 159.922H190.992L191.074 159.559C191.195 159 191.312 158.545 191.426 158.193L192.568 154.566H193.717L194.824 158.193C194.863 158.33 194.904 158.477 194.947 158.633C194.994 158.785 195.037 158.938 195.076 159.09C195.115 159.238 195.15 159.385 195.182 159.529C195.213 159.67 195.236 159.797 195.252 159.91H195.305C195.34 159.613 195.482 158.977 195.732 158L196.635 154.566H197.713L195.926 161H194.689ZM201.604 161.117C200.639 161.117 199.881 160.826 199.33 160.244C198.783 159.658 198.51 158.854 198.51 157.83C198.51 156.799 198.766 155.979 199.277 155.369C199.789 154.756 200.48 154.449 201.352 154.449C202.16 154.449 202.805 154.711 203.285 155.234C203.766 155.754 204.006 156.459 204.006 157.35V157.988H199.6C199.619 158.719 199.805 159.273 200.156 159.652C200.508 160.031 201.006 160.221 201.65 160.221C201.994 160.221 202.32 160.191 202.629 160.133C202.938 160.07 203.299 159.951 203.713 159.775V160.701C203.357 160.854 203.023 160.961 202.711 161.023C202.398 161.086 202.029 161.117 201.604 161.117ZM201.34 155.311C200.836 155.311 200.438 155.473 200.145 155.797C199.852 156.121 199.678 156.572 199.623 157.15H202.898C202.891 156.549 202.752 156.092 202.482 155.779C202.213 155.467 201.832 155.311 201.34 155.311ZM208.641 154.449C208.926 154.449 209.178 154.473 209.396 154.52L209.268 155.492C209.029 155.438 208.797 155.41 208.57 155.41C208.23 155.41 207.914 155.504 207.621 155.691C207.332 155.879 207.105 156.139 206.941 156.471C206.777 156.799 206.695 157.164 206.695 157.566V161H205.641V154.566H206.508L206.625 155.744H206.672C206.918 155.318 207.209 154.996 207.545 154.777C207.881 154.559 208.246 154.449 208.641 154.449Z" fill="#595959"/>
<rect width="483" height="1" transform="translate(377 70)" fill="#CED7D4"/>
<rect width="483" height="1" transform="translate(377 131)" fill="#CED7D4"/>
<path d="M384 97.0059H385.319L387.568 103.418C387.855 104.229 388.065 104.956 388.197 105.599C388.311 105.024 388.523 104.288 388.833 103.391L391.068 97.0059H392.401L388.833 107H387.568L384 97.0059ZM398.096 107L397.856 105.934H397.802C397.428 106.403 397.054 106.722 396.681 106.891C396.312 107.055 395.844 107.137 395.279 107.137C394.541 107.137 393.962 106.943 393.543 106.556C393.124 106.168 392.914 105.621 392.914 104.915C392.914 103.393 394.115 102.595 396.517 102.522L397.788 102.475V102.03C397.788 101.461 397.665 101.041 397.419 100.772C397.173 100.499 396.779 100.362 396.236 100.362C395.84 100.362 395.464 100.422 395.108 100.54C394.757 100.659 394.427 100.791 394.117 100.937L393.741 100.014C394.119 99.8132 394.532 99.6559 394.979 99.542C395.425 99.4281 395.867 99.3711 396.305 99.3711C397.212 99.3711 397.886 99.5716 398.328 99.9727C398.77 100.374 398.991 101.012 398.991 101.887V107H398.096ZM395.56 106.146C396.248 106.146 396.788 105.961 397.18 105.592C397.576 105.218 397.774 104.689 397.774 104.006V103.329L396.667 103.377C395.806 103.409 395.177 103.546 394.78 103.787C394.388 104.029 394.192 104.409 394.192 104.929C394.192 105.321 394.311 105.621 394.548 105.831C394.789 106.041 395.127 106.146 395.56 106.146ZM402.553 107H401.322V96.3633H402.553V107ZM406.094 99.4941V104.327C406.094 104.933 406.228 105.384 406.497 105.681C406.771 105.972 407.192 106.118 407.762 106.118C408.532 106.118 409.092 105.904 409.443 105.476C409.794 105.047 409.97 104.357 409.97 103.404V99.4941H411.207V107H410.195L410.018 106.009H409.956C409.733 106.369 409.416 106.647 409.006 106.843C408.596 107.039 408.119 107.137 407.577 107.137C406.675 107.137 405.993 106.92 405.533 106.487C405.077 106.054 404.85 105.362 404.85 104.409V99.4941H406.094ZM416.778 107.137C415.653 107.137 414.769 106.797 414.126 106.118C413.488 105.435 413.169 104.496 413.169 103.302C413.169 102.099 413.467 101.142 414.064 100.431C414.661 99.7152 415.468 99.3574 416.484 99.3574C417.428 99.3574 418.18 99.6628 418.74 100.273C419.301 100.88 419.581 101.702 419.581 102.741V103.486H414.44C414.463 104.339 414.68 104.986 415.09 105.428C415.5 105.87 416.081 106.091 416.833 106.091C417.234 106.091 417.615 106.057 417.975 105.988C418.335 105.915 418.756 105.776 419.239 105.571V106.651C418.825 106.829 418.435 106.954 418.07 107.027C417.706 107.1 417.275 107.137 416.778 107.137ZM416.471 100.362C415.883 100.362 415.418 100.551 415.076 100.93C414.734 101.308 414.532 101.834 414.468 102.509H418.289C418.28 101.807 418.118 101.274 417.804 100.909C417.489 100.545 417.045 100.362 416.471 100.362ZM392.962 157.006V163.473C392.962 164.612 392.618 165.507 391.93 166.159C391.242 166.811 390.287 167.137 389.065 167.137C387.858 167.137 386.921 166.809 386.256 166.152C385.59 165.492 385.258 164.589 385.258 163.445V157.006H386.522V163.486C386.522 164.302 386.739 164.933 387.172 165.38C387.609 165.826 388.266 166.05 389.141 166.05C389.965 166.05 390.599 165.829 391.041 165.387C391.488 164.945 391.711 164.307 391.711 163.473V157.006H392.962ZM400.543 167V162.201C400.543 161.59 400.406 161.137 400.133 160.841C399.864 160.54 399.44 160.39 398.861 160.39C398.091 160.39 397.531 160.604 397.18 161.032C396.833 161.456 396.66 162.149 396.66 163.11V167H395.43V159.494H396.421L396.605 160.52H396.674C396.906 160.15 397.232 159.866 397.651 159.665C398.071 159.46 398.533 159.357 399.039 159.357C399.96 159.357 400.643 159.581 401.09 160.027C401.536 160.474 401.76 161.169 401.76 162.112V167H400.543ZM405.314 167H404.084V159.494H405.314V167ZM403.988 157.464C403.988 157.19 404.057 156.992 404.193 156.869C404.335 156.746 404.508 156.685 404.713 156.685C404.904 156.685 405.071 156.746 405.212 156.869C405.358 156.992 405.431 157.19 405.431 157.464C405.431 157.733 405.358 157.931 405.212 158.059C405.071 158.186 404.904 158.25 404.713 158.25C404.508 158.25 404.335 158.186 404.193 158.059C404.057 157.931 403.988 157.733 403.988 157.464ZM410.202 166.132C410.362 166.132 410.549 166.116 410.763 166.084C410.977 166.052 411.139 166.016 411.248 165.975V166.918C411.134 166.968 410.956 167.016 410.715 167.062C410.478 167.112 410.236 167.137 409.99 167.137C408.523 167.137 407.789 166.364 407.789 164.819V160.451H406.729V159.863L407.803 159.371L408.295 157.771H409.026V159.494H411.193V160.451H409.026V164.785C409.026 165.218 409.129 165.551 409.334 165.783C409.544 166.016 409.833 166.132 410.202 166.132ZM417.64 164.929C417.64 165.631 417.378 166.175 416.854 166.562C416.329 166.945 415.593 167.137 414.646 167.137C413.657 167.137 412.87 166.979 412.287 166.665V165.544C413.112 165.945 413.907 166.146 414.673 166.146C415.293 166.146 415.744 166.045 416.026 165.845C416.309 165.644 416.45 165.375 416.45 165.038C416.45 164.742 416.313 164.491 416.04 164.286C415.771 164.081 415.29 163.846 414.598 163.582C413.891 163.309 413.395 163.076 413.107 162.885C412.82 162.689 412.608 162.47 412.472 162.229C412.34 161.987 412.273 161.693 412.273 161.347C412.273 160.731 412.524 160.246 413.025 159.891C413.527 159.535 414.215 159.357 415.09 159.357C415.942 159.357 416.74 159.526 417.482 159.863L417.065 160.841C416.304 160.522 415.618 160.362 415.008 160.362C414.497 160.362 414.11 160.444 413.846 160.608C413.581 160.768 413.449 160.989 413.449 161.271C413.449 161.545 413.563 161.773 413.791 161.955C414.019 162.133 414.55 162.381 415.384 162.7C416.008 162.933 416.468 163.149 416.765 163.35C417.065 163.55 417.286 163.776 417.428 164.026C417.569 164.277 417.64 164.578 417.64 164.929Z" fill="#595959"/>
<path d="M660.569 99.3438C660.569 99.6764 660.517 99.9795 660.412 100.253C660.307 100.526 660.159 100.763 659.968 100.964C659.781 101.164 659.555 101.331 659.291 101.463C659.027 101.59 658.733 101.682 658.409 101.736V101.777C659.216 101.878 659.829 102.135 660.248 102.55C660.667 102.96 660.877 103.495 660.877 104.156C660.877 104.594 660.802 104.995 660.651 105.359C660.506 105.724 660.282 106.038 659.981 106.303C659.681 106.567 659.3 106.772 658.84 106.918C658.38 107.064 657.835 107.137 657.206 107.137C656.709 107.137 656.24 107.098 655.798 107.021C655.36 106.943 654.948 106.802 654.561 106.597V105.435C654.957 105.644 655.385 105.806 655.846 105.92C656.311 106.034 656.755 106.091 657.179 106.091C657.598 106.091 657.96 106.045 658.266 105.954C658.571 105.863 658.822 105.733 659.018 105.564C659.218 105.396 659.364 105.188 659.455 104.942C659.551 104.696 659.599 104.421 659.599 104.115C659.599 103.805 659.537 103.541 659.414 103.322C659.296 103.099 659.125 102.917 658.901 102.775C658.678 102.63 658.405 102.522 658.081 102.454C657.762 102.386 657.4 102.352 656.994 102.352H656.085V101.319H656.994C657.363 101.319 657.691 101.274 657.979 101.183C658.266 101.091 658.505 100.962 658.696 100.793C658.892 100.624 659.04 100.424 659.141 100.191C659.241 99.959 659.291 99.7038 659.291 99.4258C659.291 99.1888 659.25 98.9769 659.168 98.79C659.086 98.6032 658.97 98.446 658.819 98.3184C658.669 98.1862 658.489 98.0859 658.279 98.0176C658.07 97.9492 657.837 97.915 657.582 97.915C657.094 97.915 656.664 97.9925 656.29 98.1475C655.921 98.2979 655.568 98.4961 655.23 98.7422L654.602 97.8877C654.775 97.7464 654.966 97.6143 655.176 97.4912C655.39 97.3682 655.622 97.2611 655.873 97.1699C656.124 97.0742 656.39 96.999 656.673 96.9443C656.96 96.8896 657.263 96.8623 657.582 96.8623C658.074 96.8623 658.505 96.9238 658.874 97.0469C659.248 97.1699 659.56 97.3431 659.811 97.5664C660.061 97.7852 660.25 98.0472 660.378 98.3525C660.506 98.6533 660.569 98.9837 660.569 99.3438ZM665.437 100.868C665.888 100.868 666.307 100.932 666.694 101.06C667.086 101.183 667.426 101.367 667.713 101.613C668.005 101.859 668.232 102.165 668.396 102.529C668.561 102.894 668.643 103.315 668.643 103.794C668.643 104.313 668.565 104.781 668.41 105.195C668.255 105.61 668.025 105.961 667.72 106.248C667.414 106.535 667.036 106.756 666.585 106.911C666.138 107.062 665.623 107.137 665.04 107.137C664.808 107.137 664.577 107.125 664.35 107.103C664.126 107.08 663.91 107.046 663.7 107C663.495 106.959 663.299 106.904 663.112 106.836C662.925 106.768 662.757 106.688 662.606 106.597V105.421C662.757 105.526 662.932 105.619 663.133 105.701C663.338 105.783 663.552 105.852 663.775 105.906C663.999 105.961 664.222 106.004 664.445 106.036C664.673 106.063 664.883 106.077 665.074 106.077C665.434 106.077 665.756 106.036 666.038 105.954C666.321 105.868 666.56 105.735 666.756 105.558C666.952 105.38 667.102 105.157 667.207 104.888C667.312 104.619 667.364 104.3 667.364 103.931C667.364 103.279 667.164 102.782 666.763 102.44C666.362 102.094 665.778 101.921 665.013 101.921C664.89 101.921 664.755 101.928 664.609 101.941C664.468 101.951 664.325 101.964 664.179 101.982C664.037 102.001 663.901 102.021 663.769 102.044C663.641 102.062 663.529 102.08 663.434 102.099L662.818 101.709L663.194 97.0059H667.911V98.1406H664.274L664.008 101.005C664.154 100.978 664.345 100.948 664.582 100.916C664.824 100.884 665.108 100.868 665.437 100.868ZM670.427 106.241C670.427 106.068 670.45 105.922 670.495 105.804C670.541 105.681 670.602 105.583 670.68 105.51C670.757 105.432 670.848 105.378 670.953 105.346C671.058 105.309 671.172 105.291 671.295 105.291C671.413 105.291 671.525 105.309 671.63 105.346C671.739 105.378 671.833 105.432 671.91 105.51C671.988 105.583 672.049 105.681 672.095 105.804C672.14 105.922 672.163 106.068 672.163 106.241C672.163 106.41 672.14 106.556 672.095 106.679C672.049 106.797 671.988 106.895 671.91 106.973C671.833 107.05 671.739 107.107 671.63 107.144C671.525 107.18 671.413 107.198 671.295 107.198C671.172 107.198 671.058 107.18 670.953 107.144C670.848 107.107 670.757 107.05 670.68 106.973C670.602 106.895 670.541 106.797 670.495 106.679C670.45 106.556 670.427 106.41 670.427 106.241ZM676.907 100.868C677.358 100.868 677.778 100.932 678.165 101.06C678.557 101.183 678.896 101.367 679.184 101.613C679.475 101.859 679.703 102.165 679.867 102.529C680.031 102.894 680.113 103.315 680.113 103.794C680.113 104.313 680.036 104.781 679.881 105.195C679.726 105.61 679.496 105.961 679.19 106.248C678.885 106.535 678.507 106.756 678.056 106.911C677.609 107.062 677.094 107.137 676.511 107.137C676.278 107.137 676.048 107.125 675.82 107.103C675.597 107.08 675.381 107.046 675.171 107C674.966 106.959 674.77 106.904 674.583 106.836C674.396 106.768 674.228 106.688 674.077 106.597V105.421C674.228 105.526 674.403 105.619 674.604 105.701C674.809 105.783 675.023 105.852 675.246 105.906C675.469 105.961 675.693 106.004 675.916 106.036C676.144 106.063 676.354 106.077 676.545 106.077C676.905 106.077 677.226 106.036 677.509 105.954C677.791 105.868 678.031 105.735 678.227 105.558C678.423 105.38 678.573 105.157 678.678 104.888C678.783 104.619 678.835 104.3 678.835 103.931C678.835 103.279 678.634 102.782 678.233 102.44C677.832 102.094 677.249 101.921 676.483 101.921C676.36 101.921 676.226 101.928 676.08 101.941C675.939 101.951 675.795 101.964 675.649 101.982C675.508 102.001 675.371 102.021 675.239 102.044C675.112 102.062 675 102.08 674.904 102.099L674.289 101.709L674.665 97.0059H679.382V98.1406H675.745L675.479 101.005C675.624 100.978 675.816 100.948 676.053 100.916C676.294 100.884 676.579 100.868 676.907 100.868ZM659.77 167L656.475 158.236H656.42C656.488 158.965 656.522 159.866 656.522 160.937V167H655.36V157.006H657.22L660.303 165.195H660.357L663.495 157.006H665.341V167H664.097V160.854C664.097 160.171 664.129 159.303 664.192 158.25H664.138L660.802 167H659.77ZM676.88 167H675.608L673.66 160.451C673.373 159.476 673.204 158.817 673.154 158.476C673.081 159 672.922 159.672 672.676 160.492L670.789 167H669.518L666.872 157.006H668.185L669.736 163.11C669.946 163.908 670.105 164.701 670.215 165.489C670.315 164.742 670.493 163.924 670.748 163.035L672.512 157.006H673.811L675.649 163.083C675.886 163.871 676.069 164.674 676.196 165.489C676.269 164.86 676.431 164.063 676.682 163.097L678.227 157.006H679.539L676.88 167Z" fill="#595959"/>
<path d="M800.86 107H799.657V100.759C799.657 100.563 799.657 100.353 799.657 100.13C799.662 99.9066 799.666 99.6855 799.671 99.4668C799.68 99.2435 799.687 99.0316 799.691 98.8311C799.701 98.626 799.707 98.446 799.712 98.291C799.634 98.373 799.566 98.4437 799.507 98.5029C799.448 98.5622 799.386 98.6191 799.322 98.6738C799.263 98.7285 799.199 98.7878 799.131 98.8516C799.062 98.9108 798.98 98.9814 798.885 99.0635L797.873 99.8906L797.217 99.0498L799.835 97.0059H800.86V107ZM805.632 107L809.48 98.1406H804.326V97.0059H810.752V97.9971L806.958 107H805.632ZM812.427 106.241C812.427 106.068 812.45 105.922 812.495 105.804C812.541 105.681 812.602 105.583 812.68 105.51C812.757 105.432 812.848 105.378 812.953 105.346C813.058 105.309 813.172 105.291 813.295 105.291C813.413 105.291 813.525 105.309 813.63 105.346C813.739 105.378 813.833 105.432 813.91 105.51C813.988 105.583 814.049 105.681 814.095 105.804C814.14 105.922 814.163 106.068 814.163 106.241C814.163 106.41 814.14 106.556 814.095 106.679C814.049 106.797 813.988 106.895 813.91 106.973C813.833 107.05 813.739 107.107 813.63 107.144C813.525 107.18 813.413 107.198 813.295 107.198C813.172 107.198 813.058 107.18 812.953 107.144C812.848 107.107 812.757 107.05 812.68 106.973C812.602 106.895 812.541 106.797 812.495 106.679C812.45 106.556 812.427 106.41 812.427 106.241ZM822.612 104.758H821.156V107H819.953V104.758H815.339V103.671L819.871 96.9512H821.156V103.623H822.612V104.758ZM819.953 103.623V101.189C819.953 100.934 819.955 100.668 819.96 100.39C819.969 100.107 819.978 99.8337 819.987 99.5693C819.996 99.3005 820.006 99.0498 820.015 98.8174C820.028 98.585 820.037 98.3913 820.042 98.2363H819.98C819.949 98.3275 819.908 98.43 819.857 98.5439C819.812 98.6533 819.759 98.765 819.7 98.8789C819.646 98.9883 819.589 99.0954 819.529 99.2002C819.47 99.305 819.415 99.3939 819.365 99.4668L816.556 103.623H819.953ZM797.812 160.677C797.812 161.224 797.891 161.634 798.051 161.907C798.21 162.181 798.468 162.317 798.823 162.317C799.521 162.317 799.869 161.771 799.869 160.677C799.869 159.583 799.521 159.036 798.823 159.036C798.468 159.036 798.21 159.173 798.051 159.446C797.891 159.72 797.812 160.13 797.812 160.677ZM800.881 160.677C800.881 161.069 800.84 161.424 800.758 161.743C800.68 162.058 800.557 162.324 800.389 162.543C800.22 162.762 800.006 162.928 799.746 163.042C799.486 163.156 799.179 163.213 798.823 163.213C798.491 163.213 798.199 163.156 797.948 163.042C797.698 162.928 797.486 162.762 797.312 162.543C797.139 162.324 797.009 162.058 796.923 161.743C796.841 161.424 796.8 161.069 796.8 160.677C796.8 160.28 796.839 159.925 796.916 159.61C796.993 159.296 797.114 159.032 797.278 158.817C797.447 158.599 797.659 158.435 797.914 158.325C798.169 158.211 798.472 158.154 798.823 158.154C799.16 158.154 799.457 158.211 799.712 158.325C799.967 158.435 800.181 158.599 800.354 158.817C800.532 159.032 800.664 159.296 800.751 159.61C800.838 159.925 800.881 160.28 800.881 160.677ZM803.725 164.601C803.725 165.147 803.804 165.558 803.964 165.831C804.123 166.1 804.381 166.234 804.736 166.234C805.434 166.234 805.782 165.69 805.782 164.601C805.782 163.507 805.434 162.96 804.736 162.96C804.381 162.96 804.123 163.097 803.964 163.37C803.804 163.639 803.725 164.049 803.725 164.601ZM806.787 164.601C806.787 164.997 806.748 165.353 806.671 165.667C806.593 165.977 806.47 166.241 806.302 166.46C806.133 166.679 805.919 166.847 805.659 166.966C805.404 167.08 805.096 167.137 804.736 167.137C804.404 167.137 804.11 167.08 803.854 166.966C803.604 166.847 803.394 166.679 803.226 166.46C803.057 166.241 802.929 165.977 802.843 165.667C802.756 165.353 802.713 164.997 802.713 164.601C802.713 164.204 802.752 163.849 802.829 163.534C802.911 163.22 803.034 162.955 803.198 162.741C803.362 162.527 803.572 162.363 803.827 162.249C804.082 162.135 804.385 162.078 804.736 162.078C805.078 162.078 805.377 162.135 805.632 162.249C805.887 162.363 806.099 162.527 806.268 162.741C806.441 162.955 806.571 163.22 806.657 163.534C806.744 163.849 806.787 164.204 806.787 164.601ZM805.051 158.291L799.657 167H798.563L803.971 158.291H805.051Z" fill="#595959"/>
<path d="M798.492 31.762C797.96 31.538 797.554 31.202 797.26 30.782C796.952 30.362 796.812 29.872 796.812 29.312H798.52C798.548 29.732 798.716 30.082 799.01 30.348C799.304 30.628 799.724 30.754 800.256 30.754C800.802 30.754 801.236 30.628 801.544 30.362C801.852 30.096 802.006 29.746 802.006 29.326C802.006 29.004 801.908 28.738 801.712 28.528C801.516 28.332 801.278 28.164 800.998 28.052C800.718 27.94 800.326 27.828 799.822 27.688C799.178 27.52 798.66 27.352 798.268 27.184C797.876 27.016 797.54 26.736 797.26 26.372C796.98 26.008 796.84 25.532 796.84 24.916C796.84 24.356 796.98 23.866 797.26 23.446C797.54 23.026 797.932 22.704 798.436 22.48C798.94 22.256 799.514 22.144 800.186 22.144C801.124 22.144 801.894 22.382 802.496 22.858C803.098 23.334 803.434 23.978 803.504 24.79H801.74C801.712 24.44 801.544 24.132 801.236 23.88C800.928 23.628 800.522 23.502 800.018 23.502C799.556 23.502 799.178 23.628 798.898 23.852C798.604 24.09 798.464 24.426 798.464 24.86C798.464 25.168 798.548 25.406 798.73 25.602C798.912 25.798 799.15 25.938 799.43 26.05C799.71 26.162 800.088 26.288 800.578 26.414C801.222 26.596 801.74 26.778 802.146 26.946C802.552 27.128 802.902 27.408 803.182 27.772C803.462 28.136 803.616 28.626 803.616 29.242C803.616 29.746 803.476 30.208 803.21 30.642C802.944 31.09 802.552 31.44 802.048 31.706C801.544 31.972 800.942 32.098 800.256 32.098C799.598 32.098 799.01 31.986 798.492 31.762ZM807.951 24.524C808.413 24.286 808.945 24.16 809.533 24.16C810.205 24.16 810.807 24.328 811.367 24.664C811.927 25 812.361 25.462 812.683 26.05C812.991 26.652 813.159 27.338 813.159 28.108C813.159 28.892 812.991 29.578 812.683 30.194C812.361 30.81 811.927 31.286 811.367 31.622C810.807 31.958 810.205 32.126 809.533 32.126C808.945 32.126 808.413 32.014 807.965 31.776C807.503 31.538 807.125 31.244 806.845 30.88V35.668H805.249V24.286H806.845V25.42C807.111 25.07 807.475 24.776 807.951 24.524ZM811.199 26.736C810.975 26.344 810.695 26.05 810.331 25.854C809.967 25.658 809.589 25.546 809.183 25.546C808.777 25.546 808.399 25.658 808.035 25.854C807.671 26.064 807.391 26.358 807.167 26.75C806.943 27.142 806.845 27.604 806.845 28.136C806.845 28.668 806.943 29.144 807.167 29.536C807.391 29.928 807.671 30.236 808.035 30.432C808.399 30.642 808.777 30.74 809.183 30.74C809.589 30.74 809.967 30.642 810.331 30.432C810.695 30.222 810.975 29.914 811.199 29.508C811.423 29.116 811.535 28.64 811.535 28.108C811.535 27.576 811.423 27.128 811.199 26.736ZM814.572 22.97C814.376 22.774 814.278 22.536 814.278 22.242C814.278 21.962 814.376 21.71 814.572 21.514C814.768 21.318 815.006 21.22 815.3 21.22C815.58 21.22 815.818 21.318 816.014 21.514C816.21 21.71 816.308 21.962 816.308 22.242C816.308 22.536 816.21 22.774 816.014 22.97C815.818 23.166 815.58 23.264 815.3 23.264C815.006 23.264 814.768 23.166 814.572 22.97ZM816.084 24.286V32H814.488V24.286H816.084ZM823.445 24.538C823.921 24.79 824.299 25.168 824.579 25.658C824.845 26.162 824.985 26.75 824.985 27.45V32H823.403V27.688C823.403 27.002 823.221 26.47 822.885 26.106C822.535 25.742 822.059 25.546 821.471 25.546C820.869 25.546 820.393 25.742 820.043 26.106C819.693 26.47 819.525 27.002 819.525 27.688V32H817.929V24.286H819.525V25.168C819.777 24.86 820.113 24.608 820.519 24.426C820.925 24.258 821.359 24.16 821.821 24.16C822.423 24.16 822.969 24.286 823.445 24.538ZM832.287 24.538C832.763 24.79 833.141 25.168 833.421 25.658C833.687 26.162 833.827 26.75 833.827 27.45V32H832.245V27.688C832.245 27.002 832.063 26.47 831.727 26.106C831.377 25.742 830.901 25.546 830.313 25.546C829.711 25.546 829.235 25.742 828.885 26.106C828.535 26.47 828.367 27.002 828.367 27.688V32H826.771V24.286H828.367V25.168C828.619 24.86 828.955 24.608 829.361 24.426C829.767 24.258 830.201 24.16 830.663 24.16C831.265 24.16 831.811 24.286 832.287 24.538ZM835.697 22.97C835.501 22.774 835.403 22.536 835.403 22.242C835.403 21.962 835.501 21.71 835.697 21.514C835.893 21.318 836.131 21.22 836.425 21.22C836.705 21.22 836.943 21.318 837.139 21.514C837.335 21.71 837.433 21.962 837.433 22.242C837.433 22.536 837.335 22.774 837.139 22.97C836.943 23.166 836.705 23.264 836.425 23.264C836.131 23.264 835.893 23.166 835.697 22.97ZM837.209 24.286V32H835.613V24.286H837.209ZM844.57 24.538C845.046 24.79 845.424 25.168 845.704 25.658C845.97 26.162 846.11 26.75 846.11 27.45V32H844.528V27.688C844.528 27.002 844.346 26.47 844.01 26.106C843.66 25.742 843.184 25.546 842.596 25.546C841.994 25.546 841.518 25.742 841.168 26.106C840.818 26.47 840.65 27.002 840.65 27.688V32H839.054V24.286H840.65V25.168C840.902 24.86 841.238 24.608 841.644 24.426C842.05 24.258 842.484 24.16 842.946 24.16C843.548 24.16 844.094 24.286 844.57 24.538ZM852.586 24.524C853.048 24.762 853.412 25.056 853.678 25.406V24.286H855.288V32.126C855.288 32.84 855.134 33.47 854.84 34.03C854.532 34.59 854.098 35.024 853.538 35.332C852.978 35.654 852.306 35.808 851.522 35.808C850.472 35.808 849.604 35.57 848.918 35.08C848.218 34.59 847.826 33.918 847.742 33.078H849.324C849.436 33.484 849.702 33.806 850.094 34.058C850.486 34.31 850.962 34.422 851.522 34.422C852.166 34.422 852.684 34.226 853.076 33.834C853.468 33.442 853.678 32.882 853.678 32.126V30.838C853.398 31.202 853.034 31.51 852.572 31.762C852.11 32.014 851.592 32.126 851.004 32.126C850.332 32.126 849.716 31.958 849.156 31.622C848.596 31.286 848.162 30.81 847.84 30.194C847.518 29.578 847.364 28.892 847.364 28.108C847.364 27.338 847.518 26.652 847.84 26.05C848.162 25.462 848.596 25 849.156 24.664C849.716 24.328 850.332 24.16 851.004 24.16C851.592 24.16 852.124 24.286 852.586 24.524ZM853.342 26.75C853.118 26.358 852.838 26.064 852.488 25.854C852.124 25.658 851.746 25.546 851.34 25.546C850.92 25.546 850.542 25.658 850.192 25.854C849.828 26.05 849.548 26.344 849.324 26.736C849.1 27.128 849.002 27.576 849.002 28.108C849.002 28.64 849.1 29.116 849.324 29.508C849.548 29.914 849.828 30.222 850.192 30.432C850.556 30.642 850.934 30.74 851.34 30.74C851.746 30.74 852.124 30.642 852.488 30.432C852.838 30.236 853.118 29.928 853.342 29.536C853.566 29.144 853.678 28.668 853.678 28.136C853.678 27.604 853.566 27.142 853.342 26.75ZM802.104 52L799.864 48.108H798.646V52H797.05V42.27H800.41C801.152 42.27 801.782 42.41 802.3 42.662C802.818 42.928 803.21 43.278 803.462 43.712C803.714 44.16 803.854 44.65 803.854 45.182C803.854 45.826 803.658 46.4 803.294 46.918C802.93 47.436 802.356 47.786 801.6 47.968L804.008 52H802.104ZM798.646 46.834H800.41C800.998 46.834 801.446 46.694 801.754 46.386C802.062 46.092 802.216 45.686 802.216 45.182C802.216 44.678 802.062 44.286 801.768 44.006C801.46 43.726 801.012 43.572 800.41 43.572H798.646V46.834ZM812.66 48.738H806.766C806.808 49.354 807.032 49.858 807.452 50.222C807.858 50.6 808.362 50.782 808.964 50.782C809.818 50.782 810.42 50.432 810.784 49.704H812.506C812.268 50.418 811.848 51.006 811.232 51.454C810.616 51.902 809.86 52.126 808.964 52.126C808.222 52.126 807.564 51.972 806.976 51.636C806.388 51.3 805.94 50.838 805.604 50.236C805.268 49.634 805.114 48.934 805.114 48.136C805.114 47.352 805.268 46.652 805.59 46.05C805.912 45.448 806.36 44.986 806.948 44.65C807.536 44.328 808.208 44.16 808.964 44.16C809.692 44.16 810.336 44.328 810.91 44.636C811.47 44.958 811.918 45.406 812.24 45.98C812.548 46.554 812.716 47.212 812.716 47.954C812.716 48.248 812.688 48.514 812.66 48.738ZM811.05 47.45C811.036 46.862 810.826 46.4 810.42 46.036C810 45.686 809.496 45.504 808.894 45.504C808.334 45.504 807.872 45.686 807.48 46.036C807.088 46.386 806.85 46.862 806.78 47.45H811.05ZM815.198 51.804C814.722 51.58 814.344 51.286 814.064 50.908C813.784 50.53 813.63 50.11 813.616 49.634H815.268C815.296 49.97 815.45 50.236 815.73 50.46C816.01 50.684 816.374 50.782 816.808 50.782C817.256 50.782 817.592 50.698 817.844 50.53C818.096 50.362 818.222 50.138 818.222 49.858C818.222 49.578 818.082 49.354 817.802 49.214C817.522 49.074 817.088 48.92 816.5 48.752C815.912 48.598 815.45 48.444 815.086 48.29C814.722 48.15 814.4 47.912 814.134 47.604C813.868 47.296 813.742 46.89 813.742 46.386C813.742 45.98 813.854 45.602 814.106 45.266C814.344 44.93 814.694 44.65 815.142 44.454C815.59 44.258 816.122 44.16 816.71 44.16C817.578 44.16 818.292 44.384 818.824 44.832C819.356 45.28 819.65 45.882 819.692 46.638H818.096C818.068 46.302 817.928 46.022 817.676 45.812C817.424 45.616 817.074 45.504 816.654 45.504C816.234 45.504 815.912 45.588 815.688 45.742C815.464 45.91 815.352 46.12 815.352 46.372C815.352 46.582 815.422 46.75 815.576 46.89C815.716 47.03 815.898 47.142 816.122 47.226C816.332 47.31 816.654 47.408 817.074 47.52C817.634 47.674 818.082 47.828 818.446 47.982C818.81 48.136 819.118 48.36 819.384 48.654C819.636 48.962 819.776 49.354 819.79 49.844C819.79 50.292 819.664 50.684 819.426 51.02C819.174 51.37 818.838 51.636 818.39 51.832C817.942 52.028 817.424 52.126 816.836 52.126C816.22 52.126 815.674 52.028 815.198 51.804ZM828.279 48.738H822.385C822.427 49.354 822.651 49.858 823.071 50.222C823.477 50.6 823.981 50.782 824.583 50.782C825.437 50.782 826.039 50.432 826.403 49.704H828.125C827.887 50.418 827.467 51.006 826.851 51.454C826.235 51.902 825.479 52.126 824.583 52.126C823.841 52.126 823.183 51.972 822.595 51.636C822.007 51.3 821.559 50.838 821.223 50.236C820.887 49.634 820.733 48.934 820.733 48.136C820.733 47.352 820.887 46.652 821.209 46.05C821.531 45.448 821.979 44.986 822.567 44.65C823.155 44.328 823.827 44.16 824.583 44.16C825.311 44.16 825.955 44.328 826.529 44.636C827.089 44.958 827.537 45.406 827.859 45.98C828.167 46.554 828.335 47.212 828.335 47.954C828.335 48.248 828.307 48.514 828.279 48.738ZM826.669 47.45C826.655 46.862 826.445 46.4 826.039 46.036C825.619 45.686 825.115 45.504 824.513 45.504C823.953 45.504 823.491 45.686 823.099 46.036C822.707 46.386 822.469 46.862 822.399 47.45H826.669ZM832.175 44.496C832.567 44.272 833.029 44.16 833.561 44.16V45.812H833.155C832.525 45.812 832.049 45.98 831.727 46.288C831.405 46.61 831.251 47.156 831.251 47.94V52H829.655V44.286H831.251V45.406C831.475 45.014 831.783 44.72 832.175 44.496ZM837.761 50.572L839.945 44.286H841.639L838.699 52H836.795L833.869 44.286H835.577L837.761 50.572ZM849.609 48.738H843.715C843.757 49.354 843.981 49.858 844.401 50.222C844.807 50.6 845.311 50.782 845.913 50.782C846.767 50.782 847.369 50.432 847.733 49.704H849.455C849.217 50.418 848.797 51.006 848.181 51.454C847.565 51.902 846.809 52.126 845.913 52.126C845.171 52.126 844.513 51.972 843.925 51.636C843.337 51.3 842.889 50.838 842.553 50.236C842.217 49.634 842.063 48.934 842.063 48.136C842.063 47.352 842.217 46.652 842.539 46.05C842.861 45.448 843.309 44.986 843.897 44.65C844.485 44.328 845.157 44.16 845.913 44.16C846.641 44.16 847.285 44.328 847.859 44.636C848.419 44.958 848.867 45.406 849.189 45.98C849.497 46.554 849.665 47.212 849.665 47.954C849.665 48.248 849.637 48.514 849.609 48.738ZM847.999 47.45C847.985 46.862 847.775 46.4 847.369 46.036C846.949 45.686 846.445 45.504 845.843 45.504C845.283 45.504 844.821 45.686 844.429 46.036C844.037 46.386 843.799 46.862 843.729 47.45H847.999Z" fill="#121212"/>
<path d="M665.298 22.27V32H663.702V25.336L660.734 32H659.628L656.646 25.336V32H655.05V22.27H656.772L660.188 29.9L663.59 22.27H665.298ZM667.09 26.05C667.412 25.462 667.846 25 668.406 24.664C668.966 24.328 669.582 24.16 670.254 24.16C670.856 24.16 671.388 24.286 671.836 24.524C672.284 24.762 672.648 25.056 672.928 25.406V24.286H674.538V32H672.928V30.852C672.648 31.216 672.284 31.524 671.822 31.762C671.346 32.014 670.814 32.126 670.226 32.126C669.554 32.126 668.952 31.958 668.406 31.622C667.846 31.286 667.412 30.81 667.09 30.194C666.768 29.578 666.614 28.892 666.614 28.108C666.614 27.338 666.768 26.652 667.09 26.05ZM672.592 26.75C672.368 26.358 672.088 26.064 671.738 25.854C671.374 25.658 670.996 25.546 670.59 25.546C670.17 25.546 669.792 25.658 669.442 25.854C669.078 26.05 668.798 26.344 668.574 26.736C668.35 27.128 668.252 27.576 668.252 28.108C668.252 28.64 668.35 29.116 668.574 29.508C668.798 29.914 669.078 30.222 669.442 30.432C669.806 30.642 670.184 30.74 670.59 30.74C670.996 30.74 671.374 30.642 671.738 30.432C672.088 30.236 672.368 29.928 672.592 29.536C672.816 29.144 672.928 28.668 672.928 28.136C672.928 27.604 672.816 27.142 672.592 26.75ZM679.688 28.094L682.18 32H680.374L678.708 29.382L677.14 32H675.474L677.966 28.206L675.474 24.286H677.28L678.946 26.904L680.514 24.286H682.18L679.688 28.094ZM683.036 31.804C682.84 31.608 682.742 31.37 682.742 31.076C682.742 30.796 682.84 30.544 683.036 30.348C683.232 30.152 683.47 30.054 683.764 30.054C684.044 30.054 684.282 30.152 684.478 30.348C684.674 30.544 684.772 30.796 684.772 31.076C684.772 31.37 684.674 31.608 684.478 31.804C684.282 32 684.044 32.098 683.764 32.098C683.47 32.098 683.232 32 683.036 31.804ZM689.578 26.05C689.9 25.462 690.334 25 690.894 24.664C691.454 24.328 692.07 24.16 692.756 24.16C693.26 24.16 693.75 24.272 694.24 24.496C694.73 24.72 695.122 25 695.416 25.364V21.64H697.026V32H695.416V30.838C695.15 31.216 694.786 31.524 694.324 31.762C693.862 32.014 693.33 32.126 692.742 32.126C692.07 32.126 691.454 31.958 690.894 31.622C690.334 31.286 689.9 30.81 689.578 30.194C689.256 29.578 689.102 28.892 689.102 28.108C689.102 27.338 689.256 26.652 689.578 26.05ZM695.08 26.75C694.856 26.358 694.576 26.064 694.226 25.854C693.862 25.658 693.484 25.546 693.078 25.546C692.658 25.546 692.28 25.658 691.93 25.854C691.566 26.05 691.286 26.344 691.062 26.736C690.838 27.128 690.74 27.576 690.74 28.108C690.74 28.64 690.838 29.116 691.062 29.508C691.286 29.914 691.566 30.222 691.93 30.432C692.294 30.642 692.672 30.74 693.078 30.74C693.484 30.74 693.862 30.642 694.226 30.432C694.576 30.236 694.856 29.928 695.08 29.536C695.304 29.144 695.416 28.668 695.416 28.136C695.416 27.604 695.304 27.142 695.08 26.75ZM705.886 28.738H699.992C700.034 29.354 700.258 29.858 700.678 30.222C701.084 30.6 701.588 30.782 702.19 30.782C703.044 30.782 703.646 30.432 704.01 29.704H705.732C705.494 30.418 705.074 31.006 704.458 31.454C703.842 31.902 703.086 32.126 702.19 32.126C701.448 32.126 700.79 31.972 700.202 31.636C699.614 31.3 699.166 30.838 698.83 30.236C698.494 29.634 698.34 28.934 698.34 28.136C698.34 27.352 698.494 26.652 698.816 26.05C699.138 25.448 699.586 24.986 700.174 24.65C700.762 24.328 701.434 24.16 702.19 24.16C702.918 24.16 703.562 24.328 704.136 24.636C704.696 24.958 705.144 25.406 705.466 25.98C705.774 26.554 705.942 27.212 705.942 27.954C705.942 28.248 705.914 28.514 705.886 28.738ZM704.276 27.45C704.262 26.862 704.052 26.4 703.646 26.036C703.226 25.686 702.722 25.504 702.12 25.504C701.56 25.504 701.098 25.686 700.706 26.036C700.314 26.386 700.076 26.862 700.006 27.45H704.276ZM708.859 21.64V32H707.263V21.64H708.859ZM710.788 22.97C710.592 22.774 710.494 22.536 710.494 22.242C710.494 21.962 710.592 21.71 710.788 21.514C710.984 21.318 711.222 21.22 711.516 21.22C711.796 21.22 712.034 21.318 712.23 21.514C712.426 21.71 712.524 21.962 712.524 22.242C712.524 22.536 712.426 22.774 712.23 22.97C712.034 23.166 711.796 23.264 711.516 23.264C711.222 23.264 710.984 23.166 710.788 22.97ZM712.3 24.286V32H710.704V24.286H712.3ZM717.128 30.572L719.312 24.286H721.006L718.066 32H716.162L713.236 24.286H714.944L717.128 30.572ZM728.976 28.738H723.082C723.124 29.354 723.348 29.858 723.768 30.222C724.174 30.6 724.678 30.782 725.28 30.782C726.134 30.782 726.736 30.432 727.1 29.704H728.822C728.584 30.418 728.164 31.006 727.548 31.454C726.932 31.902 726.176 32.126 725.28 32.126C724.538 32.126 723.88 31.972 723.292 31.636C722.704 31.3 722.256 30.838 721.92 30.236C721.584 29.634 721.43 28.934 721.43 28.136C721.43 27.352 721.584 26.652 721.906 26.05C722.228 25.448 722.676 24.986 723.264 24.65C723.852 24.328 724.524 24.16 725.28 24.16C726.008 24.16 726.652 24.328 727.226 24.636C727.786 24.958 728.234 25.406 728.556 25.98C728.864 26.554 729.032 27.212 729.032 27.954C729.032 28.248 729.004 28.514 728.976 28.738ZM727.366 27.45C727.352 26.862 727.142 26.4 726.736 26.036C726.316 25.686 725.812 25.504 725.21 25.504C724.65 25.504 724.188 25.686 723.796 26.036C723.404 26.386 723.166 26.862 723.096 27.45H727.366ZM732.873 24.496C733.265 24.272 733.727 24.16 734.259 24.16V25.812H733.853C733.223 25.812 732.747 25.98 732.425 26.288C732.103 26.61 731.949 27.156 731.949 27.94V32H730.353V24.286H731.949V25.406C732.173 25.014 732.481 24.72 732.873 24.496ZM735.42 26.05C735.742 25.462 736.176 25 736.736 24.664C737.296 24.328 737.912 24.16 738.584 24.16C739.186 24.16 739.718 24.286 740.166 24.524C740.614 24.762 740.978 25.056 741.258 25.406V24.286H742.868V32H741.258V30.852C740.978 31.216 740.614 31.524 740.152 31.762C739.676 32.014 739.144 32.126 738.556 32.126C737.884 32.126 737.282 31.958 736.736 31.622C736.176 31.286 735.742 30.81 735.42 30.194C735.098 29.578 734.944 28.892 734.944 28.108C734.944 27.338 735.098 26.652 735.42 26.05ZM740.922 26.75C740.698 26.358 740.418 26.064 740.068 25.854C739.704 25.658 739.326 25.546 738.92 25.546C738.5 25.546 738.122 25.658 737.772 25.854C737.408 26.05 737.128 26.344 736.904 26.736C736.68 27.128 736.582 27.576 736.582 28.108C736.582 28.64 736.68 29.116 736.904 29.508C737.128 29.914 737.408 30.222 737.772 30.432C738.136 30.642 738.514 30.74 738.92 30.74C739.326 30.74 739.704 30.642 740.068 30.432C740.418 30.236 740.698 29.928 740.922 29.536C741.146 29.144 741.258 28.668 741.258 28.136C741.258 27.604 741.146 27.142 740.922 26.75ZM747.416 24.524C747.892 24.286 748.41 24.16 748.998 24.16C749.67 24.16 750.286 24.328 750.846 24.65C751.392 24.986 751.826 25.448 752.148 26.05C752.456 26.652 752.624 27.338 752.624 28.108C752.624 28.892 752.456 29.578 752.148 30.194C751.826 30.81 751.392 31.286 750.832 31.622C750.272 31.958 749.67 32.126 748.998 32.126C748.396 32.126 747.864 32.014 747.402 31.776C746.94 31.552 746.576 31.244 746.31 30.88V32H744.714V21.64H746.31V25.434C746.576 25.07 746.94 24.762 747.416 24.524ZM750.664 26.736C750.44 26.344 750.16 26.05 749.796 25.854C749.432 25.658 749.054 25.546 748.648 25.546C748.242 25.546 747.864 25.658 747.5 25.854C747.136 26.064 746.856 26.358 746.632 26.75C746.408 27.142 746.31 27.604 746.31 28.136C746.31 28.668 746.408 29.144 746.632 29.536C746.856 29.928 747.136 30.236 747.5 30.432C747.864 30.642 748.242 30.74 748.648 30.74C749.054 30.74 749.432 30.642 749.796 30.432C750.16 30.222 750.44 29.914 750.664 29.508C750.888 29.116 751 28.64 751 28.108C751 27.576 750.888 27.128 750.664 26.736ZM755.548 21.64V32H753.952V21.64H755.548ZM764.408 28.738H758.514C758.556 29.354 758.78 29.858 759.2 30.222C759.606 30.6 760.11 30.782 760.712 30.782C761.566 30.782 762.168 30.432 762.532 29.704H764.254C764.016 30.418 763.596 31.006 762.98 31.454C762.364 31.902 761.608 32.126 760.712 32.126C759.97 32.126 759.312 31.972 758.724 31.636C758.136 31.3 757.688 30.838 757.352 30.236C757.016 29.634 756.862 28.934 756.862 28.136C756.862 27.352 757.016 26.652 757.338 26.05C757.66 25.448 758.108 24.986 758.696 24.65C759.284 24.328 759.956 24.16 760.712 24.16C761.44 24.16 762.084 24.328 762.658 24.636C763.218 24.958 763.666 25.406 763.988 25.98C764.296 26.554 764.464 27.212 764.464 27.954C764.464 28.248 764.436 28.514 764.408 28.738ZM762.798 27.45C762.784 26.862 762.574 26.4 762.168 26.036C761.748 25.686 761.244 25.504 760.642 25.504C760.082 25.504 759.62 25.686 759.228 26.036C758.836 26.386 758.598 26.862 758.528 27.45H762.798ZM657.752 44.524C658.214 44.286 658.746 44.16 659.334 44.16C660.006 44.16 660.608 44.328 661.168 44.664C661.728 45 662.162 45.462 662.484 46.05C662.792 46.652 662.96 47.338 662.96 48.108C662.96 48.892 662.792 49.578 662.484 50.194C662.162 50.81 661.728 51.286 661.168 51.622C660.608 51.958 660.006 52.126 659.334 52.126C658.746 52.126 658.214 52.014 657.766 51.776C657.304 51.538 656.926 51.244 656.646 50.88V55.668H655.05V44.286H656.646V45.42C656.912 45.07 657.276 44.776 657.752 44.524ZM661 46.736C660.776 46.344 660.496 46.05 660.132 45.854C659.768 45.658 659.39 45.546 658.984 45.546C658.578 45.546 658.2 45.658 657.836 45.854C657.472 46.064 657.192 46.358 656.968 46.75C656.744 47.142 656.646 47.604 656.646 48.136C656.646 48.668 656.744 49.144 656.968 49.536C657.192 49.928 657.472 50.236 657.836 50.432C658.2 50.642 658.578 50.74 658.984 50.74C659.39 50.74 659.768 50.642 660.132 50.432C660.496 50.222 660.776 49.914 661 49.508C661.224 49.116 661.336 48.64 661.336 48.108C661.336 47.576 661.224 47.128 661 46.736ZM665.66 51.636C665.072 51.3 664.61 50.838 664.274 50.236C663.938 49.634 663.77 48.934 663.77 48.136C663.77 47.352 663.938 46.666 664.288 46.05C664.624 45.448 665.1 44.986 665.702 44.65C666.29 44.328 666.962 44.16 667.704 44.16C668.432 44.16 669.104 44.328 669.706 44.65C670.294 44.986 670.77 45.448 671.12 46.05C671.456 46.666 671.638 47.352 671.638 48.136C671.638 48.92 671.456 49.62 671.106 50.222C670.742 50.838 670.266 51.3 669.65 51.636C669.034 51.972 668.362 52.126 667.634 52.126C666.906 52.126 666.248 51.972 665.66 51.636ZM668.782 50.446C669.146 50.25 669.44 49.956 669.664 49.564C669.888 49.172 670 48.696 670 48.136C670 47.576 669.888 47.114 669.678 46.722C669.454 46.33 669.174 46.036 668.824 45.84C668.46 45.644 668.082 45.546 667.676 45.546C667.256 45.546 666.878 45.644 666.528 45.84C666.178 46.036 665.898 46.33 665.702 46.722C665.492 47.114 665.394 47.576 665.394 48.136C665.394 48.976 665.604 49.62 666.024 50.068C666.444 50.516 666.99 50.74 667.634 50.74C668.04 50.74 668.418 50.642 668.782 50.446ZM683.326 44.286L680.932 52H679.252L677.698 46.302L676.144 52H674.464L672.056 44.286H673.68L675.29 50.488L676.928 44.286H678.594L680.162 50.46L681.758 44.286H683.326ZM691.283 48.738H685.389C685.431 49.354 685.655 49.858 686.075 50.222C686.481 50.6 686.985 50.782 687.587 50.782C688.441 50.782 689.043 50.432 689.407 49.704H691.129C690.891 50.418 690.471 51.006 689.855 51.454C689.239 51.902 688.483 52.126 687.587 52.126C686.845 52.126 686.187 51.972 685.599 51.636C685.011 51.3 684.563 50.838 684.227 50.236C683.891 49.634 683.737 48.934 683.737 48.136C683.737 47.352 683.891 46.652 684.213 46.05C684.535 45.448 684.983 44.986 685.571 44.65C686.159 44.328 686.831 44.16 687.587 44.16C688.315 44.16 688.959 44.328 689.533 44.636C690.093 44.958 690.541 45.406 690.863 45.98C691.171 46.554 691.339 47.212 691.339 47.954C691.339 48.248 691.311 48.514 691.283 48.738ZM689.673 47.45C689.659 46.862 689.449 46.4 689.043 46.036C688.623 45.686 688.119 45.504 687.517 45.504C686.957 45.504 686.495 45.686 686.103 46.036C685.711 46.386 685.473 46.862 685.403 47.45H689.673ZM695.179 44.496C695.571 44.272 696.033 44.16 696.565 44.16V45.812H696.159C695.529 45.812 695.053 45.98 694.731 46.288C694.409 46.61 694.255 47.156 694.255 47.94V52H692.659V44.286H694.255V45.406C694.479 45.014 694.787 44.72 695.179 44.496Z" fill="#121212"/>
<path d="M538.891 107H532.656V105.934L535.049 103.329C535.391 102.96 535.696 102.623 535.965 102.317C536.234 102.012 536.462 101.714 536.648 101.422C536.84 101.13 536.986 100.839 537.086 100.547C537.186 100.251 537.236 99.9294 537.236 99.583C537.236 99.3141 537.198 99.0771 537.12 98.8721C537.043 98.667 536.931 98.4938 536.785 98.3525C536.644 98.2067 536.475 98.0973 536.279 98.0244C536.083 97.9515 535.865 97.915 535.623 97.915C535.19 97.915 534.798 98.0039 534.447 98.1816C534.101 98.3548 533.771 98.5781 533.456 98.8516L532.759 98.0381C532.941 97.874 533.137 97.7214 533.347 97.5801C533.556 97.4342 533.782 97.3089 534.023 97.2041C534.265 97.0993 534.52 97.0173 534.789 96.958C535.058 96.8942 535.34 96.8623 535.637 96.8623C536.074 96.8623 536.468 96.9238 536.819 97.0469C537.175 97.1699 537.476 97.3477 537.722 97.5801C537.968 97.8079 538.157 98.0882 538.289 98.4209C538.426 98.749 538.494 99.1204 538.494 99.5352C538.494 99.9225 538.433 100.292 538.31 100.643C538.191 100.993 538.025 101.34 537.811 101.682C537.601 102.019 537.348 102.358 537.052 102.7C536.76 103.042 536.443 103.397 536.102 103.767L534.181 105.811V105.865H538.891V107ZM546.738 101.271C546.738 101.75 546.713 102.229 546.663 102.707C546.618 103.181 546.533 103.634 546.41 104.067C546.292 104.5 546.128 104.906 545.918 105.284C545.708 105.658 545.442 105.981 545.118 106.255C544.795 106.528 544.407 106.745 543.956 106.904C543.505 107.059 542.976 107.137 542.37 107.137C542.284 107.137 542.188 107.134 542.083 107.13C541.978 107.125 541.873 107.116 541.769 107.103C541.664 107.093 541.561 107.082 541.461 107.068C541.361 107.055 541.272 107.036 541.194 107.014V105.947C541.354 106.007 541.534 106.05 541.734 106.077C541.935 106.104 542.133 106.118 542.329 106.118C542.944 106.118 543.45 106.011 543.847 105.797C544.243 105.583 544.558 105.293 544.79 104.929C545.022 104.56 545.187 104.131 545.282 103.644C545.382 103.156 545.444 102.641 545.467 102.099H545.378C545.287 102.263 545.177 102.415 545.05 102.557C544.922 102.698 544.772 102.821 544.599 102.926C544.425 103.031 544.229 103.113 544.011 103.172C543.792 103.231 543.548 103.261 543.279 103.261C542.846 103.261 542.454 103.195 542.104 103.062C541.753 102.926 541.454 102.728 541.208 102.468C540.962 102.208 540.771 101.891 540.634 101.518C540.502 101.139 540.436 100.709 540.436 100.226C540.436 99.7061 540.506 99.2389 540.647 98.8242C540.793 98.4049 540.996 98.0518 541.256 97.7646C541.52 97.473 541.839 97.2497 542.213 97.0947C542.591 96.9398 543.013 96.8623 543.478 96.8623C543.938 96.8623 544.366 96.9512 544.763 97.1289C545.159 97.3066 545.503 97.5778 545.795 97.9424C546.087 98.307 546.317 98.7673 546.485 99.3232C546.654 99.8747 546.738 100.524 546.738 101.271ZM543.491 97.915C543.218 97.915 542.967 97.9606 542.739 98.0518C542.516 98.1429 542.322 98.2842 542.158 98.4756C541.994 98.667 541.867 98.9085 541.775 99.2002C541.689 99.4873 541.646 99.8291 541.646 100.226C541.646 100.545 541.682 100.832 541.755 101.087C541.832 101.338 541.946 101.552 542.097 101.729C542.247 101.907 542.434 102.044 542.657 102.14C542.885 102.235 543.149 102.283 543.45 102.283C543.76 102.283 544.04 102.231 544.291 102.126C544.542 102.017 544.756 101.878 544.934 101.709C545.111 101.536 545.248 101.34 545.344 101.121C545.444 100.902 545.494 100.684 545.494 100.465C545.494 100.16 545.451 99.8564 545.364 99.5557C545.282 99.2503 545.157 98.9769 544.988 98.7354C544.824 98.4893 544.617 98.291 544.366 98.1406C544.116 97.9902 543.824 97.915 543.491 97.915ZM548.427 106.241C548.427 106.068 548.45 105.922 548.495 105.804C548.541 105.681 548.602 105.583 548.68 105.51C548.757 105.432 548.848 105.378 548.953 105.346C549.058 105.309 549.172 105.291 549.295 105.291C549.413 105.291 549.525 105.309 549.63 105.346C549.739 105.378 549.833 105.432 549.91 105.51C549.988 105.583 550.049 105.681 550.095 105.804C550.14 105.922 550.163 106.068 550.163 106.241C550.163 106.41 550.14 106.556 550.095 106.679C550.049 106.797 549.988 106.895 549.91 106.973C549.833 107.05 549.739 107.107 549.63 107.144C549.525 107.18 549.413 107.198 549.295 107.198C549.172 107.198 549.058 107.18 548.953 107.144C548.848 107.107 548.757 107.05 548.68 106.973C548.602 106.895 548.541 106.797 548.495 106.679C548.45 106.556 548.427 106.41 548.427 106.241ZM557.751 99.3438C557.751 99.6764 557.699 99.9795 557.594 100.253C557.489 100.526 557.341 100.763 557.149 100.964C556.963 101.164 556.737 101.331 556.473 101.463C556.208 101.59 555.914 101.682 555.591 101.736V101.777C556.397 101.878 557.01 102.135 557.43 102.55C557.849 102.96 558.059 103.495 558.059 104.156C558.059 104.594 557.983 104.995 557.833 105.359C557.687 105.724 557.464 106.038 557.163 106.303C556.862 106.567 556.482 106.772 556.021 106.918C555.561 107.064 555.017 107.137 554.388 107.137C553.891 107.137 553.422 107.098 552.979 107.021C552.542 106.943 552.13 106.802 551.742 106.597V105.435C552.139 105.644 552.567 105.806 553.027 105.92C553.492 106.034 553.937 106.091 554.36 106.091C554.78 106.091 555.142 106.045 555.447 105.954C555.753 105.863 556.003 105.733 556.199 105.564C556.4 105.396 556.546 105.188 556.637 104.942C556.732 104.696 556.78 104.421 556.78 104.115C556.78 103.805 556.719 103.541 556.596 103.322C556.477 103.099 556.306 102.917 556.083 102.775C555.86 102.63 555.586 102.522 555.263 102.454C554.944 102.386 554.581 102.352 554.176 102.352H553.267V101.319H554.176C554.545 101.319 554.873 101.274 555.16 101.183C555.447 101.091 555.687 100.962 555.878 100.793C556.074 100.624 556.222 100.424 556.322 100.191C556.423 99.959 556.473 99.7038 556.473 99.4258C556.473 99.1888 556.432 98.9769 556.35 98.79C556.268 98.6032 556.151 98.446 556.001 98.3184C555.851 98.1862 555.671 98.0859 555.461 98.0176C555.251 97.9492 555.019 97.915 554.764 97.915C554.276 97.915 553.845 97.9925 553.472 98.1475C553.103 98.2979 552.749 98.4961 552.412 98.7422L551.783 97.8877C551.956 97.7464 552.148 97.6143 552.357 97.4912C552.572 97.3682 552.804 97.2611 553.055 97.1699C553.305 97.0742 553.572 96.999 553.854 96.9443C554.142 96.8896 554.445 96.8623 554.764 96.8623C555.256 96.8623 555.687 96.9238 556.056 97.0469C556.429 97.1699 556.742 97.3431 556.992 97.5664C557.243 97.7852 557.432 98.0472 557.56 98.3525C557.687 98.6533 557.751 98.9837 557.751 99.3438ZM537.77 167L534.475 158.236H534.42C534.488 158.965 534.522 159.866 534.522 160.937V167H533.36V157.006H535.22L538.303 165.195H538.357L541.495 157.006H543.341V167H542.097V160.854C542.097 160.171 542.129 159.303 542.192 158.25H542.138L538.802 167H537.77ZM554.88 167H553.608L551.66 160.451C551.373 159.476 551.204 158.817 551.154 158.476C551.081 159 550.922 159.672 550.676 160.492L548.789 167H547.518L544.872 157.006H546.185L547.736 163.11C547.946 163.908 548.105 164.701 548.215 165.489C548.315 164.742 548.493 163.924 548.748 163.035L550.512 157.006H551.811L553.649 163.083C553.886 163.871 554.069 164.674 554.196 165.489C554.269 164.86 554.431 164.063 554.682 163.097L556.227 157.006H557.539L554.88 167Z" fill="#595959"/>
<path d="M538.916 30.012H534.842L534.142 32H532.476L535.962 22.256H537.81L541.296 32H539.616L538.916 30.012ZM538.468 28.71L536.886 24.188L535.29 28.71H538.468ZM542.506 26.05C542.828 25.448 543.276 24.986 543.85 24.65C544.41 24.328 545.068 24.16 545.81 24.16C546.734 24.16 547.504 24.384 548.12 24.832C548.736 25.28 549.142 25.91 549.366 26.722H547.644C547.504 26.344 547.28 26.05 546.972 25.826C546.664 25.616 546.272 25.504 545.81 25.504C545.152 25.504 544.634 25.742 544.242 26.204C543.85 26.666 543.668 27.31 543.668 28.136C543.668 28.976 543.85 29.62 544.242 30.082C544.634 30.558 545.152 30.782 545.81 30.782C546.734 30.782 547.336 30.376 547.644 29.564H549.366C549.142 30.348 548.722 30.978 548.106 31.44C547.49 31.902 546.72 32.126 545.81 32.126C545.068 32.126 544.41 31.972 543.85 31.636C543.276 31.3 542.828 30.838 542.506 30.236C542.184 29.634 542.03 28.934 542.03 28.136C542.03 27.352 542.184 26.652 542.506 26.05ZM552.568 25.588V29.858C552.568 30.152 552.624 30.362 552.764 30.488C552.904 30.614 553.128 30.67 553.464 30.67H554.444V32H553.184C552.456 32 551.91 31.832 551.532 31.496C551.14 31.16 550.958 30.614 550.958 29.858V25.588H550.048V24.286H550.958V22.368H552.568V24.286H554.444V25.588H552.568ZM562.651 24.286V32H561.055V31.09C560.803 31.412 560.467 31.664 560.061 31.846C559.655 32.028 559.221 32.112 558.773 32.112C558.157 32.112 557.611 31.986 557.135 31.734C556.659 31.482 556.281 31.118 556.001 30.614C555.721 30.124 555.595 29.522 555.595 28.822V24.286H557.177V28.584C557.177 29.284 557.345 29.816 557.695 30.18C558.031 30.544 558.507 30.726 559.109 30.726C559.697 30.726 560.173 30.544 560.523 30.18C560.873 29.816 561.055 29.284 561.055 28.584V24.286H562.651ZM564.451 26.05C564.773 25.462 565.207 25 565.767 24.664C566.327 24.328 566.943 24.16 567.615 24.16C568.217 24.16 568.749 24.286 569.197 24.524C569.645 24.762 570.009 25.056 570.289 25.406V24.286H571.899V32H570.289V30.852C570.009 31.216 569.645 31.524 569.183 31.762C568.707 32.014 568.175 32.126 567.587 32.126C566.915 32.126 566.313 31.958 565.767 31.622C565.207 31.286 564.773 30.81 564.451 30.194C564.129 29.578 563.975 28.892 563.975 28.108C563.975 27.338 564.129 26.652 564.451 26.05ZM569.953 26.75C569.729 26.358 569.449 26.064 569.099 25.854C568.735 25.658 568.357 25.546 567.951 25.546C567.531 25.546 567.153 25.658 566.803 25.854C566.439 26.05 566.159 26.344 565.935 26.736C565.711 27.128 565.613 27.576 565.613 28.108C565.613 28.64 565.711 29.116 565.935 29.508C566.159 29.914 566.439 30.222 566.803 30.432C567.167 30.642 567.545 30.74 567.951 30.74C568.357 30.74 568.735 30.642 569.099 30.432C569.449 30.236 569.729 29.928 569.953 29.536C570.177 29.144 570.289 28.668 570.289 28.136C570.289 27.604 570.177 27.142 569.953 26.75ZM575.341 21.64V32H573.745V21.64H575.341ZM583.275 24.524C583.737 24.286 584.269 24.16 584.857 24.16C585.529 24.16 586.131 24.328 586.691 24.664C587.251 25 587.685 25.462 588.007 26.05C588.315 26.652 588.483 27.338 588.483 28.108C588.483 28.892 588.315 29.578 588.007 30.194C587.685 30.81 587.251 31.286 586.691 31.622C586.131 31.958 585.529 32.126 584.857 32.126C584.269 32.126 583.737 32.014 583.289 31.776C582.827 31.538 582.449 31.244 582.169 30.88V35.668H580.573V24.286H582.169V25.42C582.435 25.07 582.799 24.776 583.275 24.524ZM586.523 26.736C586.299 26.344 586.019 26.05 585.655 25.854C585.291 25.658 584.913 25.546 584.507 25.546C584.101 25.546 583.723 25.658 583.359 25.854C582.995 26.064 582.715 26.358 582.491 26.75C582.267 27.142 582.169 27.604 582.169 28.136C582.169 28.668 582.267 29.144 582.491 29.536C582.715 29.928 582.995 30.236 583.359 30.432C583.723 30.642 584.101 30.74 584.507 30.74C584.913 30.74 585.291 30.642 585.655 30.432C586.019 30.222 586.299 29.914 586.523 29.508C586.747 29.116 586.859 28.64 586.859 28.108C586.859 27.576 586.747 27.128 586.523 26.736ZM591.184 31.636C590.596 31.3 590.134 30.838 589.798 30.236C589.462 29.634 589.294 28.934 589.294 28.136C589.294 27.352 589.462 26.666 589.812 26.05C590.148 25.448 590.624 24.986 591.226 24.65C591.814 24.328 592.486 24.16 593.228 24.16C593.956 24.16 594.628 24.328 595.23 24.65C595.818 24.986 596.294 25.448 596.644 26.05C596.98 26.666 597.162 27.352 597.162 28.136C597.162 28.92 596.98 29.62 596.63 30.222C596.266 30.838 595.79 31.3 595.174 31.636C594.558 31.972 593.886 32.126 593.158 32.126C592.43 32.126 591.772 31.972 591.184 31.636ZM594.306 30.446C594.67 30.25 594.964 29.956 595.188 29.564C595.412 29.172 595.524 28.696 595.524 28.136C595.524 27.576 595.412 27.114 595.202 26.722C594.978 26.33 594.698 26.036 594.348 25.84C593.984 25.644 593.606 25.546 593.2 25.546C592.78 25.546 592.402 25.644 592.052 25.84C591.702 26.036 591.422 26.33 591.226 26.722C591.016 27.114 590.918 27.576 590.918 28.136C590.918 28.976 591.128 29.62 591.548 30.068C591.968 30.516 592.514 30.74 593.158 30.74C593.564 30.74 593.942 30.642 594.306 30.446ZM608.849 24.286L606.455 32H604.775L603.221 26.302L601.667 32H599.987L597.579 24.286H599.203L600.813 30.488L602.451 24.286H604.117L605.685 30.46L607.281 24.286H608.849ZM616.806 28.738H610.912C610.954 29.354 611.178 29.858 611.598 30.222C612.004 30.6 612.508 30.782 613.11 30.782C613.964 30.782 614.566 30.432 614.93 29.704H616.652C616.414 30.418 615.994 31.006 615.378 31.454C614.762 31.902 614.006 32.126 613.11 32.126C612.368 32.126 611.71 31.972 611.122 31.636C610.534 31.3 610.086 30.838 609.75 30.236C609.414 29.634 609.26 28.934 609.26 28.136C609.26 27.352 609.414 26.652 609.736 26.05C610.058 25.448 610.506 24.986 611.094 24.65C611.682 24.328 612.354 24.16 613.11 24.16C613.838 24.16 614.482 24.328 615.056 24.636C615.616 24.958 616.064 25.406 616.386 25.98C616.694 26.554 616.862 27.212 616.862 27.954C616.862 28.248 616.834 28.514 616.806 28.738ZM615.196 27.45C615.182 26.862 614.972 26.4 614.566 26.036C614.146 25.686 613.642 25.504 613.04 25.504C612.48 25.504 612.018 25.686 611.626 26.036C611.234 26.386 610.996 26.862 610.926 27.45H615.196ZM620.703 24.496C621.095 24.272 621.557 24.16 622.089 24.16V25.812H621.683C621.053 25.812 620.577 25.98 620.255 26.288C619.933 26.61 619.779 27.156 619.779 27.94V32H618.183V24.286H619.779V25.406C620.003 25.014 620.311 24.72 620.703 24.496Z" fill="#121212"/>
<path d="M390.504 26.568C390.266 27.016 389.888 27.366 389.384 27.646C388.866 27.926 388.208 28.052 387.41 28.052H385.646V32H384.05V22.27H387.41C388.152 22.27 388.782 22.41 389.3 22.662C389.818 22.914 390.21 23.264 390.462 23.698C390.714 24.146 390.854 24.636 390.854 25.168C390.854 25.672 390.728 26.134 390.504 26.568ZM388.768 26.344C389.062 26.064 389.216 25.672 389.216 25.168C389.216 24.104 388.614 23.572 387.41 23.572H385.646V26.75H387.41C388.012 26.75 388.46 26.624 388.768 26.344ZM392.07 26.05C392.392 25.462 392.826 25 393.386 24.664C393.946 24.328 394.562 24.16 395.234 24.16C395.836 24.16 396.368 24.286 396.816 24.524C397.264 24.762 397.628 25.056 397.908 25.406V24.286H399.518V32H397.908V30.852C397.628 31.216 397.264 31.524 396.802 31.762C396.326 32.014 395.794 32.126 395.206 32.126C394.534 32.126 393.932 31.958 393.386 31.622C392.826 31.286 392.392 30.81 392.07 30.194C391.748 29.578 391.594 28.892 391.594 28.108C391.594 27.338 391.748 26.652 392.07 26.05ZM397.572 26.75C397.348 26.358 397.068 26.064 396.718 25.854C396.354 25.658 395.976 25.546 395.57 25.546C395.15 25.546 394.772 25.658 394.422 25.854C394.058 26.05 393.778 26.344 393.554 26.736C393.33 27.128 393.232 27.576 393.232 28.108C393.232 28.64 393.33 29.116 393.554 29.508C393.778 29.914 394.058 30.222 394.422 30.432C394.786 30.642 395.164 30.74 395.57 30.74C395.976 30.74 396.354 30.642 396.718 30.432C397.068 30.236 397.348 29.928 397.572 29.536C397.796 29.144 397.908 28.668 397.908 28.136C397.908 27.604 397.796 27.142 397.572 26.75ZM403.884 24.496C404.276 24.272 404.738 24.16 405.27 24.16V25.812H404.864C404.234 25.812 403.758 25.98 403.436 26.288C403.114 26.61 402.96 27.156 402.96 27.94V32H401.364V24.286H402.96V25.406C403.184 25.014 403.492 24.72 403.884 24.496ZM406.432 26.05C406.754 25.462 407.188 25 407.748 24.664C408.308 24.328 408.924 24.16 409.596 24.16C410.198 24.16 410.73 24.286 411.178 24.524C411.626 24.762 411.99 25.056 412.27 25.406V24.286H413.88V32H412.27V30.852C411.99 31.216 411.626 31.524 411.164 31.762C410.688 32.014 410.156 32.126 409.568 32.126C408.896 32.126 408.294 31.958 407.748 31.622C407.188 31.286 406.754 30.81 406.432 30.194C406.11 29.578 405.956 28.892 405.956 28.108C405.956 27.338 406.11 26.652 406.432 26.05ZM411.934 26.75C411.71 26.358 411.43 26.064 411.08 25.854C410.716 25.658 410.338 25.546 409.932 25.546C409.512 25.546 409.133 25.658 408.784 25.854C408.42 26.05 408.14 26.344 407.916 26.736C407.692 27.128 407.594 27.576 407.594 28.108C407.594 28.64 407.692 29.116 407.916 29.508C408.14 29.914 408.42 30.222 408.784 30.432C409.148 30.642 409.526 30.74 409.932 30.74C410.338 30.74 410.716 30.642 411.08 30.432C411.43 30.236 411.71 29.928 411.934 29.536C412.158 29.144 412.27 28.668 412.27 28.136C412.27 27.604 412.158 27.142 411.934 26.75ZM426.688 24.538C427.164 24.79 427.542 25.168 427.822 25.658C428.102 26.162 428.242 26.75 428.242 27.45V32H426.66V27.688C426.66 27.002 426.478 26.47 426.142 26.106C425.792 25.742 425.316 25.546 424.728 25.546C424.126 25.546 423.65 25.742 423.3 26.106C422.95 26.47 422.782 27.002 422.782 27.688V32H421.2V27.688C421.2 27.002 421.018 26.47 420.682 26.106C420.332 25.742 419.856 25.546 419.268 25.546C418.666 25.546 418.19 25.742 417.84 26.106C417.49 26.47 417.322 27.002 417.322 27.688V32H415.726V24.286H417.322V25.168C417.574 24.86 417.91 24.608 418.316 24.426C418.708 24.258 419.142 24.16 419.604 24.16C420.22 24.16 420.766 24.3 421.256 24.552C421.732 24.818 422.11 25.196 422.376 25.686C422.6 25.224 422.964 24.86 423.468 24.58C423.958 24.3 424.49 24.16 425.064 24.16C425.666 24.16 426.212 24.286 426.688 24.538ZM437.037 28.738H431.143C431.185 29.354 431.409 29.858 431.829 30.222C432.235 30.6 432.739 30.782 433.341 30.782C434.195 30.782 434.797 30.432 435.161 29.704H436.883C436.645 30.418 436.225 31.006 435.609 31.454C434.993 31.902 434.237 32.126 433.341 32.126C432.599 32.126 431.941 31.972 431.353 31.636C430.765 31.3 430.317 30.838 429.981 30.236C429.645 29.634 429.491 28.934 429.491 28.136C429.491 27.352 429.645 26.652 429.967 26.05C430.289 25.448 430.737 24.986 431.325 24.65C431.913 24.328 432.585 24.16 433.341 24.16C434.069 24.16 434.713 24.328 435.287 24.636C435.847 24.958 436.295 25.406 436.617 25.98C436.925 26.554 437.093 27.212 437.093 27.954C437.093 28.248 437.065 28.514 437.037 28.738ZM435.427 27.45C435.413 26.862 435.203 26.4 434.797 26.036C434.377 25.686 433.873 25.504 433.271 25.504C432.711 25.504 432.249 25.686 431.857 26.036C431.465 26.386 431.227 26.862 431.157 27.45H435.427ZM440.275 25.588V29.858C440.275 30.152 440.331 30.362 440.471 30.488C440.611 30.614 440.835 30.67 441.171 30.67H442.151V32H440.891C440.163 32 439.617 31.832 439.239 31.496C438.847 31.16 438.665 30.614 438.665 29.858V25.588H437.755V24.286H438.665V22.368H440.275V24.286H442.151V25.588H440.275ZM450.386 28.738H444.492C444.534 29.354 444.758 29.858 445.178 30.222C445.584 30.6 446.088 30.782 446.69 30.782C447.544 30.782 448.146 30.432 448.51 29.704H450.232C449.994 30.418 449.574 31.006 448.958 31.454C448.342 31.902 447.586 32.126 446.69 32.126C445.948 32.126 445.29 31.972 444.702 31.636C444.114 31.3 443.666 30.838 443.33 30.236C442.994 29.634 442.84 28.934 442.84 28.136C442.84 27.352 442.994 26.652 443.316 26.05C443.638 25.448 444.086 24.986 444.674 24.65C445.262 24.328 445.934 24.16 446.69 24.16C447.418 24.16 448.062 24.328 448.636 24.636C449.196 24.958 449.644 25.406 449.966 25.98C450.274 26.554 450.442 27.212 450.442 27.954C450.442 28.248 450.414 28.514 450.386 28.738ZM448.776 27.45C448.762 26.862 448.552 26.4 448.146 26.036C447.726 25.686 447.222 25.504 446.62 25.504C446.06 25.504 445.598 25.686 445.206 26.036C444.814 26.386 444.576 26.862 444.506 27.45H448.776ZM454.283 24.496C454.675 24.272 455.137 24.16 455.669 24.16V25.812H455.263C454.633 25.812 454.157 25.98 453.835 26.288C453.513 26.61 453.359 27.156 453.359 27.94V32H451.763V24.286H453.359V25.406C453.583 25.014 453.891 24.72 454.283 24.496Z" fill="#121212"/>
<path opacity="0.5" d="M0 4C0 1.79086 1.79086 0 4 0H878C880.209 0 882 1.79086 882 4V261C882 263.209 880.209 265 878 265H3.99999C1.79085 265 0 263.209 0 261V4Z" fill="#EBEFEE"/>
</g>
</svg>
