<svg width="273" height="91" viewBox="0 0 273 91" fill="none" xmlns="http://www.w3.org/2000/svg">
<rect width="273" height="91" fill="#F5F5F5"/>
<rect x="-8823" y="-6238" width="23840" height="13376" fill="#F8FAF9"/>
<g style="mix-blend-mode:luminosity">
<g clip-path="url(#clip0_0_1)">
<path d="M0 0H273V87C273 89.2091 271.209 91 269 91H4C1.79086 91 0 89.2091 0 87V0Z" fill="white"/>
<rect x="193" y="17" width="60" height="60" rx="12" fill="#EBEFEE"/>
<path d="M225 37H217C215.9 37 215.01 37.9 215.01 39L215 55C215 56.1 215.89 57 216.99 57H229C230.1 57 231 56.1 231 55V43L225 37ZM217 55V39H224V44H229V55H217Z" fill="#595959"/>
<path d="M36.544 36.064L28.032 56H23.488L32.064 36.576H21.12V32.736H36.544V36.064ZM42.6313 43.648C40.4979 42.5387 39.4313 40.8213 39.4313 38.496C39.4313 37.344 39.7193 36.2987 40.2953 35.36C40.8926 34.4 41.7779 33.6427 42.9513 33.088C44.1459 32.512 45.5966 32.224 47.3033 32.224C49.0099 32.224 50.4499 32.512 51.6233 33.088C52.8179 33.6427 53.7033 34.4 54.2793 35.36C54.8766 36.2987 55.1753 37.344 55.1753 38.496C55.1753 39.6693 54.8873 40.704 54.3113 41.6C53.7353 42.4747 52.9673 43.1573 52.0073 43.648C53.1806 44.16 54.0979 44.9067 54.7593 45.888C55.4206 46.8693 55.7513 48.032 55.7513 49.376C55.7513 50.8267 55.3779 52.096 54.6313 53.184C53.9059 54.2507 52.9033 55.072 51.6233 55.648C50.3433 56.224 48.9033 56.512 47.3033 56.512C45.7033 56.512 44.2633 56.224 42.9833 55.648C41.7246 55.072 40.7219 54.2507 39.9753 53.184C39.2499 52.096 38.8873 50.8267 38.8873 49.376C38.8873 48.032 39.2179 46.8693 39.8793 45.888C40.5406 44.8853 41.4579 44.1387 42.6313 43.648ZM50.8233 39.136C50.8233 38.0907 50.5033 37.28 49.8633 36.704C49.2446 36.128 48.3913 35.84 47.3033 35.84C46.2366 35.84 45.3833 36.128 44.7433 36.704C44.1246 37.28 43.8153 38.1013 43.8153 39.168C43.8153 40.128 44.1353 40.896 44.7753 41.472C45.4366 42.048 46.2793 42.336 47.3033 42.336C48.3273 42.336 49.1699 42.048 49.8313 41.472C50.4926 40.8747 50.8233 40.096 50.8233 39.136ZM47.3033 45.6C46.0873 45.6 45.0953 45.9093 44.3273 46.528C43.5806 47.1467 43.2073 48.032 43.2073 49.184C43.2073 50.2507 43.5699 51.1253 44.2953 51.808C45.0419 52.4693 46.0446 52.8 47.3033 52.8C48.5619 52.8 49.5539 52.4587 50.2793 51.776C51.0046 51.0933 51.3673 50.2293 51.3673 49.184C51.3673 48.0533 50.9939 47.1787 50.2473 46.56C49.5006 45.92 48.5193 45.6 47.3033 45.6Z" fill="#121212"/>
<path opacity="0.5" d="M0 0H273V88C273 89.6569 271.657 91 270 91H3C1.34315 91 0 89.6569 0 88V0Z" fill="#EBEFEE"/>
</g>
</g>
<defs>
<clipPath id="clip0_0_1">
<path d="M0 0H273V87C273 89.2091 271.209 91 269 91H4C1.79086 91 0 89.2091 0 87V0Z" fill="white"/>
</clipPath>
</defs>
</svg>
