<svg width="273" height="91" viewBox="0 0 273 91" fill="none" xmlns="http://www.w3.org/2000/svg">
<rect width="273" height="91" fill="#F5F5F5"/>
<rect x="-9128" y="-6093" width="23840" height="13376" fill="#F8FAF9"/>
<g style="mix-blend-mode:luminosity">
<g clip-path="url(#clip0_0_1)">
<path d="M0 0H273V87C273 89.2091 271.209 91 269 91H4C1.79086 91 0 89.2091 0 87V0Z" fill="white"/>
<rect x="193" y="17" width="60" height="60" rx="12" fill="#EBEFEE"/>
<path d="M229 58.9998H222.45C221.37 58.9998 220.31 58.5498 219.56 57.7698L212.26 50.1598L214.33 48.3298C214.95 47.7798 215.86 47.6698 216.59 48.0598L219 49.3398V39.7898C219 38.4098 220.12 37.2898 221.5 37.2898C221.67 37.2898 221.84 37.3098 222.01 37.3398C222.1 36.0398 223.18 35.0098 224.5 35.0098C225.36 35.0098 226.11 35.4398 226.56 36.0998C226.85 35.9798 227.17 35.9198 227.5 35.9198C228.88 35.9198 230 37.0398 230 38.4198V38.6998C230.16 38.6698 230.33 38.6498 230.5 38.6498C231.88 38.6498 233 39.7698 233 41.1498V54.9998C233 57.2098 231.21 58.9998 229 58.9998ZM215.14 50.2798L221 56.3798C221.38 56.7698 221.9 56.9998 222.44 56.9998H229C230.1 56.9998 231 56.0998 231 54.9998V41.1498C231 40.8698 230.78 40.6498 230.5 40.6498C230.22 40.6498 230 40.8698 230 41.1498V46.9998H228V38.4198C228 38.1398 227.78 37.9198 227.5 37.9198C227.22 37.9198 227 38.1398 227 38.4198V46.9998H225V37.5098C225 37.2298 224.78 37.0098 224.5 37.0098C224.22 37.0098 224 37.2298 224 37.5098V46.9998H222V39.7898C222 39.5098 221.78 39.2898 221.5 39.2898C221.22 39.2898 221 39.5198 221 39.7898V52.6598L215.65 49.8298L215.14 50.2798V50.2798Z" fill="#595959"/>
<path d="M23.104 50.944C25.152 49.2373 26.784 47.8187 28 46.688C29.216 45.536 30.2293 44.3413 31.04 43.104C31.8507 41.8667 32.256 40.6507 32.256 39.456C32.256 38.368 32 37.5147 31.488 36.896C30.976 36.2773 30.1867 35.968 29.12 35.968C28.0533 35.968 27.232 36.3307 26.656 37.056C26.08 37.76 25.7813 38.7307 25.76 39.968H21.408C21.4933 37.408 22.2507 35.4667 23.68 34.144C25.1307 32.8213 26.9653 32.16 29.184 32.16C31.616 32.16 33.4827 32.8107 34.784 34.112C36.0853 35.392 36.736 37.088 36.736 39.2C36.736 40.864 36.288 42.4533 35.392 43.968C34.496 45.4827 33.472 46.8053 32.32 47.936C31.168 49.0453 29.664 50.3893 27.808 51.968H37.248V55.68H21.44V52.352L23.104 50.944Z" fill="#121212"/>
<path opacity="0.5" d="M0 0H273V88C273 89.6569 271.657 91 270 91H3C1.34315 91 0 89.6569 0 88V0Z" fill="#EBEFEE"/>
</g>
</g>
<defs>
<clipPath id="clip0_0_1">
<path d="M0 0H273V87C273 89.2091 271.209 91 269 91H4C1.79086 91 0 89.2091 0 87V0Z" fill="white"/>
</clipPath>
</defs>
</svg>
