<svg width="273" height="91" viewBox="0 0 273 91" fill="none" xmlns="http://www.w3.org/2000/svg">
<rect width="273" height="91" fill="#F5F5F5"/>
<rect x="-8823" y="-6093" width="23840" height="13376" fill="#F8FAF9"/>
<g style="mix-blend-mode:luminosity">
<g clip-path="url(#clip0_0_1)">
<path d="M0 0H273V87C273 89.2091 271.209 91 269 91H4C1.79086 91 0 89.2091 0 87V0Z" fill="white"/>
<rect x="193" y="17" width="60" height="60" rx="12" fill="#EBEFEE"/>
<path d="M218 37V48H221V57L228 45H224L227 37H218Z" fill="#595959"/>
<path d="M37.376 36.544H27.008V42.016C27.456 41.4613 28.096 41.0133 28.928 40.672C29.76 40.3093 30.6453 40.128 31.584 40.128C33.2907 40.128 34.688 40.5013 35.776 41.248C36.864 41.9947 37.6533 42.9547 38.144 44.128C38.6347 45.28 38.88 46.5173 38.88 47.84C38.88 50.2933 38.176 52.2667 36.768 53.76C35.3813 55.2533 33.3973 56 30.816 56C28.384 56 26.4427 55.392 24.992 54.176C23.5413 52.96 22.72 51.3707 22.528 49.408H26.88C27.072 50.2613 27.4987 50.944 28.16 51.456C28.8427 51.968 29.7067 52.224 30.752 52.224C32.0107 52.224 32.96 51.8293 33.6 51.04C34.24 50.2507 34.56 49.2053 34.56 47.904C34.56 46.5813 34.2293 45.5787 33.568 44.896C32.928 44.192 31.9787 43.84 30.72 43.84C29.824 43.84 29.0773 44.064 28.48 44.512C27.8827 44.96 27.456 45.5573 27.2 46.304H22.912V32.608H37.376V36.544Z" fill="#121212"/>
<path opacity="0.5" d="M0 0H273V88C273 89.6569 271.657 91 270 91H3C1.34315 91 0 89.6569 0 88V0Z" fill="#EBEFEE"/>
</g>
</g>
<defs>
<clipPath id="clip0_0_1">
<path d="M0 0H273V87C273 89.2091 271.209 91 269 91H4C1.79086 91 0 89.2091 0 87V0Z" fill="white"/>
</clipPath>
</defs>
</svg>
